G04 #@! TF.FileFunction,Copper,L1,Top,Signal*
%FSLAX46Y46*%
G04 Gerber Fmt 4.6, Leading zero omitted, Abs format (unit mm)*
G04 Created by KiCad (PCBNEW 4.0.7) date 03/02/18 17:19:26*
%MOMM*%
%LPD*%
G01*
G04 APERTURE LIST*
%ADD10C,0.100000*%
%ADD11R,1.800000X1.800000*%
%ADD12C,1.800000*%
%ADD13R,1.700000X1.700000*%
%ADD14O,1.700000X1.700000*%
%ADD15R,1.200000X1.700000*%
%ADD16O,1.200000X1.700000*%
%ADD17R,1.700000X1.200000*%
%ADD18O,1.700000X1.200000*%
%ADD19C,1.400000*%
%ADD20O,1.400000X1.400000*%
%ADD21C,1.600000*%
%ADD22O,1.600000X1.600000*%
%ADD23O,1.800000X1.800000*%
%ADD24C,5.080000*%
%ADD25C,0.600000*%
%ADD26C,0.500000*%
%ADD27C,0.250000*%
G04 APERTURE END LIST*
D10*
D11*
X113030000Y-56515000D03*
D12*
X110490000Y-56515000D03*
D13*
X158115000Y-153035000D03*
D14*
X155575000Y-153035000D03*
X153035000Y-153035000D03*
D13*
X149225000Y-153035000D03*
D14*
X146685000Y-153035000D03*
X144145000Y-153035000D03*
D13*
X140335000Y-153035000D03*
D14*
X137795000Y-153035000D03*
X135255000Y-153035000D03*
D13*
X131445000Y-153035000D03*
D14*
X128905000Y-153035000D03*
X126365000Y-153035000D03*
D15*
X167005000Y-156210000D03*
D16*
X165005000Y-156210000D03*
X163005000Y-156210000D03*
X161005000Y-156210000D03*
D15*
X177800000Y-156210000D03*
D16*
X175800000Y-156210000D03*
X173800000Y-156210000D03*
X171800000Y-156210000D03*
D17*
X104140000Y-119380000D03*
D18*
X104140000Y-121380000D03*
X104140000Y-123380000D03*
X104140000Y-125380000D03*
D17*
X104140000Y-130175000D03*
D18*
X104140000Y-132175000D03*
X104140000Y-134175000D03*
X104140000Y-136175000D03*
D15*
X156210000Y-156210000D03*
D16*
X154210000Y-156210000D03*
X152210000Y-156210000D03*
D17*
X104140000Y-110490000D03*
D18*
X104140000Y-112490000D03*
X104140000Y-114490000D03*
D17*
X104140000Y-104140000D03*
D18*
X104140000Y-106140000D03*
D17*
X104140000Y-97155000D03*
D18*
X104140000Y-99155000D03*
D15*
X130810000Y-156210000D03*
D16*
X128810000Y-156210000D03*
X126810000Y-156210000D03*
D15*
X141605000Y-156210000D03*
D16*
X139605000Y-156210000D03*
X137605000Y-156210000D03*
X135605000Y-156210000D03*
D17*
X104140000Y-140970000D03*
D18*
X104140000Y-142970000D03*
X104140000Y-144970000D03*
X104140000Y-146970000D03*
D13*
X109220000Y-155575000D03*
D14*
X109220000Y-153035000D03*
X109220000Y-150495000D03*
X109220000Y-147955000D03*
X109220000Y-145415000D03*
X109220000Y-142875000D03*
X109220000Y-140335000D03*
X109220000Y-137795000D03*
D19*
X110490000Y-60325000D03*
D20*
X118110000Y-60325000D03*
D19*
X165735000Y-150495000D03*
D20*
X160655000Y-150495000D03*
D19*
X176530000Y-150495000D03*
D20*
X171450000Y-150495000D03*
D19*
X167640000Y-153035000D03*
D20*
X162560000Y-153035000D03*
D19*
X178435000Y-153035000D03*
D20*
X173355000Y-153035000D03*
D19*
X112395000Y-125730000D03*
D20*
X107315000Y-125730000D03*
D19*
X112395000Y-132715000D03*
D20*
X107315000Y-132715000D03*
D19*
X112395000Y-123190000D03*
D20*
X107315000Y-123190000D03*
D19*
X112395000Y-130175000D03*
D20*
X107315000Y-130175000D03*
D13*
X177165000Y-91440000D03*
D14*
X177165000Y-93980000D03*
X177165000Y-96520000D03*
X177165000Y-99060000D03*
X177165000Y-101600000D03*
X177165000Y-104140000D03*
X177165000Y-106680000D03*
X177165000Y-109220000D03*
D13*
X177165000Y-114300000D03*
D14*
X177165000Y-116840000D03*
X177165000Y-119380000D03*
X177165000Y-121920000D03*
X177165000Y-124460000D03*
X177165000Y-127000000D03*
X177165000Y-129540000D03*
X177165000Y-132080000D03*
D13*
X128905000Y-137160000D03*
D14*
X128905000Y-134620000D03*
X131445000Y-137160000D03*
X131445000Y-134620000D03*
X133985000Y-137160000D03*
X133985000Y-134620000D03*
X136525000Y-137160000D03*
X136525000Y-134620000D03*
X139065000Y-137160000D03*
X139065000Y-134620000D03*
X141605000Y-137160000D03*
X141605000Y-134620000D03*
X144145000Y-137160000D03*
X144145000Y-134620000D03*
X146685000Y-137160000D03*
X146685000Y-134620000D03*
X149225000Y-137160000D03*
X149225000Y-134620000D03*
X151765000Y-137160000D03*
X151765000Y-134620000D03*
X154305000Y-137160000D03*
X154305000Y-134620000D03*
X156845000Y-137160000D03*
X156845000Y-134620000D03*
X159385000Y-137160000D03*
X159385000Y-134620000D03*
X161925000Y-137160000D03*
X161925000Y-134620000D03*
X164465000Y-137160000D03*
X164465000Y-134620000D03*
X167005000Y-137160000D03*
X167005000Y-134620000D03*
X169545000Y-137160000D03*
X169545000Y-134620000D03*
X172085000Y-137160000D03*
X172085000Y-134620000D03*
D13*
X128905000Y-64770000D03*
D14*
X128905000Y-67310000D03*
X128905000Y-69850000D03*
X128905000Y-72390000D03*
X128905000Y-74930000D03*
X128905000Y-77470000D03*
X128905000Y-80010000D03*
X128905000Y-82550000D03*
D13*
X128905000Y-86360000D03*
D14*
X128905000Y-88900000D03*
X128905000Y-91440000D03*
X128905000Y-93980000D03*
X128905000Y-96520000D03*
X128905000Y-99060000D03*
X128905000Y-101600000D03*
X128905000Y-104140000D03*
D13*
X128905000Y-109220000D03*
D14*
X128905000Y-111760000D03*
X128905000Y-114300000D03*
X128905000Y-116840000D03*
X128905000Y-119380000D03*
X128905000Y-121920000D03*
X128905000Y-124460000D03*
X128905000Y-127000000D03*
D13*
X133985000Y-113030000D03*
D14*
X136525000Y-113030000D03*
X133985000Y-110490000D03*
X136525000Y-110490000D03*
X133985000Y-107950000D03*
X136525000Y-107950000D03*
X133985000Y-105410000D03*
X136525000Y-105410000D03*
X133985000Y-102870000D03*
X136525000Y-102870000D03*
X133985000Y-100330000D03*
X136525000Y-100330000D03*
X133985000Y-97790000D03*
X136525000Y-97790000D03*
X133985000Y-95250000D03*
X136525000Y-95250000D03*
X133985000Y-92710000D03*
X136525000Y-92710000D03*
X133985000Y-90170000D03*
X136525000Y-90170000D03*
X133985000Y-87630000D03*
X136525000Y-87630000D03*
X133985000Y-85090000D03*
X136525000Y-85090000D03*
X133985000Y-82550000D03*
X136525000Y-82550000D03*
X133985000Y-80010000D03*
X136525000Y-80010000D03*
X133985000Y-77470000D03*
X136525000Y-77470000D03*
X133985000Y-74930000D03*
X136525000Y-74930000D03*
X133985000Y-72390000D03*
X136525000Y-72390000D03*
X133985000Y-69850000D03*
X136525000Y-69850000D03*
X133985000Y-67310000D03*
X136525000Y-67310000D03*
X133985000Y-64770000D03*
X136525000Y-64770000D03*
D13*
X120015000Y-156210000D03*
D14*
X117475000Y-156210000D03*
X114935000Y-156210000D03*
D13*
X120015000Y-153670000D03*
D14*
X117475000Y-153670000D03*
X114935000Y-153670000D03*
D13*
X120015000Y-151130000D03*
D14*
X117475000Y-151130000D03*
X114935000Y-151130000D03*
D13*
X120015000Y-148590000D03*
D14*
X117475000Y-148590000D03*
X114935000Y-148590000D03*
D13*
X120015000Y-146050000D03*
D14*
X117475000Y-146050000D03*
X114935000Y-146050000D03*
D13*
X120015000Y-143510000D03*
D14*
X117475000Y-143510000D03*
X114935000Y-143510000D03*
D21*
X110490000Y-67310000D03*
D22*
X118110000Y-67310000D03*
D21*
X110490000Y-85725000D03*
D22*
X118110000Y-85725000D03*
D11*
X112395000Y-76835000D03*
D23*
X112395000Y-74295000D03*
X112395000Y-71755000D03*
D11*
X111760000Y-95250000D03*
D23*
X111760000Y-92710000D03*
X111760000Y-90170000D03*
D11*
X112395000Y-115570000D03*
D23*
X112395000Y-113030000D03*
X112395000Y-110490000D03*
D17*
X104140000Y-63500000D03*
D18*
X104140000Y-65500000D03*
D17*
X104140000Y-56515000D03*
D18*
X104140000Y-58515000D03*
D24*
X137795000Y-145415000D03*
X145415000Y-145415000D03*
X168275000Y-145415000D03*
X175895000Y-145415000D03*
X153035000Y-145415000D03*
X160655000Y-145415000D03*
D13*
X106680000Y-74295000D03*
D14*
X104140000Y-74295000D03*
D13*
X106680000Y-71120000D03*
D14*
X104140000Y-71120000D03*
D13*
X177165000Y-68580000D03*
D14*
X177165000Y-71120000D03*
X177165000Y-73660000D03*
X177165000Y-76200000D03*
X177165000Y-78740000D03*
X177165000Y-81280000D03*
X177165000Y-83820000D03*
X177165000Y-86360000D03*
D21*
X116840000Y-102235000D03*
X111840000Y-102235000D03*
X116840000Y-105410000D03*
X111840000Y-105410000D03*
X118110000Y-64135000D03*
X113110000Y-64135000D03*
X118110000Y-82550000D03*
X113110000Y-82550000D03*
D25*
X115570000Y-68580000D03*
X158750000Y-139065000D03*
X128905000Y-149860000D03*
X135255000Y-149860000D03*
X168910000Y-152400000D03*
X168910000Y-150495000D03*
X107950000Y-113030000D03*
X106680000Y-111125000D03*
X106680000Y-67945000D03*
X139700000Y-128270000D03*
X139700000Y-120650000D03*
X138430000Y-122555000D03*
X138430000Y-130175000D03*
X154305000Y-149860000D03*
X155575000Y-140335000D03*
X156210000Y-123190000D03*
X107315000Y-117475000D03*
X145415000Y-104775000D03*
X137160000Y-114935000D03*
X124460000Y-153670000D03*
X125730000Y-146050000D03*
X169545000Y-132080000D03*
X128905000Y-132715000D03*
X109855000Y-135255000D03*
X106680000Y-136525000D03*
X135255000Y-131445000D03*
X163195000Y-132080000D03*
X136525000Y-131445000D03*
X164465000Y-131445000D03*
X161925000Y-132715000D03*
X134620000Y-132080000D03*
X116205000Y-135255000D03*
X120650000Y-117475000D03*
X121285000Y-118745000D03*
X121920000Y-120015000D03*
X123190000Y-120650000D03*
X123825000Y-121285000D03*
X125095000Y-121920000D03*
X122555000Y-153670000D03*
X106680000Y-104140000D03*
X136525000Y-149225000D03*
X133350000Y-147955000D03*
X107315000Y-128270000D03*
X113030000Y-120650000D03*
X111760000Y-139065000D03*
X127000000Y-101600000D03*
X127000000Y-97790000D03*
D26*
X113110000Y-64135000D02*
X113110000Y-66120000D01*
X113110000Y-66120000D02*
X115570000Y-68580000D01*
D27*
X112395000Y-113030000D02*
X113030000Y-113030000D01*
X113030000Y-113030000D02*
X114935000Y-111125000D01*
X114935000Y-111125000D02*
X114935000Y-108505000D01*
X114935000Y-108505000D02*
X111840000Y-105410000D01*
X171450000Y-139700000D02*
X172085000Y-139065000D01*
X168275000Y-142875000D02*
X171450000Y-139700000D01*
X172085000Y-139065000D02*
X172085000Y-137160000D01*
X154305000Y-139065000D02*
X158750000Y-139065000D01*
X153035000Y-140335000D02*
X154305000Y-139065000D01*
X153035000Y-145415000D02*
X153035000Y-140335000D01*
D26*
X104140000Y-58515000D02*
X105315000Y-58515000D01*
X111125000Y-54610000D02*
X113030000Y-56515000D01*
X109220000Y-54610000D02*
X111125000Y-54610000D01*
X105315000Y-58515000D02*
X109220000Y-54610000D01*
D27*
X168275000Y-145415000D02*
X168275000Y-142875000D01*
X135255000Y-96520000D02*
X135255000Y-101600000D01*
X135255000Y-101600000D02*
X136525000Y-102870000D01*
X135255000Y-88900000D02*
X135255000Y-96520000D01*
X135255000Y-96520000D02*
X133985000Y-97790000D01*
X135255000Y-83820000D02*
X136525000Y-82550000D01*
X135255000Y-88900000D02*
X135255000Y-83820000D01*
X133985000Y-90170000D02*
X135255000Y-88900000D01*
X126365000Y-153035000D02*
X126365000Y-152400000D01*
X126365000Y-152400000D02*
X128905000Y-149860000D01*
X128905000Y-149860000D02*
X135255000Y-149860000D01*
X177800000Y-156210000D02*
X177800000Y-154940000D01*
X174625000Y-151765000D02*
X177800000Y-154940000D01*
X172720000Y-151765000D02*
X174625000Y-151765000D01*
X172085000Y-152400000D02*
X172720000Y-151765000D01*
X172085000Y-152400000D02*
X168910000Y-152400000D01*
X168275000Y-149860000D02*
X168275000Y-145415000D01*
X168910000Y-150495000D02*
X168275000Y-149860000D01*
X104140000Y-97155000D02*
X106045000Y-99060000D01*
X106045000Y-99060000D02*
X106045000Y-105410000D01*
X104140000Y-104140000D02*
X104775000Y-104140000D01*
X104775000Y-104140000D02*
X106045000Y-105410000D01*
X106045000Y-105410000D02*
X106680000Y-106045000D01*
X106680000Y-106045000D02*
X106680000Y-111125000D01*
X104140000Y-110490000D02*
X106045000Y-110490000D01*
X106045000Y-117475000D02*
X104140000Y-119380000D01*
X106045000Y-114935000D02*
X106045000Y-117475000D01*
X107950000Y-113030000D02*
X106045000Y-114935000D01*
X106045000Y-110490000D02*
X106680000Y-111125000D01*
X104140000Y-130175000D02*
X104775000Y-130175000D01*
X104775000Y-130175000D02*
X106045000Y-131445000D01*
X106045000Y-141065000D02*
X104140000Y-142970000D01*
X106045000Y-131445000D02*
X106045000Y-141065000D01*
X104140000Y-130175000D02*
X104140000Y-128270000D01*
X105410000Y-120650000D02*
X104140000Y-119380000D01*
X105410000Y-127000000D02*
X105410000Y-120650000D01*
X104140000Y-128270000D02*
X105410000Y-127000000D01*
X109855000Y-154940000D02*
X116840000Y-154940000D01*
X121920000Y-154940000D02*
X129540000Y-154940000D01*
X116840000Y-154940000D02*
X121920000Y-154940000D01*
X109855000Y-154940000D02*
X109220000Y-155575000D01*
X112395000Y-130175000D02*
X112395000Y-125730000D01*
X112395000Y-132715000D02*
X112395000Y-130175000D01*
X112395000Y-125730000D02*
X112395000Y-123190000D01*
X112395000Y-110490000D02*
X110490000Y-112395000D01*
X110490000Y-112395000D02*
X104235000Y-112395000D01*
X104235000Y-112395000D02*
X104140000Y-112490000D01*
X128810000Y-156210000D02*
X128810000Y-155670000D01*
X128810000Y-155670000D02*
X129540000Y-154940000D01*
X129540000Y-154940000D02*
X140335000Y-154940000D01*
X140335000Y-154940000D02*
X141605000Y-156210000D01*
X163735000Y-154940000D02*
X174530000Y-154940000D01*
X174530000Y-154940000D02*
X175800000Y-156210000D01*
X152940000Y-154940000D02*
X163735000Y-154940000D01*
X163735000Y-154940000D02*
X165005000Y-156210000D01*
X141605000Y-156210000D02*
X142875000Y-156210000D01*
X152940000Y-154940000D02*
X154210000Y-156210000D01*
X144145000Y-154940000D02*
X152940000Y-154940000D01*
X142875000Y-156210000D02*
X144145000Y-154940000D01*
D26*
X109220000Y-71755000D02*
X106680000Y-74295000D01*
X109220000Y-70485000D02*
X109220000Y-71755000D01*
X106680000Y-67945000D02*
X109220000Y-70485000D01*
X109220000Y-59055000D02*
X130810000Y-59055000D01*
X104775000Y-63500000D02*
X109220000Y-59055000D01*
X135890000Y-55245000D02*
X139700000Y-59055000D01*
X134620000Y-55245000D02*
X135890000Y-55245000D01*
X130810000Y-59055000D02*
X134620000Y-55245000D01*
X104140000Y-63500000D02*
X104775000Y-63500000D01*
X139065000Y-128905000D02*
X139700000Y-128270000D01*
X130810000Y-145415000D02*
X137795000Y-145415000D01*
X125670002Y-140275002D02*
X130810000Y-145415000D01*
X125670002Y-130869998D02*
X125670002Y-140275002D01*
X127635000Y-128905000D02*
X125670002Y-130869998D01*
X139700000Y-64135000D02*
X139700000Y-120650000D01*
X127635000Y-128905000D02*
X139065000Y-128905000D01*
X139700000Y-59055000D02*
X139700000Y-64135000D01*
X109220000Y-67310000D02*
X109220000Y-68580000D01*
X107410000Y-65500000D02*
X109220000Y-67310000D01*
X109220000Y-77470000D02*
X108585000Y-78105000D01*
X108585000Y-78105000D02*
X105410000Y-78105000D01*
X105410000Y-78105000D02*
X104140000Y-76835000D01*
X104140000Y-74295000D02*
X104140000Y-76835000D01*
X107410000Y-65500000D02*
X104140000Y-65500000D01*
X110490000Y-76200000D02*
X109220000Y-77470000D01*
X110490000Y-69850000D02*
X110490000Y-76200000D01*
X109220000Y-68580000D02*
X110490000Y-69850000D01*
X128270000Y-130175000D02*
X127000000Y-131445000D01*
X127000000Y-131445000D02*
X127000000Y-139065000D01*
X127000000Y-139065000D02*
X128905000Y-140970000D01*
X128905000Y-140970000D02*
X140970000Y-140970000D01*
X145415000Y-145415000D02*
X140970000Y-140970000D01*
X109220000Y-62230000D02*
X132715000Y-62230000D01*
X105950000Y-65500000D02*
X109220000Y-62230000D01*
X138430000Y-64135000D02*
X138430000Y-122555000D01*
X138430000Y-130175000D02*
X128270000Y-130175000D01*
X105950000Y-65500000D02*
X104140000Y-65500000D01*
X137160000Y-62865000D02*
X138430000Y-64135000D01*
X133350000Y-62865000D02*
X137160000Y-62865000D01*
X132715000Y-62230000D02*
X133350000Y-62865000D01*
D27*
X177165000Y-91440000D02*
X178435000Y-92710000D01*
X156845000Y-147320000D02*
X154305000Y-149860000D01*
X156845000Y-141605000D02*
X156845000Y-147320000D01*
X155575000Y-140335000D02*
X156845000Y-141605000D01*
X156210000Y-101600000D02*
X156210000Y-123190000D01*
X162560000Y-95250000D02*
X156210000Y-101600000D01*
X177800000Y-95250000D02*
X162560000Y-95250000D01*
X178435000Y-94615000D02*
X177800000Y-95250000D01*
X178435000Y-92710000D02*
X178435000Y-94615000D01*
X130810000Y-113030000D02*
X131445000Y-113030000D01*
X177165000Y-93980000D02*
X162560000Y-93980000D01*
X118110000Y-113030000D02*
X130810000Y-113030000D01*
X113665000Y-117475000D02*
X118110000Y-113030000D01*
X107315000Y-117475000D02*
X113665000Y-117475000D01*
X156210000Y-93980000D02*
X162560000Y-93980000D01*
X145415000Y-104775000D02*
X156210000Y-93980000D01*
X133350000Y-114935000D02*
X137160000Y-114935000D01*
X131445000Y-113030000D02*
X133350000Y-114935000D01*
X168275000Y-133350000D02*
X129540000Y-133350000D01*
X169545000Y-132080000D02*
X168275000Y-133350000D01*
X124460000Y-153670000D02*
X124460000Y-149860000D01*
X124460000Y-149860000D02*
X125730000Y-148590000D01*
X125730000Y-148590000D02*
X125730000Y-146050000D01*
X129540000Y-133350000D02*
X128905000Y-132715000D01*
X109855000Y-135255000D02*
X107950000Y-135255000D01*
X107950000Y-135255000D02*
X106680000Y-136525000D01*
X135890000Y-132080000D02*
X163195000Y-132080000D01*
X135255000Y-131445000D02*
X135890000Y-132080000D01*
X136525000Y-131445000D02*
X164465000Y-131445000D01*
X135255000Y-132715000D02*
X161925000Y-132715000D01*
X134620000Y-132080000D02*
X135255000Y-132715000D01*
X109220000Y-147955000D02*
X109855000Y-147320000D01*
X115570000Y-147320000D02*
X109855000Y-147320000D01*
X116205000Y-146685000D02*
X115570000Y-147320000D01*
X116205000Y-135255000D02*
X116205000Y-146685000D01*
X120650000Y-142875000D02*
X120650000Y-139700000D01*
X120650000Y-117475000D02*
X120650000Y-139700000D01*
X120650000Y-142875000D02*
X120015000Y-143510000D01*
X121285000Y-142875000D02*
X121285000Y-144780000D01*
X121285000Y-142875000D02*
X121285000Y-118745000D01*
X121285000Y-144780000D02*
X120015000Y-146050000D01*
X121920000Y-144780000D02*
X121920000Y-146685000D01*
X121920000Y-144780000D02*
X121920000Y-120015000D01*
X121920000Y-146685000D02*
X120015000Y-148590000D01*
X122555000Y-146685000D02*
X122555000Y-148590000D01*
X123190000Y-120650000D02*
X122555000Y-121285000D01*
X122555000Y-121285000D02*
X122555000Y-146685000D01*
X122555000Y-148590000D02*
X120015000Y-151130000D01*
X123190000Y-148590000D02*
X123190000Y-150495000D01*
X123190000Y-121920000D02*
X123825000Y-121285000D01*
X123190000Y-148590000D02*
X123190000Y-121920000D01*
X123190000Y-150495000D02*
X120015000Y-153670000D01*
X123825000Y-150495000D02*
X123825000Y-152400000D01*
X125095000Y-121920000D02*
X123825000Y-123190000D01*
X123825000Y-123190000D02*
X123825000Y-150495000D01*
X123825000Y-152400000D02*
X122555000Y-153670000D01*
X128905000Y-96520000D02*
X129540000Y-96520000D01*
X129540000Y-96520000D02*
X130810000Y-97790000D01*
X130810000Y-97790000D02*
X130810000Y-99695000D01*
X130810000Y-99695000D02*
X130175000Y-100330000D01*
X130175000Y-100330000D02*
X110490000Y-100330000D01*
X110490000Y-100330000D02*
X106680000Y-104140000D01*
X128905000Y-99060000D02*
X109220000Y-99060000D01*
X102870000Y-97885000D02*
X104140000Y-99155000D01*
X102870000Y-95885000D02*
X102870000Y-97885000D01*
X103505000Y-95250000D02*
X102870000Y-95885000D01*
X105410000Y-95250000D02*
X103505000Y-95250000D01*
X109220000Y-99060000D02*
X105410000Y-95250000D01*
X114300000Y-137795000D02*
X110490000Y-141605000D01*
X114300000Y-118110000D02*
X114300000Y-137795000D01*
X118110000Y-114300000D02*
X114300000Y-118110000D01*
X128905000Y-114300000D02*
X118110000Y-114300000D01*
X107505000Y-141605000D02*
X104140000Y-144970000D01*
X110490000Y-141605000D02*
X107505000Y-141605000D01*
X114935000Y-138430000D02*
X114935000Y-139700000D01*
X116840000Y-116840000D02*
X114935000Y-118745000D01*
X114935000Y-118745000D02*
X114935000Y-138430000D01*
X128905000Y-116840000D02*
X116840000Y-116840000D01*
X106965000Y-144145000D02*
X104140000Y-146970000D01*
X110490000Y-144145000D02*
X106965000Y-144145000D01*
X114935000Y-139700000D02*
X110490000Y-144145000D01*
X128905000Y-119380000D02*
X124460000Y-123825000D01*
X131445000Y-149225000D02*
X136525000Y-149225000D01*
X124460000Y-142240000D02*
X131445000Y-149225000D01*
X124460000Y-123825000D02*
X124460000Y-142240000D01*
X128905000Y-121920000D02*
X128270000Y-121920000D01*
X128270000Y-121920000D02*
X125095000Y-125095000D01*
X125095000Y-125095000D02*
X125095000Y-141605000D01*
X125095000Y-141605000D02*
X131445000Y-147955000D01*
X131445000Y-147955000D02*
X133350000Y-147955000D01*
X107315000Y-125730000D02*
X107315000Y-126365000D01*
X107315000Y-126365000D02*
X108585000Y-127635000D01*
X108585000Y-131445000D02*
X107315000Y-132715000D01*
X108585000Y-127635000D02*
X108585000Y-131445000D01*
X160655000Y-150495000D02*
X161925000Y-151765000D01*
X170815000Y-151765000D02*
X171450000Y-151130000D01*
X161925000Y-151765000D02*
X170815000Y-151765000D01*
X171450000Y-151130000D02*
X171450000Y-150495000D01*
X128905000Y-124460000D02*
X166370000Y-124460000D01*
X172085000Y-149860000D02*
X171450000Y-150495000D01*
X172085000Y-143510000D02*
X172085000Y-149860000D01*
X174625000Y-140970000D02*
X172085000Y-143510000D01*
X174625000Y-132715000D02*
X174625000Y-140970000D01*
X166370000Y-124460000D02*
X174625000Y-132715000D01*
X170815000Y-130810000D02*
X170815000Y-137795000D01*
X128905000Y-127000000D02*
X167005000Y-127000000D01*
X170815000Y-130810000D02*
X167005000Y-127000000D01*
X170815000Y-137795000D02*
X164465000Y-144145000D01*
X164465000Y-144145000D02*
X164465000Y-147955000D01*
X164465000Y-147955000D02*
X163195000Y-149225000D01*
X163195000Y-149225000D02*
X160020000Y-149225000D01*
X160020000Y-149225000D02*
X159385000Y-149860000D01*
X159385000Y-149860000D02*
X159385000Y-151765000D01*
X159385000Y-151765000D02*
X160655000Y-153035000D01*
X160655000Y-153035000D02*
X162560000Y-153035000D01*
X107315000Y-128270000D02*
X106045000Y-127000000D01*
X106045000Y-127000000D02*
X106045000Y-124460000D01*
X106045000Y-124460000D02*
X107315000Y-123190000D01*
X173355000Y-153035000D02*
X171450000Y-153035000D01*
X171450000Y-153035000D02*
X170180000Y-154305000D01*
X170180000Y-154305000D02*
X163830000Y-154305000D01*
X163830000Y-154305000D02*
X162560000Y-153035000D01*
D26*
X113665000Y-137160000D02*
X111760000Y-139065000D01*
X113030000Y-120650000D02*
X113665000Y-121285000D01*
X113665000Y-121285000D02*
X113665000Y-137160000D01*
X144780000Y-151130000D02*
X153670000Y-151130000D01*
X153670000Y-151130000D02*
X155575000Y-153035000D01*
X135890000Y-151130000D02*
X144780000Y-151130000D01*
X144780000Y-151130000D02*
X146685000Y-153035000D01*
X128905000Y-153035000D02*
X128905000Y-151765000D01*
X135890000Y-151130000D02*
X137795000Y-153035000D01*
X129540000Y-151130000D02*
X135890000Y-151130000D01*
X128905000Y-151765000D02*
X129540000Y-151130000D01*
X112395000Y-71755000D02*
X118745000Y-71755000D01*
X130810000Y-107315000D02*
X133985000Y-110490000D01*
X128905000Y-107315000D02*
X130810000Y-107315000D01*
X127000000Y-105410000D02*
X128905000Y-107315000D01*
X127000000Y-101600000D02*
X127000000Y-105410000D01*
X127000000Y-80010000D02*
X127000000Y-97790000D01*
X118745000Y-71755000D02*
X127000000Y-80010000D01*
M02*
