%FSLAX45Y45*%
G04 Gerber Fmt 4.5, Leading zero omitted, Abs format (unit mm)*
G04 Created by KiCad (PCBNEW 4.0.7) date 03/02/18 17:19:39*
%MOMM*%
%LPD*%
G01*
G04 APERTURE LIST*
%ADD10C,0.127000*%
%ADD11C,0.100000*%
%ADD12C,0.200000*%
%ADD13C,0.300000*%
G04 APERTURE END LIST*
D10*
D11*
X10223500Y-5334000D02*
X10922000Y-5334000D01*
X10223500Y-15748000D02*
X10223500Y-5334000D01*
X10922000Y-15748000D02*
X10223500Y-15748000D01*
X18796000Y-15748000D02*
X17970500Y-15748000D01*
X18796000Y-5334000D02*
X18796000Y-15748000D01*
X10922000Y-5334000D02*
X18796000Y-5334000D01*
X10922000Y-15748000D02*
X17970500Y-15748000D01*
D12*
X10648000Y-6774500D02*
X10688000Y-6814500D01*
X10688000Y-6774500D02*
X10648000Y-6814500D01*
X10648000Y-10394000D02*
X10688000Y-10434000D01*
X10688000Y-10394000D02*
X10648000Y-10434000D01*
X10648000Y-11092500D02*
X10688000Y-11132500D01*
X10688000Y-11092500D02*
X10648000Y-11132500D01*
X10648000Y-13632500D02*
X10688000Y-13672500D01*
X10688000Y-13632500D02*
X10648000Y-13672500D01*
X10711500Y-11727500D02*
X10751500Y-11767500D01*
X10751500Y-11727500D02*
X10711500Y-11767500D01*
X10711500Y-12807000D02*
X10751500Y-12847000D01*
X10751500Y-12807000D02*
X10711500Y-12847000D01*
X10775000Y-11283000D02*
X10815000Y-11323000D01*
X10815000Y-11283000D02*
X10775000Y-11323000D01*
X10965500Y-13505500D02*
X11005500Y-13545500D01*
X11005500Y-13505500D02*
X10965500Y-13545500D01*
X11156000Y-13886500D02*
X11196000Y-13926500D01*
X11196000Y-13886500D02*
X11156000Y-13926500D01*
X11283000Y-12045000D02*
X11323000Y-12085000D01*
X11323000Y-12045000D02*
X11283000Y-12085000D01*
X11537000Y-6838000D02*
X11577000Y-6878000D01*
X11577000Y-6838000D02*
X11537000Y-6878000D01*
X11600500Y-13505500D02*
X11640500Y-13545500D01*
X11640500Y-13505500D02*
X11600500Y-13545500D01*
X12045000Y-11727500D02*
X12085000Y-11767500D01*
X12085000Y-11727500D02*
X12045000Y-11767500D01*
X12108500Y-11854500D02*
X12148500Y-11894500D01*
X12148500Y-11854500D02*
X12108500Y-11894500D01*
X12172000Y-11981500D02*
X12212000Y-12021500D01*
X12212000Y-11981500D02*
X12172000Y-12021500D01*
X12235500Y-15347000D02*
X12275500Y-15387000D01*
X12275500Y-15347000D02*
X12235500Y-15387000D01*
X12299000Y-12045000D02*
X12339000Y-12085000D01*
X12339000Y-12045000D02*
X12299000Y-12085000D01*
X12362500Y-12108500D02*
X12402500Y-12148500D01*
X12402500Y-12108500D02*
X12362500Y-12148500D01*
X12426000Y-15347000D02*
X12466000Y-15387000D01*
X12466000Y-15347000D02*
X12426000Y-15387000D01*
X12489500Y-12172000D02*
X12529500Y-12212000D01*
X12529500Y-12172000D02*
X12489500Y-12212000D01*
X12553000Y-14585000D02*
X12593000Y-14625000D01*
X12593000Y-14585000D02*
X12553000Y-14625000D01*
X12680000Y-9759000D02*
X12720000Y-9799000D01*
X12720000Y-9759000D02*
X12680000Y-9799000D01*
X12680000Y-10140000D02*
X12720000Y-10180000D01*
X12720000Y-10140000D02*
X12680000Y-10180000D01*
X12870500Y-13251500D02*
X12910500Y-13291500D01*
X12910500Y-13251500D02*
X12870500Y-13291500D01*
X12870500Y-14966000D02*
X12910500Y-15006000D01*
X12910500Y-14966000D02*
X12870500Y-15006000D01*
X13315000Y-14775500D02*
X13355000Y-14815500D01*
X13355000Y-14775500D02*
X13315000Y-14815500D01*
X13442000Y-13188000D02*
X13482000Y-13228000D01*
X13482000Y-13188000D02*
X13442000Y-13228000D01*
X13505500Y-13124500D02*
X13545500Y-13164500D01*
X13545500Y-13124500D02*
X13505500Y-13164500D01*
X13505500Y-14966000D02*
X13545500Y-15006000D01*
X13545500Y-14966000D02*
X13505500Y-15006000D01*
X13632500Y-13124500D02*
X13672500Y-13164500D01*
X13672500Y-13124500D02*
X13632500Y-13164500D01*
X13632500Y-14902500D02*
X13672500Y-14942500D01*
X13672500Y-14902500D02*
X13632500Y-14942500D01*
X13696000Y-11473500D02*
X13736000Y-11513500D01*
X13736000Y-11473500D02*
X13696000Y-11513500D01*
X13823000Y-12235500D02*
X13863000Y-12275500D01*
X13863000Y-12235500D02*
X13823000Y-12275500D01*
X13823000Y-12997500D02*
X13863000Y-13037500D01*
X13863000Y-12997500D02*
X13823000Y-13037500D01*
X13950000Y-12045000D02*
X13990000Y-12085000D01*
X13990000Y-12045000D02*
X13950000Y-12085000D01*
X13950000Y-12807000D02*
X13990000Y-12847000D01*
X13990000Y-12807000D02*
X13950000Y-12847000D01*
X14521500Y-10457500D02*
X14561500Y-10497500D01*
X14561500Y-10457500D02*
X14521500Y-10497500D01*
X15410500Y-14966000D02*
X15450500Y-15006000D01*
X15450500Y-14966000D02*
X15410500Y-15006000D01*
X15537500Y-14013500D02*
X15577500Y-14053500D01*
X15577500Y-14013500D02*
X15537500Y-14053500D01*
X15601000Y-12299000D02*
X15641000Y-12339000D01*
X15641000Y-12299000D02*
X15601000Y-12339000D01*
X15855000Y-13886500D02*
X15895000Y-13926500D01*
X15895000Y-13886500D02*
X15855000Y-13926500D01*
X16172500Y-13251500D02*
X16212500Y-13291500D01*
X16212500Y-13251500D02*
X16172500Y-13291500D01*
X16299500Y-13188000D02*
X16339500Y-13228000D01*
X16339500Y-13188000D02*
X16299500Y-13228000D01*
X16426500Y-13124500D02*
X16466500Y-13164500D01*
X16466500Y-13124500D02*
X16426500Y-13164500D01*
X16871000Y-15029500D02*
X16911000Y-15069500D01*
X16911000Y-15029500D02*
X16871000Y-15069500D01*
X16871000Y-15220000D02*
X16911000Y-15260000D01*
X16911000Y-15220000D02*
X16871000Y-15260000D01*
X16934500Y-13188000D02*
X16974500Y-13228000D01*
X16974500Y-13188000D02*
X16934500Y-13228000D01*
X10766500Y-12319000D02*
G75*
G03X10766500Y-12319000I-35000J0D01*
G01*
X10766500Y-12573000D02*
G75*
G03X10766500Y-12573000I-35000J0D01*
G01*
X10766500Y-13017500D02*
G75*
G03X10766500Y-13017500I-35000J0D01*
G01*
X10766500Y-13271500D02*
G75*
G03X10766500Y-13271500I-35000J0D01*
G01*
X11084000Y-6032500D02*
G75*
G03X11084000Y-6032500I-35000J0D01*
G01*
X11274500Y-12319000D02*
G75*
G03X11274500Y-12319000I-35000J0D01*
G01*
X11274500Y-12573000D02*
G75*
G03X11274500Y-12573000I-35000J0D01*
G01*
X11274500Y-13017500D02*
G75*
G03X11274500Y-13017500I-35000J0D01*
G01*
X11274500Y-13271500D02*
G75*
G03X11274500Y-13271500I-35000J0D01*
G01*
X11846000Y-6032500D02*
G75*
G03X11846000Y-6032500I-35000J0D01*
G01*
X16100500Y-15049500D02*
G75*
G03X16100500Y-15049500I-35000J0D01*
G01*
X16291000Y-15303500D02*
G75*
G03X16291000Y-15303500I-35000J0D01*
G01*
X16608500Y-15049500D02*
G75*
G03X16608500Y-15049500I-35000J0D01*
G01*
X16799000Y-15303500D02*
G75*
G03X16799000Y-15303500I-35000J0D01*
G01*
X17180000Y-15049500D02*
G75*
G03X17180000Y-15049500I-35000J0D01*
G01*
X17370500Y-15303500D02*
G75*
G03X17370500Y-15303500I-35000J0D01*
G01*
X17688000Y-15049500D02*
G75*
G03X17688000Y-15049500I-35000J0D01*
G01*
X17878500Y-15303500D02*
G75*
G03X17878500Y-15303500I-35000J0D01*
G01*
X10414000Y-5614000D02*
X10414000Y-5689000D01*
X10376500Y-5651500D02*
X10451500Y-5651500D01*
X10414000Y-5814000D02*
X10414000Y-5889000D01*
X10376500Y-5851500D02*
X10451500Y-5851500D01*
X10414000Y-6312500D02*
X10414000Y-6387500D01*
X10376500Y-6350000D02*
X10451500Y-6350000D01*
X10414000Y-6512500D02*
X10414000Y-6587500D01*
X10376500Y-6550000D02*
X10451500Y-6550000D01*
X10414000Y-9678000D02*
X10414000Y-9753000D01*
X10376500Y-9715500D02*
X10451500Y-9715500D01*
X10414000Y-9878000D02*
X10414000Y-9953000D01*
X10376500Y-9915500D02*
X10451500Y-9915500D01*
X10414000Y-10376500D02*
X10414000Y-10451500D01*
X10376500Y-10414000D02*
X10451500Y-10414000D01*
X10414000Y-10576500D02*
X10414000Y-10651500D01*
X10376500Y-10614000D02*
X10451500Y-10614000D01*
X10414000Y-11011500D02*
X10414000Y-11086500D01*
X10376500Y-11049000D02*
X10451500Y-11049000D01*
X10414000Y-11211500D02*
X10414000Y-11286500D01*
X10376500Y-11249000D02*
X10451500Y-11249000D01*
X10414000Y-11411500D02*
X10414000Y-11486500D01*
X10376500Y-11449000D02*
X10451500Y-11449000D01*
X10414000Y-11900500D02*
X10414000Y-11975500D01*
X10376500Y-11938000D02*
X10451500Y-11938000D01*
X10414000Y-12100500D02*
X10414000Y-12175500D01*
X10376500Y-12138000D02*
X10451500Y-12138000D01*
X10414000Y-12300500D02*
X10414000Y-12375500D01*
X10376500Y-12338000D02*
X10451500Y-12338000D01*
X10414000Y-12500500D02*
X10414000Y-12575500D01*
X10376500Y-12538000D02*
X10451500Y-12538000D01*
X10414000Y-12980000D02*
X10414000Y-13055000D01*
X10376500Y-13017500D02*
X10451500Y-13017500D01*
X10414000Y-13180000D02*
X10414000Y-13255000D01*
X10376500Y-13217500D02*
X10451500Y-13217500D01*
X10414000Y-13380000D02*
X10414000Y-13455000D01*
X10376500Y-13417500D02*
X10451500Y-13417500D01*
X10414000Y-13580000D02*
X10414000Y-13655000D01*
X10376500Y-13617500D02*
X10451500Y-13617500D01*
X10414000Y-14059500D02*
X10414000Y-14134500D01*
X10376500Y-14097000D02*
X10451500Y-14097000D01*
X10414000Y-14259500D02*
X10414000Y-14334500D01*
X10376500Y-14297000D02*
X10451500Y-14297000D01*
X10414000Y-14459500D02*
X10414000Y-14534500D01*
X10376500Y-14497000D02*
X10451500Y-14497000D01*
X10414000Y-14659500D02*
X10414000Y-14734500D01*
X10376500Y-14697000D02*
X10451500Y-14697000D01*
X12681000Y-15583500D02*
X12681000Y-15658500D01*
X12643500Y-15621000D02*
X12718500Y-15621000D01*
X12881000Y-15583500D02*
X12881000Y-15658500D01*
X12843500Y-15621000D02*
X12918500Y-15621000D01*
X13081000Y-15583500D02*
X13081000Y-15658500D01*
X13043500Y-15621000D02*
X13118500Y-15621000D01*
X13560500Y-15583500D02*
X13560500Y-15658500D01*
X13523000Y-15621000D02*
X13598000Y-15621000D01*
X13760500Y-15583500D02*
X13760500Y-15658500D01*
X13723000Y-15621000D02*
X13798000Y-15621000D01*
X13960500Y-15583500D02*
X13960500Y-15658500D01*
X13923000Y-15621000D02*
X13998000Y-15621000D01*
X14160500Y-15583500D02*
X14160500Y-15658500D01*
X14123000Y-15621000D02*
X14198000Y-15621000D01*
X15221000Y-15583500D02*
X15221000Y-15658500D01*
X15183500Y-15621000D02*
X15258500Y-15621000D01*
X15421000Y-15583500D02*
X15421000Y-15658500D01*
X15383500Y-15621000D02*
X15458500Y-15621000D01*
X15621000Y-15583500D02*
X15621000Y-15658500D01*
X15583500Y-15621000D02*
X15658500Y-15621000D01*
X16100500Y-15583500D02*
X16100500Y-15658500D01*
X16063000Y-15621000D02*
X16138000Y-15621000D01*
X16300500Y-15583500D02*
X16300500Y-15658500D01*
X16263000Y-15621000D02*
X16338000Y-15621000D01*
X16500500Y-15583500D02*
X16500500Y-15658500D01*
X16463000Y-15621000D02*
X16538000Y-15621000D01*
X16700500Y-15583500D02*
X16700500Y-15658500D01*
X16663000Y-15621000D02*
X16738000Y-15621000D01*
X17180000Y-15583500D02*
X17180000Y-15658500D01*
X17142500Y-15621000D02*
X17217500Y-15621000D01*
X17380000Y-15583500D02*
X17380000Y-15658500D01*
X17342500Y-15621000D02*
X17417500Y-15621000D01*
X17580000Y-15583500D02*
X17580000Y-15658500D01*
X17542500Y-15621000D02*
X17617500Y-15621000D01*
X17780000Y-15583500D02*
X17780000Y-15658500D01*
X17742500Y-15621000D02*
X17817500Y-15621000D01*
X11077285Y-6759284D02*
X11077285Y-6702715D01*
X11020716Y-6702715D01*
X11020716Y-6759284D01*
X11077285Y-6759284D01*
X11077285Y-8600785D02*
X11077285Y-8544216D01*
X11020716Y-8544216D01*
X11020716Y-8600785D01*
X11077285Y-8600785D01*
X11212284Y-10251785D02*
X11212284Y-10195216D01*
X11155716Y-10195216D01*
X11155716Y-10251785D01*
X11212284Y-10251785D01*
X11212284Y-10569285D02*
X11212284Y-10512716D01*
X11155716Y-10512716D01*
X11155716Y-10569285D01*
X11212284Y-10569285D01*
X11339284Y-6441784D02*
X11339284Y-6385215D01*
X11282715Y-6385215D01*
X11282715Y-6441784D01*
X11339284Y-6441784D01*
X11339284Y-8283284D02*
X11339284Y-8226715D01*
X11282715Y-8226715D01*
X11282715Y-8283284D01*
X11339284Y-8283284D01*
X11712284Y-10251785D02*
X11712284Y-10195216D01*
X11655715Y-10195216D01*
X11655715Y-10251785D01*
X11712284Y-10251785D01*
X11712284Y-10569285D02*
X11712284Y-10512716D01*
X11655715Y-10512716D01*
X11655715Y-10569285D01*
X11712284Y-10569285D01*
X11839284Y-6441784D02*
X11839284Y-6385215D01*
X11782715Y-6385215D01*
X11782715Y-6441784D01*
X11839284Y-6441784D01*
X11839284Y-6759284D02*
X11839284Y-6702715D01*
X11782715Y-6702715D01*
X11782715Y-6759284D01*
X11839284Y-6759284D01*
X11839284Y-8283284D02*
X11839284Y-8226715D01*
X11782715Y-8226715D01*
X11782715Y-8283284D01*
X11839284Y-8283284D01*
X11839284Y-8600785D02*
X11839284Y-8544216D01*
X11782715Y-8544216D01*
X11782715Y-8600785D01*
X11839284Y-8600785D01*
X11049000Y-5696500D02*
X11094000Y-5651500D01*
X11049000Y-5606500D01*
X11004000Y-5651500D01*
X11049000Y-5696500D01*
X11303000Y-5696500D02*
X11348000Y-5651500D01*
X11303000Y-5606500D01*
X11258000Y-5651500D01*
X11303000Y-5696500D01*
X10364000Y-7062000D02*
X10464000Y-7162000D01*
X10464000Y-7062000D02*
X10364000Y-7162000D01*
X10464000Y-7112000D02*
G75*
G03X10464000Y-7112000I-50000J0D01*
G01*
X10364000Y-7379500D02*
X10464000Y-7479500D01*
X10464000Y-7379500D02*
X10364000Y-7479500D01*
X10464000Y-7429500D02*
G75*
G03X10464000Y-7429500I-50000J0D01*
G01*
X10618000Y-7062000D02*
X10718000Y-7162000D01*
X10718000Y-7062000D02*
X10618000Y-7162000D01*
X10718000Y-7112000D02*
G75*
G03X10718000Y-7112000I-50000J0D01*
G01*
X10618000Y-7379500D02*
X10718000Y-7479500D01*
X10718000Y-7379500D02*
X10618000Y-7479500D01*
X10718000Y-7429500D02*
G75*
G03X10718000Y-7429500I-50000J0D01*
G01*
X10872000Y-13729500D02*
X10972000Y-13829500D01*
X10972000Y-13729500D02*
X10872000Y-13829500D01*
X10972000Y-13779500D02*
G75*
G03X10972000Y-13779500I-50000J0D01*
G01*
X10872000Y-13983500D02*
X10972000Y-14083500D01*
X10972000Y-13983500D02*
X10872000Y-14083500D01*
X10972000Y-14033500D02*
G75*
G03X10972000Y-14033500I-50000J0D01*
G01*
X10872000Y-14237500D02*
X10972000Y-14337500D01*
X10972000Y-14237500D02*
X10872000Y-14337500D01*
X10972000Y-14287500D02*
G75*
G03X10972000Y-14287500I-50000J0D01*
G01*
X10872000Y-14491500D02*
X10972000Y-14591500D01*
X10972000Y-14491500D02*
X10872000Y-14591500D01*
X10972000Y-14541500D02*
G75*
G03X10972000Y-14541500I-50000J0D01*
G01*
X10872000Y-14745500D02*
X10972000Y-14845500D01*
X10972000Y-14745500D02*
X10872000Y-14845500D01*
X10972000Y-14795500D02*
G75*
G03X10972000Y-14795500I-50000J0D01*
G01*
X10872000Y-14999500D02*
X10972000Y-15099500D01*
X10972000Y-14999500D02*
X10872000Y-15099500D01*
X10972000Y-15049500D02*
G75*
G03X10972000Y-15049500I-50000J0D01*
G01*
X10872000Y-15253500D02*
X10972000Y-15353500D01*
X10972000Y-15253500D02*
X10872000Y-15353500D01*
X10972000Y-15303500D02*
G75*
G03X10972000Y-15303500I-50000J0D01*
G01*
X10872000Y-15507500D02*
X10972000Y-15607500D01*
X10972000Y-15507500D02*
X10872000Y-15607500D01*
X10972000Y-15557500D02*
G75*
G03X10972000Y-15557500I-50000J0D01*
G01*
X11126000Y-8967000D02*
X11226000Y-9067000D01*
X11226000Y-8967000D02*
X11126000Y-9067000D01*
X11226000Y-9017000D02*
G75*
G03X11226000Y-9017000I-50000J0D01*
G01*
X11126000Y-9221000D02*
X11226000Y-9321000D01*
X11226000Y-9221000D02*
X11126000Y-9321000D01*
X11226000Y-9271000D02*
G75*
G03X11226000Y-9271000I-50000J0D01*
G01*
X11126000Y-9475000D02*
X11226000Y-9575000D01*
X11226000Y-9475000D02*
X11126000Y-9575000D01*
X11226000Y-9525000D02*
G75*
G03X11226000Y-9525000I-50000J0D01*
G01*
X11189500Y-7125500D02*
X11289500Y-7225500D01*
X11289500Y-7125500D02*
X11189500Y-7225500D01*
X11289500Y-7175500D02*
G75*
G03X11289500Y-7175500I-50000J0D01*
G01*
X11189500Y-7379500D02*
X11289500Y-7479500D01*
X11289500Y-7379500D02*
X11189500Y-7479500D01*
X11289500Y-7429500D02*
G75*
G03X11289500Y-7429500I-50000J0D01*
G01*
X11189500Y-7633500D02*
X11289500Y-7733500D01*
X11289500Y-7633500D02*
X11189500Y-7733500D01*
X11289500Y-7683500D02*
G75*
G03X11289500Y-7683500I-50000J0D01*
G01*
X11189500Y-10999000D02*
X11289500Y-11099000D01*
X11289500Y-10999000D02*
X11189500Y-11099000D01*
X11289500Y-11049000D02*
G75*
G03X11289500Y-11049000I-50000J0D01*
G01*
X11189500Y-11253000D02*
X11289500Y-11353000D01*
X11289500Y-11253000D02*
X11189500Y-11353000D01*
X11289500Y-11303000D02*
G75*
G03X11289500Y-11303000I-50000J0D01*
G01*
X11189500Y-11507000D02*
X11289500Y-11607000D01*
X11289500Y-11507000D02*
X11189500Y-11607000D01*
X11289500Y-11557000D02*
G75*
G03X11289500Y-11557000I-50000J0D01*
G01*
X11443500Y-14301000D02*
X11543500Y-14401000D01*
X11543500Y-14301000D02*
X11443500Y-14401000D01*
X11543500Y-14351000D02*
G75*
G03X11543500Y-14351000I-50000J0D01*
G01*
X11443500Y-14555000D02*
X11543500Y-14655000D01*
X11543500Y-14555000D02*
X11443500Y-14655000D01*
X11543500Y-14605000D02*
G75*
G03X11543500Y-14605000I-50000J0D01*
G01*
X11443500Y-14809000D02*
X11543500Y-14909000D01*
X11543500Y-14809000D02*
X11443500Y-14909000D01*
X11543500Y-14859000D02*
G75*
G03X11543500Y-14859000I-50000J0D01*
G01*
X11443500Y-15063000D02*
X11543500Y-15163000D01*
X11543500Y-15063000D02*
X11443500Y-15163000D01*
X11543500Y-15113000D02*
G75*
G03X11543500Y-15113000I-50000J0D01*
G01*
X11443500Y-15317000D02*
X11543500Y-15417000D01*
X11543500Y-15317000D02*
X11443500Y-15417000D01*
X11543500Y-15367000D02*
G75*
G03X11543500Y-15367000I-50000J0D01*
G01*
X11443500Y-15571000D02*
X11543500Y-15671000D01*
X11543500Y-15571000D02*
X11443500Y-15671000D01*
X11543500Y-15621000D02*
G75*
G03X11543500Y-15621000I-50000J0D01*
G01*
X11697500Y-14301000D02*
X11797500Y-14401000D01*
X11797500Y-14301000D02*
X11697500Y-14401000D01*
X11797500Y-14351000D02*
G75*
G03X11797500Y-14351000I-50000J0D01*
G01*
X11697500Y-14555000D02*
X11797500Y-14655000D01*
X11797500Y-14555000D02*
X11697500Y-14655000D01*
X11797500Y-14605000D02*
G75*
G03X11797500Y-14605000I-50000J0D01*
G01*
X11697500Y-14809000D02*
X11797500Y-14909000D01*
X11797500Y-14809000D02*
X11697500Y-14909000D01*
X11797500Y-14859000D02*
G75*
G03X11797500Y-14859000I-50000J0D01*
G01*
X11697500Y-15063000D02*
X11797500Y-15163000D01*
X11797500Y-15063000D02*
X11697500Y-15163000D01*
X11797500Y-15113000D02*
G75*
G03X11797500Y-15113000I-50000J0D01*
G01*
X11697500Y-15317000D02*
X11797500Y-15417000D01*
X11797500Y-15317000D02*
X11697500Y-15417000D01*
X11797500Y-15367000D02*
G75*
G03X11797500Y-15367000I-50000J0D01*
G01*
X11697500Y-15571000D02*
X11797500Y-15671000D01*
X11797500Y-15571000D02*
X11697500Y-15671000D01*
X11797500Y-15621000D02*
G75*
G03X11797500Y-15621000I-50000J0D01*
G01*
X11951500Y-14301000D02*
X12051500Y-14401000D01*
X12051500Y-14301000D02*
X11951500Y-14401000D01*
X12051500Y-14351000D02*
G75*
G03X12051500Y-14351000I-50000J0D01*
G01*
X11951500Y-14555000D02*
X12051500Y-14655000D01*
X12051500Y-14555000D02*
X11951500Y-14655000D01*
X12051500Y-14605000D02*
G75*
G03X12051500Y-14605000I-50000J0D01*
G01*
X11951500Y-14809000D02*
X12051500Y-14909000D01*
X12051500Y-14809000D02*
X11951500Y-14909000D01*
X12051500Y-14859000D02*
G75*
G03X12051500Y-14859000I-50000J0D01*
G01*
X11951500Y-15063000D02*
X12051500Y-15163000D01*
X12051500Y-15063000D02*
X11951500Y-15163000D01*
X12051500Y-15113000D02*
G75*
G03X12051500Y-15113000I-50000J0D01*
G01*
X11951500Y-15317000D02*
X12051500Y-15417000D01*
X12051500Y-15317000D02*
X11951500Y-15417000D01*
X12051500Y-15367000D02*
G75*
G03X12051500Y-15367000I-50000J0D01*
G01*
X11951500Y-15571000D02*
X12051500Y-15671000D01*
X12051500Y-15571000D02*
X11951500Y-15671000D01*
X12051500Y-15621000D02*
G75*
G03X12051500Y-15621000I-50000J0D01*
G01*
X12586500Y-15253500D02*
X12686500Y-15353500D01*
X12686500Y-15253500D02*
X12586500Y-15353500D01*
X12686500Y-15303500D02*
G75*
G03X12686500Y-15303500I-50000J0D01*
G01*
X12840500Y-6427000D02*
X12940500Y-6527000D01*
X12940500Y-6427000D02*
X12840500Y-6527000D01*
X12940500Y-6477000D02*
G75*
G03X12940500Y-6477000I-50000J0D01*
G01*
X12840500Y-6681000D02*
X12940500Y-6781000D01*
X12940500Y-6681000D02*
X12840500Y-6781000D01*
X12940500Y-6731000D02*
G75*
G03X12940500Y-6731000I-50000J0D01*
G01*
X12840500Y-6935000D02*
X12940500Y-7035000D01*
X12940500Y-6935000D02*
X12840500Y-7035000D01*
X12940500Y-6985000D02*
G75*
G03X12940500Y-6985000I-50000J0D01*
G01*
X12840500Y-7189000D02*
X12940500Y-7289000D01*
X12940500Y-7189000D02*
X12840500Y-7289000D01*
X12940500Y-7239000D02*
G75*
G03X12940500Y-7239000I-50000J0D01*
G01*
X12840500Y-7443000D02*
X12940500Y-7543000D01*
X12940500Y-7443000D02*
X12840500Y-7543000D01*
X12940500Y-7493000D02*
G75*
G03X12940500Y-7493000I-50000J0D01*
G01*
X12840500Y-7697000D02*
X12940500Y-7797000D01*
X12940500Y-7697000D02*
X12840500Y-7797000D01*
X12940500Y-7747000D02*
G75*
G03X12940500Y-7747000I-50000J0D01*
G01*
X12840500Y-7951000D02*
X12940500Y-8051000D01*
X12940500Y-7951000D02*
X12840500Y-8051000D01*
X12940500Y-8001000D02*
G75*
G03X12940500Y-8001000I-50000J0D01*
G01*
X12840500Y-8205000D02*
X12940500Y-8305000D01*
X12940500Y-8205000D02*
X12840500Y-8305000D01*
X12940500Y-8255000D02*
G75*
G03X12940500Y-8255000I-50000J0D01*
G01*
X12840500Y-8586000D02*
X12940500Y-8686000D01*
X12940500Y-8586000D02*
X12840500Y-8686000D01*
X12940500Y-8636000D02*
G75*
G03X12940500Y-8636000I-50000J0D01*
G01*
X12840500Y-8840000D02*
X12940500Y-8940000D01*
X12940500Y-8840000D02*
X12840500Y-8940000D01*
X12940500Y-8890000D02*
G75*
G03X12940500Y-8890000I-50000J0D01*
G01*
X12840500Y-9094000D02*
X12940500Y-9194000D01*
X12940500Y-9094000D02*
X12840500Y-9194000D01*
X12940500Y-9144000D02*
G75*
G03X12940500Y-9144000I-50000J0D01*
G01*
X12840500Y-9348000D02*
X12940500Y-9448000D01*
X12940500Y-9348000D02*
X12840500Y-9448000D01*
X12940500Y-9398000D02*
G75*
G03X12940500Y-9398000I-50000J0D01*
G01*
X12840500Y-9602000D02*
X12940500Y-9702000D01*
X12940500Y-9602000D02*
X12840500Y-9702000D01*
X12940500Y-9652000D02*
G75*
G03X12940500Y-9652000I-50000J0D01*
G01*
X12840500Y-9856000D02*
X12940500Y-9956000D01*
X12940500Y-9856000D02*
X12840500Y-9956000D01*
X12940500Y-9906000D02*
G75*
G03X12940500Y-9906000I-50000J0D01*
G01*
X12840500Y-10110000D02*
X12940500Y-10210000D01*
X12940500Y-10110000D02*
X12840500Y-10210000D01*
X12940500Y-10160000D02*
G75*
G03X12940500Y-10160000I-50000J0D01*
G01*
X12840500Y-10364000D02*
X12940500Y-10464000D01*
X12940500Y-10364000D02*
X12840500Y-10464000D01*
X12940500Y-10414000D02*
G75*
G03X12940500Y-10414000I-50000J0D01*
G01*
X12840500Y-10872000D02*
X12940500Y-10972000D01*
X12940500Y-10872000D02*
X12840500Y-10972000D01*
X12940500Y-10922000D02*
G75*
G03X12940500Y-10922000I-50000J0D01*
G01*
X12840500Y-11126000D02*
X12940500Y-11226000D01*
X12940500Y-11126000D02*
X12840500Y-11226000D01*
X12940500Y-11176000D02*
G75*
G03X12940500Y-11176000I-50000J0D01*
G01*
X12840500Y-11380000D02*
X12940500Y-11480000D01*
X12940500Y-11380000D02*
X12840500Y-11480000D01*
X12940500Y-11430000D02*
G75*
G03X12940500Y-11430000I-50000J0D01*
G01*
X12840500Y-11634000D02*
X12940500Y-11734000D01*
X12940500Y-11634000D02*
X12840500Y-11734000D01*
X12940500Y-11684000D02*
G75*
G03X12940500Y-11684000I-50000J0D01*
G01*
X12840500Y-11888000D02*
X12940500Y-11988000D01*
X12940500Y-11888000D02*
X12840500Y-11988000D01*
X12940500Y-11938000D02*
G75*
G03X12940500Y-11938000I-50000J0D01*
G01*
X12840500Y-12142000D02*
X12940500Y-12242000D01*
X12940500Y-12142000D02*
X12840500Y-12242000D01*
X12940500Y-12192000D02*
G75*
G03X12940500Y-12192000I-50000J0D01*
G01*
X12840500Y-12396000D02*
X12940500Y-12496000D01*
X12940500Y-12396000D02*
X12840500Y-12496000D01*
X12940500Y-12446000D02*
G75*
G03X12940500Y-12446000I-50000J0D01*
G01*
X12840500Y-12650000D02*
X12940500Y-12750000D01*
X12940500Y-12650000D02*
X12840500Y-12750000D01*
X12940500Y-12700000D02*
G75*
G03X12940500Y-12700000I-50000J0D01*
G01*
X12840500Y-13412000D02*
X12940500Y-13512000D01*
X12940500Y-13412000D02*
X12840500Y-13512000D01*
X12940500Y-13462000D02*
G75*
G03X12940500Y-13462000I-50000J0D01*
G01*
X12840500Y-13666000D02*
X12940500Y-13766000D01*
X12940500Y-13666000D02*
X12840500Y-13766000D01*
X12940500Y-13716000D02*
G75*
G03X12940500Y-13716000I-50000J0D01*
G01*
X12840500Y-15253500D02*
X12940500Y-15353500D01*
X12940500Y-15253500D02*
X12840500Y-15353500D01*
X12940500Y-15303500D02*
G75*
G03X12940500Y-15303500I-50000J0D01*
G01*
X13094500Y-13412000D02*
X13194500Y-13512000D01*
X13194500Y-13412000D02*
X13094500Y-13512000D01*
X13194500Y-13462000D02*
G75*
G03X13194500Y-13462000I-50000J0D01*
G01*
X13094500Y-13666000D02*
X13194500Y-13766000D01*
X13194500Y-13666000D02*
X13094500Y-13766000D01*
X13194500Y-13716000D02*
G75*
G03X13194500Y-13716000I-50000J0D01*
G01*
X13094500Y-15253500D02*
X13194500Y-15353500D01*
X13194500Y-15253500D02*
X13094500Y-15353500D01*
X13194500Y-15303500D02*
G75*
G03X13194500Y-15303500I-50000J0D01*
G01*
X13348500Y-6427000D02*
X13448500Y-6527000D01*
X13448500Y-6427000D02*
X13348500Y-6527000D01*
X13448500Y-6477000D02*
G75*
G03X13448500Y-6477000I-50000J0D01*
G01*
X13348500Y-6681000D02*
X13448500Y-6781000D01*
X13448500Y-6681000D02*
X13348500Y-6781000D01*
X13448500Y-6731000D02*
G75*
G03X13448500Y-6731000I-50000J0D01*
G01*
X13348500Y-6935000D02*
X13448500Y-7035000D01*
X13448500Y-6935000D02*
X13348500Y-7035000D01*
X13448500Y-6985000D02*
G75*
G03X13448500Y-6985000I-50000J0D01*
G01*
X13348500Y-7189000D02*
X13448500Y-7289000D01*
X13448500Y-7189000D02*
X13348500Y-7289000D01*
X13448500Y-7239000D02*
G75*
G03X13448500Y-7239000I-50000J0D01*
G01*
X13348500Y-7443000D02*
X13448500Y-7543000D01*
X13448500Y-7443000D02*
X13348500Y-7543000D01*
X13448500Y-7493000D02*
G75*
G03X13448500Y-7493000I-50000J0D01*
G01*
X13348500Y-7697000D02*
X13448500Y-7797000D01*
X13448500Y-7697000D02*
X13348500Y-7797000D01*
X13448500Y-7747000D02*
G75*
G03X13448500Y-7747000I-50000J0D01*
G01*
X13348500Y-7951000D02*
X13448500Y-8051000D01*
X13448500Y-7951000D02*
X13348500Y-8051000D01*
X13448500Y-8001000D02*
G75*
G03X13448500Y-8001000I-50000J0D01*
G01*
X13348500Y-8205000D02*
X13448500Y-8305000D01*
X13448500Y-8205000D02*
X13348500Y-8305000D01*
X13448500Y-8255000D02*
G75*
G03X13448500Y-8255000I-50000J0D01*
G01*
X13348500Y-8459000D02*
X13448500Y-8559000D01*
X13448500Y-8459000D02*
X13348500Y-8559000D01*
X13448500Y-8509000D02*
G75*
G03X13448500Y-8509000I-50000J0D01*
G01*
X13348500Y-8713000D02*
X13448500Y-8813000D01*
X13448500Y-8713000D02*
X13348500Y-8813000D01*
X13448500Y-8763000D02*
G75*
G03X13448500Y-8763000I-50000J0D01*
G01*
X13348500Y-8967000D02*
X13448500Y-9067000D01*
X13448500Y-8967000D02*
X13348500Y-9067000D01*
X13448500Y-9017000D02*
G75*
G03X13448500Y-9017000I-50000J0D01*
G01*
X13348500Y-9221000D02*
X13448500Y-9321000D01*
X13448500Y-9221000D02*
X13348500Y-9321000D01*
X13448500Y-9271000D02*
G75*
G03X13448500Y-9271000I-50000J0D01*
G01*
X13348500Y-9475000D02*
X13448500Y-9575000D01*
X13448500Y-9475000D02*
X13348500Y-9575000D01*
X13448500Y-9525000D02*
G75*
G03X13448500Y-9525000I-50000J0D01*
G01*
X13348500Y-9729000D02*
X13448500Y-9829000D01*
X13448500Y-9729000D02*
X13348500Y-9829000D01*
X13448500Y-9779000D02*
G75*
G03X13448500Y-9779000I-50000J0D01*
G01*
X13348500Y-9983000D02*
X13448500Y-10083000D01*
X13448500Y-9983000D02*
X13348500Y-10083000D01*
X13448500Y-10033000D02*
G75*
G03X13448500Y-10033000I-50000J0D01*
G01*
X13348500Y-10237000D02*
X13448500Y-10337000D01*
X13448500Y-10237000D02*
X13348500Y-10337000D01*
X13448500Y-10287000D02*
G75*
G03X13448500Y-10287000I-50000J0D01*
G01*
X13348500Y-10491000D02*
X13448500Y-10591000D01*
X13448500Y-10491000D02*
X13348500Y-10591000D01*
X13448500Y-10541000D02*
G75*
G03X13448500Y-10541000I-50000J0D01*
G01*
X13348500Y-10745000D02*
X13448500Y-10845000D01*
X13448500Y-10745000D02*
X13348500Y-10845000D01*
X13448500Y-10795000D02*
G75*
G03X13448500Y-10795000I-50000J0D01*
G01*
X13348500Y-10999000D02*
X13448500Y-11099000D01*
X13448500Y-10999000D02*
X13348500Y-11099000D01*
X13448500Y-11049000D02*
G75*
G03X13448500Y-11049000I-50000J0D01*
G01*
X13348500Y-11253000D02*
X13448500Y-11353000D01*
X13448500Y-11253000D02*
X13348500Y-11353000D01*
X13448500Y-11303000D02*
G75*
G03X13448500Y-11303000I-50000J0D01*
G01*
X13348500Y-13412000D02*
X13448500Y-13512000D01*
X13448500Y-13412000D02*
X13348500Y-13512000D01*
X13448500Y-13462000D02*
G75*
G03X13448500Y-13462000I-50000J0D01*
G01*
X13348500Y-13666000D02*
X13448500Y-13766000D01*
X13448500Y-13666000D02*
X13348500Y-13766000D01*
X13448500Y-13716000D02*
G75*
G03X13448500Y-13716000I-50000J0D01*
G01*
X13475500Y-15253500D02*
X13575500Y-15353500D01*
X13575500Y-15253500D02*
X13475500Y-15353500D01*
X13575500Y-15303500D02*
G75*
G03X13575500Y-15303500I-50000J0D01*
G01*
X13602500Y-6427000D02*
X13702500Y-6527000D01*
X13702500Y-6427000D02*
X13602500Y-6527000D01*
X13702500Y-6477000D02*
G75*
G03X13702500Y-6477000I-50000J0D01*
G01*
X13602500Y-6681000D02*
X13702500Y-6781000D01*
X13702500Y-6681000D02*
X13602500Y-6781000D01*
X13702500Y-6731000D02*
G75*
G03X13702500Y-6731000I-50000J0D01*
G01*
X13602500Y-6935000D02*
X13702500Y-7035000D01*
X13702500Y-6935000D02*
X13602500Y-7035000D01*
X13702500Y-6985000D02*
G75*
G03X13702500Y-6985000I-50000J0D01*
G01*
X13602500Y-7189000D02*
X13702500Y-7289000D01*
X13702500Y-7189000D02*
X13602500Y-7289000D01*
X13702500Y-7239000D02*
G75*
G03X13702500Y-7239000I-50000J0D01*
G01*
X13602500Y-7443000D02*
X13702500Y-7543000D01*
X13702500Y-7443000D02*
X13602500Y-7543000D01*
X13702500Y-7493000D02*
G75*
G03X13702500Y-7493000I-50000J0D01*
G01*
X13602500Y-7697000D02*
X13702500Y-7797000D01*
X13702500Y-7697000D02*
X13602500Y-7797000D01*
X13702500Y-7747000D02*
G75*
G03X13702500Y-7747000I-50000J0D01*
G01*
X13602500Y-7951000D02*
X13702500Y-8051000D01*
X13702500Y-7951000D02*
X13602500Y-8051000D01*
X13702500Y-8001000D02*
G75*
G03X13702500Y-8001000I-50000J0D01*
G01*
X13602500Y-8205000D02*
X13702500Y-8305000D01*
X13702500Y-8205000D02*
X13602500Y-8305000D01*
X13702500Y-8255000D02*
G75*
G03X13702500Y-8255000I-50000J0D01*
G01*
X13602500Y-8459000D02*
X13702500Y-8559000D01*
X13702500Y-8459000D02*
X13602500Y-8559000D01*
X13702500Y-8509000D02*
G75*
G03X13702500Y-8509000I-50000J0D01*
G01*
X13602500Y-8713000D02*
X13702500Y-8813000D01*
X13702500Y-8713000D02*
X13602500Y-8813000D01*
X13702500Y-8763000D02*
G75*
G03X13702500Y-8763000I-50000J0D01*
G01*
X13602500Y-8967000D02*
X13702500Y-9067000D01*
X13702500Y-8967000D02*
X13602500Y-9067000D01*
X13702500Y-9017000D02*
G75*
G03X13702500Y-9017000I-50000J0D01*
G01*
X13602500Y-9221000D02*
X13702500Y-9321000D01*
X13702500Y-9221000D02*
X13602500Y-9321000D01*
X13702500Y-9271000D02*
G75*
G03X13702500Y-9271000I-50000J0D01*
G01*
X13602500Y-9475000D02*
X13702500Y-9575000D01*
X13702500Y-9475000D02*
X13602500Y-9575000D01*
X13702500Y-9525000D02*
G75*
G03X13702500Y-9525000I-50000J0D01*
G01*
X13602500Y-9729000D02*
X13702500Y-9829000D01*
X13702500Y-9729000D02*
X13602500Y-9829000D01*
X13702500Y-9779000D02*
G75*
G03X13702500Y-9779000I-50000J0D01*
G01*
X13602500Y-9983000D02*
X13702500Y-10083000D01*
X13702500Y-9983000D02*
X13602500Y-10083000D01*
X13702500Y-10033000D02*
G75*
G03X13702500Y-10033000I-50000J0D01*
G01*
X13602500Y-10237000D02*
X13702500Y-10337000D01*
X13702500Y-10237000D02*
X13602500Y-10337000D01*
X13702500Y-10287000D02*
G75*
G03X13702500Y-10287000I-50000J0D01*
G01*
X13602500Y-10491000D02*
X13702500Y-10591000D01*
X13702500Y-10491000D02*
X13602500Y-10591000D01*
X13702500Y-10541000D02*
G75*
G03X13702500Y-10541000I-50000J0D01*
G01*
X13602500Y-10745000D02*
X13702500Y-10845000D01*
X13702500Y-10745000D02*
X13602500Y-10845000D01*
X13702500Y-10795000D02*
G75*
G03X13702500Y-10795000I-50000J0D01*
G01*
X13602500Y-10999000D02*
X13702500Y-11099000D01*
X13702500Y-10999000D02*
X13602500Y-11099000D01*
X13702500Y-11049000D02*
G75*
G03X13702500Y-11049000I-50000J0D01*
G01*
X13602500Y-11253000D02*
X13702500Y-11353000D01*
X13702500Y-11253000D02*
X13602500Y-11353000D01*
X13702500Y-11303000D02*
G75*
G03X13702500Y-11303000I-50000J0D01*
G01*
X13602500Y-13412000D02*
X13702500Y-13512000D01*
X13702500Y-13412000D02*
X13602500Y-13512000D01*
X13702500Y-13462000D02*
G75*
G03X13702500Y-13462000I-50000J0D01*
G01*
X13602500Y-13666000D02*
X13702500Y-13766000D01*
X13702500Y-13666000D02*
X13602500Y-13766000D01*
X13702500Y-13716000D02*
G75*
G03X13702500Y-13716000I-50000J0D01*
G01*
X13729500Y-15253500D02*
X13829500Y-15353500D01*
X13829500Y-15253500D02*
X13729500Y-15353500D01*
X13829500Y-15303500D02*
G75*
G03X13829500Y-15303500I-50000J0D01*
G01*
X13856500Y-13412000D02*
X13956500Y-13512000D01*
X13956500Y-13412000D02*
X13856500Y-13512000D01*
X13956500Y-13462000D02*
G75*
G03X13956500Y-13462000I-50000J0D01*
G01*
X13856500Y-13666000D02*
X13956500Y-13766000D01*
X13956500Y-13666000D02*
X13856500Y-13766000D01*
X13956500Y-13716000D02*
G75*
G03X13956500Y-13716000I-50000J0D01*
G01*
X13983500Y-15253500D02*
X14083500Y-15353500D01*
X14083500Y-15253500D02*
X13983500Y-15353500D01*
X14083500Y-15303500D02*
G75*
G03X14083500Y-15303500I-50000J0D01*
G01*
X14110500Y-13412000D02*
X14210500Y-13512000D01*
X14210500Y-13412000D02*
X14110500Y-13512000D01*
X14210500Y-13462000D02*
G75*
G03X14210500Y-13462000I-50000J0D01*
G01*
X14110500Y-13666000D02*
X14210500Y-13766000D01*
X14210500Y-13666000D02*
X14110500Y-13766000D01*
X14210500Y-13716000D02*
G75*
G03X14210500Y-13716000I-50000J0D01*
G01*
X14364500Y-13412000D02*
X14464500Y-13512000D01*
X14464500Y-13412000D02*
X14364500Y-13512000D01*
X14464500Y-13462000D02*
G75*
G03X14464500Y-13462000I-50000J0D01*
G01*
X14364500Y-13666000D02*
X14464500Y-13766000D01*
X14464500Y-13666000D02*
X14364500Y-13766000D01*
X14464500Y-13716000D02*
G75*
G03X14464500Y-13716000I-50000J0D01*
G01*
X14364500Y-15253500D02*
X14464500Y-15353500D01*
X14464500Y-15253500D02*
X14364500Y-15353500D01*
X14464500Y-15303500D02*
G75*
G03X14464500Y-15303500I-50000J0D01*
G01*
X14618500Y-13412000D02*
X14718500Y-13512000D01*
X14718500Y-13412000D02*
X14618500Y-13512000D01*
X14718500Y-13462000D02*
G75*
G03X14718500Y-13462000I-50000J0D01*
G01*
X14618500Y-13666000D02*
X14718500Y-13766000D01*
X14718500Y-13666000D02*
X14618500Y-13766000D01*
X14718500Y-13716000D02*
G75*
G03X14718500Y-13716000I-50000J0D01*
G01*
X14618500Y-15253500D02*
X14718500Y-15353500D01*
X14718500Y-15253500D02*
X14618500Y-15353500D01*
X14718500Y-15303500D02*
G75*
G03X14718500Y-15303500I-50000J0D01*
G01*
X14872500Y-13412000D02*
X14972500Y-13512000D01*
X14972500Y-13412000D02*
X14872500Y-13512000D01*
X14972500Y-13462000D02*
G75*
G03X14972500Y-13462000I-50000J0D01*
G01*
X14872500Y-13666000D02*
X14972500Y-13766000D01*
X14972500Y-13666000D02*
X14872500Y-13766000D01*
X14972500Y-13716000D02*
G75*
G03X14972500Y-13716000I-50000J0D01*
G01*
X14872500Y-15253500D02*
X14972500Y-15353500D01*
X14972500Y-15253500D02*
X14872500Y-15353500D01*
X14972500Y-15303500D02*
G75*
G03X14972500Y-15303500I-50000J0D01*
G01*
X15126500Y-13412000D02*
X15226500Y-13512000D01*
X15226500Y-13412000D02*
X15126500Y-13512000D01*
X15226500Y-13462000D02*
G75*
G03X15226500Y-13462000I-50000J0D01*
G01*
X15126500Y-13666000D02*
X15226500Y-13766000D01*
X15226500Y-13666000D02*
X15126500Y-13766000D01*
X15226500Y-13716000D02*
G75*
G03X15226500Y-13716000I-50000J0D01*
G01*
X15253500Y-15253500D02*
X15353500Y-15353500D01*
X15353500Y-15253500D02*
X15253500Y-15353500D01*
X15353500Y-15303500D02*
G75*
G03X15353500Y-15303500I-50000J0D01*
G01*
X15380500Y-13412000D02*
X15480500Y-13512000D01*
X15480500Y-13412000D02*
X15380500Y-13512000D01*
X15480500Y-13462000D02*
G75*
G03X15480500Y-13462000I-50000J0D01*
G01*
X15380500Y-13666000D02*
X15480500Y-13766000D01*
X15480500Y-13666000D02*
X15380500Y-13766000D01*
X15480500Y-13716000D02*
G75*
G03X15480500Y-13716000I-50000J0D01*
G01*
X15507500Y-15253500D02*
X15607500Y-15353500D01*
X15607500Y-15253500D02*
X15507500Y-15353500D01*
X15607500Y-15303500D02*
G75*
G03X15607500Y-15303500I-50000J0D01*
G01*
X15634500Y-13412000D02*
X15734500Y-13512000D01*
X15734500Y-13412000D02*
X15634500Y-13512000D01*
X15734500Y-13462000D02*
G75*
G03X15734500Y-13462000I-50000J0D01*
G01*
X15634500Y-13666000D02*
X15734500Y-13766000D01*
X15734500Y-13666000D02*
X15634500Y-13766000D01*
X15734500Y-13716000D02*
G75*
G03X15734500Y-13716000I-50000J0D01*
G01*
X15761500Y-15253500D02*
X15861500Y-15353500D01*
X15861500Y-15253500D02*
X15761500Y-15353500D01*
X15861500Y-15303500D02*
G75*
G03X15861500Y-15303500I-50000J0D01*
G01*
X15888500Y-13412000D02*
X15988500Y-13512000D01*
X15988500Y-13412000D02*
X15888500Y-13512000D01*
X15988500Y-13462000D02*
G75*
G03X15988500Y-13462000I-50000J0D01*
G01*
X15888500Y-13666000D02*
X15988500Y-13766000D01*
X15988500Y-13666000D02*
X15888500Y-13766000D01*
X15988500Y-13716000D02*
G75*
G03X15988500Y-13716000I-50000J0D01*
G01*
X16142500Y-13412000D02*
X16242500Y-13512000D01*
X16242500Y-13412000D02*
X16142500Y-13512000D01*
X16242500Y-13462000D02*
G75*
G03X16242500Y-13462000I-50000J0D01*
G01*
X16142500Y-13666000D02*
X16242500Y-13766000D01*
X16242500Y-13666000D02*
X16142500Y-13766000D01*
X16242500Y-13716000D02*
G75*
G03X16242500Y-13716000I-50000J0D01*
G01*
X16396500Y-13412000D02*
X16496500Y-13512000D01*
X16496500Y-13412000D02*
X16396500Y-13512000D01*
X16496500Y-13462000D02*
G75*
G03X16496500Y-13462000I-50000J0D01*
G01*
X16396500Y-13666000D02*
X16496500Y-13766000D01*
X16496500Y-13666000D02*
X16396500Y-13766000D01*
X16496500Y-13716000D02*
G75*
G03X16496500Y-13716000I-50000J0D01*
G01*
X16650500Y-13412000D02*
X16750500Y-13512000D01*
X16750500Y-13412000D02*
X16650500Y-13512000D01*
X16750500Y-13462000D02*
G75*
G03X16750500Y-13462000I-50000J0D01*
G01*
X16650500Y-13666000D02*
X16750500Y-13766000D01*
X16750500Y-13666000D02*
X16650500Y-13766000D01*
X16750500Y-13716000D02*
G75*
G03X16750500Y-13716000I-50000J0D01*
G01*
X16904500Y-13412000D02*
X17004500Y-13512000D01*
X17004500Y-13412000D02*
X16904500Y-13512000D01*
X17004500Y-13462000D02*
G75*
G03X17004500Y-13462000I-50000J0D01*
G01*
X16904500Y-13666000D02*
X17004500Y-13766000D01*
X17004500Y-13666000D02*
X16904500Y-13766000D01*
X17004500Y-13716000D02*
G75*
G03X17004500Y-13716000I-50000J0D01*
G01*
X17158500Y-13412000D02*
X17258500Y-13512000D01*
X17258500Y-13412000D02*
X17158500Y-13512000D01*
X17258500Y-13462000D02*
G75*
G03X17258500Y-13462000I-50000J0D01*
G01*
X17158500Y-13666000D02*
X17258500Y-13766000D01*
X17258500Y-13666000D02*
X17158500Y-13766000D01*
X17258500Y-13716000D02*
G75*
G03X17258500Y-13716000I-50000J0D01*
G01*
X17666500Y-6808000D02*
X17766500Y-6908000D01*
X17766500Y-6808000D02*
X17666500Y-6908000D01*
X17766500Y-6858000D02*
G75*
G03X17766500Y-6858000I-50000J0D01*
G01*
X17666500Y-7062000D02*
X17766500Y-7162000D01*
X17766500Y-7062000D02*
X17666500Y-7162000D01*
X17766500Y-7112000D02*
G75*
G03X17766500Y-7112000I-50000J0D01*
G01*
X17666500Y-7316000D02*
X17766500Y-7416000D01*
X17766500Y-7316000D02*
X17666500Y-7416000D01*
X17766500Y-7366000D02*
G75*
G03X17766500Y-7366000I-50000J0D01*
G01*
X17666500Y-7570000D02*
X17766500Y-7670000D01*
X17766500Y-7570000D02*
X17666500Y-7670000D01*
X17766500Y-7620000D02*
G75*
G03X17766500Y-7620000I-50000J0D01*
G01*
X17666500Y-7824000D02*
X17766500Y-7924000D01*
X17766500Y-7824000D02*
X17666500Y-7924000D01*
X17766500Y-7874000D02*
G75*
G03X17766500Y-7874000I-50000J0D01*
G01*
X17666500Y-8078000D02*
X17766500Y-8178000D01*
X17766500Y-8078000D02*
X17666500Y-8178000D01*
X17766500Y-8128000D02*
G75*
G03X17766500Y-8128000I-50000J0D01*
G01*
X17666500Y-8332000D02*
X17766500Y-8432000D01*
X17766500Y-8332000D02*
X17666500Y-8432000D01*
X17766500Y-8382000D02*
G75*
G03X17766500Y-8382000I-50000J0D01*
G01*
X17666500Y-8586000D02*
X17766500Y-8686000D01*
X17766500Y-8586000D02*
X17666500Y-8686000D01*
X17766500Y-8636000D02*
G75*
G03X17766500Y-8636000I-50000J0D01*
G01*
X17666500Y-9094000D02*
X17766500Y-9194000D01*
X17766500Y-9094000D02*
X17666500Y-9194000D01*
X17766500Y-9144000D02*
G75*
G03X17766500Y-9144000I-50000J0D01*
G01*
X17666500Y-9348000D02*
X17766500Y-9448000D01*
X17766500Y-9348000D02*
X17666500Y-9448000D01*
X17766500Y-9398000D02*
G75*
G03X17766500Y-9398000I-50000J0D01*
G01*
X17666500Y-9602000D02*
X17766500Y-9702000D01*
X17766500Y-9602000D02*
X17666500Y-9702000D01*
X17766500Y-9652000D02*
G75*
G03X17766500Y-9652000I-50000J0D01*
G01*
X17666500Y-9856000D02*
X17766500Y-9956000D01*
X17766500Y-9856000D02*
X17666500Y-9956000D01*
X17766500Y-9906000D02*
G75*
G03X17766500Y-9906000I-50000J0D01*
G01*
X17666500Y-10110000D02*
X17766500Y-10210000D01*
X17766500Y-10110000D02*
X17666500Y-10210000D01*
X17766500Y-10160000D02*
G75*
G03X17766500Y-10160000I-50000J0D01*
G01*
X17666500Y-10364000D02*
X17766500Y-10464000D01*
X17766500Y-10364000D02*
X17666500Y-10464000D01*
X17766500Y-10414000D02*
G75*
G03X17766500Y-10414000I-50000J0D01*
G01*
X17666500Y-10618000D02*
X17766500Y-10718000D01*
X17766500Y-10618000D02*
X17666500Y-10718000D01*
X17766500Y-10668000D02*
G75*
G03X17766500Y-10668000I-50000J0D01*
G01*
X17666500Y-10872000D02*
X17766500Y-10972000D01*
X17766500Y-10872000D02*
X17666500Y-10972000D01*
X17766500Y-10922000D02*
G75*
G03X17766500Y-10922000I-50000J0D01*
G01*
X17666500Y-11380000D02*
X17766500Y-11480000D01*
X17766500Y-11380000D02*
X17666500Y-11480000D01*
X17766500Y-11430000D02*
G75*
G03X17766500Y-11430000I-50000J0D01*
G01*
X17666500Y-11634000D02*
X17766500Y-11734000D01*
X17766500Y-11634000D02*
X17666500Y-11734000D01*
X17766500Y-11684000D02*
G75*
G03X17766500Y-11684000I-50000J0D01*
G01*
X17666500Y-11888000D02*
X17766500Y-11988000D01*
X17766500Y-11888000D02*
X17666500Y-11988000D01*
X17766500Y-11938000D02*
G75*
G03X17766500Y-11938000I-50000J0D01*
G01*
X17666500Y-12142000D02*
X17766500Y-12242000D01*
X17766500Y-12142000D02*
X17666500Y-12242000D01*
X17766500Y-12192000D02*
G75*
G03X17766500Y-12192000I-50000J0D01*
G01*
X17666500Y-12396000D02*
X17766500Y-12496000D01*
X17766500Y-12396000D02*
X17666500Y-12496000D01*
X17766500Y-12446000D02*
G75*
G03X17766500Y-12446000I-50000J0D01*
G01*
X17666500Y-12650000D02*
X17766500Y-12750000D01*
X17766500Y-12650000D02*
X17666500Y-12750000D01*
X17766500Y-12700000D02*
G75*
G03X17766500Y-12700000I-50000J0D01*
G01*
X17666500Y-12904000D02*
X17766500Y-13004000D01*
X17766500Y-12904000D02*
X17666500Y-13004000D01*
X17766500Y-12954000D02*
G75*
G03X17766500Y-12954000I-50000J0D01*
G01*
X17666500Y-13158000D02*
X17766500Y-13258000D01*
X17766500Y-13158000D02*
X17666500Y-13258000D01*
X17766500Y-13208000D02*
G75*
G03X17766500Y-13208000I-50000J0D01*
G01*
X13627100Y-14389100D02*
X13931900Y-14693900D01*
X13931900Y-14389100D02*
X13627100Y-14693900D01*
X13779500Y-14389100D02*
X13779500Y-14693900D01*
X13627100Y-14541500D02*
X13931900Y-14541500D01*
X14389100Y-14389100D02*
X14693900Y-14693900D01*
X14693900Y-14389100D02*
X14389100Y-14693900D01*
X14541500Y-14389100D02*
X14541500Y-14693900D01*
X14389100Y-14541500D02*
X14693900Y-14541500D01*
X15151100Y-14389100D02*
X15455900Y-14693900D01*
X15455900Y-14389100D02*
X15151100Y-14693900D01*
X15303500Y-14389100D02*
X15303500Y-14693900D01*
X15151100Y-14541500D02*
X15455900Y-14541500D01*
X15913100Y-14389100D02*
X16217900Y-14693900D01*
X16217900Y-14389100D02*
X15913100Y-14693900D01*
X16065500Y-14389100D02*
X16065500Y-14693900D01*
X15913100Y-14541500D02*
X16217900Y-14541500D01*
X16675100Y-14389100D02*
X16979900Y-14693900D01*
X16979900Y-14389100D02*
X16675100Y-14693900D01*
X16827500Y-14389100D02*
X16827500Y-14693900D01*
X16675100Y-14541500D02*
X16979900Y-14541500D01*
X17437100Y-14389100D02*
X17741900Y-14693900D01*
X17741900Y-14389100D02*
X17437100Y-14693900D01*
X17589500Y-14389100D02*
X17589500Y-14693900D01*
X17437100Y-14541500D02*
X17741900Y-14541500D01*
D13*
X10489929Y-16218714D02*
X10489929Y-15918714D01*
X10561357Y-15918714D01*
X10604214Y-15933000D01*
X10632786Y-15961571D01*
X10647071Y-15990143D01*
X10661357Y-16047286D01*
X10661357Y-16090143D01*
X10647071Y-16147286D01*
X10632786Y-16175857D01*
X10604214Y-16204429D01*
X10561357Y-16218714D01*
X10489929Y-16218714D01*
X10789929Y-16218714D02*
X10789929Y-16018714D01*
X10789929Y-16075857D02*
X10804214Y-16047286D01*
X10818500Y-16033000D01*
X10847071Y-16018714D01*
X10875643Y-16018714D01*
X10975643Y-16218714D02*
X10975643Y-16018714D01*
X10975643Y-15918714D02*
X10961357Y-15933000D01*
X10975643Y-15947286D01*
X10989929Y-15933000D01*
X10975643Y-15918714D01*
X10975643Y-15947286D01*
X11161357Y-16218714D02*
X11132786Y-16204429D01*
X11118500Y-16175857D01*
X11118500Y-15918714D01*
X11318500Y-16218714D02*
X11289928Y-16204429D01*
X11275643Y-16175857D01*
X11275643Y-15918714D01*
X11661357Y-16218714D02*
X11661357Y-15918714D01*
X11761357Y-16133000D01*
X11861357Y-15918714D01*
X11861357Y-16218714D01*
X12132786Y-16218714D02*
X12132786Y-16061571D01*
X12118500Y-16033000D01*
X12089928Y-16018714D01*
X12032786Y-16018714D01*
X12004214Y-16033000D01*
X12132786Y-16204429D02*
X12104214Y-16218714D01*
X12032786Y-16218714D01*
X12004214Y-16204429D01*
X11989928Y-16175857D01*
X11989928Y-16147286D01*
X12004214Y-16118714D01*
X12032786Y-16104429D01*
X12104214Y-16104429D01*
X12132786Y-16090143D01*
X12275643Y-16018714D02*
X12275643Y-16318714D01*
X12275643Y-16033000D02*
X12304214Y-16018714D01*
X12361357Y-16018714D01*
X12389928Y-16033000D01*
X12404214Y-16047286D01*
X12418500Y-16075857D01*
X12418500Y-16161571D01*
X12404214Y-16190143D01*
X12389928Y-16204429D01*
X12361357Y-16218714D01*
X12304214Y-16218714D01*
X12275643Y-16204429D01*
X12547071Y-16190143D02*
X12561357Y-16204429D01*
X12547071Y-16218714D01*
X12532786Y-16204429D01*
X12547071Y-16190143D01*
X12547071Y-16218714D01*
X12547071Y-16033000D02*
X12561357Y-16047286D01*
X12547071Y-16061571D01*
X12532786Y-16047286D01*
X12547071Y-16033000D01*
X12547071Y-16061571D01*
X10178500Y-16693000D02*
X10218500Y-16733000D01*
X10218500Y-16693000D02*
X10178500Y-16733000D01*
X10547071Y-16548714D02*
X10575643Y-16548714D01*
X10604214Y-16563000D01*
X10618500Y-16577286D01*
X10632786Y-16605857D01*
X10647071Y-16663000D01*
X10647071Y-16734429D01*
X10632786Y-16791572D01*
X10618500Y-16820143D01*
X10604214Y-16834429D01*
X10575643Y-16848714D01*
X10547071Y-16848714D01*
X10518500Y-16834429D01*
X10504214Y-16820143D01*
X10489929Y-16791572D01*
X10475643Y-16734429D01*
X10475643Y-16663000D01*
X10489929Y-16605857D01*
X10504214Y-16577286D01*
X10518500Y-16563000D01*
X10547071Y-16548714D01*
X10775643Y-16820143D02*
X10789929Y-16834429D01*
X10775643Y-16848714D01*
X10761357Y-16834429D01*
X10775643Y-16820143D01*
X10775643Y-16848714D01*
X11047071Y-16648714D02*
X11047071Y-16848714D01*
X10975643Y-16534429D02*
X10904214Y-16748714D01*
X11089928Y-16748714D01*
X11261357Y-16548714D02*
X11289928Y-16548714D01*
X11318500Y-16563000D01*
X11332786Y-16577286D01*
X11347071Y-16605857D01*
X11361357Y-16663000D01*
X11361357Y-16734429D01*
X11347071Y-16791572D01*
X11332786Y-16820143D01*
X11318500Y-16834429D01*
X11289928Y-16848714D01*
X11261357Y-16848714D01*
X11232786Y-16834429D01*
X11218500Y-16820143D01*
X11204214Y-16791572D01*
X11189928Y-16734429D01*
X11189928Y-16663000D01*
X11204214Y-16605857D01*
X11218500Y-16577286D01*
X11232786Y-16563000D01*
X11261357Y-16548714D01*
X11489928Y-16848714D02*
X11489928Y-16648714D01*
X11489928Y-16677286D02*
X11504214Y-16663000D01*
X11532786Y-16648714D01*
X11575643Y-16648714D01*
X11604214Y-16663000D01*
X11618500Y-16691571D01*
X11618500Y-16848714D01*
X11618500Y-16691571D02*
X11632786Y-16663000D01*
X11661357Y-16648714D01*
X11704214Y-16648714D01*
X11732786Y-16663000D01*
X11747071Y-16691571D01*
X11747071Y-16848714D01*
X11889928Y-16848714D02*
X11889928Y-16648714D01*
X11889928Y-16677286D02*
X11904214Y-16663000D01*
X11932786Y-16648714D01*
X11975643Y-16648714D01*
X12004214Y-16663000D01*
X12018500Y-16691571D01*
X12018500Y-16848714D01*
X12018500Y-16691571D02*
X12032786Y-16663000D01*
X12061357Y-16648714D01*
X12104214Y-16648714D01*
X12132786Y-16663000D01*
X12147071Y-16691571D01*
X12147071Y-16848714D01*
X12732786Y-16534429D02*
X12475643Y-16920143D01*
X13118500Y-16548714D02*
X13147071Y-16548714D01*
X13175643Y-16563000D01*
X13189928Y-16577286D01*
X13204214Y-16605857D01*
X13218500Y-16663000D01*
X13218500Y-16734429D01*
X13204214Y-16791572D01*
X13189928Y-16820143D01*
X13175643Y-16834429D01*
X13147071Y-16848714D01*
X13118500Y-16848714D01*
X13089928Y-16834429D01*
X13075643Y-16820143D01*
X13061357Y-16791572D01*
X13047071Y-16734429D01*
X13047071Y-16663000D01*
X13061357Y-16605857D01*
X13075643Y-16577286D01*
X13089928Y-16563000D01*
X13118500Y-16548714D01*
X13347071Y-16820143D02*
X13361357Y-16834429D01*
X13347071Y-16848714D01*
X13332786Y-16834429D01*
X13347071Y-16820143D01*
X13347071Y-16848714D01*
X13547071Y-16548714D02*
X13575643Y-16548714D01*
X13604214Y-16563000D01*
X13618500Y-16577286D01*
X13632785Y-16605857D01*
X13647071Y-16663000D01*
X13647071Y-16734429D01*
X13632785Y-16791572D01*
X13618500Y-16820143D01*
X13604214Y-16834429D01*
X13575643Y-16848714D01*
X13547071Y-16848714D01*
X13518500Y-16834429D01*
X13504214Y-16820143D01*
X13489928Y-16791572D01*
X13475643Y-16734429D01*
X13475643Y-16663000D01*
X13489928Y-16605857D01*
X13504214Y-16577286D01*
X13518500Y-16563000D01*
X13547071Y-16548714D01*
X13932785Y-16848714D02*
X13761357Y-16848714D01*
X13847071Y-16848714D02*
X13847071Y-16548714D01*
X13818500Y-16591571D01*
X13789928Y-16620143D01*
X13761357Y-16634429D01*
X14189928Y-16548714D02*
X14132785Y-16548714D01*
X14104214Y-16563000D01*
X14089928Y-16577286D01*
X14061357Y-16620143D01*
X14047071Y-16677286D01*
X14047071Y-16791572D01*
X14061357Y-16820143D01*
X14075643Y-16834429D01*
X14104214Y-16848714D01*
X14161357Y-16848714D01*
X14189928Y-16834429D01*
X14204214Y-16820143D01*
X14218500Y-16791572D01*
X14218500Y-16720143D01*
X14204214Y-16691571D01*
X14189928Y-16677286D01*
X14161357Y-16663000D01*
X14104214Y-16663000D01*
X14075643Y-16677286D01*
X14061357Y-16691571D01*
X14047071Y-16720143D01*
X14332786Y-16548714D02*
X14332786Y-16605857D01*
X14447071Y-16548714D02*
X14447071Y-16605857D01*
X14889928Y-16963000D02*
X14875643Y-16948714D01*
X14847071Y-16905857D01*
X14832785Y-16877286D01*
X14818500Y-16834429D01*
X14804214Y-16763000D01*
X14804214Y-16705857D01*
X14818500Y-16634429D01*
X14832785Y-16591571D01*
X14847071Y-16563000D01*
X14875643Y-16520143D01*
X14889928Y-16505857D01*
X15132785Y-16648714D02*
X15132785Y-16848714D01*
X15061357Y-16534429D02*
X14989928Y-16748714D01*
X15175643Y-16748714D01*
X15261357Y-16548714D02*
X15461357Y-16548714D01*
X15332785Y-16848714D01*
X15804214Y-16848714D02*
X15804214Y-16548714D01*
X15932785Y-16848714D02*
X15932785Y-16691571D01*
X15918500Y-16663000D01*
X15889928Y-16648714D01*
X15847071Y-16648714D01*
X15818500Y-16663000D01*
X15804214Y-16677286D01*
X16118500Y-16848714D02*
X16089928Y-16834429D01*
X16075643Y-16820143D01*
X16061357Y-16791572D01*
X16061357Y-16705857D01*
X16075643Y-16677286D01*
X16089928Y-16663000D01*
X16118500Y-16648714D01*
X16161357Y-16648714D01*
X16189928Y-16663000D01*
X16204214Y-16677286D01*
X16218500Y-16705857D01*
X16218500Y-16791572D01*
X16204214Y-16820143D01*
X16189928Y-16834429D01*
X16161357Y-16848714D01*
X16118500Y-16848714D01*
X16389928Y-16848714D02*
X16361357Y-16834429D01*
X16347071Y-16805857D01*
X16347071Y-16548714D01*
X16618500Y-16834429D02*
X16589928Y-16848714D01*
X16532786Y-16848714D01*
X16504214Y-16834429D01*
X16489928Y-16805857D01*
X16489928Y-16691571D01*
X16504214Y-16663000D01*
X16532786Y-16648714D01*
X16589928Y-16648714D01*
X16618500Y-16663000D01*
X16632786Y-16691571D01*
X16632786Y-16720143D01*
X16489928Y-16748714D01*
X16747071Y-16834429D02*
X16775643Y-16848714D01*
X16832786Y-16848714D01*
X16861357Y-16834429D01*
X16875643Y-16805857D01*
X16875643Y-16791572D01*
X16861357Y-16763000D01*
X16832786Y-16748714D01*
X16789929Y-16748714D01*
X16761357Y-16734429D01*
X16747071Y-16705857D01*
X16747071Y-16691571D01*
X16761357Y-16663000D01*
X16789929Y-16648714D01*
X16832786Y-16648714D01*
X16861357Y-16663000D01*
X16975643Y-16963000D02*
X16989929Y-16948714D01*
X17018500Y-16905857D01*
X17032786Y-16877286D01*
X17047071Y-16834429D01*
X17061357Y-16763000D01*
X17061357Y-16705857D01*
X17047071Y-16634429D01*
X17032786Y-16591571D01*
X17018500Y-16563000D01*
X16989929Y-16520143D01*
X16975643Y-16505857D01*
X10218500Y-17109000D02*
G75*
G03X10218500Y-17109000I-35000J0D01*
G01*
X10547071Y-16944714D02*
X10575643Y-16944714D01*
X10604214Y-16959000D01*
X10618500Y-16973286D01*
X10632786Y-17001857D01*
X10647071Y-17059000D01*
X10647071Y-17130429D01*
X10632786Y-17187572D01*
X10618500Y-17216143D01*
X10604214Y-17230429D01*
X10575643Y-17244714D01*
X10547071Y-17244714D01*
X10518500Y-17230429D01*
X10504214Y-17216143D01*
X10489929Y-17187572D01*
X10475643Y-17130429D01*
X10475643Y-17059000D01*
X10489929Y-17001857D01*
X10504214Y-16973286D01*
X10518500Y-16959000D01*
X10547071Y-16944714D01*
X10775643Y-17216143D02*
X10789929Y-17230429D01*
X10775643Y-17244714D01*
X10761357Y-17230429D01*
X10775643Y-17216143D01*
X10775643Y-17244714D01*
X10889928Y-16944714D02*
X11089928Y-16944714D01*
X10961357Y-17244714D01*
X11261357Y-16944714D02*
X11289928Y-16944714D01*
X11318500Y-16959000D01*
X11332786Y-16973286D01*
X11347071Y-17001857D01*
X11361357Y-17059000D01*
X11361357Y-17130429D01*
X11347071Y-17187572D01*
X11332786Y-17216143D01*
X11318500Y-17230429D01*
X11289928Y-17244714D01*
X11261357Y-17244714D01*
X11232786Y-17230429D01*
X11218500Y-17216143D01*
X11204214Y-17187572D01*
X11189928Y-17130429D01*
X11189928Y-17059000D01*
X11204214Y-17001857D01*
X11218500Y-16973286D01*
X11232786Y-16959000D01*
X11261357Y-16944714D01*
X11489928Y-17244714D02*
X11489928Y-17044714D01*
X11489928Y-17073286D02*
X11504214Y-17059000D01*
X11532786Y-17044714D01*
X11575643Y-17044714D01*
X11604214Y-17059000D01*
X11618500Y-17087572D01*
X11618500Y-17244714D01*
X11618500Y-17087572D02*
X11632786Y-17059000D01*
X11661357Y-17044714D01*
X11704214Y-17044714D01*
X11732786Y-17059000D01*
X11747071Y-17087572D01*
X11747071Y-17244714D01*
X11889928Y-17244714D02*
X11889928Y-17044714D01*
X11889928Y-17073286D02*
X11904214Y-17059000D01*
X11932786Y-17044714D01*
X11975643Y-17044714D01*
X12004214Y-17059000D01*
X12018500Y-17087572D01*
X12018500Y-17244714D01*
X12018500Y-17087572D02*
X12032786Y-17059000D01*
X12061357Y-17044714D01*
X12104214Y-17044714D01*
X12132786Y-17059000D01*
X12147071Y-17087572D01*
X12147071Y-17244714D01*
X12732786Y-16930429D02*
X12475643Y-17316143D01*
X13118500Y-16944714D02*
X13147071Y-16944714D01*
X13175643Y-16959000D01*
X13189928Y-16973286D01*
X13204214Y-17001857D01*
X13218500Y-17059000D01*
X13218500Y-17130429D01*
X13204214Y-17187572D01*
X13189928Y-17216143D01*
X13175643Y-17230429D01*
X13147071Y-17244714D01*
X13118500Y-17244714D01*
X13089928Y-17230429D01*
X13075643Y-17216143D01*
X13061357Y-17187572D01*
X13047071Y-17130429D01*
X13047071Y-17059000D01*
X13061357Y-17001857D01*
X13075643Y-16973286D01*
X13089928Y-16959000D01*
X13118500Y-16944714D01*
X13347071Y-17216143D02*
X13361357Y-17230429D01*
X13347071Y-17244714D01*
X13332786Y-17230429D01*
X13347071Y-17216143D01*
X13347071Y-17244714D01*
X13547071Y-16944714D02*
X13575643Y-16944714D01*
X13604214Y-16959000D01*
X13618500Y-16973286D01*
X13632785Y-17001857D01*
X13647071Y-17059000D01*
X13647071Y-17130429D01*
X13632785Y-17187572D01*
X13618500Y-17216143D01*
X13604214Y-17230429D01*
X13575643Y-17244714D01*
X13547071Y-17244714D01*
X13518500Y-17230429D01*
X13504214Y-17216143D01*
X13489928Y-17187572D01*
X13475643Y-17130429D01*
X13475643Y-17059000D01*
X13489928Y-17001857D01*
X13504214Y-16973286D01*
X13518500Y-16959000D01*
X13547071Y-16944714D01*
X13761357Y-16973286D02*
X13775643Y-16959000D01*
X13804214Y-16944714D01*
X13875643Y-16944714D01*
X13904214Y-16959000D01*
X13918500Y-16973286D01*
X13932785Y-17001857D01*
X13932785Y-17030429D01*
X13918500Y-17073286D01*
X13747071Y-17244714D01*
X13932785Y-17244714D01*
X14104214Y-17073286D02*
X14075643Y-17059000D01*
X14061357Y-17044714D01*
X14047071Y-17016143D01*
X14047071Y-17001857D01*
X14061357Y-16973286D01*
X14075643Y-16959000D01*
X14104214Y-16944714D01*
X14161357Y-16944714D01*
X14189928Y-16959000D01*
X14204214Y-16973286D01*
X14218500Y-17001857D01*
X14218500Y-17016143D01*
X14204214Y-17044714D01*
X14189928Y-17059000D01*
X14161357Y-17073286D01*
X14104214Y-17073286D01*
X14075643Y-17087572D01*
X14061357Y-17101857D01*
X14047071Y-17130429D01*
X14047071Y-17187572D01*
X14061357Y-17216143D01*
X14075643Y-17230429D01*
X14104214Y-17244714D01*
X14161357Y-17244714D01*
X14189928Y-17230429D01*
X14204214Y-17216143D01*
X14218500Y-17187572D01*
X14218500Y-17130429D01*
X14204214Y-17101857D01*
X14189928Y-17087572D01*
X14161357Y-17073286D01*
X14332786Y-16944714D02*
X14332786Y-17001857D01*
X14447071Y-16944714D02*
X14447071Y-17001857D01*
X14889928Y-17359000D02*
X14875643Y-17344714D01*
X14847071Y-17301857D01*
X14832785Y-17273286D01*
X14818500Y-17230429D01*
X14804214Y-17159000D01*
X14804214Y-17101857D01*
X14818500Y-17030429D01*
X14832785Y-16987572D01*
X14847071Y-16959000D01*
X14875643Y-16916143D01*
X14889928Y-16901857D01*
X15161357Y-17244714D02*
X14989928Y-17244714D01*
X15075643Y-17244714D02*
X15075643Y-16944714D01*
X15047071Y-16987572D01*
X15018500Y-17016143D01*
X14989928Y-17030429D01*
X15332785Y-17073286D02*
X15304214Y-17059000D01*
X15289928Y-17044714D01*
X15275643Y-17016143D01*
X15275643Y-17001857D01*
X15289928Y-16973286D01*
X15304214Y-16959000D01*
X15332785Y-16944714D01*
X15389928Y-16944714D01*
X15418500Y-16959000D01*
X15432785Y-16973286D01*
X15447071Y-17001857D01*
X15447071Y-17016143D01*
X15432785Y-17044714D01*
X15418500Y-17059000D01*
X15389928Y-17073286D01*
X15332785Y-17073286D01*
X15304214Y-17087572D01*
X15289928Y-17101857D01*
X15275643Y-17130429D01*
X15275643Y-17187572D01*
X15289928Y-17216143D01*
X15304214Y-17230429D01*
X15332785Y-17244714D01*
X15389928Y-17244714D01*
X15418500Y-17230429D01*
X15432785Y-17216143D01*
X15447071Y-17187572D01*
X15447071Y-17130429D01*
X15432785Y-17101857D01*
X15418500Y-17087572D01*
X15389928Y-17073286D01*
X15804214Y-17244714D02*
X15804214Y-16944714D01*
X15932785Y-17244714D02*
X15932785Y-17087572D01*
X15918500Y-17059000D01*
X15889928Y-17044714D01*
X15847071Y-17044714D01*
X15818500Y-17059000D01*
X15804214Y-17073286D01*
X16118500Y-17244714D02*
X16089928Y-17230429D01*
X16075643Y-17216143D01*
X16061357Y-17187572D01*
X16061357Y-17101857D01*
X16075643Y-17073286D01*
X16089928Y-17059000D01*
X16118500Y-17044714D01*
X16161357Y-17044714D01*
X16189928Y-17059000D01*
X16204214Y-17073286D01*
X16218500Y-17101857D01*
X16218500Y-17187572D01*
X16204214Y-17216143D01*
X16189928Y-17230429D01*
X16161357Y-17244714D01*
X16118500Y-17244714D01*
X16389928Y-17244714D02*
X16361357Y-17230429D01*
X16347071Y-17201857D01*
X16347071Y-16944714D01*
X16618500Y-17230429D02*
X16589928Y-17244714D01*
X16532786Y-17244714D01*
X16504214Y-17230429D01*
X16489928Y-17201857D01*
X16489928Y-17087572D01*
X16504214Y-17059000D01*
X16532786Y-17044714D01*
X16589928Y-17044714D01*
X16618500Y-17059000D01*
X16632786Y-17087572D01*
X16632786Y-17116143D01*
X16489928Y-17144714D01*
X16747071Y-17230429D02*
X16775643Y-17244714D01*
X16832786Y-17244714D01*
X16861357Y-17230429D01*
X16875643Y-17201857D01*
X16875643Y-17187572D01*
X16861357Y-17159000D01*
X16832786Y-17144714D01*
X16789929Y-17144714D01*
X16761357Y-17130429D01*
X16747071Y-17101857D01*
X16747071Y-17087572D01*
X16761357Y-17059000D01*
X16789929Y-17044714D01*
X16832786Y-17044714D01*
X16861357Y-17059000D01*
X16975643Y-17359000D02*
X16989929Y-17344714D01*
X17018500Y-17301857D01*
X17032786Y-17273286D01*
X17047071Y-17230429D01*
X17061357Y-17159000D01*
X17061357Y-17101857D01*
X17047071Y-17030429D01*
X17032786Y-16987572D01*
X17018500Y-16959000D01*
X16989929Y-16916143D01*
X16975643Y-16901857D01*
X10181000Y-17467500D02*
X10181000Y-17542500D01*
X10143500Y-17505000D02*
X10218500Y-17505000D01*
X10547071Y-17340714D02*
X10575643Y-17340714D01*
X10604214Y-17355000D01*
X10618500Y-17369286D01*
X10632786Y-17397857D01*
X10647071Y-17455000D01*
X10647071Y-17526429D01*
X10632786Y-17583572D01*
X10618500Y-17612143D01*
X10604214Y-17626429D01*
X10575643Y-17640714D01*
X10547071Y-17640714D01*
X10518500Y-17626429D01*
X10504214Y-17612143D01*
X10489929Y-17583572D01*
X10475643Y-17526429D01*
X10475643Y-17455000D01*
X10489929Y-17397857D01*
X10504214Y-17369286D01*
X10518500Y-17355000D01*
X10547071Y-17340714D01*
X10775643Y-17612143D02*
X10789929Y-17626429D01*
X10775643Y-17640714D01*
X10761357Y-17626429D01*
X10775643Y-17612143D01*
X10775643Y-17640714D01*
X10889928Y-17340714D02*
X11089928Y-17340714D01*
X10961357Y-17640714D01*
X11347071Y-17340714D02*
X11204214Y-17340714D01*
X11189928Y-17483572D01*
X11204214Y-17469286D01*
X11232786Y-17455000D01*
X11304214Y-17455000D01*
X11332786Y-17469286D01*
X11347071Y-17483572D01*
X11361357Y-17512143D01*
X11361357Y-17583572D01*
X11347071Y-17612143D01*
X11332786Y-17626429D01*
X11304214Y-17640714D01*
X11232786Y-17640714D01*
X11204214Y-17626429D01*
X11189928Y-17612143D01*
X11489928Y-17640714D02*
X11489928Y-17440714D01*
X11489928Y-17469286D02*
X11504214Y-17455000D01*
X11532786Y-17440714D01*
X11575643Y-17440714D01*
X11604214Y-17455000D01*
X11618500Y-17483572D01*
X11618500Y-17640714D01*
X11618500Y-17483572D02*
X11632786Y-17455000D01*
X11661357Y-17440714D01*
X11704214Y-17440714D01*
X11732786Y-17455000D01*
X11747071Y-17483572D01*
X11747071Y-17640714D01*
X11889928Y-17640714D02*
X11889928Y-17440714D01*
X11889928Y-17469286D02*
X11904214Y-17455000D01*
X11932786Y-17440714D01*
X11975643Y-17440714D01*
X12004214Y-17455000D01*
X12018500Y-17483572D01*
X12018500Y-17640714D01*
X12018500Y-17483572D02*
X12032786Y-17455000D01*
X12061357Y-17440714D01*
X12104214Y-17440714D01*
X12132786Y-17455000D01*
X12147071Y-17483572D01*
X12147071Y-17640714D01*
X12732786Y-17326429D02*
X12475643Y-17712143D01*
X13118500Y-17340714D02*
X13147071Y-17340714D01*
X13175643Y-17355000D01*
X13189928Y-17369286D01*
X13204214Y-17397857D01*
X13218500Y-17455000D01*
X13218500Y-17526429D01*
X13204214Y-17583572D01*
X13189928Y-17612143D01*
X13175643Y-17626429D01*
X13147071Y-17640714D01*
X13118500Y-17640714D01*
X13089928Y-17626429D01*
X13075643Y-17612143D01*
X13061357Y-17583572D01*
X13047071Y-17526429D01*
X13047071Y-17455000D01*
X13061357Y-17397857D01*
X13075643Y-17369286D01*
X13089928Y-17355000D01*
X13118500Y-17340714D01*
X13347071Y-17612143D02*
X13361357Y-17626429D01*
X13347071Y-17640714D01*
X13332786Y-17626429D01*
X13347071Y-17612143D01*
X13347071Y-17640714D01*
X13547071Y-17340714D02*
X13575643Y-17340714D01*
X13604214Y-17355000D01*
X13618500Y-17369286D01*
X13632785Y-17397857D01*
X13647071Y-17455000D01*
X13647071Y-17526429D01*
X13632785Y-17583572D01*
X13618500Y-17612143D01*
X13604214Y-17626429D01*
X13575643Y-17640714D01*
X13547071Y-17640714D01*
X13518500Y-17626429D01*
X13504214Y-17612143D01*
X13489928Y-17583572D01*
X13475643Y-17526429D01*
X13475643Y-17455000D01*
X13489928Y-17397857D01*
X13504214Y-17369286D01*
X13518500Y-17355000D01*
X13547071Y-17340714D01*
X13747071Y-17340714D02*
X13932785Y-17340714D01*
X13832785Y-17455000D01*
X13875643Y-17455000D01*
X13904214Y-17469286D01*
X13918500Y-17483572D01*
X13932785Y-17512143D01*
X13932785Y-17583572D01*
X13918500Y-17612143D01*
X13904214Y-17626429D01*
X13875643Y-17640714D01*
X13789928Y-17640714D01*
X13761357Y-17626429D01*
X13747071Y-17612143D01*
X14118500Y-17340714D02*
X14147071Y-17340714D01*
X14175643Y-17355000D01*
X14189928Y-17369286D01*
X14204214Y-17397857D01*
X14218500Y-17455000D01*
X14218500Y-17526429D01*
X14204214Y-17583572D01*
X14189928Y-17612143D01*
X14175643Y-17626429D01*
X14147071Y-17640714D01*
X14118500Y-17640714D01*
X14089928Y-17626429D01*
X14075643Y-17612143D01*
X14061357Y-17583572D01*
X14047071Y-17526429D01*
X14047071Y-17455000D01*
X14061357Y-17397857D01*
X14075643Y-17369286D01*
X14089928Y-17355000D01*
X14118500Y-17340714D01*
X14332786Y-17340714D02*
X14332786Y-17397857D01*
X14447071Y-17340714D02*
X14447071Y-17397857D01*
X14889928Y-17755000D02*
X14875643Y-17740714D01*
X14847071Y-17697857D01*
X14832785Y-17669286D01*
X14818500Y-17626429D01*
X14804214Y-17555000D01*
X14804214Y-17497857D01*
X14818500Y-17426429D01*
X14832785Y-17383572D01*
X14847071Y-17355000D01*
X14875643Y-17312143D01*
X14889928Y-17297857D01*
X15132785Y-17440714D02*
X15132785Y-17640714D01*
X15061357Y-17326429D02*
X14989928Y-17540714D01*
X15175643Y-17540714D01*
X15447071Y-17640714D02*
X15275643Y-17640714D01*
X15361357Y-17640714D02*
X15361357Y-17340714D01*
X15332785Y-17383572D01*
X15304214Y-17412143D01*
X15275643Y-17426429D01*
X15804214Y-17640714D02*
X15804214Y-17340714D01*
X15932785Y-17640714D02*
X15932785Y-17483572D01*
X15918500Y-17455000D01*
X15889928Y-17440714D01*
X15847071Y-17440714D01*
X15818500Y-17455000D01*
X15804214Y-17469286D01*
X16118500Y-17640714D02*
X16089928Y-17626429D01*
X16075643Y-17612143D01*
X16061357Y-17583572D01*
X16061357Y-17497857D01*
X16075643Y-17469286D01*
X16089928Y-17455000D01*
X16118500Y-17440714D01*
X16161357Y-17440714D01*
X16189928Y-17455000D01*
X16204214Y-17469286D01*
X16218500Y-17497857D01*
X16218500Y-17583572D01*
X16204214Y-17612143D01*
X16189928Y-17626429D01*
X16161357Y-17640714D01*
X16118500Y-17640714D01*
X16389928Y-17640714D02*
X16361357Y-17626429D01*
X16347071Y-17597857D01*
X16347071Y-17340714D01*
X16618500Y-17626429D02*
X16589928Y-17640714D01*
X16532786Y-17640714D01*
X16504214Y-17626429D01*
X16489928Y-17597857D01*
X16489928Y-17483572D01*
X16504214Y-17455000D01*
X16532786Y-17440714D01*
X16589928Y-17440714D01*
X16618500Y-17455000D01*
X16632786Y-17483572D01*
X16632786Y-17512143D01*
X16489928Y-17540714D01*
X16747071Y-17626429D02*
X16775643Y-17640714D01*
X16832786Y-17640714D01*
X16861357Y-17626429D01*
X16875643Y-17597857D01*
X16875643Y-17583572D01*
X16861357Y-17555000D01*
X16832786Y-17540714D01*
X16789929Y-17540714D01*
X16761357Y-17526429D01*
X16747071Y-17497857D01*
X16747071Y-17483572D01*
X16761357Y-17455000D01*
X16789929Y-17440714D01*
X16832786Y-17440714D01*
X16861357Y-17455000D01*
X16975643Y-17755000D02*
X16989929Y-17740714D01*
X17018500Y-17697857D01*
X17032786Y-17669286D01*
X17047071Y-17626429D01*
X17061357Y-17555000D01*
X17061357Y-17497857D01*
X17047071Y-17426429D01*
X17032786Y-17383572D01*
X17018500Y-17355000D01*
X16989929Y-17312143D01*
X16975643Y-17297857D01*
X10206784Y-17929285D02*
X10206784Y-17872716D01*
X10150215Y-17872716D01*
X10150215Y-17929285D01*
X10206784Y-17929285D01*
X10547071Y-17736714D02*
X10575643Y-17736714D01*
X10604214Y-17751000D01*
X10618500Y-17765286D01*
X10632786Y-17793857D01*
X10647071Y-17851000D01*
X10647071Y-17922429D01*
X10632786Y-17979572D01*
X10618500Y-18008143D01*
X10604214Y-18022429D01*
X10575643Y-18036714D01*
X10547071Y-18036714D01*
X10518500Y-18022429D01*
X10504214Y-18008143D01*
X10489929Y-17979572D01*
X10475643Y-17922429D01*
X10475643Y-17851000D01*
X10489929Y-17793857D01*
X10504214Y-17765286D01*
X10518500Y-17751000D01*
X10547071Y-17736714D01*
X10775643Y-18008143D02*
X10789929Y-18022429D01*
X10775643Y-18036714D01*
X10761357Y-18022429D01*
X10775643Y-18008143D01*
X10775643Y-18036714D01*
X10961357Y-17865286D02*
X10932786Y-17851000D01*
X10918500Y-17836714D01*
X10904214Y-17808143D01*
X10904214Y-17793857D01*
X10918500Y-17765286D01*
X10932786Y-17751000D01*
X10961357Y-17736714D01*
X11018500Y-17736714D01*
X11047071Y-17751000D01*
X11061357Y-17765286D01*
X11075643Y-17793857D01*
X11075643Y-17808143D01*
X11061357Y-17836714D01*
X11047071Y-17851000D01*
X11018500Y-17865286D01*
X10961357Y-17865286D01*
X10932786Y-17879572D01*
X10918500Y-17893857D01*
X10904214Y-17922429D01*
X10904214Y-17979572D01*
X10918500Y-18008143D01*
X10932786Y-18022429D01*
X10961357Y-18036714D01*
X11018500Y-18036714D01*
X11047071Y-18022429D01*
X11061357Y-18008143D01*
X11075643Y-17979572D01*
X11075643Y-17922429D01*
X11061357Y-17893857D01*
X11047071Y-17879572D01*
X11018500Y-17865286D01*
X11261357Y-17736714D02*
X11289928Y-17736714D01*
X11318500Y-17751000D01*
X11332786Y-17765286D01*
X11347071Y-17793857D01*
X11361357Y-17851000D01*
X11361357Y-17922429D01*
X11347071Y-17979572D01*
X11332786Y-18008143D01*
X11318500Y-18022429D01*
X11289928Y-18036714D01*
X11261357Y-18036714D01*
X11232786Y-18022429D01*
X11218500Y-18008143D01*
X11204214Y-17979572D01*
X11189928Y-17922429D01*
X11189928Y-17851000D01*
X11204214Y-17793857D01*
X11218500Y-17765286D01*
X11232786Y-17751000D01*
X11261357Y-17736714D01*
X11489928Y-18036714D02*
X11489928Y-17836714D01*
X11489928Y-17865286D02*
X11504214Y-17851000D01*
X11532786Y-17836714D01*
X11575643Y-17836714D01*
X11604214Y-17851000D01*
X11618500Y-17879572D01*
X11618500Y-18036714D01*
X11618500Y-17879572D02*
X11632786Y-17851000D01*
X11661357Y-17836714D01*
X11704214Y-17836714D01*
X11732786Y-17851000D01*
X11747071Y-17879572D01*
X11747071Y-18036714D01*
X11889928Y-18036714D02*
X11889928Y-17836714D01*
X11889928Y-17865286D02*
X11904214Y-17851000D01*
X11932786Y-17836714D01*
X11975643Y-17836714D01*
X12004214Y-17851000D01*
X12018500Y-17879572D01*
X12018500Y-18036714D01*
X12018500Y-17879572D02*
X12032786Y-17851000D01*
X12061357Y-17836714D01*
X12104214Y-17836714D01*
X12132786Y-17851000D01*
X12147071Y-17879572D01*
X12147071Y-18036714D01*
X12732786Y-17722429D02*
X12475643Y-18108143D01*
X13118500Y-17736714D02*
X13147071Y-17736714D01*
X13175643Y-17751000D01*
X13189928Y-17765286D01*
X13204214Y-17793857D01*
X13218500Y-17851000D01*
X13218500Y-17922429D01*
X13204214Y-17979572D01*
X13189928Y-18008143D01*
X13175643Y-18022429D01*
X13147071Y-18036714D01*
X13118500Y-18036714D01*
X13089928Y-18022429D01*
X13075643Y-18008143D01*
X13061357Y-17979572D01*
X13047071Y-17922429D01*
X13047071Y-17851000D01*
X13061357Y-17793857D01*
X13075643Y-17765286D01*
X13089928Y-17751000D01*
X13118500Y-17736714D01*
X13347071Y-18008143D02*
X13361357Y-18022429D01*
X13347071Y-18036714D01*
X13332786Y-18022429D01*
X13347071Y-18008143D01*
X13347071Y-18036714D01*
X13547071Y-17736714D02*
X13575643Y-17736714D01*
X13604214Y-17751000D01*
X13618500Y-17765286D01*
X13632785Y-17793857D01*
X13647071Y-17851000D01*
X13647071Y-17922429D01*
X13632785Y-17979572D01*
X13618500Y-18008143D01*
X13604214Y-18022429D01*
X13575643Y-18036714D01*
X13547071Y-18036714D01*
X13518500Y-18022429D01*
X13504214Y-18008143D01*
X13489928Y-17979572D01*
X13475643Y-17922429D01*
X13475643Y-17851000D01*
X13489928Y-17793857D01*
X13504214Y-17765286D01*
X13518500Y-17751000D01*
X13547071Y-17736714D01*
X13747071Y-17736714D02*
X13932785Y-17736714D01*
X13832785Y-17851000D01*
X13875643Y-17851000D01*
X13904214Y-17865286D01*
X13918500Y-17879572D01*
X13932785Y-17908143D01*
X13932785Y-17979572D01*
X13918500Y-18008143D01*
X13904214Y-18022429D01*
X13875643Y-18036714D01*
X13789928Y-18036714D01*
X13761357Y-18022429D01*
X13747071Y-18008143D01*
X14218500Y-18036714D02*
X14047071Y-18036714D01*
X14132785Y-18036714D02*
X14132785Y-17736714D01*
X14104214Y-17779572D01*
X14075643Y-17808143D01*
X14047071Y-17822429D01*
X14332786Y-17736714D02*
X14332786Y-17793857D01*
X14447071Y-17736714D02*
X14447071Y-17793857D01*
X14889928Y-18151000D02*
X14875643Y-18136714D01*
X14847071Y-18093857D01*
X14832785Y-18065286D01*
X14818500Y-18022429D01*
X14804214Y-17951000D01*
X14804214Y-17893857D01*
X14818500Y-17822429D01*
X14832785Y-17779572D01*
X14847071Y-17751000D01*
X14875643Y-17708143D01*
X14889928Y-17693857D01*
X15161357Y-18036714D02*
X14989928Y-18036714D01*
X15075643Y-18036714D02*
X15075643Y-17736714D01*
X15047071Y-17779572D01*
X15018500Y-17808143D01*
X14989928Y-17822429D01*
X15275643Y-17765286D02*
X15289928Y-17751000D01*
X15318500Y-17736714D01*
X15389928Y-17736714D01*
X15418500Y-17751000D01*
X15432785Y-17765286D01*
X15447071Y-17793857D01*
X15447071Y-17822429D01*
X15432785Y-17865286D01*
X15261357Y-18036714D01*
X15447071Y-18036714D01*
X15804214Y-18036714D02*
X15804214Y-17736714D01*
X15932785Y-18036714D02*
X15932785Y-17879572D01*
X15918500Y-17851000D01*
X15889928Y-17836714D01*
X15847071Y-17836714D01*
X15818500Y-17851000D01*
X15804214Y-17865286D01*
X16118500Y-18036714D02*
X16089928Y-18022429D01*
X16075643Y-18008143D01*
X16061357Y-17979572D01*
X16061357Y-17893857D01*
X16075643Y-17865286D01*
X16089928Y-17851000D01*
X16118500Y-17836714D01*
X16161357Y-17836714D01*
X16189928Y-17851000D01*
X16204214Y-17865286D01*
X16218500Y-17893857D01*
X16218500Y-17979572D01*
X16204214Y-18008143D01*
X16189928Y-18022429D01*
X16161357Y-18036714D01*
X16118500Y-18036714D01*
X16389928Y-18036714D02*
X16361357Y-18022429D01*
X16347071Y-17993857D01*
X16347071Y-17736714D01*
X16618500Y-18022429D02*
X16589928Y-18036714D01*
X16532786Y-18036714D01*
X16504214Y-18022429D01*
X16489928Y-17993857D01*
X16489928Y-17879572D01*
X16504214Y-17851000D01*
X16532786Y-17836714D01*
X16589928Y-17836714D01*
X16618500Y-17851000D01*
X16632786Y-17879572D01*
X16632786Y-17908143D01*
X16489928Y-17936714D01*
X16747071Y-18022429D02*
X16775643Y-18036714D01*
X16832786Y-18036714D01*
X16861357Y-18022429D01*
X16875643Y-17993857D01*
X16875643Y-17979572D01*
X16861357Y-17951000D01*
X16832786Y-17936714D01*
X16789929Y-17936714D01*
X16761357Y-17922429D01*
X16747071Y-17893857D01*
X16747071Y-17879572D01*
X16761357Y-17851000D01*
X16789929Y-17836714D01*
X16832786Y-17836714D01*
X16861357Y-17851000D01*
X16975643Y-18151000D02*
X16989929Y-18136714D01*
X17018500Y-18093857D01*
X17032786Y-18065286D01*
X17047071Y-18022429D01*
X17061357Y-17951000D01*
X17061357Y-17893857D01*
X17047071Y-17822429D01*
X17032786Y-17779572D01*
X17018500Y-17751000D01*
X16989929Y-17708143D01*
X16975643Y-17693857D01*
X10173500Y-18342000D02*
X10218500Y-18297000D01*
X10173500Y-18252000D01*
X10128500Y-18297000D01*
X10173500Y-18342000D01*
X10547071Y-18132714D02*
X10575643Y-18132714D01*
X10604214Y-18147000D01*
X10618500Y-18161286D01*
X10632786Y-18189857D01*
X10647071Y-18247000D01*
X10647071Y-18318429D01*
X10632786Y-18375572D01*
X10618500Y-18404143D01*
X10604214Y-18418429D01*
X10575643Y-18432714D01*
X10547071Y-18432714D01*
X10518500Y-18418429D01*
X10504214Y-18404143D01*
X10489929Y-18375572D01*
X10475643Y-18318429D01*
X10475643Y-18247000D01*
X10489929Y-18189857D01*
X10504214Y-18161286D01*
X10518500Y-18147000D01*
X10547071Y-18132714D01*
X10775643Y-18404143D02*
X10789929Y-18418429D01*
X10775643Y-18432714D01*
X10761357Y-18418429D01*
X10775643Y-18404143D01*
X10775643Y-18432714D01*
X10932786Y-18432714D02*
X10989928Y-18432714D01*
X11018500Y-18418429D01*
X11032786Y-18404143D01*
X11061357Y-18361286D01*
X11075643Y-18304143D01*
X11075643Y-18189857D01*
X11061357Y-18161286D01*
X11047071Y-18147000D01*
X11018500Y-18132714D01*
X10961357Y-18132714D01*
X10932786Y-18147000D01*
X10918500Y-18161286D01*
X10904214Y-18189857D01*
X10904214Y-18261286D01*
X10918500Y-18289857D01*
X10932786Y-18304143D01*
X10961357Y-18318429D01*
X11018500Y-18318429D01*
X11047071Y-18304143D01*
X11061357Y-18289857D01*
X11075643Y-18261286D01*
X11261357Y-18132714D02*
X11289928Y-18132714D01*
X11318500Y-18147000D01*
X11332786Y-18161286D01*
X11347071Y-18189857D01*
X11361357Y-18247000D01*
X11361357Y-18318429D01*
X11347071Y-18375572D01*
X11332786Y-18404143D01*
X11318500Y-18418429D01*
X11289928Y-18432714D01*
X11261357Y-18432714D01*
X11232786Y-18418429D01*
X11218500Y-18404143D01*
X11204214Y-18375572D01*
X11189928Y-18318429D01*
X11189928Y-18247000D01*
X11204214Y-18189857D01*
X11218500Y-18161286D01*
X11232786Y-18147000D01*
X11261357Y-18132714D01*
X11489928Y-18432714D02*
X11489928Y-18232714D01*
X11489928Y-18261286D02*
X11504214Y-18247000D01*
X11532786Y-18232714D01*
X11575643Y-18232714D01*
X11604214Y-18247000D01*
X11618500Y-18275572D01*
X11618500Y-18432714D01*
X11618500Y-18275572D02*
X11632786Y-18247000D01*
X11661357Y-18232714D01*
X11704214Y-18232714D01*
X11732786Y-18247000D01*
X11747071Y-18275572D01*
X11747071Y-18432714D01*
X11889928Y-18432714D02*
X11889928Y-18232714D01*
X11889928Y-18261286D02*
X11904214Y-18247000D01*
X11932786Y-18232714D01*
X11975643Y-18232714D01*
X12004214Y-18247000D01*
X12018500Y-18275572D01*
X12018500Y-18432714D01*
X12018500Y-18275572D02*
X12032786Y-18247000D01*
X12061357Y-18232714D01*
X12104214Y-18232714D01*
X12132786Y-18247000D01*
X12147071Y-18275572D01*
X12147071Y-18432714D01*
X12732786Y-18118429D02*
X12475643Y-18504143D01*
X13118500Y-18132714D02*
X13147071Y-18132714D01*
X13175643Y-18147000D01*
X13189928Y-18161286D01*
X13204214Y-18189857D01*
X13218500Y-18247000D01*
X13218500Y-18318429D01*
X13204214Y-18375572D01*
X13189928Y-18404143D01*
X13175643Y-18418429D01*
X13147071Y-18432714D01*
X13118500Y-18432714D01*
X13089928Y-18418429D01*
X13075643Y-18404143D01*
X13061357Y-18375572D01*
X13047071Y-18318429D01*
X13047071Y-18247000D01*
X13061357Y-18189857D01*
X13075643Y-18161286D01*
X13089928Y-18147000D01*
X13118500Y-18132714D01*
X13347071Y-18404143D02*
X13361357Y-18418429D01*
X13347071Y-18432714D01*
X13332786Y-18418429D01*
X13347071Y-18404143D01*
X13347071Y-18432714D01*
X13547071Y-18132714D02*
X13575643Y-18132714D01*
X13604214Y-18147000D01*
X13618500Y-18161286D01*
X13632785Y-18189857D01*
X13647071Y-18247000D01*
X13647071Y-18318429D01*
X13632785Y-18375572D01*
X13618500Y-18404143D01*
X13604214Y-18418429D01*
X13575643Y-18432714D01*
X13547071Y-18432714D01*
X13518500Y-18418429D01*
X13504214Y-18404143D01*
X13489928Y-18375572D01*
X13475643Y-18318429D01*
X13475643Y-18247000D01*
X13489928Y-18189857D01*
X13504214Y-18161286D01*
X13518500Y-18147000D01*
X13547071Y-18132714D01*
X13747071Y-18132714D02*
X13932785Y-18132714D01*
X13832785Y-18247000D01*
X13875643Y-18247000D01*
X13904214Y-18261286D01*
X13918500Y-18275572D01*
X13932785Y-18304143D01*
X13932785Y-18375572D01*
X13918500Y-18404143D01*
X13904214Y-18418429D01*
X13875643Y-18432714D01*
X13789928Y-18432714D01*
X13761357Y-18418429D01*
X13747071Y-18404143D01*
X14204214Y-18132714D02*
X14061357Y-18132714D01*
X14047071Y-18275572D01*
X14061357Y-18261286D01*
X14089928Y-18247000D01*
X14161357Y-18247000D01*
X14189928Y-18261286D01*
X14204214Y-18275572D01*
X14218500Y-18304143D01*
X14218500Y-18375572D01*
X14204214Y-18404143D01*
X14189928Y-18418429D01*
X14161357Y-18432714D01*
X14089928Y-18432714D01*
X14061357Y-18418429D01*
X14047071Y-18404143D01*
X14332786Y-18132714D02*
X14332786Y-18189857D01*
X14447071Y-18132714D02*
X14447071Y-18189857D01*
X14889928Y-18547000D02*
X14875643Y-18532714D01*
X14847071Y-18489857D01*
X14832785Y-18461286D01*
X14818500Y-18418429D01*
X14804214Y-18347000D01*
X14804214Y-18289857D01*
X14818500Y-18218429D01*
X14832785Y-18175572D01*
X14847071Y-18147000D01*
X14875643Y-18104143D01*
X14889928Y-18089857D01*
X14989928Y-18161286D02*
X15004214Y-18147000D01*
X15032785Y-18132714D01*
X15104214Y-18132714D01*
X15132785Y-18147000D01*
X15147071Y-18161286D01*
X15161357Y-18189857D01*
X15161357Y-18218429D01*
X15147071Y-18261286D01*
X14975643Y-18432714D01*
X15161357Y-18432714D01*
X15518500Y-18432714D02*
X15518500Y-18132714D01*
X15647071Y-18432714D02*
X15647071Y-18275572D01*
X15632785Y-18247000D01*
X15604214Y-18232714D01*
X15561357Y-18232714D01*
X15532785Y-18247000D01*
X15518500Y-18261286D01*
X15832785Y-18432714D02*
X15804214Y-18418429D01*
X15789928Y-18404143D01*
X15775643Y-18375572D01*
X15775643Y-18289857D01*
X15789928Y-18261286D01*
X15804214Y-18247000D01*
X15832785Y-18232714D01*
X15875643Y-18232714D01*
X15904214Y-18247000D01*
X15918500Y-18261286D01*
X15932785Y-18289857D01*
X15932785Y-18375572D01*
X15918500Y-18404143D01*
X15904214Y-18418429D01*
X15875643Y-18432714D01*
X15832785Y-18432714D01*
X16104214Y-18432714D02*
X16075643Y-18418429D01*
X16061357Y-18389857D01*
X16061357Y-18132714D01*
X16332786Y-18418429D02*
X16304214Y-18432714D01*
X16247071Y-18432714D01*
X16218500Y-18418429D01*
X16204214Y-18389857D01*
X16204214Y-18275572D01*
X16218500Y-18247000D01*
X16247071Y-18232714D01*
X16304214Y-18232714D01*
X16332786Y-18247000D01*
X16347071Y-18275572D01*
X16347071Y-18304143D01*
X16204214Y-18332714D01*
X16461357Y-18418429D02*
X16489928Y-18432714D01*
X16547071Y-18432714D01*
X16575643Y-18418429D01*
X16589928Y-18389857D01*
X16589928Y-18375572D01*
X16575643Y-18347000D01*
X16547071Y-18332714D01*
X16504214Y-18332714D01*
X16475643Y-18318429D01*
X16461357Y-18289857D01*
X16461357Y-18275572D01*
X16475643Y-18247000D01*
X16504214Y-18232714D01*
X16547071Y-18232714D01*
X16575643Y-18247000D01*
X16689928Y-18547000D02*
X16704214Y-18532714D01*
X16732786Y-18489857D01*
X16747071Y-18461286D01*
X16761357Y-18418429D01*
X16775643Y-18347000D01*
X16775643Y-18289857D01*
X16761357Y-18218429D01*
X16747071Y-18175572D01*
X16732786Y-18147000D01*
X16704214Y-18104143D01*
X16689928Y-18089857D01*
X10118500Y-18643000D02*
X10218500Y-18743000D01*
X10218500Y-18643000D02*
X10118500Y-18743000D01*
X10218500Y-18693000D02*
G75*
G03X10218500Y-18693000I-50000J0D01*
G01*
X10647071Y-18828714D02*
X10475643Y-18828714D01*
X10561357Y-18828714D02*
X10561357Y-18528714D01*
X10532786Y-18571572D01*
X10504214Y-18600143D01*
X10475643Y-18614429D01*
X10775643Y-18800143D02*
X10789929Y-18814429D01*
X10775643Y-18828714D01*
X10761357Y-18814429D01*
X10775643Y-18800143D01*
X10775643Y-18828714D01*
X10975643Y-18528714D02*
X11004214Y-18528714D01*
X11032786Y-18543000D01*
X11047071Y-18557286D01*
X11061357Y-18585857D01*
X11075643Y-18643000D01*
X11075643Y-18714429D01*
X11061357Y-18771572D01*
X11047071Y-18800143D01*
X11032786Y-18814429D01*
X11004214Y-18828714D01*
X10975643Y-18828714D01*
X10947071Y-18814429D01*
X10932786Y-18800143D01*
X10918500Y-18771572D01*
X10904214Y-18714429D01*
X10904214Y-18643000D01*
X10918500Y-18585857D01*
X10932786Y-18557286D01*
X10947071Y-18543000D01*
X10975643Y-18528714D01*
X11261357Y-18528714D02*
X11289928Y-18528714D01*
X11318500Y-18543000D01*
X11332786Y-18557286D01*
X11347071Y-18585857D01*
X11361357Y-18643000D01*
X11361357Y-18714429D01*
X11347071Y-18771572D01*
X11332786Y-18800143D01*
X11318500Y-18814429D01*
X11289928Y-18828714D01*
X11261357Y-18828714D01*
X11232786Y-18814429D01*
X11218500Y-18800143D01*
X11204214Y-18771572D01*
X11189928Y-18714429D01*
X11189928Y-18643000D01*
X11204214Y-18585857D01*
X11218500Y-18557286D01*
X11232786Y-18543000D01*
X11261357Y-18528714D01*
X11489928Y-18828714D02*
X11489928Y-18628714D01*
X11489928Y-18657286D02*
X11504214Y-18643000D01*
X11532786Y-18628714D01*
X11575643Y-18628714D01*
X11604214Y-18643000D01*
X11618500Y-18671572D01*
X11618500Y-18828714D01*
X11618500Y-18671572D02*
X11632786Y-18643000D01*
X11661357Y-18628714D01*
X11704214Y-18628714D01*
X11732786Y-18643000D01*
X11747071Y-18671572D01*
X11747071Y-18828714D01*
X11889928Y-18828714D02*
X11889928Y-18628714D01*
X11889928Y-18657286D02*
X11904214Y-18643000D01*
X11932786Y-18628714D01*
X11975643Y-18628714D01*
X12004214Y-18643000D01*
X12018500Y-18671572D01*
X12018500Y-18828714D01*
X12018500Y-18671572D02*
X12032786Y-18643000D01*
X12061357Y-18628714D01*
X12104214Y-18628714D01*
X12132786Y-18643000D01*
X12147071Y-18671572D01*
X12147071Y-18828714D01*
X12732786Y-18514429D02*
X12475643Y-18900143D01*
X13118500Y-18528714D02*
X13147071Y-18528714D01*
X13175643Y-18543000D01*
X13189928Y-18557286D01*
X13204214Y-18585857D01*
X13218500Y-18643000D01*
X13218500Y-18714429D01*
X13204214Y-18771572D01*
X13189928Y-18800143D01*
X13175643Y-18814429D01*
X13147071Y-18828714D01*
X13118500Y-18828714D01*
X13089928Y-18814429D01*
X13075643Y-18800143D01*
X13061357Y-18771572D01*
X13047071Y-18714429D01*
X13047071Y-18643000D01*
X13061357Y-18585857D01*
X13075643Y-18557286D01*
X13089928Y-18543000D01*
X13118500Y-18528714D01*
X13347071Y-18800143D02*
X13361357Y-18814429D01*
X13347071Y-18828714D01*
X13332786Y-18814429D01*
X13347071Y-18800143D01*
X13347071Y-18828714D01*
X13547071Y-18528714D02*
X13575643Y-18528714D01*
X13604214Y-18543000D01*
X13618500Y-18557286D01*
X13632785Y-18585857D01*
X13647071Y-18643000D01*
X13647071Y-18714429D01*
X13632785Y-18771572D01*
X13618500Y-18800143D01*
X13604214Y-18814429D01*
X13575643Y-18828714D01*
X13547071Y-18828714D01*
X13518500Y-18814429D01*
X13504214Y-18800143D01*
X13489928Y-18771572D01*
X13475643Y-18714429D01*
X13475643Y-18643000D01*
X13489928Y-18585857D01*
X13504214Y-18557286D01*
X13518500Y-18543000D01*
X13547071Y-18528714D01*
X13747071Y-18528714D02*
X13932785Y-18528714D01*
X13832785Y-18643000D01*
X13875643Y-18643000D01*
X13904214Y-18657286D01*
X13918500Y-18671572D01*
X13932785Y-18700143D01*
X13932785Y-18771572D01*
X13918500Y-18800143D01*
X13904214Y-18814429D01*
X13875643Y-18828714D01*
X13789928Y-18828714D01*
X13761357Y-18814429D01*
X13747071Y-18800143D01*
X14075643Y-18828714D02*
X14132785Y-18828714D01*
X14161357Y-18814429D01*
X14175643Y-18800143D01*
X14204214Y-18757286D01*
X14218500Y-18700143D01*
X14218500Y-18585857D01*
X14204214Y-18557286D01*
X14189928Y-18543000D01*
X14161357Y-18528714D01*
X14104214Y-18528714D01*
X14075643Y-18543000D01*
X14061357Y-18557286D01*
X14047071Y-18585857D01*
X14047071Y-18657286D01*
X14061357Y-18685857D01*
X14075643Y-18700143D01*
X14104214Y-18714429D01*
X14161357Y-18714429D01*
X14189928Y-18700143D01*
X14204214Y-18685857D01*
X14218500Y-18657286D01*
X14332786Y-18528714D02*
X14332786Y-18585857D01*
X14447071Y-18528714D02*
X14447071Y-18585857D01*
X14889928Y-18943000D02*
X14875643Y-18928714D01*
X14847071Y-18885857D01*
X14832785Y-18857286D01*
X14818500Y-18814429D01*
X14804214Y-18743000D01*
X14804214Y-18685857D01*
X14818500Y-18614429D01*
X14832785Y-18571572D01*
X14847071Y-18543000D01*
X14875643Y-18500143D01*
X14889928Y-18485857D01*
X15161357Y-18828714D02*
X14989928Y-18828714D01*
X15075643Y-18828714D02*
X15075643Y-18528714D01*
X15047071Y-18571572D01*
X15018500Y-18600143D01*
X14989928Y-18614429D01*
X15261357Y-18528714D02*
X15461357Y-18528714D01*
X15332785Y-18828714D01*
X15718500Y-18528714D02*
X15575643Y-18528714D01*
X15561357Y-18671572D01*
X15575643Y-18657286D01*
X15604214Y-18643000D01*
X15675643Y-18643000D01*
X15704214Y-18657286D01*
X15718500Y-18671572D01*
X15732785Y-18700143D01*
X15732785Y-18771572D01*
X15718500Y-18800143D01*
X15704214Y-18814429D01*
X15675643Y-18828714D01*
X15604214Y-18828714D01*
X15575643Y-18814429D01*
X15561357Y-18800143D01*
X16089928Y-18828714D02*
X16089928Y-18528714D01*
X16218500Y-18828714D02*
X16218500Y-18671572D01*
X16204214Y-18643000D01*
X16175643Y-18628714D01*
X16132785Y-18628714D01*
X16104214Y-18643000D01*
X16089928Y-18657286D01*
X16404214Y-18828714D02*
X16375643Y-18814429D01*
X16361357Y-18800143D01*
X16347071Y-18771572D01*
X16347071Y-18685857D01*
X16361357Y-18657286D01*
X16375643Y-18643000D01*
X16404214Y-18628714D01*
X16447071Y-18628714D01*
X16475643Y-18643000D01*
X16489928Y-18657286D01*
X16504214Y-18685857D01*
X16504214Y-18771572D01*
X16489928Y-18800143D01*
X16475643Y-18814429D01*
X16447071Y-18828714D01*
X16404214Y-18828714D01*
X16675643Y-18828714D02*
X16647071Y-18814429D01*
X16632786Y-18785857D01*
X16632786Y-18528714D01*
X16904214Y-18814429D02*
X16875643Y-18828714D01*
X16818500Y-18828714D01*
X16789929Y-18814429D01*
X16775643Y-18785857D01*
X16775643Y-18671572D01*
X16789929Y-18643000D01*
X16818500Y-18628714D01*
X16875643Y-18628714D01*
X16904214Y-18643000D01*
X16918500Y-18671572D01*
X16918500Y-18700143D01*
X16775643Y-18728714D01*
X17032786Y-18814429D02*
X17061357Y-18828714D01*
X17118500Y-18828714D01*
X17147071Y-18814429D01*
X17161357Y-18785857D01*
X17161357Y-18771572D01*
X17147071Y-18743000D01*
X17118500Y-18728714D01*
X17075643Y-18728714D01*
X17047071Y-18714429D01*
X17032786Y-18685857D01*
X17032786Y-18671572D01*
X17047071Y-18643000D01*
X17075643Y-18628714D01*
X17118500Y-18628714D01*
X17147071Y-18643000D01*
X17261357Y-18943000D02*
X17275643Y-18928714D01*
X17304214Y-18885857D01*
X17318500Y-18857286D01*
X17332786Y-18814429D01*
X17347071Y-18743000D01*
X17347071Y-18685857D01*
X17332786Y-18614429D01*
X17318500Y-18571572D01*
X17304214Y-18543000D01*
X17275643Y-18500143D01*
X17261357Y-18485857D01*
X9913700Y-18936600D02*
X10218500Y-19241400D01*
X10218500Y-18936600D02*
X9913700Y-19241400D01*
X10066100Y-18936600D02*
X10066100Y-19241400D01*
X9913700Y-19089000D02*
X10218500Y-19089000D01*
X10461357Y-18924714D02*
X10647071Y-18924714D01*
X10547071Y-19039000D01*
X10589929Y-19039000D01*
X10618500Y-19053286D01*
X10632786Y-19067572D01*
X10647071Y-19096143D01*
X10647071Y-19167572D01*
X10632786Y-19196143D01*
X10618500Y-19210429D01*
X10589929Y-19224714D01*
X10504214Y-19224714D01*
X10475643Y-19210429D01*
X10461357Y-19196143D01*
X10775643Y-19196143D02*
X10789929Y-19210429D01*
X10775643Y-19224714D01*
X10761357Y-19210429D01*
X10775643Y-19196143D01*
X10775643Y-19224714D01*
X10975643Y-18924714D02*
X11004214Y-18924714D01*
X11032786Y-18939000D01*
X11047071Y-18953286D01*
X11061357Y-18981857D01*
X11075643Y-19039000D01*
X11075643Y-19110429D01*
X11061357Y-19167572D01*
X11047071Y-19196143D01*
X11032786Y-19210429D01*
X11004214Y-19224714D01*
X10975643Y-19224714D01*
X10947071Y-19210429D01*
X10932786Y-19196143D01*
X10918500Y-19167572D01*
X10904214Y-19110429D01*
X10904214Y-19039000D01*
X10918500Y-18981857D01*
X10932786Y-18953286D01*
X10947071Y-18939000D01*
X10975643Y-18924714D01*
X11347071Y-18924714D02*
X11204214Y-18924714D01*
X11189928Y-19067572D01*
X11204214Y-19053286D01*
X11232786Y-19039000D01*
X11304214Y-19039000D01*
X11332786Y-19053286D01*
X11347071Y-19067572D01*
X11361357Y-19096143D01*
X11361357Y-19167572D01*
X11347071Y-19196143D01*
X11332786Y-19210429D01*
X11304214Y-19224714D01*
X11232786Y-19224714D01*
X11204214Y-19210429D01*
X11189928Y-19196143D01*
X11489928Y-19224714D02*
X11489928Y-19024714D01*
X11489928Y-19053286D02*
X11504214Y-19039000D01*
X11532786Y-19024714D01*
X11575643Y-19024714D01*
X11604214Y-19039000D01*
X11618500Y-19067572D01*
X11618500Y-19224714D01*
X11618500Y-19067572D02*
X11632786Y-19039000D01*
X11661357Y-19024714D01*
X11704214Y-19024714D01*
X11732786Y-19039000D01*
X11747071Y-19067572D01*
X11747071Y-19224714D01*
X11889928Y-19224714D02*
X11889928Y-19024714D01*
X11889928Y-19053286D02*
X11904214Y-19039000D01*
X11932786Y-19024714D01*
X11975643Y-19024714D01*
X12004214Y-19039000D01*
X12018500Y-19067572D01*
X12018500Y-19224714D01*
X12018500Y-19067572D02*
X12032786Y-19039000D01*
X12061357Y-19024714D01*
X12104214Y-19024714D01*
X12132786Y-19039000D01*
X12147071Y-19067572D01*
X12147071Y-19224714D01*
X12732786Y-18910429D02*
X12475643Y-19296143D01*
X13118500Y-18924714D02*
X13147071Y-18924714D01*
X13175643Y-18939000D01*
X13189928Y-18953286D01*
X13204214Y-18981857D01*
X13218500Y-19039000D01*
X13218500Y-19110429D01*
X13204214Y-19167572D01*
X13189928Y-19196143D01*
X13175643Y-19210429D01*
X13147071Y-19224714D01*
X13118500Y-19224714D01*
X13089928Y-19210429D01*
X13075643Y-19196143D01*
X13061357Y-19167572D01*
X13047071Y-19110429D01*
X13047071Y-19039000D01*
X13061357Y-18981857D01*
X13075643Y-18953286D01*
X13089928Y-18939000D01*
X13118500Y-18924714D01*
X13347071Y-19196143D02*
X13361357Y-19210429D01*
X13347071Y-19224714D01*
X13332786Y-19210429D01*
X13347071Y-19196143D01*
X13347071Y-19224714D01*
X13647071Y-19224714D02*
X13475643Y-19224714D01*
X13561357Y-19224714D02*
X13561357Y-18924714D01*
X13532785Y-18967572D01*
X13504214Y-18996143D01*
X13475643Y-19010429D01*
X13761357Y-18953286D02*
X13775643Y-18939000D01*
X13804214Y-18924714D01*
X13875643Y-18924714D01*
X13904214Y-18939000D01*
X13918500Y-18953286D01*
X13932785Y-18981857D01*
X13932785Y-19010429D01*
X13918500Y-19053286D01*
X13747071Y-19224714D01*
X13932785Y-19224714D01*
X14118500Y-18924714D02*
X14147071Y-18924714D01*
X14175643Y-18939000D01*
X14189928Y-18953286D01*
X14204214Y-18981857D01*
X14218500Y-19039000D01*
X14218500Y-19110429D01*
X14204214Y-19167572D01*
X14189928Y-19196143D01*
X14175643Y-19210429D01*
X14147071Y-19224714D01*
X14118500Y-19224714D01*
X14089928Y-19210429D01*
X14075643Y-19196143D01*
X14061357Y-19167572D01*
X14047071Y-19110429D01*
X14047071Y-19039000D01*
X14061357Y-18981857D01*
X14075643Y-18953286D01*
X14089928Y-18939000D01*
X14118500Y-18924714D01*
X14332786Y-18924714D02*
X14332786Y-18981857D01*
X14447071Y-18924714D02*
X14447071Y-18981857D01*
X14889928Y-19339000D02*
X14875643Y-19324714D01*
X14847071Y-19281857D01*
X14832785Y-19253286D01*
X14818500Y-19210429D01*
X14804214Y-19139000D01*
X14804214Y-19081857D01*
X14818500Y-19010429D01*
X14832785Y-18967572D01*
X14847071Y-18939000D01*
X14875643Y-18896143D01*
X14889928Y-18881857D01*
X15132785Y-18924714D02*
X15075643Y-18924714D01*
X15047071Y-18939000D01*
X15032785Y-18953286D01*
X15004214Y-18996143D01*
X14989928Y-19053286D01*
X14989928Y-19167572D01*
X15004214Y-19196143D01*
X15018500Y-19210429D01*
X15047071Y-19224714D01*
X15104214Y-19224714D01*
X15132785Y-19210429D01*
X15147071Y-19196143D01*
X15161357Y-19167572D01*
X15161357Y-19096143D01*
X15147071Y-19067572D01*
X15132785Y-19053286D01*
X15104214Y-19039000D01*
X15047071Y-19039000D01*
X15018500Y-19053286D01*
X15004214Y-19067572D01*
X14989928Y-19096143D01*
X15518500Y-19224714D02*
X15518500Y-18924714D01*
X15647071Y-19224714D02*
X15647071Y-19067572D01*
X15632785Y-19039000D01*
X15604214Y-19024714D01*
X15561357Y-19024714D01*
X15532785Y-19039000D01*
X15518500Y-19053286D01*
X15832785Y-19224714D02*
X15804214Y-19210429D01*
X15789928Y-19196143D01*
X15775643Y-19167572D01*
X15775643Y-19081857D01*
X15789928Y-19053286D01*
X15804214Y-19039000D01*
X15832785Y-19024714D01*
X15875643Y-19024714D01*
X15904214Y-19039000D01*
X15918500Y-19053286D01*
X15932785Y-19081857D01*
X15932785Y-19167572D01*
X15918500Y-19196143D01*
X15904214Y-19210429D01*
X15875643Y-19224714D01*
X15832785Y-19224714D01*
X16104214Y-19224714D02*
X16075643Y-19210429D01*
X16061357Y-19181857D01*
X16061357Y-18924714D01*
X16332786Y-19210429D02*
X16304214Y-19224714D01*
X16247071Y-19224714D01*
X16218500Y-19210429D01*
X16204214Y-19181857D01*
X16204214Y-19067572D01*
X16218500Y-19039000D01*
X16247071Y-19024714D01*
X16304214Y-19024714D01*
X16332786Y-19039000D01*
X16347071Y-19067572D01*
X16347071Y-19096143D01*
X16204214Y-19124714D01*
X16461357Y-19210429D02*
X16489928Y-19224714D01*
X16547071Y-19224714D01*
X16575643Y-19210429D01*
X16589928Y-19181857D01*
X16589928Y-19167572D01*
X16575643Y-19139000D01*
X16547071Y-19124714D01*
X16504214Y-19124714D01*
X16475643Y-19110429D01*
X16461357Y-19081857D01*
X16461357Y-19067572D01*
X16475643Y-19039000D01*
X16504214Y-19024714D01*
X16547071Y-19024714D01*
X16575643Y-19039000D01*
X16689928Y-19339000D02*
X16704214Y-19324714D01*
X16732786Y-19281857D01*
X16747071Y-19253286D01*
X16761357Y-19210429D01*
X16775643Y-19139000D01*
X16775643Y-19081857D01*
X16761357Y-19010429D01*
X16747071Y-18967572D01*
X16732786Y-18939000D01*
X16704214Y-18896143D01*
X16689928Y-18881857D01*
M02*
