%FSLAX45Y45*%
G04 Gerber Fmt 4.5, Leading zero omitted, Abs format (unit mm)*
G04 Created by KiCad (PCBNEW 4.0.7) date 03/02/18 17:19:39*
%MOMM*%
%LPD*%
G01*
G04 APERTURE LIST*
%ADD10C,0.127000*%
%ADD11C,0.100000*%
%ADD12C,0.200000*%
%ADD13C,0.300000*%
G04 APERTURE END LIST*
D10*
D11*
X10223500Y-5334000D02*
X10922000Y-5334000D01*
X10223500Y-15748000D02*
X10223500Y-5334000D01*
X10922000Y-15748000D02*
X10223500Y-15748000D01*
X18796000Y-15748000D02*
X17970500Y-15748000D01*
X18796000Y-5334000D02*
X18796000Y-15748000D01*
X10922000Y-5334000D02*
X18796000Y-5334000D01*
X10922000Y-15748000D02*
X17970500Y-15748000D01*
D12*
X12765500Y-5463000D02*
X13015500Y-5713000D01*
X13015500Y-5463000D02*
X12765500Y-5713000D01*
X13400500Y-5844000D02*
X13650500Y-6094000D01*
X13650500Y-5844000D02*
X13400500Y-6094000D01*
X13400500Y-11686000D02*
X13650500Y-11936000D01*
X13650500Y-11686000D02*
X13400500Y-11936000D01*
X17591500Y-5463000D02*
X17841500Y-5713000D01*
X17841500Y-5463000D02*
X17591500Y-5713000D01*
X17591500Y-13591000D02*
X17841500Y-13841000D01*
X17841500Y-13591000D02*
X17591500Y-13841000D01*
X18290000Y-5844000D02*
X18540000Y-6094000D01*
X18540000Y-5844000D02*
X18290000Y-6094000D01*
X18290000Y-11686000D02*
X18540000Y-11936000D01*
X18540000Y-11686000D02*
X18290000Y-11936000D01*
D13*
X10489929Y-16218714D02*
X10489929Y-15918714D01*
X10561357Y-15918714D01*
X10604214Y-15933000D01*
X10632786Y-15961571D01*
X10647071Y-15990143D01*
X10661357Y-16047286D01*
X10661357Y-16090143D01*
X10647071Y-16147286D01*
X10632786Y-16175857D01*
X10604214Y-16204429D01*
X10561357Y-16218714D01*
X10489929Y-16218714D01*
X10789929Y-16218714D02*
X10789929Y-16018714D01*
X10789929Y-16075857D02*
X10804214Y-16047286D01*
X10818500Y-16033000D01*
X10847071Y-16018714D01*
X10875643Y-16018714D01*
X10975643Y-16218714D02*
X10975643Y-16018714D01*
X10975643Y-15918714D02*
X10961357Y-15933000D01*
X10975643Y-15947286D01*
X10989929Y-15933000D01*
X10975643Y-15918714D01*
X10975643Y-15947286D01*
X11161357Y-16218714D02*
X11132786Y-16204429D01*
X11118500Y-16175857D01*
X11118500Y-15918714D01*
X11318500Y-16218714D02*
X11289928Y-16204429D01*
X11275643Y-16175857D01*
X11275643Y-15918714D01*
X11661357Y-16218714D02*
X11661357Y-15918714D01*
X11761357Y-16133000D01*
X11861357Y-15918714D01*
X11861357Y-16218714D01*
X12132786Y-16218714D02*
X12132786Y-16061571D01*
X12118500Y-16033000D01*
X12089928Y-16018714D01*
X12032786Y-16018714D01*
X12004214Y-16033000D01*
X12132786Y-16204429D02*
X12104214Y-16218714D01*
X12032786Y-16218714D01*
X12004214Y-16204429D01*
X11989928Y-16175857D01*
X11989928Y-16147286D01*
X12004214Y-16118714D01*
X12032786Y-16104429D01*
X12104214Y-16104429D01*
X12132786Y-16090143D01*
X12275643Y-16018714D02*
X12275643Y-16318714D01*
X12275643Y-16033000D02*
X12304214Y-16018714D01*
X12361357Y-16018714D01*
X12389928Y-16033000D01*
X12404214Y-16047286D01*
X12418500Y-16075857D01*
X12418500Y-16161571D01*
X12404214Y-16190143D01*
X12389928Y-16204429D01*
X12361357Y-16218714D01*
X12304214Y-16218714D01*
X12275643Y-16204429D01*
X12547071Y-16190143D02*
X12561357Y-16204429D01*
X12547071Y-16218714D01*
X12532786Y-16204429D01*
X12547071Y-16190143D01*
X12547071Y-16218714D01*
X12547071Y-16033000D02*
X12561357Y-16047286D01*
X12547071Y-16061571D01*
X12532786Y-16047286D01*
X12547071Y-16033000D01*
X12547071Y-16061571D01*
X9968500Y-16588000D02*
X10218500Y-16838000D01*
X10218500Y-16588000D02*
X9968500Y-16838000D01*
X10475643Y-16577286D02*
X10489929Y-16563000D01*
X10518500Y-16548714D01*
X10589929Y-16548714D01*
X10618500Y-16563000D01*
X10632786Y-16577286D01*
X10647071Y-16605857D01*
X10647071Y-16634429D01*
X10632786Y-16677286D01*
X10461357Y-16848714D01*
X10647071Y-16848714D01*
X10775643Y-16820143D02*
X10789929Y-16834429D01*
X10775643Y-16848714D01*
X10761357Y-16834429D01*
X10775643Y-16820143D01*
X10775643Y-16848714D01*
X11061357Y-16548714D02*
X10918500Y-16548714D01*
X10904214Y-16691571D01*
X10918500Y-16677286D01*
X10947071Y-16663000D01*
X11018500Y-16663000D01*
X11047071Y-16677286D01*
X11061357Y-16691571D01*
X11075643Y-16720143D01*
X11075643Y-16791572D01*
X11061357Y-16820143D01*
X11047071Y-16834429D01*
X11018500Y-16848714D01*
X10947071Y-16848714D01*
X10918500Y-16834429D01*
X10904214Y-16820143D01*
X11261357Y-16548714D02*
X11289928Y-16548714D01*
X11318500Y-16563000D01*
X11332786Y-16577286D01*
X11347071Y-16605857D01*
X11361357Y-16663000D01*
X11361357Y-16734429D01*
X11347071Y-16791572D01*
X11332786Y-16820143D01*
X11318500Y-16834429D01*
X11289928Y-16848714D01*
X11261357Y-16848714D01*
X11232786Y-16834429D01*
X11218500Y-16820143D01*
X11204214Y-16791572D01*
X11189928Y-16734429D01*
X11189928Y-16663000D01*
X11204214Y-16605857D01*
X11218500Y-16577286D01*
X11232786Y-16563000D01*
X11261357Y-16548714D01*
X11489928Y-16848714D02*
X11489928Y-16648714D01*
X11489928Y-16677286D02*
X11504214Y-16663000D01*
X11532786Y-16648714D01*
X11575643Y-16648714D01*
X11604214Y-16663000D01*
X11618500Y-16691571D01*
X11618500Y-16848714D01*
X11618500Y-16691571D02*
X11632786Y-16663000D01*
X11661357Y-16648714D01*
X11704214Y-16648714D01*
X11732786Y-16663000D01*
X11747071Y-16691571D01*
X11747071Y-16848714D01*
X11889928Y-16848714D02*
X11889928Y-16648714D01*
X11889928Y-16677286D02*
X11904214Y-16663000D01*
X11932786Y-16648714D01*
X11975643Y-16648714D01*
X12004214Y-16663000D01*
X12018500Y-16691571D01*
X12018500Y-16848714D01*
X12018500Y-16691571D02*
X12032786Y-16663000D01*
X12061357Y-16648714D01*
X12104214Y-16648714D01*
X12132786Y-16663000D01*
X12147071Y-16691571D01*
X12147071Y-16848714D01*
X12732786Y-16534429D02*
X12475643Y-16920143D01*
X13118500Y-16548714D02*
X13147071Y-16548714D01*
X13175643Y-16563000D01*
X13189928Y-16577286D01*
X13204214Y-16605857D01*
X13218500Y-16663000D01*
X13218500Y-16734429D01*
X13204214Y-16791572D01*
X13189928Y-16820143D01*
X13175643Y-16834429D01*
X13147071Y-16848714D01*
X13118500Y-16848714D01*
X13089928Y-16834429D01*
X13075643Y-16820143D01*
X13061357Y-16791572D01*
X13047071Y-16734429D01*
X13047071Y-16663000D01*
X13061357Y-16605857D01*
X13075643Y-16577286D01*
X13089928Y-16563000D01*
X13118500Y-16548714D01*
X13347071Y-16820143D02*
X13361357Y-16834429D01*
X13347071Y-16848714D01*
X13332786Y-16834429D01*
X13347071Y-16820143D01*
X13347071Y-16848714D01*
X13547071Y-16548714D02*
X13575643Y-16548714D01*
X13604214Y-16563000D01*
X13618500Y-16577286D01*
X13632785Y-16605857D01*
X13647071Y-16663000D01*
X13647071Y-16734429D01*
X13632785Y-16791572D01*
X13618500Y-16820143D01*
X13604214Y-16834429D01*
X13575643Y-16848714D01*
X13547071Y-16848714D01*
X13518500Y-16834429D01*
X13504214Y-16820143D01*
X13489928Y-16791572D01*
X13475643Y-16734429D01*
X13475643Y-16663000D01*
X13489928Y-16605857D01*
X13504214Y-16577286D01*
X13518500Y-16563000D01*
X13547071Y-16548714D01*
X13789928Y-16848714D02*
X13847071Y-16848714D01*
X13875643Y-16834429D01*
X13889928Y-16820143D01*
X13918500Y-16777286D01*
X13932785Y-16720143D01*
X13932785Y-16605857D01*
X13918500Y-16577286D01*
X13904214Y-16563000D01*
X13875643Y-16548714D01*
X13818500Y-16548714D01*
X13789928Y-16563000D01*
X13775643Y-16577286D01*
X13761357Y-16605857D01*
X13761357Y-16677286D01*
X13775643Y-16705857D01*
X13789928Y-16720143D01*
X13818500Y-16734429D01*
X13875643Y-16734429D01*
X13904214Y-16720143D01*
X13918500Y-16705857D01*
X13932785Y-16677286D01*
X14104214Y-16677286D02*
X14075643Y-16663000D01*
X14061357Y-16648714D01*
X14047071Y-16620143D01*
X14047071Y-16605857D01*
X14061357Y-16577286D01*
X14075643Y-16563000D01*
X14104214Y-16548714D01*
X14161357Y-16548714D01*
X14189928Y-16563000D01*
X14204214Y-16577286D01*
X14218500Y-16605857D01*
X14218500Y-16620143D01*
X14204214Y-16648714D01*
X14189928Y-16663000D01*
X14161357Y-16677286D01*
X14104214Y-16677286D01*
X14075643Y-16691571D01*
X14061357Y-16705857D01*
X14047071Y-16734429D01*
X14047071Y-16791572D01*
X14061357Y-16820143D01*
X14075643Y-16834429D01*
X14104214Y-16848714D01*
X14161357Y-16848714D01*
X14189928Y-16834429D01*
X14204214Y-16820143D01*
X14218500Y-16791572D01*
X14218500Y-16734429D01*
X14204214Y-16705857D01*
X14189928Y-16691571D01*
X14161357Y-16677286D01*
X14332786Y-16548714D02*
X14332786Y-16605857D01*
X14447071Y-16548714D02*
X14447071Y-16605857D01*
X14889928Y-16963000D02*
X14875643Y-16948714D01*
X14847071Y-16905857D01*
X14832785Y-16877286D01*
X14818500Y-16834429D01*
X14804214Y-16763000D01*
X14804214Y-16705857D01*
X14818500Y-16634429D01*
X14832785Y-16591571D01*
X14847071Y-16563000D01*
X14875643Y-16520143D01*
X14889928Y-16505857D01*
X14975643Y-16548714D02*
X15175643Y-16548714D01*
X15047071Y-16848714D01*
X15518500Y-16848714D02*
X15518500Y-16548714D01*
X15647071Y-16848714D02*
X15647071Y-16691571D01*
X15632785Y-16663000D01*
X15604214Y-16648714D01*
X15561357Y-16648714D01*
X15532785Y-16663000D01*
X15518500Y-16677286D01*
X15832785Y-16848714D02*
X15804214Y-16834429D01*
X15789928Y-16820143D01*
X15775643Y-16791572D01*
X15775643Y-16705857D01*
X15789928Y-16677286D01*
X15804214Y-16663000D01*
X15832785Y-16648714D01*
X15875643Y-16648714D01*
X15904214Y-16663000D01*
X15918500Y-16677286D01*
X15932785Y-16705857D01*
X15932785Y-16791572D01*
X15918500Y-16820143D01*
X15904214Y-16834429D01*
X15875643Y-16848714D01*
X15832785Y-16848714D01*
X16104214Y-16848714D02*
X16075643Y-16834429D01*
X16061357Y-16805857D01*
X16061357Y-16548714D01*
X16332786Y-16834429D02*
X16304214Y-16848714D01*
X16247071Y-16848714D01*
X16218500Y-16834429D01*
X16204214Y-16805857D01*
X16204214Y-16691571D01*
X16218500Y-16663000D01*
X16247071Y-16648714D01*
X16304214Y-16648714D01*
X16332786Y-16663000D01*
X16347071Y-16691571D01*
X16347071Y-16720143D01*
X16204214Y-16748714D01*
X16461357Y-16834429D02*
X16489928Y-16848714D01*
X16547071Y-16848714D01*
X16575643Y-16834429D01*
X16589928Y-16805857D01*
X16589928Y-16791572D01*
X16575643Y-16763000D01*
X16547071Y-16748714D01*
X16504214Y-16748714D01*
X16475643Y-16734429D01*
X16461357Y-16705857D01*
X16461357Y-16691571D01*
X16475643Y-16663000D01*
X16504214Y-16648714D01*
X16547071Y-16648714D01*
X16575643Y-16663000D01*
X16689928Y-16963000D02*
X16704214Y-16948714D01*
X16732786Y-16905857D01*
X16747071Y-16877286D01*
X16761357Y-16834429D01*
X16775643Y-16763000D01*
X16775643Y-16705857D01*
X16761357Y-16634429D01*
X16747071Y-16591571D01*
X16732786Y-16563000D01*
X16704214Y-16520143D01*
X16689928Y-16505857D01*
X17232786Y-16963000D02*
X17218500Y-16948714D01*
X17189928Y-16905857D01*
X17175643Y-16877286D01*
X17161357Y-16834429D01*
X17147071Y-16763000D01*
X17147071Y-16705857D01*
X17161357Y-16634429D01*
X17175643Y-16591571D01*
X17189928Y-16563000D01*
X17218500Y-16520143D01*
X17232786Y-16505857D01*
X17347071Y-16648714D02*
X17347071Y-16848714D01*
X17347071Y-16677286D02*
X17361357Y-16663000D01*
X17389928Y-16648714D01*
X17432786Y-16648714D01*
X17461357Y-16663000D01*
X17475643Y-16691571D01*
X17475643Y-16848714D01*
X17661357Y-16848714D02*
X17632786Y-16834429D01*
X17618500Y-16820143D01*
X17604214Y-16791572D01*
X17604214Y-16705857D01*
X17618500Y-16677286D01*
X17632786Y-16663000D01*
X17661357Y-16648714D01*
X17704214Y-16648714D01*
X17732786Y-16663000D01*
X17747071Y-16677286D01*
X17761357Y-16705857D01*
X17761357Y-16791572D01*
X17747071Y-16820143D01*
X17732786Y-16834429D01*
X17704214Y-16848714D01*
X17661357Y-16848714D01*
X17847071Y-16648714D02*
X17961357Y-16648714D01*
X17889929Y-16548714D02*
X17889929Y-16805857D01*
X17904214Y-16834429D01*
X17932786Y-16848714D01*
X17961357Y-16848714D01*
X18289929Y-16648714D02*
X18289929Y-16948714D01*
X18289929Y-16663000D02*
X18318500Y-16648714D01*
X18375643Y-16648714D01*
X18404214Y-16663000D01*
X18418500Y-16677286D01*
X18432786Y-16705857D01*
X18432786Y-16791572D01*
X18418500Y-16820143D01*
X18404214Y-16834429D01*
X18375643Y-16848714D01*
X18318500Y-16848714D01*
X18289929Y-16834429D01*
X18604214Y-16848714D02*
X18575643Y-16834429D01*
X18561357Y-16805857D01*
X18561357Y-16548714D01*
X18847071Y-16848714D02*
X18847071Y-16691571D01*
X18832786Y-16663000D01*
X18804214Y-16648714D01*
X18747071Y-16648714D01*
X18718500Y-16663000D01*
X18847071Y-16834429D02*
X18818500Y-16848714D01*
X18747071Y-16848714D01*
X18718500Y-16834429D01*
X18704214Y-16805857D01*
X18704214Y-16777286D01*
X18718500Y-16748714D01*
X18747071Y-16734429D01*
X18818500Y-16734429D01*
X18847071Y-16720143D01*
X18947071Y-16648714D02*
X19061357Y-16648714D01*
X18989929Y-16548714D02*
X18989929Y-16805857D01*
X19004214Y-16834429D01*
X19032786Y-16848714D01*
X19061357Y-16848714D01*
X19275643Y-16834429D02*
X19247072Y-16848714D01*
X19189929Y-16848714D01*
X19161357Y-16834429D01*
X19147072Y-16805857D01*
X19147072Y-16691571D01*
X19161357Y-16663000D01*
X19189929Y-16648714D01*
X19247072Y-16648714D01*
X19275643Y-16663000D01*
X19289929Y-16691571D01*
X19289929Y-16720143D01*
X19147072Y-16748714D01*
X19547072Y-16848714D02*
X19547072Y-16548714D01*
X19547072Y-16834429D02*
X19518500Y-16848714D01*
X19461357Y-16848714D01*
X19432786Y-16834429D01*
X19418500Y-16820143D01*
X19404214Y-16791572D01*
X19404214Y-16705857D01*
X19418500Y-16677286D01*
X19432786Y-16663000D01*
X19461357Y-16648714D01*
X19518500Y-16648714D01*
X19547072Y-16663000D01*
X19661357Y-16963000D02*
X19675643Y-16948714D01*
X19704214Y-16905857D01*
X19718500Y-16877286D01*
X19732786Y-16834429D01*
X19747072Y-16763000D01*
X19747072Y-16705857D01*
X19732786Y-16634429D01*
X19718500Y-16591571D01*
X19704214Y-16563000D01*
X19675643Y-16520143D01*
X19661357Y-16505857D01*
M02*
