G04 #@! TF.FileFunction,Legend,Bot*
%FSLAX46Y46*%
G04 Gerber Fmt 4.6, Leading zero omitted, Abs format (unit mm)*
G04 Created by KiCad (PCBNEW 4.0.7) date 03/02/18 17:19:26*
%MOMM*%
%LPD*%
G01*
G04 APERTURE LIST*
%ADD10C,0.100000*%
%ADD11C,0.120000*%
%ADD12C,0.150000*%
G04 APERTURE END LIST*
D10*
D11*
X166505000Y-162560000D02*
X166505000Y-158210000D01*
X166505000Y-158210000D02*
X161505000Y-158210000D01*
X161505000Y-158210000D02*
X161505000Y-162560000D01*
X167805000Y-156360000D02*
X168155000Y-156360000D01*
X168155000Y-156360000D02*
X168155000Y-154760000D01*
X168155000Y-154760000D02*
X169055000Y-154760000D01*
X169055000Y-154760000D02*
X169055000Y-162560000D01*
X169055000Y-162560000D02*
X158955000Y-162560000D01*
X158955000Y-162560000D02*
X158955000Y-154760000D01*
X158955000Y-154760000D02*
X159855000Y-154760000D01*
X159855000Y-154760000D02*
X159855000Y-156360000D01*
X159855000Y-156360000D02*
X160205000Y-156360000D01*
X169055000Y-156360000D02*
X168155000Y-156360000D01*
X158955000Y-156360000D02*
X159855000Y-156360000D01*
X168305000Y-158710000D02*
X168305000Y-160310000D01*
X168305000Y-160310000D02*
X167305000Y-160310000D01*
X167305000Y-160310000D02*
X167305000Y-158710000D01*
X167305000Y-158710000D02*
X168305000Y-158710000D01*
X159705000Y-158710000D02*
X159705000Y-160310000D01*
X159705000Y-160310000D02*
X160705000Y-160310000D01*
X160705000Y-160310000D02*
X160705000Y-158710000D01*
X160705000Y-158710000D02*
X159705000Y-158710000D01*
X167305000Y-160310000D02*
X167305000Y-162560000D01*
X167805000Y-160310000D02*
X167805000Y-162560000D01*
X167805000Y-156360000D02*
X167805000Y-155160000D01*
X177300000Y-162560000D02*
X177300000Y-158210000D01*
X177300000Y-158210000D02*
X172300000Y-158210000D01*
X172300000Y-158210000D02*
X172300000Y-162560000D01*
X178600000Y-156360000D02*
X178950000Y-156360000D01*
X178950000Y-156360000D02*
X178950000Y-154760000D01*
X178950000Y-154760000D02*
X179850000Y-154760000D01*
X179850000Y-154760000D02*
X179850000Y-162560000D01*
X179850000Y-162560000D02*
X169750000Y-162560000D01*
X169750000Y-162560000D02*
X169750000Y-154760000D01*
X169750000Y-154760000D02*
X170650000Y-154760000D01*
X170650000Y-154760000D02*
X170650000Y-156360000D01*
X170650000Y-156360000D02*
X171000000Y-156360000D01*
X179850000Y-156360000D02*
X178950000Y-156360000D01*
X169750000Y-156360000D02*
X170650000Y-156360000D01*
X179100000Y-158710000D02*
X179100000Y-160310000D01*
X179100000Y-160310000D02*
X178100000Y-160310000D01*
X178100000Y-160310000D02*
X178100000Y-158710000D01*
X178100000Y-158710000D02*
X179100000Y-158710000D01*
X170500000Y-158710000D02*
X170500000Y-160310000D01*
X170500000Y-160310000D02*
X171500000Y-160310000D01*
X171500000Y-160310000D02*
X171500000Y-158710000D01*
X171500000Y-158710000D02*
X170500000Y-158710000D01*
X178100000Y-160310000D02*
X178100000Y-162560000D01*
X178600000Y-160310000D02*
X178600000Y-162560000D01*
X178600000Y-156360000D02*
X178600000Y-155160000D01*
X155710000Y-162560000D02*
X155710000Y-158210000D01*
X155710000Y-158210000D02*
X152710000Y-158210000D01*
X152710000Y-158210000D02*
X152710000Y-162560000D01*
X157010000Y-156360000D02*
X157360000Y-156360000D01*
X157360000Y-156360000D02*
X157360000Y-154760000D01*
X157360000Y-154760000D02*
X158260000Y-154760000D01*
X158260000Y-154760000D02*
X158260000Y-162560000D01*
X158260000Y-162560000D02*
X150160000Y-162560000D01*
X150160000Y-162560000D02*
X150160000Y-154760000D01*
X150160000Y-154760000D02*
X151060000Y-154760000D01*
X151060000Y-154760000D02*
X151060000Y-156360000D01*
X151060000Y-156360000D02*
X151410000Y-156360000D01*
X158260000Y-156360000D02*
X157360000Y-156360000D01*
X150160000Y-156360000D02*
X151060000Y-156360000D01*
X157510000Y-158710000D02*
X157510000Y-160310000D01*
X157510000Y-160310000D02*
X156510000Y-160310000D01*
X156510000Y-160310000D02*
X156510000Y-158710000D01*
X156510000Y-158710000D02*
X157510000Y-158710000D01*
X150910000Y-158710000D02*
X150910000Y-160310000D01*
X150910000Y-160310000D02*
X151910000Y-160310000D01*
X151910000Y-160310000D02*
X151910000Y-158710000D01*
X151910000Y-158710000D02*
X150910000Y-158710000D01*
X156510000Y-160310000D02*
X156510000Y-162560000D01*
X157010000Y-160310000D02*
X157010000Y-162560000D01*
X157010000Y-156360000D02*
X157010000Y-155160000D01*
X130310000Y-162560000D02*
X130310000Y-158210000D01*
X130310000Y-158210000D02*
X127310000Y-158210000D01*
X127310000Y-158210000D02*
X127310000Y-162560000D01*
X131610000Y-156360000D02*
X131960000Y-156360000D01*
X131960000Y-156360000D02*
X131960000Y-154760000D01*
X131960000Y-154760000D02*
X132860000Y-154760000D01*
X132860000Y-154760000D02*
X132860000Y-162560000D01*
X132860000Y-162560000D02*
X124760000Y-162560000D01*
X124760000Y-162560000D02*
X124760000Y-154760000D01*
X124760000Y-154760000D02*
X125660000Y-154760000D01*
X125660000Y-154760000D02*
X125660000Y-156360000D01*
X125660000Y-156360000D02*
X126010000Y-156360000D01*
X132860000Y-156360000D02*
X131960000Y-156360000D01*
X124760000Y-156360000D02*
X125660000Y-156360000D01*
X132110000Y-158710000D02*
X132110000Y-160310000D01*
X132110000Y-160310000D02*
X131110000Y-160310000D01*
X131110000Y-160310000D02*
X131110000Y-158710000D01*
X131110000Y-158710000D02*
X132110000Y-158710000D01*
X125510000Y-158710000D02*
X125510000Y-160310000D01*
X125510000Y-160310000D02*
X126510000Y-160310000D01*
X126510000Y-160310000D02*
X126510000Y-158710000D01*
X126510000Y-158710000D02*
X125510000Y-158710000D01*
X131110000Y-160310000D02*
X131110000Y-162560000D01*
X131610000Y-160310000D02*
X131610000Y-162560000D01*
X131610000Y-156360000D02*
X131610000Y-155160000D01*
X141105000Y-162560000D02*
X141105000Y-158210000D01*
X141105000Y-158210000D02*
X136105000Y-158210000D01*
X136105000Y-158210000D02*
X136105000Y-162560000D01*
X142405000Y-156360000D02*
X142755000Y-156360000D01*
X142755000Y-156360000D02*
X142755000Y-154760000D01*
X142755000Y-154760000D02*
X143655000Y-154760000D01*
X143655000Y-154760000D02*
X143655000Y-162560000D01*
X143655000Y-162560000D02*
X133555000Y-162560000D01*
X133555000Y-162560000D02*
X133555000Y-154760000D01*
X133555000Y-154760000D02*
X134455000Y-154760000D01*
X134455000Y-154760000D02*
X134455000Y-156360000D01*
X134455000Y-156360000D02*
X134805000Y-156360000D01*
X143655000Y-156360000D02*
X142755000Y-156360000D01*
X133555000Y-156360000D02*
X134455000Y-156360000D01*
X142905000Y-158710000D02*
X142905000Y-160310000D01*
X142905000Y-160310000D02*
X141905000Y-160310000D01*
X141905000Y-160310000D02*
X141905000Y-158710000D01*
X141905000Y-158710000D02*
X142905000Y-158710000D01*
X134305000Y-158710000D02*
X134305000Y-160310000D01*
X134305000Y-160310000D02*
X135305000Y-160310000D01*
X135305000Y-160310000D02*
X135305000Y-158710000D01*
X135305000Y-158710000D02*
X134305000Y-158710000D01*
X141905000Y-160310000D02*
X141905000Y-162560000D01*
X142405000Y-160310000D02*
X142405000Y-162560000D01*
X142405000Y-156360000D02*
X142405000Y-155160000D01*
X107890000Y-154305000D02*
X107890000Y-136465000D01*
X107890000Y-136465000D02*
X110550000Y-136465000D01*
X110550000Y-136465000D02*
X110550000Y-154305000D01*
X110550000Y-154305000D02*
X107890000Y-154305000D01*
X107890000Y-155575000D02*
X107890000Y-156905000D01*
X107890000Y-156905000D02*
X109220000Y-156905000D01*
X132655000Y-63440000D02*
X137855000Y-63440000D01*
X132655000Y-111760000D02*
X132655000Y-63440000D01*
X137855000Y-114360000D02*
X137855000Y-63440000D01*
X132655000Y-111760000D02*
X135255000Y-111760000D01*
X135255000Y-111760000D02*
X135255000Y-114360000D01*
X135255000Y-114360000D02*
X137855000Y-114360000D01*
X132655000Y-113030000D02*
X132655000Y-114360000D01*
X132655000Y-114360000D02*
X133985000Y-114360000D01*
D12*
X166314523Y-153212381D02*
X166314523Y-153926667D01*
X166362143Y-154069524D01*
X166457381Y-154164762D01*
X166600238Y-154212381D01*
X166695476Y-154212381D01*
X165314523Y-154212381D02*
X165885952Y-154212381D01*
X165600238Y-154212381D02*
X165600238Y-153212381D01*
X165695476Y-153355238D01*
X165790714Y-153450476D01*
X165885952Y-153498095D01*
X164409761Y-153212381D02*
X164885952Y-153212381D01*
X164933571Y-153688571D01*
X164885952Y-153640952D01*
X164790714Y-153593333D01*
X164552618Y-153593333D01*
X164457380Y-153640952D01*
X164409761Y-153688571D01*
X164362142Y-153783810D01*
X164362142Y-154021905D01*
X164409761Y-154117143D01*
X164457380Y-154164762D01*
X164552618Y-154212381D01*
X164790714Y-154212381D01*
X164885952Y-154164762D01*
X164933571Y-154117143D01*
X177109523Y-153212381D02*
X177109523Y-153926667D01*
X177157143Y-154069524D01*
X177252381Y-154164762D01*
X177395238Y-154212381D01*
X177490476Y-154212381D01*
X176109523Y-154212381D02*
X176680952Y-154212381D01*
X176395238Y-154212381D02*
X176395238Y-153212381D01*
X176490476Y-153355238D01*
X176585714Y-153450476D01*
X176680952Y-153498095D01*
X175252380Y-153212381D02*
X175442857Y-153212381D01*
X175538095Y-153260000D01*
X175585714Y-153307619D01*
X175680952Y-153450476D01*
X175728571Y-153640952D01*
X175728571Y-154021905D01*
X175680952Y-154117143D01*
X175633333Y-154164762D01*
X175538095Y-154212381D01*
X175347618Y-154212381D01*
X175252380Y-154164762D01*
X175204761Y-154117143D01*
X175157142Y-154021905D01*
X175157142Y-153783810D01*
X175204761Y-153688571D01*
X175252380Y-153640952D01*
X175347618Y-153593333D01*
X175538095Y-153593333D01*
X175633333Y-153640952D01*
X175680952Y-153688571D01*
X175728571Y-153783810D01*
X155519523Y-153212381D02*
X155519523Y-153926667D01*
X155567143Y-154069524D01*
X155662381Y-154164762D01*
X155805238Y-154212381D01*
X155900476Y-154212381D01*
X154519523Y-154212381D02*
X155090952Y-154212381D01*
X154805238Y-154212381D02*
X154805238Y-153212381D01*
X154900476Y-153355238D01*
X154995714Y-153450476D01*
X155090952Y-153498095D01*
X154043333Y-154212381D02*
X153852857Y-154212381D01*
X153757618Y-154164762D01*
X153709999Y-154117143D01*
X153614761Y-153974286D01*
X153567142Y-153783810D01*
X153567142Y-153402857D01*
X153614761Y-153307619D01*
X153662380Y-153260000D01*
X153757618Y-153212381D01*
X153948095Y-153212381D01*
X154043333Y-153260000D01*
X154090952Y-153307619D01*
X154138571Y-153402857D01*
X154138571Y-153640952D01*
X154090952Y-153736190D01*
X154043333Y-153783810D01*
X153948095Y-153831429D01*
X153757618Y-153831429D01*
X153662380Y-153783810D01*
X153614761Y-153736190D01*
X153567142Y-153640952D01*
X130119523Y-153212381D02*
X130119523Y-153926667D01*
X130167143Y-154069524D01*
X130262381Y-154164762D01*
X130405238Y-154212381D01*
X130500476Y-154212381D01*
X129690952Y-153307619D02*
X129643333Y-153260000D01*
X129548095Y-153212381D01*
X129309999Y-153212381D01*
X129214761Y-153260000D01*
X129167142Y-153307619D01*
X129119523Y-153402857D01*
X129119523Y-153498095D01*
X129167142Y-153640952D01*
X129738571Y-154212381D01*
X129119523Y-154212381D01*
X128262380Y-153545714D02*
X128262380Y-154212381D01*
X128500476Y-153164762D02*
X128738571Y-153879048D01*
X128119523Y-153879048D01*
X140914523Y-153212381D02*
X140914523Y-153926667D01*
X140962143Y-154069524D01*
X141057381Y-154164762D01*
X141200238Y-154212381D01*
X141295476Y-154212381D01*
X140533571Y-153212381D02*
X139914523Y-153212381D01*
X140247857Y-153593333D01*
X140104999Y-153593333D01*
X140009761Y-153640952D01*
X139962142Y-153688571D01*
X139914523Y-153783810D01*
X139914523Y-154021905D01*
X139962142Y-154117143D01*
X140009761Y-154164762D01*
X140104999Y-154212381D01*
X140390714Y-154212381D01*
X140485952Y-154164762D01*
X140533571Y-154117143D01*
X138962142Y-154212381D02*
X139533571Y-154212381D01*
X139247857Y-154212381D02*
X139247857Y-153212381D01*
X139343095Y-153355238D01*
X139438333Y-153450476D01*
X139533571Y-153498095D01*
X110029523Y-157357381D02*
X110029523Y-158071667D01*
X110077143Y-158214524D01*
X110172381Y-158309762D01*
X110315238Y-158357381D01*
X110410476Y-158357381D01*
X109648571Y-157357381D02*
X109029523Y-157357381D01*
X109362857Y-157738333D01*
X109219999Y-157738333D01*
X109124761Y-157785952D01*
X109077142Y-157833571D01*
X109029523Y-157928810D01*
X109029523Y-158166905D01*
X109077142Y-158262143D01*
X109124761Y-158309762D01*
X109219999Y-158357381D01*
X109505714Y-158357381D01*
X109600952Y-158309762D01*
X109648571Y-158262143D01*
X108696190Y-157357381D02*
X108077142Y-157357381D01*
X108410476Y-157738333D01*
X108267618Y-157738333D01*
X108172380Y-157785952D01*
X108124761Y-157833571D01*
X108077142Y-157928810D01*
X108077142Y-158166905D01*
X108124761Y-158262143D01*
X108172380Y-158309762D01*
X108267618Y-158357381D01*
X108553333Y-158357381D01*
X108648571Y-158309762D01*
X108696190Y-158262143D01*
X136064523Y-114812381D02*
X136064523Y-115526667D01*
X136112143Y-115669524D01*
X136207381Y-115764762D01*
X136350238Y-115812381D01*
X136445476Y-115812381D01*
X135635952Y-114907619D02*
X135588333Y-114860000D01*
X135493095Y-114812381D01*
X135254999Y-114812381D01*
X135159761Y-114860000D01*
X135112142Y-114907619D01*
X135064523Y-115002857D01*
X135064523Y-115098095D01*
X135112142Y-115240952D01*
X135683571Y-115812381D01*
X135064523Y-115812381D01*
X134731190Y-114812381D02*
X134112142Y-114812381D01*
X134445476Y-115193333D01*
X134302618Y-115193333D01*
X134207380Y-115240952D01*
X134159761Y-115288571D01*
X134112142Y-115383810D01*
X134112142Y-115621905D01*
X134159761Y-115717143D01*
X134207380Y-115764762D01*
X134302618Y-115812381D01*
X134588333Y-115812381D01*
X134683571Y-115764762D01*
X134731190Y-115717143D01*
M02*
