M48
;DRILL file {KiCad 4.0.7} date 03/02/18 17:19:38
;FORMAT={-:-/ absolute / inch / decimal}
FMAT,2
INCH,TZ
T1C0.016
T2C0.028
T3C0.030
T4C0.031
T5C0.035
T6C0.039
T7C0.120
%
G90
G05
M72
T1
X4.2Y-2.675
X4.2Y-4.1
X4.2Y-4.375
X4.2Y-5.375
X4.225Y-4.625
X4.225Y-5.05
X4.25Y-4.45
X4.325Y-5.325
X4.4Y-5.475
X4.45Y-4.75
X4.55Y-2.7
X4.575Y-5.325
X4.75Y-4.625
X4.775Y-4.675
X4.8Y-4.725
X4.825Y-6.05
X4.85Y-4.75
X4.875Y-4.775
X4.9Y-6.05
X4.925Y-4.8
X4.95Y-5.75
X5.Y-3.85
X5.Y-4.
X5.075Y-5.225
X5.075Y-5.9
X5.25Y-5.825
X5.3Y-5.2
X5.325Y-5.175
X5.325Y-5.9
X5.375Y-5.175
X5.375Y-5.875
X5.4Y-4.525
X5.45Y-4.825
X5.45Y-5.125
X5.5Y-4.75
X5.5Y-5.05
X5.725Y-4.125
X6.075Y-5.9
X6.125Y-5.525
X6.15Y-4.85
X6.25Y-5.475
X6.375Y-5.225
X6.425Y-5.2
X6.475Y-5.175
X6.65Y-5.925
X6.65Y-6.
X6.675Y-5.2
T2
X4.225Y-4.85
X4.225Y-4.95
X4.225Y-5.125
X4.225Y-5.225
X4.35Y-2.375
X4.425Y-4.85
X4.425Y-4.95
X4.425Y-5.125
X4.425Y-5.225
X4.65Y-2.375
X6.325Y-5.925
X6.4Y-6.025
X6.525Y-5.925
X6.6Y-6.025
X6.75Y-5.925
X6.825Y-6.025
X6.95Y-5.925
X7.025Y-6.025
T3
X4.1Y-2.225
X4.1Y-2.3037
X4.1Y-2.5
X4.1Y-2.5787
X4.1Y-3.825
X4.1Y-3.9037
X4.1Y-4.1
X4.1Y-4.1787
X4.1Y-4.35
X4.1Y-4.4287
X4.1Y-4.5075
X4.1Y-4.7
X4.1Y-4.7787
X4.1Y-4.8575
X4.1Y-4.9362
X4.1Y-5.125
X4.1Y-5.2037
X4.1Y-5.2825
X4.1Y-5.3612
X4.1Y-5.55
X4.1Y-5.6287
X4.1Y-5.7075
X4.1Y-5.7862
X4.9925Y-6.15
X5.0713Y-6.15
X5.15Y-6.15
X5.3388Y-6.15
X5.4175Y-6.15
X5.4963Y-6.15
X5.575Y-6.15
X5.9925Y-6.15
X6.0713Y-6.15
X6.15Y-6.15
X6.3388Y-6.15
X6.4175Y-6.15
X6.4963Y-6.15
X6.575Y-6.15
X6.7638Y-6.15
X6.8425Y-6.15
X6.9213Y-6.15
X7.Y-6.15
T4
X4.35Y-2.65
X4.35Y-3.375
X4.4031Y-4.025
X4.4031Y-4.15
X4.4531Y-2.525
X4.4531Y-3.25
X4.6Y-4.025
X4.6Y-4.15
X4.65Y-2.525
X4.65Y-2.65
X4.65Y-3.25
X4.65Y-3.375
T5
X4.35Y-2.225
X4.45Y-2.225
T6
X4.1Y-2.8
X4.1Y-2.925
X4.2Y-2.8
X4.2Y-2.925
X4.3Y-5.425
X4.3Y-5.525
X4.3Y-5.625
X4.3Y-5.725
X4.3Y-5.825
X4.3Y-5.925
X4.3Y-6.025
X4.3Y-6.125
X4.4Y-3.55
X4.4Y-3.65
X4.4Y-3.75
X4.425Y-2.825
X4.425Y-2.925
X4.425Y-3.025
X4.425Y-4.35
X4.425Y-4.45
X4.425Y-4.55
X4.525Y-5.65
X4.525Y-5.75
X4.525Y-5.85
X4.525Y-5.95
X4.525Y-6.05
X4.525Y-6.15
X4.625Y-5.65
X4.625Y-5.75
X4.625Y-5.85
X4.625Y-5.95
X4.625Y-6.05
X4.625Y-6.15
X4.725Y-5.65
X4.725Y-5.75
X4.725Y-5.85
X4.725Y-5.95
X4.725Y-6.05
X4.725Y-6.15
X4.975Y-6.025
X5.075Y-2.55
X5.075Y-2.65
X5.075Y-2.75
X5.075Y-2.85
X5.075Y-2.95
X5.075Y-3.05
X5.075Y-3.15
X5.075Y-3.25
X5.075Y-3.4
X5.075Y-3.5
X5.075Y-3.6
X5.075Y-3.7
X5.075Y-3.8
X5.075Y-3.9
X5.075Y-4.
X5.075Y-4.1
X5.075Y-4.3
X5.075Y-4.4
X5.075Y-4.5
X5.075Y-4.6
X5.075Y-4.7
X5.075Y-4.8
X5.075Y-4.9
X5.075Y-5.
X5.075Y-5.3
X5.075Y-5.4
X5.075Y-6.025
X5.175Y-5.3
X5.175Y-5.4
X5.175Y-6.025
X5.275Y-2.55
X5.275Y-2.65
X5.275Y-2.75
X5.275Y-2.85
X5.275Y-2.95
X5.275Y-3.05
X5.275Y-3.15
X5.275Y-3.25
X5.275Y-3.35
X5.275Y-3.45
X5.275Y-3.55
X5.275Y-3.65
X5.275Y-3.75
X5.275Y-3.85
X5.275Y-3.95
X5.275Y-4.05
X5.275Y-4.15
X5.275Y-4.25
X5.275Y-4.35
X5.275Y-4.45
X5.275Y-5.3
X5.275Y-5.4
X5.325Y-6.025
X5.375Y-2.55
X5.375Y-2.65
X5.375Y-2.75
X5.375Y-2.85
X5.375Y-2.95
X5.375Y-3.05
X5.375Y-3.15
X5.375Y-3.25
X5.375Y-3.35
X5.375Y-3.45
X5.375Y-3.55
X5.375Y-3.65
X5.375Y-3.75
X5.375Y-3.85
X5.375Y-3.95
X5.375Y-4.05
X5.375Y-4.15
X5.375Y-4.25
X5.375Y-4.35
X5.375Y-4.45
X5.375Y-5.3
X5.375Y-5.4
X5.425Y-6.025
X5.475Y-5.3
X5.475Y-5.4
X5.525Y-6.025
X5.575Y-5.3
X5.575Y-5.4
X5.675Y-5.3
X5.675Y-5.4
X5.675Y-6.025
X5.775Y-5.3
X5.775Y-5.4
X5.775Y-6.025
X5.875Y-5.3
X5.875Y-5.4
X5.875Y-6.025
X5.975Y-5.3
X5.975Y-5.4
X6.025Y-6.025
X6.075Y-5.3
X6.075Y-5.4
X6.125Y-6.025
X6.175Y-5.3
X6.175Y-5.4
X6.225Y-6.025
X6.275Y-5.3
X6.275Y-5.4
X6.375Y-5.3
X6.375Y-5.4
X6.475Y-5.3
X6.475Y-5.4
X6.575Y-5.3
X6.575Y-5.4
X6.675Y-5.3
X6.675Y-5.4
X6.775Y-5.3
X6.775Y-5.4
X6.975Y-2.7
X6.975Y-2.8
X6.975Y-2.9
X6.975Y-3.
X6.975Y-3.1
X6.975Y-3.2
X6.975Y-3.3
X6.975Y-3.4
X6.975Y-3.6
X6.975Y-3.7
X6.975Y-3.8
X6.975Y-3.9
X6.975Y-4.
X6.975Y-4.1
X6.975Y-4.2
X6.975Y-4.3
X6.975Y-4.5
X6.975Y-4.6
X6.975Y-4.7
X6.975Y-4.8
X6.975Y-4.9
X6.975Y-5.
X6.975Y-5.1
X6.975Y-5.2
T7
X5.425Y-5.725
X5.725Y-5.725
X6.025Y-5.725
X6.325Y-5.725
X6.625Y-5.725
X6.925Y-5.725
T0
M30
