G04 #@! TF.FileFunction,Legend,Top*
%FSLAX46Y46*%
G04 Gerber Fmt 4.6, Leading zero omitted, Abs format (unit mm)*
G04 Created by KiCad (PCBNEW 4.0.7) date 09/14/18 14:53:24*
%MOMM*%
%LPD*%
G01*
G04 APERTURE LIST*
%ADD10C,0.100000*%
%ADD11C,0.300000*%
%ADD12C,0.120000*%
%ADD13C,0.150000*%
G04 APERTURE END LIST*
D10*
D11*
X94246429Y-105382143D02*
X94460715Y-105453571D01*
X94817858Y-105453571D01*
X94960715Y-105382143D01*
X95032144Y-105310714D01*
X95103572Y-105167857D01*
X95103572Y-105025000D01*
X95032144Y-104882143D01*
X94960715Y-104810714D01*
X94817858Y-104739286D01*
X94532144Y-104667857D01*
X94389286Y-104596429D01*
X94317858Y-104525000D01*
X94246429Y-104382143D01*
X94246429Y-104239286D01*
X94317858Y-104096429D01*
X94389286Y-104025000D01*
X94532144Y-103953571D01*
X94889286Y-103953571D01*
X95103572Y-104025000D01*
X95746429Y-104667857D02*
X96246429Y-104667857D01*
X96460715Y-105453571D02*
X95746429Y-105453571D01*
X95746429Y-103953571D01*
X96460715Y-103953571D01*
X97960715Y-105453571D02*
X97460715Y-104739286D01*
X97103572Y-105453571D02*
X97103572Y-103953571D01*
X97675000Y-103953571D01*
X97817858Y-104025000D01*
X97889286Y-104096429D01*
X97960715Y-104239286D01*
X97960715Y-104453571D01*
X97889286Y-104596429D01*
X97817858Y-104667857D01*
X97675000Y-104739286D01*
X97103572Y-104739286D01*
X98603572Y-105453571D02*
X98603572Y-103953571D01*
X99246429Y-105025000D02*
X99960715Y-105025000D01*
X99103572Y-105453571D02*
X99603572Y-103953571D01*
X100103572Y-105453571D01*
X101317858Y-105453571D02*
X100603572Y-105453571D01*
X100603572Y-103953571D01*
X101746429Y-104096429D02*
X101817858Y-104025000D01*
X101960715Y-103953571D01*
X102317858Y-103953571D01*
X102460715Y-104025000D01*
X102532144Y-104096429D01*
X102603572Y-104239286D01*
X102603572Y-104382143D01*
X102532144Y-104596429D01*
X101675001Y-105453571D01*
X102603572Y-105453571D01*
X102603571Y-48287857D02*
X102389285Y-48216429D01*
X102032142Y-48216429D01*
X101889285Y-48287857D01*
X101817856Y-48359286D01*
X101746428Y-48502143D01*
X101746428Y-48645000D01*
X101817856Y-48787857D01*
X101889285Y-48859286D01*
X102032142Y-48930714D01*
X102317856Y-49002143D01*
X102460714Y-49073571D01*
X102532142Y-49145000D01*
X102603571Y-49287857D01*
X102603571Y-49430714D01*
X102532142Y-49573571D01*
X102460714Y-49645000D01*
X102317856Y-49716429D01*
X101960714Y-49716429D01*
X101746428Y-49645000D01*
X101103571Y-49002143D02*
X100603571Y-49002143D01*
X100389285Y-48216429D02*
X101103571Y-48216429D01*
X101103571Y-49716429D01*
X100389285Y-49716429D01*
X98889285Y-48216429D02*
X99389285Y-48930714D01*
X99746428Y-48216429D02*
X99746428Y-49716429D01*
X99175000Y-49716429D01*
X99032142Y-49645000D01*
X98960714Y-49573571D01*
X98889285Y-49430714D01*
X98889285Y-49216429D01*
X98960714Y-49073571D01*
X99032142Y-49002143D01*
X99175000Y-48930714D01*
X99746428Y-48930714D01*
X98246428Y-48216429D02*
X98246428Y-49716429D01*
X97603571Y-48645000D02*
X96889285Y-48645000D01*
X97746428Y-48216429D02*
X97246428Y-49716429D01*
X96746428Y-48216429D01*
X95532142Y-48216429D02*
X96246428Y-48216429D01*
X96246428Y-49716429D01*
X94246428Y-48216429D02*
X95103571Y-48216429D01*
X94674999Y-48216429D02*
X94674999Y-49716429D01*
X94817856Y-49502143D01*
X94960714Y-49359286D01*
X95103571Y-49287857D01*
X105025000Y-87748572D02*
X105025000Y-87034286D01*
X105453571Y-87891429D02*
X103953571Y-87391429D01*
X105453571Y-86891429D01*
X105453571Y-86391429D02*
X103953571Y-86391429D01*
X105453571Y-85534286D01*
X103953571Y-85534286D01*
X105025000Y-84891429D02*
X105025000Y-84177143D01*
X105453571Y-85034286D02*
X103953571Y-84534286D01*
X105453571Y-84034286D01*
X105453571Y-82820000D02*
X105453571Y-83534286D01*
X103953571Y-83534286D01*
X103953571Y-82034286D02*
X103953571Y-81748572D01*
X104025000Y-81605714D01*
X104167857Y-81462857D01*
X104453571Y-81391429D01*
X104953571Y-81391429D01*
X105239286Y-81462857D01*
X105382143Y-81605714D01*
X105453571Y-81748572D01*
X105453571Y-82034286D01*
X105382143Y-82177143D01*
X105239286Y-82320000D01*
X104953571Y-82391429D01*
X104453571Y-82391429D01*
X104167857Y-82320000D01*
X104025000Y-82177143D01*
X103953571Y-82034286D01*
X104025000Y-79962857D02*
X103953571Y-80105714D01*
X103953571Y-80320000D01*
X104025000Y-80534285D01*
X104167857Y-80677143D01*
X104310714Y-80748571D01*
X104596429Y-80820000D01*
X104810714Y-80820000D01*
X105096429Y-80748571D01*
X105239286Y-80677143D01*
X105382143Y-80534285D01*
X105453571Y-80320000D01*
X105453571Y-80177143D01*
X105382143Y-79962857D01*
X105310714Y-79891428D01*
X104810714Y-79891428D01*
X104810714Y-80177143D01*
X107993571Y-62424285D02*
X106493571Y-62424285D01*
X106636429Y-61781428D02*
X106565000Y-61709999D01*
X106493571Y-61567142D01*
X106493571Y-61209999D01*
X106565000Y-61067142D01*
X106636429Y-60995713D01*
X106779286Y-60924285D01*
X106922143Y-60924285D01*
X107136429Y-60995713D01*
X107993571Y-61852856D01*
X107993571Y-60924285D01*
X107850714Y-59424285D02*
X107922143Y-59495714D01*
X107993571Y-59710000D01*
X107993571Y-59852857D01*
X107922143Y-60067142D01*
X107779286Y-60210000D01*
X107636429Y-60281428D01*
X107350714Y-60352857D01*
X107136429Y-60352857D01*
X106850714Y-60281428D01*
X106707857Y-60210000D01*
X106565000Y-60067142D01*
X106493571Y-59852857D01*
X106493571Y-59710000D01*
X106565000Y-59495714D01*
X106636429Y-59424285D01*
X79438572Y-65512143D02*
X80581429Y-65512143D01*
X80010000Y-66083571D02*
X80010000Y-64940714D01*
X79438572Y-59162143D02*
X80581429Y-59162143D01*
X81129286Y-95293571D02*
X81129286Y-93793571D01*
X81843572Y-95293571D02*
X81843572Y-93793571D01*
X82700715Y-95293571D01*
X82700715Y-93793571D01*
X77240000Y-86808571D02*
X77525714Y-86808571D01*
X77668572Y-86880000D01*
X77811429Y-87022857D01*
X77882857Y-87308571D01*
X77882857Y-87808571D01*
X77811429Y-88094286D01*
X77668572Y-88237143D01*
X77525714Y-88308571D01*
X77240000Y-88308571D01*
X77097143Y-88237143D01*
X76954286Y-88094286D01*
X76882857Y-87808571D01*
X76882857Y-87308571D01*
X76954286Y-87022857D01*
X77097143Y-86880000D01*
X77240000Y-86808571D01*
X78525715Y-86808571D02*
X78525715Y-88022857D01*
X78597143Y-88165714D01*
X78668572Y-88237143D01*
X78811429Y-88308571D01*
X79097143Y-88308571D01*
X79240001Y-88237143D01*
X79311429Y-88165714D01*
X79382858Y-88022857D01*
X79382858Y-86808571D01*
X79882858Y-86808571D02*
X80740001Y-86808571D01*
X80311430Y-88308571D02*
X80311430Y-86808571D01*
D12*
X112776000Y-105410000D02*
G75*
G03X112776000Y-105410000I-2286000J0D01*
G01*
X89916000Y-105410000D02*
G75*
G03X89916000Y-105410000I-2286000J0D01*
G01*
X89916000Y-47625000D02*
G75*
G03X89916000Y-47625000I-2286000J0D01*
G01*
X112776000Y-47625000D02*
G75*
G03X112776000Y-47625000I-2286000J0D01*
G01*
X95600000Y-68545000D02*
X94900000Y-68545000D01*
X94900000Y-67345000D02*
X95600000Y-67345000D01*
X94965000Y-93945000D02*
X94265000Y-93945000D01*
X94265000Y-92745000D02*
X94965000Y-92745000D01*
X78140000Y-74010000D02*
X78140000Y-73310000D01*
X79340000Y-73310000D02*
X79340000Y-74010000D01*
X94900000Y-58455000D02*
X95600000Y-58455000D01*
X95600000Y-59655000D02*
X94900000Y-59655000D01*
X94265000Y-83855000D02*
X94965000Y-83855000D01*
X94965000Y-85055000D02*
X94265000Y-85055000D01*
X93770000Y-74000000D02*
X91650000Y-74000000D01*
X93770000Y-77200000D02*
X93770000Y-74000000D01*
X91650000Y-74000000D02*
X91650000Y-77200000D01*
X93915000Y-98750000D02*
X93915000Y-98420000D01*
X93915000Y-98420000D02*
X102935000Y-98420000D01*
X102935000Y-98420000D02*
X102935000Y-98750000D01*
X93915000Y-101910000D02*
X93915000Y-102240000D01*
X93915000Y-102240000D02*
X102935000Y-102240000D01*
X102935000Y-102240000D02*
X102935000Y-101910000D01*
X95310000Y-98420000D02*
X95310000Y-102240000D01*
X116840000Y-58555000D02*
X112490000Y-58555000D01*
X112490000Y-58555000D02*
X112490000Y-53555000D01*
X112490000Y-53555000D02*
X116840000Y-53555000D01*
X110640000Y-59855000D02*
X110640000Y-60205000D01*
X110640000Y-60205000D02*
X109040000Y-60205000D01*
X109040000Y-60205000D02*
X109040000Y-61105000D01*
X109040000Y-61105000D02*
X116840000Y-61105000D01*
X116840000Y-61105000D02*
X116840000Y-51005000D01*
X116840000Y-51005000D02*
X109040000Y-51005000D01*
X109040000Y-51005000D02*
X109040000Y-51905000D01*
X109040000Y-51905000D02*
X110640000Y-51905000D01*
X110640000Y-51905000D02*
X110640000Y-52255000D01*
X110640000Y-61105000D02*
X110640000Y-60205000D01*
X110640000Y-51005000D02*
X110640000Y-51905000D01*
X112990000Y-60355000D02*
X114590000Y-60355000D01*
X114590000Y-60355000D02*
X114590000Y-59355000D01*
X114590000Y-59355000D02*
X112990000Y-59355000D01*
X112990000Y-59355000D02*
X112990000Y-60355000D01*
X112990000Y-51755000D02*
X114590000Y-51755000D01*
X114590000Y-51755000D02*
X114590000Y-52755000D01*
X114590000Y-52755000D02*
X112990000Y-52755000D01*
X112990000Y-52755000D02*
X112990000Y-51755000D01*
X114590000Y-59355000D02*
X116840000Y-59355000D01*
X114590000Y-59855000D02*
X116840000Y-59855000D01*
X110640000Y-59855000D02*
X109440000Y-59855000D01*
X116840000Y-68715000D02*
X112490000Y-68715000D01*
X112490000Y-68715000D02*
X112490000Y-63715000D01*
X112490000Y-63715000D02*
X116840000Y-63715000D01*
X110640000Y-70015000D02*
X110640000Y-70365000D01*
X110640000Y-70365000D02*
X109040000Y-70365000D01*
X109040000Y-70365000D02*
X109040000Y-71265000D01*
X109040000Y-71265000D02*
X116840000Y-71265000D01*
X116840000Y-71265000D02*
X116840000Y-61165000D01*
X116840000Y-61165000D02*
X109040000Y-61165000D01*
X109040000Y-61165000D02*
X109040000Y-62065000D01*
X109040000Y-62065000D02*
X110640000Y-62065000D01*
X110640000Y-62065000D02*
X110640000Y-62415000D01*
X110640000Y-71265000D02*
X110640000Y-70365000D01*
X110640000Y-61165000D02*
X110640000Y-62065000D01*
X112990000Y-70515000D02*
X114590000Y-70515000D01*
X114590000Y-70515000D02*
X114590000Y-69515000D01*
X114590000Y-69515000D02*
X112990000Y-69515000D01*
X112990000Y-69515000D02*
X112990000Y-70515000D01*
X112990000Y-61915000D02*
X114590000Y-61915000D01*
X114590000Y-61915000D02*
X114590000Y-62915000D01*
X114590000Y-62915000D02*
X112990000Y-62915000D01*
X112990000Y-62915000D02*
X112990000Y-61915000D01*
X114590000Y-69515000D02*
X116840000Y-69515000D01*
X114590000Y-70015000D02*
X116840000Y-70015000D01*
X110640000Y-70015000D02*
X109440000Y-70015000D01*
X114300000Y-93480000D02*
X109950000Y-93480000D01*
X109950000Y-93480000D02*
X109950000Y-90480000D01*
X109950000Y-90480000D02*
X114300000Y-90480000D01*
X108100000Y-94780000D02*
X108100000Y-95130000D01*
X108100000Y-95130000D02*
X106500000Y-95130000D01*
X106500000Y-95130000D02*
X106500000Y-96030000D01*
X106500000Y-96030000D02*
X114300000Y-96030000D01*
X114300000Y-96030000D02*
X114300000Y-87930000D01*
X114300000Y-87930000D02*
X106500000Y-87930000D01*
X106500000Y-87930000D02*
X106500000Y-88830000D01*
X106500000Y-88830000D02*
X108100000Y-88830000D01*
X108100000Y-88830000D02*
X108100000Y-89180000D01*
X108100000Y-96030000D02*
X108100000Y-95130000D01*
X108100000Y-87930000D02*
X108100000Y-88830000D01*
X110450000Y-95280000D02*
X112050000Y-95280000D01*
X112050000Y-95280000D02*
X112050000Y-94280000D01*
X112050000Y-94280000D02*
X110450000Y-94280000D01*
X110450000Y-94280000D02*
X110450000Y-95280000D01*
X110450000Y-88680000D02*
X112050000Y-88680000D01*
X112050000Y-88680000D02*
X112050000Y-89680000D01*
X112050000Y-89680000D02*
X110450000Y-89680000D01*
X110450000Y-89680000D02*
X110450000Y-88680000D01*
X112050000Y-94280000D02*
X114300000Y-94280000D01*
X112050000Y-94780000D02*
X114300000Y-94780000D01*
X108100000Y-94780000D02*
X106900000Y-94780000D01*
X114300000Y-85225000D02*
X109950000Y-85225000D01*
X109950000Y-85225000D02*
X109950000Y-82225000D01*
X109950000Y-82225000D02*
X114300000Y-82225000D01*
X108100000Y-86525000D02*
X108100000Y-86875000D01*
X108100000Y-86875000D02*
X106500000Y-86875000D01*
X106500000Y-86875000D02*
X106500000Y-87775000D01*
X106500000Y-87775000D02*
X114300000Y-87775000D01*
X114300000Y-87775000D02*
X114300000Y-79675000D01*
X114300000Y-79675000D02*
X106500000Y-79675000D01*
X106500000Y-79675000D02*
X106500000Y-80575000D01*
X106500000Y-80575000D02*
X108100000Y-80575000D01*
X108100000Y-80575000D02*
X108100000Y-80925000D01*
X108100000Y-87775000D02*
X108100000Y-86875000D01*
X108100000Y-79675000D02*
X108100000Y-80575000D01*
X110450000Y-87025000D02*
X112050000Y-87025000D01*
X112050000Y-87025000D02*
X112050000Y-86025000D01*
X112050000Y-86025000D02*
X110450000Y-86025000D01*
X110450000Y-86025000D02*
X110450000Y-87025000D01*
X110450000Y-80425000D02*
X112050000Y-80425000D01*
X112050000Y-80425000D02*
X112050000Y-81425000D01*
X112050000Y-81425000D02*
X110450000Y-81425000D01*
X110450000Y-81425000D02*
X110450000Y-80425000D01*
X112050000Y-86025000D02*
X114300000Y-86025000D01*
X112050000Y-86525000D02*
X114300000Y-86525000D01*
X108100000Y-86525000D02*
X106900000Y-86525000D01*
X114300000Y-76970000D02*
X109950000Y-76970000D01*
X109950000Y-76970000D02*
X109950000Y-73970000D01*
X109950000Y-73970000D02*
X114300000Y-73970000D01*
X108100000Y-78270000D02*
X108100000Y-78620000D01*
X108100000Y-78620000D02*
X106500000Y-78620000D01*
X106500000Y-78620000D02*
X106500000Y-79520000D01*
X106500000Y-79520000D02*
X114300000Y-79520000D01*
X114300000Y-79520000D02*
X114300000Y-71420000D01*
X114300000Y-71420000D02*
X106500000Y-71420000D01*
X106500000Y-71420000D02*
X106500000Y-72320000D01*
X106500000Y-72320000D02*
X108100000Y-72320000D01*
X108100000Y-72320000D02*
X108100000Y-72670000D01*
X108100000Y-79520000D02*
X108100000Y-78620000D01*
X108100000Y-71420000D02*
X108100000Y-72320000D01*
X110450000Y-78770000D02*
X112050000Y-78770000D01*
X112050000Y-78770000D02*
X112050000Y-77770000D01*
X112050000Y-77770000D02*
X110450000Y-77770000D01*
X110450000Y-77770000D02*
X110450000Y-78770000D01*
X110450000Y-72170000D02*
X112050000Y-72170000D01*
X112050000Y-72170000D02*
X112050000Y-73170000D01*
X112050000Y-73170000D02*
X110450000Y-73170000D01*
X110450000Y-73170000D02*
X110450000Y-72170000D01*
X112050000Y-77770000D02*
X114300000Y-77770000D01*
X112050000Y-78270000D02*
X114300000Y-78270000D01*
X108100000Y-78270000D02*
X106900000Y-78270000D01*
X101100000Y-39370000D02*
X101100000Y-43720000D01*
X101100000Y-43720000D02*
X96100000Y-43720000D01*
X96100000Y-43720000D02*
X96100000Y-39370000D01*
X102400000Y-45570000D02*
X102750000Y-45570000D01*
X102750000Y-45570000D02*
X102750000Y-47170000D01*
X102750000Y-47170000D02*
X103650000Y-47170000D01*
X103650000Y-47170000D02*
X103650000Y-39370000D01*
X103650000Y-39370000D02*
X93550000Y-39370000D01*
X93550000Y-39370000D02*
X93550000Y-47170000D01*
X93550000Y-47170000D02*
X94450000Y-47170000D01*
X94450000Y-47170000D02*
X94450000Y-45570000D01*
X94450000Y-45570000D02*
X94800000Y-45570000D01*
X103650000Y-45570000D02*
X102750000Y-45570000D01*
X93550000Y-45570000D02*
X94450000Y-45570000D01*
X102900000Y-43220000D02*
X102900000Y-41620000D01*
X102900000Y-41620000D02*
X101900000Y-41620000D01*
X101900000Y-41620000D02*
X101900000Y-43220000D01*
X101900000Y-43220000D02*
X102900000Y-43220000D01*
X94300000Y-43220000D02*
X94300000Y-41620000D01*
X94300000Y-41620000D02*
X95300000Y-41620000D01*
X95300000Y-41620000D02*
X95300000Y-43220000D01*
X95300000Y-43220000D02*
X94300000Y-43220000D01*
X101900000Y-41620000D02*
X101900000Y-39370000D01*
X102400000Y-41620000D02*
X102400000Y-39370000D01*
X102400000Y-45570000D02*
X102400000Y-46770000D01*
X95750000Y-113665000D02*
X95750000Y-109315000D01*
X95750000Y-109315000D02*
X100750000Y-109315000D01*
X100750000Y-109315000D02*
X100750000Y-113665000D01*
X94450000Y-107465000D02*
X94100000Y-107465000D01*
X94100000Y-107465000D02*
X94100000Y-105865000D01*
X94100000Y-105865000D02*
X93200000Y-105865000D01*
X93200000Y-105865000D02*
X93200000Y-113665000D01*
X93200000Y-113665000D02*
X103300000Y-113665000D01*
X103300000Y-113665000D02*
X103300000Y-105865000D01*
X103300000Y-105865000D02*
X102400000Y-105865000D01*
X102400000Y-105865000D02*
X102400000Y-107465000D01*
X102400000Y-107465000D02*
X102050000Y-107465000D01*
X93200000Y-107465000D02*
X94100000Y-107465000D01*
X103300000Y-107465000D02*
X102400000Y-107465000D01*
X93950000Y-109815000D02*
X93950000Y-111415000D01*
X93950000Y-111415000D02*
X94950000Y-111415000D01*
X94950000Y-111415000D02*
X94950000Y-109815000D01*
X94950000Y-109815000D02*
X93950000Y-109815000D01*
X102550000Y-109815000D02*
X102550000Y-111415000D01*
X102550000Y-111415000D02*
X101550000Y-111415000D01*
X101550000Y-111415000D02*
X101550000Y-109815000D01*
X101550000Y-109815000D02*
X102550000Y-109815000D01*
X94950000Y-111415000D02*
X94950000Y-113665000D01*
X94450000Y-111415000D02*
X94450000Y-113665000D01*
X94450000Y-107465000D02*
X94450000Y-106265000D01*
X82610000Y-59630000D02*
X79950000Y-59630000D01*
X82610000Y-62230000D02*
X82610000Y-59630000D01*
X79950000Y-62230000D02*
X79950000Y-59630000D01*
X82610000Y-62230000D02*
X79950000Y-62230000D01*
X82610000Y-63500000D02*
X82610000Y-64830000D01*
X82610000Y-64830000D02*
X81280000Y-64830000D01*
X80070000Y-59630000D02*
X77410000Y-59630000D01*
X80070000Y-62230000D02*
X80070000Y-59630000D01*
X77410000Y-62230000D02*
X77410000Y-59630000D01*
X80070000Y-62230000D02*
X77410000Y-62230000D01*
X80070000Y-63500000D02*
X80070000Y-64830000D01*
X80070000Y-64830000D02*
X78740000Y-64830000D01*
X78060000Y-79240000D02*
X78060000Y-78240000D01*
X79420000Y-78240000D02*
X79420000Y-79240000D01*
X99065000Y-66910000D02*
X99065000Y-65650000D01*
X99065000Y-60090000D02*
X99065000Y-61350000D01*
X95305000Y-66910000D02*
X99065000Y-66910000D01*
X93055000Y-60090000D02*
X99065000Y-60090000D01*
X99065000Y-92310000D02*
X99065000Y-91050000D01*
X99065000Y-85490000D02*
X99065000Y-86750000D01*
X95305000Y-92310000D02*
X99065000Y-92310000D01*
X93055000Y-85490000D02*
X99065000Y-85490000D01*
X83900000Y-71080000D02*
X83900000Y-81320000D01*
X79259000Y-71080000D02*
X79259000Y-81320000D01*
X83900000Y-71080000D02*
X79259000Y-71080000D01*
X83900000Y-81320000D02*
X79259000Y-81320000D01*
X82390000Y-71080000D02*
X82390000Y-81320000D01*
X83900000Y-74350000D02*
X82390000Y-74350000D01*
X83900000Y-78051000D02*
X82390000Y-78051000D01*
D13*
X101135000Y-81275000D02*
X101135000Y-81250000D01*
X96985000Y-81275000D02*
X96985000Y-81170000D01*
X96985000Y-71125000D02*
X96985000Y-71230000D01*
X101135000Y-71125000D02*
X101135000Y-71230000D01*
X101135000Y-81275000D02*
X96985000Y-81275000D01*
X101135000Y-71125000D02*
X96985000Y-71125000D01*
X101135000Y-81250000D02*
X102510000Y-81250000D01*
D12*
X80585000Y-93405000D02*
X83245000Y-93405000D01*
X80585000Y-90805000D02*
X80585000Y-93405000D01*
X83245000Y-90805000D02*
X83245000Y-93405000D01*
X80585000Y-90805000D02*
X83245000Y-90805000D01*
X80585000Y-89535000D02*
X80585000Y-88205000D01*
X80585000Y-88205000D02*
X81915000Y-88205000D01*
X77410000Y-93405000D02*
X80070000Y-93405000D01*
X77410000Y-90805000D02*
X77410000Y-93405000D01*
X80070000Y-90805000D02*
X80070000Y-93405000D01*
X77410000Y-90805000D02*
X80070000Y-90805000D01*
X77410000Y-89535000D02*
X77410000Y-88205000D01*
X77410000Y-88205000D02*
X78740000Y-88205000D01*
X90110000Y-58480000D02*
X92770000Y-58480000D01*
X90110000Y-53340000D02*
X90110000Y-58480000D01*
X92770000Y-53340000D02*
X92770000Y-58480000D01*
X90110000Y-53340000D02*
X92770000Y-53340000D01*
X90110000Y-52070000D02*
X90110000Y-50740000D01*
X90110000Y-50740000D02*
X91440000Y-50740000D01*
X92650000Y-58480000D02*
X95310000Y-58480000D01*
X92650000Y-53340000D02*
X92650000Y-58480000D01*
X95310000Y-53340000D02*
X95310000Y-58480000D01*
X92650000Y-53340000D02*
X95310000Y-53340000D01*
X92650000Y-52070000D02*
X92650000Y-50740000D01*
X92650000Y-50740000D02*
X93980000Y-50740000D01*
X95190000Y-58480000D02*
X97850000Y-58480000D01*
X95190000Y-53340000D02*
X95190000Y-58480000D01*
X97850000Y-53340000D02*
X97850000Y-58480000D01*
X95190000Y-53340000D02*
X97850000Y-53340000D01*
X95190000Y-52070000D02*
X95190000Y-50740000D01*
X95190000Y-50740000D02*
X96520000Y-50740000D01*
X97730000Y-58480000D02*
X100390000Y-58480000D01*
X97730000Y-53340000D02*
X97730000Y-58480000D01*
X100390000Y-53340000D02*
X100390000Y-58480000D01*
X97730000Y-53340000D02*
X100390000Y-53340000D01*
X97730000Y-52070000D02*
X97730000Y-50740000D01*
X97730000Y-50740000D02*
X99060000Y-50740000D01*
X100270000Y-58480000D02*
X102930000Y-58480000D01*
X100270000Y-53340000D02*
X100270000Y-58480000D01*
X102930000Y-53340000D02*
X102930000Y-58480000D01*
X100270000Y-53340000D02*
X102930000Y-53340000D01*
X100270000Y-52070000D02*
X100270000Y-50740000D01*
X100270000Y-50740000D02*
X101600000Y-50740000D01*
X102810000Y-58480000D02*
X105470000Y-58480000D01*
X102810000Y-53340000D02*
X102810000Y-58480000D01*
X105470000Y-53340000D02*
X105470000Y-58480000D01*
X102810000Y-53340000D02*
X105470000Y-53340000D01*
X102810000Y-52070000D02*
X102810000Y-50740000D01*
X102810000Y-50740000D02*
X104140000Y-50740000D01*
X105350000Y-58480000D02*
X108010000Y-58480000D01*
X105350000Y-53340000D02*
X105350000Y-58480000D01*
X108010000Y-53340000D02*
X108010000Y-58480000D01*
X105350000Y-53340000D02*
X108010000Y-53340000D01*
X105350000Y-52070000D02*
X105350000Y-50740000D01*
X105350000Y-50740000D02*
X106680000Y-50740000D01*
D13*
X109156667Y-105862381D02*
X108823333Y-105386190D01*
X108585238Y-105862381D02*
X108585238Y-104862381D01*
X108966191Y-104862381D01*
X109061429Y-104910000D01*
X109109048Y-104957619D01*
X109156667Y-105052857D01*
X109156667Y-105195714D01*
X109109048Y-105290952D01*
X109061429Y-105338571D01*
X108966191Y-105386190D01*
X108585238Y-105386190D01*
X109585238Y-105338571D02*
X109918572Y-105338571D01*
X110061429Y-105862381D02*
X109585238Y-105862381D01*
X109585238Y-104862381D01*
X110061429Y-104862381D01*
X110823334Y-105338571D02*
X110490000Y-105338571D01*
X110490000Y-105862381D02*
X110490000Y-104862381D01*
X110966191Y-104862381D01*
X111490000Y-104862381D02*
X111490000Y-105100476D01*
X111251905Y-105005238D02*
X111490000Y-105100476D01*
X111728096Y-105005238D01*
X111347143Y-105290952D02*
X111490000Y-105100476D01*
X111632858Y-105290952D01*
X112251905Y-104862381D02*
X112251905Y-105100476D01*
X112013810Y-105005238D02*
X112251905Y-105100476D01*
X112490001Y-105005238D01*
X112109048Y-105290952D02*
X112251905Y-105100476D01*
X112394763Y-105290952D01*
X86296667Y-105862381D02*
X85963333Y-105386190D01*
X85725238Y-105862381D02*
X85725238Y-104862381D01*
X86106191Y-104862381D01*
X86201429Y-104910000D01*
X86249048Y-104957619D01*
X86296667Y-105052857D01*
X86296667Y-105195714D01*
X86249048Y-105290952D01*
X86201429Y-105338571D01*
X86106191Y-105386190D01*
X85725238Y-105386190D01*
X86725238Y-105338571D02*
X87058572Y-105338571D01*
X87201429Y-105862381D02*
X86725238Y-105862381D01*
X86725238Y-104862381D01*
X87201429Y-104862381D01*
X87963334Y-105338571D02*
X87630000Y-105338571D01*
X87630000Y-105862381D02*
X87630000Y-104862381D01*
X88106191Y-104862381D01*
X88630000Y-104862381D02*
X88630000Y-105100476D01*
X88391905Y-105005238D02*
X88630000Y-105100476D01*
X88868096Y-105005238D01*
X88487143Y-105290952D02*
X88630000Y-105100476D01*
X88772858Y-105290952D01*
X89391905Y-104862381D02*
X89391905Y-105100476D01*
X89153810Y-105005238D02*
X89391905Y-105100476D01*
X89630001Y-105005238D01*
X89249048Y-105290952D02*
X89391905Y-105100476D01*
X89534763Y-105290952D01*
X86296667Y-48077381D02*
X85963333Y-47601190D01*
X85725238Y-48077381D02*
X85725238Y-47077381D01*
X86106191Y-47077381D01*
X86201429Y-47125000D01*
X86249048Y-47172619D01*
X86296667Y-47267857D01*
X86296667Y-47410714D01*
X86249048Y-47505952D01*
X86201429Y-47553571D01*
X86106191Y-47601190D01*
X85725238Y-47601190D01*
X86725238Y-47553571D02*
X87058572Y-47553571D01*
X87201429Y-48077381D02*
X86725238Y-48077381D01*
X86725238Y-47077381D01*
X87201429Y-47077381D01*
X87963334Y-47553571D02*
X87630000Y-47553571D01*
X87630000Y-48077381D02*
X87630000Y-47077381D01*
X88106191Y-47077381D01*
X88630000Y-47077381D02*
X88630000Y-47315476D01*
X88391905Y-47220238D02*
X88630000Y-47315476D01*
X88868096Y-47220238D01*
X88487143Y-47505952D02*
X88630000Y-47315476D01*
X88772858Y-47505952D01*
X89391905Y-47077381D02*
X89391905Y-47315476D01*
X89153810Y-47220238D02*
X89391905Y-47315476D01*
X89630001Y-47220238D01*
X89249048Y-47505952D02*
X89391905Y-47315476D01*
X89534763Y-47505952D01*
X109156667Y-48077381D02*
X108823333Y-47601190D01*
X108585238Y-48077381D02*
X108585238Y-47077381D01*
X108966191Y-47077381D01*
X109061429Y-47125000D01*
X109109048Y-47172619D01*
X109156667Y-47267857D01*
X109156667Y-47410714D01*
X109109048Y-47505952D01*
X109061429Y-47553571D01*
X108966191Y-47601190D01*
X108585238Y-47601190D01*
X109585238Y-47553571D02*
X109918572Y-47553571D01*
X110061429Y-48077381D02*
X109585238Y-48077381D01*
X109585238Y-47077381D01*
X110061429Y-47077381D01*
X110823334Y-47553571D02*
X110490000Y-47553571D01*
X110490000Y-48077381D02*
X110490000Y-47077381D01*
X110966191Y-47077381D01*
X111490000Y-47077381D02*
X111490000Y-47315476D01*
X111251905Y-47220238D02*
X111490000Y-47315476D01*
X111728096Y-47220238D01*
X111347143Y-47505952D02*
X111490000Y-47315476D01*
X111632858Y-47505952D01*
X112251905Y-47077381D02*
X112251905Y-47315476D01*
X112013810Y-47220238D02*
X112251905Y-47315476D01*
X112490001Y-47220238D01*
X112109048Y-47505952D02*
X112251905Y-47315476D01*
X112394763Y-47505952D01*
X95083334Y-69572143D02*
X95035715Y-69619762D01*
X94892858Y-69667381D01*
X94797620Y-69667381D01*
X94654762Y-69619762D01*
X94559524Y-69524524D01*
X94511905Y-69429286D01*
X94464286Y-69238810D01*
X94464286Y-69095952D01*
X94511905Y-68905476D01*
X94559524Y-68810238D01*
X94654762Y-68715000D01*
X94797620Y-68667381D01*
X94892858Y-68667381D01*
X95035715Y-68715000D01*
X95083334Y-68762619D01*
X96035715Y-69667381D02*
X95464286Y-69667381D01*
X95750000Y-69667381D02*
X95750000Y-68667381D01*
X95654762Y-68810238D01*
X95559524Y-68905476D01*
X95464286Y-68953095D01*
X94448334Y-94972143D02*
X94400715Y-95019762D01*
X94257858Y-95067381D01*
X94162620Y-95067381D01*
X94019762Y-95019762D01*
X93924524Y-94924524D01*
X93876905Y-94829286D01*
X93829286Y-94638810D01*
X93829286Y-94495952D01*
X93876905Y-94305476D01*
X93924524Y-94210238D01*
X94019762Y-94115000D01*
X94162620Y-94067381D01*
X94257858Y-94067381D01*
X94400715Y-94115000D01*
X94448334Y-94162619D01*
X94829286Y-94162619D02*
X94876905Y-94115000D01*
X94972143Y-94067381D01*
X95210239Y-94067381D01*
X95305477Y-94115000D01*
X95353096Y-94162619D01*
X95400715Y-94257857D01*
X95400715Y-94353095D01*
X95353096Y-94495952D01*
X94781667Y-95067381D01*
X95400715Y-95067381D01*
X77827143Y-73826666D02*
X77874762Y-73874285D01*
X77922381Y-74017142D01*
X77922381Y-74112380D01*
X77874762Y-74255238D01*
X77779524Y-74350476D01*
X77684286Y-74398095D01*
X77493810Y-74445714D01*
X77350952Y-74445714D01*
X77160476Y-74398095D01*
X77065238Y-74350476D01*
X76970000Y-74255238D01*
X76922381Y-74112380D01*
X76922381Y-74017142D01*
X76970000Y-73874285D01*
X77017619Y-73826666D01*
X76922381Y-73493333D02*
X76922381Y-72874285D01*
X77303333Y-73207619D01*
X77303333Y-73064761D01*
X77350952Y-72969523D01*
X77398571Y-72921904D01*
X77493810Y-72874285D01*
X77731905Y-72874285D01*
X77827143Y-72921904D01*
X77874762Y-72969523D01*
X77922381Y-73064761D01*
X77922381Y-73350476D01*
X77874762Y-73445714D01*
X77827143Y-73493333D01*
X92543334Y-59412143D02*
X92495715Y-59459762D01*
X92352858Y-59507381D01*
X92257620Y-59507381D01*
X92114762Y-59459762D01*
X92019524Y-59364524D01*
X91971905Y-59269286D01*
X91924286Y-59078810D01*
X91924286Y-58935952D01*
X91971905Y-58745476D01*
X92019524Y-58650238D01*
X92114762Y-58555000D01*
X92257620Y-58507381D01*
X92352858Y-58507381D01*
X92495715Y-58555000D01*
X92543334Y-58602619D01*
X93400477Y-58840714D02*
X93400477Y-59507381D01*
X93162381Y-58459762D02*
X92924286Y-59174048D01*
X93543334Y-59174048D01*
X94448334Y-83542143D02*
X94400715Y-83589762D01*
X94257858Y-83637381D01*
X94162620Y-83637381D01*
X94019762Y-83589762D01*
X93924524Y-83494524D01*
X93876905Y-83399286D01*
X93829286Y-83208810D01*
X93829286Y-83065952D01*
X93876905Y-82875476D01*
X93924524Y-82780238D01*
X94019762Y-82685000D01*
X94162620Y-82637381D01*
X94257858Y-82637381D01*
X94400715Y-82685000D01*
X94448334Y-82732619D01*
X95353096Y-82637381D02*
X94876905Y-82637381D01*
X94829286Y-83113571D01*
X94876905Y-83065952D01*
X94972143Y-83018333D01*
X95210239Y-83018333D01*
X95305477Y-83065952D01*
X95353096Y-83113571D01*
X95400715Y-83208810D01*
X95400715Y-83446905D01*
X95353096Y-83542143D01*
X95305477Y-83589762D01*
X95210239Y-83637381D01*
X94972143Y-83637381D01*
X94876905Y-83589762D01*
X94829286Y-83542143D01*
X94962381Y-76938095D02*
X93962381Y-76938095D01*
X93962381Y-76700000D01*
X94010000Y-76557142D01*
X94105238Y-76461904D01*
X94200476Y-76414285D01*
X94390952Y-76366666D01*
X94533810Y-76366666D01*
X94724286Y-76414285D01*
X94819524Y-76461904D01*
X94914762Y-76557142D01*
X94962381Y-76700000D01*
X94962381Y-76938095D01*
X94962381Y-75414285D02*
X94962381Y-75985714D01*
X94962381Y-75700000D02*
X93962381Y-75700000D01*
X94105238Y-75795238D01*
X94200476Y-75890476D01*
X94248095Y-75985714D01*
X97686905Y-100782381D02*
X97686905Y-99782381D01*
X97925000Y-99782381D01*
X98067858Y-99830000D01*
X98163096Y-99925238D01*
X98210715Y-100020476D01*
X98258334Y-100210952D01*
X98258334Y-100353810D01*
X98210715Y-100544286D01*
X98163096Y-100639524D01*
X98067858Y-100734762D01*
X97925000Y-100782381D01*
X97686905Y-100782381D01*
X99115477Y-100115714D02*
X99115477Y-100782381D01*
X98877381Y-99734762D02*
X98639286Y-100449048D01*
X99258334Y-100449048D01*
X79676667Y-47077381D02*
X79676667Y-47791667D01*
X79629047Y-47934524D01*
X79533809Y-48029762D01*
X79390952Y-48077381D01*
X79295714Y-48077381D01*
X80676667Y-48077381D02*
X80105238Y-48077381D01*
X80390952Y-48077381D02*
X80390952Y-47077381D01*
X80295714Y-47220238D01*
X80200476Y-47315476D01*
X80105238Y-47363095D01*
X79676667Y-104862381D02*
X79676667Y-105576667D01*
X79629047Y-105719524D01*
X79533809Y-105814762D01*
X79390952Y-105862381D01*
X79295714Y-105862381D01*
X80200476Y-105862381D02*
X80390952Y-105862381D01*
X80486191Y-105814762D01*
X80533810Y-105767143D01*
X80629048Y-105624286D01*
X80676667Y-105433810D01*
X80676667Y-105052857D01*
X80629048Y-104957619D01*
X80581429Y-104910000D01*
X80486191Y-104862381D01*
X80295714Y-104862381D01*
X80200476Y-104910000D01*
X80152857Y-104957619D01*
X80105238Y-105052857D01*
X80105238Y-105290952D01*
X80152857Y-105386190D01*
X80200476Y-105433810D01*
X80295714Y-105481429D01*
X80486191Y-105481429D01*
X80581429Y-105433810D01*
X80629048Y-105386190D01*
X80676667Y-105290952D01*
X109942381Y-56689523D02*
X110656667Y-56689523D01*
X110799524Y-56737143D01*
X110894762Y-56832381D01*
X110942381Y-56975238D01*
X110942381Y-57070476D01*
X110942381Y-55689523D02*
X110942381Y-56260952D01*
X110942381Y-55975238D02*
X109942381Y-55975238D01*
X110085238Y-56070476D01*
X110180476Y-56165714D01*
X110228095Y-56260952D01*
X109942381Y-54832380D02*
X109942381Y-55022857D01*
X109990000Y-55118095D01*
X110037619Y-55165714D01*
X110180476Y-55260952D01*
X110370952Y-55308571D01*
X110751905Y-55308571D01*
X110847143Y-55260952D01*
X110894762Y-55213333D01*
X110942381Y-55118095D01*
X110942381Y-54927618D01*
X110894762Y-54832380D01*
X110847143Y-54784761D01*
X110751905Y-54737142D01*
X110513810Y-54737142D01*
X110418571Y-54784761D01*
X110370952Y-54832380D01*
X110323333Y-54927618D01*
X110323333Y-55118095D01*
X110370952Y-55213333D01*
X110418571Y-55260952D01*
X110513810Y-55308571D01*
X109942381Y-66849523D02*
X110656667Y-66849523D01*
X110799524Y-66897143D01*
X110894762Y-66992381D01*
X110942381Y-67135238D01*
X110942381Y-67230476D01*
X110942381Y-65849523D02*
X110942381Y-66420952D01*
X110942381Y-66135238D02*
X109942381Y-66135238D01*
X110085238Y-66230476D01*
X110180476Y-66325714D01*
X110228095Y-66420952D01*
X110370952Y-65278095D02*
X110323333Y-65373333D01*
X110275714Y-65420952D01*
X110180476Y-65468571D01*
X110132857Y-65468571D01*
X110037619Y-65420952D01*
X109990000Y-65373333D01*
X109942381Y-65278095D01*
X109942381Y-65087618D01*
X109990000Y-64992380D01*
X110037619Y-64944761D01*
X110132857Y-64897142D01*
X110180476Y-64897142D01*
X110275714Y-64944761D01*
X110323333Y-64992380D01*
X110370952Y-65087618D01*
X110370952Y-65278095D01*
X110418571Y-65373333D01*
X110466190Y-65420952D01*
X110561429Y-65468571D01*
X110751905Y-65468571D01*
X110847143Y-65420952D01*
X110894762Y-65373333D01*
X110942381Y-65278095D01*
X110942381Y-65087618D01*
X110894762Y-64992380D01*
X110847143Y-64944761D01*
X110751905Y-64897142D01*
X110561429Y-64897142D01*
X110466190Y-64944761D01*
X110418571Y-64992380D01*
X110370952Y-65087618D01*
X107402381Y-92884523D02*
X108116667Y-92884523D01*
X108259524Y-92932143D01*
X108354762Y-93027381D01*
X108402381Y-93170238D01*
X108402381Y-93265476D01*
X108402381Y-91884523D02*
X108402381Y-92455952D01*
X108402381Y-92170238D02*
X107402381Y-92170238D01*
X107545238Y-92265476D01*
X107640476Y-92360714D01*
X107688095Y-92455952D01*
X108402381Y-91408333D02*
X108402381Y-91217857D01*
X108354762Y-91122618D01*
X108307143Y-91074999D01*
X108164286Y-90979761D01*
X107973810Y-90932142D01*
X107592857Y-90932142D01*
X107497619Y-90979761D01*
X107450000Y-91027380D01*
X107402381Y-91122618D01*
X107402381Y-91313095D01*
X107450000Y-91408333D01*
X107497619Y-91455952D01*
X107592857Y-91503571D01*
X107830952Y-91503571D01*
X107926190Y-91455952D01*
X107973810Y-91408333D01*
X108021429Y-91313095D01*
X108021429Y-91122618D01*
X107973810Y-91027380D01*
X107926190Y-90979761D01*
X107830952Y-90932142D01*
X107402381Y-84629523D02*
X108116667Y-84629523D01*
X108259524Y-84677143D01*
X108354762Y-84772381D01*
X108402381Y-84915238D01*
X108402381Y-85010476D01*
X107497619Y-84200952D02*
X107450000Y-84153333D01*
X107402381Y-84058095D01*
X107402381Y-83819999D01*
X107450000Y-83724761D01*
X107497619Y-83677142D01*
X107592857Y-83629523D01*
X107688095Y-83629523D01*
X107830952Y-83677142D01*
X108402381Y-84248571D01*
X108402381Y-83629523D01*
X107402381Y-83010476D02*
X107402381Y-82915237D01*
X107450000Y-82819999D01*
X107497619Y-82772380D01*
X107592857Y-82724761D01*
X107783333Y-82677142D01*
X108021429Y-82677142D01*
X108211905Y-82724761D01*
X108307143Y-82772380D01*
X108354762Y-82819999D01*
X108402381Y-82915237D01*
X108402381Y-83010476D01*
X108354762Y-83105714D01*
X108307143Y-83153333D01*
X108211905Y-83200952D01*
X108021429Y-83248571D01*
X107783333Y-83248571D01*
X107592857Y-83200952D01*
X107497619Y-83153333D01*
X107450000Y-83105714D01*
X107402381Y-83010476D01*
X107402381Y-76374523D02*
X108116667Y-76374523D01*
X108259524Y-76422143D01*
X108354762Y-76517381D01*
X108402381Y-76660238D01*
X108402381Y-76755476D01*
X107497619Y-75945952D02*
X107450000Y-75898333D01*
X107402381Y-75803095D01*
X107402381Y-75564999D01*
X107450000Y-75469761D01*
X107497619Y-75422142D01*
X107592857Y-75374523D01*
X107688095Y-75374523D01*
X107830952Y-75422142D01*
X108402381Y-75993571D01*
X108402381Y-75374523D01*
X107735714Y-74517380D02*
X108402381Y-74517380D01*
X107354762Y-74755476D02*
X108069048Y-74993571D01*
X108069048Y-74374523D01*
X97615477Y-45172381D02*
X97615477Y-45886667D01*
X97567857Y-46029524D01*
X97472619Y-46124762D01*
X97329762Y-46172381D01*
X97234524Y-46172381D01*
X97996429Y-45172381D02*
X98615477Y-45172381D01*
X98282143Y-45553333D01*
X98425001Y-45553333D01*
X98520239Y-45600952D01*
X98567858Y-45648571D01*
X98615477Y-45743810D01*
X98615477Y-45981905D01*
X98567858Y-46077143D01*
X98520239Y-46124762D01*
X98425001Y-46172381D01*
X98139286Y-46172381D01*
X98044048Y-46124762D01*
X97996429Y-46077143D01*
X99567858Y-46172381D02*
X98996429Y-46172381D01*
X99282143Y-46172381D02*
X99282143Y-45172381D01*
X99186905Y-45315238D01*
X99091667Y-45410476D01*
X98996429Y-45458095D01*
X97615477Y-106767381D02*
X97615477Y-107481667D01*
X97567857Y-107624524D01*
X97472619Y-107719762D01*
X97329762Y-107767381D01*
X97234524Y-107767381D01*
X97996429Y-106767381D02*
X98615477Y-106767381D01*
X98282143Y-107148333D01*
X98425001Y-107148333D01*
X98520239Y-107195952D01*
X98567858Y-107243571D01*
X98615477Y-107338810D01*
X98615477Y-107576905D01*
X98567858Y-107672143D01*
X98520239Y-107719762D01*
X98425001Y-107767381D01*
X98139286Y-107767381D01*
X98044048Y-107719762D01*
X97996429Y-107672143D01*
X98996429Y-106862619D02*
X99044048Y-106815000D01*
X99139286Y-106767381D01*
X99377382Y-106767381D01*
X99472620Y-106815000D01*
X99520239Y-106862619D01*
X99567858Y-106957857D01*
X99567858Y-107053095D01*
X99520239Y-107195952D01*
X98948810Y-107767381D01*
X99567858Y-107767381D01*
X80470477Y-62952381D02*
X80470477Y-63666667D01*
X80422857Y-63809524D01*
X80327619Y-63904762D01*
X80184762Y-63952381D01*
X80089524Y-63952381D01*
X80851429Y-62952381D02*
X81470477Y-62952381D01*
X81137143Y-63333333D01*
X81280001Y-63333333D01*
X81375239Y-63380952D01*
X81422858Y-63428571D01*
X81470477Y-63523810D01*
X81470477Y-63761905D01*
X81422858Y-63857143D01*
X81375239Y-63904762D01*
X81280001Y-63952381D01*
X80994286Y-63952381D01*
X80899048Y-63904762D01*
X80851429Y-63857143D01*
X82327620Y-62952381D02*
X82137143Y-62952381D01*
X82041905Y-63000000D01*
X81994286Y-63047619D01*
X81899048Y-63190476D01*
X81851429Y-63380952D01*
X81851429Y-63761905D01*
X81899048Y-63857143D01*
X81946667Y-63904762D01*
X82041905Y-63952381D01*
X82232382Y-63952381D01*
X82327620Y-63904762D01*
X82375239Y-63857143D01*
X82422858Y-63761905D01*
X82422858Y-63523810D01*
X82375239Y-63428571D01*
X82327620Y-63380952D01*
X82232382Y-63333333D01*
X82041905Y-63333333D01*
X81946667Y-63380952D01*
X81899048Y-63428571D01*
X81851429Y-63523810D01*
X77930477Y-62952381D02*
X77930477Y-63666667D01*
X77882857Y-63809524D01*
X77787619Y-63904762D01*
X77644762Y-63952381D01*
X77549524Y-63952381D01*
X78311429Y-62952381D02*
X78930477Y-62952381D01*
X78597143Y-63333333D01*
X78740001Y-63333333D01*
X78835239Y-63380952D01*
X78882858Y-63428571D01*
X78930477Y-63523810D01*
X78930477Y-63761905D01*
X78882858Y-63857143D01*
X78835239Y-63904762D01*
X78740001Y-63952381D01*
X78454286Y-63952381D01*
X78359048Y-63904762D01*
X78311429Y-63857143D01*
X79263810Y-62952381D02*
X79930477Y-62952381D01*
X79501905Y-63952381D01*
X77922381Y-78906666D02*
X77922381Y-79382857D01*
X76922381Y-79382857D01*
X77922381Y-78049523D02*
X77922381Y-78620952D01*
X77922381Y-78335238D02*
X76922381Y-78335238D01*
X77065238Y-78430476D01*
X77160476Y-78525714D01*
X77208095Y-78620952D01*
X96393095Y-62952381D02*
X96393095Y-63761905D01*
X96440714Y-63857143D01*
X96488333Y-63904762D01*
X96583571Y-63952381D01*
X96774048Y-63952381D01*
X96869286Y-63904762D01*
X96916905Y-63857143D01*
X96964524Y-63761905D01*
X96964524Y-62952381D01*
X97964524Y-63952381D02*
X97393095Y-63952381D01*
X97678809Y-63952381D02*
X97678809Y-62952381D01*
X97583571Y-63095238D01*
X97488333Y-63190476D01*
X97393095Y-63238095D01*
X96393095Y-88352381D02*
X96393095Y-89161905D01*
X96440714Y-89257143D01*
X96488333Y-89304762D01*
X96583571Y-89352381D01*
X96774048Y-89352381D01*
X96869286Y-89304762D01*
X96916905Y-89257143D01*
X96964524Y-89161905D01*
X96964524Y-88352381D01*
X97393095Y-88447619D02*
X97440714Y-88400000D01*
X97535952Y-88352381D01*
X97774048Y-88352381D01*
X97869286Y-88400000D01*
X97916905Y-88447619D01*
X97964524Y-88542857D01*
X97964524Y-88638095D01*
X97916905Y-88780952D01*
X97345476Y-89352381D01*
X97964524Y-89352381D01*
X80732381Y-76961905D02*
X81541905Y-76961905D01*
X81637143Y-76914286D01*
X81684762Y-76866667D01*
X81732381Y-76771429D01*
X81732381Y-76580952D01*
X81684762Y-76485714D01*
X81637143Y-76438095D01*
X81541905Y-76390476D01*
X80732381Y-76390476D01*
X80732381Y-76009524D02*
X80732381Y-75390476D01*
X81113333Y-75723810D01*
X81113333Y-75580952D01*
X81160952Y-75485714D01*
X81208571Y-75438095D01*
X81303810Y-75390476D01*
X81541905Y-75390476D01*
X81637143Y-75438095D01*
X81684762Y-75485714D01*
X81732381Y-75580952D01*
X81732381Y-75866667D01*
X81684762Y-75961905D01*
X81637143Y-76009524D01*
X98298095Y-75652381D02*
X98298095Y-76461905D01*
X98345714Y-76557143D01*
X98393333Y-76604762D01*
X98488571Y-76652381D01*
X98679048Y-76652381D01*
X98774286Y-76604762D01*
X98821905Y-76557143D01*
X98869524Y-76461905D01*
X98869524Y-75652381D01*
X99774286Y-75985714D02*
X99774286Y-76652381D01*
X99536190Y-75604762D02*
X99298095Y-76319048D01*
X99917143Y-76319048D01*
X81105477Y-88987381D02*
X81105477Y-89701667D01*
X81057857Y-89844524D01*
X80962619Y-89939762D01*
X80819762Y-89987381D01*
X80724524Y-89987381D01*
X81486429Y-88987381D02*
X82105477Y-88987381D01*
X81772143Y-89368333D01*
X81915001Y-89368333D01*
X82010239Y-89415952D01*
X82057858Y-89463571D01*
X82105477Y-89558810D01*
X82105477Y-89796905D01*
X82057858Y-89892143D01*
X82010239Y-89939762D01*
X81915001Y-89987381D01*
X81629286Y-89987381D01*
X81534048Y-89939762D01*
X81486429Y-89892143D01*
X82962620Y-89320714D02*
X82962620Y-89987381D01*
X82724524Y-88939762D02*
X82486429Y-89654048D01*
X83105477Y-89654048D01*
X77930477Y-88987381D02*
X77930477Y-89701667D01*
X77882857Y-89844524D01*
X77787619Y-89939762D01*
X77644762Y-89987381D01*
X77549524Y-89987381D01*
X78311429Y-88987381D02*
X78930477Y-88987381D01*
X78597143Y-89368333D01*
X78740001Y-89368333D01*
X78835239Y-89415952D01*
X78882858Y-89463571D01*
X78930477Y-89558810D01*
X78930477Y-89796905D01*
X78882858Y-89892143D01*
X78835239Y-89939762D01*
X78740001Y-89987381D01*
X78454286Y-89987381D01*
X78359048Y-89939762D01*
X78311429Y-89892143D01*
X79835239Y-88987381D02*
X79359048Y-88987381D01*
X79311429Y-89463571D01*
X79359048Y-89415952D01*
X79454286Y-89368333D01*
X79692382Y-89368333D01*
X79787620Y-89415952D01*
X79835239Y-89463571D01*
X79882858Y-89558810D01*
X79882858Y-89796905D01*
X79835239Y-89892143D01*
X79787620Y-89939762D01*
X79692382Y-89987381D01*
X79454286Y-89987381D01*
X79359048Y-89939762D01*
X79311429Y-89892143D01*
X91106667Y-51522381D02*
X91106667Y-52236667D01*
X91059047Y-52379524D01*
X90963809Y-52474762D01*
X90820952Y-52522381D01*
X90725714Y-52522381D01*
X91487619Y-51522381D02*
X92106667Y-51522381D01*
X91773333Y-51903333D01*
X91916191Y-51903333D01*
X92011429Y-51950952D01*
X92059048Y-51998571D01*
X92106667Y-52093810D01*
X92106667Y-52331905D01*
X92059048Y-52427143D01*
X92011429Y-52474762D01*
X91916191Y-52522381D01*
X91630476Y-52522381D01*
X91535238Y-52474762D01*
X91487619Y-52427143D01*
X93646667Y-51522381D02*
X93646667Y-52236667D01*
X93599047Y-52379524D01*
X93503809Y-52474762D01*
X93360952Y-52522381D01*
X93265714Y-52522381D01*
X94551429Y-51855714D02*
X94551429Y-52522381D01*
X94313333Y-51474762D02*
X94075238Y-52189048D01*
X94694286Y-52189048D01*
X96186667Y-51522381D02*
X96186667Y-52236667D01*
X96139047Y-52379524D01*
X96043809Y-52474762D01*
X95900952Y-52522381D01*
X95805714Y-52522381D01*
X97139048Y-51522381D02*
X96662857Y-51522381D01*
X96615238Y-51998571D01*
X96662857Y-51950952D01*
X96758095Y-51903333D01*
X96996191Y-51903333D01*
X97091429Y-51950952D01*
X97139048Y-51998571D01*
X97186667Y-52093810D01*
X97186667Y-52331905D01*
X97139048Y-52427143D01*
X97091429Y-52474762D01*
X96996191Y-52522381D01*
X96758095Y-52522381D01*
X96662857Y-52474762D01*
X96615238Y-52427143D01*
X98726667Y-51522381D02*
X98726667Y-52236667D01*
X98679047Y-52379524D01*
X98583809Y-52474762D01*
X98440952Y-52522381D01*
X98345714Y-52522381D01*
X99631429Y-51522381D02*
X99440952Y-51522381D01*
X99345714Y-51570000D01*
X99298095Y-51617619D01*
X99202857Y-51760476D01*
X99155238Y-51950952D01*
X99155238Y-52331905D01*
X99202857Y-52427143D01*
X99250476Y-52474762D01*
X99345714Y-52522381D01*
X99536191Y-52522381D01*
X99631429Y-52474762D01*
X99679048Y-52427143D01*
X99726667Y-52331905D01*
X99726667Y-52093810D01*
X99679048Y-51998571D01*
X99631429Y-51950952D01*
X99536191Y-51903333D01*
X99345714Y-51903333D01*
X99250476Y-51950952D01*
X99202857Y-51998571D01*
X99155238Y-52093810D01*
X101266667Y-51522381D02*
X101266667Y-52236667D01*
X101219047Y-52379524D01*
X101123809Y-52474762D01*
X100980952Y-52522381D01*
X100885714Y-52522381D01*
X101647619Y-51522381D02*
X102314286Y-51522381D01*
X101885714Y-52522381D01*
X103806667Y-51522381D02*
X103806667Y-52236667D01*
X103759047Y-52379524D01*
X103663809Y-52474762D01*
X103520952Y-52522381D01*
X103425714Y-52522381D01*
X104425714Y-51950952D02*
X104330476Y-51903333D01*
X104282857Y-51855714D01*
X104235238Y-51760476D01*
X104235238Y-51712857D01*
X104282857Y-51617619D01*
X104330476Y-51570000D01*
X104425714Y-51522381D01*
X104616191Y-51522381D01*
X104711429Y-51570000D01*
X104759048Y-51617619D01*
X104806667Y-51712857D01*
X104806667Y-51760476D01*
X104759048Y-51855714D01*
X104711429Y-51903333D01*
X104616191Y-51950952D01*
X104425714Y-51950952D01*
X104330476Y-51998571D01*
X104282857Y-52046190D01*
X104235238Y-52141429D01*
X104235238Y-52331905D01*
X104282857Y-52427143D01*
X104330476Y-52474762D01*
X104425714Y-52522381D01*
X104616191Y-52522381D01*
X104711429Y-52474762D01*
X104759048Y-52427143D01*
X104806667Y-52331905D01*
X104806667Y-52141429D01*
X104759048Y-52046190D01*
X104711429Y-51998571D01*
X104616191Y-51950952D01*
X105870477Y-51522381D02*
X105870477Y-52236667D01*
X105822857Y-52379524D01*
X105727619Y-52474762D01*
X105584762Y-52522381D01*
X105489524Y-52522381D01*
X106870477Y-52522381D02*
X106299048Y-52522381D01*
X106584762Y-52522381D02*
X106584762Y-51522381D01*
X106489524Y-51665238D01*
X106394286Y-51760476D01*
X106299048Y-51808095D01*
X107489524Y-51522381D02*
X107584763Y-51522381D01*
X107680001Y-51570000D01*
X107727620Y-51617619D01*
X107775239Y-51712857D01*
X107822858Y-51903333D01*
X107822858Y-52141429D01*
X107775239Y-52331905D01*
X107727620Y-52427143D01*
X107680001Y-52474762D01*
X107584763Y-52522381D01*
X107489524Y-52522381D01*
X107394286Y-52474762D01*
X107346667Y-52427143D01*
X107299048Y-52331905D01*
X107251429Y-52141429D01*
X107251429Y-51903333D01*
X107299048Y-51712857D01*
X107346667Y-51617619D01*
X107394286Y-51570000D01*
X107489524Y-51522381D01*
M02*
