G04 #@! TF.FileFunction,Copper,L1,Top,Signal*
%FSLAX46Y46*%
G04 Gerber Fmt 4.6, Leading zero omitted, Abs format (unit mm)*
G04 Created by KiCad (PCBNEW 4.0.7) date 09/14/18 14:53:24*
%MOMM*%
%LPD*%
G01*
G04 APERTURE LIST*
%ADD10C,0.100000*%
%ADD11C,4.064000*%
%ADD12R,0.800000X0.750000*%
%ADD13R,0.750000X0.800000*%
%ADD14R,1.600000X1.000000*%
%ADD15R,2.800000X2.800000*%
%ADD16O,2.800000X2.800000*%
%ADD17C,3.810000*%
%ADD18R,1.700000X1.700000*%
%ADD19O,1.700000X1.700000*%
%ADD20R,1.700000X1.200000*%
%ADD21O,1.700000X1.200000*%
%ADD22R,1.200000X1.700000*%
%ADD23O,1.200000X1.700000*%
%ADD24R,0.900000X0.500000*%
%ADD25R,2.000000X3.800000*%
%ADD26R,2.000000X1.500000*%
%ADD27R,1.800000X1.800000*%
%ADD28O,1.800000X1.800000*%
%ADD29R,1.500000X0.600000*%
%ADD30C,0.600000*%
%ADD31C,0.250000*%
%ADD32C,0.500000*%
G04 APERTURE END LIST*
D10*
D11*
X110490000Y-105410000D03*
X87630000Y-105410000D03*
X87630000Y-47625000D03*
X110490000Y-47625000D03*
D12*
X96000000Y-67945000D03*
X94500000Y-67945000D03*
X95365000Y-93345000D03*
X93865000Y-93345000D03*
D13*
X78740000Y-74410000D03*
X78740000Y-72910000D03*
D12*
X94500000Y-59055000D03*
X96000000Y-59055000D03*
X93865000Y-84455000D03*
X95365000Y-84455000D03*
D14*
X92710000Y-74700000D03*
X92710000Y-77700000D03*
D15*
X93345000Y-100330000D03*
D16*
X103505000Y-100330000D03*
D17*
X80010000Y-47625000D03*
X80010000Y-55245000D03*
X80010000Y-97790000D03*
X80010000Y-105410000D03*
D18*
X111125000Y-78105000D03*
D19*
X111125000Y-75565000D03*
X111125000Y-73025000D03*
D18*
X111125000Y-86360000D03*
D19*
X111125000Y-83820000D03*
X111125000Y-81280000D03*
D18*
X111125000Y-94615000D03*
D19*
X111125000Y-92075000D03*
X111125000Y-89535000D03*
D18*
X111125000Y-102235000D03*
D19*
X111125000Y-99695000D03*
X111125000Y-97155000D03*
D20*
X113030000Y-63500000D03*
D21*
X113030000Y-65500000D03*
X113030000Y-67500000D03*
X113030000Y-69500000D03*
D20*
X110490000Y-59055000D03*
D21*
X110490000Y-57055000D03*
X110490000Y-55055000D03*
X110490000Y-53055000D03*
D20*
X113030000Y-53340000D03*
D21*
X113030000Y-55340000D03*
X113030000Y-57340000D03*
X113030000Y-59340000D03*
D20*
X110490000Y-69215000D03*
D21*
X110490000Y-67215000D03*
X110490000Y-65215000D03*
X110490000Y-63215000D03*
D20*
X107950000Y-93980000D03*
D21*
X107950000Y-91980000D03*
X107950000Y-89980000D03*
D20*
X107950000Y-85725000D03*
D21*
X107950000Y-83725000D03*
X107950000Y-81725000D03*
D20*
X80645000Y-84455000D03*
D21*
X80645000Y-82455000D03*
D20*
X80645000Y-69850000D03*
D21*
X80645000Y-67850000D03*
D20*
X107950000Y-77470000D03*
D21*
X107950000Y-75470000D03*
X107950000Y-73470000D03*
D22*
X101600000Y-45720000D03*
D23*
X99600000Y-45720000D03*
X97600000Y-45720000D03*
X95600000Y-45720000D03*
D22*
X95250000Y-107315000D03*
D23*
X97250000Y-107315000D03*
X99250000Y-107315000D03*
X101250000Y-107315000D03*
D18*
X81280000Y-63500000D03*
D19*
X81280000Y-60960000D03*
D18*
X78740000Y-63500000D03*
D19*
X78740000Y-60960000D03*
D24*
X78740000Y-77990000D03*
X78740000Y-79490000D03*
D25*
X100305000Y-63500000D03*
D26*
X94005000Y-63500000D03*
X94005000Y-65800000D03*
X94005000Y-61200000D03*
D25*
X100305000Y-88900000D03*
D26*
X94005000Y-88900000D03*
X94005000Y-91200000D03*
X94005000Y-86600000D03*
D27*
X81280000Y-73660000D03*
D28*
X81280000Y-76200000D03*
X81280000Y-78740000D03*
D29*
X101760000Y-80645000D03*
X101760000Y-79375000D03*
X101760000Y-78105000D03*
X101760000Y-76835000D03*
X101760000Y-75565000D03*
X101760000Y-74295000D03*
X101760000Y-73025000D03*
X101760000Y-71755000D03*
X96360000Y-71755000D03*
X96360000Y-73025000D03*
X96360000Y-74295000D03*
X96360000Y-75565000D03*
X96360000Y-76835000D03*
X96360000Y-78105000D03*
X96360000Y-79375000D03*
X96360000Y-80645000D03*
D18*
X88900000Y-52070000D03*
D19*
X86360000Y-52070000D03*
X88900000Y-54610000D03*
X86360000Y-54610000D03*
X88900000Y-57150000D03*
X86360000Y-57150000D03*
X88900000Y-59690000D03*
X86360000Y-59690000D03*
X88900000Y-62230000D03*
X86360000Y-62230000D03*
X88900000Y-64770000D03*
X86360000Y-64770000D03*
X88900000Y-67310000D03*
X86360000Y-67310000D03*
X88900000Y-69850000D03*
X86360000Y-69850000D03*
X88900000Y-72390000D03*
X86360000Y-72390000D03*
X88900000Y-74930000D03*
X86360000Y-74930000D03*
X88900000Y-77470000D03*
X86360000Y-77470000D03*
X88900000Y-80010000D03*
X86360000Y-80010000D03*
X88900000Y-82550000D03*
X86360000Y-82550000D03*
X88900000Y-85090000D03*
X86360000Y-85090000D03*
X88900000Y-87630000D03*
X86360000Y-87630000D03*
X88900000Y-90170000D03*
X86360000Y-90170000D03*
X88900000Y-92710000D03*
X86360000Y-92710000D03*
X88900000Y-95250000D03*
X86360000Y-95250000D03*
X88900000Y-97790000D03*
X86360000Y-97790000D03*
X88900000Y-100330000D03*
X86360000Y-100330000D03*
D18*
X81915000Y-89535000D03*
D19*
X81915000Y-92075000D03*
D18*
X78740000Y-89535000D03*
D19*
X78740000Y-92075000D03*
D18*
X91440000Y-52070000D03*
D19*
X91440000Y-54610000D03*
X91440000Y-57150000D03*
D18*
X93980000Y-52070000D03*
D19*
X93980000Y-54610000D03*
X93980000Y-57150000D03*
D18*
X96520000Y-52070000D03*
D19*
X96520000Y-54610000D03*
X96520000Y-57150000D03*
D18*
X99060000Y-52070000D03*
D19*
X99060000Y-54610000D03*
X99060000Y-57150000D03*
D18*
X101600000Y-52070000D03*
D19*
X101600000Y-54610000D03*
X101600000Y-57150000D03*
D18*
X104140000Y-52070000D03*
D19*
X104140000Y-54610000D03*
X104140000Y-57150000D03*
D18*
X106680000Y-52070000D03*
D19*
X106680000Y-54610000D03*
X106680000Y-57150000D03*
D30*
X93345000Y-95250000D03*
X92075000Y-90170000D03*
X95885000Y-70485000D03*
X95885000Y-69215000D03*
X92075000Y-62230000D03*
X92075000Y-68580000D03*
X92710000Y-59690000D03*
X94615000Y-76835000D03*
X100330000Y-91440000D03*
X102235000Y-86995000D03*
X111760000Y-62230000D03*
X111760000Y-58420000D03*
X84455000Y-50165000D03*
X87630000Y-50800000D03*
X103505000Y-69850000D03*
X91440000Y-104140000D03*
X92075000Y-103505000D03*
X92710000Y-81280000D03*
X92710000Y-73025000D03*
X104775000Y-78740000D03*
X91440000Y-96520000D03*
X85090000Y-83820000D03*
X84455000Y-67945000D03*
D31*
X94005000Y-63500000D02*
X85725000Y-63500000D01*
X85090000Y-55880000D02*
X86360000Y-54610000D01*
X85090000Y-62865000D02*
X85090000Y-55880000D01*
X85725000Y-63500000D02*
X85090000Y-62865000D01*
X96000000Y-61505000D02*
X98310000Y-61505000D01*
X98310000Y-61505000D02*
X100305000Y-63500000D01*
X96000000Y-59055000D02*
X96000000Y-61505000D01*
X96000000Y-61505000D02*
X94005000Y-63500000D01*
X88900000Y-100330000D02*
X90805000Y-98425000D01*
X98520000Y-108585000D02*
X97250000Y-107315000D01*
X103505000Y-108585000D02*
X98520000Y-108585000D01*
X106045000Y-106045000D02*
X103505000Y-108585000D01*
X106045000Y-99060000D02*
X106045000Y-106045000D01*
X105410000Y-98425000D02*
X106045000Y-99060000D01*
X90805000Y-98425000D02*
X105410000Y-98425000D01*
X80645000Y-84455000D02*
X81915000Y-84455000D01*
X83820000Y-86360000D02*
X93765000Y-86360000D01*
X81915000Y-84455000D02*
X83820000Y-86360000D01*
X93765000Y-86360000D02*
X94005000Y-86600000D01*
X80010000Y-97790000D02*
X83820000Y-97790000D01*
X87630000Y-99060000D02*
X88900000Y-100330000D01*
X85090000Y-99060000D02*
X87630000Y-99060000D01*
X83820000Y-97790000D02*
X85090000Y-99060000D01*
X94500000Y-59055000D02*
X93345000Y-59055000D01*
X93345000Y-59055000D02*
X92710000Y-59690000D01*
X93865000Y-84455000D02*
X93865000Y-86460000D01*
X93865000Y-86460000D02*
X94005000Y-86600000D01*
X96360000Y-78105000D02*
X95885000Y-78105000D01*
X95885000Y-78105000D02*
X93865000Y-80125000D01*
X93865000Y-80125000D02*
X93865000Y-84455000D01*
X94005000Y-86600000D02*
X92470000Y-86600000D01*
X93345000Y-95250000D02*
X95250000Y-93345000D01*
X92075000Y-86995000D02*
X92075000Y-90170000D01*
X92470000Y-86600000D02*
X92075000Y-86995000D01*
X95250000Y-93345000D02*
X95365000Y-93345000D01*
X78740000Y-92075000D02*
X78740000Y-96520000D01*
X78740000Y-96520000D02*
X80010000Y-97790000D01*
X78740000Y-74410000D02*
X79260000Y-74410000D01*
X80010000Y-70485000D02*
X80645000Y-69850000D01*
X80010000Y-73660000D02*
X80010000Y-70485000D01*
X79260000Y-74410000D02*
X80010000Y-73660000D01*
X96000000Y-68465000D02*
X96000000Y-69100000D01*
X96360000Y-70960000D02*
X96360000Y-71755000D01*
X95885000Y-70485000D02*
X96360000Y-70960000D01*
X96000000Y-69100000D02*
X95885000Y-69215000D01*
X96000000Y-67945000D02*
X96000000Y-68465000D01*
X92075000Y-62230000D02*
X93105000Y-61200000D01*
X92710000Y-69215000D02*
X92075000Y-68580000D01*
X95250000Y-69215000D02*
X92710000Y-69215000D01*
X96000000Y-68465000D02*
X95250000Y-69215000D01*
X93105000Y-61200000D02*
X94005000Y-61200000D01*
X92710000Y-59690000D02*
X94005000Y-60985000D01*
X94005000Y-60985000D02*
X94005000Y-61200000D01*
X114935000Y-67405000D02*
X114935000Y-57245000D01*
X114935000Y-57245000D02*
X113030000Y-55340000D01*
X111125000Y-73025000D02*
X112395000Y-73025000D01*
X114935000Y-67405000D02*
X113030000Y-65500000D01*
X114935000Y-70485000D02*
X114935000Y-67405000D01*
X112395000Y-73025000D02*
X114935000Y-70485000D01*
X113030000Y-55340000D02*
X112205000Y-55340000D01*
X112205000Y-55340000D02*
X110490000Y-57055000D01*
X110490000Y-67215000D02*
X111030000Y-67215000D01*
X111030000Y-67215000D02*
X111760000Y-67945000D01*
X111760000Y-67945000D02*
X111760000Y-72390000D01*
X111760000Y-72390000D02*
X111125000Y-73025000D01*
X111125000Y-73025000D02*
X111125000Y-73660000D01*
X111125000Y-73660000D02*
X109855000Y-74930000D01*
X109855000Y-74930000D02*
X109855000Y-75565000D01*
X109855000Y-75565000D02*
X107950000Y-77470000D01*
X78740000Y-63500000D02*
X78740000Y-64135000D01*
X78740000Y-64135000D02*
X80645000Y-66040000D01*
X80645000Y-66040000D02*
X93765000Y-66040000D01*
X93765000Y-66040000D02*
X94005000Y-65800000D01*
X94005000Y-65800000D02*
X94005000Y-67450000D01*
X94005000Y-67450000D02*
X94500000Y-67945000D01*
D32*
X78740000Y-89535000D02*
X78105000Y-89535000D01*
X78105000Y-89535000D02*
X76835000Y-90805000D01*
X101600000Y-102235000D02*
X103505000Y-100330000D01*
X78740000Y-102235000D02*
X101600000Y-102235000D01*
X76835000Y-100330000D02*
X78740000Y-102235000D01*
X76835000Y-90805000D02*
X76835000Y-100330000D01*
X78740000Y-79490000D02*
X78740000Y-89535000D01*
X78740000Y-63500000D02*
X78740000Y-72910000D01*
D31*
X78740000Y-72910000D02*
X78220000Y-72910000D01*
X78220000Y-79490000D02*
X78740000Y-79490000D01*
X77470000Y-78740000D02*
X78220000Y-79490000D01*
X77470000Y-73660000D02*
X77470000Y-78740000D01*
X78220000Y-72910000D02*
X77470000Y-73660000D01*
X78740000Y-89535000D02*
X80010000Y-90805000D01*
X80010000Y-90805000D02*
X84455000Y-90805000D01*
X84455000Y-90805000D02*
X85090000Y-91440000D01*
X85090000Y-91440000D02*
X93765000Y-91440000D01*
X93765000Y-91440000D02*
X94005000Y-91200000D01*
D32*
X94005000Y-91200000D02*
X94005000Y-93205000D01*
X94005000Y-93205000D02*
X93865000Y-93345000D01*
D31*
X92710000Y-77700000D02*
X93750000Y-77700000D01*
X93750000Y-77700000D02*
X94615000Y-76835000D01*
X80645000Y-78740000D02*
X91670000Y-78740000D01*
X91670000Y-78740000D02*
X92710000Y-77700000D01*
X100305000Y-88900000D02*
X100305000Y-91415000D01*
X100330000Y-91440000D02*
X100305000Y-91415000D01*
X105410000Y-46990000D02*
X102870000Y-46990000D01*
X113030000Y-53340000D02*
X111125000Y-51435000D01*
X109855000Y-51435000D02*
X111125000Y-51435000D01*
X105410000Y-46990000D02*
X109855000Y-51435000D01*
X102870000Y-46990000D02*
X101600000Y-45720000D01*
X104140000Y-88900000D02*
X102235000Y-86995000D01*
X100305000Y-88900000D02*
X104140000Y-88900000D01*
X107220000Y-91980000D02*
X104140000Y-88900000D01*
X110490000Y-69215000D02*
X110490000Y-70485000D01*
X109855000Y-73565000D02*
X107950000Y-75470000D01*
X109855000Y-71120000D02*
X109855000Y-73565000D01*
X110490000Y-70485000D02*
X109855000Y-71120000D01*
X107220000Y-91980000D02*
X107950000Y-91980000D01*
X100305000Y-88900000D02*
X94005000Y-88900000D01*
X95365000Y-84455000D02*
X95365000Y-87540000D01*
X95365000Y-87540000D02*
X94005000Y-88900000D01*
X95365000Y-84455000D02*
X95365000Y-81640000D01*
X95365000Y-81640000D02*
X96360000Y-80645000D01*
X96360000Y-80645000D02*
X96360000Y-79375000D01*
X111760000Y-62230000D02*
X111760000Y-58420000D01*
X113030000Y-63500000D02*
X111760000Y-62230000D01*
X78740000Y-77990000D02*
X78740000Y-76200000D01*
X78740000Y-76200000D02*
X81280000Y-73660000D01*
X80645000Y-73660000D02*
X91670000Y-73660000D01*
X91670000Y-73660000D02*
X92710000Y-74700000D01*
X88900000Y-54610000D02*
X90170000Y-53340000D01*
X90170000Y-53340000D02*
X110205000Y-53340000D01*
X110205000Y-53340000D02*
X110490000Y-53055000D01*
X88900000Y-57150000D02*
X90170000Y-55880000D01*
X90170000Y-55880000D02*
X108585000Y-55880000D01*
X110490000Y-65215000D02*
X110745000Y-65215000D01*
X110745000Y-65215000D02*
X113030000Y-67500000D01*
X110490000Y-55055000D02*
X110745000Y-55055000D01*
X110490000Y-55055000D02*
X109410000Y-55055000D01*
X108585000Y-63310000D02*
X110490000Y-65215000D01*
X108585000Y-55880000D02*
X108585000Y-63310000D01*
X109410000Y-55055000D02*
X108585000Y-55880000D01*
X91440000Y-57150000D02*
X88900000Y-59690000D01*
X84455000Y-50165000D02*
X84455000Y-46355000D01*
X96330000Y-44450000D02*
X97600000Y-45720000D01*
X86360000Y-44450000D02*
X96330000Y-44450000D01*
X84455000Y-46355000D02*
X86360000Y-44450000D01*
X87630000Y-50800000D02*
X90520000Y-50800000D01*
X90520000Y-50800000D02*
X95600000Y-45720000D01*
X91440000Y-69850000D02*
X88900000Y-67310000D01*
X103505000Y-69850000D02*
X91440000Y-69850000D01*
X91440000Y-104140000D02*
X96075000Y-104140000D01*
X96075000Y-104140000D02*
X99250000Y-107315000D01*
X92075000Y-103505000D02*
X97440000Y-103505000D01*
X97440000Y-103505000D02*
X101250000Y-107315000D01*
X88900000Y-74930000D02*
X90170000Y-74930000D01*
X95250000Y-74295000D02*
X96360000Y-74295000D01*
X93980000Y-75565000D02*
X95250000Y-74295000D01*
X90805000Y-75565000D02*
X93980000Y-75565000D01*
X90170000Y-74930000D02*
X90805000Y-75565000D01*
X88900000Y-77470000D02*
X89535000Y-77470000D01*
X89535000Y-77470000D02*
X90805000Y-76200000D01*
X90805000Y-76200000D02*
X95725000Y-76200000D01*
X95725000Y-76200000D02*
X96360000Y-75565000D01*
X96360000Y-76835000D02*
X95885000Y-76835000D01*
X95885000Y-76835000D02*
X92710000Y-80010000D01*
X92710000Y-80010000D02*
X88900000Y-80010000D01*
X96360000Y-73025000D02*
X92710000Y-73025000D01*
X86995000Y-81280000D02*
X86360000Y-80645000D01*
X92710000Y-81280000D02*
X86995000Y-81280000D01*
X86360000Y-80645000D02*
X86360000Y-80010000D01*
X109855000Y-78740000D02*
X110490000Y-78105000D01*
X104775000Y-78740000D02*
X109855000Y-78740000D01*
X110490000Y-78105000D02*
X111125000Y-78105000D01*
X111125000Y-94615000D02*
X109855000Y-94615000D01*
X107950000Y-96520000D02*
X91440000Y-96520000D01*
X109855000Y-94615000D02*
X107950000Y-96520000D01*
X80645000Y-82455000D02*
X83725000Y-82455000D01*
X83725000Y-82455000D02*
X85090000Y-83820000D01*
X88900000Y-97790000D02*
X106680000Y-97790000D01*
X106680000Y-97790000D02*
X111125000Y-102235000D01*
X80645000Y-67850000D02*
X84360000Y-67850000D01*
X84360000Y-67850000D02*
X84455000Y-67945000D01*
X101760000Y-80645000D02*
X101760000Y-83790000D01*
X101760000Y-83790000D02*
X107950000Y-89980000D01*
X101760000Y-79375000D02*
X105600000Y-79375000D01*
X105600000Y-79375000D02*
X107950000Y-81725000D01*
X101760000Y-78105000D02*
X103315000Y-78105000D01*
X103315000Y-78105000D02*
X107950000Y-73470000D01*
M02*
