G04 #@! TF.FileFunction,Legend,Bot*
%FSLAX46Y46*%
G04 Gerber Fmt 4.6, Leading zero omitted, Abs format (unit mm)*
G04 Created by KiCad (PCBNEW 4.0.7) date 09/14/18 14:53:24*
%MOMM*%
%LPD*%
G01*
G04 APERTURE LIST*
%ADD10C,0.100000*%
%ADD11C,0.300000*%
%ADD12C,0.120000*%
%ADD13C,0.150000*%
G04 APERTURE END LIST*
D10*
D11*
X82506429Y-69687142D02*
X84006429Y-69687142D01*
X84006429Y-69329999D01*
X83935000Y-69115714D01*
X83792143Y-68972856D01*
X83649286Y-68901428D01*
X83363571Y-68829999D01*
X83149286Y-68829999D01*
X82863571Y-68901428D01*
X82720714Y-68972856D01*
X82577857Y-69115714D01*
X82506429Y-69329999D01*
X82506429Y-69687142D01*
X83863571Y-68258571D02*
X83935000Y-68187142D01*
X84006429Y-68044285D01*
X84006429Y-67687142D01*
X83935000Y-67544285D01*
X83863571Y-67472856D01*
X83720714Y-67401428D01*
X83577857Y-67401428D01*
X83363571Y-67472856D01*
X82506429Y-68329999D01*
X82506429Y-67401428D01*
X82506429Y-84292142D02*
X84006429Y-84292142D01*
X84006429Y-83934999D01*
X83935000Y-83720714D01*
X83792143Y-83577856D01*
X83649286Y-83506428D01*
X83363571Y-83434999D01*
X83149286Y-83434999D01*
X82863571Y-83506428D01*
X82720714Y-83577856D01*
X82577857Y-83720714D01*
X82506429Y-83934999D01*
X82506429Y-84292142D01*
X82506429Y-82006428D02*
X82506429Y-82863571D01*
X82506429Y-82434999D02*
X84006429Y-82434999D01*
X83792143Y-82577856D01*
X83649286Y-82720714D01*
X83577857Y-82863571D01*
X107993571Y-59495715D02*
X106493571Y-59495715D01*
X106636429Y-60138572D02*
X106565000Y-60210001D01*
X106493571Y-60352858D01*
X106493571Y-60710001D01*
X106565000Y-60852858D01*
X106636429Y-60924287D01*
X106779286Y-60995715D01*
X106922143Y-60995715D01*
X107136429Y-60924287D01*
X107993571Y-60067144D01*
X107993571Y-60995715D01*
X107850714Y-62495715D02*
X107922143Y-62424286D01*
X107993571Y-62210000D01*
X107993571Y-62067143D01*
X107922143Y-61852858D01*
X107779286Y-61710000D01*
X107636429Y-61638572D01*
X107350714Y-61567143D01*
X107136429Y-61567143D01*
X106850714Y-61638572D01*
X106707857Y-61710000D01*
X106565000Y-61852858D01*
X106493571Y-62067143D01*
X106493571Y-62210000D01*
X106565000Y-62424286D01*
X106636429Y-62495715D01*
X106017143Y-73493572D02*
X106088571Y-73707858D01*
X106088571Y-74065001D01*
X106017143Y-74207858D01*
X105945714Y-74279287D01*
X105802857Y-74350715D01*
X105660000Y-74350715D01*
X105517143Y-74279287D01*
X105445714Y-74207858D01*
X105374286Y-74065001D01*
X105302857Y-73779287D01*
X105231429Y-73636429D01*
X105160000Y-73565001D01*
X105017143Y-73493572D01*
X104874286Y-73493572D01*
X104731429Y-73565001D01*
X104660000Y-73636429D01*
X104588571Y-73779287D01*
X104588571Y-74136429D01*
X104660000Y-74350715D01*
X105517143Y-74993572D02*
X105517143Y-76136429D01*
X106088571Y-77636429D02*
X106088571Y-76779286D01*
X106088571Y-77207858D02*
X104588571Y-77207858D01*
X104802857Y-77065001D01*
X104945714Y-76922143D01*
X105017143Y-76779286D01*
X106017143Y-97623572D02*
X106088571Y-97837858D01*
X106088571Y-98195001D01*
X106017143Y-98337858D01*
X105945714Y-98409287D01*
X105802857Y-98480715D01*
X105660000Y-98480715D01*
X105517143Y-98409287D01*
X105445714Y-98337858D01*
X105374286Y-98195001D01*
X105302857Y-97909287D01*
X105231429Y-97766429D01*
X105160000Y-97695001D01*
X105017143Y-97623572D01*
X104874286Y-97623572D01*
X104731429Y-97695001D01*
X104660000Y-97766429D01*
X104588571Y-97909287D01*
X104588571Y-98266429D01*
X104660000Y-98480715D01*
X105517143Y-99123572D02*
X105517143Y-100266429D01*
X105088571Y-101623572D02*
X106088571Y-101623572D01*
X104517143Y-101266429D02*
X105588571Y-100909286D01*
X105588571Y-101837858D01*
X106017143Y-90003572D02*
X106088571Y-90217858D01*
X106088571Y-90575001D01*
X106017143Y-90717858D01*
X105945714Y-90789287D01*
X105802857Y-90860715D01*
X105660000Y-90860715D01*
X105517143Y-90789287D01*
X105445714Y-90717858D01*
X105374286Y-90575001D01*
X105302857Y-90289287D01*
X105231429Y-90146429D01*
X105160000Y-90075001D01*
X105017143Y-90003572D01*
X104874286Y-90003572D01*
X104731429Y-90075001D01*
X104660000Y-90146429D01*
X104588571Y-90289287D01*
X104588571Y-90646429D01*
X104660000Y-90860715D01*
X105517143Y-91503572D02*
X105517143Y-92646429D01*
X104588571Y-93217858D02*
X104588571Y-94146429D01*
X105160000Y-93646429D01*
X105160000Y-93860715D01*
X105231429Y-94003572D01*
X105302857Y-94075001D01*
X105445714Y-94146429D01*
X105802857Y-94146429D01*
X105945714Y-94075001D01*
X106017143Y-94003572D01*
X106088571Y-93860715D01*
X106088571Y-93432143D01*
X106017143Y-93289286D01*
X105945714Y-93217858D01*
X106017143Y-81748572D02*
X106088571Y-81962858D01*
X106088571Y-82320001D01*
X106017143Y-82462858D01*
X105945714Y-82534287D01*
X105802857Y-82605715D01*
X105660000Y-82605715D01*
X105517143Y-82534287D01*
X105445714Y-82462858D01*
X105374286Y-82320001D01*
X105302857Y-82034287D01*
X105231429Y-81891429D01*
X105160000Y-81820001D01*
X105017143Y-81748572D01*
X104874286Y-81748572D01*
X104731429Y-81820001D01*
X104660000Y-81891429D01*
X104588571Y-82034287D01*
X104588571Y-82391429D01*
X104660000Y-82605715D01*
X105517143Y-83248572D02*
X105517143Y-84391429D01*
X104731429Y-85034286D02*
X104660000Y-85105715D01*
X104588571Y-85248572D01*
X104588571Y-85605715D01*
X104660000Y-85748572D01*
X104731429Y-85820001D01*
X104874286Y-85891429D01*
X105017143Y-85891429D01*
X105231429Y-85820001D01*
X106088571Y-84962858D01*
X106088571Y-85891429D01*
D12*
X112565000Y-79435000D02*
X112565000Y-71695000D01*
X112565000Y-71695000D02*
X115225000Y-71695000D01*
X115225000Y-71695000D02*
X115225000Y-79435000D01*
X115225000Y-79435000D02*
X112565000Y-79435000D01*
X115225000Y-78485000D02*
X121225000Y-78485000D01*
X121225000Y-78485000D02*
X121225000Y-77725000D01*
X121225000Y-77725000D02*
X115225000Y-77725000D01*
X115225000Y-78425000D02*
X121225000Y-78425000D01*
X115225000Y-78305000D02*
X121225000Y-78305000D01*
X115225000Y-78185000D02*
X121225000Y-78185000D01*
X115225000Y-78065000D02*
X121225000Y-78065000D01*
X115225000Y-77945000D02*
X121225000Y-77945000D01*
X115225000Y-77825000D02*
X121225000Y-77825000D01*
X112235000Y-78485000D02*
X112565000Y-78485000D01*
X112235000Y-77725000D02*
X112565000Y-77725000D01*
X112565000Y-76835000D02*
X115225000Y-76835000D01*
X115225000Y-75945000D02*
X121225000Y-75945000D01*
X121225000Y-75945000D02*
X121225000Y-75185000D01*
X121225000Y-75185000D02*
X115225000Y-75185000D01*
X112167929Y-75945000D02*
X112565000Y-75945000D01*
X112167929Y-75185000D02*
X112565000Y-75185000D01*
X112565000Y-74295000D02*
X115225000Y-74295000D01*
X115225000Y-73405000D02*
X121225000Y-73405000D01*
X121225000Y-73405000D02*
X121225000Y-72645000D01*
X121225000Y-72645000D02*
X115225000Y-72645000D01*
X112167929Y-73405000D02*
X112565000Y-73405000D01*
X112167929Y-72645000D02*
X112565000Y-72645000D01*
X109855000Y-78105000D02*
X109855000Y-79375000D01*
X109855000Y-79375000D02*
X111125000Y-79375000D01*
X112565000Y-87690000D02*
X112565000Y-79950000D01*
X112565000Y-79950000D02*
X115225000Y-79950000D01*
X115225000Y-79950000D02*
X115225000Y-87690000D01*
X115225000Y-87690000D02*
X112565000Y-87690000D01*
X115225000Y-86740000D02*
X121225000Y-86740000D01*
X121225000Y-86740000D02*
X121225000Y-85980000D01*
X121225000Y-85980000D02*
X115225000Y-85980000D01*
X115225000Y-86680000D02*
X121225000Y-86680000D01*
X115225000Y-86560000D02*
X121225000Y-86560000D01*
X115225000Y-86440000D02*
X121225000Y-86440000D01*
X115225000Y-86320000D02*
X121225000Y-86320000D01*
X115225000Y-86200000D02*
X121225000Y-86200000D01*
X115225000Y-86080000D02*
X121225000Y-86080000D01*
X112235000Y-86740000D02*
X112565000Y-86740000D01*
X112235000Y-85980000D02*
X112565000Y-85980000D01*
X112565000Y-85090000D02*
X115225000Y-85090000D01*
X115225000Y-84200000D02*
X121225000Y-84200000D01*
X121225000Y-84200000D02*
X121225000Y-83440000D01*
X121225000Y-83440000D02*
X115225000Y-83440000D01*
X112167929Y-84200000D02*
X112565000Y-84200000D01*
X112167929Y-83440000D02*
X112565000Y-83440000D01*
X112565000Y-82550000D02*
X115225000Y-82550000D01*
X115225000Y-81660000D02*
X121225000Y-81660000D01*
X121225000Y-81660000D02*
X121225000Y-80900000D01*
X121225000Y-80900000D02*
X115225000Y-80900000D01*
X112167929Y-81660000D02*
X112565000Y-81660000D01*
X112167929Y-80900000D02*
X112565000Y-80900000D01*
X109855000Y-86360000D02*
X109855000Y-87630000D01*
X109855000Y-87630000D02*
X111125000Y-87630000D01*
X112565000Y-95945000D02*
X112565000Y-88205000D01*
X112565000Y-88205000D02*
X115225000Y-88205000D01*
X115225000Y-88205000D02*
X115225000Y-95945000D01*
X115225000Y-95945000D02*
X112565000Y-95945000D01*
X115225000Y-94995000D02*
X121225000Y-94995000D01*
X121225000Y-94995000D02*
X121225000Y-94235000D01*
X121225000Y-94235000D02*
X115225000Y-94235000D01*
X115225000Y-94935000D02*
X121225000Y-94935000D01*
X115225000Y-94815000D02*
X121225000Y-94815000D01*
X115225000Y-94695000D02*
X121225000Y-94695000D01*
X115225000Y-94575000D02*
X121225000Y-94575000D01*
X115225000Y-94455000D02*
X121225000Y-94455000D01*
X115225000Y-94335000D02*
X121225000Y-94335000D01*
X112235000Y-94995000D02*
X112565000Y-94995000D01*
X112235000Y-94235000D02*
X112565000Y-94235000D01*
X112565000Y-93345000D02*
X115225000Y-93345000D01*
X115225000Y-92455000D02*
X121225000Y-92455000D01*
X121225000Y-92455000D02*
X121225000Y-91695000D01*
X121225000Y-91695000D02*
X115225000Y-91695000D01*
X112167929Y-92455000D02*
X112565000Y-92455000D01*
X112167929Y-91695000D02*
X112565000Y-91695000D01*
X112565000Y-90805000D02*
X115225000Y-90805000D01*
X115225000Y-89915000D02*
X121225000Y-89915000D01*
X121225000Y-89915000D02*
X121225000Y-89155000D01*
X121225000Y-89155000D02*
X115225000Y-89155000D01*
X112167929Y-89915000D02*
X112565000Y-89915000D01*
X112167929Y-89155000D02*
X112565000Y-89155000D01*
X109855000Y-94615000D02*
X109855000Y-95885000D01*
X109855000Y-95885000D02*
X111125000Y-95885000D01*
X112565000Y-103565000D02*
X112565000Y-95825000D01*
X112565000Y-95825000D02*
X115225000Y-95825000D01*
X115225000Y-95825000D02*
X115225000Y-103565000D01*
X115225000Y-103565000D02*
X112565000Y-103565000D01*
X115225000Y-102615000D02*
X121225000Y-102615000D01*
X121225000Y-102615000D02*
X121225000Y-101855000D01*
X121225000Y-101855000D02*
X115225000Y-101855000D01*
X115225000Y-102555000D02*
X121225000Y-102555000D01*
X115225000Y-102435000D02*
X121225000Y-102435000D01*
X115225000Y-102315000D02*
X121225000Y-102315000D01*
X115225000Y-102195000D02*
X121225000Y-102195000D01*
X115225000Y-102075000D02*
X121225000Y-102075000D01*
X115225000Y-101955000D02*
X121225000Y-101955000D01*
X112235000Y-102615000D02*
X112565000Y-102615000D01*
X112235000Y-101855000D02*
X112565000Y-101855000D01*
X112565000Y-100965000D02*
X115225000Y-100965000D01*
X115225000Y-100075000D02*
X121225000Y-100075000D01*
X121225000Y-100075000D02*
X121225000Y-99315000D01*
X121225000Y-99315000D02*
X115225000Y-99315000D01*
X112167929Y-100075000D02*
X112565000Y-100075000D01*
X112167929Y-99315000D02*
X112565000Y-99315000D01*
X112565000Y-98425000D02*
X115225000Y-98425000D01*
X115225000Y-97535000D02*
X121225000Y-97535000D01*
X121225000Y-97535000D02*
X121225000Y-96775000D01*
X121225000Y-96775000D02*
X115225000Y-96775000D01*
X112167929Y-97535000D02*
X112565000Y-97535000D01*
X112167929Y-96775000D02*
X112565000Y-96775000D01*
X109855000Y-102235000D02*
X109855000Y-103505000D01*
X109855000Y-103505000D02*
X111125000Y-103505000D01*
X119380000Y-64000000D02*
X115030000Y-64000000D01*
X115030000Y-64000000D02*
X115030000Y-69000000D01*
X115030000Y-69000000D02*
X119380000Y-69000000D01*
X113180000Y-62700000D02*
X113180000Y-62350000D01*
X113180000Y-62350000D02*
X111580000Y-62350000D01*
X111580000Y-62350000D02*
X111580000Y-61450000D01*
X111580000Y-61450000D02*
X119380000Y-61450000D01*
X119380000Y-61450000D02*
X119380000Y-71550000D01*
X119380000Y-71550000D02*
X111580000Y-71550000D01*
X111580000Y-71550000D02*
X111580000Y-70650000D01*
X111580000Y-70650000D02*
X113180000Y-70650000D01*
X113180000Y-70650000D02*
X113180000Y-70300000D01*
X113180000Y-61450000D02*
X113180000Y-62350000D01*
X113180000Y-71550000D02*
X113180000Y-70650000D01*
X115530000Y-62200000D02*
X117130000Y-62200000D01*
X117130000Y-62200000D02*
X117130000Y-63200000D01*
X117130000Y-63200000D02*
X115530000Y-63200000D01*
X115530000Y-63200000D02*
X115530000Y-62200000D01*
X115530000Y-70800000D02*
X117130000Y-70800000D01*
X117130000Y-70800000D02*
X117130000Y-69800000D01*
X117130000Y-69800000D02*
X115530000Y-69800000D01*
X115530000Y-69800000D02*
X115530000Y-70800000D01*
X117130000Y-63200000D02*
X119380000Y-63200000D01*
X117130000Y-62700000D02*
X119380000Y-62700000D01*
X113180000Y-62700000D02*
X111980000Y-62700000D01*
X119380000Y-53840000D02*
X115030000Y-53840000D01*
X115030000Y-53840000D02*
X115030000Y-58840000D01*
X115030000Y-58840000D02*
X119380000Y-58840000D01*
X113180000Y-52540000D02*
X113180000Y-52190000D01*
X113180000Y-52190000D02*
X111580000Y-52190000D01*
X111580000Y-52190000D02*
X111580000Y-51290000D01*
X111580000Y-51290000D02*
X119380000Y-51290000D01*
X119380000Y-51290000D02*
X119380000Y-61390000D01*
X119380000Y-61390000D02*
X111580000Y-61390000D01*
X111580000Y-61390000D02*
X111580000Y-60490000D01*
X111580000Y-60490000D02*
X113180000Y-60490000D01*
X113180000Y-60490000D02*
X113180000Y-60140000D01*
X113180000Y-51290000D02*
X113180000Y-52190000D01*
X113180000Y-61390000D02*
X113180000Y-60490000D01*
X115530000Y-52040000D02*
X117130000Y-52040000D01*
X117130000Y-52040000D02*
X117130000Y-53040000D01*
X117130000Y-53040000D02*
X115530000Y-53040000D01*
X115530000Y-53040000D02*
X115530000Y-52040000D01*
X115530000Y-60640000D02*
X117130000Y-60640000D01*
X117130000Y-60640000D02*
X117130000Y-59640000D01*
X117130000Y-59640000D02*
X115530000Y-59640000D01*
X115530000Y-59640000D02*
X115530000Y-60640000D01*
X117130000Y-53040000D02*
X119380000Y-53040000D01*
X117130000Y-52540000D02*
X119380000Y-52540000D01*
X113180000Y-52540000D02*
X111980000Y-52540000D01*
X74295000Y-83955000D02*
X78645000Y-83955000D01*
X78645000Y-83955000D02*
X78645000Y-82955000D01*
X78645000Y-82955000D02*
X74295000Y-82955000D01*
X80495000Y-85255000D02*
X80495000Y-85605000D01*
X80495000Y-85605000D02*
X82095000Y-85605000D01*
X82095000Y-85605000D02*
X82095000Y-86505000D01*
X82095000Y-86505000D02*
X74295000Y-86505000D01*
X74295000Y-86505000D02*
X74295000Y-80405000D01*
X74295000Y-80405000D02*
X82095000Y-80405000D01*
X82095000Y-80405000D02*
X82095000Y-81305000D01*
X82095000Y-81305000D02*
X80495000Y-81305000D01*
X80495000Y-81305000D02*
X80495000Y-81655000D01*
X80495000Y-86505000D02*
X80495000Y-85605000D01*
X80495000Y-80405000D02*
X80495000Y-81305000D01*
X78145000Y-85755000D02*
X76545000Y-85755000D01*
X76545000Y-85755000D02*
X76545000Y-84755000D01*
X76545000Y-84755000D02*
X78145000Y-84755000D01*
X78145000Y-84755000D02*
X78145000Y-85755000D01*
X78145000Y-81155000D02*
X76545000Y-81155000D01*
X76545000Y-81155000D02*
X76545000Y-82155000D01*
X76545000Y-82155000D02*
X78145000Y-82155000D01*
X78145000Y-82155000D02*
X78145000Y-81155000D01*
X76545000Y-84755000D02*
X74295000Y-84755000D01*
X76545000Y-85255000D02*
X74295000Y-85255000D01*
X80495000Y-85255000D02*
X81695000Y-85255000D01*
X74295000Y-69350000D02*
X78645000Y-69350000D01*
X78645000Y-69350000D02*
X78645000Y-68350000D01*
X78645000Y-68350000D02*
X74295000Y-68350000D01*
X80495000Y-70650000D02*
X80495000Y-71000000D01*
X80495000Y-71000000D02*
X82095000Y-71000000D01*
X82095000Y-71000000D02*
X82095000Y-71900000D01*
X82095000Y-71900000D02*
X74295000Y-71900000D01*
X74295000Y-71900000D02*
X74295000Y-65800000D01*
X74295000Y-65800000D02*
X82095000Y-65800000D01*
X82095000Y-65800000D02*
X82095000Y-66700000D01*
X82095000Y-66700000D02*
X80495000Y-66700000D01*
X80495000Y-66700000D02*
X80495000Y-67050000D01*
X80495000Y-71900000D02*
X80495000Y-71000000D01*
X80495000Y-65800000D02*
X80495000Y-66700000D01*
X78145000Y-71150000D02*
X76545000Y-71150000D01*
X76545000Y-71150000D02*
X76545000Y-70150000D01*
X76545000Y-70150000D02*
X78145000Y-70150000D01*
X78145000Y-70150000D02*
X78145000Y-71150000D01*
X78145000Y-66550000D02*
X76545000Y-66550000D01*
X76545000Y-66550000D02*
X76545000Y-67550000D01*
X76545000Y-67550000D02*
X78145000Y-67550000D01*
X78145000Y-67550000D02*
X78145000Y-66550000D01*
X76545000Y-70150000D02*
X74295000Y-70150000D01*
X76545000Y-70650000D02*
X74295000Y-70650000D01*
X80495000Y-70650000D02*
X81695000Y-70650000D01*
X90230000Y-101660000D02*
X85030000Y-101660000D01*
X90230000Y-53340000D02*
X90230000Y-101660000D01*
X85030000Y-50740000D02*
X85030000Y-101660000D01*
X90230000Y-53340000D02*
X87630000Y-53340000D01*
X87630000Y-53340000D02*
X87630000Y-50740000D01*
X87630000Y-50740000D02*
X85030000Y-50740000D01*
X90230000Y-52070000D02*
X90230000Y-50740000D01*
X90230000Y-50740000D02*
X88900000Y-50740000D01*
D13*
X116319523Y-79827381D02*
X116319523Y-80541667D01*
X116367143Y-80684524D01*
X116462381Y-80779762D01*
X116605238Y-80827381D01*
X116700476Y-80827381D01*
X115319523Y-80827381D02*
X115890952Y-80827381D01*
X115605238Y-80827381D02*
X115605238Y-79827381D01*
X115700476Y-79970238D01*
X115795714Y-80065476D01*
X115890952Y-80113095D01*
X114367142Y-80827381D02*
X114938571Y-80827381D01*
X114652857Y-80827381D02*
X114652857Y-79827381D01*
X114748095Y-79970238D01*
X114843333Y-80065476D01*
X114938571Y-80113095D01*
X116319523Y-88082381D02*
X116319523Y-88796667D01*
X116367143Y-88939524D01*
X116462381Y-89034762D01*
X116605238Y-89082381D01*
X116700476Y-89082381D01*
X115319523Y-89082381D02*
X115890952Y-89082381D01*
X115605238Y-89082381D02*
X115605238Y-88082381D01*
X115700476Y-88225238D01*
X115795714Y-88320476D01*
X115890952Y-88368095D01*
X114938571Y-88177619D02*
X114890952Y-88130000D01*
X114795714Y-88082381D01*
X114557618Y-88082381D01*
X114462380Y-88130000D01*
X114414761Y-88177619D01*
X114367142Y-88272857D01*
X114367142Y-88368095D01*
X114414761Y-88510952D01*
X114986190Y-89082381D01*
X114367142Y-89082381D01*
X116319523Y-96337381D02*
X116319523Y-97051667D01*
X116367143Y-97194524D01*
X116462381Y-97289762D01*
X116605238Y-97337381D01*
X116700476Y-97337381D01*
X115319523Y-97337381D02*
X115890952Y-97337381D01*
X115605238Y-97337381D02*
X115605238Y-96337381D01*
X115700476Y-96480238D01*
X115795714Y-96575476D01*
X115890952Y-96623095D01*
X114986190Y-96337381D02*
X114367142Y-96337381D01*
X114700476Y-96718333D01*
X114557618Y-96718333D01*
X114462380Y-96765952D01*
X114414761Y-96813571D01*
X114367142Y-96908810D01*
X114367142Y-97146905D01*
X114414761Y-97242143D01*
X114462380Y-97289762D01*
X114557618Y-97337381D01*
X114843333Y-97337381D01*
X114938571Y-97289762D01*
X114986190Y-97242143D01*
X116319523Y-103957381D02*
X116319523Y-104671667D01*
X116367143Y-104814524D01*
X116462381Y-104909762D01*
X116605238Y-104957381D01*
X116700476Y-104957381D01*
X115319523Y-104957381D02*
X115890952Y-104957381D01*
X115605238Y-104957381D02*
X115605238Y-103957381D01*
X115700476Y-104100238D01*
X115795714Y-104195476D01*
X115890952Y-104243095D01*
X114462380Y-104290714D02*
X114462380Y-104957381D01*
X114700476Y-103909762D02*
X114938571Y-104624048D01*
X114319523Y-104624048D01*
X112482381Y-65865477D02*
X113196667Y-65865477D01*
X113339524Y-65817857D01*
X113434762Y-65722619D01*
X113482381Y-65579762D01*
X113482381Y-65484524D01*
X113482381Y-66865477D02*
X113482381Y-66294048D01*
X113482381Y-66579762D02*
X112482381Y-66579762D01*
X112625238Y-66484524D01*
X112720476Y-66389286D01*
X112768095Y-66294048D01*
X112482381Y-67770239D02*
X112482381Y-67294048D01*
X112958571Y-67246429D01*
X112910952Y-67294048D01*
X112863333Y-67389286D01*
X112863333Y-67627382D01*
X112910952Y-67722620D01*
X112958571Y-67770239D01*
X113053810Y-67817858D01*
X113291905Y-67817858D01*
X113387143Y-67770239D01*
X113434762Y-67722620D01*
X113482381Y-67627382D01*
X113482381Y-67389286D01*
X113434762Y-67294048D01*
X113387143Y-67246429D01*
X112482381Y-55705477D02*
X113196667Y-55705477D01*
X113339524Y-55657857D01*
X113434762Y-55562619D01*
X113482381Y-55419762D01*
X113482381Y-55324524D01*
X113482381Y-56705477D02*
X113482381Y-56134048D01*
X113482381Y-56419762D02*
X112482381Y-56419762D01*
X112625238Y-56324524D01*
X112720476Y-56229286D01*
X112768095Y-56134048D01*
X112482381Y-57038810D02*
X112482381Y-57705477D01*
X113482381Y-57276905D01*
X80097381Y-82375477D02*
X80811667Y-82375477D01*
X80954524Y-82327857D01*
X81049762Y-82232619D01*
X81097381Y-82089762D01*
X81097381Y-81994524D01*
X80192619Y-82804048D02*
X80145000Y-82851667D01*
X80097381Y-82946905D01*
X80097381Y-83185001D01*
X80145000Y-83280239D01*
X80192619Y-83327858D01*
X80287857Y-83375477D01*
X80383095Y-83375477D01*
X80525952Y-83327858D01*
X81097381Y-82756429D01*
X81097381Y-83375477D01*
X81097381Y-84327858D02*
X81097381Y-83756429D01*
X81097381Y-84042143D02*
X80097381Y-84042143D01*
X80240238Y-83946905D01*
X80335476Y-83851667D01*
X80383095Y-83756429D01*
X80097381Y-67770477D02*
X80811667Y-67770477D01*
X80954524Y-67722857D01*
X81049762Y-67627619D01*
X81097381Y-67484762D01*
X81097381Y-67389524D01*
X80192619Y-68199048D02*
X80145000Y-68246667D01*
X80097381Y-68341905D01*
X80097381Y-68580001D01*
X80145000Y-68675239D01*
X80192619Y-68722858D01*
X80287857Y-68770477D01*
X80383095Y-68770477D01*
X80525952Y-68722858D01*
X81097381Y-68151429D01*
X81097381Y-68770477D01*
X80192619Y-69151429D02*
X80145000Y-69199048D01*
X80097381Y-69294286D01*
X80097381Y-69532382D01*
X80145000Y-69627620D01*
X80192619Y-69675239D01*
X80287857Y-69722858D01*
X80383095Y-69722858D01*
X80525952Y-69675239D01*
X81097381Y-69103810D01*
X81097381Y-69722858D01*
X87963333Y-49192381D02*
X87963333Y-49906667D01*
X88010953Y-50049524D01*
X88106191Y-50144762D01*
X88249048Y-50192381D01*
X88344286Y-50192381D01*
X87534762Y-49287619D02*
X87487143Y-49240000D01*
X87391905Y-49192381D01*
X87153809Y-49192381D01*
X87058571Y-49240000D01*
X87010952Y-49287619D01*
X86963333Y-49382857D01*
X86963333Y-49478095D01*
X87010952Y-49620952D01*
X87582381Y-50192381D01*
X86963333Y-50192381D01*
M02*
