M48
;DRILL file {KiCad 4.0.7} date 09/14/18 14:53:26
;FORMAT={-:-/ absolute / metric / decimal}
FMAT,2
METRIC,TZ
T1C0.400
T2C0.750
T3C1.000
T4C1.400
T5C2.580
T6C3.048
%
G90
G05
M71
T1
X84.455Y-50.165
X84.455Y-67.945
X85.09Y-83.82
X87.63Y-50.8
X91.44Y-96.52
X91.44Y-104.14
X92.075Y-62.23
X92.075Y-68.58
X92.075Y-90.17
X92.075Y-103.505
X92.71Y-59.69
X92.71Y-73.025
X92.71Y-81.28
X93.345Y-95.25
X94.615Y-76.835
X95.885Y-69.215
X95.885Y-70.485
X100.33Y-91.44
X102.235Y-86.995
X103.505Y-69.85
X104.775Y-78.74
X111.76Y-58.42
X111.76Y-62.23
T2
X80.645Y-67.85
X80.645Y-69.85
X80.645Y-82.455
X80.645Y-84.455
X95.25Y-107.315
X95.6Y-45.72
X97.25Y-107.315
X97.6Y-45.72
X99.25Y-107.315
X99.6Y-45.72
X101.25Y-107.315
X101.6Y-45.72
X107.95Y-73.47
X107.95Y-75.47
X107.95Y-77.47
X107.95Y-81.725
X107.95Y-83.725
X107.95Y-85.725
X107.95Y-89.98
X107.95Y-91.98
X107.95Y-93.98
X110.49Y-53.055
X110.49Y-55.055
X110.49Y-57.055
X110.49Y-59.055
X110.49Y-63.215
X110.49Y-65.215
X110.49Y-67.215
X110.49Y-69.215
X113.03Y-53.34
X113.03Y-55.34
X113.03Y-57.34
X113.03Y-59.34
X113.03Y-63.5
X113.03Y-65.5
X113.03Y-67.5
X113.03Y-69.5
T3
X78.74Y-60.96
X78.74Y-63.5
X78.74Y-89.535
X78.74Y-92.075
X81.28Y-60.96
X81.28Y-63.5
X81.28Y-73.66
X81.28Y-76.2
X81.28Y-78.74
X81.915Y-89.535
X81.915Y-92.075
X86.36Y-52.07
X86.36Y-54.61
X86.36Y-57.15
X86.36Y-59.69
X86.36Y-62.23
X86.36Y-64.77
X86.36Y-67.31
X86.36Y-69.85
X86.36Y-72.39
X86.36Y-74.93
X86.36Y-77.47
X86.36Y-80.01
X86.36Y-82.55
X86.36Y-85.09
X86.36Y-87.63
X86.36Y-90.17
X86.36Y-92.71
X86.36Y-95.25
X86.36Y-97.79
X86.36Y-100.33
X88.9Y-52.07
X88.9Y-54.61
X88.9Y-57.15
X88.9Y-59.69
X88.9Y-62.23
X88.9Y-64.77
X88.9Y-67.31
X88.9Y-69.85
X88.9Y-72.39
X88.9Y-74.93
X88.9Y-77.47
X88.9Y-80.01
X88.9Y-82.55
X88.9Y-85.09
X88.9Y-87.63
X88.9Y-90.17
X88.9Y-92.71
X88.9Y-95.25
X88.9Y-97.79
X88.9Y-100.33
X91.44Y-52.07
X91.44Y-54.61
X91.44Y-57.15
X93.98Y-52.07
X93.98Y-54.61
X93.98Y-57.15
X96.52Y-52.07
X96.52Y-54.61
X96.52Y-57.15
X99.06Y-52.07
X99.06Y-54.61
X99.06Y-57.15
X101.6Y-52.07
X101.6Y-54.61
X101.6Y-57.15
X104.14Y-52.07
X104.14Y-54.61
X104.14Y-57.15
X106.68Y-52.07
X106.68Y-54.61
X106.68Y-57.15
X111.125Y-73.025
X111.125Y-75.565
X111.125Y-78.105
X111.125Y-81.28
X111.125Y-83.82
X111.125Y-86.36
X111.125Y-89.535
X111.125Y-92.075
X111.125Y-94.615
X111.125Y-97.155
X111.125Y-99.695
X111.125Y-102.235
T4
X93.345Y-100.33
X103.505Y-100.33
T5
X80.01Y-47.625
X80.01Y-55.245
X80.01Y-97.79
X80.01Y-105.41
T6
X87.63Y-47.625
X87.63Y-105.41
X110.49Y-47.625
X110.49Y-105.41
T0
M30
