G04 #@! TF.FileFunction,Copper,L2,Bot,Signal*
%FSLAX46Y46*%
G04 Gerber Fmt 4.6, Leading zero omitted, Abs format (unit mm)*
G04 Created by KiCad (PCBNEW 4.0.7) date 09/14/18 14:53:24*
%MOMM*%
%LPD*%
G01*
G04 APERTURE LIST*
%ADD10C,0.100000*%
%ADD11C,4.064000*%
%ADD12R,2.800000X2.800000*%
%ADD13O,2.800000X2.800000*%
%ADD14C,3.810000*%
%ADD15R,1.700000X1.700000*%
%ADD16O,1.700000X1.700000*%
%ADD17R,1.700000X1.200000*%
%ADD18O,1.700000X1.200000*%
%ADD19R,1.200000X1.700000*%
%ADD20O,1.200000X1.700000*%
%ADD21R,1.800000X1.800000*%
%ADD22O,1.800000X1.800000*%
%ADD23C,0.600000*%
%ADD24C,0.500000*%
%ADD25C,0.250000*%
%ADD26C,0.254000*%
G04 APERTURE END LIST*
D10*
D11*
X110490000Y-105410000D03*
X87630000Y-105410000D03*
X87630000Y-47625000D03*
X110490000Y-47625000D03*
D12*
X93345000Y-100330000D03*
D13*
X103505000Y-100330000D03*
D14*
X80010000Y-47625000D03*
X80010000Y-55245000D03*
X80010000Y-97790000D03*
X80010000Y-105410000D03*
D15*
X111125000Y-78105000D03*
D16*
X111125000Y-75565000D03*
X111125000Y-73025000D03*
D15*
X111125000Y-86360000D03*
D16*
X111125000Y-83820000D03*
X111125000Y-81280000D03*
D15*
X111125000Y-94615000D03*
D16*
X111125000Y-92075000D03*
X111125000Y-89535000D03*
D15*
X111125000Y-102235000D03*
D16*
X111125000Y-99695000D03*
X111125000Y-97155000D03*
D17*
X113030000Y-63500000D03*
D18*
X113030000Y-65500000D03*
X113030000Y-67500000D03*
X113030000Y-69500000D03*
D17*
X110490000Y-59055000D03*
D18*
X110490000Y-57055000D03*
X110490000Y-55055000D03*
X110490000Y-53055000D03*
D17*
X113030000Y-53340000D03*
D18*
X113030000Y-55340000D03*
X113030000Y-57340000D03*
X113030000Y-59340000D03*
D17*
X110490000Y-69215000D03*
D18*
X110490000Y-67215000D03*
X110490000Y-65215000D03*
X110490000Y-63215000D03*
D17*
X107950000Y-93980000D03*
D18*
X107950000Y-91980000D03*
X107950000Y-89980000D03*
D17*
X107950000Y-85725000D03*
D18*
X107950000Y-83725000D03*
X107950000Y-81725000D03*
D17*
X80645000Y-84455000D03*
D18*
X80645000Y-82455000D03*
D17*
X80645000Y-69850000D03*
D18*
X80645000Y-67850000D03*
D17*
X107950000Y-77470000D03*
D18*
X107950000Y-75470000D03*
X107950000Y-73470000D03*
D19*
X101600000Y-45720000D03*
D20*
X99600000Y-45720000D03*
X97600000Y-45720000D03*
X95600000Y-45720000D03*
D19*
X95250000Y-107315000D03*
D20*
X97250000Y-107315000D03*
X99250000Y-107315000D03*
X101250000Y-107315000D03*
D15*
X81280000Y-63500000D03*
D16*
X81280000Y-60960000D03*
D15*
X78740000Y-63500000D03*
D16*
X78740000Y-60960000D03*
D21*
X81280000Y-73660000D03*
D22*
X81280000Y-76200000D03*
X81280000Y-78740000D03*
D15*
X88900000Y-52070000D03*
D16*
X86360000Y-52070000D03*
X88900000Y-54610000D03*
X86360000Y-54610000D03*
X88900000Y-57150000D03*
X86360000Y-57150000D03*
X88900000Y-59690000D03*
X86360000Y-59690000D03*
X88900000Y-62230000D03*
X86360000Y-62230000D03*
X88900000Y-64770000D03*
X86360000Y-64770000D03*
X88900000Y-67310000D03*
X86360000Y-67310000D03*
X88900000Y-69850000D03*
X86360000Y-69850000D03*
X88900000Y-72390000D03*
X86360000Y-72390000D03*
X88900000Y-74930000D03*
X86360000Y-74930000D03*
X88900000Y-77470000D03*
X86360000Y-77470000D03*
X88900000Y-80010000D03*
X86360000Y-80010000D03*
X88900000Y-82550000D03*
X86360000Y-82550000D03*
X88900000Y-85090000D03*
X86360000Y-85090000D03*
X88900000Y-87630000D03*
X86360000Y-87630000D03*
X88900000Y-90170000D03*
X86360000Y-90170000D03*
X88900000Y-92710000D03*
X86360000Y-92710000D03*
X88900000Y-95250000D03*
X86360000Y-95250000D03*
X88900000Y-97790000D03*
X86360000Y-97790000D03*
X88900000Y-100330000D03*
X86360000Y-100330000D03*
D15*
X81915000Y-89535000D03*
D16*
X81915000Y-92075000D03*
D15*
X78740000Y-89535000D03*
D16*
X78740000Y-92075000D03*
D15*
X91440000Y-52070000D03*
D16*
X91440000Y-54610000D03*
X91440000Y-57150000D03*
D15*
X93980000Y-52070000D03*
D16*
X93980000Y-54610000D03*
X93980000Y-57150000D03*
D15*
X96520000Y-52070000D03*
D16*
X96520000Y-54610000D03*
X96520000Y-57150000D03*
D15*
X99060000Y-52070000D03*
D16*
X99060000Y-54610000D03*
X99060000Y-57150000D03*
D15*
X101600000Y-52070000D03*
D16*
X101600000Y-54610000D03*
X101600000Y-57150000D03*
D15*
X104140000Y-52070000D03*
D16*
X104140000Y-54610000D03*
X104140000Y-57150000D03*
D15*
X106680000Y-52070000D03*
D16*
X106680000Y-54610000D03*
X106680000Y-57150000D03*
D23*
X93345000Y-95250000D03*
X92075000Y-90170000D03*
X95885000Y-70485000D03*
X95885000Y-69215000D03*
X92075000Y-62230000D03*
X92075000Y-68580000D03*
X92710000Y-59690000D03*
X94615000Y-76835000D03*
X100330000Y-91440000D03*
X102235000Y-86995000D03*
X111760000Y-62230000D03*
X111760000Y-58420000D03*
X84455000Y-50165000D03*
X87630000Y-50800000D03*
X103505000Y-69850000D03*
X91440000Y-104140000D03*
X92075000Y-103505000D03*
X92710000Y-81280000D03*
X92710000Y-73025000D03*
X104775000Y-78740000D03*
X91440000Y-96520000D03*
X85090000Y-83820000D03*
X84455000Y-67945000D03*
D24*
X83185000Y-62230000D02*
X83185000Y-88265000D01*
X83185000Y-88265000D02*
X81915000Y-89535000D01*
X80010000Y-47625000D02*
X83185000Y-50800000D01*
X83185000Y-62230000D02*
X81915000Y-63500000D01*
X83185000Y-50800000D02*
X83185000Y-62230000D01*
X81915000Y-63500000D02*
X81280000Y-63500000D01*
D25*
X86360000Y-52070000D02*
X86360000Y-54610000D01*
X99060000Y-52070000D02*
X99060000Y-46260000D01*
X99060000Y-46260000D02*
X99600000Y-45720000D01*
X106680000Y-52070000D02*
X108585000Y-50165000D01*
X114935000Y-53435000D02*
X113030000Y-55340000D01*
X114935000Y-52070000D02*
X114935000Y-53435000D01*
X113030000Y-50165000D02*
X114935000Y-52070000D01*
X108585000Y-50165000D02*
X113030000Y-50165000D01*
X104140000Y-52070000D02*
X106680000Y-52070000D01*
X101600000Y-52070000D02*
X104140000Y-52070000D01*
X99060000Y-52070000D02*
X101600000Y-52070000D01*
X96520000Y-52070000D02*
X99060000Y-52070000D01*
X93980000Y-52070000D02*
X96520000Y-52070000D01*
X91440000Y-52070000D02*
X93980000Y-52070000D01*
X92710000Y-94615000D02*
X93345000Y-95250000D01*
X92710000Y-90805000D02*
X92710000Y-94615000D01*
X92075000Y-90170000D02*
X92710000Y-90805000D01*
X80645000Y-69850000D02*
X82550000Y-71755000D01*
X82550000Y-75565000D02*
X81915000Y-76200000D01*
X82550000Y-71755000D02*
X82550000Y-75565000D01*
X81915000Y-76200000D02*
X81280000Y-76200000D01*
X78740000Y-60960000D02*
X80010000Y-62230000D01*
X78740000Y-67945000D02*
X80645000Y-69850000D01*
X78740000Y-67310000D02*
X78740000Y-67945000D01*
X80010000Y-66040000D02*
X78740000Y-67310000D01*
X80010000Y-62230000D02*
X80010000Y-66040000D01*
X95885000Y-69215000D02*
X95885000Y-70485000D01*
X92075000Y-68580000D02*
X92075000Y-62230000D01*
X93980000Y-52070000D02*
X92710000Y-53340000D01*
X92710000Y-53340000D02*
X92710000Y-59690000D01*
X109855000Y-74295000D02*
X111125000Y-75565000D01*
X109855000Y-73025000D02*
X109855000Y-74295000D01*
X108585000Y-71755000D02*
X109855000Y-73025000D01*
X99695000Y-71755000D02*
X108585000Y-71755000D01*
X94615000Y-76835000D02*
X99695000Y-71755000D01*
D24*
X113030000Y-90170000D02*
X113030000Y-97790000D01*
X113030000Y-97790000D02*
X111125000Y-99695000D01*
X113030000Y-81915000D02*
X113030000Y-90170000D01*
X113030000Y-90170000D02*
X111125000Y-92075000D01*
X111125000Y-75565000D02*
X111760000Y-75565000D01*
X111760000Y-75565000D02*
X113030000Y-76835000D01*
X113030000Y-76835000D02*
X113030000Y-81915000D01*
X113030000Y-81915000D02*
X111125000Y-83820000D01*
D25*
X101600000Y-92710000D02*
X101600000Y-100965000D01*
X101600000Y-92710000D02*
X100330000Y-91440000D01*
X101600000Y-100965000D02*
X95250000Y-107315000D01*
X106045000Y-85725000D02*
X106045000Y-81915000D01*
X103505000Y-85725000D02*
X106045000Y-85725000D01*
X102235000Y-86995000D02*
X103505000Y-85725000D01*
X106680000Y-54610000D02*
X109855000Y-51435000D01*
X111125000Y-51435000D02*
X113030000Y-53340000D01*
X109855000Y-51435000D02*
X111125000Y-51435000D01*
X107950000Y-75470000D02*
X107410000Y-75470000D01*
X107410000Y-75470000D02*
X106045000Y-76835000D01*
X106045000Y-76835000D02*
X106045000Y-81915000D01*
X106045000Y-81915000D02*
X106045000Y-81820000D01*
X106045000Y-81820000D02*
X107950000Y-83725000D01*
X111125000Y-69215000D02*
X111760000Y-68580000D01*
X111760000Y-68580000D02*
X111760000Y-62230000D01*
X111125000Y-69215000D02*
X110490000Y-69215000D01*
X113030000Y-53340000D02*
X111760000Y-54610000D01*
X111760000Y-58420000D02*
X111125000Y-59055000D01*
X111760000Y-54610000D02*
X111760000Y-58420000D01*
X111125000Y-59055000D02*
X110490000Y-59055000D01*
D24*
X93345000Y-100330000D02*
X93345000Y-104775000D01*
X83185000Y-108585000D02*
X80010000Y-105410000D01*
X89535000Y-108585000D02*
X83185000Y-108585000D01*
X93345000Y-104775000D02*
X89535000Y-108585000D01*
X80010000Y-55245000D02*
X76835000Y-58420000D01*
X79375000Y-94615000D02*
X81915000Y-92075000D01*
X78105000Y-94615000D02*
X79375000Y-94615000D01*
X76835000Y-93345000D02*
X78105000Y-94615000D01*
X76835000Y-58420000D02*
X76835000Y-93345000D01*
X81280000Y-60960000D02*
X81280000Y-56515000D01*
X81280000Y-56515000D02*
X80010000Y-55245000D01*
D25*
X108585000Y-61310000D02*
X108585000Y-69850000D01*
X112045000Y-70485000D02*
X113030000Y-69500000D01*
X109220000Y-70485000D02*
X112045000Y-70485000D01*
X108585000Y-69850000D02*
X109220000Y-70485000D01*
X108585000Y-59055000D02*
X108585000Y-59690000D01*
X111410000Y-60960000D02*
X113030000Y-59340000D01*
X109855000Y-60960000D02*
X111410000Y-60960000D01*
X108585000Y-59690000D02*
X109855000Y-60960000D01*
X110490000Y-53055000D02*
X109505000Y-53055000D01*
X108585000Y-61310000D02*
X110490000Y-63215000D01*
X108585000Y-53975000D02*
X108585000Y-59055000D01*
X108585000Y-59055000D02*
X108585000Y-61310000D01*
X109505000Y-53055000D02*
X108585000Y-53975000D01*
X113030000Y-57340000D02*
X113220000Y-57340000D01*
X113220000Y-57340000D02*
X114300000Y-58420000D01*
X114300000Y-58420000D02*
X114300000Y-66230000D01*
X114300000Y-66230000D02*
X113030000Y-67500000D01*
X84455000Y-50165000D02*
X84455000Y-59055000D01*
X84455000Y-59055000D02*
X85090000Y-59690000D01*
X86360000Y-59690000D02*
X85090000Y-59690000D01*
X87630000Y-50800000D02*
X87630000Y-60960000D01*
X86360000Y-62230000D02*
X87630000Y-60960000D01*
X93980000Y-57150000D02*
X93980000Y-59690000D01*
X90170000Y-63500000D02*
X88900000Y-64770000D01*
X90170000Y-62230000D02*
X90170000Y-63500000D01*
X91440000Y-60960000D02*
X90170000Y-62230000D01*
X92710000Y-60960000D02*
X91440000Y-60960000D01*
X93980000Y-59690000D02*
X92710000Y-60960000D01*
X104140000Y-57150000D02*
X104140000Y-69215000D01*
X104140000Y-69215000D02*
X103505000Y-69850000D01*
X96520000Y-57150000D02*
X96520000Y-67310000D01*
X93980000Y-69850000D02*
X88900000Y-69850000D01*
X96520000Y-67310000D02*
X93980000Y-69850000D01*
X86360000Y-100330000D02*
X88265000Y-102235000D01*
X89535000Y-102235000D02*
X88265000Y-102235000D01*
X91440000Y-104140000D02*
X89535000Y-102235000D01*
X90170000Y-93980000D02*
X90170000Y-100965000D01*
X90170000Y-100965000D02*
X92075000Y-102870000D01*
X92075000Y-102870000D02*
X92075000Y-103505000D01*
X88900000Y-92710000D02*
X90170000Y-93980000D01*
X92710000Y-73025000D02*
X92710000Y-81280000D01*
X88900000Y-87630000D02*
X95885000Y-87630000D01*
X95885000Y-87630000D02*
X104775000Y-78740000D01*
X111125000Y-86360000D02*
X110490000Y-86360000D01*
X110490000Y-86360000D02*
X108585000Y-88265000D01*
X108585000Y-88265000D02*
X90805000Y-88265000D01*
X90805000Y-88265000D02*
X88900000Y-90170000D01*
X88265000Y-91440000D02*
X86995000Y-90170000D01*
X90170000Y-91440000D02*
X88265000Y-91440000D01*
X91440000Y-92710000D02*
X90170000Y-91440000D01*
X91440000Y-96520000D02*
X91440000Y-92710000D01*
X86995000Y-90170000D02*
X86360000Y-90170000D01*
X86360000Y-72390000D02*
X87630000Y-73660000D01*
X101600000Y-68580000D02*
X101600000Y-57150000D01*
X97790000Y-72390000D02*
X101600000Y-68580000D01*
X91440000Y-72390000D02*
X97790000Y-72390000D01*
X90170000Y-73660000D02*
X91440000Y-72390000D01*
X87630000Y-73660000D02*
X90170000Y-73660000D01*
X85090000Y-94615000D02*
X85725000Y-95250000D01*
X85090000Y-83820000D02*
X85090000Y-94615000D01*
X85725000Y-95250000D02*
X86360000Y-95250000D01*
X84455000Y-96520000D02*
X85725000Y-97790000D01*
X84455000Y-67945000D02*
X84455000Y-96520000D01*
X85725000Y-97790000D02*
X86360000Y-97790000D01*
X99060000Y-57150000D02*
X99060000Y-69850000D01*
X87630000Y-71120000D02*
X86360000Y-69850000D01*
X97790000Y-71120000D02*
X87630000Y-71120000D01*
X99060000Y-69850000D02*
X97790000Y-71120000D01*
D26*
G36*
X114860000Y-108510000D02*
X102059477Y-108510000D01*
X102123277Y-108467370D01*
X102390991Y-108066707D01*
X102485000Y-107594093D01*
X102485000Y-107035907D01*
X102390991Y-106563293D01*
X102123277Y-106162630D01*
X101722614Y-105894916D01*
X101250000Y-105800907D01*
X100777386Y-105894916D01*
X100376723Y-106162630D01*
X100250000Y-106352285D01*
X100123277Y-106162630D01*
X99722614Y-105894916D01*
X99250000Y-105800907D01*
X98777386Y-105894916D01*
X98376723Y-106162630D01*
X98247590Y-106355891D01*
X98079125Y-106133067D01*
X97718429Y-105921373D01*
X101963953Y-101675849D01*
X102026170Y-101768962D01*
X102686371Y-102210095D01*
X103465132Y-102365000D01*
X103544868Y-102365000D01*
X104323629Y-102210095D01*
X104983830Y-101768962D01*
X105424963Y-101108761D01*
X105579868Y-100330000D01*
X105424963Y-99551239D01*
X104983830Y-98891038D01*
X104323629Y-98449905D01*
X103544868Y-98295000D01*
X103465132Y-98295000D01*
X102686371Y-98449905D01*
X102360000Y-98667980D01*
X102360000Y-94265750D01*
X106465000Y-94265750D01*
X106465000Y-94706309D01*
X106561673Y-94939698D01*
X106740301Y-95118327D01*
X106973690Y-95215000D01*
X107664250Y-95215000D01*
X107823000Y-95056250D01*
X107823000Y-94107000D01*
X108077000Y-94107000D01*
X108077000Y-95056250D01*
X108235750Y-95215000D01*
X108926310Y-95215000D01*
X109159699Y-95118327D01*
X109338327Y-94939698D01*
X109435000Y-94706309D01*
X109435000Y-94265750D01*
X109276250Y-94107000D01*
X108077000Y-94107000D01*
X107823000Y-94107000D01*
X106623750Y-94107000D01*
X106465000Y-94265750D01*
X102360000Y-94265750D01*
X102360000Y-92710000D01*
X102302148Y-92419161D01*
X102302148Y-92419160D01*
X102137401Y-92172599D01*
X101265122Y-91300320D01*
X101265162Y-91254833D01*
X101123117Y-90911057D01*
X100860327Y-90647808D01*
X100516799Y-90505162D01*
X100144833Y-90504838D01*
X99801057Y-90646883D01*
X99537808Y-90909673D01*
X99395162Y-91253201D01*
X99394838Y-91625167D01*
X99536883Y-91968943D01*
X99799673Y-92232192D01*
X100143201Y-92374838D01*
X100190077Y-92374879D01*
X100840000Y-93024802D01*
X100840000Y-100650198D01*
X95672638Y-105817560D01*
X94650000Y-105817560D01*
X94414683Y-105861838D01*
X94198559Y-106000910D01*
X94053569Y-106213110D01*
X94002560Y-106465000D01*
X94002560Y-108165000D01*
X94046838Y-108400317D01*
X94117417Y-108510000D01*
X90861580Y-108510000D01*
X93970787Y-105400792D01*
X93970790Y-105400790D01*
X94162633Y-105113675D01*
X94173810Y-105057484D01*
X94230001Y-104775000D01*
X94230000Y-104774995D01*
X94230000Y-102377440D01*
X94745000Y-102377440D01*
X94980317Y-102333162D01*
X95196441Y-102194090D01*
X95341431Y-101981890D01*
X95392440Y-101730000D01*
X95392440Y-98930000D01*
X95348162Y-98694683D01*
X95209090Y-98478559D01*
X94996890Y-98333569D01*
X94745000Y-98282560D01*
X91945000Y-98282560D01*
X91709683Y-98326838D01*
X91493559Y-98465910D01*
X91348569Y-98678110D01*
X91297560Y-98930000D01*
X91297560Y-101017758D01*
X90930000Y-100650198D01*
X90930000Y-97320633D01*
X91253201Y-97454838D01*
X91625167Y-97455162D01*
X91968943Y-97313117D01*
X92232192Y-97050327D01*
X92374838Y-96706799D01*
X92375162Y-96334833D01*
X92233117Y-95991057D01*
X92200000Y-95957882D01*
X92200000Y-92710000D01*
X92142148Y-92419161D01*
X92142148Y-92419160D01*
X91977401Y-92172599D01*
X90707401Y-90902599D01*
X90460839Y-90737852D01*
X90307218Y-90707295D01*
X90414093Y-90170000D01*
X90341210Y-89803592D01*
X91119802Y-89025000D01*
X106919937Y-89025000D01*
X106797630Y-89106723D01*
X106529916Y-89507386D01*
X106435907Y-89980000D01*
X106529916Y-90452614D01*
X106797630Y-90853277D01*
X106987285Y-90980000D01*
X106797630Y-91106723D01*
X106529916Y-91507386D01*
X106435907Y-91980000D01*
X106529916Y-92452614D01*
X106779130Y-92825590D01*
X106740301Y-92841673D01*
X106561673Y-93020302D01*
X106465000Y-93253691D01*
X106465000Y-93694250D01*
X106623750Y-93853000D01*
X107823000Y-93853000D01*
X107823000Y-93833000D01*
X108077000Y-93833000D01*
X108077000Y-93853000D01*
X109276250Y-93853000D01*
X109435000Y-93694250D01*
X109435000Y-93253691D01*
X109338327Y-93020302D01*
X109159699Y-92841673D01*
X109120870Y-92825590D01*
X109370084Y-92452614D01*
X109464093Y-91980000D01*
X109370084Y-91507386D01*
X109102370Y-91106723D01*
X108912715Y-90980000D01*
X109102370Y-90853277D01*
X109370084Y-90452614D01*
X109464093Y-89980000D01*
X109370084Y-89507386D01*
X109150070Y-89178110D01*
X109683524Y-89178110D01*
X109804845Y-89408000D01*
X110998000Y-89408000D01*
X110998000Y-88214181D01*
X110768108Y-88093514D01*
X110243642Y-88339817D01*
X109853355Y-88768076D01*
X109683524Y-89178110D01*
X109150070Y-89178110D01*
X109102370Y-89106723D01*
X108884660Y-88961254D01*
X109122401Y-88802401D01*
X110102329Y-87822473D01*
X110275000Y-87857440D01*
X111975000Y-87857440D01*
X112145000Y-87825452D01*
X112145000Y-88491948D01*
X112006358Y-88339817D01*
X111481892Y-88093514D01*
X111252000Y-88214181D01*
X111252000Y-89408000D01*
X111272000Y-89408000D01*
X111272000Y-89662000D01*
X111252000Y-89662000D01*
X111252000Y-89682000D01*
X110998000Y-89682000D01*
X110998000Y-89662000D01*
X109804845Y-89662000D01*
X109683524Y-89891890D01*
X109853355Y-90301924D01*
X110243642Y-90730183D01*
X110386553Y-90797298D01*
X110045853Y-91024946D01*
X109723946Y-91506715D01*
X109610907Y-92075000D01*
X109723946Y-92643285D01*
X110045853Y-93125054D01*
X110087452Y-93152850D01*
X110039683Y-93161838D01*
X109823559Y-93300910D01*
X109678569Y-93513110D01*
X109627560Y-93765000D01*
X109627560Y-95465000D01*
X109671838Y-95700317D01*
X109810910Y-95916441D01*
X110023110Y-96061431D01*
X110131107Y-96083301D01*
X109853355Y-96388076D01*
X109683524Y-96798110D01*
X109804845Y-97028000D01*
X110998000Y-97028000D01*
X110998000Y-97008000D01*
X111252000Y-97008000D01*
X111252000Y-97028000D01*
X111272000Y-97028000D01*
X111272000Y-97282000D01*
X111252000Y-97282000D01*
X111252000Y-97302000D01*
X110998000Y-97302000D01*
X110998000Y-97282000D01*
X109804845Y-97282000D01*
X109683524Y-97511890D01*
X109853355Y-97921924D01*
X110243642Y-98350183D01*
X110386553Y-98417298D01*
X110045853Y-98644946D01*
X109723946Y-99126715D01*
X109610907Y-99695000D01*
X109723946Y-100263285D01*
X110045853Y-100745054D01*
X110087452Y-100772850D01*
X110039683Y-100781838D01*
X109823559Y-100920910D01*
X109678569Y-101133110D01*
X109627560Y-101385000D01*
X109627560Y-102880655D01*
X108981239Y-103147709D01*
X108230345Y-103897293D01*
X107823464Y-104877173D01*
X107822538Y-105938172D01*
X108227709Y-106918761D01*
X108977293Y-107669655D01*
X109957173Y-108076536D01*
X111018172Y-108077462D01*
X111998761Y-107672291D01*
X112749655Y-106922707D01*
X113156536Y-105942827D01*
X113157462Y-104881828D01*
X112752291Y-103901239D01*
X112410802Y-103559153D01*
X112426441Y-103549090D01*
X112571431Y-103336890D01*
X112622440Y-103085000D01*
X112622440Y-101385000D01*
X112578162Y-101149683D01*
X112439090Y-100933559D01*
X112226890Y-100788569D01*
X112159459Y-100774914D01*
X112204147Y-100745054D01*
X112526054Y-100263285D01*
X112639093Y-99695000D01*
X112595539Y-99476040D01*
X113655787Y-98415792D01*
X113655790Y-98415790D01*
X113847633Y-98128675D01*
X113858810Y-98072484D01*
X113915001Y-97790000D01*
X113915000Y-97789995D01*
X113915000Y-90170005D01*
X113915001Y-90170000D01*
X113915000Y-90169995D01*
X113915000Y-81915005D01*
X113915001Y-81915000D01*
X113915000Y-81914995D01*
X113915000Y-76835005D01*
X113915001Y-76835000D01*
X113847633Y-76496325D01*
X113796598Y-76419946D01*
X113655790Y-76209210D01*
X113655787Y-76209208D01*
X112546603Y-75100023D01*
X112526054Y-74996715D01*
X112204147Y-74514946D01*
X111863447Y-74287298D01*
X112006358Y-74220183D01*
X112396645Y-73791924D01*
X112566476Y-73381890D01*
X112445155Y-73152000D01*
X111252000Y-73152000D01*
X111252000Y-73172000D01*
X110998000Y-73172000D01*
X110998000Y-73152000D01*
X110978000Y-73152000D01*
X110978000Y-72898000D01*
X110998000Y-72898000D01*
X110998000Y-71704181D01*
X111252000Y-71704181D01*
X111252000Y-72898000D01*
X112445155Y-72898000D01*
X112566476Y-72668110D01*
X112396645Y-72258076D01*
X112006358Y-71829817D01*
X111481892Y-71583514D01*
X111252000Y-71704181D01*
X110998000Y-71704181D01*
X110768108Y-71583514D01*
X110243642Y-71829817D01*
X110000937Y-72096135D01*
X109132371Y-71227569D01*
X109220000Y-71245000D01*
X112045000Y-71245000D01*
X112335839Y-71187148D01*
X112582401Y-71022401D01*
X112869802Y-70735000D01*
X113309093Y-70735000D01*
X113781707Y-70640991D01*
X114182370Y-70373277D01*
X114450084Y-69972614D01*
X114544093Y-69500000D01*
X114450084Y-69027386D01*
X114182370Y-68626723D01*
X113992715Y-68500000D01*
X114182370Y-68373277D01*
X114450084Y-67972614D01*
X114544093Y-67500000D01*
X114471210Y-67133592D01*
X114837401Y-66767401D01*
X114860000Y-66733579D01*
X114860000Y-108510000D01*
X114860000Y-108510000D01*
G37*
X114860000Y-108510000D02*
X102059477Y-108510000D01*
X102123277Y-108467370D01*
X102390991Y-108066707D01*
X102485000Y-107594093D01*
X102485000Y-107035907D01*
X102390991Y-106563293D01*
X102123277Y-106162630D01*
X101722614Y-105894916D01*
X101250000Y-105800907D01*
X100777386Y-105894916D01*
X100376723Y-106162630D01*
X100250000Y-106352285D01*
X100123277Y-106162630D01*
X99722614Y-105894916D01*
X99250000Y-105800907D01*
X98777386Y-105894916D01*
X98376723Y-106162630D01*
X98247590Y-106355891D01*
X98079125Y-106133067D01*
X97718429Y-105921373D01*
X101963953Y-101675849D01*
X102026170Y-101768962D01*
X102686371Y-102210095D01*
X103465132Y-102365000D01*
X103544868Y-102365000D01*
X104323629Y-102210095D01*
X104983830Y-101768962D01*
X105424963Y-101108761D01*
X105579868Y-100330000D01*
X105424963Y-99551239D01*
X104983830Y-98891038D01*
X104323629Y-98449905D01*
X103544868Y-98295000D01*
X103465132Y-98295000D01*
X102686371Y-98449905D01*
X102360000Y-98667980D01*
X102360000Y-94265750D01*
X106465000Y-94265750D01*
X106465000Y-94706309D01*
X106561673Y-94939698D01*
X106740301Y-95118327D01*
X106973690Y-95215000D01*
X107664250Y-95215000D01*
X107823000Y-95056250D01*
X107823000Y-94107000D01*
X108077000Y-94107000D01*
X108077000Y-95056250D01*
X108235750Y-95215000D01*
X108926310Y-95215000D01*
X109159699Y-95118327D01*
X109338327Y-94939698D01*
X109435000Y-94706309D01*
X109435000Y-94265750D01*
X109276250Y-94107000D01*
X108077000Y-94107000D01*
X107823000Y-94107000D01*
X106623750Y-94107000D01*
X106465000Y-94265750D01*
X102360000Y-94265750D01*
X102360000Y-92710000D01*
X102302148Y-92419161D01*
X102302148Y-92419160D01*
X102137401Y-92172599D01*
X101265122Y-91300320D01*
X101265162Y-91254833D01*
X101123117Y-90911057D01*
X100860327Y-90647808D01*
X100516799Y-90505162D01*
X100144833Y-90504838D01*
X99801057Y-90646883D01*
X99537808Y-90909673D01*
X99395162Y-91253201D01*
X99394838Y-91625167D01*
X99536883Y-91968943D01*
X99799673Y-92232192D01*
X100143201Y-92374838D01*
X100190077Y-92374879D01*
X100840000Y-93024802D01*
X100840000Y-100650198D01*
X95672638Y-105817560D01*
X94650000Y-105817560D01*
X94414683Y-105861838D01*
X94198559Y-106000910D01*
X94053569Y-106213110D01*
X94002560Y-106465000D01*
X94002560Y-108165000D01*
X94046838Y-108400317D01*
X94117417Y-108510000D01*
X90861580Y-108510000D01*
X93970787Y-105400792D01*
X93970790Y-105400790D01*
X94162633Y-105113675D01*
X94173810Y-105057484D01*
X94230001Y-104775000D01*
X94230000Y-104774995D01*
X94230000Y-102377440D01*
X94745000Y-102377440D01*
X94980317Y-102333162D01*
X95196441Y-102194090D01*
X95341431Y-101981890D01*
X95392440Y-101730000D01*
X95392440Y-98930000D01*
X95348162Y-98694683D01*
X95209090Y-98478559D01*
X94996890Y-98333569D01*
X94745000Y-98282560D01*
X91945000Y-98282560D01*
X91709683Y-98326838D01*
X91493559Y-98465910D01*
X91348569Y-98678110D01*
X91297560Y-98930000D01*
X91297560Y-101017758D01*
X90930000Y-100650198D01*
X90930000Y-97320633D01*
X91253201Y-97454838D01*
X91625167Y-97455162D01*
X91968943Y-97313117D01*
X92232192Y-97050327D01*
X92374838Y-96706799D01*
X92375162Y-96334833D01*
X92233117Y-95991057D01*
X92200000Y-95957882D01*
X92200000Y-92710000D01*
X92142148Y-92419161D01*
X92142148Y-92419160D01*
X91977401Y-92172599D01*
X90707401Y-90902599D01*
X90460839Y-90737852D01*
X90307218Y-90707295D01*
X90414093Y-90170000D01*
X90341210Y-89803592D01*
X91119802Y-89025000D01*
X106919937Y-89025000D01*
X106797630Y-89106723D01*
X106529916Y-89507386D01*
X106435907Y-89980000D01*
X106529916Y-90452614D01*
X106797630Y-90853277D01*
X106987285Y-90980000D01*
X106797630Y-91106723D01*
X106529916Y-91507386D01*
X106435907Y-91980000D01*
X106529916Y-92452614D01*
X106779130Y-92825590D01*
X106740301Y-92841673D01*
X106561673Y-93020302D01*
X106465000Y-93253691D01*
X106465000Y-93694250D01*
X106623750Y-93853000D01*
X107823000Y-93853000D01*
X107823000Y-93833000D01*
X108077000Y-93833000D01*
X108077000Y-93853000D01*
X109276250Y-93853000D01*
X109435000Y-93694250D01*
X109435000Y-93253691D01*
X109338327Y-93020302D01*
X109159699Y-92841673D01*
X109120870Y-92825590D01*
X109370084Y-92452614D01*
X109464093Y-91980000D01*
X109370084Y-91507386D01*
X109102370Y-91106723D01*
X108912715Y-90980000D01*
X109102370Y-90853277D01*
X109370084Y-90452614D01*
X109464093Y-89980000D01*
X109370084Y-89507386D01*
X109150070Y-89178110D01*
X109683524Y-89178110D01*
X109804845Y-89408000D01*
X110998000Y-89408000D01*
X110998000Y-88214181D01*
X110768108Y-88093514D01*
X110243642Y-88339817D01*
X109853355Y-88768076D01*
X109683524Y-89178110D01*
X109150070Y-89178110D01*
X109102370Y-89106723D01*
X108884660Y-88961254D01*
X109122401Y-88802401D01*
X110102329Y-87822473D01*
X110275000Y-87857440D01*
X111975000Y-87857440D01*
X112145000Y-87825452D01*
X112145000Y-88491948D01*
X112006358Y-88339817D01*
X111481892Y-88093514D01*
X111252000Y-88214181D01*
X111252000Y-89408000D01*
X111272000Y-89408000D01*
X111272000Y-89662000D01*
X111252000Y-89662000D01*
X111252000Y-89682000D01*
X110998000Y-89682000D01*
X110998000Y-89662000D01*
X109804845Y-89662000D01*
X109683524Y-89891890D01*
X109853355Y-90301924D01*
X110243642Y-90730183D01*
X110386553Y-90797298D01*
X110045853Y-91024946D01*
X109723946Y-91506715D01*
X109610907Y-92075000D01*
X109723946Y-92643285D01*
X110045853Y-93125054D01*
X110087452Y-93152850D01*
X110039683Y-93161838D01*
X109823559Y-93300910D01*
X109678569Y-93513110D01*
X109627560Y-93765000D01*
X109627560Y-95465000D01*
X109671838Y-95700317D01*
X109810910Y-95916441D01*
X110023110Y-96061431D01*
X110131107Y-96083301D01*
X109853355Y-96388076D01*
X109683524Y-96798110D01*
X109804845Y-97028000D01*
X110998000Y-97028000D01*
X110998000Y-97008000D01*
X111252000Y-97008000D01*
X111252000Y-97028000D01*
X111272000Y-97028000D01*
X111272000Y-97282000D01*
X111252000Y-97282000D01*
X111252000Y-97302000D01*
X110998000Y-97302000D01*
X110998000Y-97282000D01*
X109804845Y-97282000D01*
X109683524Y-97511890D01*
X109853355Y-97921924D01*
X110243642Y-98350183D01*
X110386553Y-98417298D01*
X110045853Y-98644946D01*
X109723946Y-99126715D01*
X109610907Y-99695000D01*
X109723946Y-100263285D01*
X110045853Y-100745054D01*
X110087452Y-100772850D01*
X110039683Y-100781838D01*
X109823559Y-100920910D01*
X109678569Y-101133110D01*
X109627560Y-101385000D01*
X109627560Y-102880655D01*
X108981239Y-103147709D01*
X108230345Y-103897293D01*
X107823464Y-104877173D01*
X107822538Y-105938172D01*
X108227709Y-106918761D01*
X108977293Y-107669655D01*
X109957173Y-108076536D01*
X111018172Y-108077462D01*
X111998761Y-107672291D01*
X112749655Y-106922707D01*
X113156536Y-105942827D01*
X113157462Y-104881828D01*
X112752291Y-103901239D01*
X112410802Y-103559153D01*
X112426441Y-103549090D01*
X112571431Y-103336890D01*
X112622440Y-103085000D01*
X112622440Y-101385000D01*
X112578162Y-101149683D01*
X112439090Y-100933559D01*
X112226890Y-100788569D01*
X112159459Y-100774914D01*
X112204147Y-100745054D01*
X112526054Y-100263285D01*
X112639093Y-99695000D01*
X112595539Y-99476040D01*
X113655787Y-98415792D01*
X113655790Y-98415790D01*
X113847633Y-98128675D01*
X113858810Y-98072484D01*
X113915001Y-97790000D01*
X113915000Y-97789995D01*
X113915000Y-90170005D01*
X113915001Y-90170000D01*
X113915000Y-90169995D01*
X113915000Y-81915005D01*
X113915001Y-81915000D01*
X113915000Y-81914995D01*
X113915000Y-76835005D01*
X113915001Y-76835000D01*
X113847633Y-76496325D01*
X113796598Y-76419946D01*
X113655790Y-76209210D01*
X113655787Y-76209208D01*
X112546603Y-75100023D01*
X112526054Y-74996715D01*
X112204147Y-74514946D01*
X111863447Y-74287298D01*
X112006358Y-74220183D01*
X112396645Y-73791924D01*
X112566476Y-73381890D01*
X112445155Y-73152000D01*
X111252000Y-73152000D01*
X111252000Y-73172000D01*
X110998000Y-73172000D01*
X110998000Y-73152000D01*
X110978000Y-73152000D01*
X110978000Y-72898000D01*
X110998000Y-72898000D01*
X110998000Y-71704181D01*
X111252000Y-71704181D01*
X111252000Y-72898000D01*
X112445155Y-72898000D01*
X112566476Y-72668110D01*
X112396645Y-72258076D01*
X112006358Y-71829817D01*
X111481892Y-71583514D01*
X111252000Y-71704181D01*
X110998000Y-71704181D01*
X110768108Y-71583514D01*
X110243642Y-71829817D01*
X110000937Y-72096135D01*
X109132371Y-71227569D01*
X109220000Y-71245000D01*
X112045000Y-71245000D01*
X112335839Y-71187148D01*
X112582401Y-71022401D01*
X112869802Y-70735000D01*
X113309093Y-70735000D01*
X113781707Y-70640991D01*
X114182370Y-70373277D01*
X114450084Y-69972614D01*
X114544093Y-69500000D01*
X114450084Y-69027386D01*
X114182370Y-68626723D01*
X113992715Y-68500000D01*
X114182370Y-68373277D01*
X114450084Y-67972614D01*
X114544093Y-67500000D01*
X114471210Y-67133592D01*
X114837401Y-66767401D01*
X114860000Y-66733579D01*
X114860000Y-108510000D01*
G36*
X83695000Y-96520000D02*
X83752852Y-96810839D01*
X83917599Y-97057401D01*
X84894502Y-98034304D01*
X84958946Y-98358285D01*
X85280853Y-98840054D01*
X85610026Y-99060000D01*
X85280853Y-99279946D01*
X84958946Y-99761715D01*
X84845907Y-100330000D01*
X84958946Y-100898285D01*
X85280853Y-101380054D01*
X85762622Y-101701961D01*
X86330907Y-101815000D01*
X86389093Y-101815000D01*
X86706969Y-101751771D01*
X87698257Y-102743059D01*
X87101828Y-102742538D01*
X86121239Y-103147709D01*
X85370345Y-103897293D01*
X84963464Y-104877173D01*
X84962538Y-105938172D01*
X85367709Y-106918761D01*
X86117293Y-107669655D01*
X86190372Y-107700000D01*
X83551579Y-107700000D01*
X82320549Y-106468970D01*
X82549559Y-105917454D01*
X82550440Y-104906979D01*
X82164563Y-103973085D01*
X81450673Y-103257948D01*
X80517454Y-102870441D01*
X79506979Y-102869560D01*
X78573085Y-103255437D01*
X77857948Y-103969327D01*
X77470441Y-104902546D01*
X77469560Y-105913021D01*
X77855437Y-106846915D01*
X78569327Y-107562052D01*
X79502546Y-107949559D01*
X80513021Y-107950440D01*
X81069095Y-107720675D01*
X81858421Y-108510000D01*
X76910000Y-108510000D01*
X76910000Y-99596440D01*
X78383165Y-99596440D01*
X78592353Y-99957289D01*
X79529650Y-100334824D01*
X80540077Y-100324933D01*
X81427647Y-99957289D01*
X81636835Y-99596440D01*
X80010000Y-97969605D01*
X78383165Y-99596440D01*
X76910000Y-99596440D01*
X76910000Y-97309650D01*
X77465176Y-97309650D01*
X77475067Y-98320077D01*
X77842711Y-99207647D01*
X78203560Y-99416835D01*
X79830395Y-97790000D01*
X80189605Y-97790000D01*
X81816440Y-99416835D01*
X82177289Y-99207647D01*
X82554824Y-98270350D01*
X82544933Y-97259923D01*
X82177289Y-96372353D01*
X81816440Y-96163165D01*
X80189605Y-97790000D01*
X79830395Y-97790000D01*
X78203560Y-96163165D01*
X77842711Y-96372353D01*
X77465176Y-97309650D01*
X76910000Y-97309650D01*
X76910000Y-94671579D01*
X77479208Y-95240787D01*
X77479210Y-95240790D01*
X77680071Y-95375000D01*
X77766325Y-95432633D01*
X78105000Y-95500001D01*
X78105005Y-95500000D01*
X78888603Y-95500000D01*
X78592353Y-95622711D01*
X78383165Y-95983560D01*
X80010000Y-97610395D01*
X81636835Y-95983560D01*
X81427647Y-95622711D01*
X80490350Y-95245176D01*
X79986849Y-95250105D01*
X80000790Y-95240790D01*
X80000791Y-95240789D01*
X81715479Y-93526100D01*
X81885907Y-93560000D01*
X81944093Y-93560000D01*
X82512378Y-93446961D01*
X82994147Y-93125054D01*
X83316054Y-92643285D01*
X83429093Y-92075000D01*
X83316054Y-91506715D01*
X82994147Y-91024946D01*
X82952548Y-90997150D01*
X83000317Y-90988162D01*
X83216441Y-90849090D01*
X83361431Y-90636890D01*
X83412440Y-90385000D01*
X83412440Y-89289139D01*
X83695000Y-89006579D01*
X83695000Y-96520000D01*
X83695000Y-96520000D01*
G37*
X83695000Y-96520000D02*
X83752852Y-96810839D01*
X83917599Y-97057401D01*
X84894502Y-98034304D01*
X84958946Y-98358285D01*
X85280853Y-98840054D01*
X85610026Y-99060000D01*
X85280853Y-99279946D01*
X84958946Y-99761715D01*
X84845907Y-100330000D01*
X84958946Y-100898285D01*
X85280853Y-101380054D01*
X85762622Y-101701961D01*
X86330907Y-101815000D01*
X86389093Y-101815000D01*
X86706969Y-101751771D01*
X87698257Y-102743059D01*
X87101828Y-102742538D01*
X86121239Y-103147709D01*
X85370345Y-103897293D01*
X84963464Y-104877173D01*
X84962538Y-105938172D01*
X85367709Y-106918761D01*
X86117293Y-107669655D01*
X86190372Y-107700000D01*
X83551579Y-107700000D01*
X82320549Y-106468970D01*
X82549559Y-105917454D01*
X82550440Y-104906979D01*
X82164563Y-103973085D01*
X81450673Y-103257948D01*
X80517454Y-102870441D01*
X79506979Y-102869560D01*
X78573085Y-103255437D01*
X77857948Y-103969327D01*
X77470441Y-104902546D01*
X77469560Y-105913021D01*
X77855437Y-106846915D01*
X78569327Y-107562052D01*
X79502546Y-107949559D01*
X80513021Y-107950440D01*
X81069095Y-107720675D01*
X81858421Y-108510000D01*
X76910000Y-108510000D01*
X76910000Y-99596440D01*
X78383165Y-99596440D01*
X78592353Y-99957289D01*
X79529650Y-100334824D01*
X80540077Y-100324933D01*
X81427647Y-99957289D01*
X81636835Y-99596440D01*
X80010000Y-97969605D01*
X78383165Y-99596440D01*
X76910000Y-99596440D01*
X76910000Y-97309650D01*
X77465176Y-97309650D01*
X77475067Y-98320077D01*
X77842711Y-99207647D01*
X78203560Y-99416835D01*
X79830395Y-97790000D01*
X80189605Y-97790000D01*
X81816440Y-99416835D01*
X82177289Y-99207647D01*
X82554824Y-98270350D01*
X82544933Y-97259923D01*
X82177289Y-96372353D01*
X81816440Y-96163165D01*
X80189605Y-97790000D01*
X79830395Y-97790000D01*
X78203560Y-96163165D01*
X77842711Y-96372353D01*
X77465176Y-97309650D01*
X76910000Y-97309650D01*
X76910000Y-94671579D01*
X77479208Y-95240787D01*
X77479210Y-95240790D01*
X77680071Y-95375000D01*
X77766325Y-95432633D01*
X78105000Y-95500001D01*
X78105005Y-95500000D01*
X78888603Y-95500000D01*
X78592353Y-95622711D01*
X78383165Y-95983560D01*
X80010000Y-97610395D01*
X81636835Y-95983560D01*
X81427647Y-95622711D01*
X80490350Y-95245176D01*
X79986849Y-95250105D01*
X80000790Y-95240790D01*
X80000791Y-95240789D01*
X81715479Y-93526100D01*
X81885907Y-93560000D01*
X81944093Y-93560000D01*
X82512378Y-93446961D01*
X82994147Y-93125054D01*
X83316054Y-92643285D01*
X83429093Y-92075000D01*
X83316054Y-91506715D01*
X82994147Y-91024946D01*
X82952548Y-90997150D01*
X83000317Y-90988162D01*
X83216441Y-90849090D01*
X83361431Y-90636890D01*
X83412440Y-90385000D01*
X83412440Y-89289139D01*
X83695000Y-89006579D01*
X83695000Y-96520000D01*
G36*
X97377000Y-107188000D02*
X97397000Y-107188000D01*
X97397000Y-107442000D01*
X97377000Y-107442000D01*
X97377000Y-107462000D01*
X97123000Y-107462000D01*
X97123000Y-107442000D01*
X97103000Y-107442000D01*
X97103000Y-107188000D01*
X97123000Y-107188000D01*
X97123000Y-107168000D01*
X97377000Y-107168000D01*
X97377000Y-107188000D01*
X97377000Y-107188000D01*
G37*
X97377000Y-107188000D02*
X97397000Y-107188000D01*
X97397000Y-107442000D01*
X97377000Y-107442000D01*
X97377000Y-107462000D01*
X97123000Y-107462000D01*
X97123000Y-107442000D01*
X97103000Y-107442000D01*
X97103000Y-107188000D01*
X97123000Y-107188000D01*
X97123000Y-107168000D01*
X97377000Y-107168000D01*
X97377000Y-107188000D01*
G36*
X89027000Y-100203000D02*
X89047000Y-100203000D01*
X89047000Y-100457000D01*
X89027000Y-100457000D01*
X89027000Y-100477000D01*
X88773000Y-100477000D01*
X88773000Y-100457000D01*
X88753000Y-100457000D01*
X88753000Y-100203000D01*
X88773000Y-100203000D01*
X88773000Y-100183000D01*
X89027000Y-100183000D01*
X89027000Y-100203000D01*
X89027000Y-100203000D01*
G37*
X89027000Y-100203000D02*
X89047000Y-100203000D01*
X89047000Y-100457000D01*
X89027000Y-100457000D01*
X89027000Y-100477000D01*
X88773000Y-100477000D01*
X88773000Y-100457000D01*
X88753000Y-100457000D01*
X88753000Y-100203000D01*
X88773000Y-100203000D01*
X88773000Y-100183000D01*
X89027000Y-100183000D01*
X89027000Y-100203000D01*
G36*
X80178110Y-64946431D02*
X80430000Y-64997440D01*
X82130000Y-64997440D01*
X82300000Y-64965452D01*
X82300000Y-72136861D01*
X82180000Y-72112560D01*
X80380000Y-72112560D01*
X80144683Y-72156838D01*
X79928559Y-72295910D01*
X79783569Y-72508110D01*
X79732560Y-72760000D01*
X79732560Y-74560000D01*
X79776838Y-74795317D01*
X79915910Y-75011441D01*
X80128110Y-75156431D01*
X80179146Y-75166766D01*
X80042034Y-75292424D01*
X79788954Y-75835258D01*
X79909003Y-76073000D01*
X81153000Y-76073000D01*
X81153000Y-76053000D01*
X81407000Y-76053000D01*
X81407000Y-76073000D01*
X81427000Y-76073000D01*
X81427000Y-76327000D01*
X81407000Y-76327000D01*
X81407000Y-76347000D01*
X81153000Y-76347000D01*
X81153000Y-76327000D01*
X79909003Y-76327000D01*
X79788954Y-76564742D01*
X80042034Y-77107576D01*
X80432582Y-77465499D01*
X80194591Y-77624519D01*
X79861845Y-78122509D01*
X79745000Y-78709928D01*
X79745000Y-78770072D01*
X79861845Y-79357491D01*
X80194591Y-79855481D01*
X80692581Y-80188227D01*
X81280000Y-80305072D01*
X81867419Y-80188227D01*
X82300000Y-79899186D01*
X82300000Y-87898421D01*
X82160861Y-88037560D01*
X81065000Y-88037560D01*
X80829683Y-88081838D01*
X80613559Y-88220910D01*
X80468569Y-88433110D01*
X80417560Y-88685000D01*
X80417560Y-90385000D01*
X80461838Y-90620317D01*
X80600910Y-90836441D01*
X80813110Y-90981431D01*
X80880541Y-90995086D01*
X80835853Y-91024946D01*
X80513946Y-91506715D01*
X80400907Y-92075000D01*
X80444461Y-92293960D01*
X80093059Y-92645362D01*
X80181476Y-92431890D01*
X80060155Y-92202000D01*
X78867000Y-92202000D01*
X78867000Y-93395819D01*
X79096892Y-93516486D01*
X79332654Y-93405766D01*
X79008420Y-93730000D01*
X78471579Y-93730000D01*
X78147345Y-93405765D01*
X78383108Y-93516486D01*
X78613000Y-93395819D01*
X78613000Y-92202000D01*
X78593000Y-92202000D01*
X78593000Y-91948000D01*
X78613000Y-91948000D01*
X78613000Y-91928000D01*
X78867000Y-91928000D01*
X78867000Y-91948000D01*
X80060155Y-91948000D01*
X80181476Y-91718110D01*
X80011645Y-91308076D01*
X79735499Y-91005063D01*
X79825317Y-90988162D01*
X80041441Y-90849090D01*
X80186431Y-90636890D01*
X80237440Y-90385000D01*
X80237440Y-88685000D01*
X80193162Y-88449683D01*
X80054090Y-88233559D01*
X79841890Y-88088569D01*
X79590000Y-88037560D01*
X77890000Y-88037560D01*
X77720000Y-88069548D01*
X77720000Y-84740750D01*
X79160000Y-84740750D01*
X79160000Y-85181309D01*
X79256673Y-85414698D01*
X79435301Y-85593327D01*
X79668690Y-85690000D01*
X80359250Y-85690000D01*
X80518000Y-85531250D01*
X80518000Y-84582000D01*
X80772000Y-84582000D01*
X80772000Y-85531250D01*
X80930750Y-85690000D01*
X81621310Y-85690000D01*
X81854699Y-85593327D01*
X82033327Y-85414698D01*
X82130000Y-85181309D01*
X82130000Y-84740750D01*
X81971250Y-84582000D01*
X80772000Y-84582000D01*
X80518000Y-84582000D01*
X79318750Y-84582000D01*
X79160000Y-84740750D01*
X77720000Y-84740750D01*
X77720000Y-82455000D01*
X79130907Y-82455000D01*
X79224916Y-82927614D01*
X79474130Y-83300590D01*
X79435301Y-83316673D01*
X79256673Y-83495302D01*
X79160000Y-83728691D01*
X79160000Y-84169250D01*
X79318750Y-84328000D01*
X80518000Y-84328000D01*
X80518000Y-84308000D01*
X80772000Y-84308000D01*
X80772000Y-84328000D01*
X81971250Y-84328000D01*
X82130000Y-84169250D01*
X82130000Y-83728691D01*
X82033327Y-83495302D01*
X81854699Y-83316673D01*
X81815870Y-83300590D01*
X82065084Y-82927614D01*
X82159093Y-82455000D01*
X82065084Y-81982386D01*
X81797370Y-81581723D01*
X81396707Y-81314009D01*
X80924093Y-81220000D01*
X80365907Y-81220000D01*
X79893293Y-81314009D01*
X79492630Y-81581723D01*
X79224916Y-81982386D01*
X79130907Y-82455000D01*
X77720000Y-82455000D01*
X77720000Y-70135750D01*
X79160000Y-70135750D01*
X79160000Y-70576309D01*
X79256673Y-70809698D01*
X79435301Y-70988327D01*
X79668690Y-71085000D01*
X80359250Y-71085000D01*
X80518000Y-70926250D01*
X80518000Y-69977000D01*
X80772000Y-69977000D01*
X80772000Y-70926250D01*
X80930750Y-71085000D01*
X81621310Y-71085000D01*
X81854699Y-70988327D01*
X82033327Y-70809698D01*
X82130000Y-70576309D01*
X82130000Y-70135750D01*
X81971250Y-69977000D01*
X80772000Y-69977000D01*
X80518000Y-69977000D01*
X79318750Y-69977000D01*
X79160000Y-70135750D01*
X77720000Y-70135750D01*
X77720000Y-67850000D01*
X79130907Y-67850000D01*
X79224916Y-68322614D01*
X79474130Y-68695590D01*
X79435301Y-68711673D01*
X79256673Y-68890302D01*
X79160000Y-69123691D01*
X79160000Y-69564250D01*
X79318750Y-69723000D01*
X80518000Y-69723000D01*
X80518000Y-69703000D01*
X80772000Y-69703000D01*
X80772000Y-69723000D01*
X81971250Y-69723000D01*
X82130000Y-69564250D01*
X82130000Y-69123691D01*
X82033327Y-68890302D01*
X81854699Y-68711673D01*
X81815870Y-68695590D01*
X82065084Y-68322614D01*
X82159093Y-67850000D01*
X82065084Y-67377386D01*
X81797370Y-66976723D01*
X81396707Y-66709009D01*
X80924093Y-66615000D01*
X80365907Y-66615000D01*
X79893293Y-66709009D01*
X79492630Y-66976723D01*
X79224916Y-67377386D01*
X79130907Y-67850000D01*
X77720000Y-67850000D01*
X77720000Y-64963014D01*
X77890000Y-64997440D01*
X79590000Y-64997440D01*
X79825317Y-64953162D01*
X80012077Y-64832985D01*
X80178110Y-64946431D01*
X80178110Y-64946431D01*
G37*
X80178110Y-64946431D02*
X80430000Y-64997440D01*
X82130000Y-64997440D01*
X82300000Y-64965452D01*
X82300000Y-72136861D01*
X82180000Y-72112560D01*
X80380000Y-72112560D01*
X80144683Y-72156838D01*
X79928559Y-72295910D01*
X79783569Y-72508110D01*
X79732560Y-72760000D01*
X79732560Y-74560000D01*
X79776838Y-74795317D01*
X79915910Y-75011441D01*
X80128110Y-75156431D01*
X80179146Y-75166766D01*
X80042034Y-75292424D01*
X79788954Y-75835258D01*
X79909003Y-76073000D01*
X81153000Y-76073000D01*
X81153000Y-76053000D01*
X81407000Y-76053000D01*
X81407000Y-76073000D01*
X81427000Y-76073000D01*
X81427000Y-76327000D01*
X81407000Y-76327000D01*
X81407000Y-76347000D01*
X81153000Y-76347000D01*
X81153000Y-76327000D01*
X79909003Y-76327000D01*
X79788954Y-76564742D01*
X80042034Y-77107576D01*
X80432582Y-77465499D01*
X80194591Y-77624519D01*
X79861845Y-78122509D01*
X79745000Y-78709928D01*
X79745000Y-78770072D01*
X79861845Y-79357491D01*
X80194591Y-79855481D01*
X80692581Y-80188227D01*
X81280000Y-80305072D01*
X81867419Y-80188227D01*
X82300000Y-79899186D01*
X82300000Y-87898421D01*
X82160861Y-88037560D01*
X81065000Y-88037560D01*
X80829683Y-88081838D01*
X80613559Y-88220910D01*
X80468569Y-88433110D01*
X80417560Y-88685000D01*
X80417560Y-90385000D01*
X80461838Y-90620317D01*
X80600910Y-90836441D01*
X80813110Y-90981431D01*
X80880541Y-90995086D01*
X80835853Y-91024946D01*
X80513946Y-91506715D01*
X80400907Y-92075000D01*
X80444461Y-92293960D01*
X80093059Y-92645362D01*
X80181476Y-92431890D01*
X80060155Y-92202000D01*
X78867000Y-92202000D01*
X78867000Y-93395819D01*
X79096892Y-93516486D01*
X79332654Y-93405766D01*
X79008420Y-93730000D01*
X78471579Y-93730000D01*
X78147345Y-93405765D01*
X78383108Y-93516486D01*
X78613000Y-93395819D01*
X78613000Y-92202000D01*
X78593000Y-92202000D01*
X78593000Y-91948000D01*
X78613000Y-91948000D01*
X78613000Y-91928000D01*
X78867000Y-91928000D01*
X78867000Y-91948000D01*
X80060155Y-91948000D01*
X80181476Y-91718110D01*
X80011645Y-91308076D01*
X79735499Y-91005063D01*
X79825317Y-90988162D01*
X80041441Y-90849090D01*
X80186431Y-90636890D01*
X80237440Y-90385000D01*
X80237440Y-88685000D01*
X80193162Y-88449683D01*
X80054090Y-88233559D01*
X79841890Y-88088569D01*
X79590000Y-88037560D01*
X77890000Y-88037560D01*
X77720000Y-88069548D01*
X77720000Y-84740750D01*
X79160000Y-84740750D01*
X79160000Y-85181309D01*
X79256673Y-85414698D01*
X79435301Y-85593327D01*
X79668690Y-85690000D01*
X80359250Y-85690000D01*
X80518000Y-85531250D01*
X80518000Y-84582000D01*
X80772000Y-84582000D01*
X80772000Y-85531250D01*
X80930750Y-85690000D01*
X81621310Y-85690000D01*
X81854699Y-85593327D01*
X82033327Y-85414698D01*
X82130000Y-85181309D01*
X82130000Y-84740750D01*
X81971250Y-84582000D01*
X80772000Y-84582000D01*
X80518000Y-84582000D01*
X79318750Y-84582000D01*
X79160000Y-84740750D01*
X77720000Y-84740750D01*
X77720000Y-82455000D01*
X79130907Y-82455000D01*
X79224916Y-82927614D01*
X79474130Y-83300590D01*
X79435301Y-83316673D01*
X79256673Y-83495302D01*
X79160000Y-83728691D01*
X79160000Y-84169250D01*
X79318750Y-84328000D01*
X80518000Y-84328000D01*
X80518000Y-84308000D01*
X80772000Y-84308000D01*
X80772000Y-84328000D01*
X81971250Y-84328000D01*
X82130000Y-84169250D01*
X82130000Y-83728691D01*
X82033327Y-83495302D01*
X81854699Y-83316673D01*
X81815870Y-83300590D01*
X82065084Y-82927614D01*
X82159093Y-82455000D01*
X82065084Y-81982386D01*
X81797370Y-81581723D01*
X81396707Y-81314009D01*
X80924093Y-81220000D01*
X80365907Y-81220000D01*
X79893293Y-81314009D01*
X79492630Y-81581723D01*
X79224916Y-81982386D01*
X79130907Y-82455000D01*
X77720000Y-82455000D01*
X77720000Y-70135750D01*
X79160000Y-70135750D01*
X79160000Y-70576309D01*
X79256673Y-70809698D01*
X79435301Y-70988327D01*
X79668690Y-71085000D01*
X80359250Y-71085000D01*
X80518000Y-70926250D01*
X80518000Y-69977000D01*
X80772000Y-69977000D01*
X80772000Y-70926250D01*
X80930750Y-71085000D01*
X81621310Y-71085000D01*
X81854699Y-70988327D01*
X82033327Y-70809698D01*
X82130000Y-70576309D01*
X82130000Y-70135750D01*
X81971250Y-69977000D01*
X80772000Y-69977000D01*
X80518000Y-69977000D01*
X79318750Y-69977000D01*
X79160000Y-70135750D01*
X77720000Y-70135750D01*
X77720000Y-67850000D01*
X79130907Y-67850000D01*
X79224916Y-68322614D01*
X79474130Y-68695590D01*
X79435301Y-68711673D01*
X79256673Y-68890302D01*
X79160000Y-69123691D01*
X79160000Y-69564250D01*
X79318750Y-69723000D01*
X80518000Y-69723000D01*
X80518000Y-69703000D01*
X80772000Y-69703000D01*
X80772000Y-69723000D01*
X81971250Y-69723000D01*
X82130000Y-69564250D01*
X82130000Y-69123691D01*
X82033327Y-68890302D01*
X81854699Y-68711673D01*
X81815870Y-68695590D01*
X82065084Y-68322614D01*
X82159093Y-67850000D01*
X82065084Y-67377386D01*
X81797370Y-66976723D01*
X81396707Y-66709009D01*
X80924093Y-66615000D01*
X80365907Y-66615000D01*
X79893293Y-66709009D01*
X79492630Y-66976723D01*
X79224916Y-67377386D01*
X79130907Y-67850000D01*
X77720000Y-67850000D01*
X77720000Y-64963014D01*
X77890000Y-64997440D01*
X79590000Y-64997440D01*
X79825317Y-64953162D01*
X80012077Y-64832985D01*
X80178110Y-64946431D01*
G36*
X109152852Y-74585839D02*
X109317599Y-74832401D01*
X109683790Y-75198592D01*
X109610907Y-75565000D01*
X109723946Y-76133285D01*
X110045853Y-76615054D01*
X110087452Y-76642850D01*
X110039683Y-76651838D01*
X109823559Y-76790910D01*
X109678569Y-77003110D01*
X109627560Y-77255000D01*
X109627560Y-78955000D01*
X109671838Y-79190317D01*
X109810910Y-79406441D01*
X110023110Y-79551431D01*
X110275000Y-79602440D01*
X111975000Y-79602440D01*
X112145000Y-79570452D01*
X112145000Y-80236948D01*
X112006358Y-80084817D01*
X111481892Y-79838514D01*
X111252000Y-79959181D01*
X111252000Y-81153000D01*
X111272000Y-81153000D01*
X111272000Y-81407000D01*
X111252000Y-81407000D01*
X111252000Y-81427000D01*
X110998000Y-81427000D01*
X110998000Y-81407000D01*
X109804845Y-81407000D01*
X109683524Y-81636890D01*
X109853355Y-82046924D01*
X110243642Y-82475183D01*
X110386553Y-82542298D01*
X110045853Y-82769946D01*
X109723946Y-83251715D01*
X109610907Y-83820000D01*
X109723946Y-84388285D01*
X110045853Y-84870054D01*
X110087452Y-84897850D01*
X110039683Y-84906838D01*
X109823559Y-85045910D01*
X109678569Y-85258110D01*
X109627560Y-85510000D01*
X109627560Y-86147638D01*
X109435000Y-86340198D01*
X109435000Y-86010750D01*
X109276250Y-85852000D01*
X108077000Y-85852000D01*
X108077000Y-86801250D01*
X108235750Y-86960000D01*
X108815198Y-86960000D01*
X108270198Y-87505000D01*
X103035633Y-87505000D01*
X103169838Y-87181799D01*
X103169879Y-87134923D01*
X103819802Y-86485000D01*
X106045000Y-86485000D01*
X106335839Y-86427148D01*
X106465000Y-86340846D01*
X106465000Y-86451309D01*
X106561673Y-86684698D01*
X106740301Y-86863327D01*
X106973690Y-86960000D01*
X107664250Y-86960000D01*
X107823000Y-86801250D01*
X107823000Y-85852000D01*
X107803000Y-85852000D01*
X107803000Y-85598000D01*
X107823000Y-85598000D01*
X107823000Y-85578000D01*
X108077000Y-85578000D01*
X108077000Y-85598000D01*
X109276250Y-85598000D01*
X109435000Y-85439250D01*
X109435000Y-84998691D01*
X109338327Y-84765302D01*
X109159699Y-84586673D01*
X109120870Y-84570590D01*
X109370084Y-84197614D01*
X109464093Y-83725000D01*
X109370084Y-83252386D01*
X109102370Y-82851723D01*
X108912715Y-82725000D01*
X109102370Y-82598277D01*
X109370084Y-82197614D01*
X109464093Y-81725000D01*
X109370084Y-81252386D01*
X109150070Y-80923110D01*
X109683524Y-80923110D01*
X109804845Y-81153000D01*
X110998000Y-81153000D01*
X110998000Y-79959181D01*
X110768108Y-79838514D01*
X110243642Y-80084817D01*
X109853355Y-80513076D01*
X109683524Y-80923110D01*
X109150070Y-80923110D01*
X109102370Y-80851723D01*
X108701707Y-80584009D01*
X108229093Y-80490000D01*
X107670907Y-80490000D01*
X107198293Y-80584009D01*
X106805000Y-80846799D01*
X106805000Y-78635126D01*
X106973690Y-78705000D01*
X107664250Y-78705000D01*
X107823000Y-78546250D01*
X107823000Y-77597000D01*
X108077000Y-77597000D01*
X108077000Y-78546250D01*
X108235750Y-78705000D01*
X108926310Y-78705000D01*
X109159699Y-78608327D01*
X109338327Y-78429698D01*
X109435000Y-78196309D01*
X109435000Y-77755750D01*
X109276250Y-77597000D01*
X108077000Y-77597000D01*
X107823000Y-77597000D01*
X107803000Y-77597000D01*
X107803000Y-77343000D01*
X107823000Y-77343000D01*
X107823000Y-77323000D01*
X108077000Y-77323000D01*
X108077000Y-77343000D01*
X109276250Y-77343000D01*
X109435000Y-77184250D01*
X109435000Y-76743691D01*
X109338327Y-76510302D01*
X109159699Y-76331673D01*
X109120870Y-76315590D01*
X109370084Y-75942614D01*
X109464093Y-75470000D01*
X109370084Y-74997386D01*
X109102370Y-74596723D01*
X108912715Y-74470000D01*
X109102370Y-74343277D01*
X109104091Y-74340702D01*
X109152852Y-74585839D01*
X109152852Y-74585839D01*
G37*
X109152852Y-74585839D02*
X109317599Y-74832401D01*
X109683790Y-75198592D01*
X109610907Y-75565000D01*
X109723946Y-76133285D01*
X110045853Y-76615054D01*
X110087452Y-76642850D01*
X110039683Y-76651838D01*
X109823559Y-76790910D01*
X109678569Y-77003110D01*
X109627560Y-77255000D01*
X109627560Y-78955000D01*
X109671838Y-79190317D01*
X109810910Y-79406441D01*
X110023110Y-79551431D01*
X110275000Y-79602440D01*
X111975000Y-79602440D01*
X112145000Y-79570452D01*
X112145000Y-80236948D01*
X112006358Y-80084817D01*
X111481892Y-79838514D01*
X111252000Y-79959181D01*
X111252000Y-81153000D01*
X111272000Y-81153000D01*
X111272000Y-81407000D01*
X111252000Y-81407000D01*
X111252000Y-81427000D01*
X110998000Y-81427000D01*
X110998000Y-81407000D01*
X109804845Y-81407000D01*
X109683524Y-81636890D01*
X109853355Y-82046924D01*
X110243642Y-82475183D01*
X110386553Y-82542298D01*
X110045853Y-82769946D01*
X109723946Y-83251715D01*
X109610907Y-83820000D01*
X109723946Y-84388285D01*
X110045853Y-84870054D01*
X110087452Y-84897850D01*
X110039683Y-84906838D01*
X109823559Y-85045910D01*
X109678569Y-85258110D01*
X109627560Y-85510000D01*
X109627560Y-86147638D01*
X109435000Y-86340198D01*
X109435000Y-86010750D01*
X109276250Y-85852000D01*
X108077000Y-85852000D01*
X108077000Y-86801250D01*
X108235750Y-86960000D01*
X108815198Y-86960000D01*
X108270198Y-87505000D01*
X103035633Y-87505000D01*
X103169838Y-87181799D01*
X103169879Y-87134923D01*
X103819802Y-86485000D01*
X106045000Y-86485000D01*
X106335839Y-86427148D01*
X106465000Y-86340846D01*
X106465000Y-86451309D01*
X106561673Y-86684698D01*
X106740301Y-86863327D01*
X106973690Y-86960000D01*
X107664250Y-86960000D01*
X107823000Y-86801250D01*
X107823000Y-85852000D01*
X107803000Y-85852000D01*
X107803000Y-85598000D01*
X107823000Y-85598000D01*
X107823000Y-85578000D01*
X108077000Y-85578000D01*
X108077000Y-85598000D01*
X109276250Y-85598000D01*
X109435000Y-85439250D01*
X109435000Y-84998691D01*
X109338327Y-84765302D01*
X109159699Y-84586673D01*
X109120870Y-84570590D01*
X109370084Y-84197614D01*
X109464093Y-83725000D01*
X109370084Y-83252386D01*
X109102370Y-82851723D01*
X108912715Y-82725000D01*
X109102370Y-82598277D01*
X109370084Y-82197614D01*
X109464093Y-81725000D01*
X109370084Y-81252386D01*
X109150070Y-80923110D01*
X109683524Y-80923110D01*
X109804845Y-81153000D01*
X110998000Y-81153000D01*
X110998000Y-79959181D01*
X110768108Y-79838514D01*
X110243642Y-80084817D01*
X109853355Y-80513076D01*
X109683524Y-80923110D01*
X109150070Y-80923110D01*
X109102370Y-80851723D01*
X108701707Y-80584009D01*
X108229093Y-80490000D01*
X107670907Y-80490000D01*
X107198293Y-80584009D01*
X106805000Y-80846799D01*
X106805000Y-78635126D01*
X106973690Y-78705000D01*
X107664250Y-78705000D01*
X107823000Y-78546250D01*
X107823000Y-77597000D01*
X108077000Y-77597000D01*
X108077000Y-78546250D01*
X108235750Y-78705000D01*
X108926310Y-78705000D01*
X109159699Y-78608327D01*
X109338327Y-78429698D01*
X109435000Y-78196309D01*
X109435000Y-77755750D01*
X109276250Y-77597000D01*
X108077000Y-77597000D01*
X107823000Y-77597000D01*
X107803000Y-77597000D01*
X107803000Y-77343000D01*
X107823000Y-77343000D01*
X107823000Y-77323000D01*
X108077000Y-77323000D01*
X108077000Y-77343000D01*
X109276250Y-77343000D01*
X109435000Y-77184250D01*
X109435000Y-76743691D01*
X109338327Y-76510302D01*
X109159699Y-76331673D01*
X109120870Y-76315590D01*
X109370084Y-75942614D01*
X109464093Y-75470000D01*
X109370084Y-74997386D01*
X109102370Y-74596723D01*
X108912715Y-74470000D01*
X109102370Y-74343277D01*
X109104091Y-74340702D01*
X109152852Y-74585839D01*
G36*
X97980853Y-58200054D02*
X98300000Y-58413301D01*
X98300000Y-69535198D01*
X97475198Y-70360000D01*
X94544802Y-70360000D01*
X97057401Y-67847401D01*
X97222148Y-67600840D01*
X97242206Y-67500000D01*
X97280000Y-67310000D01*
X97280000Y-58413301D01*
X97599147Y-58200054D01*
X97790000Y-57914422D01*
X97980853Y-58200054D01*
X97980853Y-58200054D01*
G37*
X97980853Y-58200054D02*
X98300000Y-58413301D01*
X98300000Y-69535198D01*
X97475198Y-70360000D01*
X94544802Y-70360000D01*
X97057401Y-67847401D01*
X97222148Y-67600840D01*
X97242206Y-67500000D01*
X97280000Y-67310000D01*
X97280000Y-58413301D01*
X97599147Y-58200054D01*
X97790000Y-57914422D01*
X97980853Y-58200054D01*
G36*
X95440853Y-58200054D02*
X95760000Y-58413301D01*
X95760000Y-66995198D01*
X93665198Y-69090000D01*
X90172954Y-69090000D01*
X89979147Y-68799946D01*
X89649974Y-68580000D01*
X89979147Y-68360054D01*
X90301054Y-67878285D01*
X90414093Y-67310000D01*
X90301054Y-66741715D01*
X89979147Y-66259946D01*
X89649974Y-66040000D01*
X89979147Y-65820054D01*
X90301054Y-65338285D01*
X90414093Y-64770000D01*
X90341210Y-64403592D01*
X90707401Y-64037401D01*
X90872148Y-63790840D01*
X90930000Y-63500000D01*
X90930000Y-62544802D01*
X91754802Y-61720000D01*
X92710000Y-61720000D01*
X93000839Y-61662148D01*
X93247401Y-61497401D01*
X94517401Y-60227401D01*
X94682148Y-59980840D01*
X94740000Y-59690000D01*
X94740000Y-58413301D01*
X95059147Y-58200054D01*
X95250000Y-57914422D01*
X95440853Y-58200054D01*
X95440853Y-58200054D01*
G37*
X95440853Y-58200054D02*
X95760000Y-58413301D01*
X95760000Y-66995198D01*
X93665198Y-69090000D01*
X90172954Y-69090000D01*
X89979147Y-68799946D01*
X89649974Y-68580000D01*
X89979147Y-68360054D01*
X90301054Y-67878285D01*
X90414093Y-67310000D01*
X90301054Y-66741715D01*
X89979147Y-66259946D01*
X89649974Y-66040000D01*
X89979147Y-65820054D01*
X90301054Y-65338285D01*
X90414093Y-64770000D01*
X90341210Y-64403592D01*
X90707401Y-64037401D01*
X90872148Y-63790840D01*
X90930000Y-63500000D01*
X90930000Y-62544802D01*
X91754802Y-61720000D01*
X92710000Y-61720000D01*
X93000839Y-61662148D01*
X93247401Y-61497401D01*
X94517401Y-60227401D01*
X94682148Y-59980840D01*
X94740000Y-59690000D01*
X94740000Y-58413301D01*
X95059147Y-58200054D01*
X95250000Y-57914422D01*
X95440853Y-58200054D01*
G36*
X110617000Y-67088000D02*
X110637000Y-67088000D01*
X110637000Y-67342000D01*
X110617000Y-67342000D01*
X110617000Y-67362000D01*
X110363000Y-67362000D01*
X110363000Y-67342000D01*
X110343000Y-67342000D01*
X110343000Y-67088000D01*
X110363000Y-67088000D01*
X110363000Y-67068000D01*
X110617000Y-67068000D01*
X110617000Y-67088000D01*
X110617000Y-67088000D01*
G37*
X110617000Y-67088000D02*
X110637000Y-67088000D01*
X110637000Y-67342000D01*
X110617000Y-67342000D01*
X110617000Y-67362000D01*
X110363000Y-67362000D01*
X110363000Y-67342000D01*
X110343000Y-67342000D01*
X110343000Y-67088000D01*
X110363000Y-67088000D01*
X110363000Y-67068000D01*
X110617000Y-67068000D01*
X110617000Y-67088000D01*
G36*
X113157000Y-65373000D02*
X113177000Y-65373000D01*
X113177000Y-65627000D01*
X113157000Y-65627000D01*
X113157000Y-65647000D01*
X112903000Y-65647000D01*
X112903000Y-65627000D01*
X112883000Y-65627000D01*
X112883000Y-65373000D01*
X112903000Y-65373000D01*
X112903000Y-65353000D01*
X113157000Y-65353000D01*
X113157000Y-65373000D01*
X113157000Y-65373000D01*
G37*
X113157000Y-65373000D02*
X113177000Y-65373000D01*
X113177000Y-65627000D01*
X113157000Y-65627000D01*
X113157000Y-65647000D01*
X112903000Y-65647000D01*
X112903000Y-65627000D01*
X112883000Y-65627000D01*
X112883000Y-65373000D01*
X112903000Y-65373000D01*
X112903000Y-65353000D01*
X113157000Y-65353000D01*
X113157000Y-65373000D01*
G36*
X92900853Y-58200054D02*
X93220000Y-58413301D01*
X93220000Y-59375198D01*
X92395198Y-60200000D01*
X91440000Y-60200000D01*
X91149160Y-60257852D01*
X90902599Y-60422599D01*
X90045679Y-61279519D01*
X89979147Y-61179946D01*
X89649974Y-60960000D01*
X89979147Y-60740054D01*
X90301054Y-60258285D01*
X90414093Y-59690000D01*
X90301054Y-59121715D01*
X89979147Y-58639946D01*
X89649974Y-58420000D01*
X89979147Y-58200054D01*
X90170000Y-57914422D01*
X90360853Y-58200054D01*
X90842622Y-58521961D01*
X91410907Y-58635000D01*
X91469093Y-58635000D01*
X92037378Y-58521961D01*
X92519147Y-58200054D01*
X92710000Y-57914422D01*
X92900853Y-58200054D01*
X92900853Y-58200054D01*
G37*
X92900853Y-58200054D02*
X93220000Y-58413301D01*
X93220000Y-59375198D01*
X92395198Y-60200000D01*
X91440000Y-60200000D01*
X91149160Y-60257852D01*
X90902599Y-60422599D01*
X90045679Y-61279519D01*
X89979147Y-61179946D01*
X89649974Y-60960000D01*
X89979147Y-60740054D01*
X90301054Y-60258285D01*
X90414093Y-59690000D01*
X90301054Y-59121715D01*
X89979147Y-58639946D01*
X89649974Y-58420000D01*
X89979147Y-58200054D01*
X90170000Y-57914422D01*
X90360853Y-58200054D01*
X90842622Y-58521961D01*
X91410907Y-58635000D01*
X91469093Y-58635000D01*
X92037378Y-58521961D01*
X92519147Y-58200054D01*
X92710000Y-57914422D01*
X92900853Y-58200054D01*
G36*
X79502546Y-57784559D02*
X80395000Y-57785337D01*
X80395000Y-59780221D01*
X80200853Y-59909946D01*
X80011655Y-60193101D01*
X80011645Y-60193076D01*
X79621358Y-59764817D01*
X79096892Y-59518514D01*
X78867000Y-59639181D01*
X78867000Y-60833000D01*
X78887000Y-60833000D01*
X78887000Y-61087000D01*
X78867000Y-61087000D01*
X78867000Y-61107000D01*
X78613000Y-61107000D01*
X78613000Y-61087000D01*
X78593000Y-61087000D01*
X78593000Y-60833000D01*
X78613000Y-60833000D01*
X78613000Y-59639181D01*
X78383108Y-59518514D01*
X77858642Y-59764817D01*
X77720000Y-59916948D01*
X77720000Y-58786580D01*
X78951030Y-57555549D01*
X79502546Y-57784559D01*
X79502546Y-57784559D01*
G37*
X79502546Y-57784559D02*
X80395000Y-57785337D01*
X80395000Y-59780221D01*
X80200853Y-59909946D01*
X80011655Y-60193101D01*
X80011645Y-60193076D01*
X79621358Y-59764817D01*
X79096892Y-59518514D01*
X78867000Y-59639181D01*
X78867000Y-60833000D01*
X78887000Y-60833000D01*
X78887000Y-61087000D01*
X78867000Y-61087000D01*
X78867000Y-61107000D01*
X78613000Y-61107000D01*
X78613000Y-61087000D01*
X78593000Y-61087000D01*
X78593000Y-60833000D01*
X78613000Y-60833000D01*
X78613000Y-59639181D01*
X78383108Y-59518514D01*
X77858642Y-59764817D01*
X77720000Y-59916948D01*
X77720000Y-58786580D01*
X78951030Y-57555549D01*
X79502546Y-57784559D01*
G36*
X94726723Y-44567630D02*
X94459009Y-44968293D01*
X94365000Y-45440907D01*
X94365000Y-45999093D01*
X94459009Y-46471707D01*
X94726723Y-46872370D01*
X95127386Y-47140084D01*
X95600000Y-47234093D01*
X96072614Y-47140084D01*
X96473277Y-46872370D01*
X96600000Y-46682715D01*
X96726723Y-46872370D01*
X97127386Y-47140084D01*
X97600000Y-47234093D01*
X98072614Y-47140084D01*
X98473277Y-46872370D01*
X98602410Y-46679109D01*
X98770875Y-46901933D01*
X99190624Y-47148286D01*
X99282391Y-47163462D01*
X99473000Y-47038731D01*
X99473000Y-45847000D01*
X99453000Y-45847000D01*
X99453000Y-45593000D01*
X99473000Y-45593000D01*
X99473000Y-45573000D01*
X99727000Y-45573000D01*
X99727000Y-45593000D01*
X99747000Y-45593000D01*
X99747000Y-45847000D01*
X99727000Y-45847000D01*
X99727000Y-47038731D01*
X99917609Y-47163462D01*
X100009376Y-47148286D01*
X100429125Y-46901933D01*
X100445269Y-46880580D01*
X100535910Y-47021441D01*
X100748110Y-47166431D01*
X101000000Y-47217440D01*
X102200000Y-47217440D01*
X102435317Y-47173162D01*
X102651441Y-47034090D01*
X102796431Y-46821890D01*
X102847440Y-46570000D01*
X102847440Y-44870000D01*
X102803162Y-44634683D01*
X102732583Y-44525000D01*
X114860000Y-44525000D01*
X114860000Y-57916421D01*
X114837401Y-57882599D01*
X114502733Y-57547931D01*
X114544093Y-57340000D01*
X114450084Y-56867386D01*
X114182370Y-56466723D01*
X113989109Y-56337590D01*
X114211933Y-56169125D01*
X114458286Y-55749376D01*
X114473462Y-55657609D01*
X114348731Y-55467000D01*
X113157000Y-55467000D01*
X113157000Y-55487000D01*
X112903000Y-55487000D01*
X112903000Y-55467000D01*
X112883000Y-55467000D01*
X112883000Y-55213000D01*
X112903000Y-55213000D01*
X112903000Y-55193000D01*
X113157000Y-55193000D01*
X113157000Y-55213000D01*
X114348731Y-55213000D01*
X114473462Y-55022391D01*
X114458286Y-54930624D01*
X114211933Y-54510875D01*
X114190580Y-54494731D01*
X114331441Y-54404090D01*
X114476431Y-54191890D01*
X114527440Y-53940000D01*
X114527440Y-52740000D01*
X114483162Y-52504683D01*
X114344090Y-52288559D01*
X114131890Y-52143569D01*
X113880000Y-52092560D01*
X112857362Y-52092560D01*
X111662401Y-50897599D01*
X111415839Y-50732852D01*
X111125000Y-50675000D01*
X109855000Y-50675000D01*
X109564161Y-50732852D01*
X109317599Y-50897599D01*
X108165000Y-52050198D01*
X108165000Y-51942998D01*
X108006252Y-51942998D01*
X108165000Y-51784250D01*
X108165000Y-51093690D01*
X108068327Y-50860301D01*
X107889698Y-50681673D01*
X107656309Y-50585000D01*
X106965750Y-50585000D01*
X106807000Y-50743750D01*
X106807000Y-51943000D01*
X106827000Y-51943000D01*
X106827000Y-52197000D01*
X106807000Y-52197000D01*
X106807000Y-52217000D01*
X106553000Y-52217000D01*
X106553000Y-52197000D01*
X104267000Y-52197000D01*
X104267000Y-52217000D01*
X104013000Y-52217000D01*
X104013000Y-52197000D01*
X101727000Y-52197000D01*
X101727000Y-52217000D01*
X101473000Y-52217000D01*
X101473000Y-52197000D01*
X99187000Y-52197000D01*
X99187000Y-52217000D01*
X98933000Y-52217000D01*
X98933000Y-52197000D01*
X96647000Y-52197000D01*
X96647000Y-52217000D01*
X96393000Y-52217000D01*
X96393000Y-52197000D01*
X94107000Y-52197000D01*
X94107000Y-52217000D01*
X93853000Y-52217000D01*
X93853000Y-52197000D01*
X91567000Y-52197000D01*
X91567000Y-52217000D01*
X91313000Y-52217000D01*
X91313000Y-52197000D01*
X91293000Y-52197000D01*
X91293000Y-51943000D01*
X91313000Y-51943000D01*
X91313000Y-50743750D01*
X91567000Y-50743750D01*
X91567000Y-51943000D01*
X93853000Y-51943000D01*
X93853000Y-50743750D01*
X94107000Y-50743750D01*
X94107000Y-51943000D01*
X96393000Y-51943000D01*
X96393000Y-50743750D01*
X96647000Y-50743750D01*
X96647000Y-51943000D01*
X98933000Y-51943000D01*
X98933000Y-50743750D01*
X99187000Y-50743750D01*
X99187000Y-51943000D01*
X101473000Y-51943000D01*
X101473000Y-50743750D01*
X101727000Y-50743750D01*
X101727000Y-51943000D01*
X104013000Y-51943000D01*
X104013000Y-50743750D01*
X104267000Y-50743750D01*
X104267000Y-51943000D01*
X106553000Y-51943000D01*
X106553000Y-50743750D01*
X106394250Y-50585000D01*
X105703691Y-50585000D01*
X105470302Y-50681673D01*
X105410000Y-50741975D01*
X105349698Y-50681673D01*
X105116309Y-50585000D01*
X104425750Y-50585000D01*
X104267000Y-50743750D01*
X104013000Y-50743750D01*
X103854250Y-50585000D01*
X103163691Y-50585000D01*
X102930302Y-50681673D01*
X102870000Y-50741975D01*
X102809698Y-50681673D01*
X102576309Y-50585000D01*
X101885750Y-50585000D01*
X101727000Y-50743750D01*
X101473000Y-50743750D01*
X101314250Y-50585000D01*
X100623691Y-50585000D01*
X100390302Y-50681673D01*
X100330000Y-50741975D01*
X100269698Y-50681673D01*
X100036309Y-50585000D01*
X99345750Y-50585000D01*
X99187000Y-50743750D01*
X98933000Y-50743750D01*
X98774250Y-50585000D01*
X98083691Y-50585000D01*
X97850302Y-50681673D01*
X97790000Y-50741975D01*
X97729698Y-50681673D01*
X97496309Y-50585000D01*
X96805750Y-50585000D01*
X96647000Y-50743750D01*
X96393000Y-50743750D01*
X96234250Y-50585000D01*
X95543691Y-50585000D01*
X95310302Y-50681673D01*
X95250000Y-50741975D01*
X95189698Y-50681673D01*
X94956309Y-50585000D01*
X94265750Y-50585000D01*
X94107000Y-50743750D01*
X93853000Y-50743750D01*
X93694250Y-50585000D01*
X93003691Y-50585000D01*
X92770302Y-50681673D01*
X92710000Y-50741975D01*
X92649698Y-50681673D01*
X92416309Y-50585000D01*
X91725750Y-50585000D01*
X91567000Y-50743750D01*
X91313000Y-50743750D01*
X91154250Y-50585000D01*
X90463691Y-50585000D01*
X90230302Y-50681673D01*
X90172104Y-50739871D01*
X90001890Y-50623569D01*
X89750000Y-50572560D01*
X88547695Y-50572560D01*
X88423117Y-50271057D01*
X88360875Y-50208707D01*
X89138761Y-49887291D01*
X89889655Y-49137707D01*
X90296536Y-48157827D01*
X90296540Y-48153172D01*
X107822538Y-48153172D01*
X108227709Y-49133761D01*
X108977293Y-49884655D01*
X109957173Y-50291536D01*
X111018172Y-50292462D01*
X111998761Y-49887291D01*
X112749655Y-49137707D01*
X113156536Y-48157827D01*
X113157462Y-47096828D01*
X112752291Y-46116239D01*
X112002707Y-45365345D01*
X111022827Y-44958464D01*
X109961828Y-44957538D01*
X108981239Y-45362709D01*
X108230345Y-46112293D01*
X107823464Y-47092173D01*
X107822538Y-48153172D01*
X90296540Y-48153172D01*
X90297462Y-47096828D01*
X89892291Y-46116239D01*
X89142707Y-45365345D01*
X88162827Y-44958464D01*
X87101828Y-44957538D01*
X86121239Y-45362709D01*
X85370345Y-46112293D01*
X84963464Y-47092173D01*
X84962538Y-48153172D01*
X85367709Y-49133761D01*
X86117293Y-49884655D01*
X86898533Y-50209054D01*
X86837808Y-50269673D01*
X86695162Y-50613201D01*
X86695134Y-50645875D01*
X86389093Y-50585000D01*
X86330907Y-50585000D01*
X85762622Y-50698039D01*
X85280853Y-51019946D01*
X85215000Y-51118502D01*
X85215000Y-50727463D01*
X85247192Y-50695327D01*
X85389838Y-50351799D01*
X85390162Y-49979833D01*
X85248117Y-49636057D01*
X84985327Y-49372808D01*
X84641799Y-49230162D01*
X84269833Y-49229838D01*
X83926057Y-49371883D01*
X83662808Y-49634673D01*
X83547923Y-49911344D01*
X82320549Y-48683970D01*
X82549559Y-48132454D01*
X82550440Y-47121979D01*
X82164563Y-46188085D01*
X81450673Y-45472948D01*
X80517454Y-45085441D01*
X79506979Y-45084560D01*
X78573085Y-45470437D01*
X77857948Y-46184327D01*
X77470441Y-47117546D01*
X77469560Y-48128021D01*
X77855437Y-49061915D01*
X78569327Y-49777052D01*
X79502546Y-50164559D01*
X80513021Y-50165440D01*
X81069095Y-49935675D01*
X82300000Y-51166579D01*
X82300000Y-54135868D01*
X82164563Y-53808085D01*
X81450673Y-53092948D01*
X80517454Y-52705441D01*
X79506979Y-52704560D01*
X78573085Y-53090437D01*
X77857948Y-53804327D01*
X77470441Y-54737546D01*
X77469560Y-55748021D01*
X77699325Y-56304095D01*
X76910000Y-57093420D01*
X76910000Y-44525000D01*
X94790523Y-44525000D01*
X94726723Y-44567630D01*
X94726723Y-44567630D01*
G37*
X94726723Y-44567630D02*
X94459009Y-44968293D01*
X94365000Y-45440907D01*
X94365000Y-45999093D01*
X94459009Y-46471707D01*
X94726723Y-46872370D01*
X95127386Y-47140084D01*
X95600000Y-47234093D01*
X96072614Y-47140084D01*
X96473277Y-46872370D01*
X96600000Y-46682715D01*
X96726723Y-46872370D01*
X97127386Y-47140084D01*
X97600000Y-47234093D01*
X98072614Y-47140084D01*
X98473277Y-46872370D01*
X98602410Y-46679109D01*
X98770875Y-46901933D01*
X99190624Y-47148286D01*
X99282391Y-47163462D01*
X99473000Y-47038731D01*
X99473000Y-45847000D01*
X99453000Y-45847000D01*
X99453000Y-45593000D01*
X99473000Y-45593000D01*
X99473000Y-45573000D01*
X99727000Y-45573000D01*
X99727000Y-45593000D01*
X99747000Y-45593000D01*
X99747000Y-45847000D01*
X99727000Y-45847000D01*
X99727000Y-47038731D01*
X99917609Y-47163462D01*
X100009376Y-47148286D01*
X100429125Y-46901933D01*
X100445269Y-46880580D01*
X100535910Y-47021441D01*
X100748110Y-47166431D01*
X101000000Y-47217440D01*
X102200000Y-47217440D01*
X102435317Y-47173162D01*
X102651441Y-47034090D01*
X102796431Y-46821890D01*
X102847440Y-46570000D01*
X102847440Y-44870000D01*
X102803162Y-44634683D01*
X102732583Y-44525000D01*
X114860000Y-44525000D01*
X114860000Y-57916421D01*
X114837401Y-57882599D01*
X114502733Y-57547931D01*
X114544093Y-57340000D01*
X114450084Y-56867386D01*
X114182370Y-56466723D01*
X113989109Y-56337590D01*
X114211933Y-56169125D01*
X114458286Y-55749376D01*
X114473462Y-55657609D01*
X114348731Y-55467000D01*
X113157000Y-55467000D01*
X113157000Y-55487000D01*
X112903000Y-55487000D01*
X112903000Y-55467000D01*
X112883000Y-55467000D01*
X112883000Y-55213000D01*
X112903000Y-55213000D01*
X112903000Y-55193000D01*
X113157000Y-55193000D01*
X113157000Y-55213000D01*
X114348731Y-55213000D01*
X114473462Y-55022391D01*
X114458286Y-54930624D01*
X114211933Y-54510875D01*
X114190580Y-54494731D01*
X114331441Y-54404090D01*
X114476431Y-54191890D01*
X114527440Y-53940000D01*
X114527440Y-52740000D01*
X114483162Y-52504683D01*
X114344090Y-52288559D01*
X114131890Y-52143569D01*
X113880000Y-52092560D01*
X112857362Y-52092560D01*
X111662401Y-50897599D01*
X111415839Y-50732852D01*
X111125000Y-50675000D01*
X109855000Y-50675000D01*
X109564161Y-50732852D01*
X109317599Y-50897599D01*
X108165000Y-52050198D01*
X108165000Y-51942998D01*
X108006252Y-51942998D01*
X108165000Y-51784250D01*
X108165000Y-51093690D01*
X108068327Y-50860301D01*
X107889698Y-50681673D01*
X107656309Y-50585000D01*
X106965750Y-50585000D01*
X106807000Y-50743750D01*
X106807000Y-51943000D01*
X106827000Y-51943000D01*
X106827000Y-52197000D01*
X106807000Y-52197000D01*
X106807000Y-52217000D01*
X106553000Y-52217000D01*
X106553000Y-52197000D01*
X104267000Y-52197000D01*
X104267000Y-52217000D01*
X104013000Y-52217000D01*
X104013000Y-52197000D01*
X101727000Y-52197000D01*
X101727000Y-52217000D01*
X101473000Y-52217000D01*
X101473000Y-52197000D01*
X99187000Y-52197000D01*
X99187000Y-52217000D01*
X98933000Y-52217000D01*
X98933000Y-52197000D01*
X96647000Y-52197000D01*
X96647000Y-52217000D01*
X96393000Y-52217000D01*
X96393000Y-52197000D01*
X94107000Y-52197000D01*
X94107000Y-52217000D01*
X93853000Y-52217000D01*
X93853000Y-52197000D01*
X91567000Y-52197000D01*
X91567000Y-52217000D01*
X91313000Y-52217000D01*
X91313000Y-52197000D01*
X91293000Y-52197000D01*
X91293000Y-51943000D01*
X91313000Y-51943000D01*
X91313000Y-50743750D01*
X91567000Y-50743750D01*
X91567000Y-51943000D01*
X93853000Y-51943000D01*
X93853000Y-50743750D01*
X94107000Y-50743750D01*
X94107000Y-51943000D01*
X96393000Y-51943000D01*
X96393000Y-50743750D01*
X96647000Y-50743750D01*
X96647000Y-51943000D01*
X98933000Y-51943000D01*
X98933000Y-50743750D01*
X99187000Y-50743750D01*
X99187000Y-51943000D01*
X101473000Y-51943000D01*
X101473000Y-50743750D01*
X101727000Y-50743750D01*
X101727000Y-51943000D01*
X104013000Y-51943000D01*
X104013000Y-50743750D01*
X104267000Y-50743750D01*
X104267000Y-51943000D01*
X106553000Y-51943000D01*
X106553000Y-50743750D01*
X106394250Y-50585000D01*
X105703691Y-50585000D01*
X105470302Y-50681673D01*
X105410000Y-50741975D01*
X105349698Y-50681673D01*
X105116309Y-50585000D01*
X104425750Y-50585000D01*
X104267000Y-50743750D01*
X104013000Y-50743750D01*
X103854250Y-50585000D01*
X103163691Y-50585000D01*
X102930302Y-50681673D01*
X102870000Y-50741975D01*
X102809698Y-50681673D01*
X102576309Y-50585000D01*
X101885750Y-50585000D01*
X101727000Y-50743750D01*
X101473000Y-50743750D01*
X101314250Y-50585000D01*
X100623691Y-50585000D01*
X100390302Y-50681673D01*
X100330000Y-50741975D01*
X100269698Y-50681673D01*
X100036309Y-50585000D01*
X99345750Y-50585000D01*
X99187000Y-50743750D01*
X98933000Y-50743750D01*
X98774250Y-50585000D01*
X98083691Y-50585000D01*
X97850302Y-50681673D01*
X97790000Y-50741975D01*
X97729698Y-50681673D01*
X97496309Y-50585000D01*
X96805750Y-50585000D01*
X96647000Y-50743750D01*
X96393000Y-50743750D01*
X96234250Y-50585000D01*
X95543691Y-50585000D01*
X95310302Y-50681673D01*
X95250000Y-50741975D01*
X95189698Y-50681673D01*
X94956309Y-50585000D01*
X94265750Y-50585000D01*
X94107000Y-50743750D01*
X93853000Y-50743750D01*
X93694250Y-50585000D01*
X93003691Y-50585000D01*
X92770302Y-50681673D01*
X92710000Y-50741975D01*
X92649698Y-50681673D01*
X92416309Y-50585000D01*
X91725750Y-50585000D01*
X91567000Y-50743750D01*
X91313000Y-50743750D01*
X91154250Y-50585000D01*
X90463691Y-50585000D01*
X90230302Y-50681673D01*
X90172104Y-50739871D01*
X90001890Y-50623569D01*
X89750000Y-50572560D01*
X88547695Y-50572560D01*
X88423117Y-50271057D01*
X88360875Y-50208707D01*
X89138761Y-49887291D01*
X89889655Y-49137707D01*
X90296536Y-48157827D01*
X90296540Y-48153172D01*
X107822538Y-48153172D01*
X108227709Y-49133761D01*
X108977293Y-49884655D01*
X109957173Y-50291536D01*
X111018172Y-50292462D01*
X111998761Y-49887291D01*
X112749655Y-49137707D01*
X113156536Y-48157827D01*
X113157462Y-47096828D01*
X112752291Y-46116239D01*
X112002707Y-45365345D01*
X111022827Y-44958464D01*
X109961828Y-44957538D01*
X108981239Y-45362709D01*
X108230345Y-46112293D01*
X107823464Y-47092173D01*
X107822538Y-48153172D01*
X90296540Y-48153172D01*
X90297462Y-47096828D01*
X89892291Y-46116239D01*
X89142707Y-45365345D01*
X88162827Y-44958464D01*
X87101828Y-44957538D01*
X86121239Y-45362709D01*
X85370345Y-46112293D01*
X84963464Y-47092173D01*
X84962538Y-48153172D01*
X85367709Y-49133761D01*
X86117293Y-49884655D01*
X86898533Y-50209054D01*
X86837808Y-50269673D01*
X86695162Y-50613201D01*
X86695134Y-50645875D01*
X86389093Y-50585000D01*
X86330907Y-50585000D01*
X85762622Y-50698039D01*
X85280853Y-51019946D01*
X85215000Y-51118502D01*
X85215000Y-50727463D01*
X85247192Y-50695327D01*
X85389838Y-50351799D01*
X85390162Y-49979833D01*
X85248117Y-49636057D01*
X84985327Y-49372808D01*
X84641799Y-49230162D01*
X84269833Y-49229838D01*
X83926057Y-49371883D01*
X83662808Y-49634673D01*
X83547923Y-49911344D01*
X82320549Y-48683970D01*
X82549559Y-48132454D01*
X82550440Y-47121979D01*
X82164563Y-46188085D01*
X81450673Y-45472948D01*
X80517454Y-45085441D01*
X79506979Y-45084560D01*
X78573085Y-45470437D01*
X77857948Y-46184327D01*
X77470441Y-47117546D01*
X77469560Y-48128021D01*
X77855437Y-49061915D01*
X78569327Y-49777052D01*
X79502546Y-50164559D01*
X80513021Y-50165440D01*
X81069095Y-49935675D01*
X82300000Y-51166579D01*
X82300000Y-54135868D01*
X82164563Y-53808085D01*
X81450673Y-53092948D01*
X80517454Y-52705441D01*
X79506979Y-52704560D01*
X78573085Y-53090437D01*
X77857948Y-53804327D01*
X77470441Y-54737546D01*
X77469560Y-55748021D01*
X77699325Y-56304095D01*
X76910000Y-57093420D01*
X76910000Y-44525000D01*
X94790523Y-44525000D01*
X94726723Y-44567630D01*
G36*
X110617000Y-56928000D02*
X110637000Y-56928000D01*
X110637000Y-57182000D01*
X110617000Y-57182000D01*
X110617000Y-57202000D01*
X110363000Y-57202000D01*
X110363000Y-57182000D01*
X110343000Y-57182000D01*
X110343000Y-56928000D01*
X110363000Y-56928000D01*
X110363000Y-56908000D01*
X110617000Y-56908000D01*
X110617000Y-56928000D01*
X110617000Y-56928000D01*
G37*
X110617000Y-56928000D02*
X110637000Y-56928000D01*
X110637000Y-57182000D01*
X110617000Y-57182000D01*
X110617000Y-57202000D01*
X110363000Y-57202000D01*
X110363000Y-57182000D01*
X110343000Y-57182000D01*
X110343000Y-56928000D01*
X110363000Y-56928000D01*
X110363000Y-56908000D01*
X110617000Y-56908000D01*
X110617000Y-56928000D01*
M02*
