G04 #@! TF.FileFunction,Copper,L2,Bot,Signal*
%FSLAX46Y46*%
G04 Gerber Fmt 4.6, Leading zero omitted, Abs format (unit mm)*
G04 Created by KiCad (PCBNEW 4.0.7) date 03/23/18 18:31:04*
%MOMM*%
%LPD*%
G01*
G04 APERTURE LIST*
%ADD10C,0.100000*%
%ADD11R,1.700000X1.700000*%
%ADD12O,1.700000X1.700000*%
%ADD13C,0.250000*%
%ADD14C,0.500000*%
%ADD15C,0.254000*%
G04 APERTURE END LIST*
D10*
D11*
X185420000Y-144145000D03*
D12*
X185420000Y-141605000D03*
X185420000Y-139065000D03*
X185420000Y-136525000D03*
X185420000Y-133985000D03*
X185420000Y-131445000D03*
X185420000Y-128905000D03*
X185420000Y-126365000D03*
D11*
X133985000Y-113030000D03*
D12*
X136525000Y-113030000D03*
X133985000Y-110490000D03*
X136525000Y-110490000D03*
X133985000Y-107950000D03*
X136525000Y-107950000D03*
X133985000Y-105410000D03*
X136525000Y-105410000D03*
X133985000Y-102870000D03*
X136525000Y-102870000D03*
X133985000Y-100330000D03*
X136525000Y-100330000D03*
X133985000Y-97790000D03*
X136525000Y-97790000D03*
X133985000Y-95250000D03*
X136525000Y-95250000D03*
X133985000Y-92710000D03*
X136525000Y-92710000D03*
X133985000Y-90170000D03*
X136525000Y-90170000D03*
X133985000Y-87630000D03*
X136525000Y-87630000D03*
X133985000Y-85090000D03*
X136525000Y-85090000D03*
X133985000Y-82550000D03*
X136525000Y-82550000D03*
X133985000Y-80010000D03*
X136525000Y-80010000D03*
X133985000Y-77470000D03*
X136525000Y-77470000D03*
X133985000Y-74930000D03*
X136525000Y-74930000D03*
X133985000Y-72390000D03*
X136525000Y-72390000D03*
X133985000Y-69850000D03*
X136525000Y-69850000D03*
X133985000Y-67310000D03*
X136525000Y-67310000D03*
X133985000Y-64770000D03*
X136525000Y-64770000D03*
D11*
X139065000Y-138430000D03*
D12*
X136525000Y-138430000D03*
X133985000Y-138430000D03*
D11*
X139065000Y-135890000D03*
D12*
X136525000Y-135890000D03*
X133985000Y-135890000D03*
D11*
X139065000Y-133350000D03*
D12*
X136525000Y-133350000D03*
X133985000Y-133350000D03*
D11*
X139065000Y-130810000D03*
D12*
X136525000Y-130810000D03*
X133985000Y-130810000D03*
D11*
X139065000Y-128270000D03*
D12*
X136525000Y-128270000D03*
X133985000Y-128270000D03*
D11*
X139065000Y-125730000D03*
D12*
X136525000Y-125730000D03*
X133985000Y-125730000D03*
D11*
X148590000Y-67945000D03*
D12*
X148590000Y-65405000D03*
X148590000Y-62865000D03*
X148590000Y-60325000D03*
X148590000Y-57785000D03*
X148590000Y-55245000D03*
D11*
X172085000Y-130175000D03*
D12*
X169545000Y-130175000D03*
X167005000Y-130175000D03*
X164465000Y-130175000D03*
X161925000Y-130175000D03*
X159385000Y-130175000D03*
D11*
X167640000Y-73025000D03*
D12*
X170180000Y-73025000D03*
X167640000Y-70485000D03*
X170180000Y-70485000D03*
D11*
X139065000Y-123190000D03*
D12*
X136525000Y-123190000D03*
X133985000Y-123190000D03*
D13*
X139065000Y-138430000D02*
X142240000Y-138430000D01*
X144145000Y-72390000D02*
X148590000Y-67945000D01*
X144145000Y-136525000D02*
X144145000Y-72390000D01*
X142240000Y-138430000D02*
X144145000Y-136525000D01*
X139065000Y-135890000D02*
X142240000Y-135890000D01*
X143510000Y-70485000D02*
X148590000Y-65405000D01*
X143510000Y-134620000D02*
X143510000Y-70485000D01*
X142240000Y-135890000D02*
X143510000Y-134620000D01*
X139065000Y-133350000D02*
X141605000Y-133350000D01*
X142875000Y-68580000D02*
X148590000Y-62865000D01*
X142875000Y-132080000D02*
X142875000Y-68580000D01*
X141605000Y-133350000D02*
X142875000Y-132080000D01*
X139065000Y-130810000D02*
X139700000Y-130810000D01*
X139700000Y-130810000D02*
X142240000Y-128270000D01*
X142240000Y-128270000D02*
X142240000Y-66675000D01*
X142240000Y-66675000D02*
X148590000Y-60325000D01*
X139065000Y-128270000D02*
X140335000Y-128270000D01*
X141605000Y-127000000D02*
X141605000Y-63500000D01*
X140335000Y-128270000D02*
X141605000Y-127000000D01*
X147320000Y-57785000D02*
X148590000Y-57785000D01*
X141605000Y-63500000D02*
X147320000Y-57785000D01*
X148590000Y-55245000D02*
X147955000Y-55245000D01*
X147955000Y-55245000D02*
X140970000Y-62230000D01*
X140970000Y-62230000D02*
X140970000Y-123825000D01*
X140970000Y-123825000D02*
X139065000Y-125730000D01*
X172085000Y-130175000D02*
X179070000Y-130175000D01*
X179070000Y-130175000D02*
X185420000Y-136525000D01*
X169545000Y-130175000D02*
X169545000Y-129540000D01*
X169545000Y-129540000D02*
X170180000Y-128905000D01*
X170180000Y-128905000D02*
X180340000Y-128905000D01*
X180340000Y-128905000D02*
X185420000Y-133985000D01*
X167005000Y-130175000D02*
X168910000Y-128270000D01*
X182245000Y-128270000D02*
X185420000Y-131445000D01*
X168910000Y-128270000D02*
X182245000Y-128270000D01*
X164465000Y-130175000D02*
X164465000Y-129540000D01*
X164465000Y-129540000D02*
X167640000Y-126365000D01*
X167640000Y-126365000D02*
X185420000Y-126365000D01*
X161925000Y-130175000D02*
X161925000Y-130810000D01*
X161925000Y-130810000D02*
X163195000Y-132080000D01*
X163195000Y-132080000D02*
X164465000Y-132080000D01*
X164465000Y-132080000D02*
X165735000Y-130810000D01*
X165735000Y-130810000D02*
X165735000Y-129540000D01*
X165735000Y-129540000D02*
X167640000Y-127635000D01*
X167640000Y-127635000D02*
X184150000Y-127635000D01*
X184150000Y-127635000D02*
X185420000Y-128905000D01*
D14*
X136525000Y-123190000D02*
X136525000Y-122555000D01*
X136525000Y-122555000D02*
X135255000Y-121285000D01*
X135255000Y-121285000D02*
X133350000Y-121285000D01*
X133350000Y-121285000D02*
X131445000Y-123190000D01*
X131445000Y-123190000D02*
X131445000Y-139700000D01*
X131445000Y-139700000D02*
X132715000Y-140970000D01*
X132715000Y-140970000D02*
X141605000Y-140970000D01*
X141605000Y-140970000D02*
X146685000Y-135890000D01*
X146685000Y-135890000D02*
X146685000Y-82550000D01*
X146685000Y-82550000D02*
X163195000Y-66040000D01*
X163195000Y-66040000D02*
X169545000Y-66040000D01*
X169545000Y-66040000D02*
X172085000Y-68580000D01*
X172085000Y-68580000D02*
X172085000Y-71120000D01*
X172085000Y-71120000D02*
X170180000Y-73025000D01*
X170180000Y-73025000D02*
X170180000Y-73660000D01*
X170180000Y-73660000D02*
X167640000Y-76200000D01*
X167640000Y-76200000D02*
X158115000Y-76200000D01*
X158115000Y-76200000D02*
X155575000Y-78740000D01*
X155575000Y-78740000D02*
X155575000Y-130810000D01*
X155575000Y-130810000D02*
X168910000Y-144145000D01*
X168910000Y-144145000D02*
X185420000Y-144145000D01*
X170180000Y-70485000D02*
X167005000Y-67310000D01*
X163830000Y-67310000D02*
X148590000Y-82550000D01*
X148590000Y-82550000D02*
X148590000Y-135890000D01*
X148590000Y-135890000D02*
X142240000Y-142240000D01*
X142240000Y-142240000D02*
X129540000Y-142240000D01*
X129540000Y-142240000D02*
X126365000Y-139065000D01*
X126365000Y-139065000D02*
X126365000Y-120650000D01*
X126365000Y-120650000D02*
X133985000Y-113030000D01*
X167005000Y-67310000D02*
X163830000Y-67310000D01*
X133985000Y-113030000D02*
X133985000Y-110490000D01*
D15*
G36*
X127011364Y-54612321D02*
X126670389Y-55433481D01*
X126669613Y-56322619D01*
X127009155Y-57144372D01*
X127637321Y-57773636D01*
X128458481Y-58114611D01*
X129347619Y-58115387D01*
X130169372Y-57775845D01*
X130798636Y-57147679D01*
X131139611Y-56326519D01*
X131140387Y-55437381D01*
X130800845Y-54615628D01*
X130211248Y-54025000D01*
X147765196Y-54025000D01*
X147510853Y-54194946D01*
X147188946Y-54676715D01*
X147124502Y-55000696D01*
X140432599Y-61692599D01*
X140267852Y-61939161D01*
X140210000Y-62230000D01*
X140210000Y-121773025D01*
X140166890Y-121743569D01*
X139915000Y-121692560D01*
X138215000Y-121692560D01*
X137979683Y-121736838D01*
X137763559Y-121875910D01*
X137618569Y-122088110D01*
X137604914Y-122155541D01*
X137575054Y-122110853D01*
X137093285Y-121788946D01*
X136989976Y-121768396D01*
X135880790Y-120659210D01*
X135867006Y-120650000D01*
X135593675Y-120467367D01*
X135537484Y-120456190D01*
X135255000Y-120399999D01*
X135254995Y-120400000D01*
X133350005Y-120400000D01*
X133350000Y-120399999D01*
X133067516Y-120456190D01*
X133011325Y-120467367D01*
X132724210Y-120659210D01*
X132724208Y-120659213D01*
X130819210Y-122564210D01*
X130627367Y-122851325D01*
X130627367Y-122851326D01*
X130559999Y-123190000D01*
X130560000Y-123190005D01*
X130560000Y-139699995D01*
X130559999Y-139700000D01*
X130595094Y-139876431D01*
X130627367Y-140038675D01*
X130757236Y-140233039D01*
X130819210Y-140325790D01*
X131848421Y-141355000D01*
X129906579Y-141355000D01*
X127250000Y-138698420D01*
X127250000Y-121016580D01*
X129713960Y-118552619D01*
X133019613Y-118552619D01*
X133359155Y-119374372D01*
X133987321Y-120003636D01*
X134808481Y-120344611D01*
X135697619Y-120345387D01*
X136519372Y-120005845D01*
X137148636Y-119377679D01*
X137489611Y-118556519D01*
X137490387Y-117667381D01*
X137150845Y-116845628D01*
X136522679Y-116216364D01*
X135701519Y-115875389D01*
X134812381Y-115874613D01*
X133990628Y-116214155D01*
X133361364Y-116842321D01*
X133020389Y-117663481D01*
X133019613Y-118552619D01*
X129713960Y-118552619D01*
X133739139Y-114527440D01*
X134835000Y-114527440D01*
X135070317Y-114483162D01*
X135286441Y-114344090D01*
X135431431Y-114131890D01*
X135442841Y-114075546D01*
X135445853Y-114080054D01*
X135927622Y-114401961D01*
X136495907Y-114515000D01*
X136554093Y-114515000D01*
X137122378Y-114401961D01*
X137604147Y-114080054D01*
X137926054Y-113598285D01*
X138039093Y-113030000D01*
X137926054Y-112461715D01*
X137604147Y-111979946D01*
X137274974Y-111760000D01*
X137604147Y-111540054D01*
X137926054Y-111058285D01*
X138039093Y-110490000D01*
X137926054Y-109921715D01*
X137604147Y-109439946D01*
X137274974Y-109220000D01*
X137604147Y-109000054D01*
X137926054Y-108518285D01*
X138039093Y-107950000D01*
X137926054Y-107381715D01*
X137604147Y-106899946D01*
X137274974Y-106680000D01*
X137604147Y-106460054D01*
X137926054Y-105978285D01*
X138039093Y-105410000D01*
X137926054Y-104841715D01*
X137604147Y-104359946D01*
X137263447Y-104132298D01*
X137406358Y-104065183D01*
X137796645Y-103636924D01*
X137966476Y-103226890D01*
X137845155Y-102997000D01*
X136652000Y-102997000D01*
X136652000Y-103017000D01*
X136398000Y-103017000D01*
X136398000Y-102997000D01*
X136378000Y-102997000D01*
X136378000Y-102743000D01*
X136398000Y-102743000D01*
X136398000Y-102723000D01*
X136652000Y-102723000D01*
X136652000Y-102743000D01*
X137845155Y-102743000D01*
X137966476Y-102513110D01*
X137796645Y-102103076D01*
X137406358Y-101674817D01*
X137263447Y-101607702D01*
X137604147Y-101380054D01*
X137926054Y-100898285D01*
X138039093Y-100330000D01*
X137926054Y-99761715D01*
X137604147Y-99279946D01*
X137274974Y-99060000D01*
X137604147Y-98840054D01*
X137926054Y-98358285D01*
X138039093Y-97790000D01*
X137926054Y-97221715D01*
X137604147Y-96739946D01*
X137274974Y-96520000D01*
X137604147Y-96300054D01*
X137926054Y-95818285D01*
X138039093Y-95250000D01*
X137926054Y-94681715D01*
X137604147Y-94199946D01*
X137274974Y-93980000D01*
X137604147Y-93760054D01*
X137926054Y-93278285D01*
X138039093Y-92710000D01*
X137926054Y-92141715D01*
X137604147Y-91659946D01*
X137274974Y-91440000D01*
X137604147Y-91220054D01*
X137926054Y-90738285D01*
X138039093Y-90170000D01*
X137926054Y-89601715D01*
X137604147Y-89119946D01*
X137274974Y-88900000D01*
X137604147Y-88680054D01*
X137926054Y-88198285D01*
X138039093Y-87630000D01*
X137926054Y-87061715D01*
X137604147Y-86579946D01*
X137274974Y-86360000D01*
X137604147Y-86140054D01*
X137926054Y-85658285D01*
X138039093Y-85090000D01*
X137926054Y-84521715D01*
X137604147Y-84039946D01*
X137263447Y-83812298D01*
X137406358Y-83745183D01*
X137796645Y-83316924D01*
X137966476Y-82906890D01*
X137845155Y-82677000D01*
X136652000Y-82677000D01*
X136652000Y-82697000D01*
X136398000Y-82697000D01*
X136398000Y-82677000D01*
X136378000Y-82677000D01*
X136378000Y-82423000D01*
X136398000Y-82423000D01*
X136398000Y-82403000D01*
X136652000Y-82403000D01*
X136652000Y-82423000D01*
X137845155Y-82423000D01*
X137966476Y-82193110D01*
X137796645Y-81783076D01*
X137406358Y-81354817D01*
X137263447Y-81287702D01*
X137604147Y-81060054D01*
X137926054Y-80578285D01*
X138039093Y-80010000D01*
X137926054Y-79441715D01*
X137604147Y-78959946D01*
X137274974Y-78740000D01*
X137604147Y-78520054D01*
X137926054Y-78038285D01*
X138039093Y-77470000D01*
X137926054Y-76901715D01*
X137604147Y-76419946D01*
X137274974Y-76200000D01*
X137604147Y-75980054D01*
X137926054Y-75498285D01*
X138039093Y-74930000D01*
X137926054Y-74361715D01*
X137604147Y-73879946D01*
X137274974Y-73660000D01*
X137604147Y-73440054D01*
X137926054Y-72958285D01*
X138039093Y-72390000D01*
X137926054Y-71821715D01*
X137604147Y-71339946D01*
X137274974Y-71120000D01*
X137604147Y-70900054D01*
X137926054Y-70418285D01*
X138039093Y-69850000D01*
X137926054Y-69281715D01*
X137604147Y-68799946D01*
X137274974Y-68580000D01*
X137604147Y-68360054D01*
X137926054Y-67878285D01*
X138039093Y-67310000D01*
X137926054Y-66741715D01*
X137604147Y-66259946D01*
X137263447Y-66032298D01*
X137406358Y-65965183D01*
X137796645Y-65536924D01*
X137966476Y-65126890D01*
X137845155Y-64897000D01*
X136652000Y-64897000D01*
X136652000Y-64917000D01*
X136398000Y-64917000D01*
X136398000Y-64897000D01*
X136378000Y-64897000D01*
X136378000Y-64643000D01*
X136398000Y-64643000D01*
X136398000Y-63449181D01*
X136652000Y-63449181D01*
X136652000Y-64643000D01*
X137845155Y-64643000D01*
X137966476Y-64413110D01*
X137796645Y-64003076D01*
X137406358Y-63574817D01*
X136881892Y-63328514D01*
X136652000Y-63449181D01*
X136398000Y-63449181D01*
X136168108Y-63328514D01*
X135643642Y-63574817D01*
X135253355Y-64003076D01*
X135253345Y-64003101D01*
X135064147Y-63719946D01*
X134582378Y-63398039D01*
X134014093Y-63285000D01*
X133955907Y-63285000D01*
X133387622Y-63398039D01*
X132905853Y-63719946D01*
X132583946Y-64201715D01*
X132470907Y-64770000D01*
X132583946Y-65338285D01*
X132905853Y-65820054D01*
X133235026Y-66040000D01*
X132905853Y-66259946D01*
X132583946Y-66741715D01*
X132470907Y-67310000D01*
X132583946Y-67878285D01*
X132905853Y-68360054D01*
X133235026Y-68580000D01*
X132905853Y-68799946D01*
X132583946Y-69281715D01*
X132470907Y-69850000D01*
X132583946Y-70418285D01*
X132905853Y-70900054D01*
X133246553Y-71127702D01*
X133103642Y-71194817D01*
X132713355Y-71623076D01*
X132543524Y-72033110D01*
X132664845Y-72263000D01*
X133858000Y-72263000D01*
X133858000Y-72243000D01*
X134112000Y-72243000D01*
X134112000Y-72263000D01*
X134132000Y-72263000D01*
X134132000Y-72517000D01*
X134112000Y-72517000D01*
X134112000Y-72537000D01*
X133858000Y-72537000D01*
X133858000Y-72517000D01*
X132664845Y-72517000D01*
X132543524Y-72746890D01*
X132713355Y-73156924D01*
X133103642Y-73585183D01*
X133246553Y-73652298D01*
X132905853Y-73879946D01*
X132583946Y-74361715D01*
X132470907Y-74930000D01*
X132583946Y-75498285D01*
X132905853Y-75980054D01*
X133246553Y-76207702D01*
X133103642Y-76274817D01*
X132713355Y-76703076D01*
X132543524Y-77113110D01*
X132664845Y-77343000D01*
X133858000Y-77343000D01*
X133858000Y-77323000D01*
X134112000Y-77323000D01*
X134112000Y-77343000D01*
X134132000Y-77343000D01*
X134132000Y-77597000D01*
X134112000Y-77597000D01*
X134112000Y-77617000D01*
X133858000Y-77617000D01*
X133858000Y-77597000D01*
X132664845Y-77597000D01*
X132543524Y-77826890D01*
X132713355Y-78236924D01*
X133103642Y-78665183D01*
X133246553Y-78732298D01*
X132905853Y-78959946D01*
X132583946Y-79441715D01*
X132470907Y-80010000D01*
X132583946Y-80578285D01*
X132905853Y-81060054D01*
X133235026Y-81280000D01*
X132905853Y-81499946D01*
X132583946Y-81981715D01*
X132470907Y-82550000D01*
X132583946Y-83118285D01*
X132905853Y-83600054D01*
X133235026Y-83820000D01*
X132905853Y-84039946D01*
X132583946Y-84521715D01*
X132470907Y-85090000D01*
X132583946Y-85658285D01*
X132905853Y-86140054D01*
X133235026Y-86360000D01*
X132905853Y-86579946D01*
X132583946Y-87061715D01*
X132470907Y-87630000D01*
X132583946Y-88198285D01*
X132905853Y-88680054D01*
X133246553Y-88907702D01*
X133103642Y-88974817D01*
X132713355Y-89403076D01*
X132543524Y-89813110D01*
X132664845Y-90043000D01*
X133858000Y-90043000D01*
X133858000Y-90023000D01*
X134112000Y-90023000D01*
X134112000Y-90043000D01*
X134132000Y-90043000D01*
X134132000Y-90297000D01*
X134112000Y-90297000D01*
X134112000Y-90317000D01*
X133858000Y-90317000D01*
X133858000Y-90297000D01*
X132664845Y-90297000D01*
X132543524Y-90526890D01*
X132713355Y-90936924D01*
X133103642Y-91365183D01*
X133246553Y-91432298D01*
X132905853Y-91659946D01*
X132583946Y-92141715D01*
X132470907Y-92710000D01*
X132583946Y-93278285D01*
X132905853Y-93760054D01*
X133235026Y-93980000D01*
X132905853Y-94199946D01*
X132583946Y-94681715D01*
X132470907Y-95250000D01*
X132583946Y-95818285D01*
X132905853Y-96300054D01*
X133246553Y-96527702D01*
X133103642Y-96594817D01*
X132713355Y-97023076D01*
X132543524Y-97433110D01*
X132664845Y-97663000D01*
X133858000Y-97663000D01*
X133858000Y-97643000D01*
X134112000Y-97643000D01*
X134112000Y-97663000D01*
X134132000Y-97663000D01*
X134132000Y-97917000D01*
X134112000Y-97917000D01*
X134112000Y-97937000D01*
X133858000Y-97937000D01*
X133858000Y-97917000D01*
X132664845Y-97917000D01*
X132543524Y-98146890D01*
X132713355Y-98556924D01*
X133103642Y-98985183D01*
X133246553Y-99052298D01*
X132905853Y-99279946D01*
X132583946Y-99761715D01*
X132470907Y-100330000D01*
X132583946Y-100898285D01*
X132905853Y-101380054D01*
X133235026Y-101600000D01*
X132905853Y-101819946D01*
X132583946Y-102301715D01*
X132470907Y-102870000D01*
X132583946Y-103438285D01*
X132905853Y-103920054D01*
X133235026Y-104140000D01*
X132905853Y-104359946D01*
X132583946Y-104841715D01*
X132470907Y-105410000D01*
X132583946Y-105978285D01*
X132905853Y-106460054D01*
X133246553Y-106687702D01*
X133103642Y-106754817D01*
X132713355Y-107183076D01*
X132543524Y-107593110D01*
X132664845Y-107823000D01*
X133858000Y-107823000D01*
X133858000Y-107803000D01*
X134112000Y-107803000D01*
X134112000Y-107823000D01*
X134132000Y-107823000D01*
X134132000Y-108077000D01*
X134112000Y-108077000D01*
X134112000Y-108097000D01*
X133858000Y-108097000D01*
X133858000Y-108077000D01*
X132664845Y-108077000D01*
X132543524Y-108306890D01*
X132713355Y-108716924D01*
X133103642Y-109145183D01*
X133246553Y-109212298D01*
X132905853Y-109439946D01*
X132583946Y-109921715D01*
X132470907Y-110490000D01*
X132583946Y-111058285D01*
X132905853Y-111540054D01*
X132947452Y-111567850D01*
X132899683Y-111576838D01*
X132683559Y-111715910D01*
X132538569Y-111928110D01*
X132487560Y-112180000D01*
X132487560Y-113275861D01*
X125739210Y-120024210D01*
X125547367Y-120311325D01*
X125547367Y-120311326D01*
X125479999Y-120650000D01*
X125480000Y-120650005D01*
X125480000Y-139064995D01*
X125479999Y-139065000D01*
X125522766Y-139280000D01*
X125547367Y-139403675D01*
X125633037Y-139531890D01*
X125739210Y-139690790D01*
X128914208Y-142865787D01*
X128914210Y-142865790D01*
X129201325Y-143057633D01*
X129257516Y-143068810D01*
X129540000Y-143125001D01*
X129540005Y-143125000D01*
X142239995Y-143125000D01*
X142240000Y-143125001D01*
X142522484Y-143068810D01*
X142578675Y-143057633D01*
X142865790Y-142865790D01*
X142865791Y-142865789D01*
X149215787Y-136515792D01*
X149215790Y-136515790D01*
X149407633Y-136228675D01*
X149417148Y-136180839D01*
X149475001Y-135890000D01*
X149475000Y-135889995D01*
X149475000Y-82916580D01*
X159080829Y-73310750D01*
X166155000Y-73310750D01*
X166155000Y-74001310D01*
X166251673Y-74234699D01*
X166430302Y-74413327D01*
X166663691Y-74510000D01*
X167354250Y-74510000D01*
X167513000Y-74351250D01*
X167513000Y-73152000D01*
X166313750Y-73152000D01*
X166155000Y-73310750D01*
X159080829Y-73310750D01*
X160342889Y-72048690D01*
X166155000Y-72048690D01*
X166155000Y-72739250D01*
X166313750Y-72898000D01*
X167513000Y-72898000D01*
X167513000Y-70612000D01*
X166319845Y-70612000D01*
X166198524Y-70841890D01*
X166368355Y-71251924D01*
X166639878Y-71549864D01*
X166430302Y-71636673D01*
X166251673Y-71815301D01*
X166155000Y-72048690D01*
X160342889Y-72048690D01*
X164196579Y-68195000D01*
X166638420Y-68195000D01*
X167512998Y-69069578D01*
X167512998Y-69164180D01*
X167283108Y-69043514D01*
X166758642Y-69289817D01*
X166368355Y-69718076D01*
X166198524Y-70128110D01*
X166319845Y-70358000D01*
X167513000Y-70358000D01*
X167513000Y-70338000D01*
X167767000Y-70338000D01*
X167767000Y-70358000D01*
X167787000Y-70358000D01*
X167787000Y-70612000D01*
X167767000Y-70612000D01*
X167767000Y-72898000D01*
X167787000Y-72898000D01*
X167787000Y-73152000D01*
X167767000Y-73152000D01*
X167767000Y-74351250D01*
X167925750Y-74510000D01*
X168078420Y-74510000D01*
X167273420Y-75315000D01*
X158115000Y-75315000D01*
X157776325Y-75382367D01*
X157489210Y-75574210D01*
X157489208Y-75574213D01*
X154949210Y-78114210D01*
X154757367Y-78401325D01*
X154757367Y-78401326D01*
X154689999Y-78740000D01*
X154690000Y-78740005D01*
X154690000Y-130809995D01*
X154689999Y-130810000D01*
X154732766Y-131025000D01*
X154757367Y-131148675D01*
X154843037Y-131276890D01*
X154949210Y-131435790D01*
X168284208Y-144770787D01*
X168284210Y-144770790D01*
X168571325Y-144962633D01*
X168627516Y-144973810D01*
X168910000Y-145030001D01*
X168910005Y-145030000D01*
X183929146Y-145030000D01*
X183966838Y-145230317D01*
X184105910Y-145446441D01*
X184318110Y-145591431D01*
X184570000Y-145642440D01*
X186270000Y-145642440D01*
X186505317Y-145598162D01*
X186721441Y-145459090D01*
X186866431Y-145246890D01*
X186917440Y-144995000D01*
X186917440Y-143295000D01*
X186873162Y-143059683D01*
X186734090Y-142843559D01*
X186521890Y-142698569D01*
X186454459Y-142684914D01*
X186499147Y-142655054D01*
X186821054Y-142173285D01*
X186934093Y-141605000D01*
X186821054Y-141036715D01*
X186499147Y-140554946D01*
X186158447Y-140327298D01*
X186301358Y-140260183D01*
X186691645Y-139831924D01*
X186861476Y-139421890D01*
X186740155Y-139192000D01*
X185547000Y-139192000D01*
X185547000Y-139212000D01*
X185293000Y-139212000D01*
X185293000Y-139192000D01*
X184099845Y-139192000D01*
X183978524Y-139421890D01*
X184148355Y-139831924D01*
X184538642Y-140260183D01*
X184681553Y-140327298D01*
X184340853Y-140554946D01*
X184018946Y-141036715D01*
X183905907Y-141605000D01*
X184018946Y-142173285D01*
X184340853Y-142655054D01*
X184382452Y-142682850D01*
X184334683Y-142691838D01*
X184118559Y-142830910D01*
X183973569Y-143043110D01*
X183929648Y-143260000D01*
X169276579Y-143260000D01*
X163619199Y-137602619D01*
X174929613Y-137602619D01*
X175269155Y-138424372D01*
X175897321Y-139053636D01*
X176718481Y-139394611D01*
X177607619Y-139395387D01*
X178429372Y-139055845D01*
X179058636Y-138427679D01*
X179399611Y-137606519D01*
X179400387Y-136717381D01*
X179060845Y-135895628D01*
X178432679Y-135266364D01*
X177611519Y-134925389D01*
X176722381Y-134924613D01*
X175900628Y-135264155D01*
X175271364Y-135892321D01*
X174930389Y-136713481D01*
X174929613Y-137602619D01*
X163619199Y-137602619D01*
X156460000Y-130443420D01*
X156460000Y-130145907D01*
X157900000Y-130145907D01*
X157900000Y-130204093D01*
X158013039Y-130772378D01*
X158334946Y-131254147D01*
X158816715Y-131576054D01*
X159385000Y-131689093D01*
X159953285Y-131576054D01*
X160435054Y-131254147D01*
X160655000Y-130924974D01*
X160874946Y-131254147D01*
X161356715Y-131576054D01*
X161680696Y-131640498D01*
X162657599Y-132617401D01*
X162904160Y-132782148D01*
X163195000Y-132840000D01*
X164465000Y-132840000D01*
X164755839Y-132782148D01*
X165002401Y-132617401D01*
X166201148Y-131418654D01*
X166436715Y-131576054D01*
X167005000Y-131689093D01*
X167573285Y-131576054D01*
X168055054Y-131254147D01*
X168275000Y-130924974D01*
X168494946Y-131254147D01*
X168976715Y-131576054D01*
X169545000Y-131689093D01*
X170113285Y-131576054D01*
X170595054Y-131254147D01*
X170622850Y-131212548D01*
X170631838Y-131260317D01*
X170770910Y-131476441D01*
X170983110Y-131621431D01*
X171235000Y-131672440D01*
X172935000Y-131672440D01*
X173170317Y-131628162D01*
X173386441Y-131489090D01*
X173531431Y-131276890D01*
X173582440Y-131025000D01*
X173582440Y-130935000D01*
X178755198Y-130935000D01*
X183978790Y-136158592D01*
X183905907Y-136525000D01*
X184018946Y-137093285D01*
X184340853Y-137575054D01*
X184681553Y-137802702D01*
X184538642Y-137869817D01*
X184148355Y-138298076D01*
X183978524Y-138708110D01*
X184099845Y-138938000D01*
X185293000Y-138938000D01*
X185293000Y-138918000D01*
X185547000Y-138918000D01*
X185547000Y-138938000D01*
X186740155Y-138938000D01*
X186861476Y-138708110D01*
X186691645Y-138298076D01*
X186301358Y-137869817D01*
X186158447Y-137802702D01*
X186499147Y-137575054D01*
X186821054Y-137093285D01*
X186934093Y-136525000D01*
X186821054Y-135956715D01*
X186499147Y-135474946D01*
X186169974Y-135255000D01*
X186499147Y-135035054D01*
X186821054Y-134553285D01*
X186934093Y-133985000D01*
X186821054Y-133416715D01*
X186499147Y-132934946D01*
X186169974Y-132715000D01*
X186499147Y-132495054D01*
X186821054Y-132013285D01*
X186934093Y-131445000D01*
X186821054Y-130876715D01*
X186499147Y-130394946D01*
X186169974Y-130175000D01*
X186499147Y-129955054D01*
X186821054Y-129473285D01*
X186934093Y-128905000D01*
X186821054Y-128336715D01*
X186499147Y-127854946D01*
X186169974Y-127635000D01*
X186499147Y-127415054D01*
X186821054Y-126933285D01*
X186934093Y-126365000D01*
X186821054Y-125796715D01*
X186499147Y-125314946D01*
X186017378Y-124993039D01*
X185449093Y-124880000D01*
X185390907Y-124880000D01*
X184822622Y-124993039D01*
X184340853Y-125314946D01*
X184147046Y-125605000D01*
X167640000Y-125605000D01*
X167349161Y-125662852D01*
X167102599Y-125827599D01*
X164220696Y-128709502D01*
X163896715Y-128773946D01*
X163414946Y-129095853D01*
X163195000Y-129425026D01*
X162975054Y-129095853D01*
X162493285Y-128773946D01*
X161925000Y-128660907D01*
X161356715Y-128773946D01*
X160874946Y-129095853D01*
X160655000Y-129425026D01*
X160435054Y-129095853D01*
X159953285Y-128773946D01*
X159385000Y-128660907D01*
X158816715Y-128773946D01*
X158334946Y-129095853D01*
X158013039Y-129577622D01*
X157900000Y-130145907D01*
X156460000Y-130145907D01*
X156460000Y-118552619D01*
X181914613Y-118552619D01*
X182254155Y-119374372D01*
X182882321Y-120003636D01*
X183703481Y-120344611D01*
X184592619Y-120345387D01*
X185414372Y-120005845D01*
X186043636Y-119377679D01*
X186384611Y-118556519D01*
X186385387Y-117667381D01*
X186045845Y-116845628D01*
X185417679Y-116216364D01*
X184596519Y-115875389D01*
X183707381Y-115874613D01*
X182885628Y-116214155D01*
X182256364Y-116842321D01*
X181915389Y-117663481D01*
X181914613Y-118552619D01*
X156460000Y-118552619D01*
X156460000Y-79106580D01*
X157430000Y-78136580D01*
X157430000Y-114935000D01*
X157482143Y-115197138D01*
X157630632Y-115419368D01*
X157852862Y-115567857D01*
X158115000Y-115620000D01*
X187198000Y-115620000D01*
X187198000Y-151638000D01*
X118795000Y-151638000D01*
X118795000Y-60132619D01*
X133019613Y-60132619D01*
X133359155Y-60954372D01*
X133987321Y-61583636D01*
X134808481Y-61924611D01*
X135697619Y-61925387D01*
X136519372Y-61585845D01*
X137148636Y-60957679D01*
X137489611Y-60136519D01*
X137490387Y-59247381D01*
X137150845Y-58425628D01*
X136522679Y-57796364D01*
X135701519Y-57455389D01*
X134812381Y-57454613D01*
X133990628Y-57794155D01*
X133361364Y-58422321D01*
X133020389Y-59243481D01*
X133019613Y-60132619D01*
X118795000Y-60132619D01*
X118795000Y-54025000D01*
X127599712Y-54025000D01*
X127011364Y-54612321D01*
X127011364Y-54612321D01*
G37*
X127011364Y-54612321D02*
X126670389Y-55433481D01*
X126669613Y-56322619D01*
X127009155Y-57144372D01*
X127637321Y-57773636D01*
X128458481Y-58114611D01*
X129347619Y-58115387D01*
X130169372Y-57775845D01*
X130798636Y-57147679D01*
X131139611Y-56326519D01*
X131140387Y-55437381D01*
X130800845Y-54615628D01*
X130211248Y-54025000D01*
X147765196Y-54025000D01*
X147510853Y-54194946D01*
X147188946Y-54676715D01*
X147124502Y-55000696D01*
X140432599Y-61692599D01*
X140267852Y-61939161D01*
X140210000Y-62230000D01*
X140210000Y-121773025D01*
X140166890Y-121743569D01*
X139915000Y-121692560D01*
X138215000Y-121692560D01*
X137979683Y-121736838D01*
X137763559Y-121875910D01*
X137618569Y-122088110D01*
X137604914Y-122155541D01*
X137575054Y-122110853D01*
X137093285Y-121788946D01*
X136989976Y-121768396D01*
X135880790Y-120659210D01*
X135867006Y-120650000D01*
X135593675Y-120467367D01*
X135537484Y-120456190D01*
X135255000Y-120399999D01*
X135254995Y-120400000D01*
X133350005Y-120400000D01*
X133350000Y-120399999D01*
X133067516Y-120456190D01*
X133011325Y-120467367D01*
X132724210Y-120659210D01*
X132724208Y-120659213D01*
X130819210Y-122564210D01*
X130627367Y-122851325D01*
X130627367Y-122851326D01*
X130559999Y-123190000D01*
X130560000Y-123190005D01*
X130560000Y-139699995D01*
X130559999Y-139700000D01*
X130595094Y-139876431D01*
X130627367Y-140038675D01*
X130757236Y-140233039D01*
X130819210Y-140325790D01*
X131848421Y-141355000D01*
X129906579Y-141355000D01*
X127250000Y-138698420D01*
X127250000Y-121016580D01*
X129713960Y-118552619D01*
X133019613Y-118552619D01*
X133359155Y-119374372D01*
X133987321Y-120003636D01*
X134808481Y-120344611D01*
X135697619Y-120345387D01*
X136519372Y-120005845D01*
X137148636Y-119377679D01*
X137489611Y-118556519D01*
X137490387Y-117667381D01*
X137150845Y-116845628D01*
X136522679Y-116216364D01*
X135701519Y-115875389D01*
X134812381Y-115874613D01*
X133990628Y-116214155D01*
X133361364Y-116842321D01*
X133020389Y-117663481D01*
X133019613Y-118552619D01*
X129713960Y-118552619D01*
X133739139Y-114527440D01*
X134835000Y-114527440D01*
X135070317Y-114483162D01*
X135286441Y-114344090D01*
X135431431Y-114131890D01*
X135442841Y-114075546D01*
X135445853Y-114080054D01*
X135927622Y-114401961D01*
X136495907Y-114515000D01*
X136554093Y-114515000D01*
X137122378Y-114401961D01*
X137604147Y-114080054D01*
X137926054Y-113598285D01*
X138039093Y-113030000D01*
X137926054Y-112461715D01*
X137604147Y-111979946D01*
X137274974Y-111760000D01*
X137604147Y-111540054D01*
X137926054Y-111058285D01*
X138039093Y-110490000D01*
X137926054Y-109921715D01*
X137604147Y-109439946D01*
X137274974Y-109220000D01*
X137604147Y-109000054D01*
X137926054Y-108518285D01*
X138039093Y-107950000D01*
X137926054Y-107381715D01*
X137604147Y-106899946D01*
X137274974Y-106680000D01*
X137604147Y-106460054D01*
X137926054Y-105978285D01*
X138039093Y-105410000D01*
X137926054Y-104841715D01*
X137604147Y-104359946D01*
X137263447Y-104132298D01*
X137406358Y-104065183D01*
X137796645Y-103636924D01*
X137966476Y-103226890D01*
X137845155Y-102997000D01*
X136652000Y-102997000D01*
X136652000Y-103017000D01*
X136398000Y-103017000D01*
X136398000Y-102997000D01*
X136378000Y-102997000D01*
X136378000Y-102743000D01*
X136398000Y-102743000D01*
X136398000Y-102723000D01*
X136652000Y-102723000D01*
X136652000Y-102743000D01*
X137845155Y-102743000D01*
X137966476Y-102513110D01*
X137796645Y-102103076D01*
X137406358Y-101674817D01*
X137263447Y-101607702D01*
X137604147Y-101380054D01*
X137926054Y-100898285D01*
X138039093Y-100330000D01*
X137926054Y-99761715D01*
X137604147Y-99279946D01*
X137274974Y-99060000D01*
X137604147Y-98840054D01*
X137926054Y-98358285D01*
X138039093Y-97790000D01*
X137926054Y-97221715D01*
X137604147Y-96739946D01*
X137274974Y-96520000D01*
X137604147Y-96300054D01*
X137926054Y-95818285D01*
X138039093Y-95250000D01*
X137926054Y-94681715D01*
X137604147Y-94199946D01*
X137274974Y-93980000D01*
X137604147Y-93760054D01*
X137926054Y-93278285D01*
X138039093Y-92710000D01*
X137926054Y-92141715D01*
X137604147Y-91659946D01*
X137274974Y-91440000D01*
X137604147Y-91220054D01*
X137926054Y-90738285D01*
X138039093Y-90170000D01*
X137926054Y-89601715D01*
X137604147Y-89119946D01*
X137274974Y-88900000D01*
X137604147Y-88680054D01*
X137926054Y-88198285D01*
X138039093Y-87630000D01*
X137926054Y-87061715D01*
X137604147Y-86579946D01*
X137274974Y-86360000D01*
X137604147Y-86140054D01*
X137926054Y-85658285D01*
X138039093Y-85090000D01*
X137926054Y-84521715D01*
X137604147Y-84039946D01*
X137263447Y-83812298D01*
X137406358Y-83745183D01*
X137796645Y-83316924D01*
X137966476Y-82906890D01*
X137845155Y-82677000D01*
X136652000Y-82677000D01*
X136652000Y-82697000D01*
X136398000Y-82697000D01*
X136398000Y-82677000D01*
X136378000Y-82677000D01*
X136378000Y-82423000D01*
X136398000Y-82423000D01*
X136398000Y-82403000D01*
X136652000Y-82403000D01*
X136652000Y-82423000D01*
X137845155Y-82423000D01*
X137966476Y-82193110D01*
X137796645Y-81783076D01*
X137406358Y-81354817D01*
X137263447Y-81287702D01*
X137604147Y-81060054D01*
X137926054Y-80578285D01*
X138039093Y-80010000D01*
X137926054Y-79441715D01*
X137604147Y-78959946D01*
X137274974Y-78740000D01*
X137604147Y-78520054D01*
X137926054Y-78038285D01*
X138039093Y-77470000D01*
X137926054Y-76901715D01*
X137604147Y-76419946D01*
X137274974Y-76200000D01*
X137604147Y-75980054D01*
X137926054Y-75498285D01*
X138039093Y-74930000D01*
X137926054Y-74361715D01*
X137604147Y-73879946D01*
X137274974Y-73660000D01*
X137604147Y-73440054D01*
X137926054Y-72958285D01*
X138039093Y-72390000D01*
X137926054Y-71821715D01*
X137604147Y-71339946D01*
X137274974Y-71120000D01*
X137604147Y-70900054D01*
X137926054Y-70418285D01*
X138039093Y-69850000D01*
X137926054Y-69281715D01*
X137604147Y-68799946D01*
X137274974Y-68580000D01*
X137604147Y-68360054D01*
X137926054Y-67878285D01*
X138039093Y-67310000D01*
X137926054Y-66741715D01*
X137604147Y-66259946D01*
X137263447Y-66032298D01*
X137406358Y-65965183D01*
X137796645Y-65536924D01*
X137966476Y-65126890D01*
X137845155Y-64897000D01*
X136652000Y-64897000D01*
X136652000Y-64917000D01*
X136398000Y-64917000D01*
X136398000Y-64897000D01*
X136378000Y-64897000D01*
X136378000Y-64643000D01*
X136398000Y-64643000D01*
X136398000Y-63449181D01*
X136652000Y-63449181D01*
X136652000Y-64643000D01*
X137845155Y-64643000D01*
X137966476Y-64413110D01*
X137796645Y-64003076D01*
X137406358Y-63574817D01*
X136881892Y-63328514D01*
X136652000Y-63449181D01*
X136398000Y-63449181D01*
X136168108Y-63328514D01*
X135643642Y-63574817D01*
X135253355Y-64003076D01*
X135253345Y-64003101D01*
X135064147Y-63719946D01*
X134582378Y-63398039D01*
X134014093Y-63285000D01*
X133955907Y-63285000D01*
X133387622Y-63398039D01*
X132905853Y-63719946D01*
X132583946Y-64201715D01*
X132470907Y-64770000D01*
X132583946Y-65338285D01*
X132905853Y-65820054D01*
X133235026Y-66040000D01*
X132905853Y-66259946D01*
X132583946Y-66741715D01*
X132470907Y-67310000D01*
X132583946Y-67878285D01*
X132905853Y-68360054D01*
X133235026Y-68580000D01*
X132905853Y-68799946D01*
X132583946Y-69281715D01*
X132470907Y-69850000D01*
X132583946Y-70418285D01*
X132905853Y-70900054D01*
X133246553Y-71127702D01*
X133103642Y-71194817D01*
X132713355Y-71623076D01*
X132543524Y-72033110D01*
X132664845Y-72263000D01*
X133858000Y-72263000D01*
X133858000Y-72243000D01*
X134112000Y-72243000D01*
X134112000Y-72263000D01*
X134132000Y-72263000D01*
X134132000Y-72517000D01*
X134112000Y-72517000D01*
X134112000Y-72537000D01*
X133858000Y-72537000D01*
X133858000Y-72517000D01*
X132664845Y-72517000D01*
X132543524Y-72746890D01*
X132713355Y-73156924D01*
X133103642Y-73585183D01*
X133246553Y-73652298D01*
X132905853Y-73879946D01*
X132583946Y-74361715D01*
X132470907Y-74930000D01*
X132583946Y-75498285D01*
X132905853Y-75980054D01*
X133246553Y-76207702D01*
X133103642Y-76274817D01*
X132713355Y-76703076D01*
X132543524Y-77113110D01*
X132664845Y-77343000D01*
X133858000Y-77343000D01*
X133858000Y-77323000D01*
X134112000Y-77323000D01*
X134112000Y-77343000D01*
X134132000Y-77343000D01*
X134132000Y-77597000D01*
X134112000Y-77597000D01*
X134112000Y-77617000D01*
X133858000Y-77617000D01*
X133858000Y-77597000D01*
X132664845Y-77597000D01*
X132543524Y-77826890D01*
X132713355Y-78236924D01*
X133103642Y-78665183D01*
X133246553Y-78732298D01*
X132905853Y-78959946D01*
X132583946Y-79441715D01*
X132470907Y-80010000D01*
X132583946Y-80578285D01*
X132905853Y-81060054D01*
X133235026Y-81280000D01*
X132905853Y-81499946D01*
X132583946Y-81981715D01*
X132470907Y-82550000D01*
X132583946Y-83118285D01*
X132905853Y-83600054D01*
X133235026Y-83820000D01*
X132905853Y-84039946D01*
X132583946Y-84521715D01*
X132470907Y-85090000D01*
X132583946Y-85658285D01*
X132905853Y-86140054D01*
X133235026Y-86360000D01*
X132905853Y-86579946D01*
X132583946Y-87061715D01*
X132470907Y-87630000D01*
X132583946Y-88198285D01*
X132905853Y-88680054D01*
X133246553Y-88907702D01*
X133103642Y-88974817D01*
X132713355Y-89403076D01*
X132543524Y-89813110D01*
X132664845Y-90043000D01*
X133858000Y-90043000D01*
X133858000Y-90023000D01*
X134112000Y-90023000D01*
X134112000Y-90043000D01*
X134132000Y-90043000D01*
X134132000Y-90297000D01*
X134112000Y-90297000D01*
X134112000Y-90317000D01*
X133858000Y-90317000D01*
X133858000Y-90297000D01*
X132664845Y-90297000D01*
X132543524Y-90526890D01*
X132713355Y-90936924D01*
X133103642Y-91365183D01*
X133246553Y-91432298D01*
X132905853Y-91659946D01*
X132583946Y-92141715D01*
X132470907Y-92710000D01*
X132583946Y-93278285D01*
X132905853Y-93760054D01*
X133235026Y-93980000D01*
X132905853Y-94199946D01*
X132583946Y-94681715D01*
X132470907Y-95250000D01*
X132583946Y-95818285D01*
X132905853Y-96300054D01*
X133246553Y-96527702D01*
X133103642Y-96594817D01*
X132713355Y-97023076D01*
X132543524Y-97433110D01*
X132664845Y-97663000D01*
X133858000Y-97663000D01*
X133858000Y-97643000D01*
X134112000Y-97643000D01*
X134112000Y-97663000D01*
X134132000Y-97663000D01*
X134132000Y-97917000D01*
X134112000Y-97917000D01*
X134112000Y-97937000D01*
X133858000Y-97937000D01*
X133858000Y-97917000D01*
X132664845Y-97917000D01*
X132543524Y-98146890D01*
X132713355Y-98556924D01*
X133103642Y-98985183D01*
X133246553Y-99052298D01*
X132905853Y-99279946D01*
X132583946Y-99761715D01*
X132470907Y-100330000D01*
X132583946Y-100898285D01*
X132905853Y-101380054D01*
X133235026Y-101600000D01*
X132905853Y-101819946D01*
X132583946Y-102301715D01*
X132470907Y-102870000D01*
X132583946Y-103438285D01*
X132905853Y-103920054D01*
X133235026Y-104140000D01*
X132905853Y-104359946D01*
X132583946Y-104841715D01*
X132470907Y-105410000D01*
X132583946Y-105978285D01*
X132905853Y-106460054D01*
X133246553Y-106687702D01*
X133103642Y-106754817D01*
X132713355Y-107183076D01*
X132543524Y-107593110D01*
X132664845Y-107823000D01*
X133858000Y-107823000D01*
X133858000Y-107803000D01*
X134112000Y-107803000D01*
X134112000Y-107823000D01*
X134132000Y-107823000D01*
X134132000Y-108077000D01*
X134112000Y-108077000D01*
X134112000Y-108097000D01*
X133858000Y-108097000D01*
X133858000Y-108077000D01*
X132664845Y-108077000D01*
X132543524Y-108306890D01*
X132713355Y-108716924D01*
X133103642Y-109145183D01*
X133246553Y-109212298D01*
X132905853Y-109439946D01*
X132583946Y-109921715D01*
X132470907Y-110490000D01*
X132583946Y-111058285D01*
X132905853Y-111540054D01*
X132947452Y-111567850D01*
X132899683Y-111576838D01*
X132683559Y-111715910D01*
X132538569Y-111928110D01*
X132487560Y-112180000D01*
X132487560Y-113275861D01*
X125739210Y-120024210D01*
X125547367Y-120311325D01*
X125547367Y-120311326D01*
X125479999Y-120650000D01*
X125480000Y-120650005D01*
X125480000Y-139064995D01*
X125479999Y-139065000D01*
X125522766Y-139280000D01*
X125547367Y-139403675D01*
X125633037Y-139531890D01*
X125739210Y-139690790D01*
X128914208Y-142865787D01*
X128914210Y-142865790D01*
X129201325Y-143057633D01*
X129257516Y-143068810D01*
X129540000Y-143125001D01*
X129540005Y-143125000D01*
X142239995Y-143125000D01*
X142240000Y-143125001D01*
X142522484Y-143068810D01*
X142578675Y-143057633D01*
X142865790Y-142865790D01*
X142865791Y-142865789D01*
X149215787Y-136515792D01*
X149215790Y-136515790D01*
X149407633Y-136228675D01*
X149417148Y-136180839D01*
X149475001Y-135890000D01*
X149475000Y-135889995D01*
X149475000Y-82916580D01*
X159080829Y-73310750D01*
X166155000Y-73310750D01*
X166155000Y-74001310D01*
X166251673Y-74234699D01*
X166430302Y-74413327D01*
X166663691Y-74510000D01*
X167354250Y-74510000D01*
X167513000Y-74351250D01*
X167513000Y-73152000D01*
X166313750Y-73152000D01*
X166155000Y-73310750D01*
X159080829Y-73310750D01*
X160342889Y-72048690D01*
X166155000Y-72048690D01*
X166155000Y-72739250D01*
X166313750Y-72898000D01*
X167513000Y-72898000D01*
X167513000Y-70612000D01*
X166319845Y-70612000D01*
X166198524Y-70841890D01*
X166368355Y-71251924D01*
X166639878Y-71549864D01*
X166430302Y-71636673D01*
X166251673Y-71815301D01*
X166155000Y-72048690D01*
X160342889Y-72048690D01*
X164196579Y-68195000D01*
X166638420Y-68195000D01*
X167512998Y-69069578D01*
X167512998Y-69164180D01*
X167283108Y-69043514D01*
X166758642Y-69289817D01*
X166368355Y-69718076D01*
X166198524Y-70128110D01*
X166319845Y-70358000D01*
X167513000Y-70358000D01*
X167513000Y-70338000D01*
X167767000Y-70338000D01*
X167767000Y-70358000D01*
X167787000Y-70358000D01*
X167787000Y-70612000D01*
X167767000Y-70612000D01*
X167767000Y-72898000D01*
X167787000Y-72898000D01*
X167787000Y-73152000D01*
X167767000Y-73152000D01*
X167767000Y-74351250D01*
X167925750Y-74510000D01*
X168078420Y-74510000D01*
X167273420Y-75315000D01*
X158115000Y-75315000D01*
X157776325Y-75382367D01*
X157489210Y-75574210D01*
X157489208Y-75574213D01*
X154949210Y-78114210D01*
X154757367Y-78401325D01*
X154757367Y-78401326D01*
X154689999Y-78740000D01*
X154690000Y-78740005D01*
X154690000Y-130809995D01*
X154689999Y-130810000D01*
X154732766Y-131025000D01*
X154757367Y-131148675D01*
X154843037Y-131276890D01*
X154949210Y-131435790D01*
X168284208Y-144770787D01*
X168284210Y-144770790D01*
X168571325Y-144962633D01*
X168627516Y-144973810D01*
X168910000Y-145030001D01*
X168910005Y-145030000D01*
X183929146Y-145030000D01*
X183966838Y-145230317D01*
X184105910Y-145446441D01*
X184318110Y-145591431D01*
X184570000Y-145642440D01*
X186270000Y-145642440D01*
X186505317Y-145598162D01*
X186721441Y-145459090D01*
X186866431Y-145246890D01*
X186917440Y-144995000D01*
X186917440Y-143295000D01*
X186873162Y-143059683D01*
X186734090Y-142843559D01*
X186521890Y-142698569D01*
X186454459Y-142684914D01*
X186499147Y-142655054D01*
X186821054Y-142173285D01*
X186934093Y-141605000D01*
X186821054Y-141036715D01*
X186499147Y-140554946D01*
X186158447Y-140327298D01*
X186301358Y-140260183D01*
X186691645Y-139831924D01*
X186861476Y-139421890D01*
X186740155Y-139192000D01*
X185547000Y-139192000D01*
X185547000Y-139212000D01*
X185293000Y-139212000D01*
X185293000Y-139192000D01*
X184099845Y-139192000D01*
X183978524Y-139421890D01*
X184148355Y-139831924D01*
X184538642Y-140260183D01*
X184681553Y-140327298D01*
X184340853Y-140554946D01*
X184018946Y-141036715D01*
X183905907Y-141605000D01*
X184018946Y-142173285D01*
X184340853Y-142655054D01*
X184382452Y-142682850D01*
X184334683Y-142691838D01*
X184118559Y-142830910D01*
X183973569Y-143043110D01*
X183929648Y-143260000D01*
X169276579Y-143260000D01*
X163619199Y-137602619D01*
X174929613Y-137602619D01*
X175269155Y-138424372D01*
X175897321Y-139053636D01*
X176718481Y-139394611D01*
X177607619Y-139395387D01*
X178429372Y-139055845D01*
X179058636Y-138427679D01*
X179399611Y-137606519D01*
X179400387Y-136717381D01*
X179060845Y-135895628D01*
X178432679Y-135266364D01*
X177611519Y-134925389D01*
X176722381Y-134924613D01*
X175900628Y-135264155D01*
X175271364Y-135892321D01*
X174930389Y-136713481D01*
X174929613Y-137602619D01*
X163619199Y-137602619D01*
X156460000Y-130443420D01*
X156460000Y-130145907D01*
X157900000Y-130145907D01*
X157900000Y-130204093D01*
X158013039Y-130772378D01*
X158334946Y-131254147D01*
X158816715Y-131576054D01*
X159385000Y-131689093D01*
X159953285Y-131576054D01*
X160435054Y-131254147D01*
X160655000Y-130924974D01*
X160874946Y-131254147D01*
X161356715Y-131576054D01*
X161680696Y-131640498D01*
X162657599Y-132617401D01*
X162904160Y-132782148D01*
X163195000Y-132840000D01*
X164465000Y-132840000D01*
X164755839Y-132782148D01*
X165002401Y-132617401D01*
X166201148Y-131418654D01*
X166436715Y-131576054D01*
X167005000Y-131689093D01*
X167573285Y-131576054D01*
X168055054Y-131254147D01*
X168275000Y-130924974D01*
X168494946Y-131254147D01*
X168976715Y-131576054D01*
X169545000Y-131689093D01*
X170113285Y-131576054D01*
X170595054Y-131254147D01*
X170622850Y-131212548D01*
X170631838Y-131260317D01*
X170770910Y-131476441D01*
X170983110Y-131621431D01*
X171235000Y-131672440D01*
X172935000Y-131672440D01*
X173170317Y-131628162D01*
X173386441Y-131489090D01*
X173531431Y-131276890D01*
X173582440Y-131025000D01*
X173582440Y-130935000D01*
X178755198Y-130935000D01*
X183978790Y-136158592D01*
X183905907Y-136525000D01*
X184018946Y-137093285D01*
X184340853Y-137575054D01*
X184681553Y-137802702D01*
X184538642Y-137869817D01*
X184148355Y-138298076D01*
X183978524Y-138708110D01*
X184099845Y-138938000D01*
X185293000Y-138938000D01*
X185293000Y-138918000D01*
X185547000Y-138918000D01*
X185547000Y-138938000D01*
X186740155Y-138938000D01*
X186861476Y-138708110D01*
X186691645Y-138298076D01*
X186301358Y-137869817D01*
X186158447Y-137802702D01*
X186499147Y-137575054D01*
X186821054Y-137093285D01*
X186934093Y-136525000D01*
X186821054Y-135956715D01*
X186499147Y-135474946D01*
X186169974Y-135255000D01*
X186499147Y-135035054D01*
X186821054Y-134553285D01*
X186934093Y-133985000D01*
X186821054Y-133416715D01*
X186499147Y-132934946D01*
X186169974Y-132715000D01*
X186499147Y-132495054D01*
X186821054Y-132013285D01*
X186934093Y-131445000D01*
X186821054Y-130876715D01*
X186499147Y-130394946D01*
X186169974Y-130175000D01*
X186499147Y-129955054D01*
X186821054Y-129473285D01*
X186934093Y-128905000D01*
X186821054Y-128336715D01*
X186499147Y-127854946D01*
X186169974Y-127635000D01*
X186499147Y-127415054D01*
X186821054Y-126933285D01*
X186934093Y-126365000D01*
X186821054Y-125796715D01*
X186499147Y-125314946D01*
X186017378Y-124993039D01*
X185449093Y-124880000D01*
X185390907Y-124880000D01*
X184822622Y-124993039D01*
X184340853Y-125314946D01*
X184147046Y-125605000D01*
X167640000Y-125605000D01*
X167349161Y-125662852D01*
X167102599Y-125827599D01*
X164220696Y-128709502D01*
X163896715Y-128773946D01*
X163414946Y-129095853D01*
X163195000Y-129425026D01*
X162975054Y-129095853D01*
X162493285Y-128773946D01*
X161925000Y-128660907D01*
X161356715Y-128773946D01*
X160874946Y-129095853D01*
X160655000Y-129425026D01*
X160435054Y-129095853D01*
X159953285Y-128773946D01*
X159385000Y-128660907D01*
X158816715Y-128773946D01*
X158334946Y-129095853D01*
X158013039Y-129577622D01*
X157900000Y-130145907D01*
X156460000Y-130145907D01*
X156460000Y-118552619D01*
X181914613Y-118552619D01*
X182254155Y-119374372D01*
X182882321Y-120003636D01*
X183703481Y-120344611D01*
X184592619Y-120345387D01*
X185414372Y-120005845D01*
X186043636Y-119377679D01*
X186384611Y-118556519D01*
X186385387Y-117667381D01*
X186045845Y-116845628D01*
X185417679Y-116216364D01*
X184596519Y-115875389D01*
X183707381Y-115874613D01*
X182885628Y-116214155D01*
X182256364Y-116842321D01*
X181915389Y-117663481D01*
X181914613Y-118552619D01*
X156460000Y-118552619D01*
X156460000Y-79106580D01*
X157430000Y-78136580D01*
X157430000Y-114935000D01*
X157482143Y-115197138D01*
X157630632Y-115419368D01*
X157852862Y-115567857D01*
X158115000Y-115620000D01*
X187198000Y-115620000D01*
X187198000Y-151638000D01*
X118795000Y-151638000D01*
X118795000Y-60132619D01*
X133019613Y-60132619D01*
X133359155Y-60954372D01*
X133987321Y-61583636D01*
X134808481Y-61924611D01*
X135697619Y-61925387D01*
X136519372Y-61585845D01*
X137148636Y-60957679D01*
X137489611Y-60136519D01*
X137490387Y-59247381D01*
X137150845Y-58425628D01*
X136522679Y-57796364D01*
X135701519Y-57455389D01*
X134812381Y-57454613D01*
X133990628Y-57794155D01*
X133361364Y-58422321D01*
X133020389Y-59243481D01*
X133019613Y-60132619D01*
X118795000Y-60132619D01*
X118795000Y-54025000D01*
X127599712Y-54025000D01*
X127011364Y-54612321D01*
G36*
X134112000Y-123063000D02*
X134132000Y-123063000D01*
X134132000Y-123317000D01*
X134112000Y-123317000D01*
X134112000Y-125603000D01*
X134132000Y-125603000D01*
X134132000Y-125857000D01*
X134112000Y-125857000D01*
X134112000Y-128143000D01*
X134132000Y-128143000D01*
X134132000Y-128397000D01*
X134112000Y-128397000D01*
X134112000Y-130683000D01*
X134132000Y-130683000D01*
X134132000Y-130937000D01*
X134112000Y-130937000D01*
X134112000Y-133223000D01*
X134132000Y-133223000D01*
X134132000Y-133477000D01*
X134112000Y-133477000D01*
X134112000Y-135763000D01*
X134132000Y-135763000D01*
X134132000Y-136017000D01*
X134112000Y-136017000D01*
X134112000Y-138303000D01*
X134132000Y-138303000D01*
X134132000Y-138557000D01*
X134112000Y-138557000D01*
X134112000Y-139750155D01*
X134341890Y-139871476D01*
X134751924Y-139701645D01*
X135180183Y-139311358D01*
X135247298Y-139168447D01*
X135474946Y-139509147D01*
X135956715Y-139831054D01*
X136525000Y-139944093D01*
X137093285Y-139831054D01*
X137575054Y-139509147D01*
X137602850Y-139467548D01*
X137611838Y-139515317D01*
X137750910Y-139731441D01*
X137963110Y-139876431D01*
X138215000Y-139927440D01*
X139915000Y-139927440D01*
X140150317Y-139883162D01*
X140366441Y-139744090D01*
X140511431Y-139531890D01*
X140562440Y-139280000D01*
X140562440Y-139190000D01*
X142133420Y-139190000D01*
X141238420Y-140085000D01*
X133081579Y-140085000D01*
X132330000Y-139333420D01*
X132330000Y-138786892D01*
X132543514Y-138786892D01*
X132789817Y-139311358D01*
X133218076Y-139701645D01*
X133628110Y-139871476D01*
X133858000Y-139750155D01*
X133858000Y-138557000D01*
X132664181Y-138557000D01*
X132543514Y-138786892D01*
X132330000Y-138786892D01*
X132330000Y-136246892D01*
X132543514Y-136246892D01*
X132789817Y-136771358D01*
X133216271Y-137160000D01*
X132789817Y-137548642D01*
X132543514Y-138073108D01*
X132664181Y-138303000D01*
X133858000Y-138303000D01*
X133858000Y-136017000D01*
X132664181Y-136017000D01*
X132543514Y-136246892D01*
X132330000Y-136246892D01*
X132330000Y-133706892D01*
X132543514Y-133706892D01*
X132789817Y-134231358D01*
X133216271Y-134620000D01*
X132789817Y-135008642D01*
X132543514Y-135533108D01*
X132664181Y-135763000D01*
X133858000Y-135763000D01*
X133858000Y-133477000D01*
X132664181Y-133477000D01*
X132543514Y-133706892D01*
X132330000Y-133706892D01*
X132330000Y-131166892D01*
X132543514Y-131166892D01*
X132789817Y-131691358D01*
X133216271Y-132080000D01*
X132789817Y-132468642D01*
X132543514Y-132993108D01*
X132664181Y-133223000D01*
X133858000Y-133223000D01*
X133858000Y-130937000D01*
X132664181Y-130937000D01*
X132543514Y-131166892D01*
X132330000Y-131166892D01*
X132330000Y-128626892D01*
X132543514Y-128626892D01*
X132789817Y-129151358D01*
X133216271Y-129540000D01*
X132789817Y-129928642D01*
X132543514Y-130453108D01*
X132664181Y-130683000D01*
X133858000Y-130683000D01*
X133858000Y-128397000D01*
X132664181Y-128397000D01*
X132543514Y-128626892D01*
X132330000Y-128626892D01*
X132330000Y-126086892D01*
X132543514Y-126086892D01*
X132789817Y-126611358D01*
X133216271Y-127000000D01*
X132789817Y-127388642D01*
X132543514Y-127913108D01*
X132664181Y-128143000D01*
X133858000Y-128143000D01*
X133858000Y-125857000D01*
X132664181Y-125857000D01*
X132543514Y-126086892D01*
X132330000Y-126086892D01*
X132330000Y-123556580D01*
X132569578Y-123317002D01*
X132664180Y-123317002D01*
X132543514Y-123546892D01*
X132789817Y-124071358D01*
X133216271Y-124460000D01*
X132789817Y-124848642D01*
X132543514Y-125373108D01*
X132664181Y-125603000D01*
X133858000Y-125603000D01*
X133858000Y-123317000D01*
X133838000Y-123317000D01*
X133838000Y-123063000D01*
X133858000Y-123063000D01*
X133858000Y-123043000D01*
X134112000Y-123043000D01*
X134112000Y-123063000D01*
X134112000Y-123063000D01*
G37*
X134112000Y-123063000D02*
X134132000Y-123063000D01*
X134132000Y-123317000D01*
X134112000Y-123317000D01*
X134112000Y-125603000D01*
X134132000Y-125603000D01*
X134132000Y-125857000D01*
X134112000Y-125857000D01*
X134112000Y-128143000D01*
X134132000Y-128143000D01*
X134132000Y-128397000D01*
X134112000Y-128397000D01*
X134112000Y-130683000D01*
X134132000Y-130683000D01*
X134132000Y-130937000D01*
X134112000Y-130937000D01*
X134112000Y-133223000D01*
X134132000Y-133223000D01*
X134132000Y-133477000D01*
X134112000Y-133477000D01*
X134112000Y-135763000D01*
X134132000Y-135763000D01*
X134132000Y-136017000D01*
X134112000Y-136017000D01*
X134112000Y-138303000D01*
X134132000Y-138303000D01*
X134132000Y-138557000D01*
X134112000Y-138557000D01*
X134112000Y-139750155D01*
X134341890Y-139871476D01*
X134751924Y-139701645D01*
X135180183Y-139311358D01*
X135247298Y-139168447D01*
X135474946Y-139509147D01*
X135956715Y-139831054D01*
X136525000Y-139944093D01*
X137093285Y-139831054D01*
X137575054Y-139509147D01*
X137602850Y-139467548D01*
X137611838Y-139515317D01*
X137750910Y-139731441D01*
X137963110Y-139876431D01*
X138215000Y-139927440D01*
X139915000Y-139927440D01*
X140150317Y-139883162D01*
X140366441Y-139744090D01*
X140511431Y-139531890D01*
X140562440Y-139280000D01*
X140562440Y-139190000D01*
X142133420Y-139190000D01*
X141238420Y-140085000D01*
X133081579Y-140085000D01*
X132330000Y-139333420D01*
X132330000Y-138786892D01*
X132543514Y-138786892D01*
X132789817Y-139311358D01*
X133218076Y-139701645D01*
X133628110Y-139871476D01*
X133858000Y-139750155D01*
X133858000Y-138557000D01*
X132664181Y-138557000D01*
X132543514Y-138786892D01*
X132330000Y-138786892D01*
X132330000Y-136246892D01*
X132543514Y-136246892D01*
X132789817Y-136771358D01*
X133216271Y-137160000D01*
X132789817Y-137548642D01*
X132543514Y-138073108D01*
X132664181Y-138303000D01*
X133858000Y-138303000D01*
X133858000Y-136017000D01*
X132664181Y-136017000D01*
X132543514Y-136246892D01*
X132330000Y-136246892D01*
X132330000Y-133706892D01*
X132543514Y-133706892D01*
X132789817Y-134231358D01*
X133216271Y-134620000D01*
X132789817Y-135008642D01*
X132543514Y-135533108D01*
X132664181Y-135763000D01*
X133858000Y-135763000D01*
X133858000Y-133477000D01*
X132664181Y-133477000D01*
X132543514Y-133706892D01*
X132330000Y-133706892D01*
X132330000Y-131166892D01*
X132543514Y-131166892D01*
X132789817Y-131691358D01*
X133216271Y-132080000D01*
X132789817Y-132468642D01*
X132543514Y-132993108D01*
X132664181Y-133223000D01*
X133858000Y-133223000D01*
X133858000Y-130937000D01*
X132664181Y-130937000D01*
X132543514Y-131166892D01*
X132330000Y-131166892D01*
X132330000Y-128626892D01*
X132543514Y-128626892D01*
X132789817Y-129151358D01*
X133216271Y-129540000D01*
X132789817Y-129928642D01*
X132543514Y-130453108D01*
X132664181Y-130683000D01*
X133858000Y-130683000D01*
X133858000Y-128397000D01*
X132664181Y-128397000D01*
X132543514Y-128626892D01*
X132330000Y-128626892D01*
X132330000Y-126086892D01*
X132543514Y-126086892D01*
X132789817Y-126611358D01*
X133216271Y-127000000D01*
X132789817Y-127388642D01*
X132543514Y-127913108D01*
X132664181Y-128143000D01*
X133858000Y-128143000D01*
X133858000Y-125857000D01*
X132664181Y-125857000D01*
X132543514Y-126086892D01*
X132330000Y-126086892D01*
X132330000Y-123556580D01*
X132569578Y-123317002D01*
X132664180Y-123317002D01*
X132543514Y-123546892D01*
X132789817Y-124071358D01*
X133216271Y-124460000D01*
X132789817Y-124848642D01*
X132543514Y-125373108D01*
X132664181Y-125603000D01*
X133858000Y-125603000D01*
X133858000Y-123317000D01*
X133838000Y-123317000D01*
X133838000Y-123063000D01*
X133858000Y-123063000D01*
X133858000Y-123043000D01*
X134112000Y-123043000D01*
X134112000Y-123063000D01*
M02*
