G04 #@! TF.FileFunction,Soldermask,Top*
%FSLAX46Y46*%
G04 Gerber Fmt 4.6, Leading zero omitted, Abs format (unit mm)*
G04 Created by KiCad (PCBNEW 4.0.7) date 03/26/18 11:29:09*
%MOMM*%
%LPD*%
G01*
G04 APERTURE LIST*
%ADD10C,0.100000*%
%ADD11C,3.200000*%
%ADD12R,1.700000X1.700000*%
%ADD13O,1.700000X1.700000*%
G04 APERTURE END LIST*
D10*
D11*
X184150000Y-59690000D03*
D12*
X185420000Y-144145000D03*
D13*
X185420000Y-141605000D03*
X185420000Y-139065000D03*
X185420000Y-136525000D03*
X185420000Y-133985000D03*
X185420000Y-131445000D03*
X185420000Y-128905000D03*
X185420000Y-126365000D03*
D12*
X133985000Y-113030000D03*
D13*
X136525000Y-113030000D03*
X133985000Y-110490000D03*
X136525000Y-110490000D03*
X133985000Y-107950000D03*
X136525000Y-107950000D03*
X133985000Y-105410000D03*
X136525000Y-105410000D03*
X133985000Y-102870000D03*
X136525000Y-102870000D03*
X133985000Y-100330000D03*
X136525000Y-100330000D03*
X133985000Y-97790000D03*
X136525000Y-97790000D03*
X133985000Y-95250000D03*
X136525000Y-95250000D03*
X133985000Y-92710000D03*
X136525000Y-92710000D03*
X133985000Y-90170000D03*
X136525000Y-90170000D03*
X133985000Y-87630000D03*
X136525000Y-87630000D03*
X133985000Y-85090000D03*
X136525000Y-85090000D03*
X133985000Y-82550000D03*
X136525000Y-82550000D03*
X133985000Y-80010000D03*
X136525000Y-80010000D03*
X133985000Y-77470000D03*
X136525000Y-77470000D03*
X133985000Y-74930000D03*
X136525000Y-74930000D03*
X133985000Y-72390000D03*
X136525000Y-72390000D03*
X133985000Y-69850000D03*
X136525000Y-69850000D03*
X133985000Y-67310000D03*
X136525000Y-67310000D03*
X133985000Y-64770000D03*
X136525000Y-64770000D03*
D12*
X139065000Y-138430000D03*
D13*
X136525000Y-138430000D03*
X133985000Y-138430000D03*
D12*
X139065000Y-135890000D03*
D13*
X136525000Y-135890000D03*
X133985000Y-135890000D03*
D12*
X139065000Y-133350000D03*
D13*
X136525000Y-133350000D03*
X133985000Y-133350000D03*
D12*
X139065000Y-130810000D03*
D13*
X136525000Y-130810000D03*
X133985000Y-130810000D03*
D12*
X139065000Y-128270000D03*
D13*
X136525000Y-128270000D03*
X133985000Y-128270000D03*
D12*
X139065000Y-125730000D03*
D13*
X136525000Y-125730000D03*
X133985000Y-125730000D03*
D12*
X148590000Y-67945000D03*
D13*
X148590000Y-65405000D03*
X148590000Y-62865000D03*
X148590000Y-60325000D03*
X148590000Y-57785000D03*
X148590000Y-55245000D03*
D12*
X172085000Y-130175000D03*
D13*
X169545000Y-130175000D03*
X167005000Y-130175000D03*
X164465000Y-130175000D03*
X161925000Y-130175000D03*
X159385000Y-130175000D03*
D12*
X167640000Y-73025000D03*
D13*
X170180000Y-73025000D03*
X167640000Y-70485000D03*
X170180000Y-70485000D03*
D11*
X128905000Y-55880000D03*
X135255000Y-59690000D03*
X135255000Y-118110000D03*
X184150000Y-118110000D03*
X177165000Y-137160000D03*
D12*
X139065000Y-123190000D03*
D13*
X136525000Y-123190000D03*
X133985000Y-123190000D03*
M02*
