M48
;DRILL file {KiCad 4.0.7} date 05/29/18 16:58:23
;FORMAT={-:-/ absolute / metric / decimal}
FMAT,2
METRIC,TZ
T1C1.000
T2C3.200
%
G90
G05
M71
T1
X121.285Y-64.77
X121.285Y-67.31
X121.285Y-69.85
X121.285Y-72.39
X121.285Y-74.93
X121.285Y-77.47
X121.285Y-80.01
X121.285Y-82.55
X121.285Y-85.09
X121.285Y-87.63
X121.285Y-90.17
X121.285Y-92.71
X121.285Y-95.25
X121.285Y-97.79
X121.285Y-100.33
X121.285Y-102.87
X121.285Y-105.41
X121.285Y-107.95
X121.285Y-110.49
X121.285Y-113.03
X123.825Y-64.77
X123.825Y-67.31
X123.825Y-69.85
X123.825Y-72.39
X123.825Y-74.93
X123.825Y-77.47
X123.825Y-80.01
X123.825Y-82.55
X123.825Y-85.09
X123.825Y-87.63
X123.825Y-90.17
X123.825Y-92.71
X123.825Y-95.25
X123.825Y-97.79
X123.825Y-100.33
X123.825Y-102.87
X123.825Y-105.41
X123.825Y-107.95
X123.825Y-110.49
X123.825Y-113.03
X133.985Y-64.77
X133.985Y-67.31
X133.985Y-69.85
X133.985Y-72.39
X133.985Y-74.93
X133.985Y-77.47
X133.985Y-80.01
X133.985Y-82.55
X133.985Y-85.09
X133.985Y-87.63
X133.985Y-90.17
X133.985Y-92.71
X133.985Y-95.25
X133.985Y-97.79
X133.985Y-100.33
X133.985Y-102.87
X133.985Y-105.41
X133.985Y-107.95
X133.985Y-110.49
X133.985Y-113.03
X133.985Y-133.985
X133.985Y-136.525
X133.985Y-139.065
X133.985Y-141.605
X133.985Y-144.145
X133.985Y-146.685
X133.985Y-149.225
X136.525Y-64.77
X136.525Y-67.31
X136.525Y-69.85
X136.525Y-72.39
X136.525Y-74.93
X136.525Y-77.47
X136.525Y-80.01
X136.525Y-82.55
X136.525Y-85.09
X136.525Y-87.63
X136.525Y-90.17
X136.525Y-92.71
X136.525Y-95.25
X136.525Y-97.79
X136.525Y-100.33
X136.525Y-102.87
X136.525Y-105.41
X136.525Y-107.95
X136.525Y-110.49
X136.525Y-113.03
X136.525Y-133.985
X136.525Y-136.525
X136.525Y-139.065
X136.525Y-141.605
X136.525Y-144.145
X136.525Y-146.685
X136.525Y-149.225
X139.065Y-133.985
X139.065Y-136.525
X139.065Y-139.065
X139.065Y-141.605
X139.065Y-144.145
X139.065Y-146.685
X139.065Y-149.225
X153.035Y-114.3
X153.035Y-116.84
X153.035Y-119.38
X153.035Y-121.92
X153.035Y-124.46
X153.035Y-127.
X159.385Y-130.175
X161.925Y-130.175
X164.465Y-130.175
X165.1Y-70.485
X165.1Y-73.025
X167.005Y-130.175
X167.64Y-70.485
X167.64Y-73.025
X169.545Y-130.175
X172.085Y-130.175
X185.42Y-126.365
X185.42Y-128.905
X185.42Y-131.445
X185.42Y-133.985
X185.42Y-136.525
X185.42Y-139.065
X185.42Y-141.605
X185.42Y-144.145
T2
X128.905Y-55.88
X128.905Y-130.81
X135.255Y-59.69
X135.255Y-118.11
X177.165Y-54.61
X177.165Y-137.16
X184.15Y-59.69
X184.15Y-118.11
T0
M30
