M48
;DRILL file {KiCad 4.0.7} date 07/23/18 10:36:06
;FORMAT={-:-/ absolute / inch / decimal}
FMAT,2
INCH,TZ
T1C0.039
T2C0.126
%
G90
G05
M72
T1
X4.775Y-2.55
X4.775Y-2.65
X4.775Y-2.75
X4.775Y-2.85
X4.775Y-2.95
X4.775Y-3.05
X4.775Y-3.15
X4.775Y-3.25
X4.775Y-3.35
X4.775Y-3.45
X4.775Y-3.55
X4.775Y-3.65
X4.775Y-3.75
X4.775Y-3.85
X4.775Y-3.95
X4.775Y-4.05
X4.775Y-4.15
X4.775Y-4.25
X4.775Y-4.35
X4.775Y-4.45
X4.875Y-2.55
X4.875Y-2.65
X4.875Y-2.75
X4.875Y-2.85
X4.875Y-2.95
X4.875Y-3.05
X4.875Y-3.15
X4.875Y-3.25
X4.875Y-3.35
X4.875Y-3.45
X4.875Y-3.55
X4.875Y-3.65
X4.875Y-3.75
X4.875Y-3.85
X4.875Y-3.95
X4.875Y-4.05
X4.875Y-4.15
X4.875Y-4.25
X4.875Y-4.35
X4.875Y-4.45
X5.275Y-2.55
X5.275Y-2.65
X5.275Y-2.75
X5.275Y-2.85
X5.275Y-2.95
X5.275Y-3.05
X5.275Y-3.15
X5.275Y-3.25
X5.275Y-3.35
X5.275Y-3.45
X5.275Y-3.55
X5.275Y-3.65
X5.275Y-3.75
X5.275Y-3.85
X5.275Y-3.95
X5.275Y-4.05
X5.275Y-4.15
X5.275Y-4.25
X5.275Y-4.35
X5.275Y-4.45
X5.275Y-5.275
X5.275Y-5.375
X5.275Y-5.475
X5.275Y-5.575
X5.275Y-5.675
X5.275Y-5.775
X5.275Y-5.875
X5.375Y-2.55
X5.375Y-2.65
X5.375Y-2.75
X5.375Y-2.85
X5.375Y-2.95
X5.375Y-3.05
X5.375Y-3.15
X5.375Y-3.25
X5.375Y-3.35
X5.375Y-3.45
X5.375Y-3.55
X5.375Y-3.65
X5.375Y-3.75
X5.375Y-3.85
X5.375Y-3.95
X5.375Y-4.05
X5.375Y-4.15
X5.375Y-4.25
X5.375Y-4.35
X5.375Y-4.45
X5.375Y-5.275
X5.375Y-5.375
X5.375Y-5.475
X5.375Y-5.575
X5.375Y-5.675
X5.375Y-5.775
X5.375Y-5.875
X5.475Y-5.275
X5.475Y-5.375
X5.475Y-5.475
X5.475Y-5.575
X5.475Y-5.675
X5.475Y-5.775
X5.475Y-5.875
X6.025Y-4.5
X6.025Y-4.6
X6.025Y-4.7
X6.025Y-4.8
X6.025Y-4.9
X6.025Y-5.
X6.275Y-5.125
X6.375Y-5.125
X6.475Y-5.125
X6.5Y-2.775
X6.5Y-2.875
X6.575Y-5.125
X6.6Y-2.775
X6.6Y-2.875
X6.675Y-5.125
X6.775Y-5.125
X7.3Y-4.975
X7.3Y-5.075
X7.3Y-5.175
X7.3Y-5.275
X7.3Y-5.375
X7.3Y-5.475
X7.3Y-5.575
X7.3Y-5.675
T2
X5.075Y-2.2
X5.075Y-5.15
X5.325Y-2.35
X5.325Y-4.65
X6.975Y-5.4
X7.25Y-4.65
T0
M30
