M48
;DRILL file {KiCad 4.0.7} date 03/26/18 11:31:59
;FORMAT={-:-/ absolute / metric / decimal}
FMAT,2
METRIC,TZ
T1C1.000
T2C3.200
%
G90
G05
M71
T1
X133.985Y-64.77
X133.985Y-67.31
X133.985Y-69.85
X133.985Y-72.39
X133.985Y-74.93
X133.985Y-77.47
X133.985Y-80.01
X133.985Y-82.55
X133.985Y-85.09
X133.985Y-87.63
X133.985Y-90.17
X133.985Y-92.71
X133.985Y-95.25
X133.985Y-97.79
X133.985Y-100.33
X133.985Y-102.87
X133.985Y-105.41
X133.985Y-107.95
X133.985Y-110.49
X133.985Y-113.03
X133.985Y-123.19
X133.985Y-125.73
X133.985Y-128.27
X133.985Y-130.81
X133.985Y-133.35
X133.985Y-135.89
X133.985Y-138.43
X136.525Y-64.77
X136.525Y-67.31
X136.525Y-69.85
X136.525Y-72.39
X136.525Y-74.93
X136.525Y-77.47
X136.525Y-80.01
X136.525Y-82.55
X136.525Y-85.09
X136.525Y-87.63
X136.525Y-90.17
X136.525Y-92.71
X136.525Y-95.25
X136.525Y-97.79
X136.525Y-100.33
X136.525Y-102.87
X136.525Y-105.41
X136.525Y-107.95
X136.525Y-110.49
X136.525Y-113.03
X136.525Y-123.19
X136.525Y-125.73
X136.525Y-128.27
X136.525Y-130.81
X136.525Y-133.35
X136.525Y-135.89
X136.525Y-138.43
X139.065Y-123.19
X139.065Y-125.73
X139.065Y-128.27
X139.065Y-130.81
X139.065Y-133.35
X139.065Y-135.89
X139.065Y-138.43
X148.59Y-55.245
X148.59Y-57.785
X148.59Y-60.325
X148.59Y-62.865
X148.59Y-65.405
X148.59Y-67.945
X159.385Y-130.175
X161.925Y-130.175
X164.465Y-130.175
X167.005Y-130.175
X167.64Y-70.485
X167.64Y-73.025
X169.545Y-130.175
X170.18Y-70.485
X170.18Y-73.025
X172.085Y-130.175
X185.42Y-126.365
X185.42Y-128.905
X185.42Y-131.445
X185.42Y-133.985
X185.42Y-136.525
X185.42Y-139.065
X185.42Y-141.605
X185.42Y-144.145
T2
X128.905Y-55.88
X135.255Y-59.69
X135.255Y-118.11
X177.165Y-137.16
X184.15Y-59.69
X184.15Y-118.11
T0
M30
