G04 #@! TF.FileFunction,Legend,Bot*
%FSLAX46Y46*%
G04 Gerber Fmt 4.6, Leading zero omitted, Abs format (unit mm)*
G04 Created by KiCad (PCBNEW 4.0.7) date 05/29/18 16:58:21*
%MOMM*%
%LPD*%
G01*
G04 APERTURE LIST*
%ADD10C,0.100000*%
%ADD11C,0.120000*%
%ADD12C,0.150000*%
G04 APERTURE END LIST*
D10*
D11*
X137795000Y-145475000D02*
X132655000Y-145475000D01*
X132655000Y-145475000D02*
X132655000Y-142815000D01*
X132655000Y-142815000D02*
X137795000Y-142815000D01*
X137795000Y-142815000D02*
X137795000Y-145475000D01*
X139065000Y-145475000D02*
X140395000Y-145475000D01*
X140395000Y-145475000D02*
X140395000Y-144145000D01*
X184090000Y-142875000D02*
X184090000Y-125035000D01*
X184090000Y-125035000D02*
X186750000Y-125035000D01*
X186750000Y-125035000D02*
X186750000Y-142875000D01*
X186750000Y-142875000D02*
X184090000Y-142875000D01*
X184090000Y-144145000D02*
X184090000Y-145475000D01*
X184090000Y-145475000D02*
X185420000Y-145475000D01*
X132655000Y-63440000D02*
X137855000Y-63440000D01*
X132655000Y-111760000D02*
X132655000Y-63440000D01*
X137855000Y-114360000D02*
X137855000Y-63440000D01*
X132655000Y-111760000D02*
X135255000Y-111760000D01*
X135255000Y-111760000D02*
X135255000Y-114360000D01*
X135255000Y-114360000D02*
X137855000Y-114360000D01*
X132655000Y-113030000D02*
X132655000Y-114360000D01*
X132655000Y-114360000D02*
X133985000Y-114360000D01*
X137795000Y-135315000D02*
X132655000Y-135315000D01*
X132655000Y-135315000D02*
X132655000Y-132655000D01*
X132655000Y-132655000D02*
X137795000Y-132655000D01*
X137795000Y-132655000D02*
X137795000Y-135315000D01*
X139065000Y-135315000D02*
X140395000Y-135315000D01*
X140395000Y-135315000D02*
X140395000Y-133985000D01*
X137795000Y-137855000D02*
X132655000Y-137855000D01*
X132655000Y-137855000D02*
X132655000Y-135195000D01*
X132655000Y-135195000D02*
X137795000Y-135195000D01*
X137795000Y-135195000D02*
X137795000Y-137855000D01*
X139065000Y-137855000D02*
X140395000Y-137855000D01*
X140395000Y-137855000D02*
X140395000Y-136525000D01*
X137795000Y-140395000D02*
X132655000Y-140395000D01*
X132655000Y-140395000D02*
X132655000Y-137735000D01*
X132655000Y-137735000D02*
X137795000Y-137735000D01*
X137795000Y-137735000D02*
X137795000Y-140395000D01*
X139065000Y-140395000D02*
X140395000Y-140395000D01*
X140395000Y-140395000D02*
X140395000Y-139065000D01*
X137795000Y-142935000D02*
X132655000Y-142935000D01*
X132655000Y-142935000D02*
X132655000Y-140275000D01*
X132655000Y-140275000D02*
X137795000Y-140275000D01*
X137795000Y-140275000D02*
X137795000Y-142935000D01*
X139065000Y-142935000D02*
X140395000Y-142935000D01*
X140395000Y-142935000D02*
X140395000Y-141605000D01*
X137795000Y-148015000D02*
X132655000Y-148015000D01*
X132655000Y-148015000D02*
X132655000Y-145355000D01*
X132655000Y-145355000D02*
X137795000Y-145355000D01*
X137795000Y-145355000D02*
X137795000Y-148015000D01*
X139065000Y-148015000D02*
X140395000Y-148015000D01*
X140395000Y-148015000D02*
X140395000Y-146685000D01*
X137795000Y-150555000D02*
X132655000Y-150555000D01*
X132655000Y-150555000D02*
X132655000Y-147895000D01*
X132655000Y-147895000D02*
X137795000Y-147895000D01*
X137795000Y-147895000D02*
X137795000Y-150555000D01*
X139065000Y-150555000D02*
X140395000Y-150555000D01*
X140395000Y-150555000D02*
X140395000Y-149225000D01*
X119955000Y-63440000D02*
X125155000Y-63440000D01*
X119955000Y-111760000D02*
X119955000Y-63440000D01*
X125155000Y-114360000D02*
X125155000Y-63440000D01*
X119955000Y-111760000D02*
X122555000Y-111760000D01*
X122555000Y-111760000D02*
X122555000Y-114360000D01*
X122555000Y-114360000D02*
X125155000Y-114360000D01*
X119955000Y-113030000D02*
X119955000Y-114360000D01*
X119955000Y-114360000D02*
X121285000Y-114360000D01*
D12*
X140847381Y-143335477D02*
X141561667Y-143335477D01*
X141704524Y-143287857D01*
X141799762Y-143192619D01*
X141847381Y-143049762D01*
X141847381Y-142954524D01*
X140942619Y-143764048D02*
X140895000Y-143811667D01*
X140847381Y-143906905D01*
X140847381Y-144145001D01*
X140895000Y-144240239D01*
X140942619Y-144287858D01*
X141037857Y-144335477D01*
X141133095Y-144335477D01*
X141275952Y-144287858D01*
X141847381Y-143716429D01*
X141847381Y-144335477D01*
X141847381Y-144811667D02*
X141847381Y-145002143D01*
X141799762Y-145097382D01*
X141752143Y-145145001D01*
X141609286Y-145240239D01*
X141418810Y-145287858D01*
X141037857Y-145287858D01*
X140942619Y-145240239D01*
X140895000Y-145192620D01*
X140847381Y-145097382D01*
X140847381Y-144906905D01*
X140895000Y-144811667D01*
X140942619Y-144764048D01*
X141037857Y-144716429D01*
X141275952Y-144716429D01*
X141371190Y-144764048D01*
X141418810Y-144811667D01*
X141466429Y-144906905D01*
X141466429Y-145097382D01*
X141418810Y-145192620D01*
X141371190Y-145240239D01*
X141275952Y-145287858D01*
X186229523Y-145927381D02*
X186229523Y-146641667D01*
X186277143Y-146784524D01*
X186372381Y-146879762D01*
X186515238Y-146927381D01*
X186610476Y-146927381D01*
X185848571Y-145927381D02*
X185229523Y-145927381D01*
X185562857Y-146308333D01*
X185419999Y-146308333D01*
X185324761Y-146355952D01*
X185277142Y-146403571D01*
X185229523Y-146498810D01*
X185229523Y-146736905D01*
X185277142Y-146832143D01*
X185324761Y-146879762D01*
X185419999Y-146927381D01*
X185705714Y-146927381D01*
X185800952Y-146879762D01*
X185848571Y-146832143D01*
X184896190Y-145927381D02*
X184277142Y-145927381D01*
X184610476Y-146308333D01*
X184467618Y-146308333D01*
X184372380Y-146355952D01*
X184324761Y-146403571D01*
X184277142Y-146498810D01*
X184277142Y-146736905D01*
X184324761Y-146832143D01*
X184372380Y-146879762D01*
X184467618Y-146927381D01*
X184753333Y-146927381D01*
X184848571Y-146879762D01*
X184896190Y-146832143D01*
X136064523Y-114812381D02*
X136064523Y-115526667D01*
X136112143Y-115669524D01*
X136207381Y-115764762D01*
X136350238Y-115812381D01*
X136445476Y-115812381D01*
X135635952Y-114907619D02*
X135588333Y-114860000D01*
X135493095Y-114812381D01*
X135254999Y-114812381D01*
X135159761Y-114860000D01*
X135112142Y-114907619D01*
X135064523Y-115002857D01*
X135064523Y-115098095D01*
X135112142Y-115240952D01*
X135683571Y-115812381D01*
X135064523Y-115812381D01*
X134731190Y-114812381D02*
X134112142Y-114812381D01*
X134445476Y-115193333D01*
X134302618Y-115193333D01*
X134207380Y-115240952D01*
X134159761Y-115288571D01*
X134112142Y-115383810D01*
X134112142Y-115621905D01*
X134159761Y-115717143D01*
X134207380Y-115764762D01*
X134302618Y-115812381D01*
X134588333Y-115812381D01*
X134683571Y-115764762D01*
X134731190Y-115717143D01*
X140847381Y-133175477D02*
X141561667Y-133175477D01*
X141704524Y-133127857D01*
X141799762Y-133032619D01*
X141847381Y-132889762D01*
X141847381Y-132794524D01*
X140942619Y-133604048D02*
X140895000Y-133651667D01*
X140847381Y-133746905D01*
X140847381Y-133985001D01*
X140895000Y-134080239D01*
X140942619Y-134127858D01*
X141037857Y-134175477D01*
X141133095Y-134175477D01*
X141275952Y-134127858D01*
X141847381Y-133556429D01*
X141847381Y-134175477D01*
X140847381Y-135080239D02*
X140847381Y-134604048D01*
X141323571Y-134556429D01*
X141275952Y-134604048D01*
X141228333Y-134699286D01*
X141228333Y-134937382D01*
X141275952Y-135032620D01*
X141323571Y-135080239D01*
X141418810Y-135127858D01*
X141656905Y-135127858D01*
X141752143Y-135080239D01*
X141799762Y-135032620D01*
X141847381Y-134937382D01*
X141847381Y-134699286D01*
X141799762Y-134604048D01*
X141752143Y-134556429D01*
X140847381Y-135715477D02*
X141561667Y-135715477D01*
X141704524Y-135667857D01*
X141799762Y-135572619D01*
X141847381Y-135429762D01*
X141847381Y-135334524D01*
X140942619Y-136144048D02*
X140895000Y-136191667D01*
X140847381Y-136286905D01*
X140847381Y-136525001D01*
X140895000Y-136620239D01*
X140942619Y-136667858D01*
X141037857Y-136715477D01*
X141133095Y-136715477D01*
X141275952Y-136667858D01*
X141847381Y-136096429D01*
X141847381Y-136715477D01*
X140847381Y-137572620D02*
X140847381Y-137382143D01*
X140895000Y-137286905D01*
X140942619Y-137239286D01*
X141085476Y-137144048D01*
X141275952Y-137096429D01*
X141656905Y-137096429D01*
X141752143Y-137144048D01*
X141799762Y-137191667D01*
X141847381Y-137286905D01*
X141847381Y-137477382D01*
X141799762Y-137572620D01*
X141752143Y-137620239D01*
X141656905Y-137667858D01*
X141418810Y-137667858D01*
X141323571Y-137620239D01*
X141275952Y-137572620D01*
X141228333Y-137477382D01*
X141228333Y-137286905D01*
X141275952Y-137191667D01*
X141323571Y-137144048D01*
X141418810Y-137096429D01*
X140847381Y-138255477D02*
X141561667Y-138255477D01*
X141704524Y-138207857D01*
X141799762Y-138112619D01*
X141847381Y-137969762D01*
X141847381Y-137874524D01*
X140942619Y-138684048D02*
X140895000Y-138731667D01*
X140847381Y-138826905D01*
X140847381Y-139065001D01*
X140895000Y-139160239D01*
X140942619Y-139207858D01*
X141037857Y-139255477D01*
X141133095Y-139255477D01*
X141275952Y-139207858D01*
X141847381Y-138636429D01*
X141847381Y-139255477D01*
X140847381Y-139588810D02*
X140847381Y-140255477D01*
X141847381Y-139826905D01*
X140847381Y-140795477D02*
X141561667Y-140795477D01*
X141704524Y-140747857D01*
X141799762Y-140652619D01*
X141847381Y-140509762D01*
X141847381Y-140414524D01*
X140942619Y-141224048D02*
X140895000Y-141271667D01*
X140847381Y-141366905D01*
X140847381Y-141605001D01*
X140895000Y-141700239D01*
X140942619Y-141747858D01*
X141037857Y-141795477D01*
X141133095Y-141795477D01*
X141275952Y-141747858D01*
X141847381Y-141176429D01*
X141847381Y-141795477D01*
X141275952Y-142366905D02*
X141228333Y-142271667D01*
X141180714Y-142224048D01*
X141085476Y-142176429D01*
X141037857Y-142176429D01*
X140942619Y-142224048D01*
X140895000Y-142271667D01*
X140847381Y-142366905D01*
X140847381Y-142557382D01*
X140895000Y-142652620D01*
X140942619Y-142700239D01*
X141037857Y-142747858D01*
X141085476Y-142747858D01*
X141180714Y-142700239D01*
X141228333Y-142652620D01*
X141275952Y-142557382D01*
X141275952Y-142366905D01*
X141323571Y-142271667D01*
X141371190Y-142224048D01*
X141466429Y-142176429D01*
X141656905Y-142176429D01*
X141752143Y-142224048D01*
X141799762Y-142271667D01*
X141847381Y-142366905D01*
X141847381Y-142557382D01*
X141799762Y-142652620D01*
X141752143Y-142700239D01*
X141656905Y-142747858D01*
X141466429Y-142747858D01*
X141371190Y-142700239D01*
X141323571Y-142652620D01*
X141275952Y-142557382D01*
X140847381Y-145875477D02*
X141561667Y-145875477D01*
X141704524Y-145827857D01*
X141799762Y-145732619D01*
X141847381Y-145589762D01*
X141847381Y-145494524D01*
X140847381Y-146256429D02*
X140847381Y-146875477D01*
X141228333Y-146542143D01*
X141228333Y-146685001D01*
X141275952Y-146780239D01*
X141323571Y-146827858D01*
X141418810Y-146875477D01*
X141656905Y-146875477D01*
X141752143Y-146827858D01*
X141799762Y-146780239D01*
X141847381Y-146685001D01*
X141847381Y-146399286D01*
X141799762Y-146304048D01*
X141752143Y-146256429D01*
X140847381Y-147494524D02*
X140847381Y-147589763D01*
X140895000Y-147685001D01*
X140942619Y-147732620D01*
X141037857Y-147780239D01*
X141228333Y-147827858D01*
X141466429Y-147827858D01*
X141656905Y-147780239D01*
X141752143Y-147732620D01*
X141799762Y-147685001D01*
X141847381Y-147589763D01*
X141847381Y-147494524D01*
X141799762Y-147399286D01*
X141752143Y-147351667D01*
X141656905Y-147304048D01*
X141466429Y-147256429D01*
X141228333Y-147256429D01*
X141037857Y-147304048D01*
X140942619Y-147351667D01*
X140895000Y-147399286D01*
X140847381Y-147494524D01*
X140847381Y-148891667D02*
X141561667Y-148891667D01*
X141704524Y-148844047D01*
X141799762Y-148748809D01*
X141847381Y-148605952D01*
X141847381Y-148510714D01*
X141180714Y-149796429D02*
X141847381Y-149796429D01*
X140799762Y-149558333D02*
X141514048Y-149320238D01*
X141514048Y-149939286D01*
X122888333Y-114812381D02*
X122888333Y-115526667D01*
X122935953Y-115669524D01*
X123031191Y-115764762D01*
X123174048Y-115812381D01*
X123269286Y-115812381D01*
X121935952Y-114812381D02*
X122412143Y-114812381D01*
X122459762Y-115288571D01*
X122412143Y-115240952D01*
X122316905Y-115193333D01*
X122078809Y-115193333D01*
X121983571Y-115240952D01*
X121935952Y-115288571D01*
X121888333Y-115383810D01*
X121888333Y-115621905D01*
X121935952Y-115717143D01*
X121983571Y-115764762D01*
X122078809Y-115812381D01*
X122316905Y-115812381D01*
X122412143Y-115764762D01*
X122459762Y-115717143D01*
M02*
