G04 #@! TF.FileFunction,Copper,L1,Top,Signal*
%FSLAX46Y46*%
G04 Gerber Fmt 4.6, Leading zero omitted, Abs format (unit mm)*
G04 Created by KiCad (PCBNEW 4.0.7) date 07/23/18 10:36:12*
%MOMM*%
%LPD*%
G01*
G04 APERTURE LIST*
%ADD10C,0.100000*%
%ADD11R,1.700000X1.700000*%
%ADD12O,1.700000X1.700000*%
%ADD13C,0.250000*%
G04 APERTURE END LIST*
D10*
D11*
X139065000Y-144145000D03*
D12*
X136525000Y-144145000D03*
X133985000Y-144145000D03*
D11*
X185420000Y-144145000D03*
D12*
X185420000Y-141605000D03*
X185420000Y-139065000D03*
X185420000Y-136525000D03*
X185420000Y-133985000D03*
X185420000Y-131445000D03*
X185420000Y-128905000D03*
X185420000Y-126365000D03*
D11*
X133985000Y-113030000D03*
D12*
X136525000Y-113030000D03*
X133985000Y-110490000D03*
X136525000Y-110490000D03*
X133985000Y-107950000D03*
X136525000Y-107950000D03*
X133985000Y-105410000D03*
X136525000Y-105410000D03*
X133985000Y-102870000D03*
X136525000Y-102870000D03*
X133985000Y-100330000D03*
X136525000Y-100330000D03*
X133985000Y-97790000D03*
X136525000Y-97790000D03*
X133985000Y-95250000D03*
X136525000Y-95250000D03*
X133985000Y-92710000D03*
X136525000Y-92710000D03*
X133985000Y-90170000D03*
X136525000Y-90170000D03*
X133985000Y-87630000D03*
X136525000Y-87630000D03*
X133985000Y-85090000D03*
X136525000Y-85090000D03*
X133985000Y-82550000D03*
X136525000Y-82550000D03*
X133985000Y-80010000D03*
X136525000Y-80010000D03*
X133985000Y-77470000D03*
X136525000Y-77470000D03*
X133985000Y-74930000D03*
X136525000Y-74930000D03*
X133985000Y-72390000D03*
X136525000Y-72390000D03*
X133985000Y-69850000D03*
X136525000Y-69850000D03*
X133985000Y-67310000D03*
X136525000Y-67310000D03*
X133985000Y-64770000D03*
X136525000Y-64770000D03*
D11*
X139065000Y-133985000D03*
D12*
X136525000Y-133985000D03*
X133985000Y-133985000D03*
D11*
X139065000Y-136525000D03*
D12*
X136525000Y-136525000D03*
X133985000Y-136525000D03*
D11*
X139065000Y-139065000D03*
D12*
X136525000Y-139065000D03*
X133985000Y-139065000D03*
D11*
X139065000Y-141605000D03*
D12*
X136525000Y-141605000D03*
X133985000Y-141605000D03*
D11*
X139065000Y-146685000D03*
D12*
X136525000Y-146685000D03*
X133985000Y-146685000D03*
D11*
X153035000Y-114300000D03*
D12*
X153035000Y-116840000D03*
X153035000Y-119380000D03*
X153035000Y-121920000D03*
X153035000Y-124460000D03*
X153035000Y-127000000D03*
D11*
X172085000Y-130175000D03*
D12*
X169545000Y-130175000D03*
X167005000Y-130175000D03*
X164465000Y-130175000D03*
X161925000Y-130175000D03*
X159385000Y-130175000D03*
D11*
X165100000Y-73025000D03*
D12*
X167640000Y-73025000D03*
X165100000Y-70485000D03*
X167640000Y-70485000D03*
D11*
X139065000Y-149225000D03*
D12*
X136525000Y-149225000D03*
X133985000Y-149225000D03*
D11*
X121285000Y-113030000D03*
D12*
X123825000Y-113030000D03*
X121285000Y-110490000D03*
X123825000Y-110490000D03*
X121285000Y-107950000D03*
X123825000Y-107950000D03*
X121285000Y-105410000D03*
X123825000Y-105410000D03*
X121285000Y-102870000D03*
X123825000Y-102870000D03*
X121285000Y-100330000D03*
X123825000Y-100330000D03*
X121285000Y-97790000D03*
X123825000Y-97790000D03*
X121285000Y-95250000D03*
X123825000Y-95250000D03*
X121285000Y-92710000D03*
X123825000Y-92710000D03*
X121285000Y-90170000D03*
X123825000Y-90170000D03*
X121285000Y-87630000D03*
X123825000Y-87630000D03*
X121285000Y-85090000D03*
X123825000Y-85090000D03*
X121285000Y-82550000D03*
X123825000Y-82550000D03*
X121285000Y-80010000D03*
X123825000Y-80010000D03*
X121285000Y-77470000D03*
X123825000Y-77470000D03*
X121285000Y-74930000D03*
X123825000Y-74930000D03*
X121285000Y-72390000D03*
X123825000Y-72390000D03*
X121285000Y-69850000D03*
X123825000Y-69850000D03*
X121285000Y-67310000D03*
X123825000Y-67310000D03*
X121285000Y-64770000D03*
X123825000Y-64770000D03*
D13*
X132715000Y-73660000D02*
X164465000Y-73660000D01*
X164465000Y-73660000D02*
X165100000Y-73025000D01*
X121285000Y-107950000D02*
X122555000Y-109220000D01*
X132715000Y-109220000D02*
X133985000Y-107950000D01*
X122555000Y-109220000D02*
X132715000Y-109220000D01*
X121285000Y-97790000D02*
X122555000Y-99060000D01*
X132715000Y-99060000D02*
X133985000Y-97790000D01*
X122555000Y-99060000D02*
X132715000Y-99060000D01*
X121285000Y-77470000D02*
X122555000Y-78740000D01*
X132715000Y-78740000D02*
X133985000Y-77470000D01*
X122555000Y-78740000D02*
X132715000Y-78740000D01*
X121285000Y-72390000D02*
X122555000Y-73660000D01*
X132715000Y-73660000D02*
X133985000Y-72390000D01*
X122555000Y-73660000D02*
X132715000Y-73660000D01*
X121285000Y-102870000D02*
X122555000Y-104140000D01*
X132715000Y-104140000D02*
X133985000Y-102870000D01*
X122555000Y-104140000D02*
X132715000Y-104140000D01*
X121285000Y-92710000D02*
X122555000Y-93980000D01*
X132715000Y-93980000D02*
X133985000Y-92710000D01*
X122555000Y-93980000D02*
X132715000Y-93980000D01*
X121285000Y-87630000D02*
X122555000Y-88900000D01*
X132715000Y-88900000D02*
X133985000Y-87630000D01*
X122555000Y-88900000D02*
X132715000Y-88900000D01*
X121285000Y-82550000D02*
X122555000Y-83820000D01*
X132715000Y-83820000D02*
X133985000Y-82550000D01*
X122555000Y-83820000D02*
X132715000Y-83820000D01*
X121285000Y-67310000D02*
X122555000Y-68580000D01*
X132715000Y-68580000D02*
X133985000Y-67310000D01*
X122555000Y-68580000D02*
X132715000Y-68580000D01*
X139065000Y-133985000D02*
X139065000Y-128270000D01*
X139065000Y-128270000D02*
X153035000Y-114300000D01*
X141605000Y-131445000D02*
X141605000Y-133985000D01*
X141605000Y-131445000D02*
X141605000Y-128270000D01*
X153035000Y-116840000D02*
X141605000Y-128270000D01*
X141605000Y-133985000D02*
X139065000Y-136525000D01*
X143510000Y-132715000D02*
X143510000Y-134620000D01*
X153035000Y-119380000D02*
X143510000Y-128905000D01*
X143510000Y-132715000D02*
X143510000Y-128905000D01*
X143510000Y-134620000D02*
X139065000Y-139065000D01*
X145415000Y-133350000D02*
X145415000Y-135255000D01*
X153035000Y-121920000D02*
X145415000Y-129540000D01*
X145415000Y-133350000D02*
X145415000Y-129540000D01*
X145415000Y-135255000D02*
X139065000Y-141605000D01*
X147320000Y-135255000D02*
X147320000Y-135890000D01*
X147320000Y-135255000D02*
X147320000Y-130175000D01*
X153035000Y-124460000D02*
X147320000Y-130175000D01*
X147320000Y-135890000D02*
X139065000Y-144145000D01*
X149225000Y-135890000D02*
X149225000Y-136525000D01*
X149225000Y-135890000D02*
X149225000Y-130810000D01*
X153035000Y-127000000D02*
X149225000Y-130810000D01*
X149225000Y-136525000D02*
X139065000Y-146685000D01*
M02*
