G04 #@! TF.FileFunction,Legend,Bot*
%FSLAX46Y46*%
G04 Gerber Fmt 4.6, Leading zero omitted, Abs format (unit mm)*
G04 Created by KiCad (PCBNEW 4.0.7) date 03/23/18 18:31:04*
%MOMM*%
%LPD*%
G01*
G04 APERTURE LIST*
%ADD10C,0.100000*%
%ADD11C,0.120000*%
%ADD12C,0.150000*%
G04 APERTURE END LIST*
D10*
D11*
X184090000Y-142875000D02*
X184090000Y-125035000D01*
X184090000Y-125035000D02*
X186750000Y-125035000D01*
X186750000Y-125035000D02*
X186750000Y-142875000D01*
X186750000Y-142875000D02*
X184090000Y-142875000D01*
X184090000Y-144145000D02*
X184090000Y-145475000D01*
X184090000Y-145475000D02*
X185420000Y-145475000D01*
X132655000Y-63440000D02*
X137855000Y-63440000D01*
X132655000Y-111760000D02*
X132655000Y-63440000D01*
X137855000Y-114360000D02*
X137855000Y-63440000D01*
X132655000Y-111760000D02*
X135255000Y-111760000D01*
X135255000Y-111760000D02*
X135255000Y-114360000D01*
X135255000Y-114360000D02*
X137855000Y-114360000D01*
X132655000Y-113030000D02*
X132655000Y-114360000D01*
X132655000Y-114360000D02*
X133985000Y-114360000D01*
X137795000Y-139760000D02*
X132655000Y-139760000D01*
X132655000Y-139760000D02*
X132655000Y-137100000D01*
X132655000Y-137100000D02*
X137795000Y-137100000D01*
X137795000Y-137100000D02*
X137795000Y-139760000D01*
X139065000Y-139760000D02*
X140395000Y-139760000D01*
X140395000Y-139760000D02*
X140395000Y-138430000D01*
X137795000Y-137220000D02*
X132655000Y-137220000D01*
X132655000Y-137220000D02*
X132655000Y-134560000D01*
X132655000Y-134560000D02*
X137795000Y-134560000D01*
X137795000Y-134560000D02*
X137795000Y-137220000D01*
X139065000Y-137220000D02*
X140395000Y-137220000D01*
X140395000Y-137220000D02*
X140395000Y-135890000D01*
X137795000Y-134680000D02*
X132655000Y-134680000D01*
X132655000Y-134680000D02*
X132655000Y-132020000D01*
X132655000Y-132020000D02*
X137795000Y-132020000D01*
X137795000Y-132020000D02*
X137795000Y-134680000D01*
X139065000Y-134680000D02*
X140395000Y-134680000D01*
X140395000Y-134680000D02*
X140395000Y-133350000D01*
X137795000Y-132140000D02*
X132655000Y-132140000D01*
X132655000Y-132140000D02*
X132655000Y-129480000D01*
X132655000Y-129480000D02*
X137795000Y-129480000D01*
X137795000Y-129480000D02*
X137795000Y-132140000D01*
X139065000Y-132140000D02*
X140395000Y-132140000D01*
X140395000Y-132140000D02*
X140395000Y-130810000D01*
X137795000Y-129600000D02*
X132655000Y-129600000D01*
X132655000Y-129600000D02*
X132655000Y-126940000D01*
X132655000Y-126940000D02*
X137795000Y-126940000D01*
X137795000Y-126940000D02*
X137795000Y-129600000D01*
X139065000Y-129600000D02*
X140395000Y-129600000D01*
X140395000Y-129600000D02*
X140395000Y-128270000D01*
X137795000Y-127060000D02*
X132655000Y-127060000D01*
X132655000Y-127060000D02*
X132655000Y-124400000D01*
X132655000Y-124400000D02*
X137795000Y-124400000D01*
X137795000Y-124400000D02*
X137795000Y-127060000D01*
X139065000Y-127060000D02*
X140395000Y-127060000D01*
X140395000Y-127060000D02*
X140395000Y-125730000D01*
D12*
X186229523Y-145927381D02*
X186229523Y-146641667D01*
X186277143Y-146784524D01*
X186372381Y-146879762D01*
X186515238Y-146927381D01*
X186610476Y-146927381D01*
X185848571Y-145927381D02*
X185229523Y-145927381D01*
X185562857Y-146308333D01*
X185419999Y-146308333D01*
X185324761Y-146355952D01*
X185277142Y-146403571D01*
X185229523Y-146498810D01*
X185229523Y-146736905D01*
X185277142Y-146832143D01*
X185324761Y-146879762D01*
X185419999Y-146927381D01*
X185705714Y-146927381D01*
X185800952Y-146879762D01*
X185848571Y-146832143D01*
X184896190Y-145927381D02*
X184277142Y-145927381D01*
X184610476Y-146308333D01*
X184467618Y-146308333D01*
X184372380Y-146355952D01*
X184324761Y-146403571D01*
X184277142Y-146498810D01*
X184277142Y-146736905D01*
X184324761Y-146832143D01*
X184372380Y-146879762D01*
X184467618Y-146927381D01*
X184753333Y-146927381D01*
X184848571Y-146879762D01*
X184896190Y-146832143D01*
X136064523Y-114812381D02*
X136064523Y-115526667D01*
X136112143Y-115669524D01*
X136207381Y-115764762D01*
X136350238Y-115812381D01*
X136445476Y-115812381D01*
X135635952Y-114907619D02*
X135588333Y-114860000D01*
X135493095Y-114812381D01*
X135254999Y-114812381D01*
X135159761Y-114860000D01*
X135112142Y-114907619D01*
X135064523Y-115002857D01*
X135064523Y-115098095D01*
X135112142Y-115240952D01*
X135683571Y-115812381D01*
X135064523Y-115812381D01*
X134731190Y-114812381D02*
X134112142Y-114812381D01*
X134445476Y-115193333D01*
X134302618Y-115193333D01*
X134207380Y-115240952D01*
X134159761Y-115288571D01*
X134112142Y-115383810D01*
X134112142Y-115621905D01*
X134159761Y-115717143D01*
X134207380Y-115764762D01*
X134302618Y-115812381D01*
X134588333Y-115812381D01*
X134683571Y-115764762D01*
X134731190Y-115717143D01*
X140847381Y-137620477D02*
X141561667Y-137620477D01*
X141704524Y-137572857D01*
X141799762Y-137477619D01*
X141847381Y-137334762D01*
X141847381Y-137239524D01*
X140942619Y-138049048D02*
X140895000Y-138096667D01*
X140847381Y-138191905D01*
X140847381Y-138430001D01*
X140895000Y-138525239D01*
X140942619Y-138572858D01*
X141037857Y-138620477D01*
X141133095Y-138620477D01*
X141275952Y-138572858D01*
X141847381Y-138001429D01*
X141847381Y-138620477D01*
X140847381Y-139525239D02*
X140847381Y-139049048D01*
X141323571Y-139001429D01*
X141275952Y-139049048D01*
X141228333Y-139144286D01*
X141228333Y-139382382D01*
X141275952Y-139477620D01*
X141323571Y-139525239D01*
X141418810Y-139572858D01*
X141656905Y-139572858D01*
X141752143Y-139525239D01*
X141799762Y-139477620D01*
X141847381Y-139382382D01*
X141847381Y-139144286D01*
X141799762Y-139049048D01*
X141752143Y-139001429D01*
X140847381Y-135080477D02*
X141561667Y-135080477D01*
X141704524Y-135032857D01*
X141799762Y-134937619D01*
X141847381Y-134794762D01*
X141847381Y-134699524D01*
X140942619Y-135509048D02*
X140895000Y-135556667D01*
X140847381Y-135651905D01*
X140847381Y-135890001D01*
X140895000Y-135985239D01*
X140942619Y-136032858D01*
X141037857Y-136080477D01*
X141133095Y-136080477D01*
X141275952Y-136032858D01*
X141847381Y-135461429D01*
X141847381Y-136080477D01*
X140847381Y-136937620D02*
X140847381Y-136747143D01*
X140895000Y-136651905D01*
X140942619Y-136604286D01*
X141085476Y-136509048D01*
X141275952Y-136461429D01*
X141656905Y-136461429D01*
X141752143Y-136509048D01*
X141799762Y-136556667D01*
X141847381Y-136651905D01*
X141847381Y-136842382D01*
X141799762Y-136937620D01*
X141752143Y-136985239D01*
X141656905Y-137032858D01*
X141418810Y-137032858D01*
X141323571Y-136985239D01*
X141275952Y-136937620D01*
X141228333Y-136842382D01*
X141228333Y-136651905D01*
X141275952Y-136556667D01*
X141323571Y-136509048D01*
X141418810Y-136461429D01*
X140847381Y-132540477D02*
X141561667Y-132540477D01*
X141704524Y-132492857D01*
X141799762Y-132397619D01*
X141847381Y-132254762D01*
X141847381Y-132159524D01*
X140942619Y-132969048D02*
X140895000Y-133016667D01*
X140847381Y-133111905D01*
X140847381Y-133350001D01*
X140895000Y-133445239D01*
X140942619Y-133492858D01*
X141037857Y-133540477D01*
X141133095Y-133540477D01*
X141275952Y-133492858D01*
X141847381Y-132921429D01*
X141847381Y-133540477D01*
X140847381Y-133873810D02*
X140847381Y-134540477D01*
X141847381Y-134111905D01*
X140847381Y-130000477D02*
X141561667Y-130000477D01*
X141704524Y-129952857D01*
X141799762Y-129857619D01*
X141847381Y-129714762D01*
X141847381Y-129619524D01*
X140942619Y-130429048D02*
X140895000Y-130476667D01*
X140847381Y-130571905D01*
X140847381Y-130810001D01*
X140895000Y-130905239D01*
X140942619Y-130952858D01*
X141037857Y-131000477D01*
X141133095Y-131000477D01*
X141275952Y-130952858D01*
X141847381Y-130381429D01*
X141847381Y-131000477D01*
X141275952Y-131571905D02*
X141228333Y-131476667D01*
X141180714Y-131429048D01*
X141085476Y-131381429D01*
X141037857Y-131381429D01*
X140942619Y-131429048D01*
X140895000Y-131476667D01*
X140847381Y-131571905D01*
X140847381Y-131762382D01*
X140895000Y-131857620D01*
X140942619Y-131905239D01*
X141037857Y-131952858D01*
X141085476Y-131952858D01*
X141180714Y-131905239D01*
X141228333Y-131857620D01*
X141275952Y-131762382D01*
X141275952Y-131571905D01*
X141323571Y-131476667D01*
X141371190Y-131429048D01*
X141466429Y-131381429D01*
X141656905Y-131381429D01*
X141752143Y-131429048D01*
X141799762Y-131476667D01*
X141847381Y-131571905D01*
X141847381Y-131762382D01*
X141799762Y-131857620D01*
X141752143Y-131905239D01*
X141656905Y-131952858D01*
X141466429Y-131952858D01*
X141371190Y-131905239D01*
X141323571Y-131857620D01*
X141275952Y-131762382D01*
X140847381Y-127460477D02*
X141561667Y-127460477D01*
X141704524Y-127412857D01*
X141799762Y-127317619D01*
X141847381Y-127174762D01*
X141847381Y-127079524D01*
X140942619Y-127889048D02*
X140895000Y-127936667D01*
X140847381Y-128031905D01*
X140847381Y-128270001D01*
X140895000Y-128365239D01*
X140942619Y-128412858D01*
X141037857Y-128460477D01*
X141133095Y-128460477D01*
X141275952Y-128412858D01*
X141847381Y-127841429D01*
X141847381Y-128460477D01*
X141847381Y-128936667D02*
X141847381Y-129127143D01*
X141799762Y-129222382D01*
X141752143Y-129270001D01*
X141609286Y-129365239D01*
X141418810Y-129412858D01*
X141037857Y-129412858D01*
X140942619Y-129365239D01*
X140895000Y-129317620D01*
X140847381Y-129222382D01*
X140847381Y-129031905D01*
X140895000Y-128936667D01*
X140942619Y-128889048D01*
X141037857Y-128841429D01*
X141275952Y-128841429D01*
X141371190Y-128889048D01*
X141418810Y-128936667D01*
X141466429Y-129031905D01*
X141466429Y-129222382D01*
X141418810Y-129317620D01*
X141371190Y-129365239D01*
X141275952Y-129412858D01*
X140847381Y-124920477D02*
X141561667Y-124920477D01*
X141704524Y-124872857D01*
X141799762Y-124777619D01*
X141847381Y-124634762D01*
X141847381Y-124539524D01*
X140847381Y-125301429D02*
X140847381Y-125920477D01*
X141228333Y-125587143D01*
X141228333Y-125730001D01*
X141275952Y-125825239D01*
X141323571Y-125872858D01*
X141418810Y-125920477D01*
X141656905Y-125920477D01*
X141752143Y-125872858D01*
X141799762Y-125825239D01*
X141847381Y-125730001D01*
X141847381Y-125444286D01*
X141799762Y-125349048D01*
X141752143Y-125301429D01*
X140847381Y-126539524D02*
X140847381Y-126634763D01*
X140895000Y-126730001D01*
X140942619Y-126777620D01*
X141037857Y-126825239D01*
X141228333Y-126872858D01*
X141466429Y-126872858D01*
X141656905Y-126825239D01*
X141752143Y-126777620D01*
X141799762Y-126730001D01*
X141847381Y-126634763D01*
X141847381Y-126539524D01*
X141799762Y-126444286D01*
X141752143Y-126396667D01*
X141656905Y-126349048D01*
X141466429Y-126301429D01*
X141228333Y-126301429D01*
X141037857Y-126349048D01*
X140942619Y-126396667D01*
X140895000Y-126444286D01*
X140847381Y-126539524D01*
M02*
