G04 #@! TF.FileFunction,Legend,Top*
%FSLAX46Y46*%
G04 Gerber Fmt 4.6, Leading zero omitted, Abs format (unit mm)*
G04 Created by KiCad (PCBNEW 4.0.7) date 03/26/18 11:29:09*
%MOMM*%
%LPD*%
G01*
G04 APERTURE LIST*
%ADD10C,0.100000*%
%ADD11C,0.300000*%
%ADD12C,0.120000*%
%ADD13C,0.150000*%
G04 APERTURE END LIST*
D10*
D11*
X131730715Y-124908571D02*
X131445001Y-124908571D01*
X131302144Y-124980000D01*
X131230715Y-125051429D01*
X131087858Y-125265714D01*
X131016429Y-125551429D01*
X131016429Y-126122857D01*
X131087858Y-126265714D01*
X131159286Y-126337143D01*
X131302144Y-126408571D01*
X131587858Y-126408571D01*
X131730715Y-126337143D01*
X131802144Y-126265714D01*
X131873572Y-126122857D01*
X131873572Y-125765714D01*
X131802144Y-125622857D01*
X131730715Y-125551429D01*
X131587858Y-125480000D01*
X131302144Y-125480000D01*
X131159286Y-125551429D01*
X131087858Y-125622857D01*
X131016429Y-125765714D01*
X131802144Y-127448571D02*
X131087858Y-127448571D01*
X131016429Y-128162857D01*
X131087858Y-128091429D01*
X131230715Y-128020000D01*
X131587858Y-128020000D01*
X131730715Y-128091429D01*
X131802144Y-128162857D01*
X131873572Y-128305714D01*
X131873572Y-128662857D01*
X131802144Y-128805714D01*
X131730715Y-128877143D01*
X131587858Y-128948571D01*
X131230715Y-128948571D01*
X131087858Y-128877143D01*
X131016429Y-128805714D01*
X131730715Y-130488571D02*
X131730715Y-131488571D01*
X131373572Y-129917143D02*
X131016429Y-130988571D01*
X131945001Y-130988571D01*
X130945001Y-132528571D02*
X131873572Y-132528571D01*
X131373572Y-133100000D01*
X131587858Y-133100000D01*
X131730715Y-133171429D01*
X131802144Y-133242857D01*
X131873572Y-133385714D01*
X131873572Y-133742857D01*
X131802144Y-133885714D01*
X131730715Y-133957143D01*
X131587858Y-134028571D01*
X131159286Y-134028571D01*
X131016429Y-133957143D01*
X130945001Y-133885714D01*
X131016429Y-135211429D02*
X131087858Y-135140000D01*
X131230715Y-135068571D01*
X131587858Y-135068571D01*
X131730715Y-135140000D01*
X131802144Y-135211429D01*
X131873572Y-135354286D01*
X131873572Y-135497143D01*
X131802144Y-135711429D01*
X130945001Y-136568571D01*
X131873572Y-136568571D01*
X131873572Y-139108571D02*
X131016429Y-139108571D01*
X131445001Y-139108571D02*
X131445001Y-137608571D01*
X131302144Y-137822857D01*
X131159286Y-137965714D01*
X131016429Y-138037143D01*
X137529286Y-123797143D02*
X137743572Y-123868571D01*
X138100715Y-123868571D01*
X138243572Y-123797143D01*
X138315001Y-123725714D01*
X138386429Y-123582857D01*
X138386429Y-123440000D01*
X138315001Y-123297143D01*
X138243572Y-123225714D01*
X138100715Y-123154286D01*
X137815001Y-123082857D01*
X137672143Y-123011429D01*
X137600715Y-122940000D01*
X137529286Y-122797143D01*
X137529286Y-122654286D01*
X137600715Y-122511429D01*
X137672143Y-122440000D01*
X137815001Y-122368571D01*
X138172143Y-122368571D01*
X138386429Y-122440000D01*
X139029286Y-123868571D02*
X139029286Y-122368571D01*
X140529286Y-122440000D02*
X140386429Y-122368571D01*
X140172143Y-122368571D01*
X139957858Y-122440000D01*
X139815000Y-122582857D01*
X139743572Y-122725714D01*
X139672143Y-123011429D01*
X139672143Y-123225714D01*
X139743572Y-123511429D01*
X139815000Y-123654286D01*
X139957858Y-123797143D01*
X140172143Y-123868571D01*
X140315000Y-123868571D01*
X140529286Y-123797143D01*
X140600715Y-123725714D01*
X140600715Y-123225714D01*
X140315000Y-123225714D01*
X135953572Y-123297143D02*
X137096429Y-123297143D01*
X136525000Y-123868571D02*
X136525000Y-122725714D01*
X133413572Y-123297143D02*
X134556429Y-123297143D01*
D12*
X149920000Y-66675000D02*
X149920000Y-53915000D01*
X149920000Y-53915000D02*
X147260000Y-53915000D01*
X147260000Y-53915000D02*
X147260000Y-66675000D01*
X147260000Y-66675000D02*
X149920000Y-66675000D01*
X149920000Y-67945000D02*
X149920000Y-69275000D01*
X149920000Y-69275000D02*
X148590000Y-69275000D01*
X170815000Y-128845000D02*
X158055000Y-128845000D01*
X158055000Y-128845000D02*
X158055000Y-131505000D01*
X158055000Y-131505000D02*
X170815000Y-131505000D01*
X170815000Y-131505000D02*
X170815000Y-128845000D01*
X172085000Y-128845000D02*
X173415000Y-128845000D01*
X173415000Y-128845000D02*
X173415000Y-130175000D01*
X166310000Y-71755000D02*
X166310000Y-69155000D01*
X166310000Y-69155000D02*
X171510000Y-69155000D01*
X171510000Y-69155000D02*
X171510000Y-74355000D01*
X171510000Y-74355000D02*
X168910000Y-74355000D01*
X168910000Y-74355000D02*
X168910000Y-71755000D01*
X168910000Y-71755000D02*
X166310000Y-71755000D01*
X166310000Y-73025000D02*
X166310000Y-74355000D01*
X166310000Y-74355000D02*
X167580000Y-74355000D01*
X137795000Y-121860000D02*
X132655000Y-121860000D01*
X132655000Y-121860000D02*
X132655000Y-124520000D01*
X132655000Y-124520000D02*
X137795000Y-124520000D01*
X137795000Y-124520000D02*
X137795000Y-121860000D01*
X139065000Y-121860000D02*
X140395000Y-121860000D01*
X140395000Y-121860000D02*
X140395000Y-123190000D01*
D13*
X182816667Y-55942381D02*
X182483333Y-55466190D01*
X182245238Y-55942381D02*
X182245238Y-54942381D01*
X182626191Y-54942381D01*
X182721429Y-54990000D01*
X182769048Y-55037619D01*
X182816667Y-55132857D01*
X182816667Y-55275714D01*
X182769048Y-55370952D01*
X182721429Y-55418571D01*
X182626191Y-55466190D01*
X182245238Y-55466190D01*
X183245238Y-55418571D02*
X183578572Y-55418571D01*
X183721429Y-55942381D02*
X183245238Y-55942381D01*
X183245238Y-54942381D01*
X183721429Y-54942381D01*
X184483334Y-55418571D02*
X184150000Y-55418571D01*
X184150000Y-55942381D02*
X184150000Y-54942381D01*
X184626191Y-54942381D01*
X185150000Y-54942381D02*
X185150000Y-55180476D01*
X184911905Y-55085238D02*
X185150000Y-55180476D01*
X185388096Y-55085238D01*
X185007143Y-55370952D02*
X185150000Y-55180476D01*
X185292858Y-55370952D01*
X185911905Y-54942381D02*
X185911905Y-55180476D01*
X185673810Y-55085238D02*
X185911905Y-55180476D01*
X186150001Y-55085238D01*
X185769048Y-55370952D02*
X185911905Y-55180476D01*
X186054763Y-55370952D01*
X148256667Y-69727381D02*
X148256667Y-70441667D01*
X148209047Y-70584524D01*
X148113809Y-70679762D01*
X147970952Y-70727381D01*
X147875714Y-70727381D01*
X149256667Y-70727381D02*
X148685238Y-70727381D01*
X148970952Y-70727381D02*
X148970952Y-69727381D01*
X148875714Y-69870238D01*
X148780476Y-69965476D01*
X148685238Y-70013095D01*
X173867381Y-130508333D02*
X174581667Y-130508333D01*
X174724524Y-130555953D01*
X174819762Y-130651191D01*
X174867381Y-130794048D01*
X174867381Y-130889286D01*
X173962619Y-130079762D02*
X173915000Y-130032143D01*
X173867381Y-129936905D01*
X173867381Y-129698809D01*
X173915000Y-129603571D01*
X173962619Y-129555952D01*
X174057857Y-129508333D01*
X174153095Y-129508333D01*
X174295952Y-129555952D01*
X174867381Y-130127381D01*
X174867381Y-129508333D01*
X168576667Y-74807381D02*
X168576667Y-75521667D01*
X168529047Y-75664524D01*
X168433809Y-75759762D01*
X168290952Y-75807381D01*
X168195714Y-75807381D01*
X168957619Y-74807381D02*
X169576667Y-74807381D01*
X169243333Y-75188333D01*
X169386191Y-75188333D01*
X169481429Y-75235952D01*
X169529048Y-75283571D01*
X169576667Y-75378810D01*
X169576667Y-75616905D01*
X169529048Y-75712143D01*
X169481429Y-75759762D01*
X169386191Y-75807381D01*
X169100476Y-75807381D01*
X169005238Y-75759762D01*
X168957619Y-75712143D01*
X127571667Y-52132381D02*
X127238333Y-51656190D01*
X127000238Y-52132381D02*
X127000238Y-51132381D01*
X127381191Y-51132381D01*
X127476429Y-51180000D01*
X127524048Y-51227619D01*
X127571667Y-51322857D01*
X127571667Y-51465714D01*
X127524048Y-51560952D01*
X127476429Y-51608571D01*
X127381191Y-51656190D01*
X127000238Y-51656190D01*
X128000238Y-51608571D02*
X128333572Y-51608571D01*
X128476429Y-52132381D02*
X128000238Y-52132381D01*
X128000238Y-51132381D01*
X128476429Y-51132381D01*
X129238334Y-51608571D02*
X128905000Y-51608571D01*
X128905000Y-52132381D02*
X128905000Y-51132381D01*
X129381191Y-51132381D01*
X129905000Y-51132381D02*
X129905000Y-51370476D01*
X129666905Y-51275238D02*
X129905000Y-51370476D01*
X130143096Y-51275238D01*
X129762143Y-51560952D02*
X129905000Y-51370476D01*
X130047858Y-51560952D01*
X130666905Y-51132381D02*
X130666905Y-51370476D01*
X130428810Y-51275238D02*
X130666905Y-51370476D01*
X130905001Y-51275238D01*
X130524048Y-51560952D02*
X130666905Y-51370476D01*
X130809763Y-51560952D01*
X133921667Y-55942381D02*
X133588333Y-55466190D01*
X133350238Y-55942381D02*
X133350238Y-54942381D01*
X133731191Y-54942381D01*
X133826429Y-54990000D01*
X133874048Y-55037619D01*
X133921667Y-55132857D01*
X133921667Y-55275714D01*
X133874048Y-55370952D01*
X133826429Y-55418571D01*
X133731191Y-55466190D01*
X133350238Y-55466190D01*
X134350238Y-55418571D02*
X134683572Y-55418571D01*
X134826429Y-55942381D02*
X134350238Y-55942381D01*
X134350238Y-54942381D01*
X134826429Y-54942381D01*
X135588334Y-55418571D02*
X135255000Y-55418571D01*
X135255000Y-55942381D02*
X135255000Y-54942381D01*
X135731191Y-54942381D01*
X136255000Y-54942381D02*
X136255000Y-55180476D01*
X136016905Y-55085238D02*
X136255000Y-55180476D01*
X136493096Y-55085238D01*
X136112143Y-55370952D02*
X136255000Y-55180476D01*
X136397858Y-55370952D01*
X137016905Y-54942381D02*
X137016905Y-55180476D01*
X136778810Y-55085238D02*
X137016905Y-55180476D01*
X137255001Y-55085238D01*
X136874048Y-55370952D02*
X137016905Y-55180476D01*
X137159763Y-55370952D01*
X133921667Y-114362381D02*
X133588333Y-113886190D01*
X133350238Y-114362381D02*
X133350238Y-113362381D01*
X133731191Y-113362381D01*
X133826429Y-113410000D01*
X133874048Y-113457619D01*
X133921667Y-113552857D01*
X133921667Y-113695714D01*
X133874048Y-113790952D01*
X133826429Y-113838571D01*
X133731191Y-113886190D01*
X133350238Y-113886190D01*
X134350238Y-113838571D02*
X134683572Y-113838571D01*
X134826429Y-114362381D02*
X134350238Y-114362381D01*
X134350238Y-113362381D01*
X134826429Y-113362381D01*
X135588334Y-113838571D02*
X135255000Y-113838571D01*
X135255000Y-114362381D02*
X135255000Y-113362381D01*
X135731191Y-113362381D01*
X136255000Y-113362381D02*
X136255000Y-113600476D01*
X136016905Y-113505238D02*
X136255000Y-113600476D01*
X136493096Y-113505238D01*
X136112143Y-113790952D02*
X136255000Y-113600476D01*
X136397858Y-113790952D01*
X137016905Y-113362381D02*
X137016905Y-113600476D01*
X136778810Y-113505238D02*
X137016905Y-113600476D01*
X137255001Y-113505238D01*
X136874048Y-113790952D02*
X137016905Y-113600476D01*
X137159763Y-113790952D01*
X182816667Y-114362381D02*
X182483333Y-113886190D01*
X182245238Y-114362381D02*
X182245238Y-113362381D01*
X182626191Y-113362381D01*
X182721429Y-113410000D01*
X182769048Y-113457619D01*
X182816667Y-113552857D01*
X182816667Y-113695714D01*
X182769048Y-113790952D01*
X182721429Y-113838571D01*
X182626191Y-113886190D01*
X182245238Y-113886190D01*
X183245238Y-113838571D02*
X183578572Y-113838571D01*
X183721429Y-114362381D02*
X183245238Y-114362381D01*
X183245238Y-113362381D01*
X183721429Y-113362381D01*
X184483334Y-113838571D02*
X184150000Y-113838571D01*
X184150000Y-114362381D02*
X184150000Y-113362381D01*
X184626191Y-113362381D01*
X185150000Y-113362381D02*
X185150000Y-113600476D01*
X184911905Y-113505238D02*
X185150000Y-113600476D01*
X185388096Y-113505238D01*
X185007143Y-113790952D02*
X185150000Y-113600476D01*
X185292858Y-113790952D01*
X185911905Y-113362381D02*
X185911905Y-113600476D01*
X185673810Y-113505238D02*
X185911905Y-113600476D01*
X186150001Y-113505238D01*
X185769048Y-113790952D02*
X185911905Y-113600476D01*
X186054763Y-113790952D01*
X175831667Y-133412381D02*
X175498333Y-132936190D01*
X175260238Y-133412381D02*
X175260238Y-132412381D01*
X175641191Y-132412381D01*
X175736429Y-132460000D01*
X175784048Y-132507619D01*
X175831667Y-132602857D01*
X175831667Y-132745714D01*
X175784048Y-132840952D01*
X175736429Y-132888571D01*
X175641191Y-132936190D01*
X175260238Y-132936190D01*
X176260238Y-132888571D02*
X176593572Y-132888571D01*
X176736429Y-133412381D02*
X176260238Y-133412381D01*
X176260238Y-132412381D01*
X176736429Y-132412381D01*
X177498334Y-132888571D02*
X177165000Y-132888571D01*
X177165000Y-133412381D02*
X177165000Y-132412381D01*
X177641191Y-132412381D01*
X178165000Y-132412381D02*
X178165000Y-132650476D01*
X177926905Y-132555238D02*
X178165000Y-132650476D01*
X178403096Y-132555238D01*
X178022143Y-132840952D02*
X178165000Y-132650476D01*
X178307858Y-132840952D01*
X178926905Y-132412381D02*
X178926905Y-132650476D01*
X178688810Y-132555238D02*
X178926905Y-132650476D01*
X179165001Y-132555238D01*
X178784048Y-132840952D02*
X178926905Y-132650476D01*
X179069763Y-132840952D01*
X140847381Y-123523333D02*
X141561667Y-123523333D01*
X141704524Y-123570953D01*
X141799762Y-123666191D01*
X141847381Y-123809048D01*
X141847381Y-123904286D01*
X141180714Y-122618571D02*
X141847381Y-122618571D01*
X140799762Y-122856667D02*
X141514048Y-123094762D01*
X141514048Y-122475714D01*
M02*
