G04 #@! TF.FileFunction,Soldermask,Top*
%FSLAX46Y46*%
G04 Gerber Fmt 4.6, Leading zero omitted, Abs format (unit mm)*
G04 Created by KiCad (PCBNEW 4.0.7) date 03/26/18 11:27:05*
%MOMM*%
%LPD*%
G01*
G04 APERTURE LIST*
%ADD10C,0.100000*%
%ADD11R,1.800000X1.800000*%
%ADD12C,1.800000*%
%ADD13R,1.700000X1.700000*%
%ADD14O,1.700000X1.700000*%
%ADD15R,1.200000X1.700000*%
%ADD16O,1.200000X1.700000*%
%ADD17R,1.700000X1.200000*%
%ADD18O,1.700000X1.200000*%
%ADD19C,1.400000*%
%ADD20O,1.400000X1.400000*%
%ADD21C,1.600000*%
%ADD22O,1.600000X1.600000*%
%ADD23O,1.800000X1.800000*%
%ADD24C,5.080000*%
%ADD25C,3.200000*%
G04 APERTURE END LIST*
D10*
D11*
X157480000Y-57150000D03*
D12*
X154940000Y-57150000D03*
D13*
X159385000Y-148590000D03*
D14*
X156845000Y-148590000D03*
X154305000Y-148590000D03*
D13*
X150495000Y-148590000D03*
D14*
X147955000Y-148590000D03*
X145415000Y-148590000D03*
D13*
X141605000Y-148590000D03*
D14*
X139065000Y-148590000D03*
X136525000Y-148590000D03*
D13*
X132715000Y-148590000D03*
D14*
X130175000Y-148590000D03*
X127635000Y-148590000D03*
D15*
X168275000Y-151765000D03*
D16*
X166275000Y-151765000D03*
X164275000Y-151765000D03*
X162275000Y-151765000D03*
D15*
X179070000Y-151765000D03*
D16*
X177070000Y-151765000D03*
X175070000Y-151765000D03*
X173070000Y-151765000D03*
D17*
X124460000Y-116205000D03*
D18*
X124460000Y-118205000D03*
X124460000Y-120205000D03*
X124460000Y-122205000D03*
D17*
X124460000Y-127000000D03*
D18*
X124460000Y-129000000D03*
X124460000Y-131000000D03*
X124460000Y-133000000D03*
D15*
X157480000Y-151765000D03*
D16*
X155480000Y-151765000D03*
X153480000Y-151765000D03*
D17*
X124460000Y-107315000D03*
D18*
X124460000Y-109315000D03*
X124460000Y-111315000D03*
D17*
X124460000Y-93345000D03*
D18*
X124460000Y-95345000D03*
D17*
X124460000Y-100330000D03*
D18*
X124460000Y-102330000D03*
D15*
X133350000Y-151765000D03*
D16*
X131350000Y-151765000D03*
X129350000Y-151765000D03*
D15*
X142875000Y-151765000D03*
D16*
X140875000Y-151765000D03*
X138875000Y-151765000D03*
X136875000Y-151765000D03*
D17*
X124460000Y-137795000D03*
D18*
X124460000Y-139795000D03*
X124460000Y-141795000D03*
X124460000Y-143795000D03*
D19*
X154940000Y-60960000D03*
D20*
X162560000Y-60960000D03*
D13*
X177165000Y-91440000D03*
D14*
X177165000Y-93980000D03*
X177165000Y-96520000D03*
X177165000Y-99060000D03*
X177165000Y-101600000D03*
X177165000Y-104140000D03*
X177165000Y-106680000D03*
X177165000Y-109220000D03*
D13*
X177165000Y-114300000D03*
D14*
X177165000Y-116840000D03*
X177165000Y-119380000D03*
X177165000Y-121920000D03*
X177165000Y-124460000D03*
X177165000Y-127000000D03*
X177165000Y-129540000D03*
X177165000Y-132080000D03*
D13*
X128905000Y-137160000D03*
D14*
X128905000Y-134620000D03*
X131445000Y-137160000D03*
X131445000Y-134620000D03*
X133985000Y-137160000D03*
X133985000Y-134620000D03*
X136525000Y-137160000D03*
X136525000Y-134620000D03*
X139065000Y-137160000D03*
X139065000Y-134620000D03*
X141605000Y-137160000D03*
X141605000Y-134620000D03*
X144145000Y-137160000D03*
X144145000Y-134620000D03*
X146685000Y-137160000D03*
X146685000Y-134620000D03*
X149225000Y-137160000D03*
X149225000Y-134620000D03*
X151765000Y-137160000D03*
X151765000Y-134620000D03*
X154305000Y-137160000D03*
X154305000Y-134620000D03*
X156845000Y-137160000D03*
X156845000Y-134620000D03*
X159385000Y-137160000D03*
X159385000Y-134620000D03*
X161925000Y-137160000D03*
X161925000Y-134620000D03*
X164465000Y-137160000D03*
X164465000Y-134620000D03*
X167005000Y-137160000D03*
X167005000Y-134620000D03*
X169545000Y-137160000D03*
X169545000Y-134620000D03*
X172085000Y-137160000D03*
X172085000Y-134620000D03*
D13*
X128905000Y-64770000D03*
D14*
X128905000Y-67310000D03*
X128905000Y-69850000D03*
X128905000Y-72390000D03*
X128905000Y-74930000D03*
X128905000Y-77470000D03*
X128905000Y-80010000D03*
X128905000Y-82550000D03*
D13*
X128905000Y-86360000D03*
D14*
X128905000Y-88900000D03*
X128905000Y-91440000D03*
X128905000Y-93980000D03*
X128905000Y-96520000D03*
X128905000Y-99060000D03*
X128905000Y-101600000D03*
X128905000Y-104140000D03*
D13*
X128905000Y-109220000D03*
D14*
X128905000Y-111760000D03*
X128905000Y-114300000D03*
X128905000Y-116840000D03*
X128905000Y-119380000D03*
X128905000Y-121920000D03*
X128905000Y-124460000D03*
X128905000Y-127000000D03*
D21*
X174625000Y-64770000D03*
D22*
X167005000Y-64770000D03*
D21*
X172085000Y-95885000D03*
D22*
X164465000Y-95885000D03*
D11*
X181610000Y-64770000D03*
D23*
X181610000Y-67310000D03*
X181610000Y-69850000D03*
D11*
X172085000Y-91440000D03*
D23*
X172085000Y-88900000D03*
X172085000Y-86360000D03*
D11*
X181610000Y-106045000D03*
D23*
X181610000Y-108585000D03*
X181610000Y-111125000D03*
D17*
X124460000Y-71755000D03*
D18*
X124460000Y-73755000D03*
D17*
X124460000Y-64770000D03*
D18*
X124460000Y-66770000D03*
D24*
X159067500Y-107632500D03*
X159067500Y-100012500D03*
X159067500Y-77152500D03*
X159067500Y-69532500D03*
X159067500Y-92392500D03*
X159067500Y-84772500D03*
D13*
X120650000Y-81915000D03*
D14*
X123190000Y-81915000D03*
D13*
X120650000Y-79375000D03*
D14*
X123190000Y-79375000D03*
D13*
X177165000Y-68580000D03*
D14*
X177165000Y-71120000D03*
X177165000Y-73660000D03*
X177165000Y-76200000D03*
X177165000Y-78740000D03*
X177165000Y-81280000D03*
X177165000Y-83820000D03*
X177165000Y-86360000D03*
D21*
X172720000Y-107315000D03*
X167720000Y-107315000D03*
X172720000Y-111125000D03*
X167720000Y-111125000D03*
X167005000Y-61595000D03*
X172005000Y-61595000D03*
X167005000Y-81915000D03*
X172005000Y-81915000D03*
D13*
X148590000Y-67945000D03*
D14*
X148590000Y-65405000D03*
X148590000Y-62865000D03*
X148590000Y-60325000D03*
X148590000Y-57785000D03*
X148590000Y-55245000D03*
D13*
X172085000Y-130175000D03*
D14*
X169545000Y-130175000D03*
X167005000Y-130175000D03*
X164465000Y-130175000D03*
X161925000Y-130175000D03*
X159385000Y-130175000D03*
D13*
X167640000Y-73025000D03*
D14*
X170180000Y-73025000D03*
X167640000Y-70485000D03*
X170180000Y-70485000D03*
D25*
X128905000Y-55880000D03*
X177165000Y-54610000D03*
X177165000Y-137160000D03*
X135255000Y-59690000D03*
X135255000Y-118110000D03*
X184150000Y-118110000D03*
D19*
X131445000Y-124460000D03*
D20*
X139065000Y-124460000D03*
D19*
X131445000Y-127000000D03*
D20*
X139065000Y-127000000D03*
M02*
