G04 #@! TF.FileFunction,Copper,L2,Bot,Signal*
%FSLAX46Y46*%
G04 Gerber Fmt 4.6, Leading zero omitted, Abs format (unit mm)*
G04 Created by KiCad (PCBNEW 4.0.7) date 03/23/18 18:32:17*
%MOMM*%
%LPD*%
G01*
G04 APERTURE LIST*
%ADD10C,0.100000*%
%ADD11R,1.800000X1.800000*%
%ADD12C,1.800000*%
%ADD13R,1.700000X1.700000*%
%ADD14O,1.700000X1.700000*%
%ADD15R,1.200000X1.700000*%
%ADD16O,1.200000X1.700000*%
%ADD17R,1.700000X1.200000*%
%ADD18O,1.700000X1.200000*%
%ADD19C,1.400000*%
%ADD20O,1.400000X1.400000*%
%ADD21C,1.600000*%
%ADD22O,1.600000X1.600000*%
%ADD23O,1.800000X1.800000*%
%ADD24C,5.080000*%
%ADD25C,0.600000*%
%ADD26C,0.250000*%
%ADD27C,0.500000*%
%ADD28C,0.300000*%
%ADD29C,0.254000*%
G04 APERTURE END LIST*
D10*
D11*
X157480000Y-57150000D03*
D12*
X154940000Y-57150000D03*
D13*
X159385000Y-148590000D03*
D14*
X156845000Y-148590000D03*
X154305000Y-148590000D03*
D13*
X150495000Y-148590000D03*
D14*
X147955000Y-148590000D03*
X145415000Y-148590000D03*
D13*
X141605000Y-148590000D03*
D14*
X139065000Y-148590000D03*
X136525000Y-148590000D03*
D13*
X132715000Y-148590000D03*
D14*
X130175000Y-148590000D03*
X127635000Y-148590000D03*
D15*
X168275000Y-151765000D03*
D16*
X166275000Y-151765000D03*
X164275000Y-151765000D03*
X162275000Y-151765000D03*
D15*
X179070000Y-151765000D03*
D16*
X177070000Y-151765000D03*
X175070000Y-151765000D03*
X173070000Y-151765000D03*
D17*
X124460000Y-116205000D03*
D18*
X124460000Y-118205000D03*
X124460000Y-120205000D03*
X124460000Y-122205000D03*
D17*
X124460000Y-127000000D03*
D18*
X124460000Y-129000000D03*
X124460000Y-131000000D03*
X124460000Y-133000000D03*
D15*
X157480000Y-151765000D03*
D16*
X155480000Y-151765000D03*
X153480000Y-151765000D03*
D17*
X124460000Y-107315000D03*
D18*
X124460000Y-109315000D03*
X124460000Y-111315000D03*
D17*
X124460000Y-93345000D03*
D18*
X124460000Y-95345000D03*
D17*
X124460000Y-100330000D03*
D18*
X124460000Y-102330000D03*
D15*
X133350000Y-151765000D03*
D16*
X131350000Y-151765000D03*
X129350000Y-151765000D03*
D15*
X142875000Y-151765000D03*
D16*
X140875000Y-151765000D03*
X138875000Y-151765000D03*
X136875000Y-151765000D03*
D17*
X124460000Y-137795000D03*
D18*
X124460000Y-139795000D03*
X124460000Y-141795000D03*
X124460000Y-143795000D03*
D19*
X154940000Y-60960000D03*
D20*
X162560000Y-60960000D03*
D13*
X177165000Y-91440000D03*
D14*
X177165000Y-93980000D03*
X177165000Y-96520000D03*
X177165000Y-99060000D03*
X177165000Y-101600000D03*
X177165000Y-104140000D03*
X177165000Y-106680000D03*
X177165000Y-109220000D03*
D13*
X177165000Y-114300000D03*
D14*
X177165000Y-116840000D03*
X177165000Y-119380000D03*
X177165000Y-121920000D03*
X177165000Y-124460000D03*
X177165000Y-127000000D03*
X177165000Y-129540000D03*
X177165000Y-132080000D03*
D13*
X128905000Y-137160000D03*
D14*
X128905000Y-134620000D03*
X131445000Y-137160000D03*
X131445000Y-134620000D03*
X133985000Y-137160000D03*
X133985000Y-134620000D03*
X136525000Y-137160000D03*
X136525000Y-134620000D03*
X139065000Y-137160000D03*
X139065000Y-134620000D03*
X141605000Y-137160000D03*
X141605000Y-134620000D03*
X144145000Y-137160000D03*
X144145000Y-134620000D03*
X146685000Y-137160000D03*
X146685000Y-134620000D03*
X149225000Y-137160000D03*
X149225000Y-134620000D03*
X151765000Y-137160000D03*
X151765000Y-134620000D03*
X154305000Y-137160000D03*
X154305000Y-134620000D03*
X156845000Y-137160000D03*
X156845000Y-134620000D03*
X159385000Y-137160000D03*
X159385000Y-134620000D03*
X161925000Y-137160000D03*
X161925000Y-134620000D03*
X164465000Y-137160000D03*
X164465000Y-134620000D03*
X167005000Y-137160000D03*
X167005000Y-134620000D03*
X169545000Y-137160000D03*
X169545000Y-134620000D03*
X172085000Y-137160000D03*
X172085000Y-134620000D03*
D13*
X128905000Y-64770000D03*
D14*
X128905000Y-67310000D03*
X128905000Y-69850000D03*
X128905000Y-72390000D03*
X128905000Y-74930000D03*
X128905000Y-77470000D03*
X128905000Y-80010000D03*
X128905000Y-82550000D03*
D13*
X128905000Y-86360000D03*
D14*
X128905000Y-88900000D03*
X128905000Y-91440000D03*
X128905000Y-93980000D03*
X128905000Y-96520000D03*
X128905000Y-99060000D03*
X128905000Y-101600000D03*
X128905000Y-104140000D03*
D13*
X128905000Y-109220000D03*
D14*
X128905000Y-111760000D03*
X128905000Y-114300000D03*
X128905000Y-116840000D03*
X128905000Y-119380000D03*
X128905000Y-121920000D03*
X128905000Y-124460000D03*
X128905000Y-127000000D03*
D21*
X174625000Y-64770000D03*
D22*
X167005000Y-64770000D03*
D21*
X172085000Y-95885000D03*
D22*
X164465000Y-95885000D03*
D11*
X181610000Y-64770000D03*
D23*
X181610000Y-67310000D03*
X181610000Y-69850000D03*
D11*
X172085000Y-91440000D03*
D23*
X172085000Y-88900000D03*
X172085000Y-86360000D03*
D11*
X181610000Y-106045000D03*
D23*
X181610000Y-108585000D03*
X181610000Y-111125000D03*
D17*
X124460000Y-71755000D03*
D18*
X124460000Y-73755000D03*
D17*
X124460000Y-64770000D03*
D18*
X124460000Y-66770000D03*
D24*
X159067500Y-107632500D03*
X159067500Y-100012500D03*
X159067500Y-77152500D03*
X159067500Y-69532500D03*
X159067500Y-92392500D03*
X159067500Y-84772500D03*
D13*
X120650000Y-81915000D03*
D14*
X123190000Y-81915000D03*
D13*
X120650000Y-79375000D03*
D14*
X123190000Y-79375000D03*
D13*
X177165000Y-68580000D03*
D14*
X177165000Y-71120000D03*
X177165000Y-73660000D03*
X177165000Y-76200000D03*
X177165000Y-78740000D03*
X177165000Y-81280000D03*
X177165000Y-83820000D03*
X177165000Y-86360000D03*
D21*
X172720000Y-107315000D03*
X167720000Y-107315000D03*
X172720000Y-111125000D03*
X167720000Y-111125000D03*
X167005000Y-61595000D03*
X172005000Y-61595000D03*
X167005000Y-81915000D03*
X172005000Y-81915000D03*
D13*
X148590000Y-67945000D03*
D14*
X148590000Y-65405000D03*
X148590000Y-62865000D03*
X148590000Y-60325000D03*
X148590000Y-57785000D03*
X148590000Y-55245000D03*
D13*
X172085000Y-130175000D03*
D14*
X169545000Y-130175000D03*
X167005000Y-130175000D03*
X164465000Y-130175000D03*
X161925000Y-130175000D03*
X159385000Y-130175000D03*
D13*
X167640000Y-73025000D03*
D14*
X170180000Y-73025000D03*
X167640000Y-70485000D03*
X170180000Y-70485000D03*
D19*
X131445000Y-124460000D03*
D20*
X139065000Y-124460000D03*
D19*
X131445000Y-127000000D03*
D20*
X139065000Y-127000000D03*
D25*
X127635000Y-145415000D03*
X145415000Y-145415000D03*
X136525000Y-145415000D03*
X132080000Y-113030000D03*
X163195000Y-111760000D03*
X167005000Y-142875000D03*
X126365000Y-142875000D03*
X123190000Y-149860000D03*
X123190000Y-114935000D03*
X163195000Y-123825000D03*
X135255000Y-125730000D03*
X165735000Y-127635000D03*
D26*
X167005000Y-81915000D02*
X170180000Y-85090000D01*
X170180000Y-85090000D02*
X173355000Y-85090000D01*
X173355000Y-85090000D02*
X173990000Y-85725000D01*
X173990000Y-85725000D02*
X174625000Y-85725000D01*
X174625000Y-85725000D02*
X175260000Y-86360000D01*
X175260000Y-86360000D02*
X177165000Y-86360000D01*
D27*
X124460000Y-64770000D02*
X125095000Y-64770000D01*
X125095000Y-64770000D02*
X127000000Y-62865000D01*
X146367500Y-69532500D02*
X159067500Y-69532500D01*
X139700000Y-62865000D02*
X146367500Y-69532500D01*
X127000000Y-62865000D02*
X139700000Y-62865000D01*
X124460000Y-64770000D02*
X123190000Y-64770000D01*
X120650000Y-67310000D02*
X120650000Y-79375000D01*
X123190000Y-64770000D02*
X120650000Y-67310000D01*
X159067500Y-69532500D02*
X160972500Y-69532500D01*
X160972500Y-69532500D02*
X167005000Y-75565000D01*
X167005000Y-75565000D02*
X167005000Y-81915000D01*
X162877500Y-84772500D02*
X164147500Y-84772500D01*
X164147500Y-84772500D02*
X167005000Y-81915000D01*
X159067500Y-84772500D02*
X162877500Y-84772500D01*
X164465000Y-86360000D02*
X164465000Y-95885000D01*
X162877500Y-84772500D02*
X164465000Y-86360000D01*
X177165000Y-86360000D02*
X179705000Y-88900000D01*
X179705000Y-104140000D02*
X181610000Y-106045000D01*
X179705000Y-88900000D02*
X179705000Y-104140000D01*
D26*
X127635000Y-145415000D02*
X136525000Y-145415000D01*
X136525000Y-145415000D02*
X145415000Y-145415000D01*
X122555000Y-133350000D02*
X122555000Y-133985000D01*
X133985000Y-132080000D02*
X139065000Y-127000000D01*
X128905000Y-132080000D02*
X133985000Y-132080000D01*
X126365000Y-134620000D02*
X128905000Y-132080000D01*
X123190000Y-134620000D02*
X126365000Y-134620000D01*
X122555000Y-133985000D02*
X123190000Y-134620000D01*
X124555000Y-109315000D02*
X126365000Y-111125000D01*
X126365000Y-116300000D02*
X124460000Y-118205000D01*
X126365000Y-111125000D02*
X126365000Y-116300000D01*
X164417500Y-149860000D02*
X175165000Y-149860000D01*
X175165000Y-149860000D02*
X177070000Y-151765000D01*
X153670000Y-149860000D02*
X164417500Y-149860000D01*
X164417500Y-149860000D02*
X164370000Y-149860000D01*
X164370000Y-149860000D02*
X166275000Y-151765000D01*
X124460000Y-129000000D02*
X123285000Y-129000000D01*
X123285000Y-129000000D02*
X122555000Y-128270000D01*
X122555000Y-128270000D02*
X122555000Y-133350000D01*
X122555000Y-133350000D02*
X122555000Y-135890000D01*
X122555000Y-135890000D02*
X124460000Y-137795000D01*
X131445000Y-151765000D02*
X131350000Y-151765000D01*
X131350000Y-151765000D02*
X131350000Y-151225000D01*
X131350000Y-151225000D02*
X132715000Y-149860000D01*
X132715000Y-149860000D02*
X140970000Y-149860000D01*
X140970000Y-149860000D02*
X153670000Y-149860000D01*
X140970000Y-149860000D02*
X142875000Y-151765000D01*
D28*
X181610000Y-111125000D02*
X183515000Y-109220000D01*
X176530000Y-66675000D02*
X170180000Y-73025000D01*
X178435000Y-66675000D02*
X176530000Y-66675000D01*
X179705000Y-67945000D02*
X178435000Y-66675000D01*
X179705000Y-69850000D02*
X179705000Y-67945000D01*
X183515000Y-73660000D02*
X179705000Y-69850000D01*
X183515000Y-109220000D02*
X183515000Y-73660000D01*
D26*
X122555000Y-120110000D02*
X124460000Y-118205000D01*
X122555000Y-128270000D02*
X122555000Y-120110000D01*
X124460000Y-109315000D02*
X124555000Y-109315000D01*
X153670000Y-149860000D02*
X153575000Y-149860000D01*
X153575000Y-149860000D02*
X155480000Y-151765000D01*
X154940000Y-57150000D02*
X154940000Y-60960000D01*
D27*
X123825000Y-83820000D02*
X126365000Y-83820000D01*
X135890000Y-84455000D02*
X159067500Y-107632500D01*
X127000000Y-84455000D02*
X135890000Y-84455000D01*
X126365000Y-83820000D02*
X127000000Y-84455000D01*
X124460000Y-71755000D02*
X125095000Y-71755000D01*
X125095000Y-71755000D02*
X126365000Y-73025000D01*
X126365000Y-73025000D02*
X126365000Y-81280000D01*
X126365000Y-81280000D02*
X123825000Y-83820000D01*
X123825000Y-83820000D02*
X122555000Y-83820000D01*
X122555000Y-83820000D02*
X120650000Y-81915000D01*
X124460000Y-73755000D02*
X124460000Y-76835000D01*
X125095000Y-80010000D02*
X123190000Y-81915000D01*
X125095000Y-77470000D02*
X125095000Y-80010000D01*
X124460000Y-76835000D02*
X125095000Y-77470000D01*
D26*
X161925000Y-113030000D02*
X132080000Y-113030000D01*
X163195000Y-111760000D02*
X161925000Y-113030000D01*
X124460000Y-111125000D02*
X124460000Y-111315000D01*
X126365000Y-142875000D02*
X167005000Y-142875000D01*
X131445000Y-137160000D02*
X131445000Y-136525000D01*
X131445000Y-136525000D02*
X132715000Y-135255000D01*
X132715000Y-135255000D02*
X132715000Y-133985000D01*
X132715000Y-133985000D02*
X133350000Y-133350000D01*
X133350000Y-133350000D02*
X161290000Y-133350000D01*
X161290000Y-133350000D02*
X164465000Y-130175000D01*
X131445000Y-134620000D02*
X131445000Y-133985000D01*
X131445000Y-133985000D02*
X132715000Y-132715000D01*
X132715000Y-132715000D02*
X159385000Y-132715000D01*
X159385000Y-132715000D02*
X161925000Y-130175000D01*
X169545000Y-130175000D02*
X169545000Y-132080000D01*
X168275000Y-135890000D02*
X167005000Y-137160000D01*
X168275000Y-133350000D02*
X168275000Y-135890000D01*
X169545000Y-132080000D02*
X168275000Y-133350000D01*
X167005000Y-130175000D02*
X167005000Y-134620000D01*
X172085000Y-130175000D02*
X172085000Y-132080000D01*
X170815000Y-135890000D02*
X169545000Y-137160000D01*
X170815000Y-133350000D02*
X170815000Y-135890000D01*
X172085000Y-132080000D02*
X170815000Y-133350000D01*
X131445000Y-149860000D02*
X132715000Y-148590000D01*
X123190000Y-149860000D02*
X131445000Y-149860000D01*
X124460000Y-95345000D02*
X127730000Y-95345000D01*
X127730000Y-95345000D02*
X128905000Y-96520000D01*
X124460000Y-102330000D02*
X125635000Y-102330000D01*
X125635000Y-102330000D02*
X128905000Y-99060000D01*
X124460000Y-143795000D02*
X124110000Y-143795000D01*
X124110000Y-143795000D02*
X121285000Y-140970000D01*
X121285000Y-116840000D02*
X123190000Y-114935000D01*
X121285000Y-140970000D02*
X121285000Y-116840000D01*
X139065000Y-151765000D02*
X138875000Y-151765000D01*
X132715000Y-123190000D02*
X131445000Y-124460000D01*
X162560000Y-123190000D02*
X132715000Y-123190000D01*
X163195000Y-123825000D02*
X162560000Y-123190000D01*
X124460000Y-133000000D02*
X124460000Y-132715000D01*
X124460000Y-132715000D02*
X128270000Y-128905000D01*
X133350000Y-126365000D02*
X131445000Y-124460000D01*
X133350000Y-127635000D02*
X133350000Y-126365000D01*
X132080000Y-128905000D02*
X133350000Y-127635000D01*
X128270000Y-128905000D02*
X132080000Y-128905000D01*
X162275000Y-151765000D02*
X162275000Y-152115000D01*
X162275000Y-152115000D02*
X163195000Y-153035000D01*
X163195000Y-153035000D02*
X171800000Y-153035000D01*
X171800000Y-153035000D02*
X173070000Y-151765000D01*
X131445000Y-124460000D02*
X128905000Y-124460000D01*
X124460000Y-122205000D02*
X126650000Y-122205000D01*
X126650000Y-122205000D02*
X128905000Y-124460000D01*
X163830000Y-125730000D02*
X135255000Y-125730000D01*
X165735000Y-127635000D02*
X163830000Y-125730000D01*
X128905000Y-127000000D02*
X131445000Y-127000000D01*
X124460000Y-120205000D02*
X123635000Y-120205000D01*
X123635000Y-120205000D02*
X123190000Y-120650000D01*
X127000000Y-127000000D02*
X128905000Y-127000000D01*
X123190000Y-123190000D02*
X127000000Y-127000000D01*
X123190000Y-120650000D02*
X123190000Y-123190000D01*
X124905000Y-120650000D02*
X124460000Y-120205000D01*
X124460000Y-131000000D02*
X124905000Y-131000000D01*
X124905000Y-131000000D02*
X128905000Y-127000000D01*
D28*
X172085000Y-86360000D02*
X173355000Y-86360000D01*
X161290000Y-144145000D02*
X156845000Y-148590000D01*
X167640000Y-144145000D02*
X161290000Y-144145000D01*
X173355000Y-138430000D02*
X167640000Y-144145000D01*
X173355000Y-137160000D02*
X173355000Y-138430000D01*
X175260000Y-135255000D02*
X173355000Y-137160000D01*
X175260000Y-88265000D02*
X175260000Y-135255000D01*
X173355000Y-86360000D02*
X175260000Y-88265000D01*
D26*
X146050000Y-146685000D02*
X154940000Y-146685000D01*
X154940000Y-146685000D02*
X156845000Y-148590000D01*
X137160000Y-146685000D02*
X146050000Y-146685000D01*
X146050000Y-146685000D02*
X147955000Y-148590000D01*
X130175000Y-148590000D02*
X130175000Y-147320000D01*
X137160000Y-146685000D02*
X139065000Y-148590000D01*
X130810000Y-146685000D02*
X137160000Y-146685000D01*
X130175000Y-147320000D02*
X130810000Y-146685000D01*
D27*
X172085000Y-95885000D02*
X172085000Y-91440000D01*
D28*
X170180000Y-70485000D02*
X170815000Y-70485000D01*
X170815000Y-70485000D02*
X175895000Y-65405000D01*
X180340000Y-68580000D02*
X181610000Y-69850000D01*
X180340000Y-66040000D02*
X180340000Y-68580000D01*
X179705000Y-65405000D02*
X180340000Y-66040000D01*
X175895000Y-65405000D02*
X179705000Y-65405000D01*
D26*
X162560000Y-60960000D02*
X162560000Y-64770000D01*
X168275000Y-68580000D02*
X170180000Y-70485000D01*
X166370000Y-68580000D02*
X168275000Y-68580000D01*
X162560000Y-64770000D02*
X166370000Y-68580000D01*
D29*
G36*
X174930389Y-54163481D02*
X174929613Y-55052619D01*
X175269155Y-55874372D01*
X175897321Y-56503636D01*
X176718481Y-56844611D01*
X177607619Y-56845387D01*
X178429372Y-56505845D01*
X179058636Y-55877679D01*
X179399611Y-55056519D01*
X179400387Y-54167381D01*
X179079179Y-53390000D01*
X187198000Y-53390000D01*
X187198000Y-152908000D01*
X180235955Y-152908000D01*
X180305000Y-152741310D01*
X180305000Y-152050750D01*
X180146250Y-151892000D01*
X179197000Y-151892000D01*
X179197000Y-151912000D01*
X178943000Y-151912000D01*
X178943000Y-151892000D01*
X178923000Y-151892000D01*
X178923000Y-151638000D01*
X178943000Y-151638000D01*
X178943000Y-150438750D01*
X179197000Y-150438750D01*
X179197000Y-151638000D01*
X180146250Y-151638000D01*
X180305000Y-151479250D01*
X180305000Y-150788690D01*
X180208327Y-150555301D01*
X180029698Y-150376673D01*
X179796309Y-150280000D01*
X179355750Y-150280000D01*
X179197000Y-150438750D01*
X178943000Y-150438750D01*
X178784250Y-150280000D01*
X178343691Y-150280000D01*
X178110302Y-150376673D01*
X177931673Y-150555301D01*
X177915590Y-150594130D01*
X177542614Y-150344916D01*
X177070000Y-150250907D01*
X176703592Y-150323790D01*
X175702401Y-149322599D01*
X175455839Y-149157852D01*
X175165000Y-149100000D01*
X160882440Y-149100000D01*
X160882440Y-147740000D01*
X160838162Y-147504683D01*
X160699090Y-147288559D01*
X160486890Y-147143569D01*
X160235000Y-147092560D01*
X159452598Y-147092560D01*
X161615158Y-144930000D01*
X167640000Y-144930000D01*
X167940407Y-144870245D01*
X168195079Y-144700079D01*
X173910076Y-138985081D01*
X173910079Y-138985079D01*
X174080245Y-138730406D01*
X174083816Y-138712453D01*
X174140001Y-138430000D01*
X174140000Y-138429995D01*
X174140000Y-137485158D01*
X174943676Y-136681482D01*
X174930389Y-136713481D01*
X174929613Y-137602619D01*
X175269155Y-138424372D01*
X175897321Y-139053636D01*
X176718481Y-139394611D01*
X177607619Y-139395387D01*
X178429372Y-139055845D01*
X179058636Y-138427679D01*
X179399611Y-137606519D01*
X179400387Y-136717381D01*
X179060845Y-135895628D01*
X178432679Y-135266364D01*
X177611519Y-134925389D01*
X176722381Y-134924613D01*
X176045000Y-135204502D01*
X176045000Y-133068913D01*
X176085853Y-133130054D01*
X176567622Y-133451961D01*
X177135907Y-133565000D01*
X177194093Y-133565000D01*
X177762378Y-133451961D01*
X178244147Y-133130054D01*
X178566054Y-132648285D01*
X178679093Y-132080000D01*
X178566054Y-131511715D01*
X178244147Y-131029946D01*
X177914974Y-130810000D01*
X178244147Y-130590054D01*
X178566054Y-130108285D01*
X178679093Y-129540000D01*
X178566054Y-128971715D01*
X178244147Y-128489946D01*
X177914974Y-128270000D01*
X178244147Y-128050054D01*
X178566054Y-127568285D01*
X178679093Y-127000000D01*
X178566054Y-126431715D01*
X178244147Y-125949946D01*
X177914974Y-125730000D01*
X178244147Y-125510054D01*
X178566054Y-125028285D01*
X178679093Y-124460000D01*
X178566054Y-123891715D01*
X178244147Y-123409946D01*
X177914974Y-123190000D01*
X178244147Y-122970054D01*
X178566054Y-122488285D01*
X178679093Y-121920000D01*
X178566054Y-121351715D01*
X178244147Y-120869946D01*
X177914974Y-120650000D01*
X178244147Y-120430054D01*
X178566054Y-119948285D01*
X178679093Y-119380000D01*
X178566054Y-118811715D01*
X178392932Y-118552619D01*
X181914613Y-118552619D01*
X182254155Y-119374372D01*
X182882321Y-120003636D01*
X183703481Y-120344611D01*
X184592619Y-120345387D01*
X185414372Y-120005845D01*
X186043636Y-119377679D01*
X186384611Y-118556519D01*
X186385387Y-117667381D01*
X186045845Y-116845628D01*
X185417679Y-116216364D01*
X184596519Y-115875389D01*
X183707381Y-115874613D01*
X182885628Y-116214155D01*
X182256364Y-116842321D01*
X181915389Y-117663481D01*
X181914613Y-118552619D01*
X178392932Y-118552619D01*
X178244147Y-118329946D01*
X177914974Y-118110000D01*
X178244147Y-117890054D01*
X178566054Y-117408285D01*
X178679093Y-116840000D01*
X178566054Y-116271715D01*
X178244147Y-115789946D01*
X178202548Y-115762150D01*
X178250317Y-115753162D01*
X178466441Y-115614090D01*
X178611431Y-115401890D01*
X178662440Y-115150000D01*
X178662440Y-113450000D01*
X178618162Y-113214683D01*
X178479090Y-112998559D01*
X178266890Y-112853569D01*
X178015000Y-112802560D01*
X176315000Y-112802560D01*
X176079683Y-112846838D01*
X176045000Y-112869156D01*
X176045000Y-110208913D01*
X176085853Y-110270054D01*
X176567622Y-110591961D01*
X177135907Y-110705000D01*
X177194093Y-110705000D01*
X177762378Y-110591961D01*
X178244147Y-110270054D01*
X178566054Y-109788285D01*
X178679093Y-109220000D01*
X178566054Y-108651715D01*
X178244147Y-108169946D01*
X177914974Y-107950000D01*
X178244147Y-107730054D01*
X178566054Y-107248285D01*
X178679093Y-106680000D01*
X178566054Y-106111715D01*
X178244147Y-105629946D01*
X177914974Y-105410000D01*
X178244147Y-105190054D01*
X178566054Y-104708285D01*
X178679093Y-104140000D01*
X178566054Y-103571715D01*
X178244147Y-103089946D01*
X177914974Y-102870000D01*
X178244147Y-102650054D01*
X178566054Y-102168285D01*
X178679093Y-101600000D01*
X178566054Y-101031715D01*
X178244147Y-100549946D01*
X177914974Y-100330000D01*
X178244147Y-100110054D01*
X178566054Y-99628285D01*
X178679093Y-99060000D01*
X178566054Y-98491715D01*
X178244147Y-98009946D01*
X177914974Y-97790000D01*
X178244147Y-97570054D01*
X178566054Y-97088285D01*
X178679093Y-96520000D01*
X178566054Y-95951715D01*
X178244147Y-95469946D01*
X177914974Y-95250000D01*
X178244147Y-95030054D01*
X178566054Y-94548285D01*
X178679093Y-93980000D01*
X178566054Y-93411715D01*
X178244147Y-92929946D01*
X178202548Y-92902150D01*
X178250317Y-92893162D01*
X178466441Y-92754090D01*
X178611431Y-92541890D01*
X178662440Y-92290000D01*
X178662440Y-90590000D01*
X178618162Y-90354683D01*
X178479090Y-90138559D01*
X178266890Y-89993569D01*
X178015000Y-89942560D01*
X176315000Y-89942560D01*
X176079683Y-89986838D01*
X176045000Y-90009156D01*
X176045000Y-88265000D01*
X175985245Y-87964594D01*
X175815079Y-87709921D01*
X175216507Y-87111349D01*
X175260000Y-87120000D01*
X175892046Y-87120000D01*
X176085853Y-87410054D01*
X176567622Y-87731961D01*
X177135907Y-87845000D01*
X177194093Y-87845000D01*
X177364520Y-87811100D01*
X178820000Y-89266579D01*
X178820000Y-104139995D01*
X178819999Y-104140000D01*
X178876190Y-104422484D01*
X178887367Y-104478675D01*
X179030947Y-104693559D01*
X179079210Y-104765790D01*
X180062560Y-105749139D01*
X180062560Y-106945000D01*
X180106838Y-107180317D01*
X180245910Y-107396441D01*
X180458110Y-107541431D01*
X180509146Y-107551766D01*
X180372034Y-107677424D01*
X180118954Y-108220258D01*
X180239003Y-108458000D01*
X181483000Y-108458000D01*
X181483000Y-108438000D01*
X181737000Y-108438000D01*
X181737000Y-108458000D01*
X181757000Y-108458000D01*
X181757000Y-108712000D01*
X181737000Y-108712000D01*
X181737000Y-108732000D01*
X181483000Y-108732000D01*
X181483000Y-108712000D01*
X180239003Y-108712000D01*
X180118954Y-108949742D01*
X180372034Y-109492576D01*
X180762582Y-109850499D01*
X180524591Y-110009519D01*
X180191845Y-110507509D01*
X180075000Y-111094928D01*
X180075000Y-111155072D01*
X180191845Y-111742491D01*
X180524591Y-112240481D01*
X181022581Y-112573227D01*
X181610000Y-112690072D01*
X182197419Y-112573227D01*
X182695409Y-112240481D01*
X183028155Y-111742491D01*
X183145000Y-111155072D01*
X183145000Y-111094928D01*
X183079503Y-110765655D01*
X184070079Y-109775079D01*
X184240245Y-109520406D01*
X184300000Y-109220000D01*
X184300000Y-73660000D01*
X184240245Y-73359594D01*
X184070079Y-73104921D01*
X182236963Y-71271805D01*
X182695409Y-70965481D01*
X183028155Y-70467491D01*
X183145000Y-69880072D01*
X183145000Y-69819928D01*
X183028155Y-69232509D01*
X182695409Y-68734519D01*
X182457418Y-68575499D01*
X182847966Y-68217576D01*
X183101046Y-67674742D01*
X182980997Y-67437000D01*
X181737000Y-67437000D01*
X181737000Y-67457000D01*
X181483000Y-67457000D01*
X181483000Y-67437000D01*
X181463000Y-67437000D01*
X181463000Y-67183000D01*
X181483000Y-67183000D01*
X181483000Y-67163000D01*
X181737000Y-67163000D01*
X181737000Y-67183000D01*
X182980997Y-67183000D01*
X183101046Y-66945258D01*
X182847966Y-66402424D01*
X182713462Y-66279156D01*
X182745317Y-66273162D01*
X182961441Y-66134090D01*
X183106431Y-65921890D01*
X183157440Y-65670000D01*
X183157440Y-63870000D01*
X183113162Y-63634683D01*
X182974090Y-63418559D01*
X182761890Y-63273569D01*
X182510000Y-63222560D01*
X180710000Y-63222560D01*
X180474683Y-63266838D01*
X180258559Y-63405910D01*
X180113569Y-63618110D01*
X180062560Y-63870000D01*
X180062560Y-64717943D01*
X180005407Y-64679755D01*
X179705000Y-64620000D01*
X176060131Y-64620000D01*
X176060248Y-64485813D01*
X175842243Y-63958200D01*
X175438923Y-63554176D01*
X174911691Y-63335250D01*
X174340813Y-63334752D01*
X173813200Y-63552757D01*
X173409176Y-63956077D01*
X173190250Y-64483309D01*
X173189752Y-65054187D01*
X173407757Y-65581800D01*
X173811077Y-65985824D01*
X174088727Y-66101115D01*
X170956870Y-69232972D01*
X170777378Y-69113039D01*
X170209093Y-69000000D01*
X170150907Y-69000000D01*
X169833031Y-69063229D01*
X168812401Y-68042599D01*
X168565839Y-67877852D01*
X168275000Y-67820000D01*
X166684802Y-67820000D01*
X163634802Y-64770000D01*
X165541887Y-64770000D01*
X165651120Y-65319151D01*
X165962189Y-65784698D01*
X166427736Y-66095767D01*
X166976887Y-66205000D01*
X167033113Y-66205000D01*
X167582264Y-66095767D01*
X168047811Y-65784698D01*
X168358880Y-65319151D01*
X168468113Y-64770000D01*
X168358880Y-64220849D01*
X168047811Y-63755302D01*
X167582264Y-63444233D01*
X167033113Y-63335000D01*
X166976887Y-63335000D01*
X166427736Y-63444233D01*
X165962189Y-63755302D01*
X165651120Y-64220849D01*
X165541887Y-64770000D01*
X163634802Y-64770000D01*
X163320000Y-64455198D01*
X163320000Y-62044400D01*
X163530142Y-61903988D01*
X163546713Y-61879187D01*
X165569752Y-61879187D01*
X165787757Y-62406800D01*
X166191077Y-62810824D01*
X166718309Y-63029750D01*
X167289187Y-63030248D01*
X167816800Y-62812243D01*
X168026663Y-62602745D01*
X171176861Y-62602745D01*
X171250995Y-62848864D01*
X171788223Y-63041965D01*
X172358454Y-63014778D01*
X172759005Y-62848864D01*
X172833139Y-62602745D01*
X172005000Y-61774605D01*
X171176861Y-62602745D01*
X168026663Y-62602745D01*
X168220824Y-62408923D01*
X168439750Y-61881691D01*
X168440189Y-61378223D01*
X170558035Y-61378223D01*
X170585222Y-61948454D01*
X170751136Y-62349005D01*
X170997255Y-62423139D01*
X171825395Y-61595000D01*
X172184605Y-61595000D01*
X173012745Y-62423139D01*
X173258864Y-62349005D01*
X173451965Y-61811777D01*
X173424778Y-61241546D01*
X173258864Y-60840995D01*
X173012745Y-60766861D01*
X172184605Y-61595000D01*
X171825395Y-61595000D01*
X170997255Y-60766861D01*
X170751136Y-60840995D01*
X170558035Y-61378223D01*
X168440189Y-61378223D01*
X168440248Y-61310813D01*
X168222243Y-60783200D01*
X168026640Y-60587255D01*
X171176861Y-60587255D01*
X172005000Y-61415395D01*
X172833139Y-60587255D01*
X172759005Y-60341136D01*
X172221777Y-60148035D01*
X171651546Y-60175222D01*
X171250995Y-60341136D01*
X171176861Y-60587255D01*
X168026640Y-60587255D01*
X167818923Y-60379176D01*
X167291691Y-60160250D01*
X166720813Y-60159752D01*
X166193200Y-60377757D01*
X165789176Y-60781077D01*
X165570250Y-61308309D01*
X165569752Y-61879187D01*
X163546713Y-61879187D01*
X163819533Y-61470882D01*
X163921154Y-60960000D01*
X163819533Y-60449118D01*
X163530142Y-60016012D01*
X163097036Y-59726621D01*
X162586154Y-59625000D01*
X162533846Y-59625000D01*
X162022964Y-59726621D01*
X161589858Y-60016012D01*
X161300467Y-60449118D01*
X161198846Y-60960000D01*
X161300467Y-61470882D01*
X161589858Y-61903988D01*
X161800000Y-62044400D01*
X161800000Y-64770000D01*
X161857852Y-65060839D01*
X162022599Y-65307401D01*
X165832599Y-69117401D01*
X166079161Y-69282148D01*
X166370000Y-69340000D01*
X166712909Y-69340000D01*
X166368355Y-69718076D01*
X166198524Y-70128110D01*
X166319845Y-70358000D01*
X167513000Y-70358000D01*
X167513000Y-70338000D01*
X167767000Y-70338000D01*
X167767000Y-70358000D01*
X167787000Y-70358000D01*
X167787000Y-70612000D01*
X167767000Y-70612000D01*
X167767000Y-72898000D01*
X167787000Y-72898000D01*
X167787000Y-73152000D01*
X167767000Y-73152000D01*
X167767000Y-74351250D01*
X167925750Y-74510000D01*
X168616309Y-74510000D01*
X168849698Y-74413327D01*
X169028327Y-74234699D01*
X169096903Y-74069142D01*
X169100853Y-74075054D01*
X169582622Y-74396961D01*
X170150907Y-74510000D01*
X170209093Y-74510000D01*
X170777378Y-74396961D01*
X171259147Y-74075054D01*
X171581054Y-73593285D01*
X171694093Y-73025000D01*
X171627076Y-72688082D01*
X175667560Y-68647598D01*
X175667560Y-69430000D01*
X175711838Y-69665317D01*
X175850910Y-69881441D01*
X176063110Y-70026431D01*
X176130541Y-70040086D01*
X176085853Y-70069946D01*
X175763946Y-70551715D01*
X175650907Y-71120000D01*
X175763946Y-71688285D01*
X176085853Y-72170054D01*
X176415026Y-72390000D01*
X176085853Y-72609946D01*
X175763946Y-73091715D01*
X175650907Y-73660000D01*
X175763946Y-74228285D01*
X176085853Y-74710054D01*
X176415026Y-74930000D01*
X176085853Y-75149946D01*
X175763946Y-75631715D01*
X175650907Y-76200000D01*
X175763946Y-76768285D01*
X176085853Y-77250054D01*
X176415026Y-77470000D01*
X176085853Y-77689946D01*
X175763946Y-78171715D01*
X175650907Y-78740000D01*
X175763946Y-79308285D01*
X176085853Y-79790054D01*
X176426553Y-80017702D01*
X176283642Y-80084817D01*
X175893355Y-80513076D01*
X175723524Y-80923110D01*
X175844845Y-81153000D01*
X177038000Y-81153000D01*
X177038000Y-81133000D01*
X177292000Y-81133000D01*
X177292000Y-81153000D01*
X178485155Y-81153000D01*
X178606476Y-80923110D01*
X178436645Y-80513076D01*
X178046358Y-80084817D01*
X177903447Y-80017702D01*
X178244147Y-79790054D01*
X178566054Y-79308285D01*
X178679093Y-78740000D01*
X178566054Y-78171715D01*
X178244147Y-77689946D01*
X177914974Y-77470000D01*
X178244147Y-77250054D01*
X178566054Y-76768285D01*
X178679093Y-76200000D01*
X178566054Y-75631715D01*
X178244147Y-75149946D01*
X177914974Y-74930000D01*
X178244147Y-74710054D01*
X178566054Y-74228285D01*
X178679093Y-73660000D01*
X178566054Y-73091715D01*
X178244147Y-72609946D01*
X177914974Y-72390000D01*
X178244147Y-72170054D01*
X178566054Y-71688285D01*
X178679093Y-71120000D01*
X178566054Y-70551715D01*
X178244147Y-70069946D01*
X178202548Y-70042150D01*
X178250317Y-70033162D01*
X178466441Y-69894090D01*
X178611431Y-69681890D01*
X178662440Y-69430000D01*
X178662440Y-68012598D01*
X178920000Y-68270158D01*
X178920000Y-69850000D01*
X178979755Y-70150407D01*
X179149921Y-70405079D01*
X182730000Y-73985158D01*
X182730000Y-104542111D01*
X182510000Y-104497560D01*
X181314139Y-104497560D01*
X180590000Y-103773420D01*
X180590000Y-88900000D01*
X180522633Y-88561325D01*
X180330790Y-88274210D01*
X180330787Y-88274208D01*
X178635539Y-86578960D01*
X178679093Y-86360000D01*
X178566054Y-85791715D01*
X178244147Y-85309946D01*
X177903447Y-85082298D01*
X178046358Y-85015183D01*
X178436645Y-84586924D01*
X178606476Y-84176890D01*
X178485155Y-83947000D01*
X177292000Y-83947000D01*
X177292000Y-83967000D01*
X177038000Y-83967000D01*
X177038000Y-83947000D01*
X175844845Y-83947000D01*
X175723524Y-84176890D01*
X175893355Y-84586924D01*
X176283642Y-85015183D01*
X176426553Y-85082298D01*
X176085853Y-85309946D01*
X175892046Y-85600000D01*
X175574802Y-85600000D01*
X175162401Y-85187599D01*
X174915839Y-85022852D01*
X174625000Y-84965000D01*
X174304802Y-84965000D01*
X173892401Y-84552599D01*
X173645839Y-84387852D01*
X173355000Y-84330000D01*
X170494802Y-84330000D01*
X169087547Y-82922745D01*
X171176861Y-82922745D01*
X171250995Y-83168864D01*
X171788223Y-83361965D01*
X172358454Y-83334778D01*
X172759005Y-83168864D01*
X172833139Y-82922745D01*
X172005000Y-82094605D01*
X171176861Y-82922745D01*
X169087547Y-82922745D01*
X168418256Y-82253454D01*
X168439750Y-82201691D01*
X168440189Y-81698223D01*
X170558035Y-81698223D01*
X170585222Y-82268454D01*
X170751136Y-82669005D01*
X170997255Y-82743139D01*
X171825395Y-81915000D01*
X172184605Y-81915000D01*
X173012745Y-82743139D01*
X173258864Y-82669005D01*
X173451965Y-82131777D01*
X173428371Y-81636890D01*
X175723524Y-81636890D01*
X175893355Y-82046924D01*
X176283642Y-82475183D01*
X176442954Y-82550000D01*
X176283642Y-82624817D01*
X175893355Y-83053076D01*
X175723524Y-83463110D01*
X175844845Y-83693000D01*
X177038000Y-83693000D01*
X177038000Y-81407000D01*
X177292000Y-81407000D01*
X177292000Y-83693000D01*
X178485155Y-83693000D01*
X178606476Y-83463110D01*
X178436645Y-83053076D01*
X178046358Y-82624817D01*
X177887046Y-82550000D01*
X178046358Y-82475183D01*
X178436645Y-82046924D01*
X178606476Y-81636890D01*
X178485155Y-81407000D01*
X177292000Y-81407000D01*
X177038000Y-81407000D01*
X175844845Y-81407000D01*
X175723524Y-81636890D01*
X173428371Y-81636890D01*
X173424778Y-81561546D01*
X173258864Y-81160995D01*
X173012745Y-81086861D01*
X172184605Y-81915000D01*
X171825395Y-81915000D01*
X170997255Y-81086861D01*
X170751136Y-81160995D01*
X170558035Y-81698223D01*
X168440189Y-81698223D01*
X168440248Y-81630813D01*
X168222243Y-81103200D01*
X168026640Y-80907255D01*
X171176861Y-80907255D01*
X172005000Y-81735395D01*
X172833139Y-80907255D01*
X172759005Y-80661136D01*
X172221777Y-80468035D01*
X171651546Y-80495222D01*
X171250995Y-80661136D01*
X171176861Y-80907255D01*
X168026640Y-80907255D01*
X167890000Y-80770377D01*
X167890000Y-75565000D01*
X167822633Y-75226325D01*
X167630790Y-74939210D01*
X167630787Y-74939208D01*
X167201579Y-74510000D01*
X167354250Y-74510000D01*
X167513000Y-74351250D01*
X167513000Y-73152000D01*
X166313750Y-73152000D01*
X166155000Y-73310750D01*
X166155000Y-73463421D01*
X164740270Y-72048690D01*
X166155000Y-72048690D01*
X166155000Y-72739250D01*
X166313750Y-72898000D01*
X167513000Y-72898000D01*
X167513000Y-70612000D01*
X166319845Y-70612000D01*
X166198524Y-70841890D01*
X166368355Y-71251924D01*
X166639878Y-71549864D01*
X166430302Y-71636673D01*
X166251673Y-71815301D01*
X166155000Y-72048690D01*
X164740270Y-72048690D01*
X162242485Y-69550905D01*
X162243050Y-68903724D01*
X161760704Y-67736357D01*
X160868341Y-66842435D01*
X159701817Y-66358052D01*
X158438724Y-66356950D01*
X157271357Y-66839296D01*
X156377435Y-67731659D01*
X155997145Y-68647500D01*
X150087440Y-68647500D01*
X150087440Y-67095000D01*
X150043162Y-66859683D01*
X149904090Y-66643559D01*
X149691890Y-66498569D01*
X149624459Y-66484914D01*
X149669147Y-66455054D01*
X149991054Y-65973285D01*
X150104093Y-65405000D01*
X149991054Y-64836715D01*
X149669147Y-64354946D01*
X149339974Y-64135000D01*
X149669147Y-63915054D01*
X149991054Y-63433285D01*
X150104093Y-62865000D01*
X149991054Y-62296715D01*
X149669147Y-61814946D01*
X149339974Y-61595000D01*
X149669147Y-61375054D01*
X149991054Y-60893285D01*
X150104093Y-60325000D01*
X149991054Y-59756715D01*
X149669147Y-59274946D01*
X149339974Y-59055000D01*
X149669147Y-58835054D01*
X149991054Y-58353285D01*
X150104093Y-57785000D01*
X150038252Y-57453991D01*
X153404735Y-57453991D01*
X153637932Y-58018371D01*
X154069357Y-58450551D01*
X154180000Y-58496494D01*
X154180000Y-59832345D01*
X153808902Y-60202796D01*
X153605232Y-60693287D01*
X153604769Y-61224383D01*
X153807582Y-61715229D01*
X154182796Y-62091098D01*
X154673287Y-62294768D01*
X155204383Y-62295231D01*
X155695229Y-62092418D01*
X156071098Y-61717204D01*
X156274768Y-61226713D01*
X156275231Y-60695617D01*
X156072418Y-60204771D01*
X155700000Y-59831703D01*
X155700000Y-58496846D01*
X155808371Y-58452068D01*
X155985841Y-58274908D01*
X156041673Y-58409699D01*
X156220302Y-58588327D01*
X156453691Y-58685000D01*
X157194250Y-58685000D01*
X157353000Y-58526250D01*
X157353000Y-57277000D01*
X157607000Y-57277000D01*
X157607000Y-58526250D01*
X157765750Y-58685000D01*
X158506309Y-58685000D01*
X158739698Y-58588327D01*
X158918327Y-58409699D01*
X159015000Y-58176310D01*
X159015000Y-57435750D01*
X158856250Y-57277000D01*
X157607000Y-57277000D01*
X157353000Y-57277000D01*
X157333000Y-57277000D01*
X157333000Y-57023000D01*
X157353000Y-57023000D01*
X157353000Y-55773750D01*
X157607000Y-55773750D01*
X157607000Y-57023000D01*
X158856250Y-57023000D01*
X159015000Y-56864250D01*
X159015000Y-56123690D01*
X158918327Y-55890301D01*
X158739698Y-55711673D01*
X158506309Y-55615000D01*
X157765750Y-55615000D01*
X157607000Y-55773750D01*
X157353000Y-55773750D01*
X157194250Y-55615000D01*
X156453691Y-55615000D01*
X156220302Y-55711673D01*
X156041673Y-55890301D01*
X155985881Y-56024994D01*
X155810643Y-55849449D01*
X155246670Y-55615267D01*
X154636009Y-55614735D01*
X154071629Y-55847932D01*
X153639449Y-56279357D01*
X153405267Y-56843330D01*
X153404735Y-57453991D01*
X150038252Y-57453991D01*
X149991054Y-57216715D01*
X149669147Y-56734946D01*
X149339974Y-56515000D01*
X149669147Y-56295054D01*
X149991054Y-55813285D01*
X150104093Y-55245000D01*
X149991054Y-54676715D01*
X149669147Y-54194946D01*
X149187378Y-53873039D01*
X148619093Y-53760000D01*
X148560907Y-53760000D01*
X147992622Y-53873039D01*
X147510853Y-54194946D01*
X147188946Y-54676715D01*
X147075907Y-55245000D01*
X147188946Y-55813285D01*
X147510853Y-56295054D01*
X147840026Y-56515000D01*
X147510853Y-56734946D01*
X147188946Y-57216715D01*
X147075907Y-57785000D01*
X147188946Y-58353285D01*
X147510853Y-58835054D01*
X147840026Y-59055000D01*
X147510853Y-59274946D01*
X147188946Y-59756715D01*
X147075907Y-60325000D01*
X147188946Y-60893285D01*
X147510853Y-61375054D01*
X147840026Y-61595000D01*
X147510853Y-61814946D01*
X147188946Y-62296715D01*
X147075907Y-62865000D01*
X147188946Y-63433285D01*
X147510853Y-63915054D01*
X147840026Y-64135000D01*
X147510853Y-64354946D01*
X147188946Y-64836715D01*
X147075907Y-65405000D01*
X147188946Y-65973285D01*
X147510853Y-66455054D01*
X147552452Y-66482850D01*
X147504683Y-66491838D01*
X147288559Y-66630910D01*
X147143569Y-66843110D01*
X147092560Y-67095000D01*
X147092560Y-68647500D01*
X146734079Y-68647500D01*
X140325790Y-62239210D01*
X140038675Y-62047367D01*
X139982484Y-62036190D01*
X139700000Y-61979999D01*
X139699995Y-61980000D01*
X127000005Y-61980000D01*
X127000000Y-61979999D01*
X126717516Y-62036190D01*
X126661325Y-62047367D01*
X126374210Y-62239210D01*
X126374208Y-62239213D01*
X125090860Y-63522560D01*
X123610000Y-63522560D01*
X123374683Y-63566838D01*
X123158559Y-63705910D01*
X123013569Y-63918110D01*
X123013150Y-63920178D01*
X122851325Y-63952367D01*
X122564210Y-64144210D01*
X122564208Y-64144213D01*
X120024210Y-66684210D01*
X119832367Y-66971325D01*
X119832367Y-66971326D01*
X119764999Y-67310000D01*
X119765000Y-67310005D01*
X119765000Y-77884146D01*
X119564683Y-77921838D01*
X119348559Y-78060910D01*
X119203569Y-78273110D01*
X119152560Y-78525000D01*
X119152560Y-80225000D01*
X119196838Y-80460317D01*
X119317015Y-80647077D01*
X119203569Y-80813110D01*
X119152560Y-81065000D01*
X119152560Y-82765000D01*
X119196838Y-83000317D01*
X119335910Y-83216441D01*
X119548110Y-83361431D01*
X119800000Y-83412440D01*
X120895860Y-83412440D01*
X121929208Y-84445787D01*
X121929210Y-84445790D01*
X122216325Y-84637633D01*
X122272516Y-84648810D01*
X122555000Y-84705001D01*
X122555005Y-84705000D01*
X123824995Y-84705000D01*
X123825000Y-84705001D01*
X123825005Y-84705000D01*
X125998420Y-84705000D01*
X126374208Y-85080787D01*
X126374210Y-85080790D01*
X126534062Y-85187599D01*
X126661326Y-85272634D01*
X127000000Y-85340001D01*
X127000005Y-85340000D01*
X127441986Y-85340000D01*
X127407560Y-85510000D01*
X127407560Y-87210000D01*
X127451838Y-87445317D01*
X127590910Y-87661441D01*
X127803110Y-87806431D01*
X127870541Y-87820086D01*
X127825853Y-87849946D01*
X127503946Y-88331715D01*
X127390907Y-88900000D01*
X127503946Y-89468285D01*
X127825853Y-89950054D01*
X128155026Y-90170000D01*
X127825853Y-90389946D01*
X127503946Y-90871715D01*
X127390907Y-91440000D01*
X127503946Y-92008285D01*
X127825853Y-92490054D01*
X128155026Y-92710000D01*
X127825853Y-92929946D01*
X127503946Y-93411715D01*
X127390907Y-93980000D01*
X127503946Y-94548285D01*
X127528478Y-94585000D01*
X125688059Y-94585000D01*
X125630870Y-94499410D01*
X125669699Y-94483327D01*
X125848327Y-94304698D01*
X125945000Y-94071309D01*
X125945000Y-93630750D01*
X125786250Y-93472000D01*
X124587000Y-93472000D01*
X124587000Y-93492000D01*
X124333000Y-93492000D01*
X124333000Y-93472000D01*
X123133750Y-93472000D01*
X122975000Y-93630750D01*
X122975000Y-94071309D01*
X123071673Y-94304698D01*
X123250301Y-94483327D01*
X123289130Y-94499410D01*
X123039916Y-94872386D01*
X122945907Y-95345000D01*
X123039916Y-95817614D01*
X123307630Y-96218277D01*
X123708293Y-96485991D01*
X124180907Y-96580000D01*
X124739093Y-96580000D01*
X125211707Y-96485991D01*
X125612370Y-96218277D01*
X125688059Y-96105000D01*
X127415198Y-96105000D01*
X127463790Y-96153592D01*
X127390907Y-96520000D01*
X127503946Y-97088285D01*
X127825853Y-97570054D01*
X128155026Y-97790000D01*
X127825853Y-98009946D01*
X127503946Y-98491715D01*
X127390907Y-99060000D01*
X127463790Y-99426408D01*
X125945000Y-100945198D01*
X125945000Y-100615750D01*
X125786250Y-100457000D01*
X124587000Y-100457000D01*
X124587000Y-100477000D01*
X124333000Y-100477000D01*
X124333000Y-100457000D01*
X123133750Y-100457000D01*
X122975000Y-100615750D01*
X122975000Y-101056309D01*
X123071673Y-101289698D01*
X123250301Y-101468327D01*
X123289130Y-101484410D01*
X123039916Y-101857386D01*
X122945907Y-102330000D01*
X123039916Y-102802614D01*
X123307630Y-103203277D01*
X123708293Y-103470991D01*
X124180907Y-103565000D01*
X124739093Y-103565000D01*
X125211707Y-103470991D01*
X125612370Y-103203277D01*
X125696192Y-103077828D01*
X125925839Y-103032148D01*
X126172401Y-102867401D01*
X127399019Y-101640783D01*
X127503946Y-102168285D01*
X127825853Y-102650054D01*
X128155026Y-102870000D01*
X127825853Y-103089946D01*
X127503946Y-103571715D01*
X127390907Y-104140000D01*
X127503946Y-104708285D01*
X127825853Y-105190054D01*
X128307622Y-105511961D01*
X128875907Y-105625000D01*
X128934093Y-105625000D01*
X129502378Y-105511961D01*
X129984147Y-105190054D01*
X130306054Y-104708285D01*
X130419093Y-104140000D01*
X130306054Y-103571715D01*
X129984147Y-103089946D01*
X129654974Y-102870000D01*
X129984147Y-102650054D01*
X130306054Y-102168285D01*
X130419093Y-101600000D01*
X130306054Y-101031715D01*
X129984147Y-100549946D01*
X129654974Y-100330000D01*
X129984147Y-100110054D01*
X130306054Y-99628285D01*
X130419093Y-99060000D01*
X130306054Y-98491715D01*
X129984147Y-98009946D01*
X129654974Y-97790000D01*
X129984147Y-97570054D01*
X130306054Y-97088285D01*
X130419093Y-96520000D01*
X130306054Y-95951715D01*
X129984147Y-95469946D01*
X129654974Y-95250000D01*
X129984147Y-95030054D01*
X130306054Y-94548285D01*
X130419093Y-93980000D01*
X130306054Y-93411715D01*
X129984147Y-92929946D01*
X129654974Y-92710000D01*
X129984147Y-92490054D01*
X130306054Y-92008285D01*
X130419093Y-91440000D01*
X130306054Y-90871715D01*
X129984147Y-90389946D01*
X129654974Y-90170000D01*
X129984147Y-89950054D01*
X130306054Y-89468285D01*
X130419093Y-88900000D01*
X130306054Y-88331715D01*
X129984147Y-87849946D01*
X129942548Y-87822150D01*
X129990317Y-87813162D01*
X130206441Y-87674090D01*
X130351431Y-87461890D01*
X130402440Y-87210000D01*
X130402440Y-85510000D01*
X130370452Y-85340000D01*
X135523420Y-85340000D01*
X156271119Y-106087698D01*
X155893052Y-106998183D01*
X155891950Y-108261276D01*
X156374296Y-109428643D01*
X157266659Y-110322565D01*
X158433183Y-110806948D01*
X159696276Y-110808050D01*
X160863643Y-110325704D01*
X161072456Y-110117255D01*
X166891861Y-110117255D01*
X167720000Y-110945395D01*
X168548139Y-110117255D01*
X168474005Y-109871136D01*
X167936777Y-109678035D01*
X167366546Y-109705222D01*
X166965995Y-109871136D01*
X166891861Y-110117255D01*
X161072456Y-110117255D01*
X161757565Y-109433341D01*
X162218724Y-108322745D01*
X166891861Y-108322745D01*
X166965995Y-108568864D01*
X167503223Y-108761965D01*
X168073454Y-108734778D01*
X168474005Y-108568864D01*
X168548139Y-108322745D01*
X167720000Y-107494605D01*
X166891861Y-108322745D01*
X162218724Y-108322745D01*
X162241948Y-108266817D01*
X162242967Y-107098223D01*
X166273035Y-107098223D01*
X166300222Y-107668454D01*
X166466136Y-108069005D01*
X166712255Y-108143139D01*
X167540395Y-107315000D01*
X167899605Y-107315000D01*
X168727745Y-108143139D01*
X168973864Y-108069005D01*
X169142735Y-107599187D01*
X171284752Y-107599187D01*
X171502757Y-108126800D01*
X171906077Y-108530824D01*
X172433309Y-108749750D01*
X173004187Y-108750248D01*
X173531800Y-108532243D01*
X173935824Y-108128923D01*
X174154750Y-107601691D01*
X174155248Y-107030813D01*
X173937243Y-106503200D01*
X173533923Y-106099176D01*
X173006691Y-105880250D01*
X172435813Y-105879752D01*
X171908200Y-106097757D01*
X171504176Y-106501077D01*
X171285250Y-107028309D01*
X171284752Y-107599187D01*
X169142735Y-107599187D01*
X169166965Y-107531777D01*
X169139778Y-106961546D01*
X168973864Y-106560995D01*
X168727745Y-106486861D01*
X167899605Y-107315000D01*
X167540395Y-107315000D01*
X166712255Y-106486861D01*
X166466136Y-106560995D01*
X166273035Y-107098223D01*
X162242967Y-107098223D01*
X162243050Y-107003724D01*
X161955276Y-106307255D01*
X166891861Y-106307255D01*
X167720000Y-107135395D01*
X168548139Y-106307255D01*
X168474005Y-106061136D01*
X167936777Y-105868035D01*
X167366546Y-105895222D01*
X166965995Y-106061136D01*
X166891861Y-106307255D01*
X161955276Y-106307255D01*
X161760704Y-105836357D01*
X160868341Y-104942435D01*
X159701817Y-104458052D01*
X158438724Y-104456950D01*
X157522220Y-104835641D01*
X153327856Y-100641276D01*
X155891950Y-100641276D01*
X156374296Y-101808643D01*
X157266659Y-102702565D01*
X158433183Y-103186948D01*
X159696276Y-103188050D01*
X160863643Y-102705704D01*
X161757565Y-101813341D01*
X162241948Y-100646817D01*
X162243050Y-99383724D01*
X161760704Y-98216357D01*
X160868341Y-97322435D01*
X159701817Y-96838052D01*
X158438724Y-96836950D01*
X157271357Y-97319296D01*
X156377435Y-98211659D01*
X155893052Y-99378183D01*
X155891950Y-100641276D01*
X153327856Y-100641276D01*
X147343824Y-94657244D01*
X156982362Y-94657244D01*
X157268931Y-95084084D01*
X158435863Y-95567482D01*
X159698957Y-95567518D01*
X160865917Y-95084185D01*
X160866069Y-95084084D01*
X161152638Y-94657244D01*
X159067500Y-92572105D01*
X156982362Y-94657244D01*
X147343824Y-94657244D01*
X145710537Y-93023957D01*
X155892482Y-93023957D01*
X156375815Y-94190917D01*
X156375916Y-94191069D01*
X156802756Y-94477638D01*
X158887895Y-92392500D01*
X159247105Y-92392500D01*
X161332244Y-94477638D01*
X161759084Y-94191069D01*
X162242482Y-93024137D01*
X162242518Y-91761043D01*
X161759185Y-90594083D01*
X161759084Y-90593931D01*
X161332244Y-90307362D01*
X159247105Y-92392500D01*
X158887895Y-92392500D01*
X156802756Y-90307362D01*
X156375916Y-90593931D01*
X155892518Y-91760863D01*
X155892482Y-93023957D01*
X145710537Y-93023957D01*
X142814336Y-90127756D01*
X156982362Y-90127756D01*
X159067500Y-92212895D01*
X161152638Y-90127756D01*
X160866069Y-89700916D01*
X159699137Y-89217518D01*
X158436043Y-89217482D01*
X157269083Y-89700815D01*
X157268931Y-89700916D01*
X156982362Y-90127756D01*
X142814336Y-90127756D01*
X136515790Y-83829210D01*
X136502006Y-83820000D01*
X136228675Y-83637367D01*
X136172484Y-83626190D01*
X135890000Y-83569999D01*
X135889995Y-83570000D01*
X130004228Y-83570000D01*
X130306054Y-83118285D01*
X130419093Y-82550000D01*
X130306054Y-81981715D01*
X129984147Y-81499946D01*
X129654974Y-81280000D01*
X129984147Y-81060054D01*
X130306054Y-80578285D01*
X130419093Y-80010000D01*
X130306054Y-79441715D01*
X130289704Y-79417244D01*
X156982362Y-79417244D01*
X157268931Y-79844084D01*
X158435863Y-80327482D01*
X159698957Y-80327518D01*
X160865917Y-79844185D01*
X160866069Y-79844084D01*
X161152638Y-79417244D01*
X159067500Y-77332105D01*
X156982362Y-79417244D01*
X130289704Y-79417244D01*
X129984147Y-78959946D01*
X129654974Y-78740000D01*
X129984147Y-78520054D01*
X130306054Y-78038285D01*
X130356643Y-77783957D01*
X155892482Y-77783957D01*
X156375815Y-78950917D01*
X156375916Y-78951069D01*
X156802756Y-79237638D01*
X158887895Y-77152500D01*
X159247105Y-77152500D01*
X161332244Y-79237638D01*
X161759084Y-78951069D01*
X162242482Y-77784137D01*
X162242518Y-76521043D01*
X161759185Y-75354083D01*
X161759084Y-75353931D01*
X161332244Y-75067362D01*
X159247105Y-77152500D01*
X158887895Y-77152500D01*
X156802756Y-75067362D01*
X156375916Y-75353931D01*
X155892518Y-76520863D01*
X155892482Y-77783957D01*
X130356643Y-77783957D01*
X130419093Y-77470000D01*
X130306054Y-76901715D01*
X129984147Y-76419946D01*
X129654974Y-76200000D01*
X129984147Y-75980054D01*
X130306054Y-75498285D01*
X130419093Y-74930000D01*
X130410691Y-74887756D01*
X156982362Y-74887756D01*
X159067500Y-76972895D01*
X161152638Y-74887756D01*
X160866069Y-74460916D01*
X159699137Y-73977518D01*
X158436043Y-73977482D01*
X157269083Y-74460815D01*
X157268931Y-74460916D01*
X156982362Y-74887756D01*
X130410691Y-74887756D01*
X130306054Y-74361715D01*
X129984147Y-73879946D01*
X129654974Y-73660000D01*
X129984147Y-73440054D01*
X130306054Y-72958285D01*
X130419093Y-72390000D01*
X130306054Y-71821715D01*
X129984147Y-71339946D01*
X129654974Y-71120000D01*
X129984147Y-70900054D01*
X130306054Y-70418285D01*
X130419093Y-69850000D01*
X130306054Y-69281715D01*
X129984147Y-68799946D01*
X129643447Y-68572298D01*
X129786358Y-68505183D01*
X130176645Y-68076924D01*
X130346476Y-67666890D01*
X130225155Y-67437000D01*
X129032000Y-67437000D01*
X129032000Y-67457000D01*
X128778000Y-67457000D01*
X128778000Y-67437000D01*
X127584845Y-67437000D01*
X127463524Y-67666890D01*
X127633355Y-68076924D01*
X128023642Y-68505183D01*
X128166553Y-68572298D01*
X127825853Y-68799946D01*
X127503946Y-69281715D01*
X127390907Y-69850000D01*
X127503946Y-70418285D01*
X127825853Y-70900054D01*
X128155026Y-71120000D01*
X127825853Y-71339946D01*
X127503946Y-71821715D01*
X127390907Y-72390000D01*
X127503946Y-72958285D01*
X127825853Y-73440054D01*
X128155026Y-73660000D01*
X127825853Y-73879946D01*
X127503946Y-74361715D01*
X127390907Y-74930000D01*
X127503946Y-75498285D01*
X127825853Y-75980054D01*
X128155026Y-76200000D01*
X127825853Y-76419946D01*
X127503946Y-76901715D01*
X127390907Y-77470000D01*
X127503946Y-78038285D01*
X127825853Y-78520054D01*
X128155026Y-78740000D01*
X127825853Y-78959946D01*
X127503946Y-79441715D01*
X127390907Y-80010000D01*
X127503946Y-80578285D01*
X127825853Y-81060054D01*
X128155026Y-81280000D01*
X127825853Y-81499946D01*
X127503946Y-81981715D01*
X127390907Y-82550000D01*
X127503946Y-83118285D01*
X127805772Y-83570000D01*
X127366579Y-83570000D01*
X126990790Y-83194210D01*
X126898049Y-83132243D01*
X126703675Y-83002367D01*
X126647484Y-82991190D01*
X126365000Y-82934999D01*
X126364995Y-82935000D01*
X125961579Y-82935000D01*
X126990787Y-81905792D01*
X126990790Y-81905790D01*
X127182633Y-81618675D01*
X127250000Y-81280000D01*
X127250000Y-73025005D01*
X127250001Y-73025000D01*
X127182633Y-72686325D01*
X127131598Y-72609946D01*
X126990790Y-72399210D01*
X126990787Y-72399208D01*
X125957440Y-71365860D01*
X125957440Y-71155000D01*
X125913162Y-70919683D01*
X125774090Y-70703559D01*
X125561890Y-70558569D01*
X125310000Y-70507560D01*
X123610000Y-70507560D01*
X123374683Y-70551838D01*
X123158559Y-70690910D01*
X123013569Y-70903110D01*
X122962560Y-71155000D01*
X122962560Y-72355000D01*
X123006838Y-72590317D01*
X123145910Y-72806441D01*
X123291475Y-72905901D01*
X123039916Y-73282386D01*
X122945907Y-73755000D01*
X123039916Y-74227614D01*
X123307630Y-74628277D01*
X123575000Y-74806928D01*
X123575000Y-76834995D01*
X123574999Y-76835000D01*
X123602429Y-76972895D01*
X123642367Y-77173675D01*
X123748226Y-77332105D01*
X123834210Y-77460790D01*
X124210000Y-77836579D01*
X124210000Y-78333992D01*
X123956924Y-78103355D01*
X123546890Y-77933524D01*
X123317000Y-78054845D01*
X123317000Y-79248000D01*
X123337000Y-79248000D01*
X123337000Y-79502000D01*
X123317000Y-79502000D01*
X123317000Y-79522000D01*
X123063000Y-79522000D01*
X123063000Y-79502000D01*
X123043000Y-79502000D01*
X123043000Y-79248000D01*
X123063000Y-79248000D01*
X123063000Y-78054845D01*
X122833110Y-77933524D01*
X122423076Y-78103355D01*
X122120063Y-78379501D01*
X122103162Y-78289683D01*
X121964090Y-78073559D01*
X121751890Y-77928569D01*
X121535000Y-77884648D01*
X121535000Y-67676580D01*
X122123970Y-67087609D01*
X123016538Y-67087609D01*
X123031714Y-67179376D01*
X123278067Y-67599125D01*
X123666299Y-67892647D01*
X124137304Y-68015256D01*
X124333000Y-67852547D01*
X124333000Y-66897000D01*
X124587000Y-66897000D01*
X124587000Y-67852547D01*
X124782696Y-68015256D01*
X125253701Y-67892647D01*
X125641933Y-67599125D01*
X125888286Y-67179376D01*
X125903462Y-67087609D01*
X125778731Y-66897000D01*
X124587000Y-66897000D01*
X124333000Y-66897000D01*
X123141269Y-66897000D01*
X123016538Y-67087609D01*
X122123970Y-67087609D01*
X123291001Y-65920578D01*
X123298309Y-65925571D01*
X123278067Y-65940875D01*
X123031714Y-66360624D01*
X123016538Y-66452391D01*
X123141269Y-66643000D01*
X124333000Y-66643000D01*
X124333000Y-66623000D01*
X124587000Y-66623000D01*
X124587000Y-66643000D01*
X125778731Y-66643000D01*
X125903462Y-66452391D01*
X125888286Y-66360624D01*
X125641933Y-65940875D01*
X125620580Y-65924731D01*
X125761441Y-65834090D01*
X125906431Y-65621890D01*
X125957440Y-65370000D01*
X125957440Y-65159140D01*
X127366579Y-63750000D01*
X127441986Y-63750000D01*
X127407560Y-63920000D01*
X127407560Y-65620000D01*
X127451838Y-65855317D01*
X127590910Y-66071441D01*
X127803110Y-66216431D01*
X127911107Y-66238301D01*
X127633355Y-66543076D01*
X127463524Y-66953110D01*
X127584845Y-67183000D01*
X128778000Y-67183000D01*
X128778000Y-67163000D01*
X129032000Y-67163000D01*
X129032000Y-67183000D01*
X130225155Y-67183000D01*
X130346476Y-66953110D01*
X130176645Y-66543076D01*
X129900499Y-66240063D01*
X129990317Y-66223162D01*
X130206441Y-66084090D01*
X130351431Y-65871890D01*
X130402440Y-65620000D01*
X130402440Y-63920000D01*
X130370452Y-63750000D01*
X139333420Y-63750000D01*
X145741708Y-70158287D01*
X145741710Y-70158290D01*
X146028825Y-70350133D01*
X146068375Y-70358000D01*
X146367500Y-70417501D01*
X146367505Y-70417500D01*
X155997820Y-70417500D01*
X156374296Y-71328643D01*
X157266659Y-72222565D01*
X158433183Y-72706948D01*
X159696276Y-72708050D01*
X160863643Y-72225704D01*
X161639560Y-71451140D01*
X166120000Y-75931579D01*
X166120000Y-80770829D01*
X165789176Y-81101077D01*
X165570250Y-81628309D01*
X165569840Y-82098581D01*
X163780920Y-83887500D01*
X162877505Y-83887500D01*
X162877500Y-83887499D01*
X162877495Y-83887500D01*
X162137180Y-83887500D01*
X161760704Y-82976357D01*
X160868341Y-82082435D01*
X159701817Y-81598052D01*
X158438724Y-81596950D01*
X157271357Y-82079296D01*
X156377435Y-82971659D01*
X155893052Y-84138183D01*
X155891950Y-85401276D01*
X156374296Y-86568643D01*
X157266659Y-87462565D01*
X158433183Y-87946948D01*
X159696276Y-87948050D01*
X160863643Y-87465704D01*
X161757565Y-86573341D01*
X162137855Y-85657500D01*
X162510920Y-85657500D01*
X163580000Y-86726579D01*
X163580000Y-94764856D01*
X163422189Y-94870302D01*
X163111120Y-95335849D01*
X163001887Y-95885000D01*
X163111120Y-96434151D01*
X163422189Y-96899698D01*
X163887736Y-97210767D01*
X164436887Y-97320000D01*
X164493113Y-97320000D01*
X165042264Y-97210767D01*
X165507811Y-96899698D01*
X165818880Y-96434151D01*
X165928113Y-95885000D01*
X165818880Y-95335849D01*
X165507811Y-94870302D01*
X165350000Y-94764856D01*
X165350000Y-90540000D01*
X170537560Y-90540000D01*
X170537560Y-92340000D01*
X170581838Y-92575317D01*
X170720910Y-92791441D01*
X170933110Y-92936431D01*
X171185000Y-92987440D01*
X171200000Y-92987440D01*
X171200000Y-94740829D01*
X170869176Y-95071077D01*
X170650250Y-95598309D01*
X170649752Y-96169187D01*
X170867757Y-96696800D01*
X171271077Y-97100824D01*
X171798309Y-97319750D01*
X172369187Y-97320248D01*
X172896800Y-97102243D01*
X173300824Y-96698923D01*
X173519750Y-96171691D01*
X173520248Y-95600813D01*
X173302243Y-95073200D01*
X172970000Y-94740377D01*
X172970000Y-92987440D01*
X172985000Y-92987440D01*
X173220317Y-92943162D01*
X173436441Y-92804090D01*
X173581431Y-92591890D01*
X173632440Y-92340000D01*
X173632440Y-90540000D01*
X173588162Y-90304683D01*
X173449090Y-90088559D01*
X173236890Y-89943569D01*
X173185854Y-89933234D01*
X173322966Y-89807576D01*
X173576046Y-89264742D01*
X173455997Y-89027000D01*
X172212000Y-89027000D01*
X172212000Y-89047000D01*
X171958000Y-89047000D01*
X171958000Y-89027000D01*
X170714003Y-89027000D01*
X170593954Y-89264742D01*
X170847034Y-89807576D01*
X170981538Y-89930844D01*
X170949683Y-89936838D01*
X170733559Y-90075910D01*
X170588569Y-90288110D01*
X170537560Y-90540000D01*
X165350000Y-90540000D01*
X165350000Y-86360005D01*
X165350001Y-86360000D01*
X165282633Y-86021326D01*
X165282633Y-86021325D01*
X165090790Y-85734210D01*
X165090787Y-85734208D01*
X164762248Y-85405668D01*
X164773290Y-85398290D01*
X166821739Y-83349840D01*
X167289187Y-83350248D01*
X167343149Y-83327951D01*
X169642599Y-85627401D01*
X169889161Y-85792148D01*
X170180000Y-85850000D01*
X170645464Y-85850000D01*
X170550000Y-86329928D01*
X170550000Y-86390072D01*
X170666845Y-86977491D01*
X170999591Y-87475481D01*
X171237582Y-87634501D01*
X170847034Y-87992424D01*
X170593954Y-88535258D01*
X170714003Y-88773000D01*
X171958000Y-88773000D01*
X171958000Y-88753000D01*
X172212000Y-88753000D01*
X172212000Y-88773000D01*
X173455997Y-88773000D01*
X173576046Y-88535258D01*
X173322966Y-87992424D01*
X172932418Y-87634501D01*
X173170409Y-87475481D01*
X173246478Y-87361636D01*
X174475000Y-88590158D01*
X174475000Y-134929842D01*
X173199620Y-136205222D01*
X172853729Y-135890000D01*
X173280183Y-135501358D01*
X173526486Y-134976892D01*
X173405819Y-134747000D01*
X172212000Y-134747000D01*
X172212000Y-137033000D01*
X172232000Y-137033000D01*
X172232000Y-137287000D01*
X172212000Y-137287000D01*
X172212000Y-137307000D01*
X171958000Y-137307000D01*
X171958000Y-137287000D01*
X171938000Y-137287000D01*
X171938000Y-137033000D01*
X171958000Y-137033000D01*
X171958000Y-134747000D01*
X171938000Y-134747000D01*
X171938000Y-134493000D01*
X171958000Y-134493000D01*
X171958000Y-134473000D01*
X172212000Y-134473000D01*
X172212000Y-134493000D01*
X173405819Y-134493000D01*
X173526486Y-134263108D01*
X173280183Y-133738642D01*
X172851924Y-133348355D01*
X172441890Y-133178524D01*
X172212002Y-133299844D01*
X172212002Y-133135000D01*
X172104802Y-133135000D01*
X172622401Y-132617401D01*
X172787148Y-132370840D01*
X172845000Y-132080000D01*
X172845000Y-131672440D01*
X172935000Y-131672440D01*
X173170317Y-131628162D01*
X173386441Y-131489090D01*
X173531431Y-131276890D01*
X173582440Y-131025000D01*
X173582440Y-129325000D01*
X173538162Y-129089683D01*
X173399090Y-128873559D01*
X173186890Y-128728569D01*
X172935000Y-128677560D01*
X171235000Y-128677560D01*
X170999683Y-128721838D01*
X170783559Y-128860910D01*
X170638569Y-129073110D01*
X170624914Y-129140541D01*
X170595054Y-129095853D01*
X170113285Y-128773946D01*
X169545000Y-128660907D01*
X168976715Y-128773946D01*
X168494946Y-129095853D01*
X168275000Y-129425026D01*
X168055054Y-129095853D01*
X167573285Y-128773946D01*
X167005000Y-128660907D01*
X166436715Y-128773946D01*
X165954946Y-129095853D01*
X165735000Y-129425026D01*
X165515054Y-129095853D01*
X165033285Y-128773946D01*
X164465000Y-128660907D01*
X163896715Y-128773946D01*
X163414946Y-129095853D01*
X163195000Y-129425026D01*
X162975054Y-129095853D01*
X162493285Y-128773946D01*
X161925000Y-128660907D01*
X161356715Y-128773946D01*
X160874946Y-129095853D01*
X160655000Y-129425026D01*
X160435054Y-129095853D01*
X159953285Y-128773946D01*
X159385000Y-128660907D01*
X158816715Y-128773946D01*
X158334946Y-129095853D01*
X158013039Y-129577622D01*
X157900000Y-130145907D01*
X157900000Y-130204093D01*
X158013039Y-130772378D01*
X158334946Y-131254147D01*
X158816715Y-131576054D01*
X159344217Y-131680981D01*
X159070198Y-131955000D01*
X135184802Y-131955000D01*
X138843632Y-128296170D01*
X139038846Y-128335000D01*
X139091154Y-128335000D01*
X139602036Y-128233379D01*
X140035142Y-127943988D01*
X140324533Y-127510882D01*
X140426154Y-127000000D01*
X140324708Y-126490000D01*
X163515198Y-126490000D01*
X164799878Y-127774680D01*
X164799838Y-127820167D01*
X164941883Y-128163943D01*
X165204673Y-128427192D01*
X165548201Y-128569838D01*
X165920167Y-128570162D01*
X166263943Y-128428117D01*
X166527192Y-128165327D01*
X166669838Y-127821799D01*
X166670162Y-127449833D01*
X166528117Y-127106057D01*
X166265327Y-126842808D01*
X165921799Y-126700162D01*
X165874923Y-126700121D01*
X164367401Y-125192599D01*
X164120839Y-125027852D01*
X163830000Y-124970000D01*
X140324708Y-124970000D01*
X140426154Y-124460000D01*
X140324708Y-123950000D01*
X162245198Y-123950000D01*
X162259878Y-123964680D01*
X162259838Y-124010167D01*
X162401883Y-124353943D01*
X162664673Y-124617192D01*
X163008201Y-124759838D01*
X163380167Y-124760162D01*
X163723943Y-124618117D01*
X163987192Y-124355327D01*
X164129838Y-124011799D01*
X164130162Y-123639833D01*
X163988117Y-123296057D01*
X163725327Y-123032808D01*
X163381799Y-122890162D01*
X163334923Y-122890121D01*
X163097401Y-122652599D01*
X162850839Y-122487852D01*
X162560000Y-122430000D01*
X132715000Y-122430000D01*
X132424160Y-122487852D01*
X132177599Y-122652599D01*
X131704972Y-123125226D01*
X131180617Y-123124769D01*
X130689771Y-123327582D01*
X130316703Y-123700000D01*
X130177954Y-123700000D01*
X129984147Y-123409946D01*
X129654974Y-123190000D01*
X129984147Y-122970054D01*
X130306054Y-122488285D01*
X130419093Y-121920000D01*
X130306054Y-121351715D01*
X129984147Y-120869946D01*
X129654974Y-120650000D01*
X129984147Y-120430054D01*
X130306054Y-119948285D01*
X130419093Y-119380000D01*
X130306054Y-118811715D01*
X130132932Y-118552619D01*
X133019613Y-118552619D01*
X133359155Y-119374372D01*
X133987321Y-120003636D01*
X134808481Y-120344611D01*
X135697619Y-120345387D01*
X136519372Y-120005845D01*
X137148636Y-119377679D01*
X137489611Y-118556519D01*
X137490387Y-117667381D01*
X137150845Y-116845628D01*
X136522679Y-116216364D01*
X135701519Y-115875389D01*
X134812381Y-115874613D01*
X133990628Y-116214155D01*
X133361364Y-116842321D01*
X133020389Y-117663481D01*
X133019613Y-118552619D01*
X130132932Y-118552619D01*
X129984147Y-118329946D01*
X129654974Y-118110000D01*
X129984147Y-117890054D01*
X130306054Y-117408285D01*
X130419093Y-116840000D01*
X130306054Y-116271715D01*
X129984147Y-115789946D01*
X129654974Y-115570000D01*
X129984147Y-115350054D01*
X130306054Y-114868285D01*
X130419093Y-114300000D01*
X130306054Y-113731715D01*
X129984147Y-113249946D01*
X129932097Y-113215167D01*
X131144838Y-113215167D01*
X131286883Y-113558943D01*
X131549673Y-113822192D01*
X131893201Y-113964838D01*
X132265167Y-113965162D01*
X132608943Y-113823117D01*
X132642118Y-113790000D01*
X161925000Y-113790000D01*
X162215839Y-113732148D01*
X162462401Y-113567401D01*
X163334680Y-112695122D01*
X163380167Y-112695162D01*
X163723943Y-112553117D01*
X163987192Y-112290327D01*
X164052626Y-112132745D01*
X166891861Y-112132745D01*
X166965995Y-112378864D01*
X167503223Y-112571965D01*
X168073454Y-112544778D01*
X168474005Y-112378864D01*
X168548139Y-112132745D01*
X167720000Y-111304605D01*
X166891861Y-112132745D01*
X164052626Y-112132745D01*
X164129838Y-111946799D01*
X164130162Y-111574833D01*
X163988117Y-111231057D01*
X163725327Y-110967808D01*
X163581832Y-110908223D01*
X166273035Y-110908223D01*
X166300222Y-111478454D01*
X166466136Y-111879005D01*
X166712255Y-111953139D01*
X167540395Y-111125000D01*
X167899605Y-111125000D01*
X168727745Y-111953139D01*
X168973864Y-111879005D01*
X169142735Y-111409187D01*
X171284752Y-111409187D01*
X171502757Y-111936800D01*
X171906077Y-112340824D01*
X172433309Y-112559750D01*
X173004187Y-112560248D01*
X173531800Y-112342243D01*
X173935824Y-111938923D01*
X174154750Y-111411691D01*
X174155248Y-110840813D01*
X173937243Y-110313200D01*
X173533923Y-109909176D01*
X173006691Y-109690250D01*
X172435813Y-109689752D01*
X171908200Y-109907757D01*
X171504176Y-110311077D01*
X171285250Y-110838309D01*
X171284752Y-111409187D01*
X169142735Y-111409187D01*
X169166965Y-111341777D01*
X169139778Y-110771546D01*
X168973864Y-110370995D01*
X168727745Y-110296861D01*
X167899605Y-111125000D01*
X167540395Y-111125000D01*
X166712255Y-110296861D01*
X166466136Y-110370995D01*
X166273035Y-110908223D01*
X163581832Y-110908223D01*
X163381799Y-110825162D01*
X163009833Y-110824838D01*
X162666057Y-110966883D01*
X162402808Y-111229673D01*
X162260162Y-111573201D01*
X162260121Y-111620077D01*
X161610198Y-112270000D01*
X132642463Y-112270000D01*
X132610327Y-112237808D01*
X132266799Y-112095162D01*
X131894833Y-112094838D01*
X131551057Y-112236883D01*
X131287808Y-112499673D01*
X131145162Y-112843201D01*
X131144838Y-113215167D01*
X129932097Y-113215167D01*
X129654974Y-113030000D01*
X129984147Y-112810054D01*
X130306054Y-112328285D01*
X130419093Y-111760000D01*
X130306054Y-111191715D01*
X129984147Y-110709946D01*
X129942548Y-110682150D01*
X129990317Y-110673162D01*
X130206441Y-110534090D01*
X130351431Y-110321890D01*
X130402440Y-110070000D01*
X130402440Y-108370000D01*
X130358162Y-108134683D01*
X130219090Y-107918559D01*
X130006890Y-107773569D01*
X129755000Y-107722560D01*
X128055000Y-107722560D01*
X127819683Y-107766838D01*
X127603559Y-107905910D01*
X127458569Y-108118110D01*
X127407560Y-108370000D01*
X127407560Y-110070000D01*
X127451838Y-110305317D01*
X127590910Y-110521441D01*
X127803110Y-110666431D01*
X127870541Y-110680086D01*
X127825853Y-110709946D01*
X127503946Y-111191715D01*
X127390907Y-111760000D01*
X127503946Y-112328285D01*
X127825853Y-112810054D01*
X128155026Y-113030000D01*
X127825853Y-113249946D01*
X127503946Y-113731715D01*
X127390907Y-114300000D01*
X127503946Y-114868285D01*
X127825853Y-115350054D01*
X128155026Y-115570000D01*
X127825853Y-115789946D01*
X127503946Y-116271715D01*
X127390907Y-116840000D01*
X127503946Y-117408285D01*
X127825853Y-117890054D01*
X128155026Y-118110000D01*
X127825853Y-118329946D01*
X127503946Y-118811715D01*
X127390907Y-119380000D01*
X127503946Y-119948285D01*
X127825853Y-120430054D01*
X128155026Y-120650000D01*
X127825853Y-120869946D01*
X127503946Y-121351715D01*
X127399019Y-121879217D01*
X127187401Y-121667599D01*
X126940839Y-121502852D01*
X126650000Y-121445000D01*
X125688059Y-121445000D01*
X125612370Y-121331723D01*
X125422715Y-121205000D01*
X125612370Y-121078277D01*
X125880084Y-120677614D01*
X125974093Y-120205000D01*
X125880084Y-119732386D01*
X125612370Y-119331723D01*
X125422715Y-119205000D01*
X125612370Y-119078277D01*
X125880084Y-118677614D01*
X125974093Y-118205000D01*
X125901210Y-117838592D01*
X126902401Y-116837401D01*
X127067148Y-116590839D01*
X127125000Y-116300000D01*
X127125000Y-111125000D01*
X127067148Y-110834161D01*
X126902401Y-110587599D01*
X125916971Y-109602169D01*
X125974093Y-109315000D01*
X125880084Y-108842386D01*
X125630870Y-108469410D01*
X125669699Y-108453327D01*
X125848327Y-108274698D01*
X125945000Y-108041309D01*
X125945000Y-107600750D01*
X125786250Y-107442000D01*
X124587000Y-107442000D01*
X124587000Y-107462000D01*
X124333000Y-107462000D01*
X124333000Y-107442000D01*
X123133750Y-107442000D01*
X122975000Y-107600750D01*
X122975000Y-108041309D01*
X123071673Y-108274698D01*
X123250301Y-108453327D01*
X123289130Y-108469410D01*
X123039916Y-108842386D01*
X122945907Y-109315000D01*
X123039916Y-109787614D01*
X123307630Y-110188277D01*
X123497285Y-110315000D01*
X123307630Y-110441723D01*
X123039916Y-110842386D01*
X122945907Y-111315000D01*
X123039916Y-111787614D01*
X123307630Y-112188277D01*
X123708293Y-112455991D01*
X124180907Y-112550000D01*
X124739093Y-112550000D01*
X125211707Y-112455991D01*
X125605000Y-112193201D01*
X125605000Y-115039874D01*
X125436310Y-114970000D01*
X124745750Y-114970000D01*
X124587000Y-115128750D01*
X124587000Y-116078000D01*
X124607000Y-116078000D01*
X124607000Y-116332000D01*
X124587000Y-116332000D01*
X124587000Y-116352000D01*
X124333000Y-116352000D01*
X124333000Y-116332000D01*
X124313000Y-116332000D01*
X124313000Y-116078000D01*
X124333000Y-116078000D01*
X124333000Y-115128750D01*
X124174250Y-114970000D01*
X124124970Y-114970000D01*
X124125162Y-114749833D01*
X123983117Y-114406057D01*
X123720327Y-114142808D01*
X123376799Y-114000162D01*
X123004833Y-113999838D01*
X122661057Y-114141883D01*
X122397808Y-114404673D01*
X122255162Y-114748201D01*
X122255121Y-114795077D01*
X120747599Y-116302599D01*
X120582852Y-116549161D01*
X120525000Y-116840000D01*
X120525000Y-140970000D01*
X120582852Y-141260839D01*
X120747599Y-141507401D01*
X122960721Y-143720523D01*
X122945907Y-143795000D01*
X123039916Y-144267614D01*
X123307630Y-144668277D01*
X123708293Y-144935991D01*
X124180907Y-145030000D01*
X124739093Y-145030000D01*
X125211707Y-144935991D01*
X125612370Y-144668277D01*
X125880084Y-144267614D01*
X125974093Y-143795000D01*
X125958934Y-143718790D01*
X126178201Y-143809838D01*
X126550167Y-143810162D01*
X126893943Y-143668117D01*
X126927118Y-143635000D01*
X160689842Y-143635000D01*
X157181918Y-147142924D01*
X156845000Y-147075907D01*
X156478592Y-147148790D01*
X155477401Y-146147599D01*
X155230839Y-145982852D01*
X154940000Y-145925000D01*
X130810000Y-145925000D01*
X130519161Y-145982852D01*
X130272599Y-146147599D01*
X129637599Y-146782599D01*
X129472852Y-147029161D01*
X129415678Y-147316593D01*
X129124946Y-147510853D01*
X128897298Y-147851553D01*
X128830183Y-147708642D01*
X128401924Y-147318355D01*
X127991890Y-147148524D01*
X127762000Y-147269845D01*
X127762000Y-148463000D01*
X127782000Y-148463000D01*
X127782000Y-148717000D01*
X127762000Y-148717000D01*
X127762000Y-148737000D01*
X127508000Y-148737000D01*
X127508000Y-148717000D01*
X126314181Y-148717000D01*
X126193514Y-148946892D01*
X126265418Y-149100000D01*
X123752463Y-149100000D01*
X123720327Y-149067808D01*
X123376799Y-148925162D01*
X123004833Y-148924838D01*
X122661057Y-149066883D01*
X122397808Y-149329673D01*
X122255162Y-149673201D01*
X122254838Y-150045167D01*
X122396883Y-150388943D01*
X122659673Y-150652192D01*
X123003201Y-150794838D01*
X123375167Y-150795162D01*
X123718943Y-150653117D01*
X123752118Y-150620000D01*
X128471799Y-150620000D01*
X128209009Y-151013293D01*
X128115000Y-151485907D01*
X128115000Y-152044093D01*
X128209009Y-152516707D01*
X128470462Y-152908000D01*
X118795000Y-152908000D01*
X118795000Y-148233108D01*
X126193514Y-148233108D01*
X126314181Y-148463000D01*
X127508000Y-148463000D01*
X127508000Y-147269845D01*
X127278110Y-147148524D01*
X126868076Y-147318355D01*
X126439817Y-147708642D01*
X126193514Y-148233108D01*
X118795000Y-148233108D01*
X118795000Y-106588691D01*
X122975000Y-106588691D01*
X122975000Y-107029250D01*
X123133750Y-107188000D01*
X124333000Y-107188000D01*
X124333000Y-106238750D01*
X124587000Y-106238750D01*
X124587000Y-107188000D01*
X125786250Y-107188000D01*
X125945000Y-107029250D01*
X125945000Y-106588691D01*
X125848327Y-106355302D01*
X125669699Y-106176673D01*
X125436310Y-106080000D01*
X124745750Y-106080000D01*
X124587000Y-106238750D01*
X124333000Y-106238750D01*
X124174250Y-106080000D01*
X123483690Y-106080000D01*
X123250301Y-106176673D01*
X123071673Y-106355302D01*
X122975000Y-106588691D01*
X118795000Y-106588691D01*
X118795000Y-99603691D01*
X122975000Y-99603691D01*
X122975000Y-100044250D01*
X123133750Y-100203000D01*
X124333000Y-100203000D01*
X124333000Y-99253750D01*
X124587000Y-99253750D01*
X124587000Y-100203000D01*
X125786250Y-100203000D01*
X125945000Y-100044250D01*
X125945000Y-99603691D01*
X125848327Y-99370302D01*
X125669699Y-99191673D01*
X125436310Y-99095000D01*
X124745750Y-99095000D01*
X124587000Y-99253750D01*
X124333000Y-99253750D01*
X124174250Y-99095000D01*
X123483690Y-99095000D01*
X123250301Y-99191673D01*
X123071673Y-99370302D01*
X122975000Y-99603691D01*
X118795000Y-99603691D01*
X118795000Y-92618691D01*
X122975000Y-92618691D01*
X122975000Y-93059250D01*
X123133750Y-93218000D01*
X124333000Y-93218000D01*
X124333000Y-92268750D01*
X124587000Y-92268750D01*
X124587000Y-93218000D01*
X125786250Y-93218000D01*
X125945000Y-93059250D01*
X125945000Y-92618691D01*
X125848327Y-92385302D01*
X125669699Y-92206673D01*
X125436310Y-92110000D01*
X124745750Y-92110000D01*
X124587000Y-92268750D01*
X124333000Y-92268750D01*
X124174250Y-92110000D01*
X123483690Y-92110000D01*
X123250301Y-92206673D01*
X123071673Y-92385302D01*
X122975000Y-92618691D01*
X118795000Y-92618691D01*
X118795000Y-60132619D01*
X133019613Y-60132619D01*
X133359155Y-60954372D01*
X133987321Y-61583636D01*
X134808481Y-61924611D01*
X135697619Y-61925387D01*
X136519372Y-61585845D01*
X137148636Y-60957679D01*
X137489611Y-60136519D01*
X137490387Y-59247381D01*
X137150845Y-58425628D01*
X136522679Y-57796364D01*
X135701519Y-57455389D01*
X134812381Y-57454613D01*
X133990628Y-57794155D01*
X133361364Y-58422321D01*
X133020389Y-59243481D01*
X133019613Y-60132619D01*
X118795000Y-60132619D01*
X118795000Y-56322619D01*
X126669613Y-56322619D01*
X127009155Y-57144372D01*
X127637321Y-57773636D01*
X128458481Y-58114611D01*
X129347619Y-58115387D01*
X130169372Y-57775845D01*
X130798636Y-57147679D01*
X131139611Y-56326519D01*
X131140387Y-55437381D01*
X130800845Y-54615628D01*
X130172679Y-53986364D01*
X129351519Y-53645389D01*
X128462381Y-53644613D01*
X127640628Y-53984155D01*
X127011364Y-54612321D01*
X126670389Y-55433481D01*
X126669613Y-56322619D01*
X118795000Y-56322619D01*
X118795000Y-53390000D01*
X175251566Y-53390000D01*
X174930389Y-54163481D01*
X174930389Y-54163481D01*
G37*
X174930389Y-54163481D02*
X174929613Y-55052619D01*
X175269155Y-55874372D01*
X175897321Y-56503636D01*
X176718481Y-56844611D01*
X177607619Y-56845387D01*
X178429372Y-56505845D01*
X179058636Y-55877679D01*
X179399611Y-55056519D01*
X179400387Y-54167381D01*
X179079179Y-53390000D01*
X187198000Y-53390000D01*
X187198000Y-152908000D01*
X180235955Y-152908000D01*
X180305000Y-152741310D01*
X180305000Y-152050750D01*
X180146250Y-151892000D01*
X179197000Y-151892000D01*
X179197000Y-151912000D01*
X178943000Y-151912000D01*
X178943000Y-151892000D01*
X178923000Y-151892000D01*
X178923000Y-151638000D01*
X178943000Y-151638000D01*
X178943000Y-150438750D01*
X179197000Y-150438750D01*
X179197000Y-151638000D01*
X180146250Y-151638000D01*
X180305000Y-151479250D01*
X180305000Y-150788690D01*
X180208327Y-150555301D01*
X180029698Y-150376673D01*
X179796309Y-150280000D01*
X179355750Y-150280000D01*
X179197000Y-150438750D01*
X178943000Y-150438750D01*
X178784250Y-150280000D01*
X178343691Y-150280000D01*
X178110302Y-150376673D01*
X177931673Y-150555301D01*
X177915590Y-150594130D01*
X177542614Y-150344916D01*
X177070000Y-150250907D01*
X176703592Y-150323790D01*
X175702401Y-149322599D01*
X175455839Y-149157852D01*
X175165000Y-149100000D01*
X160882440Y-149100000D01*
X160882440Y-147740000D01*
X160838162Y-147504683D01*
X160699090Y-147288559D01*
X160486890Y-147143569D01*
X160235000Y-147092560D01*
X159452598Y-147092560D01*
X161615158Y-144930000D01*
X167640000Y-144930000D01*
X167940407Y-144870245D01*
X168195079Y-144700079D01*
X173910076Y-138985081D01*
X173910079Y-138985079D01*
X174080245Y-138730406D01*
X174083816Y-138712453D01*
X174140001Y-138430000D01*
X174140000Y-138429995D01*
X174140000Y-137485158D01*
X174943676Y-136681482D01*
X174930389Y-136713481D01*
X174929613Y-137602619D01*
X175269155Y-138424372D01*
X175897321Y-139053636D01*
X176718481Y-139394611D01*
X177607619Y-139395387D01*
X178429372Y-139055845D01*
X179058636Y-138427679D01*
X179399611Y-137606519D01*
X179400387Y-136717381D01*
X179060845Y-135895628D01*
X178432679Y-135266364D01*
X177611519Y-134925389D01*
X176722381Y-134924613D01*
X176045000Y-135204502D01*
X176045000Y-133068913D01*
X176085853Y-133130054D01*
X176567622Y-133451961D01*
X177135907Y-133565000D01*
X177194093Y-133565000D01*
X177762378Y-133451961D01*
X178244147Y-133130054D01*
X178566054Y-132648285D01*
X178679093Y-132080000D01*
X178566054Y-131511715D01*
X178244147Y-131029946D01*
X177914974Y-130810000D01*
X178244147Y-130590054D01*
X178566054Y-130108285D01*
X178679093Y-129540000D01*
X178566054Y-128971715D01*
X178244147Y-128489946D01*
X177914974Y-128270000D01*
X178244147Y-128050054D01*
X178566054Y-127568285D01*
X178679093Y-127000000D01*
X178566054Y-126431715D01*
X178244147Y-125949946D01*
X177914974Y-125730000D01*
X178244147Y-125510054D01*
X178566054Y-125028285D01*
X178679093Y-124460000D01*
X178566054Y-123891715D01*
X178244147Y-123409946D01*
X177914974Y-123190000D01*
X178244147Y-122970054D01*
X178566054Y-122488285D01*
X178679093Y-121920000D01*
X178566054Y-121351715D01*
X178244147Y-120869946D01*
X177914974Y-120650000D01*
X178244147Y-120430054D01*
X178566054Y-119948285D01*
X178679093Y-119380000D01*
X178566054Y-118811715D01*
X178392932Y-118552619D01*
X181914613Y-118552619D01*
X182254155Y-119374372D01*
X182882321Y-120003636D01*
X183703481Y-120344611D01*
X184592619Y-120345387D01*
X185414372Y-120005845D01*
X186043636Y-119377679D01*
X186384611Y-118556519D01*
X186385387Y-117667381D01*
X186045845Y-116845628D01*
X185417679Y-116216364D01*
X184596519Y-115875389D01*
X183707381Y-115874613D01*
X182885628Y-116214155D01*
X182256364Y-116842321D01*
X181915389Y-117663481D01*
X181914613Y-118552619D01*
X178392932Y-118552619D01*
X178244147Y-118329946D01*
X177914974Y-118110000D01*
X178244147Y-117890054D01*
X178566054Y-117408285D01*
X178679093Y-116840000D01*
X178566054Y-116271715D01*
X178244147Y-115789946D01*
X178202548Y-115762150D01*
X178250317Y-115753162D01*
X178466441Y-115614090D01*
X178611431Y-115401890D01*
X178662440Y-115150000D01*
X178662440Y-113450000D01*
X178618162Y-113214683D01*
X178479090Y-112998559D01*
X178266890Y-112853569D01*
X178015000Y-112802560D01*
X176315000Y-112802560D01*
X176079683Y-112846838D01*
X176045000Y-112869156D01*
X176045000Y-110208913D01*
X176085853Y-110270054D01*
X176567622Y-110591961D01*
X177135907Y-110705000D01*
X177194093Y-110705000D01*
X177762378Y-110591961D01*
X178244147Y-110270054D01*
X178566054Y-109788285D01*
X178679093Y-109220000D01*
X178566054Y-108651715D01*
X178244147Y-108169946D01*
X177914974Y-107950000D01*
X178244147Y-107730054D01*
X178566054Y-107248285D01*
X178679093Y-106680000D01*
X178566054Y-106111715D01*
X178244147Y-105629946D01*
X177914974Y-105410000D01*
X178244147Y-105190054D01*
X178566054Y-104708285D01*
X178679093Y-104140000D01*
X178566054Y-103571715D01*
X178244147Y-103089946D01*
X177914974Y-102870000D01*
X178244147Y-102650054D01*
X178566054Y-102168285D01*
X178679093Y-101600000D01*
X178566054Y-101031715D01*
X178244147Y-100549946D01*
X177914974Y-100330000D01*
X178244147Y-100110054D01*
X178566054Y-99628285D01*
X178679093Y-99060000D01*
X178566054Y-98491715D01*
X178244147Y-98009946D01*
X177914974Y-97790000D01*
X178244147Y-97570054D01*
X178566054Y-97088285D01*
X178679093Y-96520000D01*
X178566054Y-95951715D01*
X178244147Y-95469946D01*
X177914974Y-95250000D01*
X178244147Y-95030054D01*
X178566054Y-94548285D01*
X178679093Y-93980000D01*
X178566054Y-93411715D01*
X178244147Y-92929946D01*
X178202548Y-92902150D01*
X178250317Y-92893162D01*
X178466441Y-92754090D01*
X178611431Y-92541890D01*
X178662440Y-92290000D01*
X178662440Y-90590000D01*
X178618162Y-90354683D01*
X178479090Y-90138559D01*
X178266890Y-89993569D01*
X178015000Y-89942560D01*
X176315000Y-89942560D01*
X176079683Y-89986838D01*
X176045000Y-90009156D01*
X176045000Y-88265000D01*
X175985245Y-87964594D01*
X175815079Y-87709921D01*
X175216507Y-87111349D01*
X175260000Y-87120000D01*
X175892046Y-87120000D01*
X176085853Y-87410054D01*
X176567622Y-87731961D01*
X177135907Y-87845000D01*
X177194093Y-87845000D01*
X177364520Y-87811100D01*
X178820000Y-89266579D01*
X178820000Y-104139995D01*
X178819999Y-104140000D01*
X178876190Y-104422484D01*
X178887367Y-104478675D01*
X179030947Y-104693559D01*
X179079210Y-104765790D01*
X180062560Y-105749139D01*
X180062560Y-106945000D01*
X180106838Y-107180317D01*
X180245910Y-107396441D01*
X180458110Y-107541431D01*
X180509146Y-107551766D01*
X180372034Y-107677424D01*
X180118954Y-108220258D01*
X180239003Y-108458000D01*
X181483000Y-108458000D01*
X181483000Y-108438000D01*
X181737000Y-108438000D01*
X181737000Y-108458000D01*
X181757000Y-108458000D01*
X181757000Y-108712000D01*
X181737000Y-108712000D01*
X181737000Y-108732000D01*
X181483000Y-108732000D01*
X181483000Y-108712000D01*
X180239003Y-108712000D01*
X180118954Y-108949742D01*
X180372034Y-109492576D01*
X180762582Y-109850499D01*
X180524591Y-110009519D01*
X180191845Y-110507509D01*
X180075000Y-111094928D01*
X180075000Y-111155072D01*
X180191845Y-111742491D01*
X180524591Y-112240481D01*
X181022581Y-112573227D01*
X181610000Y-112690072D01*
X182197419Y-112573227D01*
X182695409Y-112240481D01*
X183028155Y-111742491D01*
X183145000Y-111155072D01*
X183145000Y-111094928D01*
X183079503Y-110765655D01*
X184070079Y-109775079D01*
X184240245Y-109520406D01*
X184300000Y-109220000D01*
X184300000Y-73660000D01*
X184240245Y-73359594D01*
X184070079Y-73104921D01*
X182236963Y-71271805D01*
X182695409Y-70965481D01*
X183028155Y-70467491D01*
X183145000Y-69880072D01*
X183145000Y-69819928D01*
X183028155Y-69232509D01*
X182695409Y-68734519D01*
X182457418Y-68575499D01*
X182847966Y-68217576D01*
X183101046Y-67674742D01*
X182980997Y-67437000D01*
X181737000Y-67437000D01*
X181737000Y-67457000D01*
X181483000Y-67457000D01*
X181483000Y-67437000D01*
X181463000Y-67437000D01*
X181463000Y-67183000D01*
X181483000Y-67183000D01*
X181483000Y-67163000D01*
X181737000Y-67163000D01*
X181737000Y-67183000D01*
X182980997Y-67183000D01*
X183101046Y-66945258D01*
X182847966Y-66402424D01*
X182713462Y-66279156D01*
X182745317Y-66273162D01*
X182961441Y-66134090D01*
X183106431Y-65921890D01*
X183157440Y-65670000D01*
X183157440Y-63870000D01*
X183113162Y-63634683D01*
X182974090Y-63418559D01*
X182761890Y-63273569D01*
X182510000Y-63222560D01*
X180710000Y-63222560D01*
X180474683Y-63266838D01*
X180258559Y-63405910D01*
X180113569Y-63618110D01*
X180062560Y-63870000D01*
X180062560Y-64717943D01*
X180005407Y-64679755D01*
X179705000Y-64620000D01*
X176060131Y-64620000D01*
X176060248Y-64485813D01*
X175842243Y-63958200D01*
X175438923Y-63554176D01*
X174911691Y-63335250D01*
X174340813Y-63334752D01*
X173813200Y-63552757D01*
X173409176Y-63956077D01*
X173190250Y-64483309D01*
X173189752Y-65054187D01*
X173407757Y-65581800D01*
X173811077Y-65985824D01*
X174088727Y-66101115D01*
X170956870Y-69232972D01*
X170777378Y-69113039D01*
X170209093Y-69000000D01*
X170150907Y-69000000D01*
X169833031Y-69063229D01*
X168812401Y-68042599D01*
X168565839Y-67877852D01*
X168275000Y-67820000D01*
X166684802Y-67820000D01*
X163634802Y-64770000D01*
X165541887Y-64770000D01*
X165651120Y-65319151D01*
X165962189Y-65784698D01*
X166427736Y-66095767D01*
X166976887Y-66205000D01*
X167033113Y-66205000D01*
X167582264Y-66095767D01*
X168047811Y-65784698D01*
X168358880Y-65319151D01*
X168468113Y-64770000D01*
X168358880Y-64220849D01*
X168047811Y-63755302D01*
X167582264Y-63444233D01*
X167033113Y-63335000D01*
X166976887Y-63335000D01*
X166427736Y-63444233D01*
X165962189Y-63755302D01*
X165651120Y-64220849D01*
X165541887Y-64770000D01*
X163634802Y-64770000D01*
X163320000Y-64455198D01*
X163320000Y-62044400D01*
X163530142Y-61903988D01*
X163546713Y-61879187D01*
X165569752Y-61879187D01*
X165787757Y-62406800D01*
X166191077Y-62810824D01*
X166718309Y-63029750D01*
X167289187Y-63030248D01*
X167816800Y-62812243D01*
X168026663Y-62602745D01*
X171176861Y-62602745D01*
X171250995Y-62848864D01*
X171788223Y-63041965D01*
X172358454Y-63014778D01*
X172759005Y-62848864D01*
X172833139Y-62602745D01*
X172005000Y-61774605D01*
X171176861Y-62602745D01*
X168026663Y-62602745D01*
X168220824Y-62408923D01*
X168439750Y-61881691D01*
X168440189Y-61378223D01*
X170558035Y-61378223D01*
X170585222Y-61948454D01*
X170751136Y-62349005D01*
X170997255Y-62423139D01*
X171825395Y-61595000D01*
X172184605Y-61595000D01*
X173012745Y-62423139D01*
X173258864Y-62349005D01*
X173451965Y-61811777D01*
X173424778Y-61241546D01*
X173258864Y-60840995D01*
X173012745Y-60766861D01*
X172184605Y-61595000D01*
X171825395Y-61595000D01*
X170997255Y-60766861D01*
X170751136Y-60840995D01*
X170558035Y-61378223D01*
X168440189Y-61378223D01*
X168440248Y-61310813D01*
X168222243Y-60783200D01*
X168026640Y-60587255D01*
X171176861Y-60587255D01*
X172005000Y-61415395D01*
X172833139Y-60587255D01*
X172759005Y-60341136D01*
X172221777Y-60148035D01*
X171651546Y-60175222D01*
X171250995Y-60341136D01*
X171176861Y-60587255D01*
X168026640Y-60587255D01*
X167818923Y-60379176D01*
X167291691Y-60160250D01*
X166720813Y-60159752D01*
X166193200Y-60377757D01*
X165789176Y-60781077D01*
X165570250Y-61308309D01*
X165569752Y-61879187D01*
X163546713Y-61879187D01*
X163819533Y-61470882D01*
X163921154Y-60960000D01*
X163819533Y-60449118D01*
X163530142Y-60016012D01*
X163097036Y-59726621D01*
X162586154Y-59625000D01*
X162533846Y-59625000D01*
X162022964Y-59726621D01*
X161589858Y-60016012D01*
X161300467Y-60449118D01*
X161198846Y-60960000D01*
X161300467Y-61470882D01*
X161589858Y-61903988D01*
X161800000Y-62044400D01*
X161800000Y-64770000D01*
X161857852Y-65060839D01*
X162022599Y-65307401D01*
X165832599Y-69117401D01*
X166079161Y-69282148D01*
X166370000Y-69340000D01*
X166712909Y-69340000D01*
X166368355Y-69718076D01*
X166198524Y-70128110D01*
X166319845Y-70358000D01*
X167513000Y-70358000D01*
X167513000Y-70338000D01*
X167767000Y-70338000D01*
X167767000Y-70358000D01*
X167787000Y-70358000D01*
X167787000Y-70612000D01*
X167767000Y-70612000D01*
X167767000Y-72898000D01*
X167787000Y-72898000D01*
X167787000Y-73152000D01*
X167767000Y-73152000D01*
X167767000Y-74351250D01*
X167925750Y-74510000D01*
X168616309Y-74510000D01*
X168849698Y-74413327D01*
X169028327Y-74234699D01*
X169096903Y-74069142D01*
X169100853Y-74075054D01*
X169582622Y-74396961D01*
X170150907Y-74510000D01*
X170209093Y-74510000D01*
X170777378Y-74396961D01*
X171259147Y-74075054D01*
X171581054Y-73593285D01*
X171694093Y-73025000D01*
X171627076Y-72688082D01*
X175667560Y-68647598D01*
X175667560Y-69430000D01*
X175711838Y-69665317D01*
X175850910Y-69881441D01*
X176063110Y-70026431D01*
X176130541Y-70040086D01*
X176085853Y-70069946D01*
X175763946Y-70551715D01*
X175650907Y-71120000D01*
X175763946Y-71688285D01*
X176085853Y-72170054D01*
X176415026Y-72390000D01*
X176085853Y-72609946D01*
X175763946Y-73091715D01*
X175650907Y-73660000D01*
X175763946Y-74228285D01*
X176085853Y-74710054D01*
X176415026Y-74930000D01*
X176085853Y-75149946D01*
X175763946Y-75631715D01*
X175650907Y-76200000D01*
X175763946Y-76768285D01*
X176085853Y-77250054D01*
X176415026Y-77470000D01*
X176085853Y-77689946D01*
X175763946Y-78171715D01*
X175650907Y-78740000D01*
X175763946Y-79308285D01*
X176085853Y-79790054D01*
X176426553Y-80017702D01*
X176283642Y-80084817D01*
X175893355Y-80513076D01*
X175723524Y-80923110D01*
X175844845Y-81153000D01*
X177038000Y-81153000D01*
X177038000Y-81133000D01*
X177292000Y-81133000D01*
X177292000Y-81153000D01*
X178485155Y-81153000D01*
X178606476Y-80923110D01*
X178436645Y-80513076D01*
X178046358Y-80084817D01*
X177903447Y-80017702D01*
X178244147Y-79790054D01*
X178566054Y-79308285D01*
X178679093Y-78740000D01*
X178566054Y-78171715D01*
X178244147Y-77689946D01*
X177914974Y-77470000D01*
X178244147Y-77250054D01*
X178566054Y-76768285D01*
X178679093Y-76200000D01*
X178566054Y-75631715D01*
X178244147Y-75149946D01*
X177914974Y-74930000D01*
X178244147Y-74710054D01*
X178566054Y-74228285D01*
X178679093Y-73660000D01*
X178566054Y-73091715D01*
X178244147Y-72609946D01*
X177914974Y-72390000D01*
X178244147Y-72170054D01*
X178566054Y-71688285D01*
X178679093Y-71120000D01*
X178566054Y-70551715D01*
X178244147Y-70069946D01*
X178202548Y-70042150D01*
X178250317Y-70033162D01*
X178466441Y-69894090D01*
X178611431Y-69681890D01*
X178662440Y-69430000D01*
X178662440Y-68012598D01*
X178920000Y-68270158D01*
X178920000Y-69850000D01*
X178979755Y-70150407D01*
X179149921Y-70405079D01*
X182730000Y-73985158D01*
X182730000Y-104542111D01*
X182510000Y-104497560D01*
X181314139Y-104497560D01*
X180590000Y-103773420D01*
X180590000Y-88900000D01*
X180522633Y-88561325D01*
X180330790Y-88274210D01*
X180330787Y-88274208D01*
X178635539Y-86578960D01*
X178679093Y-86360000D01*
X178566054Y-85791715D01*
X178244147Y-85309946D01*
X177903447Y-85082298D01*
X178046358Y-85015183D01*
X178436645Y-84586924D01*
X178606476Y-84176890D01*
X178485155Y-83947000D01*
X177292000Y-83947000D01*
X177292000Y-83967000D01*
X177038000Y-83967000D01*
X177038000Y-83947000D01*
X175844845Y-83947000D01*
X175723524Y-84176890D01*
X175893355Y-84586924D01*
X176283642Y-85015183D01*
X176426553Y-85082298D01*
X176085853Y-85309946D01*
X175892046Y-85600000D01*
X175574802Y-85600000D01*
X175162401Y-85187599D01*
X174915839Y-85022852D01*
X174625000Y-84965000D01*
X174304802Y-84965000D01*
X173892401Y-84552599D01*
X173645839Y-84387852D01*
X173355000Y-84330000D01*
X170494802Y-84330000D01*
X169087547Y-82922745D01*
X171176861Y-82922745D01*
X171250995Y-83168864D01*
X171788223Y-83361965D01*
X172358454Y-83334778D01*
X172759005Y-83168864D01*
X172833139Y-82922745D01*
X172005000Y-82094605D01*
X171176861Y-82922745D01*
X169087547Y-82922745D01*
X168418256Y-82253454D01*
X168439750Y-82201691D01*
X168440189Y-81698223D01*
X170558035Y-81698223D01*
X170585222Y-82268454D01*
X170751136Y-82669005D01*
X170997255Y-82743139D01*
X171825395Y-81915000D01*
X172184605Y-81915000D01*
X173012745Y-82743139D01*
X173258864Y-82669005D01*
X173451965Y-82131777D01*
X173428371Y-81636890D01*
X175723524Y-81636890D01*
X175893355Y-82046924D01*
X176283642Y-82475183D01*
X176442954Y-82550000D01*
X176283642Y-82624817D01*
X175893355Y-83053076D01*
X175723524Y-83463110D01*
X175844845Y-83693000D01*
X177038000Y-83693000D01*
X177038000Y-81407000D01*
X177292000Y-81407000D01*
X177292000Y-83693000D01*
X178485155Y-83693000D01*
X178606476Y-83463110D01*
X178436645Y-83053076D01*
X178046358Y-82624817D01*
X177887046Y-82550000D01*
X178046358Y-82475183D01*
X178436645Y-82046924D01*
X178606476Y-81636890D01*
X178485155Y-81407000D01*
X177292000Y-81407000D01*
X177038000Y-81407000D01*
X175844845Y-81407000D01*
X175723524Y-81636890D01*
X173428371Y-81636890D01*
X173424778Y-81561546D01*
X173258864Y-81160995D01*
X173012745Y-81086861D01*
X172184605Y-81915000D01*
X171825395Y-81915000D01*
X170997255Y-81086861D01*
X170751136Y-81160995D01*
X170558035Y-81698223D01*
X168440189Y-81698223D01*
X168440248Y-81630813D01*
X168222243Y-81103200D01*
X168026640Y-80907255D01*
X171176861Y-80907255D01*
X172005000Y-81735395D01*
X172833139Y-80907255D01*
X172759005Y-80661136D01*
X172221777Y-80468035D01*
X171651546Y-80495222D01*
X171250995Y-80661136D01*
X171176861Y-80907255D01*
X168026640Y-80907255D01*
X167890000Y-80770377D01*
X167890000Y-75565000D01*
X167822633Y-75226325D01*
X167630790Y-74939210D01*
X167630787Y-74939208D01*
X167201579Y-74510000D01*
X167354250Y-74510000D01*
X167513000Y-74351250D01*
X167513000Y-73152000D01*
X166313750Y-73152000D01*
X166155000Y-73310750D01*
X166155000Y-73463421D01*
X164740270Y-72048690D01*
X166155000Y-72048690D01*
X166155000Y-72739250D01*
X166313750Y-72898000D01*
X167513000Y-72898000D01*
X167513000Y-70612000D01*
X166319845Y-70612000D01*
X166198524Y-70841890D01*
X166368355Y-71251924D01*
X166639878Y-71549864D01*
X166430302Y-71636673D01*
X166251673Y-71815301D01*
X166155000Y-72048690D01*
X164740270Y-72048690D01*
X162242485Y-69550905D01*
X162243050Y-68903724D01*
X161760704Y-67736357D01*
X160868341Y-66842435D01*
X159701817Y-66358052D01*
X158438724Y-66356950D01*
X157271357Y-66839296D01*
X156377435Y-67731659D01*
X155997145Y-68647500D01*
X150087440Y-68647500D01*
X150087440Y-67095000D01*
X150043162Y-66859683D01*
X149904090Y-66643559D01*
X149691890Y-66498569D01*
X149624459Y-66484914D01*
X149669147Y-66455054D01*
X149991054Y-65973285D01*
X150104093Y-65405000D01*
X149991054Y-64836715D01*
X149669147Y-64354946D01*
X149339974Y-64135000D01*
X149669147Y-63915054D01*
X149991054Y-63433285D01*
X150104093Y-62865000D01*
X149991054Y-62296715D01*
X149669147Y-61814946D01*
X149339974Y-61595000D01*
X149669147Y-61375054D01*
X149991054Y-60893285D01*
X150104093Y-60325000D01*
X149991054Y-59756715D01*
X149669147Y-59274946D01*
X149339974Y-59055000D01*
X149669147Y-58835054D01*
X149991054Y-58353285D01*
X150104093Y-57785000D01*
X150038252Y-57453991D01*
X153404735Y-57453991D01*
X153637932Y-58018371D01*
X154069357Y-58450551D01*
X154180000Y-58496494D01*
X154180000Y-59832345D01*
X153808902Y-60202796D01*
X153605232Y-60693287D01*
X153604769Y-61224383D01*
X153807582Y-61715229D01*
X154182796Y-62091098D01*
X154673287Y-62294768D01*
X155204383Y-62295231D01*
X155695229Y-62092418D01*
X156071098Y-61717204D01*
X156274768Y-61226713D01*
X156275231Y-60695617D01*
X156072418Y-60204771D01*
X155700000Y-59831703D01*
X155700000Y-58496846D01*
X155808371Y-58452068D01*
X155985841Y-58274908D01*
X156041673Y-58409699D01*
X156220302Y-58588327D01*
X156453691Y-58685000D01*
X157194250Y-58685000D01*
X157353000Y-58526250D01*
X157353000Y-57277000D01*
X157607000Y-57277000D01*
X157607000Y-58526250D01*
X157765750Y-58685000D01*
X158506309Y-58685000D01*
X158739698Y-58588327D01*
X158918327Y-58409699D01*
X159015000Y-58176310D01*
X159015000Y-57435750D01*
X158856250Y-57277000D01*
X157607000Y-57277000D01*
X157353000Y-57277000D01*
X157333000Y-57277000D01*
X157333000Y-57023000D01*
X157353000Y-57023000D01*
X157353000Y-55773750D01*
X157607000Y-55773750D01*
X157607000Y-57023000D01*
X158856250Y-57023000D01*
X159015000Y-56864250D01*
X159015000Y-56123690D01*
X158918327Y-55890301D01*
X158739698Y-55711673D01*
X158506309Y-55615000D01*
X157765750Y-55615000D01*
X157607000Y-55773750D01*
X157353000Y-55773750D01*
X157194250Y-55615000D01*
X156453691Y-55615000D01*
X156220302Y-55711673D01*
X156041673Y-55890301D01*
X155985881Y-56024994D01*
X155810643Y-55849449D01*
X155246670Y-55615267D01*
X154636009Y-55614735D01*
X154071629Y-55847932D01*
X153639449Y-56279357D01*
X153405267Y-56843330D01*
X153404735Y-57453991D01*
X150038252Y-57453991D01*
X149991054Y-57216715D01*
X149669147Y-56734946D01*
X149339974Y-56515000D01*
X149669147Y-56295054D01*
X149991054Y-55813285D01*
X150104093Y-55245000D01*
X149991054Y-54676715D01*
X149669147Y-54194946D01*
X149187378Y-53873039D01*
X148619093Y-53760000D01*
X148560907Y-53760000D01*
X147992622Y-53873039D01*
X147510853Y-54194946D01*
X147188946Y-54676715D01*
X147075907Y-55245000D01*
X147188946Y-55813285D01*
X147510853Y-56295054D01*
X147840026Y-56515000D01*
X147510853Y-56734946D01*
X147188946Y-57216715D01*
X147075907Y-57785000D01*
X147188946Y-58353285D01*
X147510853Y-58835054D01*
X147840026Y-59055000D01*
X147510853Y-59274946D01*
X147188946Y-59756715D01*
X147075907Y-60325000D01*
X147188946Y-60893285D01*
X147510853Y-61375054D01*
X147840026Y-61595000D01*
X147510853Y-61814946D01*
X147188946Y-62296715D01*
X147075907Y-62865000D01*
X147188946Y-63433285D01*
X147510853Y-63915054D01*
X147840026Y-64135000D01*
X147510853Y-64354946D01*
X147188946Y-64836715D01*
X147075907Y-65405000D01*
X147188946Y-65973285D01*
X147510853Y-66455054D01*
X147552452Y-66482850D01*
X147504683Y-66491838D01*
X147288559Y-66630910D01*
X147143569Y-66843110D01*
X147092560Y-67095000D01*
X147092560Y-68647500D01*
X146734079Y-68647500D01*
X140325790Y-62239210D01*
X140038675Y-62047367D01*
X139982484Y-62036190D01*
X139700000Y-61979999D01*
X139699995Y-61980000D01*
X127000005Y-61980000D01*
X127000000Y-61979999D01*
X126717516Y-62036190D01*
X126661325Y-62047367D01*
X126374210Y-62239210D01*
X126374208Y-62239213D01*
X125090860Y-63522560D01*
X123610000Y-63522560D01*
X123374683Y-63566838D01*
X123158559Y-63705910D01*
X123013569Y-63918110D01*
X123013150Y-63920178D01*
X122851325Y-63952367D01*
X122564210Y-64144210D01*
X122564208Y-64144213D01*
X120024210Y-66684210D01*
X119832367Y-66971325D01*
X119832367Y-66971326D01*
X119764999Y-67310000D01*
X119765000Y-67310005D01*
X119765000Y-77884146D01*
X119564683Y-77921838D01*
X119348559Y-78060910D01*
X119203569Y-78273110D01*
X119152560Y-78525000D01*
X119152560Y-80225000D01*
X119196838Y-80460317D01*
X119317015Y-80647077D01*
X119203569Y-80813110D01*
X119152560Y-81065000D01*
X119152560Y-82765000D01*
X119196838Y-83000317D01*
X119335910Y-83216441D01*
X119548110Y-83361431D01*
X119800000Y-83412440D01*
X120895860Y-83412440D01*
X121929208Y-84445787D01*
X121929210Y-84445790D01*
X122216325Y-84637633D01*
X122272516Y-84648810D01*
X122555000Y-84705001D01*
X122555005Y-84705000D01*
X123824995Y-84705000D01*
X123825000Y-84705001D01*
X123825005Y-84705000D01*
X125998420Y-84705000D01*
X126374208Y-85080787D01*
X126374210Y-85080790D01*
X126534062Y-85187599D01*
X126661326Y-85272634D01*
X127000000Y-85340001D01*
X127000005Y-85340000D01*
X127441986Y-85340000D01*
X127407560Y-85510000D01*
X127407560Y-87210000D01*
X127451838Y-87445317D01*
X127590910Y-87661441D01*
X127803110Y-87806431D01*
X127870541Y-87820086D01*
X127825853Y-87849946D01*
X127503946Y-88331715D01*
X127390907Y-88900000D01*
X127503946Y-89468285D01*
X127825853Y-89950054D01*
X128155026Y-90170000D01*
X127825853Y-90389946D01*
X127503946Y-90871715D01*
X127390907Y-91440000D01*
X127503946Y-92008285D01*
X127825853Y-92490054D01*
X128155026Y-92710000D01*
X127825853Y-92929946D01*
X127503946Y-93411715D01*
X127390907Y-93980000D01*
X127503946Y-94548285D01*
X127528478Y-94585000D01*
X125688059Y-94585000D01*
X125630870Y-94499410D01*
X125669699Y-94483327D01*
X125848327Y-94304698D01*
X125945000Y-94071309D01*
X125945000Y-93630750D01*
X125786250Y-93472000D01*
X124587000Y-93472000D01*
X124587000Y-93492000D01*
X124333000Y-93492000D01*
X124333000Y-93472000D01*
X123133750Y-93472000D01*
X122975000Y-93630750D01*
X122975000Y-94071309D01*
X123071673Y-94304698D01*
X123250301Y-94483327D01*
X123289130Y-94499410D01*
X123039916Y-94872386D01*
X122945907Y-95345000D01*
X123039916Y-95817614D01*
X123307630Y-96218277D01*
X123708293Y-96485991D01*
X124180907Y-96580000D01*
X124739093Y-96580000D01*
X125211707Y-96485991D01*
X125612370Y-96218277D01*
X125688059Y-96105000D01*
X127415198Y-96105000D01*
X127463790Y-96153592D01*
X127390907Y-96520000D01*
X127503946Y-97088285D01*
X127825853Y-97570054D01*
X128155026Y-97790000D01*
X127825853Y-98009946D01*
X127503946Y-98491715D01*
X127390907Y-99060000D01*
X127463790Y-99426408D01*
X125945000Y-100945198D01*
X125945000Y-100615750D01*
X125786250Y-100457000D01*
X124587000Y-100457000D01*
X124587000Y-100477000D01*
X124333000Y-100477000D01*
X124333000Y-100457000D01*
X123133750Y-100457000D01*
X122975000Y-100615750D01*
X122975000Y-101056309D01*
X123071673Y-101289698D01*
X123250301Y-101468327D01*
X123289130Y-101484410D01*
X123039916Y-101857386D01*
X122945907Y-102330000D01*
X123039916Y-102802614D01*
X123307630Y-103203277D01*
X123708293Y-103470991D01*
X124180907Y-103565000D01*
X124739093Y-103565000D01*
X125211707Y-103470991D01*
X125612370Y-103203277D01*
X125696192Y-103077828D01*
X125925839Y-103032148D01*
X126172401Y-102867401D01*
X127399019Y-101640783D01*
X127503946Y-102168285D01*
X127825853Y-102650054D01*
X128155026Y-102870000D01*
X127825853Y-103089946D01*
X127503946Y-103571715D01*
X127390907Y-104140000D01*
X127503946Y-104708285D01*
X127825853Y-105190054D01*
X128307622Y-105511961D01*
X128875907Y-105625000D01*
X128934093Y-105625000D01*
X129502378Y-105511961D01*
X129984147Y-105190054D01*
X130306054Y-104708285D01*
X130419093Y-104140000D01*
X130306054Y-103571715D01*
X129984147Y-103089946D01*
X129654974Y-102870000D01*
X129984147Y-102650054D01*
X130306054Y-102168285D01*
X130419093Y-101600000D01*
X130306054Y-101031715D01*
X129984147Y-100549946D01*
X129654974Y-100330000D01*
X129984147Y-100110054D01*
X130306054Y-99628285D01*
X130419093Y-99060000D01*
X130306054Y-98491715D01*
X129984147Y-98009946D01*
X129654974Y-97790000D01*
X129984147Y-97570054D01*
X130306054Y-97088285D01*
X130419093Y-96520000D01*
X130306054Y-95951715D01*
X129984147Y-95469946D01*
X129654974Y-95250000D01*
X129984147Y-95030054D01*
X130306054Y-94548285D01*
X130419093Y-93980000D01*
X130306054Y-93411715D01*
X129984147Y-92929946D01*
X129654974Y-92710000D01*
X129984147Y-92490054D01*
X130306054Y-92008285D01*
X130419093Y-91440000D01*
X130306054Y-90871715D01*
X129984147Y-90389946D01*
X129654974Y-90170000D01*
X129984147Y-89950054D01*
X130306054Y-89468285D01*
X130419093Y-88900000D01*
X130306054Y-88331715D01*
X129984147Y-87849946D01*
X129942548Y-87822150D01*
X129990317Y-87813162D01*
X130206441Y-87674090D01*
X130351431Y-87461890D01*
X130402440Y-87210000D01*
X130402440Y-85510000D01*
X130370452Y-85340000D01*
X135523420Y-85340000D01*
X156271119Y-106087698D01*
X155893052Y-106998183D01*
X155891950Y-108261276D01*
X156374296Y-109428643D01*
X157266659Y-110322565D01*
X158433183Y-110806948D01*
X159696276Y-110808050D01*
X160863643Y-110325704D01*
X161072456Y-110117255D01*
X166891861Y-110117255D01*
X167720000Y-110945395D01*
X168548139Y-110117255D01*
X168474005Y-109871136D01*
X167936777Y-109678035D01*
X167366546Y-109705222D01*
X166965995Y-109871136D01*
X166891861Y-110117255D01*
X161072456Y-110117255D01*
X161757565Y-109433341D01*
X162218724Y-108322745D01*
X166891861Y-108322745D01*
X166965995Y-108568864D01*
X167503223Y-108761965D01*
X168073454Y-108734778D01*
X168474005Y-108568864D01*
X168548139Y-108322745D01*
X167720000Y-107494605D01*
X166891861Y-108322745D01*
X162218724Y-108322745D01*
X162241948Y-108266817D01*
X162242967Y-107098223D01*
X166273035Y-107098223D01*
X166300222Y-107668454D01*
X166466136Y-108069005D01*
X166712255Y-108143139D01*
X167540395Y-107315000D01*
X167899605Y-107315000D01*
X168727745Y-108143139D01*
X168973864Y-108069005D01*
X169142735Y-107599187D01*
X171284752Y-107599187D01*
X171502757Y-108126800D01*
X171906077Y-108530824D01*
X172433309Y-108749750D01*
X173004187Y-108750248D01*
X173531800Y-108532243D01*
X173935824Y-108128923D01*
X174154750Y-107601691D01*
X174155248Y-107030813D01*
X173937243Y-106503200D01*
X173533923Y-106099176D01*
X173006691Y-105880250D01*
X172435813Y-105879752D01*
X171908200Y-106097757D01*
X171504176Y-106501077D01*
X171285250Y-107028309D01*
X171284752Y-107599187D01*
X169142735Y-107599187D01*
X169166965Y-107531777D01*
X169139778Y-106961546D01*
X168973864Y-106560995D01*
X168727745Y-106486861D01*
X167899605Y-107315000D01*
X167540395Y-107315000D01*
X166712255Y-106486861D01*
X166466136Y-106560995D01*
X166273035Y-107098223D01*
X162242967Y-107098223D01*
X162243050Y-107003724D01*
X161955276Y-106307255D01*
X166891861Y-106307255D01*
X167720000Y-107135395D01*
X168548139Y-106307255D01*
X168474005Y-106061136D01*
X167936777Y-105868035D01*
X167366546Y-105895222D01*
X166965995Y-106061136D01*
X166891861Y-106307255D01*
X161955276Y-106307255D01*
X161760704Y-105836357D01*
X160868341Y-104942435D01*
X159701817Y-104458052D01*
X158438724Y-104456950D01*
X157522220Y-104835641D01*
X153327856Y-100641276D01*
X155891950Y-100641276D01*
X156374296Y-101808643D01*
X157266659Y-102702565D01*
X158433183Y-103186948D01*
X159696276Y-103188050D01*
X160863643Y-102705704D01*
X161757565Y-101813341D01*
X162241948Y-100646817D01*
X162243050Y-99383724D01*
X161760704Y-98216357D01*
X160868341Y-97322435D01*
X159701817Y-96838052D01*
X158438724Y-96836950D01*
X157271357Y-97319296D01*
X156377435Y-98211659D01*
X155893052Y-99378183D01*
X155891950Y-100641276D01*
X153327856Y-100641276D01*
X147343824Y-94657244D01*
X156982362Y-94657244D01*
X157268931Y-95084084D01*
X158435863Y-95567482D01*
X159698957Y-95567518D01*
X160865917Y-95084185D01*
X160866069Y-95084084D01*
X161152638Y-94657244D01*
X159067500Y-92572105D01*
X156982362Y-94657244D01*
X147343824Y-94657244D01*
X145710537Y-93023957D01*
X155892482Y-93023957D01*
X156375815Y-94190917D01*
X156375916Y-94191069D01*
X156802756Y-94477638D01*
X158887895Y-92392500D01*
X159247105Y-92392500D01*
X161332244Y-94477638D01*
X161759084Y-94191069D01*
X162242482Y-93024137D01*
X162242518Y-91761043D01*
X161759185Y-90594083D01*
X161759084Y-90593931D01*
X161332244Y-90307362D01*
X159247105Y-92392500D01*
X158887895Y-92392500D01*
X156802756Y-90307362D01*
X156375916Y-90593931D01*
X155892518Y-91760863D01*
X155892482Y-93023957D01*
X145710537Y-93023957D01*
X142814336Y-90127756D01*
X156982362Y-90127756D01*
X159067500Y-92212895D01*
X161152638Y-90127756D01*
X160866069Y-89700916D01*
X159699137Y-89217518D01*
X158436043Y-89217482D01*
X157269083Y-89700815D01*
X157268931Y-89700916D01*
X156982362Y-90127756D01*
X142814336Y-90127756D01*
X136515790Y-83829210D01*
X136502006Y-83820000D01*
X136228675Y-83637367D01*
X136172484Y-83626190D01*
X135890000Y-83569999D01*
X135889995Y-83570000D01*
X130004228Y-83570000D01*
X130306054Y-83118285D01*
X130419093Y-82550000D01*
X130306054Y-81981715D01*
X129984147Y-81499946D01*
X129654974Y-81280000D01*
X129984147Y-81060054D01*
X130306054Y-80578285D01*
X130419093Y-80010000D01*
X130306054Y-79441715D01*
X130289704Y-79417244D01*
X156982362Y-79417244D01*
X157268931Y-79844084D01*
X158435863Y-80327482D01*
X159698957Y-80327518D01*
X160865917Y-79844185D01*
X160866069Y-79844084D01*
X161152638Y-79417244D01*
X159067500Y-77332105D01*
X156982362Y-79417244D01*
X130289704Y-79417244D01*
X129984147Y-78959946D01*
X129654974Y-78740000D01*
X129984147Y-78520054D01*
X130306054Y-78038285D01*
X130356643Y-77783957D01*
X155892482Y-77783957D01*
X156375815Y-78950917D01*
X156375916Y-78951069D01*
X156802756Y-79237638D01*
X158887895Y-77152500D01*
X159247105Y-77152500D01*
X161332244Y-79237638D01*
X161759084Y-78951069D01*
X162242482Y-77784137D01*
X162242518Y-76521043D01*
X161759185Y-75354083D01*
X161759084Y-75353931D01*
X161332244Y-75067362D01*
X159247105Y-77152500D01*
X158887895Y-77152500D01*
X156802756Y-75067362D01*
X156375916Y-75353931D01*
X155892518Y-76520863D01*
X155892482Y-77783957D01*
X130356643Y-77783957D01*
X130419093Y-77470000D01*
X130306054Y-76901715D01*
X129984147Y-76419946D01*
X129654974Y-76200000D01*
X129984147Y-75980054D01*
X130306054Y-75498285D01*
X130419093Y-74930000D01*
X130410691Y-74887756D01*
X156982362Y-74887756D01*
X159067500Y-76972895D01*
X161152638Y-74887756D01*
X160866069Y-74460916D01*
X159699137Y-73977518D01*
X158436043Y-73977482D01*
X157269083Y-74460815D01*
X157268931Y-74460916D01*
X156982362Y-74887756D01*
X130410691Y-74887756D01*
X130306054Y-74361715D01*
X129984147Y-73879946D01*
X129654974Y-73660000D01*
X129984147Y-73440054D01*
X130306054Y-72958285D01*
X130419093Y-72390000D01*
X130306054Y-71821715D01*
X129984147Y-71339946D01*
X129654974Y-71120000D01*
X129984147Y-70900054D01*
X130306054Y-70418285D01*
X130419093Y-69850000D01*
X130306054Y-69281715D01*
X129984147Y-68799946D01*
X129643447Y-68572298D01*
X129786358Y-68505183D01*
X130176645Y-68076924D01*
X130346476Y-67666890D01*
X130225155Y-67437000D01*
X129032000Y-67437000D01*
X129032000Y-67457000D01*
X128778000Y-67457000D01*
X128778000Y-67437000D01*
X127584845Y-67437000D01*
X127463524Y-67666890D01*
X127633355Y-68076924D01*
X128023642Y-68505183D01*
X128166553Y-68572298D01*
X127825853Y-68799946D01*
X127503946Y-69281715D01*
X127390907Y-69850000D01*
X127503946Y-70418285D01*
X127825853Y-70900054D01*
X128155026Y-71120000D01*
X127825853Y-71339946D01*
X127503946Y-71821715D01*
X127390907Y-72390000D01*
X127503946Y-72958285D01*
X127825853Y-73440054D01*
X128155026Y-73660000D01*
X127825853Y-73879946D01*
X127503946Y-74361715D01*
X127390907Y-74930000D01*
X127503946Y-75498285D01*
X127825853Y-75980054D01*
X128155026Y-76200000D01*
X127825853Y-76419946D01*
X127503946Y-76901715D01*
X127390907Y-77470000D01*
X127503946Y-78038285D01*
X127825853Y-78520054D01*
X128155026Y-78740000D01*
X127825853Y-78959946D01*
X127503946Y-79441715D01*
X127390907Y-80010000D01*
X127503946Y-80578285D01*
X127825853Y-81060054D01*
X128155026Y-81280000D01*
X127825853Y-81499946D01*
X127503946Y-81981715D01*
X127390907Y-82550000D01*
X127503946Y-83118285D01*
X127805772Y-83570000D01*
X127366579Y-83570000D01*
X126990790Y-83194210D01*
X126898049Y-83132243D01*
X126703675Y-83002367D01*
X126647484Y-82991190D01*
X126365000Y-82934999D01*
X126364995Y-82935000D01*
X125961579Y-82935000D01*
X126990787Y-81905792D01*
X126990790Y-81905790D01*
X127182633Y-81618675D01*
X127250000Y-81280000D01*
X127250000Y-73025005D01*
X127250001Y-73025000D01*
X127182633Y-72686325D01*
X127131598Y-72609946D01*
X126990790Y-72399210D01*
X126990787Y-72399208D01*
X125957440Y-71365860D01*
X125957440Y-71155000D01*
X125913162Y-70919683D01*
X125774090Y-70703559D01*
X125561890Y-70558569D01*
X125310000Y-70507560D01*
X123610000Y-70507560D01*
X123374683Y-70551838D01*
X123158559Y-70690910D01*
X123013569Y-70903110D01*
X122962560Y-71155000D01*
X122962560Y-72355000D01*
X123006838Y-72590317D01*
X123145910Y-72806441D01*
X123291475Y-72905901D01*
X123039916Y-73282386D01*
X122945907Y-73755000D01*
X123039916Y-74227614D01*
X123307630Y-74628277D01*
X123575000Y-74806928D01*
X123575000Y-76834995D01*
X123574999Y-76835000D01*
X123602429Y-76972895D01*
X123642367Y-77173675D01*
X123748226Y-77332105D01*
X123834210Y-77460790D01*
X124210000Y-77836579D01*
X124210000Y-78333992D01*
X123956924Y-78103355D01*
X123546890Y-77933524D01*
X123317000Y-78054845D01*
X123317000Y-79248000D01*
X123337000Y-79248000D01*
X123337000Y-79502000D01*
X123317000Y-79502000D01*
X123317000Y-79522000D01*
X123063000Y-79522000D01*
X123063000Y-79502000D01*
X123043000Y-79502000D01*
X123043000Y-79248000D01*
X123063000Y-79248000D01*
X123063000Y-78054845D01*
X122833110Y-77933524D01*
X122423076Y-78103355D01*
X122120063Y-78379501D01*
X122103162Y-78289683D01*
X121964090Y-78073559D01*
X121751890Y-77928569D01*
X121535000Y-77884648D01*
X121535000Y-67676580D01*
X122123970Y-67087609D01*
X123016538Y-67087609D01*
X123031714Y-67179376D01*
X123278067Y-67599125D01*
X123666299Y-67892647D01*
X124137304Y-68015256D01*
X124333000Y-67852547D01*
X124333000Y-66897000D01*
X124587000Y-66897000D01*
X124587000Y-67852547D01*
X124782696Y-68015256D01*
X125253701Y-67892647D01*
X125641933Y-67599125D01*
X125888286Y-67179376D01*
X125903462Y-67087609D01*
X125778731Y-66897000D01*
X124587000Y-66897000D01*
X124333000Y-66897000D01*
X123141269Y-66897000D01*
X123016538Y-67087609D01*
X122123970Y-67087609D01*
X123291001Y-65920578D01*
X123298309Y-65925571D01*
X123278067Y-65940875D01*
X123031714Y-66360624D01*
X123016538Y-66452391D01*
X123141269Y-66643000D01*
X124333000Y-66643000D01*
X124333000Y-66623000D01*
X124587000Y-66623000D01*
X124587000Y-66643000D01*
X125778731Y-66643000D01*
X125903462Y-66452391D01*
X125888286Y-66360624D01*
X125641933Y-65940875D01*
X125620580Y-65924731D01*
X125761441Y-65834090D01*
X125906431Y-65621890D01*
X125957440Y-65370000D01*
X125957440Y-65159140D01*
X127366579Y-63750000D01*
X127441986Y-63750000D01*
X127407560Y-63920000D01*
X127407560Y-65620000D01*
X127451838Y-65855317D01*
X127590910Y-66071441D01*
X127803110Y-66216431D01*
X127911107Y-66238301D01*
X127633355Y-66543076D01*
X127463524Y-66953110D01*
X127584845Y-67183000D01*
X128778000Y-67183000D01*
X128778000Y-67163000D01*
X129032000Y-67163000D01*
X129032000Y-67183000D01*
X130225155Y-67183000D01*
X130346476Y-66953110D01*
X130176645Y-66543076D01*
X129900499Y-66240063D01*
X129990317Y-66223162D01*
X130206441Y-66084090D01*
X130351431Y-65871890D01*
X130402440Y-65620000D01*
X130402440Y-63920000D01*
X130370452Y-63750000D01*
X139333420Y-63750000D01*
X145741708Y-70158287D01*
X145741710Y-70158290D01*
X146028825Y-70350133D01*
X146068375Y-70358000D01*
X146367500Y-70417501D01*
X146367505Y-70417500D01*
X155997820Y-70417500D01*
X156374296Y-71328643D01*
X157266659Y-72222565D01*
X158433183Y-72706948D01*
X159696276Y-72708050D01*
X160863643Y-72225704D01*
X161639560Y-71451140D01*
X166120000Y-75931579D01*
X166120000Y-80770829D01*
X165789176Y-81101077D01*
X165570250Y-81628309D01*
X165569840Y-82098581D01*
X163780920Y-83887500D01*
X162877505Y-83887500D01*
X162877500Y-83887499D01*
X162877495Y-83887500D01*
X162137180Y-83887500D01*
X161760704Y-82976357D01*
X160868341Y-82082435D01*
X159701817Y-81598052D01*
X158438724Y-81596950D01*
X157271357Y-82079296D01*
X156377435Y-82971659D01*
X155893052Y-84138183D01*
X155891950Y-85401276D01*
X156374296Y-86568643D01*
X157266659Y-87462565D01*
X158433183Y-87946948D01*
X159696276Y-87948050D01*
X160863643Y-87465704D01*
X161757565Y-86573341D01*
X162137855Y-85657500D01*
X162510920Y-85657500D01*
X163580000Y-86726579D01*
X163580000Y-94764856D01*
X163422189Y-94870302D01*
X163111120Y-95335849D01*
X163001887Y-95885000D01*
X163111120Y-96434151D01*
X163422189Y-96899698D01*
X163887736Y-97210767D01*
X164436887Y-97320000D01*
X164493113Y-97320000D01*
X165042264Y-97210767D01*
X165507811Y-96899698D01*
X165818880Y-96434151D01*
X165928113Y-95885000D01*
X165818880Y-95335849D01*
X165507811Y-94870302D01*
X165350000Y-94764856D01*
X165350000Y-90540000D01*
X170537560Y-90540000D01*
X170537560Y-92340000D01*
X170581838Y-92575317D01*
X170720910Y-92791441D01*
X170933110Y-92936431D01*
X171185000Y-92987440D01*
X171200000Y-92987440D01*
X171200000Y-94740829D01*
X170869176Y-95071077D01*
X170650250Y-95598309D01*
X170649752Y-96169187D01*
X170867757Y-96696800D01*
X171271077Y-97100824D01*
X171798309Y-97319750D01*
X172369187Y-97320248D01*
X172896800Y-97102243D01*
X173300824Y-96698923D01*
X173519750Y-96171691D01*
X173520248Y-95600813D01*
X173302243Y-95073200D01*
X172970000Y-94740377D01*
X172970000Y-92987440D01*
X172985000Y-92987440D01*
X173220317Y-92943162D01*
X173436441Y-92804090D01*
X173581431Y-92591890D01*
X173632440Y-92340000D01*
X173632440Y-90540000D01*
X173588162Y-90304683D01*
X173449090Y-90088559D01*
X173236890Y-89943569D01*
X173185854Y-89933234D01*
X173322966Y-89807576D01*
X173576046Y-89264742D01*
X173455997Y-89027000D01*
X172212000Y-89027000D01*
X172212000Y-89047000D01*
X171958000Y-89047000D01*
X171958000Y-89027000D01*
X170714003Y-89027000D01*
X170593954Y-89264742D01*
X170847034Y-89807576D01*
X170981538Y-89930844D01*
X170949683Y-89936838D01*
X170733559Y-90075910D01*
X170588569Y-90288110D01*
X170537560Y-90540000D01*
X165350000Y-90540000D01*
X165350000Y-86360005D01*
X165350001Y-86360000D01*
X165282633Y-86021326D01*
X165282633Y-86021325D01*
X165090790Y-85734210D01*
X165090787Y-85734208D01*
X164762248Y-85405668D01*
X164773290Y-85398290D01*
X166821739Y-83349840D01*
X167289187Y-83350248D01*
X167343149Y-83327951D01*
X169642599Y-85627401D01*
X169889161Y-85792148D01*
X170180000Y-85850000D01*
X170645464Y-85850000D01*
X170550000Y-86329928D01*
X170550000Y-86390072D01*
X170666845Y-86977491D01*
X170999591Y-87475481D01*
X171237582Y-87634501D01*
X170847034Y-87992424D01*
X170593954Y-88535258D01*
X170714003Y-88773000D01*
X171958000Y-88773000D01*
X171958000Y-88753000D01*
X172212000Y-88753000D01*
X172212000Y-88773000D01*
X173455997Y-88773000D01*
X173576046Y-88535258D01*
X173322966Y-87992424D01*
X172932418Y-87634501D01*
X173170409Y-87475481D01*
X173246478Y-87361636D01*
X174475000Y-88590158D01*
X174475000Y-134929842D01*
X173199620Y-136205222D01*
X172853729Y-135890000D01*
X173280183Y-135501358D01*
X173526486Y-134976892D01*
X173405819Y-134747000D01*
X172212000Y-134747000D01*
X172212000Y-137033000D01*
X172232000Y-137033000D01*
X172232000Y-137287000D01*
X172212000Y-137287000D01*
X172212000Y-137307000D01*
X171958000Y-137307000D01*
X171958000Y-137287000D01*
X171938000Y-137287000D01*
X171938000Y-137033000D01*
X171958000Y-137033000D01*
X171958000Y-134747000D01*
X171938000Y-134747000D01*
X171938000Y-134493000D01*
X171958000Y-134493000D01*
X171958000Y-134473000D01*
X172212000Y-134473000D01*
X172212000Y-134493000D01*
X173405819Y-134493000D01*
X173526486Y-134263108D01*
X173280183Y-133738642D01*
X172851924Y-133348355D01*
X172441890Y-133178524D01*
X172212002Y-133299844D01*
X172212002Y-133135000D01*
X172104802Y-133135000D01*
X172622401Y-132617401D01*
X172787148Y-132370840D01*
X172845000Y-132080000D01*
X172845000Y-131672440D01*
X172935000Y-131672440D01*
X173170317Y-131628162D01*
X173386441Y-131489090D01*
X173531431Y-131276890D01*
X173582440Y-131025000D01*
X173582440Y-129325000D01*
X173538162Y-129089683D01*
X173399090Y-128873559D01*
X173186890Y-128728569D01*
X172935000Y-128677560D01*
X171235000Y-128677560D01*
X170999683Y-128721838D01*
X170783559Y-128860910D01*
X170638569Y-129073110D01*
X170624914Y-129140541D01*
X170595054Y-129095853D01*
X170113285Y-128773946D01*
X169545000Y-128660907D01*
X168976715Y-128773946D01*
X168494946Y-129095853D01*
X168275000Y-129425026D01*
X168055054Y-129095853D01*
X167573285Y-128773946D01*
X167005000Y-128660907D01*
X166436715Y-128773946D01*
X165954946Y-129095853D01*
X165735000Y-129425026D01*
X165515054Y-129095853D01*
X165033285Y-128773946D01*
X164465000Y-128660907D01*
X163896715Y-128773946D01*
X163414946Y-129095853D01*
X163195000Y-129425026D01*
X162975054Y-129095853D01*
X162493285Y-128773946D01*
X161925000Y-128660907D01*
X161356715Y-128773946D01*
X160874946Y-129095853D01*
X160655000Y-129425026D01*
X160435054Y-129095853D01*
X159953285Y-128773946D01*
X159385000Y-128660907D01*
X158816715Y-128773946D01*
X158334946Y-129095853D01*
X158013039Y-129577622D01*
X157900000Y-130145907D01*
X157900000Y-130204093D01*
X158013039Y-130772378D01*
X158334946Y-131254147D01*
X158816715Y-131576054D01*
X159344217Y-131680981D01*
X159070198Y-131955000D01*
X135184802Y-131955000D01*
X138843632Y-128296170D01*
X139038846Y-128335000D01*
X139091154Y-128335000D01*
X139602036Y-128233379D01*
X140035142Y-127943988D01*
X140324533Y-127510882D01*
X140426154Y-127000000D01*
X140324708Y-126490000D01*
X163515198Y-126490000D01*
X164799878Y-127774680D01*
X164799838Y-127820167D01*
X164941883Y-128163943D01*
X165204673Y-128427192D01*
X165548201Y-128569838D01*
X165920167Y-128570162D01*
X166263943Y-128428117D01*
X166527192Y-128165327D01*
X166669838Y-127821799D01*
X166670162Y-127449833D01*
X166528117Y-127106057D01*
X166265327Y-126842808D01*
X165921799Y-126700162D01*
X165874923Y-126700121D01*
X164367401Y-125192599D01*
X164120839Y-125027852D01*
X163830000Y-124970000D01*
X140324708Y-124970000D01*
X140426154Y-124460000D01*
X140324708Y-123950000D01*
X162245198Y-123950000D01*
X162259878Y-123964680D01*
X162259838Y-124010167D01*
X162401883Y-124353943D01*
X162664673Y-124617192D01*
X163008201Y-124759838D01*
X163380167Y-124760162D01*
X163723943Y-124618117D01*
X163987192Y-124355327D01*
X164129838Y-124011799D01*
X164130162Y-123639833D01*
X163988117Y-123296057D01*
X163725327Y-123032808D01*
X163381799Y-122890162D01*
X163334923Y-122890121D01*
X163097401Y-122652599D01*
X162850839Y-122487852D01*
X162560000Y-122430000D01*
X132715000Y-122430000D01*
X132424160Y-122487852D01*
X132177599Y-122652599D01*
X131704972Y-123125226D01*
X131180617Y-123124769D01*
X130689771Y-123327582D01*
X130316703Y-123700000D01*
X130177954Y-123700000D01*
X129984147Y-123409946D01*
X129654974Y-123190000D01*
X129984147Y-122970054D01*
X130306054Y-122488285D01*
X130419093Y-121920000D01*
X130306054Y-121351715D01*
X129984147Y-120869946D01*
X129654974Y-120650000D01*
X129984147Y-120430054D01*
X130306054Y-119948285D01*
X130419093Y-119380000D01*
X130306054Y-118811715D01*
X130132932Y-118552619D01*
X133019613Y-118552619D01*
X133359155Y-119374372D01*
X133987321Y-120003636D01*
X134808481Y-120344611D01*
X135697619Y-120345387D01*
X136519372Y-120005845D01*
X137148636Y-119377679D01*
X137489611Y-118556519D01*
X137490387Y-117667381D01*
X137150845Y-116845628D01*
X136522679Y-116216364D01*
X135701519Y-115875389D01*
X134812381Y-115874613D01*
X133990628Y-116214155D01*
X133361364Y-116842321D01*
X133020389Y-117663481D01*
X133019613Y-118552619D01*
X130132932Y-118552619D01*
X129984147Y-118329946D01*
X129654974Y-118110000D01*
X129984147Y-117890054D01*
X130306054Y-117408285D01*
X130419093Y-116840000D01*
X130306054Y-116271715D01*
X129984147Y-115789946D01*
X129654974Y-115570000D01*
X129984147Y-115350054D01*
X130306054Y-114868285D01*
X130419093Y-114300000D01*
X130306054Y-113731715D01*
X129984147Y-113249946D01*
X129932097Y-113215167D01*
X131144838Y-113215167D01*
X131286883Y-113558943D01*
X131549673Y-113822192D01*
X131893201Y-113964838D01*
X132265167Y-113965162D01*
X132608943Y-113823117D01*
X132642118Y-113790000D01*
X161925000Y-113790000D01*
X162215839Y-113732148D01*
X162462401Y-113567401D01*
X163334680Y-112695122D01*
X163380167Y-112695162D01*
X163723943Y-112553117D01*
X163987192Y-112290327D01*
X164052626Y-112132745D01*
X166891861Y-112132745D01*
X166965995Y-112378864D01*
X167503223Y-112571965D01*
X168073454Y-112544778D01*
X168474005Y-112378864D01*
X168548139Y-112132745D01*
X167720000Y-111304605D01*
X166891861Y-112132745D01*
X164052626Y-112132745D01*
X164129838Y-111946799D01*
X164130162Y-111574833D01*
X163988117Y-111231057D01*
X163725327Y-110967808D01*
X163581832Y-110908223D01*
X166273035Y-110908223D01*
X166300222Y-111478454D01*
X166466136Y-111879005D01*
X166712255Y-111953139D01*
X167540395Y-111125000D01*
X167899605Y-111125000D01*
X168727745Y-111953139D01*
X168973864Y-111879005D01*
X169142735Y-111409187D01*
X171284752Y-111409187D01*
X171502757Y-111936800D01*
X171906077Y-112340824D01*
X172433309Y-112559750D01*
X173004187Y-112560248D01*
X173531800Y-112342243D01*
X173935824Y-111938923D01*
X174154750Y-111411691D01*
X174155248Y-110840813D01*
X173937243Y-110313200D01*
X173533923Y-109909176D01*
X173006691Y-109690250D01*
X172435813Y-109689752D01*
X171908200Y-109907757D01*
X171504176Y-110311077D01*
X171285250Y-110838309D01*
X171284752Y-111409187D01*
X169142735Y-111409187D01*
X169166965Y-111341777D01*
X169139778Y-110771546D01*
X168973864Y-110370995D01*
X168727745Y-110296861D01*
X167899605Y-111125000D01*
X167540395Y-111125000D01*
X166712255Y-110296861D01*
X166466136Y-110370995D01*
X166273035Y-110908223D01*
X163581832Y-110908223D01*
X163381799Y-110825162D01*
X163009833Y-110824838D01*
X162666057Y-110966883D01*
X162402808Y-111229673D01*
X162260162Y-111573201D01*
X162260121Y-111620077D01*
X161610198Y-112270000D01*
X132642463Y-112270000D01*
X132610327Y-112237808D01*
X132266799Y-112095162D01*
X131894833Y-112094838D01*
X131551057Y-112236883D01*
X131287808Y-112499673D01*
X131145162Y-112843201D01*
X131144838Y-113215167D01*
X129932097Y-113215167D01*
X129654974Y-113030000D01*
X129984147Y-112810054D01*
X130306054Y-112328285D01*
X130419093Y-111760000D01*
X130306054Y-111191715D01*
X129984147Y-110709946D01*
X129942548Y-110682150D01*
X129990317Y-110673162D01*
X130206441Y-110534090D01*
X130351431Y-110321890D01*
X130402440Y-110070000D01*
X130402440Y-108370000D01*
X130358162Y-108134683D01*
X130219090Y-107918559D01*
X130006890Y-107773569D01*
X129755000Y-107722560D01*
X128055000Y-107722560D01*
X127819683Y-107766838D01*
X127603559Y-107905910D01*
X127458569Y-108118110D01*
X127407560Y-108370000D01*
X127407560Y-110070000D01*
X127451838Y-110305317D01*
X127590910Y-110521441D01*
X127803110Y-110666431D01*
X127870541Y-110680086D01*
X127825853Y-110709946D01*
X127503946Y-111191715D01*
X127390907Y-111760000D01*
X127503946Y-112328285D01*
X127825853Y-112810054D01*
X128155026Y-113030000D01*
X127825853Y-113249946D01*
X127503946Y-113731715D01*
X127390907Y-114300000D01*
X127503946Y-114868285D01*
X127825853Y-115350054D01*
X128155026Y-115570000D01*
X127825853Y-115789946D01*
X127503946Y-116271715D01*
X127390907Y-116840000D01*
X127503946Y-117408285D01*
X127825853Y-117890054D01*
X128155026Y-118110000D01*
X127825853Y-118329946D01*
X127503946Y-118811715D01*
X127390907Y-119380000D01*
X127503946Y-119948285D01*
X127825853Y-120430054D01*
X128155026Y-120650000D01*
X127825853Y-120869946D01*
X127503946Y-121351715D01*
X127399019Y-121879217D01*
X127187401Y-121667599D01*
X126940839Y-121502852D01*
X126650000Y-121445000D01*
X125688059Y-121445000D01*
X125612370Y-121331723D01*
X125422715Y-121205000D01*
X125612370Y-121078277D01*
X125880084Y-120677614D01*
X125974093Y-120205000D01*
X125880084Y-119732386D01*
X125612370Y-119331723D01*
X125422715Y-119205000D01*
X125612370Y-119078277D01*
X125880084Y-118677614D01*
X125974093Y-118205000D01*
X125901210Y-117838592D01*
X126902401Y-116837401D01*
X127067148Y-116590839D01*
X127125000Y-116300000D01*
X127125000Y-111125000D01*
X127067148Y-110834161D01*
X126902401Y-110587599D01*
X125916971Y-109602169D01*
X125974093Y-109315000D01*
X125880084Y-108842386D01*
X125630870Y-108469410D01*
X125669699Y-108453327D01*
X125848327Y-108274698D01*
X125945000Y-108041309D01*
X125945000Y-107600750D01*
X125786250Y-107442000D01*
X124587000Y-107442000D01*
X124587000Y-107462000D01*
X124333000Y-107462000D01*
X124333000Y-107442000D01*
X123133750Y-107442000D01*
X122975000Y-107600750D01*
X122975000Y-108041309D01*
X123071673Y-108274698D01*
X123250301Y-108453327D01*
X123289130Y-108469410D01*
X123039916Y-108842386D01*
X122945907Y-109315000D01*
X123039916Y-109787614D01*
X123307630Y-110188277D01*
X123497285Y-110315000D01*
X123307630Y-110441723D01*
X123039916Y-110842386D01*
X122945907Y-111315000D01*
X123039916Y-111787614D01*
X123307630Y-112188277D01*
X123708293Y-112455991D01*
X124180907Y-112550000D01*
X124739093Y-112550000D01*
X125211707Y-112455991D01*
X125605000Y-112193201D01*
X125605000Y-115039874D01*
X125436310Y-114970000D01*
X124745750Y-114970000D01*
X124587000Y-115128750D01*
X124587000Y-116078000D01*
X124607000Y-116078000D01*
X124607000Y-116332000D01*
X124587000Y-116332000D01*
X124587000Y-116352000D01*
X124333000Y-116352000D01*
X124333000Y-116332000D01*
X124313000Y-116332000D01*
X124313000Y-116078000D01*
X124333000Y-116078000D01*
X124333000Y-115128750D01*
X124174250Y-114970000D01*
X124124970Y-114970000D01*
X124125162Y-114749833D01*
X123983117Y-114406057D01*
X123720327Y-114142808D01*
X123376799Y-114000162D01*
X123004833Y-113999838D01*
X122661057Y-114141883D01*
X122397808Y-114404673D01*
X122255162Y-114748201D01*
X122255121Y-114795077D01*
X120747599Y-116302599D01*
X120582852Y-116549161D01*
X120525000Y-116840000D01*
X120525000Y-140970000D01*
X120582852Y-141260839D01*
X120747599Y-141507401D01*
X122960721Y-143720523D01*
X122945907Y-143795000D01*
X123039916Y-144267614D01*
X123307630Y-144668277D01*
X123708293Y-144935991D01*
X124180907Y-145030000D01*
X124739093Y-145030000D01*
X125211707Y-144935991D01*
X125612370Y-144668277D01*
X125880084Y-144267614D01*
X125974093Y-143795000D01*
X125958934Y-143718790D01*
X126178201Y-143809838D01*
X126550167Y-143810162D01*
X126893943Y-143668117D01*
X126927118Y-143635000D01*
X160689842Y-143635000D01*
X157181918Y-147142924D01*
X156845000Y-147075907D01*
X156478592Y-147148790D01*
X155477401Y-146147599D01*
X155230839Y-145982852D01*
X154940000Y-145925000D01*
X130810000Y-145925000D01*
X130519161Y-145982852D01*
X130272599Y-146147599D01*
X129637599Y-146782599D01*
X129472852Y-147029161D01*
X129415678Y-147316593D01*
X129124946Y-147510853D01*
X128897298Y-147851553D01*
X128830183Y-147708642D01*
X128401924Y-147318355D01*
X127991890Y-147148524D01*
X127762000Y-147269845D01*
X127762000Y-148463000D01*
X127782000Y-148463000D01*
X127782000Y-148717000D01*
X127762000Y-148717000D01*
X127762000Y-148737000D01*
X127508000Y-148737000D01*
X127508000Y-148717000D01*
X126314181Y-148717000D01*
X126193514Y-148946892D01*
X126265418Y-149100000D01*
X123752463Y-149100000D01*
X123720327Y-149067808D01*
X123376799Y-148925162D01*
X123004833Y-148924838D01*
X122661057Y-149066883D01*
X122397808Y-149329673D01*
X122255162Y-149673201D01*
X122254838Y-150045167D01*
X122396883Y-150388943D01*
X122659673Y-150652192D01*
X123003201Y-150794838D01*
X123375167Y-150795162D01*
X123718943Y-150653117D01*
X123752118Y-150620000D01*
X128471799Y-150620000D01*
X128209009Y-151013293D01*
X128115000Y-151485907D01*
X128115000Y-152044093D01*
X128209009Y-152516707D01*
X128470462Y-152908000D01*
X118795000Y-152908000D01*
X118795000Y-148233108D01*
X126193514Y-148233108D01*
X126314181Y-148463000D01*
X127508000Y-148463000D01*
X127508000Y-147269845D01*
X127278110Y-147148524D01*
X126868076Y-147318355D01*
X126439817Y-147708642D01*
X126193514Y-148233108D01*
X118795000Y-148233108D01*
X118795000Y-106588691D01*
X122975000Y-106588691D01*
X122975000Y-107029250D01*
X123133750Y-107188000D01*
X124333000Y-107188000D01*
X124333000Y-106238750D01*
X124587000Y-106238750D01*
X124587000Y-107188000D01*
X125786250Y-107188000D01*
X125945000Y-107029250D01*
X125945000Y-106588691D01*
X125848327Y-106355302D01*
X125669699Y-106176673D01*
X125436310Y-106080000D01*
X124745750Y-106080000D01*
X124587000Y-106238750D01*
X124333000Y-106238750D01*
X124174250Y-106080000D01*
X123483690Y-106080000D01*
X123250301Y-106176673D01*
X123071673Y-106355302D01*
X122975000Y-106588691D01*
X118795000Y-106588691D01*
X118795000Y-99603691D01*
X122975000Y-99603691D01*
X122975000Y-100044250D01*
X123133750Y-100203000D01*
X124333000Y-100203000D01*
X124333000Y-99253750D01*
X124587000Y-99253750D01*
X124587000Y-100203000D01*
X125786250Y-100203000D01*
X125945000Y-100044250D01*
X125945000Y-99603691D01*
X125848327Y-99370302D01*
X125669699Y-99191673D01*
X125436310Y-99095000D01*
X124745750Y-99095000D01*
X124587000Y-99253750D01*
X124333000Y-99253750D01*
X124174250Y-99095000D01*
X123483690Y-99095000D01*
X123250301Y-99191673D01*
X123071673Y-99370302D01*
X122975000Y-99603691D01*
X118795000Y-99603691D01*
X118795000Y-92618691D01*
X122975000Y-92618691D01*
X122975000Y-93059250D01*
X123133750Y-93218000D01*
X124333000Y-93218000D01*
X124333000Y-92268750D01*
X124587000Y-92268750D01*
X124587000Y-93218000D01*
X125786250Y-93218000D01*
X125945000Y-93059250D01*
X125945000Y-92618691D01*
X125848327Y-92385302D01*
X125669699Y-92206673D01*
X125436310Y-92110000D01*
X124745750Y-92110000D01*
X124587000Y-92268750D01*
X124333000Y-92268750D01*
X124174250Y-92110000D01*
X123483690Y-92110000D01*
X123250301Y-92206673D01*
X123071673Y-92385302D01*
X122975000Y-92618691D01*
X118795000Y-92618691D01*
X118795000Y-60132619D01*
X133019613Y-60132619D01*
X133359155Y-60954372D01*
X133987321Y-61583636D01*
X134808481Y-61924611D01*
X135697619Y-61925387D01*
X136519372Y-61585845D01*
X137148636Y-60957679D01*
X137489611Y-60136519D01*
X137490387Y-59247381D01*
X137150845Y-58425628D01*
X136522679Y-57796364D01*
X135701519Y-57455389D01*
X134812381Y-57454613D01*
X133990628Y-57794155D01*
X133361364Y-58422321D01*
X133020389Y-59243481D01*
X133019613Y-60132619D01*
X118795000Y-60132619D01*
X118795000Y-56322619D01*
X126669613Y-56322619D01*
X127009155Y-57144372D01*
X127637321Y-57773636D01*
X128458481Y-58114611D01*
X129347619Y-58115387D01*
X130169372Y-57775845D01*
X130798636Y-57147679D01*
X131139611Y-56326519D01*
X131140387Y-55437381D01*
X130800845Y-54615628D01*
X130172679Y-53986364D01*
X129351519Y-53645389D01*
X128462381Y-53644613D01*
X127640628Y-53984155D01*
X127011364Y-54612321D01*
X126670389Y-55433481D01*
X126669613Y-56322619D01*
X118795000Y-56322619D01*
X118795000Y-53390000D01*
X175251566Y-53390000D01*
X174930389Y-54163481D01*
G36*
X135734009Y-151013293D02*
X135640000Y-151485907D01*
X135640000Y-152044093D01*
X135734009Y-152516707D01*
X135995462Y-152908000D01*
X134515955Y-152908000D01*
X134585000Y-152741310D01*
X134585000Y-152050750D01*
X134426250Y-151892000D01*
X133477000Y-151892000D01*
X133477000Y-151912000D01*
X133223000Y-151912000D01*
X133223000Y-151892000D01*
X133203000Y-151892000D01*
X133203000Y-151638000D01*
X133223000Y-151638000D01*
X133223000Y-151618000D01*
X133477000Y-151618000D01*
X133477000Y-151638000D01*
X134426250Y-151638000D01*
X134585000Y-151479250D01*
X134585000Y-150788690D01*
X134515126Y-150620000D01*
X135996799Y-150620000D01*
X135734009Y-151013293D01*
X135734009Y-151013293D01*
G37*
X135734009Y-151013293D02*
X135640000Y-151485907D01*
X135640000Y-152044093D01*
X135734009Y-152516707D01*
X135995462Y-152908000D01*
X134515955Y-152908000D01*
X134585000Y-152741310D01*
X134585000Y-152050750D01*
X134426250Y-151892000D01*
X133477000Y-151892000D01*
X133477000Y-151912000D01*
X133223000Y-151912000D01*
X133223000Y-151892000D01*
X133203000Y-151892000D01*
X133203000Y-151638000D01*
X133223000Y-151638000D01*
X133223000Y-151618000D01*
X133477000Y-151618000D01*
X133477000Y-151638000D01*
X134426250Y-151638000D01*
X134585000Y-151479250D01*
X134585000Y-150788690D01*
X134515126Y-150620000D01*
X135996799Y-150620000D01*
X135734009Y-151013293D01*
G36*
X161134009Y-151013293D02*
X161040000Y-151485907D01*
X161040000Y-152044093D01*
X161134009Y-152516707D01*
X161395462Y-152908000D01*
X158645955Y-152908000D01*
X158715000Y-152741310D01*
X158715000Y-152050750D01*
X158556250Y-151892000D01*
X157607000Y-151892000D01*
X157607000Y-151912000D01*
X157353000Y-151912000D01*
X157353000Y-151892000D01*
X157333000Y-151892000D01*
X157333000Y-151638000D01*
X157353000Y-151638000D01*
X157353000Y-151618000D01*
X157607000Y-151618000D01*
X157607000Y-151638000D01*
X158556250Y-151638000D01*
X158715000Y-151479250D01*
X158715000Y-150788690D01*
X158645126Y-150620000D01*
X161396799Y-150620000D01*
X161134009Y-151013293D01*
X161134009Y-151013293D01*
G37*
X161134009Y-151013293D02*
X161040000Y-151485907D01*
X161040000Y-152044093D01*
X161134009Y-152516707D01*
X161395462Y-152908000D01*
X158645955Y-152908000D01*
X158715000Y-152741310D01*
X158715000Y-152050750D01*
X158556250Y-151892000D01*
X157607000Y-151892000D01*
X157607000Y-151912000D01*
X157353000Y-151912000D01*
X157353000Y-151892000D01*
X157333000Y-151892000D01*
X157333000Y-151638000D01*
X157353000Y-151638000D01*
X157353000Y-151618000D01*
X157607000Y-151618000D01*
X157607000Y-151638000D01*
X158556250Y-151638000D01*
X158715000Y-151479250D01*
X158715000Y-150788690D01*
X158645126Y-150620000D01*
X161396799Y-150620000D01*
X161134009Y-151013293D01*
G36*
X171929009Y-151013293D02*
X171835000Y-151485907D01*
X171835000Y-151925198D01*
X171485198Y-152275000D01*
X169510000Y-152275000D01*
X169510000Y-152050750D01*
X169351250Y-151892000D01*
X168402000Y-151892000D01*
X168402000Y-151912000D01*
X168148000Y-151912000D01*
X168148000Y-151892000D01*
X168128000Y-151892000D01*
X168128000Y-151638000D01*
X168148000Y-151638000D01*
X168148000Y-151618000D01*
X168402000Y-151618000D01*
X168402000Y-151638000D01*
X169351250Y-151638000D01*
X169510000Y-151479250D01*
X169510000Y-150788690D01*
X169440126Y-150620000D01*
X172191799Y-150620000D01*
X171929009Y-151013293D01*
X171929009Y-151013293D01*
G37*
X171929009Y-151013293D02*
X171835000Y-151485907D01*
X171835000Y-151925198D01*
X171485198Y-152275000D01*
X169510000Y-152275000D01*
X169510000Y-152050750D01*
X169351250Y-151892000D01*
X168402000Y-151892000D01*
X168402000Y-151912000D01*
X168148000Y-151912000D01*
X168148000Y-151892000D01*
X168128000Y-151892000D01*
X168128000Y-151638000D01*
X168148000Y-151638000D01*
X168148000Y-151618000D01*
X168402000Y-151618000D01*
X168402000Y-151638000D01*
X169351250Y-151638000D01*
X169510000Y-151479250D01*
X169510000Y-150788690D01*
X169440126Y-150620000D01*
X172191799Y-150620000D01*
X171929009Y-151013293D01*
G36*
X141002000Y-151638000D02*
X141022000Y-151638000D01*
X141022000Y-151892000D01*
X141002000Y-151892000D01*
X141002000Y-151912000D01*
X140748000Y-151912000D01*
X140748000Y-151892000D01*
X140728000Y-151892000D01*
X140728000Y-151638000D01*
X140748000Y-151638000D01*
X140748000Y-151618000D01*
X141002000Y-151618000D01*
X141002000Y-151638000D01*
X141002000Y-151638000D01*
G37*
X141002000Y-151638000D02*
X141022000Y-151638000D01*
X141022000Y-151892000D01*
X141002000Y-151892000D01*
X141002000Y-151912000D01*
X140748000Y-151912000D01*
X140748000Y-151892000D01*
X140728000Y-151892000D01*
X140728000Y-151638000D01*
X140748000Y-151638000D01*
X140748000Y-151618000D01*
X141002000Y-151618000D01*
X141002000Y-151638000D01*
G36*
X135329817Y-147708642D02*
X135083514Y-148233108D01*
X135204181Y-148463000D01*
X136398000Y-148463000D01*
X136398000Y-148443000D01*
X136652000Y-148443000D01*
X136652000Y-148463000D01*
X136672000Y-148463000D01*
X136672000Y-148717000D01*
X136652000Y-148717000D01*
X136652000Y-148737000D01*
X136398000Y-148737000D01*
X136398000Y-148717000D01*
X135204181Y-148717000D01*
X135083514Y-148946892D01*
X135155418Y-149100000D01*
X134212440Y-149100000D01*
X134212440Y-147740000D01*
X134168162Y-147504683D01*
X134129757Y-147445000D01*
X135619109Y-147445000D01*
X135329817Y-147708642D01*
X135329817Y-147708642D01*
G37*
X135329817Y-147708642D02*
X135083514Y-148233108D01*
X135204181Y-148463000D01*
X136398000Y-148463000D01*
X136398000Y-148443000D01*
X136652000Y-148443000D01*
X136652000Y-148463000D01*
X136672000Y-148463000D01*
X136672000Y-148717000D01*
X136652000Y-148717000D01*
X136652000Y-148737000D01*
X136398000Y-148737000D01*
X136398000Y-148717000D01*
X135204181Y-148717000D01*
X135083514Y-148946892D01*
X135155418Y-149100000D01*
X134212440Y-149100000D01*
X134212440Y-147740000D01*
X134168162Y-147504683D01*
X134129757Y-147445000D01*
X135619109Y-147445000D01*
X135329817Y-147708642D01*
G36*
X144219817Y-147708642D02*
X143973514Y-148233108D01*
X144094181Y-148463000D01*
X145288000Y-148463000D01*
X145288000Y-148443000D01*
X145542000Y-148443000D01*
X145542000Y-148463000D01*
X145562000Y-148463000D01*
X145562000Y-148717000D01*
X145542000Y-148717000D01*
X145542000Y-148737000D01*
X145288000Y-148737000D01*
X145288000Y-148717000D01*
X144094181Y-148717000D01*
X143973514Y-148946892D01*
X144045418Y-149100000D01*
X143102440Y-149100000D01*
X143102440Y-147740000D01*
X143058162Y-147504683D01*
X143019757Y-147445000D01*
X144509109Y-147445000D01*
X144219817Y-147708642D01*
X144219817Y-147708642D01*
G37*
X144219817Y-147708642D02*
X143973514Y-148233108D01*
X144094181Y-148463000D01*
X145288000Y-148463000D01*
X145288000Y-148443000D01*
X145542000Y-148443000D01*
X145542000Y-148463000D01*
X145562000Y-148463000D01*
X145562000Y-148717000D01*
X145542000Y-148717000D01*
X145542000Y-148737000D01*
X145288000Y-148737000D01*
X145288000Y-148717000D01*
X144094181Y-148717000D01*
X143973514Y-148946892D01*
X144045418Y-149100000D01*
X143102440Y-149100000D01*
X143102440Y-147740000D01*
X143058162Y-147504683D01*
X143019757Y-147445000D01*
X144509109Y-147445000D01*
X144219817Y-147708642D01*
G36*
X153109817Y-147708642D02*
X152863514Y-148233108D01*
X152984181Y-148463000D01*
X154178000Y-148463000D01*
X154178000Y-148443000D01*
X154432000Y-148443000D01*
X154432000Y-148463000D01*
X154452000Y-148463000D01*
X154452000Y-148717000D01*
X154432000Y-148717000D01*
X154432000Y-148737000D01*
X154178000Y-148737000D01*
X154178000Y-148717000D01*
X152984181Y-148717000D01*
X152863514Y-148946892D01*
X152935418Y-149100000D01*
X151992440Y-149100000D01*
X151992440Y-147740000D01*
X151948162Y-147504683D01*
X151909757Y-147445000D01*
X153399109Y-147445000D01*
X153109817Y-147708642D01*
X153109817Y-147708642D01*
G37*
X153109817Y-147708642D02*
X152863514Y-148233108D01*
X152984181Y-148463000D01*
X154178000Y-148463000D01*
X154178000Y-148443000D01*
X154432000Y-148443000D01*
X154432000Y-148463000D01*
X154452000Y-148463000D01*
X154452000Y-148717000D01*
X154432000Y-148717000D01*
X154432000Y-148737000D01*
X154178000Y-148737000D01*
X154178000Y-148717000D01*
X152984181Y-148717000D01*
X152863514Y-148946892D01*
X152935418Y-149100000D01*
X151992440Y-149100000D01*
X151992440Y-147740000D01*
X151948162Y-147504683D01*
X151909757Y-147445000D01*
X153399109Y-147445000D01*
X153109817Y-147708642D01*
G36*
X127420000Y-134649093D02*
X127533039Y-135217378D01*
X127854946Y-135699147D01*
X127856179Y-135699971D01*
X127819683Y-135706838D01*
X127603559Y-135845910D01*
X127458569Y-136058110D01*
X127407560Y-136310000D01*
X127407560Y-138010000D01*
X127451838Y-138245317D01*
X127590910Y-138461441D01*
X127803110Y-138606431D01*
X128055000Y-138657440D01*
X129755000Y-138657440D01*
X129990317Y-138613162D01*
X130206441Y-138474090D01*
X130351431Y-138261890D01*
X130365086Y-138194459D01*
X130394946Y-138239147D01*
X130876715Y-138561054D01*
X131445000Y-138674093D01*
X132013285Y-138561054D01*
X132495054Y-138239147D01*
X132715000Y-137909974D01*
X132934946Y-138239147D01*
X133416715Y-138561054D01*
X133985000Y-138674093D01*
X134553285Y-138561054D01*
X135035054Y-138239147D01*
X135255000Y-137909974D01*
X135474946Y-138239147D01*
X135956715Y-138561054D01*
X136525000Y-138674093D01*
X137093285Y-138561054D01*
X137575054Y-138239147D01*
X137795000Y-137909974D01*
X138014946Y-138239147D01*
X138496715Y-138561054D01*
X139065000Y-138674093D01*
X139633285Y-138561054D01*
X140115054Y-138239147D01*
X140335000Y-137909974D01*
X140554946Y-138239147D01*
X141036715Y-138561054D01*
X141605000Y-138674093D01*
X142173285Y-138561054D01*
X142655054Y-138239147D01*
X142875000Y-137909974D01*
X143094946Y-138239147D01*
X143576715Y-138561054D01*
X144145000Y-138674093D01*
X144713285Y-138561054D01*
X145195054Y-138239147D01*
X145415000Y-137909974D01*
X145634946Y-138239147D01*
X146116715Y-138561054D01*
X146685000Y-138674093D01*
X147253285Y-138561054D01*
X147735054Y-138239147D01*
X147955000Y-137909974D01*
X148174946Y-138239147D01*
X148656715Y-138561054D01*
X149225000Y-138674093D01*
X149793285Y-138561054D01*
X150275054Y-138239147D01*
X150495000Y-137909974D01*
X150714946Y-138239147D01*
X151196715Y-138561054D01*
X151765000Y-138674093D01*
X152333285Y-138561054D01*
X152815054Y-138239147D01*
X153035000Y-137909974D01*
X153254946Y-138239147D01*
X153736715Y-138561054D01*
X154305000Y-138674093D01*
X154873285Y-138561054D01*
X155355054Y-138239147D01*
X155575000Y-137909974D01*
X155794946Y-138239147D01*
X156276715Y-138561054D01*
X156845000Y-138674093D01*
X157413285Y-138561054D01*
X157895054Y-138239147D01*
X158115000Y-137909974D01*
X158334946Y-138239147D01*
X158816715Y-138561054D01*
X159385000Y-138674093D01*
X159953285Y-138561054D01*
X160435054Y-138239147D01*
X160655000Y-137909974D01*
X160874946Y-138239147D01*
X161356715Y-138561054D01*
X161925000Y-138674093D01*
X162493285Y-138561054D01*
X162975054Y-138239147D01*
X163195000Y-137909974D01*
X163414946Y-138239147D01*
X163896715Y-138561054D01*
X164465000Y-138674093D01*
X165033285Y-138561054D01*
X165515054Y-138239147D01*
X165735000Y-137909974D01*
X165954946Y-138239147D01*
X166436715Y-138561054D01*
X167005000Y-138674093D01*
X167573285Y-138561054D01*
X168055054Y-138239147D01*
X168275000Y-137909974D01*
X168494946Y-138239147D01*
X168976715Y-138561054D01*
X169545000Y-138674093D01*
X170113285Y-138561054D01*
X170595054Y-138239147D01*
X170822702Y-137898447D01*
X170889817Y-138041358D01*
X171318076Y-138431645D01*
X171728110Y-138601476D01*
X171957998Y-138480156D01*
X171957998Y-138645000D01*
X172029843Y-138645000D01*
X167940123Y-142734719D01*
X167940162Y-142689833D01*
X167798117Y-142346057D01*
X167535327Y-142082808D01*
X167191799Y-141940162D01*
X166819833Y-141939838D01*
X166476057Y-142081883D01*
X166442882Y-142115000D01*
X126927463Y-142115000D01*
X126895327Y-142082808D01*
X126551799Y-141940162D01*
X126179833Y-141939838D01*
X125924279Y-142045430D01*
X125974093Y-141795000D01*
X125880084Y-141322386D01*
X125612370Y-140921723D01*
X125419109Y-140792590D01*
X125641933Y-140624125D01*
X125888286Y-140204376D01*
X125903462Y-140112609D01*
X125778731Y-139922000D01*
X124587000Y-139922000D01*
X124587000Y-139942000D01*
X124333000Y-139942000D01*
X124333000Y-139922000D01*
X123141269Y-139922000D01*
X123016538Y-140112609D01*
X123031714Y-140204376D01*
X123278067Y-140624125D01*
X123500891Y-140792590D01*
X123307630Y-140921723D01*
X123039916Y-141322386D01*
X122985542Y-141595740D01*
X122045000Y-140655198D01*
X122045000Y-136454802D01*
X122962560Y-137372362D01*
X122962560Y-138395000D01*
X123006838Y-138630317D01*
X123145910Y-138846441D01*
X123298309Y-138950571D01*
X123278067Y-138965875D01*
X123031714Y-139385624D01*
X123016538Y-139477391D01*
X123141269Y-139668000D01*
X124333000Y-139668000D01*
X124333000Y-139648000D01*
X124587000Y-139648000D01*
X124587000Y-139668000D01*
X125778731Y-139668000D01*
X125903462Y-139477391D01*
X125888286Y-139385624D01*
X125641933Y-138965875D01*
X125620580Y-138949731D01*
X125761441Y-138859090D01*
X125906431Y-138646890D01*
X125957440Y-138395000D01*
X125957440Y-137195000D01*
X125913162Y-136959683D01*
X125774090Y-136743559D01*
X125561890Y-136598569D01*
X125310000Y-136547560D01*
X124287362Y-136547560D01*
X123315000Y-135575198D01*
X123315000Y-135380000D01*
X126365000Y-135380000D01*
X126655839Y-135322148D01*
X126902401Y-135157401D01*
X127420000Y-134639802D01*
X127420000Y-134649093D01*
X127420000Y-134649093D01*
G37*
X127420000Y-134649093D02*
X127533039Y-135217378D01*
X127854946Y-135699147D01*
X127856179Y-135699971D01*
X127819683Y-135706838D01*
X127603559Y-135845910D01*
X127458569Y-136058110D01*
X127407560Y-136310000D01*
X127407560Y-138010000D01*
X127451838Y-138245317D01*
X127590910Y-138461441D01*
X127803110Y-138606431D01*
X128055000Y-138657440D01*
X129755000Y-138657440D01*
X129990317Y-138613162D01*
X130206441Y-138474090D01*
X130351431Y-138261890D01*
X130365086Y-138194459D01*
X130394946Y-138239147D01*
X130876715Y-138561054D01*
X131445000Y-138674093D01*
X132013285Y-138561054D01*
X132495054Y-138239147D01*
X132715000Y-137909974D01*
X132934946Y-138239147D01*
X133416715Y-138561054D01*
X133985000Y-138674093D01*
X134553285Y-138561054D01*
X135035054Y-138239147D01*
X135255000Y-137909974D01*
X135474946Y-138239147D01*
X135956715Y-138561054D01*
X136525000Y-138674093D01*
X137093285Y-138561054D01*
X137575054Y-138239147D01*
X137795000Y-137909974D01*
X138014946Y-138239147D01*
X138496715Y-138561054D01*
X139065000Y-138674093D01*
X139633285Y-138561054D01*
X140115054Y-138239147D01*
X140335000Y-137909974D01*
X140554946Y-138239147D01*
X141036715Y-138561054D01*
X141605000Y-138674093D01*
X142173285Y-138561054D01*
X142655054Y-138239147D01*
X142875000Y-137909974D01*
X143094946Y-138239147D01*
X143576715Y-138561054D01*
X144145000Y-138674093D01*
X144713285Y-138561054D01*
X145195054Y-138239147D01*
X145415000Y-137909974D01*
X145634946Y-138239147D01*
X146116715Y-138561054D01*
X146685000Y-138674093D01*
X147253285Y-138561054D01*
X147735054Y-138239147D01*
X147955000Y-137909974D01*
X148174946Y-138239147D01*
X148656715Y-138561054D01*
X149225000Y-138674093D01*
X149793285Y-138561054D01*
X150275054Y-138239147D01*
X150495000Y-137909974D01*
X150714946Y-138239147D01*
X151196715Y-138561054D01*
X151765000Y-138674093D01*
X152333285Y-138561054D01*
X152815054Y-138239147D01*
X153035000Y-137909974D01*
X153254946Y-138239147D01*
X153736715Y-138561054D01*
X154305000Y-138674093D01*
X154873285Y-138561054D01*
X155355054Y-138239147D01*
X155575000Y-137909974D01*
X155794946Y-138239147D01*
X156276715Y-138561054D01*
X156845000Y-138674093D01*
X157413285Y-138561054D01*
X157895054Y-138239147D01*
X158115000Y-137909974D01*
X158334946Y-138239147D01*
X158816715Y-138561054D01*
X159385000Y-138674093D01*
X159953285Y-138561054D01*
X160435054Y-138239147D01*
X160655000Y-137909974D01*
X160874946Y-138239147D01*
X161356715Y-138561054D01*
X161925000Y-138674093D01*
X162493285Y-138561054D01*
X162975054Y-138239147D01*
X163195000Y-137909974D01*
X163414946Y-138239147D01*
X163896715Y-138561054D01*
X164465000Y-138674093D01*
X165033285Y-138561054D01*
X165515054Y-138239147D01*
X165735000Y-137909974D01*
X165954946Y-138239147D01*
X166436715Y-138561054D01*
X167005000Y-138674093D01*
X167573285Y-138561054D01*
X168055054Y-138239147D01*
X168275000Y-137909974D01*
X168494946Y-138239147D01*
X168976715Y-138561054D01*
X169545000Y-138674093D01*
X170113285Y-138561054D01*
X170595054Y-138239147D01*
X170822702Y-137898447D01*
X170889817Y-138041358D01*
X171318076Y-138431645D01*
X171728110Y-138601476D01*
X171957998Y-138480156D01*
X171957998Y-138645000D01*
X172029843Y-138645000D01*
X167940123Y-142734719D01*
X167940162Y-142689833D01*
X167798117Y-142346057D01*
X167535327Y-142082808D01*
X167191799Y-141940162D01*
X166819833Y-141939838D01*
X166476057Y-142081883D01*
X166442882Y-142115000D01*
X126927463Y-142115000D01*
X126895327Y-142082808D01*
X126551799Y-141940162D01*
X126179833Y-141939838D01*
X125924279Y-142045430D01*
X125974093Y-141795000D01*
X125880084Y-141322386D01*
X125612370Y-140921723D01*
X125419109Y-140792590D01*
X125641933Y-140624125D01*
X125888286Y-140204376D01*
X125903462Y-140112609D01*
X125778731Y-139922000D01*
X124587000Y-139922000D01*
X124587000Y-139942000D01*
X124333000Y-139942000D01*
X124333000Y-139922000D01*
X123141269Y-139922000D01*
X123016538Y-140112609D01*
X123031714Y-140204376D01*
X123278067Y-140624125D01*
X123500891Y-140792590D01*
X123307630Y-140921723D01*
X123039916Y-141322386D01*
X122985542Y-141595740D01*
X122045000Y-140655198D01*
X122045000Y-136454802D01*
X122962560Y-137372362D01*
X122962560Y-138395000D01*
X123006838Y-138630317D01*
X123145910Y-138846441D01*
X123298309Y-138950571D01*
X123278067Y-138965875D01*
X123031714Y-139385624D01*
X123016538Y-139477391D01*
X123141269Y-139668000D01*
X124333000Y-139668000D01*
X124333000Y-139648000D01*
X124587000Y-139648000D01*
X124587000Y-139668000D01*
X125778731Y-139668000D01*
X125903462Y-139477391D01*
X125888286Y-139385624D01*
X125641933Y-138965875D01*
X125620580Y-138949731D01*
X125761441Y-138859090D01*
X125906431Y-138646890D01*
X125957440Y-138395000D01*
X125957440Y-137195000D01*
X125913162Y-136959683D01*
X125774090Y-136743559D01*
X125561890Y-136598569D01*
X125310000Y-136547560D01*
X124287362Y-136547560D01*
X123315000Y-135575198D01*
X123315000Y-135380000D01*
X126365000Y-135380000D01*
X126655839Y-135322148D01*
X126902401Y-135157401D01*
X127420000Y-134639802D01*
X127420000Y-134649093D01*
G36*
X124717974Y-125792776D02*
X124587000Y-125923750D01*
X124587000Y-126873000D01*
X124607000Y-126873000D01*
X124607000Y-127127000D01*
X124587000Y-127127000D01*
X124587000Y-127147000D01*
X124333000Y-127147000D01*
X124333000Y-127127000D01*
X124313000Y-127127000D01*
X124313000Y-126873000D01*
X124333000Y-126873000D01*
X124333000Y-125923750D01*
X124174250Y-125765000D01*
X123483690Y-125765000D01*
X123315000Y-125834874D01*
X123315000Y-124389802D01*
X124717974Y-125792776D01*
X124717974Y-125792776D01*
G37*
X124717974Y-125792776D02*
X124587000Y-125923750D01*
X124587000Y-126873000D01*
X124607000Y-126873000D01*
X124607000Y-127127000D01*
X124587000Y-127127000D01*
X124587000Y-127147000D01*
X124333000Y-127147000D01*
X124333000Y-127127000D01*
X124313000Y-127127000D01*
X124313000Y-126873000D01*
X124333000Y-126873000D01*
X124333000Y-125923750D01*
X124174250Y-125765000D01*
X123483690Y-125765000D01*
X123315000Y-125834874D01*
X123315000Y-124389802D01*
X124717974Y-125792776D01*
M02*
