G04 #@! TF.FileFunction,Copper,L2,Bot,Signal*
%FSLAX46Y46*%
G04 Gerber Fmt 4.6, Leading zero omitted, Abs format (unit mm)*
G04 Created by KiCad (PCBNEW 4.0.7-e2-6376~58~ubuntu16.04.1) date Thu Sep 13 16:12:12 2018*
%MOMM*%
%LPD*%
G01*
G04 APERTURE LIST*
%ADD10C,0.100000*%
%ADD11R,1.800000X1.800000*%
%ADD12C,1.800000*%
%ADD13R,1.700000X1.700000*%
%ADD14O,1.700000X1.700000*%
%ADD15R,1.200000X1.700000*%
%ADD16O,1.200000X1.700000*%
%ADD17R,1.700000X1.200000*%
%ADD18O,1.700000X1.200000*%
%ADD19C,1.400000*%
%ADD20O,1.400000X1.400000*%
%ADD21O,1.800000X1.800000*%
%ADD22C,1.600000*%
%ADD23R,2.800000X2.800000*%
%ADD24O,2.800000X2.800000*%
%ADD25C,3.810000*%
%ADD26O,1.600000X1.600000*%
%ADD27C,0.600000*%
%ADD28C,0.500000*%
%ADD29C,0.300000*%
%ADD30C,0.250000*%
%ADD31C,0.254000*%
G04 APERTURE END LIST*
D10*
D11*
X157480000Y-55245000D03*
D12*
X154940000Y-55245000D03*
D13*
X156845000Y-144780000D03*
D14*
X154305000Y-144780000D03*
X151765000Y-144780000D03*
D13*
X148590000Y-144780000D03*
D14*
X146050000Y-144780000D03*
X143510000Y-144780000D03*
D13*
X140335000Y-144780000D03*
D14*
X137795000Y-144780000D03*
X135255000Y-144780000D03*
D13*
X132080000Y-144780000D03*
D14*
X129540000Y-144780000D03*
X127000000Y-144780000D03*
D15*
X161290000Y-147320000D03*
D16*
X159290000Y-147320000D03*
X157290000Y-147320000D03*
X155290000Y-147320000D03*
D15*
X171450000Y-147320000D03*
D16*
X169450000Y-147320000D03*
X167450000Y-147320000D03*
X165450000Y-147320000D03*
D15*
X181610000Y-147320000D03*
D16*
X179610000Y-147320000D03*
X177610000Y-147320000D03*
X175610000Y-147320000D03*
D15*
X151130000Y-147320000D03*
D16*
X149130000Y-147320000D03*
X147130000Y-147320000D03*
X145130000Y-147320000D03*
D15*
X124460000Y-147320000D03*
D16*
X122460000Y-147320000D03*
X120460000Y-147320000D03*
D17*
X124460000Y-132715000D03*
D18*
X124460000Y-130715000D03*
X124460000Y-128715000D03*
D15*
X130810000Y-147320000D03*
D16*
X128810000Y-147320000D03*
D17*
X124460000Y-116205000D03*
D18*
X124460000Y-114205000D03*
D17*
X124460000Y-124460000D03*
D18*
X124460000Y-122460000D03*
X124460000Y-120460000D03*
D15*
X140970000Y-147320000D03*
D16*
X138970000Y-147320000D03*
X136970000Y-147320000D03*
X134970000Y-147320000D03*
D17*
X124460000Y-142875000D03*
D18*
X124460000Y-140875000D03*
X124460000Y-138875000D03*
X124460000Y-136875000D03*
D19*
X152400000Y-55245000D03*
D20*
X152400000Y-62865000D03*
D13*
X177165000Y-91440000D03*
D14*
X177165000Y-93980000D03*
X177165000Y-96520000D03*
X177165000Y-99060000D03*
X177165000Y-101600000D03*
X177165000Y-104140000D03*
X177165000Y-106680000D03*
X177165000Y-109220000D03*
D13*
X177165000Y-114300000D03*
D14*
X177165000Y-116840000D03*
X177165000Y-119380000D03*
X177165000Y-121920000D03*
X177165000Y-124460000D03*
X177165000Y-127000000D03*
X177165000Y-129540000D03*
X177165000Y-132080000D03*
D13*
X128905000Y-137160000D03*
D14*
X128905000Y-134620000D03*
X131445000Y-137160000D03*
X131445000Y-134620000D03*
X133985000Y-137160000D03*
X133985000Y-134620000D03*
X136525000Y-137160000D03*
X136525000Y-134620000D03*
X139065000Y-137160000D03*
X139065000Y-134620000D03*
X141605000Y-137160000D03*
X141605000Y-134620000D03*
X144145000Y-137160000D03*
X144145000Y-134620000D03*
X146685000Y-137160000D03*
X146685000Y-134620000D03*
X149225000Y-137160000D03*
X149225000Y-134620000D03*
X151765000Y-137160000D03*
X151765000Y-134620000D03*
X154305000Y-137160000D03*
X154305000Y-134620000D03*
X156845000Y-137160000D03*
X156845000Y-134620000D03*
X159385000Y-137160000D03*
X159385000Y-134620000D03*
X161925000Y-137160000D03*
X161925000Y-134620000D03*
X164465000Y-137160000D03*
X164465000Y-134620000D03*
X167005000Y-137160000D03*
X167005000Y-134620000D03*
X169545000Y-137160000D03*
X169545000Y-134620000D03*
X172085000Y-137160000D03*
X172085000Y-134620000D03*
D13*
X128905000Y-64770000D03*
D14*
X128905000Y-67310000D03*
X128905000Y-69850000D03*
X128905000Y-72390000D03*
X128905000Y-74930000D03*
X128905000Y-77470000D03*
X128905000Y-80010000D03*
X128905000Y-82550000D03*
D13*
X128905000Y-86360000D03*
D14*
X128905000Y-88900000D03*
X128905000Y-91440000D03*
X128905000Y-93980000D03*
X128905000Y-96520000D03*
X128905000Y-99060000D03*
X128905000Y-101600000D03*
X128905000Y-104140000D03*
D13*
X128905000Y-109220000D03*
D14*
X128905000Y-111760000D03*
X128905000Y-114300000D03*
X128905000Y-116840000D03*
X128905000Y-119380000D03*
X128905000Y-121920000D03*
X128905000Y-124460000D03*
X128905000Y-127000000D03*
D11*
X181610000Y-69215000D03*
D21*
X181610000Y-71755000D03*
X181610000Y-74295000D03*
D11*
X181610000Y-85725000D03*
D21*
X181610000Y-88265000D03*
X181610000Y-90805000D03*
D11*
X181610000Y-101600000D03*
D21*
X181610000Y-104140000D03*
X181610000Y-106680000D03*
D17*
X181610000Y-134620000D03*
D18*
X181610000Y-136620000D03*
D17*
X181610000Y-140970000D03*
D18*
X181610000Y-142970000D03*
D13*
X182245000Y-127635000D03*
D14*
X184785000Y-127635000D03*
D13*
X182245000Y-125095000D03*
D14*
X184785000Y-125095000D03*
D13*
X177165000Y-68580000D03*
D14*
X177165000Y-71120000D03*
X177165000Y-73660000D03*
X177165000Y-76200000D03*
X177165000Y-78740000D03*
X177165000Y-81280000D03*
X177165000Y-83820000D03*
X177165000Y-86360000D03*
D22*
X172720000Y-107315000D03*
X167720000Y-107315000D03*
X172720000Y-111125000D03*
X167720000Y-111125000D03*
X165100000Y-61595000D03*
X170100000Y-61595000D03*
X165100000Y-83820000D03*
X170100000Y-83820000D03*
D13*
X153035000Y-114300000D03*
D14*
X153035000Y-116840000D03*
X153035000Y-119380000D03*
X153035000Y-121920000D03*
X153035000Y-124460000D03*
X153035000Y-127000000D03*
D13*
X172085000Y-130175000D03*
D14*
X169545000Y-130175000D03*
X167005000Y-130175000D03*
X164465000Y-130175000D03*
X161925000Y-130175000D03*
X159385000Y-130175000D03*
D13*
X165100000Y-73025000D03*
D14*
X167640000Y-73025000D03*
X165100000Y-70485000D03*
X167640000Y-70485000D03*
D19*
X131445000Y-124460000D03*
D20*
X139065000Y-124460000D03*
D19*
X131445000Y-127000000D03*
D20*
X139065000Y-127000000D03*
D23*
X172720000Y-90805000D03*
D24*
X172720000Y-100965000D03*
D23*
X172720000Y-68580000D03*
D24*
X172720000Y-78740000D03*
D23*
X148590000Y-85090000D03*
D24*
X138430000Y-85090000D03*
D23*
X148590000Y-69850000D03*
D24*
X138430000Y-69850000D03*
D19*
X147320000Y-109220000D03*
D20*
X147320000Y-101600000D03*
D19*
X147320000Y-99695000D03*
D20*
X147320000Y-92075000D03*
D25*
X158750000Y-107950000D03*
X158750000Y-100330000D03*
X158750000Y-92710000D03*
X158750000Y-85090000D03*
X158750000Y-77470000D03*
X158750000Y-69850000D03*
D22*
X172720000Y-64135000D03*
D26*
X165100000Y-64135000D03*
D22*
X172720000Y-86360000D03*
D26*
X165100000Y-86360000D03*
D22*
X151765000Y-98425000D03*
X151765000Y-93425000D03*
D13*
X122555000Y-64770000D03*
D14*
X122555000Y-67310000D03*
X122555000Y-69850000D03*
X122555000Y-72390000D03*
X122555000Y-74930000D03*
X122555000Y-77470000D03*
X122555000Y-80010000D03*
X122555000Y-82550000D03*
D27*
X173355000Y-113665000D03*
X180975000Y-111125000D03*
X173990000Y-112395000D03*
X173990000Y-146685000D03*
X173990000Y-144780000D03*
X123190000Y-107315000D03*
X153035000Y-140970000D03*
X136525000Y-140335000D03*
X131445000Y-140970000D03*
X120650000Y-140970000D03*
X137160000Y-130175000D03*
X145415000Y-128270000D03*
X147955000Y-128905000D03*
X153670000Y-107950000D03*
X173355000Y-93980000D03*
D28*
X165100000Y-83820000D02*
X162560000Y-83820000D01*
X141605000Y-81915000D02*
X138430000Y-85090000D01*
X160655000Y-81915000D02*
X141605000Y-81915000D01*
X162560000Y-83820000D02*
X160655000Y-81915000D01*
D29*
X181610000Y-101600000D02*
X180975000Y-101600000D01*
X180975000Y-101600000D02*
X179705000Y-102870000D01*
X172720000Y-106045000D02*
X172720000Y-107315000D01*
X175895000Y-102870000D02*
X172720000Y-106045000D01*
X179705000Y-102870000D02*
X175895000Y-102870000D01*
D30*
X147320000Y-109220000D02*
X155575000Y-109220000D01*
X167640000Y-113030000D02*
X172720000Y-107950000D01*
X159385000Y-113030000D02*
X167640000Y-113030000D01*
X172720000Y-107950000D02*
X172720000Y-107315000D01*
X155575000Y-109220000D02*
X159385000Y-113030000D01*
D29*
X122555000Y-67310000D02*
X128905000Y-67310000D01*
D28*
X151765000Y-93425000D02*
X151765000Y-93345000D01*
X151765000Y-93345000D02*
X150495000Y-92075000D01*
X147320000Y-92075000D02*
X150495000Y-92075000D01*
X150495000Y-92075000D02*
X158115000Y-92075000D01*
X158115000Y-92075000D02*
X158750000Y-92710000D01*
D30*
X170100000Y-61595000D02*
X170180000Y-61595000D01*
X130810000Y-147320000D02*
X132715000Y-147320000D01*
X132715000Y-147320000D02*
X135255000Y-144780000D01*
X142240000Y-146050000D02*
X142240000Y-146685000D01*
X147860000Y-148590000D02*
X149130000Y-147320000D01*
X144145000Y-148590000D02*
X147860000Y-148590000D01*
X142240000Y-146685000D02*
X144145000Y-148590000D01*
X138430000Y-146050000D02*
X142240000Y-146050000D01*
X142240000Y-146050000D02*
X143510000Y-144780000D01*
X135255000Y-144780000D02*
X136525000Y-146050000D01*
X138430000Y-146050000D02*
X138970000Y-146590000D01*
X136525000Y-146050000D02*
X138430000Y-146050000D01*
X138970000Y-146590000D02*
X138970000Y-147320000D01*
D28*
X152400000Y-55245000D02*
X154940000Y-55245000D01*
X173355000Y-113665000D02*
X175260000Y-113665000D01*
X177800000Y-112395000D02*
X179705000Y-114300000D01*
X179705000Y-114300000D02*
X179705000Y-125095000D01*
X182245000Y-127635000D02*
X179705000Y-125095000D01*
X176530000Y-112395000D02*
X177800000Y-112395000D01*
X175260000Y-113665000D02*
X176530000Y-112395000D01*
X175260000Y-111125000D02*
X180975000Y-111125000D01*
X173990000Y-112395000D02*
X175260000Y-111125000D01*
D29*
X173990000Y-144780000D02*
X173990000Y-146685000D01*
X124460000Y-122460000D02*
X125635000Y-122460000D01*
X137795000Y-123190000D02*
X139065000Y-124460000D01*
X126365000Y-123190000D02*
X137795000Y-123190000D01*
X125635000Y-122460000D02*
X126365000Y-123190000D01*
X167640000Y-73025000D02*
X173355000Y-73025000D01*
X175895000Y-77470000D02*
X177165000Y-78740000D01*
X175895000Y-75565000D02*
X175895000Y-77470000D01*
X173355000Y-73025000D02*
X175895000Y-75565000D01*
X122460000Y-147320000D02*
X122460000Y-147860000D01*
X122460000Y-147860000D02*
X123825000Y-149225000D01*
X123825000Y-149225000D02*
X142240000Y-149225000D01*
X169545000Y-149225000D02*
X179705000Y-149225000D01*
X179705000Y-149225000D02*
X181610000Y-147320000D01*
X159385000Y-149225000D02*
X169545000Y-149225000D01*
X169545000Y-149225000D02*
X171450000Y-147320000D01*
X149225000Y-149225000D02*
X159385000Y-149225000D01*
X159385000Y-149225000D02*
X161290000Y-147320000D01*
X140970000Y-147320000D02*
X140970000Y-147955000D01*
X140970000Y-147955000D02*
X142240000Y-149225000D01*
X142240000Y-149225000D02*
X149225000Y-149225000D01*
X149225000Y-149225000D02*
X151130000Y-147320000D01*
D30*
X172720000Y-111125000D02*
X175895000Y-107950000D01*
X180340000Y-107950000D02*
X181610000Y-106680000D01*
X175895000Y-107950000D02*
X180340000Y-107950000D01*
X177165000Y-91440000D02*
X175260000Y-91440000D01*
X175260000Y-91440000D02*
X174625000Y-92075000D01*
X174625000Y-92075000D02*
X174625000Y-92710000D01*
X174625000Y-92710000D02*
X170815000Y-92710000D01*
X170815000Y-92710000D02*
X168275000Y-90170000D01*
X168275000Y-90170000D02*
X157480000Y-90170000D01*
X157480000Y-90170000D02*
X156845000Y-90805000D01*
X156845000Y-90805000D02*
X146050000Y-90805000D01*
X146050000Y-90805000D02*
X133985000Y-102870000D01*
X133985000Y-102870000D02*
X127635000Y-102870000D01*
X127635000Y-102870000D02*
X123190000Y-107315000D01*
X124460000Y-128715000D02*
X124270000Y-128715000D01*
X124270000Y-128715000D02*
X122555000Y-127000000D01*
X122555000Y-127000000D02*
X122555000Y-120648602D01*
X122555000Y-120648602D02*
X126365000Y-116838602D01*
X126365000Y-116838602D02*
X126365000Y-107950000D01*
X126365000Y-107950000D02*
X128270000Y-106045000D01*
X128270000Y-106045000D02*
X135890000Y-106045000D01*
X135890000Y-106045000D02*
X146685000Y-95250000D01*
X146685000Y-95250000D02*
X175895000Y-95250000D01*
X175895000Y-95250000D02*
X177165000Y-93980000D01*
X127000000Y-116840000D02*
X127000000Y-108585000D01*
X124460000Y-119380000D02*
X127000000Y-116840000D01*
X124460000Y-120460000D02*
X124460000Y-119380000D01*
X135890000Y-107315000D02*
X146685000Y-96520000D01*
X128270000Y-107315000D02*
X135890000Y-107315000D01*
X127000000Y-108585000D02*
X128270000Y-107315000D01*
X146685000Y-96520000D02*
X177165000Y-96520000D01*
X151765000Y-98425000D02*
X150495000Y-99695000D01*
X147320000Y-99695000D02*
X150495000Y-99695000D01*
X150495000Y-99695000D02*
X153670000Y-99695000D01*
X175895000Y-97790000D02*
X177165000Y-99060000D01*
X155575000Y-97790000D02*
X175895000Y-97790000D01*
X153670000Y-99695000D02*
X155575000Y-97790000D01*
X131445000Y-137160000D02*
X132715000Y-135890000D01*
X162560000Y-132080000D02*
X164465000Y-130175000D01*
X133985000Y-132080000D02*
X162560000Y-132080000D01*
X132715000Y-133350000D02*
X133985000Y-132080000D01*
X132715000Y-135890000D02*
X132715000Y-133350000D01*
X131445000Y-134620000D02*
X131445000Y-133350000D01*
X160655000Y-131445000D02*
X161925000Y-130175000D01*
X133350000Y-131445000D02*
X160655000Y-131445000D01*
X131445000Y-133350000D02*
X133350000Y-131445000D01*
D29*
X128905000Y-64770000D02*
X122555000Y-64770000D01*
D30*
X177165000Y-127000000D02*
X153035000Y-127000000D01*
X153035000Y-124460000D02*
X177165000Y-124460000D01*
X177165000Y-121920000D02*
X153035000Y-121920000D01*
X153035000Y-119380000D02*
X177165000Y-119380000D01*
X177165000Y-116840000D02*
X153035000Y-116840000D01*
X153035000Y-114300000D02*
X177165000Y-114300000D01*
X156845000Y-144780000D02*
X153035000Y-140970000D01*
X136525000Y-140335000D02*
X135890000Y-140970000D01*
X135890000Y-140970000D02*
X131445000Y-140970000D01*
X125095000Y-146050000D02*
X127540000Y-146050000D01*
X120650000Y-141605000D02*
X125095000Y-146050000D01*
X120650000Y-140970000D02*
X120650000Y-141605000D01*
X127540000Y-146050000D02*
X128810000Y-147320000D01*
X128270000Y-147320000D02*
X128810000Y-147320000D01*
X137160000Y-130175000D02*
X132715000Y-130175000D01*
X132715000Y-130175000D02*
X129540000Y-133350000D01*
X129540000Y-133350000D02*
X127635000Y-133350000D01*
X127635000Y-133350000D02*
X127635000Y-136525000D01*
X127635000Y-136525000D02*
X125095000Y-139065000D01*
X125095000Y-139065000D02*
X124460000Y-139065000D01*
X124460000Y-139065000D02*
X124460000Y-138875000D01*
X164180000Y-146050000D02*
X172720000Y-146050000D01*
X175610000Y-148240000D02*
X175610000Y-147320000D01*
X175260000Y-148590000D02*
X175610000Y-148240000D01*
X174465002Y-148590000D02*
X175260000Y-148590000D01*
X173355000Y-147479998D02*
X174465002Y-148590000D01*
X173355000Y-146685000D02*
X173355000Y-147479998D01*
X172720000Y-146050000D02*
X173355000Y-146685000D01*
X131445000Y-124460000D02*
X132715000Y-124460000D01*
X136525000Y-128270000D02*
X145415000Y-128270000D01*
X132715000Y-124460000D02*
X136525000Y-128270000D01*
X131445000Y-124460000D02*
X128905000Y-124460000D01*
D29*
X154020000Y-146050000D02*
X164180000Y-146050000D01*
X164180000Y-146050000D02*
X165450000Y-147320000D01*
X145130000Y-147320000D02*
X145130000Y-146970000D01*
X145130000Y-146970000D02*
X146050000Y-146050000D01*
X146050000Y-146050000D02*
X154020000Y-146050000D01*
X154020000Y-146050000D02*
X155290000Y-147320000D01*
D30*
X131445000Y-127000000D02*
X133985000Y-127000000D01*
X135890000Y-128905000D02*
X147955000Y-128905000D01*
X133985000Y-127000000D02*
X135890000Y-128905000D01*
X128905000Y-127000000D02*
X131445000Y-127000000D01*
X172720000Y-100965000D02*
X168275000Y-105410000D01*
X168275000Y-105410000D02*
X157480000Y-105410000D01*
X157480000Y-105410000D02*
X154940000Y-107950000D01*
X154940000Y-107950000D02*
X153670000Y-107950000D01*
X181610000Y-90805000D02*
X179705000Y-92710000D01*
X179705000Y-92710000D02*
X175895000Y-92710000D01*
X175895000Y-92710000D02*
X174625000Y-93980000D01*
X174625000Y-93980000D02*
X173355000Y-93980000D01*
D29*
X144145000Y-142875000D02*
X152400000Y-142875000D01*
X152400000Y-142875000D02*
X154305000Y-144780000D01*
X135890000Y-142875000D02*
X144145000Y-142875000D01*
X144145000Y-142875000D02*
X146050000Y-144780000D01*
X129540000Y-144780000D02*
X129540000Y-144145000D01*
X129540000Y-144145000D02*
X130810000Y-142875000D01*
X130810000Y-142875000D02*
X135890000Y-142875000D01*
X135890000Y-142875000D02*
X137795000Y-144780000D01*
D28*
X167640000Y-70485000D02*
X167640000Y-68580000D01*
X154940000Y-65405000D02*
X152400000Y-62865000D01*
X164465000Y-65405000D02*
X154940000Y-65405000D01*
X167640000Y-68580000D02*
X164465000Y-65405000D01*
D29*
X167640000Y-70485000D02*
X167640000Y-71120000D01*
X167640000Y-71120000D02*
X166370000Y-72390000D01*
X166370000Y-72390000D02*
X166370000Y-73660000D01*
X166370000Y-73660000D02*
X171450000Y-78740000D01*
X171450000Y-78740000D02*
X172720000Y-78740000D01*
X172720000Y-78740000D02*
X174625000Y-78740000D01*
X181610000Y-77470000D02*
X181610000Y-74295000D01*
X179070000Y-80010000D02*
X181610000Y-77470000D01*
X175895000Y-80010000D02*
X179070000Y-80010000D01*
X174625000Y-78740000D02*
X175895000Y-80010000D01*
D30*
X172720000Y-90805000D02*
X174625000Y-88900000D01*
X178435000Y-88900000D02*
X181610000Y-85725000D01*
X174625000Y-88900000D02*
X178435000Y-88900000D01*
X172720000Y-68580000D02*
X174625000Y-68580000D01*
X174625000Y-68580000D02*
X175895000Y-69850000D01*
X175895000Y-69850000D02*
X180975000Y-69850000D01*
X180975000Y-69850000D02*
X181610000Y-69215000D01*
D29*
X128905000Y-69850000D02*
X122555000Y-69850000D01*
X122555000Y-72390000D02*
X128905000Y-72390000D01*
X128905000Y-74930000D02*
X122555000Y-74930000D01*
X122555000Y-77470000D02*
X128905000Y-77470000D01*
X128905000Y-80010000D02*
X122555000Y-80010000D01*
X122555000Y-82550000D02*
X128905000Y-82550000D01*
D28*
X148590000Y-85090000D02*
X158750000Y-85090000D01*
X148590000Y-69850000D02*
X158750000Y-69850000D01*
D31*
G36*
X127011364Y-54612321D02*
X126670389Y-55433481D01*
X126669613Y-56322619D01*
X127009155Y-57144372D01*
X127637321Y-57773636D01*
X128458481Y-58114611D01*
X129347619Y-58115387D01*
X130169372Y-57775845D01*
X130798636Y-57147679D01*
X131139611Y-56326519D01*
X131140387Y-55437381D01*
X130800845Y-54615628D01*
X130211248Y-54025000D01*
X151856736Y-54025000D01*
X151644771Y-54112582D01*
X151268902Y-54487796D01*
X151065232Y-54978287D01*
X151064769Y-55509383D01*
X151267582Y-56000229D01*
X151642796Y-56376098D01*
X152133287Y-56579768D01*
X152664383Y-56580231D01*
X153155229Y-56377418D01*
X153403079Y-56130000D01*
X153654532Y-56130000D01*
X154069357Y-56545551D01*
X154633330Y-56779733D01*
X155243991Y-56780265D01*
X155808371Y-56547068D01*
X155985841Y-56369908D01*
X156041673Y-56504699D01*
X156220302Y-56683327D01*
X156453691Y-56780000D01*
X157194250Y-56780000D01*
X157353000Y-56621250D01*
X157353000Y-55372000D01*
X157607000Y-55372000D01*
X157607000Y-56621250D01*
X157765750Y-56780000D01*
X158506309Y-56780000D01*
X158739698Y-56683327D01*
X158918327Y-56504699D01*
X159015000Y-56271310D01*
X159015000Y-55530750D01*
X158856250Y-55372000D01*
X157607000Y-55372000D01*
X157353000Y-55372000D01*
X157333000Y-55372000D01*
X157333000Y-55118000D01*
X157353000Y-55118000D01*
X157353000Y-55098000D01*
X157607000Y-55098000D01*
X157607000Y-55118000D01*
X158856250Y-55118000D01*
X159015000Y-54959250D01*
X159015000Y-54218690D01*
X158934771Y-54025000D01*
X174987891Y-54025000D01*
X174930389Y-54163481D01*
X174929613Y-55052619D01*
X175269155Y-55874372D01*
X175897321Y-56503636D01*
X176718481Y-56844611D01*
X177607619Y-56845387D01*
X178429372Y-56505845D01*
X179058636Y-55877679D01*
X179399611Y-55056519D01*
X179400387Y-54167381D01*
X179341556Y-54025000D01*
X186640000Y-54025000D01*
X186640000Y-152350000D01*
X119430000Y-152350000D01*
X119430000Y-148237817D01*
X119586723Y-148472370D01*
X119987386Y-148740084D01*
X120460000Y-148834093D01*
X120932614Y-148740084D01*
X121333277Y-148472370D01*
X121460000Y-148282715D01*
X121586723Y-148472370D01*
X121987386Y-148740084D01*
X122290150Y-148800308D01*
X123269919Y-149780076D01*
X123269921Y-149780079D01*
X123524594Y-149950245D01*
X123825000Y-150010001D01*
X123825005Y-150010000D01*
X179705000Y-150010000D01*
X180005407Y-149950245D01*
X180260079Y-149780079D01*
X181222718Y-148817440D01*
X182210000Y-148817440D01*
X182445317Y-148773162D01*
X182661441Y-148634090D01*
X182806431Y-148421890D01*
X182857440Y-148170000D01*
X182857440Y-146470000D01*
X182813162Y-146234683D01*
X182674090Y-146018559D01*
X182461890Y-145873569D01*
X182210000Y-145822560D01*
X181010000Y-145822560D01*
X180774683Y-145866838D01*
X180558559Y-146005910D01*
X180454429Y-146158309D01*
X180439125Y-146138067D01*
X180019376Y-145891714D01*
X179927609Y-145876538D01*
X179737000Y-146001269D01*
X179737000Y-147193000D01*
X179757000Y-147193000D01*
X179757000Y-147447000D01*
X179737000Y-147447000D01*
X179737000Y-147467000D01*
X179483000Y-147467000D01*
X179483000Y-147447000D01*
X179463000Y-147447000D01*
X179463000Y-147193000D01*
X179483000Y-147193000D01*
X179483000Y-146001269D01*
X179292391Y-145876538D01*
X179200624Y-145891714D01*
X178780875Y-146138067D01*
X178612410Y-146360891D01*
X178483277Y-146167630D01*
X178082614Y-145899916D01*
X177610000Y-145805907D01*
X177137386Y-145899916D01*
X176736723Y-146167630D01*
X176610000Y-146357285D01*
X176483277Y-146167630D01*
X176082614Y-145899916D01*
X175610000Y-145805907D01*
X175137386Y-145899916D01*
X174775000Y-146142054D01*
X174775000Y-145317506D01*
X174782192Y-145310327D01*
X174924838Y-144966799D01*
X174925162Y-144594833D01*
X174783117Y-144251057D01*
X174520327Y-143987808D01*
X174176799Y-143845162D01*
X173804833Y-143844838D01*
X173461057Y-143986883D01*
X173197808Y-144249673D01*
X173055162Y-144593201D01*
X173054838Y-144965167D01*
X173196883Y-145308943D01*
X173205000Y-145317074D01*
X173205000Y-145477586D01*
X173010839Y-145347852D01*
X172720000Y-145290000D01*
X164305683Y-145290000D01*
X164180000Y-145265000D01*
X158342440Y-145265000D01*
X158342440Y-143930000D01*
X158298162Y-143694683D01*
X158159090Y-143478559D01*
X157946890Y-143333569D01*
X157719933Y-143287609D01*
X180166538Y-143287609D01*
X180181714Y-143379376D01*
X180428067Y-143799125D01*
X180816299Y-144092647D01*
X181287304Y-144215256D01*
X181483000Y-144052547D01*
X181483000Y-143097000D01*
X181737000Y-143097000D01*
X181737000Y-144052547D01*
X181932696Y-144215256D01*
X182403701Y-144092647D01*
X182791933Y-143799125D01*
X183038286Y-143379376D01*
X183053462Y-143287609D01*
X182928731Y-143097000D01*
X181737000Y-143097000D01*
X181483000Y-143097000D01*
X180291269Y-143097000D01*
X180166538Y-143287609D01*
X157719933Y-143287609D01*
X157695000Y-143282560D01*
X156422362Y-143282560D01*
X153970122Y-140830320D01*
X153970162Y-140784833D01*
X153828117Y-140441057D01*
X153757184Y-140370000D01*
X180112560Y-140370000D01*
X180112560Y-141570000D01*
X180156838Y-141805317D01*
X180295910Y-142021441D01*
X180448309Y-142125571D01*
X180428067Y-142140875D01*
X180181714Y-142560624D01*
X180166538Y-142652391D01*
X180291269Y-142843000D01*
X181483000Y-142843000D01*
X181483000Y-142823000D01*
X181737000Y-142823000D01*
X181737000Y-142843000D01*
X182928731Y-142843000D01*
X183053462Y-142652391D01*
X183038286Y-142560624D01*
X182791933Y-142140875D01*
X182770580Y-142124731D01*
X182911441Y-142034090D01*
X183056431Y-141821890D01*
X183107440Y-141570000D01*
X183107440Y-140370000D01*
X183063162Y-140134683D01*
X182924090Y-139918559D01*
X182711890Y-139773569D01*
X182460000Y-139722560D01*
X180760000Y-139722560D01*
X180524683Y-139766838D01*
X180308559Y-139905910D01*
X180163569Y-140118110D01*
X180112560Y-140370000D01*
X153757184Y-140370000D01*
X153565327Y-140177808D01*
X153221799Y-140035162D01*
X152849833Y-140034838D01*
X152506057Y-140176883D01*
X152242808Y-140439673D01*
X152100162Y-140783201D01*
X152099838Y-141155167D01*
X152241883Y-141498943D01*
X152504673Y-141762192D01*
X152848201Y-141904838D01*
X152895077Y-141904879D01*
X154264217Y-143274019D01*
X153968082Y-143332924D01*
X152955079Y-142319921D01*
X152700407Y-142149755D01*
X152400000Y-142090000D01*
X130810000Y-142090000D01*
X130509593Y-142149755D01*
X130254921Y-142319921D01*
X129251561Y-143323281D01*
X128971715Y-143378946D01*
X128489946Y-143700853D01*
X128262298Y-144041553D01*
X128195183Y-143898642D01*
X127766924Y-143508355D01*
X127356890Y-143338524D01*
X127127000Y-143459845D01*
X127127000Y-144653000D01*
X127147000Y-144653000D01*
X127147000Y-144907000D01*
X127127000Y-144907000D01*
X127127000Y-144927000D01*
X126873000Y-144927000D01*
X126873000Y-144907000D01*
X125679181Y-144907000D01*
X125558514Y-145136892D01*
X125630418Y-145290000D01*
X125409802Y-145290000D01*
X124542910Y-144423108D01*
X125558514Y-144423108D01*
X125679181Y-144653000D01*
X126873000Y-144653000D01*
X126873000Y-143459845D01*
X126643110Y-143338524D01*
X126233076Y-143508355D01*
X125804817Y-143898642D01*
X125558514Y-144423108D01*
X124542910Y-144423108D01*
X124242242Y-144122440D01*
X125310000Y-144122440D01*
X125545317Y-144078162D01*
X125761441Y-143939090D01*
X125906431Y-143726890D01*
X125957440Y-143475000D01*
X125957440Y-142275000D01*
X125913162Y-142039683D01*
X125774090Y-141823559D01*
X125621691Y-141719429D01*
X125641933Y-141704125D01*
X125888286Y-141284376D01*
X125903462Y-141192609D01*
X125878961Y-141155167D01*
X130509838Y-141155167D01*
X130651883Y-141498943D01*
X130914673Y-141762192D01*
X131258201Y-141904838D01*
X131630167Y-141905162D01*
X131973943Y-141763117D01*
X132007118Y-141730000D01*
X135890000Y-141730000D01*
X136180839Y-141672148D01*
X136427401Y-141507401D01*
X136664680Y-141270122D01*
X136710167Y-141270162D01*
X137053943Y-141128117D01*
X137317192Y-140865327D01*
X137459838Y-140521799D01*
X137460162Y-140149833D01*
X137318117Y-139806057D01*
X137055327Y-139542808D01*
X136711799Y-139400162D01*
X136339833Y-139399838D01*
X135996057Y-139541883D01*
X135732808Y-139804673D01*
X135590162Y-140148201D01*
X135590121Y-140195077D01*
X135575198Y-140210000D01*
X132007463Y-140210000D01*
X131975327Y-140177808D01*
X131631799Y-140035162D01*
X131259833Y-140034838D01*
X130916057Y-140176883D01*
X130652808Y-140439673D01*
X130510162Y-140783201D01*
X130509838Y-141155167D01*
X125878961Y-141155167D01*
X125778731Y-141002000D01*
X124587000Y-141002000D01*
X124587000Y-141022000D01*
X124333000Y-141022000D01*
X124333000Y-141002000D01*
X123141269Y-141002000D01*
X123016538Y-141192609D01*
X123031714Y-141284376D01*
X123278067Y-141704125D01*
X123299420Y-141720269D01*
X123158559Y-141810910D01*
X123013569Y-142023110D01*
X122962560Y-142275000D01*
X122962560Y-142842758D01*
X121494400Y-141374598D01*
X121584838Y-141156799D01*
X121585162Y-140784833D01*
X121443117Y-140441057D01*
X121180327Y-140177808D01*
X120836799Y-140035162D01*
X120464833Y-140034838D01*
X120121057Y-140176883D01*
X119857808Y-140439673D01*
X119715162Y-140783201D01*
X119714838Y-141155167D01*
X119856883Y-141498943D01*
X119890000Y-141532118D01*
X119890000Y-141605000D01*
X119947852Y-141895839D01*
X120112599Y-142142401D01*
X123805198Y-145835000D01*
X123733691Y-145835000D01*
X123500302Y-145931673D01*
X123321673Y-146110301D01*
X123305590Y-146149130D01*
X122932614Y-145899916D01*
X122460000Y-145805907D01*
X121987386Y-145899916D01*
X121586723Y-146167630D01*
X121460000Y-146357285D01*
X121333277Y-146167630D01*
X120932614Y-145899916D01*
X120460000Y-145805907D01*
X119987386Y-145899916D01*
X119586723Y-146167630D01*
X119430000Y-146402183D01*
X119430000Y-133000750D01*
X122975000Y-133000750D01*
X122975000Y-133441309D01*
X123071673Y-133674698D01*
X123250301Y-133853327D01*
X123483690Y-133950000D01*
X124174250Y-133950000D01*
X124333000Y-133791250D01*
X124333000Y-132842000D01*
X124587000Y-132842000D01*
X124587000Y-133791250D01*
X124745750Y-133950000D01*
X125436310Y-133950000D01*
X125669699Y-133853327D01*
X125848327Y-133674698D01*
X125945000Y-133441309D01*
X125945000Y-133000750D01*
X125786250Y-132842000D01*
X124587000Y-132842000D01*
X124333000Y-132842000D01*
X123133750Y-132842000D01*
X122975000Y-133000750D01*
X119430000Y-133000750D01*
X119430000Y-120648602D01*
X121795000Y-120648602D01*
X121795000Y-127000000D01*
X121852852Y-127290839D01*
X122017599Y-127537401D01*
X122987267Y-128507069D01*
X122945907Y-128715000D01*
X123039916Y-129187614D01*
X123307630Y-129588277D01*
X123497285Y-129715000D01*
X123307630Y-129841723D01*
X123039916Y-130242386D01*
X122945907Y-130715000D01*
X123039916Y-131187614D01*
X123289130Y-131560590D01*
X123250301Y-131576673D01*
X123071673Y-131755302D01*
X122975000Y-131988691D01*
X122975000Y-132429250D01*
X123133750Y-132588000D01*
X124333000Y-132588000D01*
X124333000Y-132568000D01*
X124587000Y-132568000D01*
X124587000Y-132588000D01*
X125786250Y-132588000D01*
X125945000Y-132429250D01*
X125945000Y-131988691D01*
X125848327Y-131755302D01*
X125669699Y-131576673D01*
X125630870Y-131560590D01*
X125880084Y-131187614D01*
X125974093Y-130715000D01*
X125880084Y-130242386D01*
X125612370Y-129841723D01*
X125422715Y-129715000D01*
X125612370Y-129588277D01*
X125880084Y-129187614D01*
X125974093Y-128715000D01*
X125880084Y-128242386D01*
X125612370Y-127841723D01*
X125211707Y-127574009D01*
X124739093Y-127480000D01*
X124180907Y-127480000D01*
X124121599Y-127491797D01*
X123315000Y-126685198D01*
X123315000Y-125625126D01*
X123483690Y-125695000D01*
X124174250Y-125695000D01*
X124333000Y-125536250D01*
X124333000Y-124587000D01*
X124587000Y-124587000D01*
X124587000Y-125536250D01*
X124745750Y-125695000D01*
X125436310Y-125695000D01*
X125669699Y-125598327D01*
X125848327Y-125419698D01*
X125945000Y-125186309D01*
X125945000Y-124745750D01*
X125786250Y-124587000D01*
X124587000Y-124587000D01*
X124333000Y-124587000D01*
X124313000Y-124587000D01*
X124313000Y-124333000D01*
X124333000Y-124333000D01*
X124333000Y-124313000D01*
X124587000Y-124313000D01*
X124587000Y-124333000D01*
X125786250Y-124333000D01*
X125945000Y-124174250D01*
X125945000Y-123835335D01*
X126064594Y-123915245D01*
X126365000Y-123975000D01*
X127487380Y-123975000D01*
X127390907Y-124460000D01*
X127503946Y-125028285D01*
X127825853Y-125510054D01*
X128155026Y-125730000D01*
X127825853Y-125949946D01*
X127503946Y-126431715D01*
X127390907Y-127000000D01*
X127503946Y-127568285D01*
X127825853Y-128050054D01*
X128307622Y-128371961D01*
X128875907Y-128485000D01*
X128934093Y-128485000D01*
X129502378Y-128371961D01*
X129984147Y-128050054D01*
X130177954Y-127760000D01*
X130317345Y-127760000D01*
X130687796Y-128131098D01*
X131178287Y-128334768D01*
X131709383Y-128335231D01*
X132200229Y-128132418D01*
X132573297Y-127760000D01*
X133670198Y-127760000D01*
X135325198Y-129415000D01*
X132715000Y-129415000D01*
X132424161Y-129472852D01*
X132177599Y-129637599D01*
X129225198Y-132590000D01*
X127635000Y-132590000D01*
X127344161Y-132647852D01*
X127097599Y-132812599D01*
X126932852Y-133059161D01*
X126875000Y-133350000D01*
X126875000Y-136210198D01*
X125915467Y-137169731D01*
X125974093Y-136875000D01*
X125880084Y-136402386D01*
X125612370Y-136001723D01*
X125211707Y-135734009D01*
X124739093Y-135640000D01*
X124180907Y-135640000D01*
X123708293Y-135734009D01*
X123307630Y-136001723D01*
X123039916Y-136402386D01*
X122945907Y-136875000D01*
X123039916Y-137347614D01*
X123307630Y-137748277D01*
X123497285Y-137875000D01*
X123307630Y-138001723D01*
X123039916Y-138402386D01*
X122945907Y-138875000D01*
X123039916Y-139347614D01*
X123307630Y-139748277D01*
X123500891Y-139877410D01*
X123278067Y-140045875D01*
X123031714Y-140465624D01*
X123016538Y-140557391D01*
X123141269Y-140748000D01*
X124333000Y-140748000D01*
X124333000Y-140728000D01*
X124587000Y-140728000D01*
X124587000Y-140748000D01*
X125778731Y-140748000D01*
X125903462Y-140557391D01*
X125888286Y-140465624D01*
X125641933Y-140045875D01*
X125419109Y-139877410D01*
X125612370Y-139748277D01*
X125865779Y-139369023D01*
X127407560Y-137827242D01*
X127407560Y-138010000D01*
X127451838Y-138245317D01*
X127590910Y-138461441D01*
X127803110Y-138606431D01*
X128055000Y-138657440D01*
X129755000Y-138657440D01*
X129990317Y-138613162D01*
X130206441Y-138474090D01*
X130351431Y-138261890D01*
X130365086Y-138194459D01*
X130394946Y-138239147D01*
X130876715Y-138561054D01*
X131445000Y-138674093D01*
X132013285Y-138561054D01*
X132495054Y-138239147D01*
X132715000Y-137909974D01*
X132934946Y-138239147D01*
X133416715Y-138561054D01*
X133985000Y-138674093D01*
X134553285Y-138561054D01*
X135035054Y-138239147D01*
X135255000Y-137909974D01*
X135474946Y-138239147D01*
X135956715Y-138561054D01*
X136525000Y-138674093D01*
X137093285Y-138561054D01*
X137575054Y-138239147D01*
X137795000Y-137909974D01*
X138014946Y-138239147D01*
X138496715Y-138561054D01*
X139065000Y-138674093D01*
X139633285Y-138561054D01*
X140115054Y-138239147D01*
X140335000Y-137909974D01*
X140554946Y-138239147D01*
X141036715Y-138561054D01*
X141605000Y-138674093D01*
X142173285Y-138561054D01*
X142655054Y-138239147D01*
X142875000Y-137909974D01*
X143094946Y-138239147D01*
X143576715Y-138561054D01*
X144145000Y-138674093D01*
X144713285Y-138561054D01*
X145195054Y-138239147D01*
X145415000Y-137909974D01*
X145634946Y-138239147D01*
X146116715Y-138561054D01*
X146685000Y-138674093D01*
X147253285Y-138561054D01*
X147735054Y-138239147D01*
X147955000Y-137909974D01*
X148174946Y-138239147D01*
X148656715Y-138561054D01*
X149225000Y-138674093D01*
X149793285Y-138561054D01*
X150275054Y-138239147D01*
X150495000Y-137909974D01*
X150714946Y-138239147D01*
X151196715Y-138561054D01*
X151765000Y-138674093D01*
X152333285Y-138561054D01*
X152815054Y-138239147D01*
X153035000Y-137909974D01*
X153254946Y-138239147D01*
X153736715Y-138561054D01*
X154305000Y-138674093D01*
X154873285Y-138561054D01*
X155355054Y-138239147D01*
X155575000Y-137909974D01*
X155794946Y-138239147D01*
X156276715Y-138561054D01*
X156845000Y-138674093D01*
X157413285Y-138561054D01*
X157895054Y-138239147D01*
X158115000Y-137909974D01*
X158334946Y-138239147D01*
X158816715Y-138561054D01*
X159385000Y-138674093D01*
X159953285Y-138561054D01*
X160435054Y-138239147D01*
X160655000Y-137909974D01*
X160874946Y-138239147D01*
X161356715Y-138561054D01*
X161925000Y-138674093D01*
X162493285Y-138561054D01*
X162975054Y-138239147D01*
X163195000Y-137909974D01*
X163414946Y-138239147D01*
X163896715Y-138561054D01*
X164465000Y-138674093D01*
X165033285Y-138561054D01*
X165515054Y-138239147D01*
X165735000Y-137909974D01*
X165954946Y-138239147D01*
X166436715Y-138561054D01*
X167005000Y-138674093D01*
X167573285Y-138561054D01*
X168055054Y-138239147D01*
X168275000Y-137909974D01*
X168494946Y-138239147D01*
X168976715Y-138561054D01*
X169545000Y-138674093D01*
X170113285Y-138561054D01*
X170595054Y-138239147D01*
X170822702Y-137898447D01*
X170889817Y-138041358D01*
X171318076Y-138431645D01*
X171728110Y-138601476D01*
X171958000Y-138480155D01*
X171958000Y-137287000D01*
X172212000Y-137287000D01*
X172212000Y-138480155D01*
X172441890Y-138601476D01*
X172851924Y-138431645D01*
X173280183Y-138041358D01*
X173486226Y-137602619D01*
X174929613Y-137602619D01*
X175269155Y-138424372D01*
X175897321Y-139053636D01*
X176718481Y-139394611D01*
X177607619Y-139395387D01*
X178429372Y-139055845D01*
X179058636Y-138427679D01*
X179399611Y-137606519D01*
X179400387Y-136717381D01*
X179360150Y-136620000D01*
X180095907Y-136620000D01*
X180189916Y-137092614D01*
X180457630Y-137493277D01*
X180858293Y-137760991D01*
X181330907Y-137855000D01*
X181889093Y-137855000D01*
X182361707Y-137760991D01*
X182762370Y-137493277D01*
X183030084Y-137092614D01*
X183124093Y-136620000D01*
X183030084Y-136147386D01*
X182777926Y-135770004D01*
X182911441Y-135684090D01*
X183056431Y-135471890D01*
X183107440Y-135220000D01*
X183107440Y-134020000D01*
X183063162Y-133784683D01*
X182924090Y-133568559D01*
X182711890Y-133423569D01*
X182460000Y-133372560D01*
X180760000Y-133372560D01*
X180524683Y-133416838D01*
X180308559Y-133555910D01*
X180163569Y-133768110D01*
X180112560Y-134020000D01*
X180112560Y-135220000D01*
X180156838Y-135455317D01*
X180295910Y-135671441D01*
X180441475Y-135770901D01*
X180189916Y-136147386D01*
X180095907Y-136620000D01*
X179360150Y-136620000D01*
X179060845Y-135895628D01*
X178432679Y-135266364D01*
X177611519Y-134925389D01*
X176722381Y-134924613D01*
X175900628Y-135264155D01*
X175271364Y-135892321D01*
X174930389Y-136713481D01*
X174929613Y-137602619D01*
X173486226Y-137602619D01*
X173526486Y-137516892D01*
X173405819Y-137287000D01*
X172212000Y-137287000D01*
X171958000Y-137287000D01*
X171938000Y-137287000D01*
X171938000Y-137033000D01*
X171958000Y-137033000D01*
X171958000Y-134747000D01*
X172212000Y-134747000D01*
X172212000Y-137033000D01*
X173405819Y-137033000D01*
X173526486Y-136803108D01*
X173280183Y-136278642D01*
X172853729Y-135890000D01*
X173280183Y-135501358D01*
X173526486Y-134976892D01*
X173405819Y-134747000D01*
X172212000Y-134747000D01*
X171958000Y-134747000D01*
X171938000Y-134747000D01*
X171938000Y-134493000D01*
X171958000Y-134493000D01*
X171958000Y-133299845D01*
X172212000Y-133299845D01*
X172212000Y-134493000D01*
X173405819Y-134493000D01*
X173526486Y-134263108D01*
X173280183Y-133738642D01*
X172851924Y-133348355D01*
X172441890Y-133178524D01*
X172212000Y-133299845D01*
X171958000Y-133299845D01*
X171728110Y-133178524D01*
X171318076Y-133348355D01*
X170889817Y-133738642D01*
X170822702Y-133881553D01*
X170595054Y-133540853D01*
X170113285Y-133218946D01*
X169545000Y-133105907D01*
X168976715Y-133218946D01*
X168494946Y-133540853D01*
X168275000Y-133870026D01*
X168055054Y-133540853D01*
X167573285Y-133218946D01*
X167005000Y-133105907D01*
X166436715Y-133218946D01*
X165954946Y-133540853D01*
X165735000Y-133870026D01*
X165515054Y-133540853D01*
X165033285Y-133218946D01*
X164465000Y-133105907D01*
X163896715Y-133218946D01*
X163414946Y-133540853D01*
X163195000Y-133870026D01*
X162975054Y-133540853D01*
X162493285Y-133218946D01*
X161925000Y-133105907D01*
X161356715Y-133218946D01*
X160874946Y-133540853D01*
X160655000Y-133870026D01*
X160435054Y-133540853D01*
X159953285Y-133218946D01*
X159385000Y-133105907D01*
X158816715Y-133218946D01*
X158334946Y-133540853D01*
X158115000Y-133870026D01*
X157895054Y-133540853D01*
X157413285Y-133218946D01*
X156845000Y-133105907D01*
X156276715Y-133218946D01*
X155794946Y-133540853D01*
X155575000Y-133870026D01*
X155355054Y-133540853D01*
X154873285Y-133218946D01*
X154305000Y-133105907D01*
X153736715Y-133218946D01*
X153254946Y-133540853D01*
X153035000Y-133870026D01*
X152815054Y-133540853D01*
X152333285Y-133218946D01*
X151765000Y-133105907D01*
X151196715Y-133218946D01*
X150714946Y-133540853D01*
X150495000Y-133870026D01*
X150275054Y-133540853D01*
X149793285Y-133218946D01*
X149225000Y-133105907D01*
X148656715Y-133218946D01*
X148174946Y-133540853D01*
X147955000Y-133870026D01*
X147735054Y-133540853D01*
X147253285Y-133218946D01*
X146685000Y-133105907D01*
X146116715Y-133218946D01*
X145634946Y-133540853D01*
X145415000Y-133870026D01*
X145195054Y-133540853D01*
X144713285Y-133218946D01*
X144145000Y-133105907D01*
X143576715Y-133218946D01*
X143094946Y-133540853D01*
X142875000Y-133870026D01*
X142655054Y-133540853D01*
X142173285Y-133218946D01*
X141605000Y-133105907D01*
X141036715Y-133218946D01*
X140554946Y-133540853D01*
X140335000Y-133870026D01*
X140115054Y-133540853D01*
X139633285Y-133218946D01*
X139065000Y-133105907D01*
X138496715Y-133218946D01*
X138014946Y-133540853D01*
X137795000Y-133870026D01*
X137575054Y-133540853D01*
X137093285Y-133218946D01*
X136525000Y-133105907D01*
X135956715Y-133218946D01*
X135474946Y-133540853D01*
X135255000Y-133870026D01*
X135035054Y-133540853D01*
X134553285Y-133218946D01*
X134025783Y-133114019D01*
X134299802Y-132840000D01*
X162560000Y-132840000D01*
X162850839Y-132782148D01*
X163097401Y-132617401D01*
X164098592Y-131616210D01*
X164465000Y-131689093D01*
X165033285Y-131576054D01*
X165515054Y-131254147D01*
X165735000Y-130924974D01*
X165954946Y-131254147D01*
X166436715Y-131576054D01*
X167005000Y-131689093D01*
X167573285Y-131576054D01*
X168055054Y-131254147D01*
X168275000Y-130924974D01*
X168494946Y-131254147D01*
X168976715Y-131576054D01*
X169545000Y-131689093D01*
X170113285Y-131576054D01*
X170595054Y-131254147D01*
X170622850Y-131212548D01*
X170631838Y-131260317D01*
X170770910Y-131476441D01*
X170983110Y-131621431D01*
X171235000Y-131672440D01*
X172935000Y-131672440D01*
X173170317Y-131628162D01*
X173386441Y-131489090D01*
X173531431Y-131276890D01*
X173582440Y-131025000D01*
X173582440Y-129325000D01*
X173538162Y-129089683D01*
X173399090Y-128873559D01*
X173186890Y-128728569D01*
X172935000Y-128677560D01*
X171235000Y-128677560D01*
X170999683Y-128721838D01*
X170783559Y-128860910D01*
X170638569Y-129073110D01*
X170624914Y-129140541D01*
X170595054Y-129095853D01*
X170113285Y-128773946D01*
X169545000Y-128660907D01*
X168976715Y-128773946D01*
X168494946Y-129095853D01*
X168275000Y-129425026D01*
X168055054Y-129095853D01*
X167573285Y-128773946D01*
X167005000Y-128660907D01*
X166436715Y-128773946D01*
X165954946Y-129095853D01*
X165735000Y-129425026D01*
X165515054Y-129095853D01*
X165033285Y-128773946D01*
X164465000Y-128660907D01*
X163896715Y-128773946D01*
X163414946Y-129095853D01*
X163195000Y-129425026D01*
X162975054Y-129095853D01*
X162493285Y-128773946D01*
X161925000Y-128660907D01*
X161356715Y-128773946D01*
X160874946Y-129095853D01*
X160655000Y-129425026D01*
X160435054Y-129095853D01*
X159953285Y-128773946D01*
X159385000Y-128660907D01*
X158816715Y-128773946D01*
X158334946Y-129095853D01*
X158013039Y-129577622D01*
X157900000Y-130145907D01*
X157900000Y-130204093D01*
X157995658Y-130685000D01*
X137960633Y-130685000D01*
X138094838Y-130361799D01*
X138095162Y-129989833D01*
X137960944Y-129665000D01*
X147392537Y-129665000D01*
X147424673Y-129697192D01*
X147768201Y-129839838D01*
X148140167Y-129840162D01*
X148483943Y-129698117D01*
X148747192Y-129435327D01*
X148889838Y-129091799D01*
X148890162Y-128719833D01*
X148748117Y-128376057D01*
X148485327Y-128112808D01*
X148141799Y-127970162D01*
X147769833Y-127969838D01*
X147426057Y-128111883D01*
X147392882Y-128145000D01*
X146350110Y-128145000D01*
X146350162Y-128084833D01*
X146208117Y-127741057D01*
X145945327Y-127477808D01*
X145601799Y-127335162D01*
X145229833Y-127334838D01*
X144886057Y-127476883D01*
X144852882Y-127510000D01*
X140324708Y-127510000D01*
X140426154Y-127000000D01*
X140324533Y-126489118D01*
X140035142Y-126056012D01*
X139602036Y-125766621D01*
X139417930Y-125730000D01*
X139602036Y-125693379D01*
X140035142Y-125403988D01*
X140324533Y-124970882D01*
X140426154Y-124460000D01*
X140324533Y-123949118D01*
X140035142Y-123516012D01*
X139602036Y-123226621D01*
X139091154Y-123125000D01*
X139038846Y-123125000D01*
X138873123Y-123157965D01*
X138350079Y-122634921D01*
X138095407Y-122464755D01*
X137795000Y-122405000D01*
X130322620Y-122405000D01*
X130419093Y-121920000D01*
X130306054Y-121351715D01*
X129984147Y-120869946D01*
X129654974Y-120650000D01*
X129984147Y-120430054D01*
X130306054Y-119948285D01*
X130419093Y-119380000D01*
X130306054Y-118811715D01*
X130132932Y-118552619D01*
X133019613Y-118552619D01*
X133359155Y-119374372D01*
X133987321Y-120003636D01*
X134808481Y-120344611D01*
X135697619Y-120345387D01*
X136519372Y-120005845D01*
X137148636Y-119377679D01*
X137489611Y-118556519D01*
X137490387Y-117667381D01*
X137150845Y-116845628D01*
X136522679Y-116216364D01*
X135701519Y-115875389D01*
X134812381Y-115874613D01*
X133990628Y-116214155D01*
X133361364Y-116842321D01*
X133020389Y-117663481D01*
X133019613Y-118552619D01*
X130132932Y-118552619D01*
X129984147Y-118329946D01*
X129654974Y-118110000D01*
X129984147Y-117890054D01*
X130306054Y-117408285D01*
X130419093Y-116840000D01*
X130306054Y-116271715D01*
X129984147Y-115789946D01*
X129654974Y-115570000D01*
X129984147Y-115350054D01*
X130306054Y-114868285D01*
X130419093Y-114300000D01*
X130306054Y-113731715D01*
X129984147Y-113249946D01*
X129654974Y-113030000D01*
X129984147Y-112810054D01*
X130306054Y-112328285D01*
X130419093Y-111760000D01*
X130306054Y-111191715D01*
X129984147Y-110709946D01*
X129942548Y-110682150D01*
X129990317Y-110673162D01*
X130206441Y-110534090D01*
X130351431Y-110321890D01*
X130402440Y-110070000D01*
X130402440Y-108370000D01*
X130358162Y-108134683D01*
X130319757Y-108075000D01*
X135890000Y-108075000D01*
X136180839Y-108017148D01*
X136427401Y-107852401D01*
X146999802Y-97280000D01*
X150880831Y-97280000D01*
X150549176Y-97611077D01*
X150330250Y-98138309D01*
X150329752Y-98709187D01*
X150352049Y-98763149D01*
X150180198Y-98935000D01*
X148447655Y-98935000D01*
X148077204Y-98563902D01*
X147586713Y-98360232D01*
X147055617Y-98359769D01*
X146564771Y-98562582D01*
X146188902Y-98937796D01*
X145985232Y-99428287D01*
X145984769Y-99959383D01*
X146187582Y-100450229D01*
X146372358Y-100635327D01*
X146086621Y-101062964D01*
X145985000Y-101573846D01*
X145985000Y-101626154D01*
X146086621Y-102137036D01*
X146376012Y-102570142D01*
X146809118Y-102859533D01*
X147320000Y-102961154D01*
X147830882Y-102859533D01*
X148263988Y-102570142D01*
X148553379Y-102137036D01*
X148655000Y-101626154D01*
X148655000Y-101573846D01*
X148553379Y-101062964D01*
X148267647Y-100635335D01*
X148448297Y-100455000D01*
X153670000Y-100455000D01*
X153960839Y-100397148D01*
X154207401Y-100232401D01*
X155889802Y-98550000D01*
X156937868Y-98550000D01*
X156597948Y-98889327D01*
X156210441Y-99822546D01*
X156209560Y-100833021D01*
X156595437Y-101766915D01*
X157309327Y-102482052D01*
X158242546Y-102869559D01*
X159253021Y-102870440D01*
X160186915Y-102484563D01*
X160902052Y-101770673D01*
X161289559Y-100837454D01*
X161290440Y-99826979D01*
X160904563Y-98893085D01*
X160562076Y-98550000D01*
X175580198Y-98550000D01*
X175723790Y-98693592D01*
X175650907Y-99060000D01*
X175763946Y-99628285D01*
X176085853Y-100110054D01*
X176415026Y-100330000D01*
X176085853Y-100549946D01*
X175763946Y-101031715D01*
X175650907Y-101600000D01*
X175752998Y-102113246D01*
X175594593Y-102144755D01*
X175339921Y-102314921D01*
X172164921Y-105489921D01*
X171994755Y-105744593D01*
X171984142Y-105797948D01*
X171935000Y-106045000D01*
X171935000Y-106086683D01*
X171908200Y-106097757D01*
X171504176Y-106501077D01*
X171285250Y-107028309D01*
X171284752Y-107599187D01*
X171492711Y-108102487D01*
X169047187Y-110548011D01*
X168973864Y-110370995D01*
X168727745Y-110296861D01*
X167899605Y-111125000D01*
X167913748Y-111139142D01*
X167734142Y-111318748D01*
X167720000Y-111304605D01*
X166891861Y-112132745D01*
X166933204Y-112270000D01*
X159699802Y-112270000D01*
X158338025Y-110908223D01*
X166273035Y-110908223D01*
X166300222Y-111478454D01*
X166466136Y-111879005D01*
X166712255Y-111953139D01*
X167540395Y-111125000D01*
X166712255Y-110296861D01*
X166466136Y-110370995D01*
X166273035Y-110908223D01*
X158338025Y-110908223D01*
X157689869Y-110260067D01*
X158242546Y-110489559D01*
X159253021Y-110490440D01*
X160156198Y-110117255D01*
X166891861Y-110117255D01*
X167720000Y-110945395D01*
X168548139Y-110117255D01*
X168474005Y-109871136D01*
X167936777Y-109678035D01*
X167366546Y-109705222D01*
X166965995Y-109871136D01*
X166891861Y-110117255D01*
X160156198Y-110117255D01*
X160186915Y-110104563D01*
X160902052Y-109390673D01*
X161289559Y-108457454D01*
X161289676Y-108322745D01*
X166891861Y-108322745D01*
X166965995Y-108568864D01*
X167503223Y-108761965D01*
X168073454Y-108734778D01*
X168474005Y-108568864D01*
X168548139Y-108322745D01*
X167720000Y-107494605D01*
X166891861Y-108322745D01*
X161289676Y-108322745D01*
X161290440Y-107446979D01*
X161146338Y-107098223D01*
X166273035Y-107098223D01*
X166300222Y-107668454D01*
X166466136Y-108069005D01*
X166712255Y-108143139D01*
X167540395Y-107315000D01*
X167899605Y-107315000D01*
X168727745Y-108143139D01*
X168973864Y-108069005D01*
X169166965Y-107531777D01*
X169139778Y-106961546D01*
X168973864Y-106560995D01*
X168727745Y-106486861D01*
X167899605Y-107315000D01*
X167540395Y-107315000D01*
X166712255Y-106486861D01*
X166466136Y-106560995D01*
X166273035Y-107098223D01*
X161146338Y-107098223D01*
X160904563Y-106513085D01*
X160562076Y-106170000D01*
X166933204Y-106170000D01*
X166891861Y-106307255D01*
X167720000Y-107135395D01*
X168548139Y-106307255D01*
X168493693Y-106126499D01*
X168565839Y-106112148D01*
X168812401Y-105947401D01*
X171901435Y-102858367D01*
X171941239Y-102884963D01*
X172720000Y-103039868D01*
X173498761Y-102884963D01*
X174158962Y-102443830D01*
X174600095Y-101783629D01*
X174755000Y-101004868D01*
X174755000Y-100925132D01*
X174600095Y-100146371D01*
X174158962Y-99486170D01*
X173498761Y-99045037D01*
X172720000Y-98890132D01*
X171941239Y-99045037D01*
X171281038Y-99486170D01*
X170839905Y-100146371D01*
X170685000Y-100925132D01*
X170685000Y-101004868D01*
X170837692Y-101772506D01*
X167960198Y-104650000D01*
X157480000Y-104650000D01*
X157237414Y-104698254D01*
X157189160Y-104707852D01*
X156942599Y-104872599D01*
X154625198Y-107190000D01*
X154232463Y-107190000D01*
X154200327Y-107157808D01*
X153856799Y-107015162D01*
X153484833Y-107014838D01*
X153141057Y-107156883D01*
X152877808Y-107419673D01*
X152735162Y-107763201D01*
X152734838Y-108135167D01*
X152869056Y-108460000D01*
X148447655Y-108460000D01*
X148077204Y-108088902D01*
X147586713Y-107885232D01*
X147055617Y-107884769D01*
X146564771Y-108087582D01*
X146188902Y-108462796D01*
X145985232Y-108953287D01*
X145984769Y-109484383D01*
X146187582Y-109975229D01*
X146562796Y-110351098D01*
X147053287Y-110554768D01*
X147584383Y-110555231D01*
X148075229Y-110352418D01*
X148448297Y-109980000D01*
X155260198Y-109980000D01*
X158820198Y-113540000D01*
X154532440Y-113540000D01*
X154532440Y-113450000D01*
X154488162Y-113214683D01*
X154349090Y-112998559D01*
X154136890Y-112853569D01*
X153885000Y-112802560D01*
X152185000Y-112802560D01*
X151949683Y-112846838D01*
X151733559Y-112985910D01*
X151588569Y-113198110D01*
X151537560Y-113450000D01*
X151537560Y-115150000D01*
X151581838Y-115385317D01*
X151720910Y-115601441D01*
X151933110Y-115746431D01*
X152000541Y-115760086D01*
X151955853Y-115789946D01*
X151633946Y-116271715D01*
X151520907Y-116840000D01*
X151633946Y-117408285D01*
X151955853Y-117890054D01*
X152285026Y-118110000D01*
X151955853Y-118329946D01*
X151633946Y-118811715D01*
X151520907Y-119380000D01*
X151633946Y-119948285D01*
X151955853Y-120430054D01*
X152285026Y-120650000D01*
X151955853Y-120869946D01*
X151633946Y-121351715D01*
X151520907Y-121920000D01*
X151633946Y-122488285D01*
X151955853Y-122970054D01*
X152285026Y-123190000D01*
X151955853Y-123409946D01*
X151633946Y-123891715D01*
X151520907Y-124460000D01*
X151633946Y-125028285D01*
X151955853Y-125510054D01*
X152285026Y-125730000D01*
X151955853Y-125949946D01*
X151633946Y-126431715D01*
X151520907Y-127000000D01*
X151633946Y-127568285D01*
X151955853Y-128050054D01*
X152437622Y-128371961D01*
X153005907Y-128485000D01*
X153064093Y-128485000D01*
X153632378Y-128371961D01*
X154114147Y-128050054D01*
X154307954Y-127760000D01*
X175892046Y-127760000D01*
X176085853Y-128050054D01*
X176415026Y-128270000D01*
X176085853Y-128489946D01*
X175763946Y-128971715D01*
X175650907Y-129540000D01*
X175763946Y-130108285D01*
X176085853Y-130590054D01*
X176415026Y-130810000D01*
X176085853Y-131029946D01*
X175763946Y-131511715D01*
X175650907Y-132080000D01*
X175763946Y-132648285D01*
X176085853Y-133130054D01*
X176567622Y-133451961D01*
X177135907Y-133565000D01*
X177194093Y-133565000D01*
X177762378Y-133451961D01*
X178244147Y-133130054D01*
X178566054Y-132648285D01*
X178679093Y-132080000D01*
X178566054Y-131511715D01*
X178244147Y-131029946D01*
X177914974Y-130810000D01*
X178244147Y-130590054D01*
X178566054Y-130108285D01*
X178679093Y-129540000D01*
X178566054Y-128971715D01*
X178244147Y-128489946D01*
X177914974Y-128270000D01*
X178244147Y-128050054D01*
X178566054Y-127568285D01*
X178679093Y-127000000D01*
X178566054Y-126431715D01*
X178244147Y-125949946D01*
X177914974Y-125730000D01*
X178244147Y-125510054D01*
X178566054Y-125028285D01*
X178679093Y-124460000D01*
X178566054Y-123891715D01*
X178244147Y-123409946D01*
X177914974Y-123190000D01*
X178244147Y-122970054D01*
X178566054Y-122488285D01*
X178679093Y-121920000D01*
X178566054Y-121351715D01*
X178244147Y-120869946D01*
X177914974Y-120650000D01*
X178244147Y-120430054D01*
X178566054Y-119948285D01*
X178679093Y-119380000D01*
X178566054Y-118811715D01*
X178244147Y-118329946D01*
X177914974Y-118110000D01*
X178244147Y-117890054D01*
X178566054Y-117408285D01*
X178679093Y-116840000D01*
X178566054Y-116271715D01*
X178244147Y-115789946D01*
X178202548Y-115762150D01*
X178250317Y-115753162D01*
X178466441Y-115614090D01*
X178611431Y-115401890D01*
X178662440Y-115150000D01*
X178662440Y-114509019D01*
X178820000Y-114666579D01*
X178820000Y-125094995D01*
X178819999Y-125095000D01*
X178849837Y-125245000D01*
X178887367Y-125433675D01*
X179017236Y-125628039D01*
X179079210Y-125720790D01*
X180747560Y-127389139D01*
X180747560Y-128485000D01*
X180791838Y-128720317D01*
X180930910Y-128936441D01*
X181143110Y-129081431D01*
X181395000Y-129132440D01*
X183095000Y-129132440D01*
X183330317Y-129088162D01*
X183546441Y-128949090D01*
X183691431Y-128736890D01*
X183705086Y-128669459D01*
X183734946Y-128714147D01*
X184216715Y-129036054D01*
X184785000Y-129149093D01*
X185353285Y-129036054D01*
X185835054Y-128714147D01*
X186156961Y-128232378D01*
X186270000Y-127664093D01*
X186270000Y-127605907D01*
X186156961Y-127037622D01*
X185835054Y-126555853D01*
X185551899Y-126366655D01*
X185551924Y-126366645D01*
X185980183Y-125976358D01*
X186226486Y-125451892D01*
X186105819Y-125222000D01*
X184912000Y-125222000D01*
X184912000Y-125242000D01*
X184658000Y-125242000D01*
X184658000Y-125222000D01*
X184638000Y-125222000D01*
X184638000Y-124968000D01*
X184658000Y-124968000D01*
X184658000Y-123774845D01*
X184912000Y-123774845D01*
X184912000Y-124968000D01*
X186105819Y-124968000D01*
X186226486Y-124738108D01*
X185980183Y-124213642D01*
X185551924Y-123823355D01*
X185141890Y-123653524D01*
X184912000Y-123774845D01*
X184658000Y-123774845D01*
X184428110Y-123653524D01*
X184018076Y-123823355D01*
X183715063Y-124099501D01*
X183698162Y-124009683D01*
X183559090Y-123793559D01*
X183346890Y-123648569D01*
X183095000Y-123597560D01*
X181395000Y-123597560D01*
X181159683Y-123641838D01*
X180943559Y-123780910D01*
X180798569Y-123993110D01*
X180747560Y-124245000D01*
X180747560Y-124885980D01*
X180590000Y-124728420D01*
X180590000Y-118552619D01*
X181914613Y-118552619D01*
X182254155Y-119374372D01*
X182882321Y-120003636D01*
X183703481Y-120344611D01*
X184592619Y-120345387D01*
X185414372Y-120005845D01*
X186043636Y-119377679D01*
X186384611Y-118556519D01*
X186385387Y-117667381D01*
X186045845Y-116845628D01*
X185417679Y-116216364D01*
X184596519Y-115875389D01*
X183707381Y-115874613D01*
X182885628Y-116214155D01*
X182256364Y-116842321D01*
X181915389Y-117663481D01*
X181914613Y-118552619D01*
X180590000Y-118552619D01*
X180590000Y-114300005D01*
X180590001Y-114300000D01*
X180522633Y-113961326D01*
X180522633Y-113961325D01*
X180330790Y-113674210D01*
X180330787Y-113674208D01*
X178666580Y-112010000D01*
X180668178Y-112010000D01*
X180788201Y-112059838D01*
X181160167Y-112060162D01*
X181503943Y-111918117D01*
X181767192Y-111655327D01*
X181909838Y-111311799D01*
X181910162Y-110939833D01*
X181768117Y-110596057D01*
X181505327Y-110332808D01*
X181161799Y-110190162D01*
X180789833Y-110189838D01*
X180668431Y-110240000D01*
X178264228Y-110240000D01*
X178566054Y-109788285D01*
X178679093Y-109220000D01*
X178577648Y-108710000D01*
X180340000Y-108710000D01*
X180630839Y-108652148D01*
X180877401Y-108487401D01*
X181201071Y-108163731D01*
X181610000Y-108245072D01*
X182197419Y-108128227D01*
X182695409Y-107795481D01*
X183028155Y-107297491D01*
X183145000Y-106710072D01*
X183145000Y-106649928D01*
X183028155Y-106062509D01*
X182695409Y-105564519D01*
X182457418Y-105405499D01*
X182847966Y-105047576D01*
X183101046Y-104504742D01*
X182980997Y-104267000D01*
X181737000Y-104267000D01*
X181737000Y-104287000D01*
X181483000Y-104287000D01*
X181483000Y-104267000D01*
X180239003Y-104267000D01*
X180118954Y-104504742D01*
X180372034Y-105047576D01*
X180762582Y-105405499D01*
X180524591Y-105564519D01*
X180191845Y-106062509D01*
X180075000Y-106649928D01*
X180075000Y-106710072D01*
X180146363Y-107068835D01*
X180025198Y-107190000D01*
X178577648Y-107190000D01*
X178679093Y-106680000D01*
X178566054Y-106111715D01*
X178244147Y-105629946D01*
X177914974Y-105410000D01*
X178244147Y-105190054D01*
X178566054Y-104708285D01*
X178679093Y-104140000D01*
X178582620Y-103655000D01*
X179705000Y-103655000D01*
X180005407Y-103595245D01*
X180260079Y-103425079D01*
X180301548Y-103383610D01*
X180118954Y-103775258D01*
X180239003Y-104013000D01*
X181483000Y-104013000D01*
X181483000Y-103993000D01*
X181737000Y-103993000D01*
X181737000Y-104013000D01*
X182980997Y-104013000D01*
X183101046Y-103775258D01*
X182847966Y-103232424D01*
X182713462Y-103109156D01*
X182745317Y-103103162D01*
X182961441Y-102964090D01*
X183106431Y-102751890D01*
X183157440Y-102500000D01*
X183157440Y-100700000D01*
X183113162Y-100464683D01*
X182974090Y-100248559D01*
X182761890Y-100103569D01*
X182510000Y-100052560D01*
X180710000Y-100052560D01*
X180474683Y-100096838D01*
X180258559Y-100235910D01*
X180113569Y-100448110D01*
X180062560Y-100700000D01*
X180062560Y-101402282D01*
X179379842Y-102085000D01*
X178582620Y-102085000D01*
X178679093Y-101600000D01*
X178566054Y-101031715D01*
X178244147Y-100549946D01*
X177914974Y-100330000D01*
X178244147Y-100110054D01*
X178566054Y-99628285D01*
X178679093Y-99060000D01*
X178566054Y-98491715D01*
X178244147Y-98009946D01*
X177914974Y-97790000D01*
X178244147Y-97570054D01*
X178566054Y-97088285D01*
X178679093Y-96520000D01*
X178566054Y-95951715D01*
X178244147Y-95469946D01*
X177914974Y-95250000D01*
X178244147Y-95030054D01*
X178566054Y-94548285D01*
X178679093Y-93980000D01*
X178577648Y-93470000D01*
X179705000Y-93470000D01*
X179995839Y-93412148D01*
X180242401Y-93247401D01*
X181201071Y-92288731D01*
X181610000Y-92370072D01*
X182197419Y-92253227D01*
X182695409Y-91920481D01*
X183028155Y-91422491D01*
X183145000Y-90835072D01*
X183145000Y-90774928D01*
X183028155Y-90187509D01*
X182695409Y-89689519D01*
X182457418Y-89530499D01*
X182847966Y-89172576D01*
X183101046Y-88629742D01*
X182980997Y-88392000D01*
X181737000Y-88392000D01*
X181737000Y-88412000D01*
X181483000Y-88412000D01*
X181483000Y-88392000D01*
X181463000Y-88392000D01*
X181463000Y-88138000D01*
X181483000Y-88138000D01*
X181483000Y-88118000D01*
X181737000Y-88118000D01*
X181737000Y-88138000D01*
X182980997Y-88138000D01*
X183101046Y-87900258D01*
X182847966Y-87357424D01*
X182713462Y-87234156D01*
X182745317Y-87228162D01*
X182961441Y-87089090D01*
X183106431Y-86876890D01*
X183157440Y-86625000D01*
X183157440Y-84825000D01*
X183113162Y-84589683D01*
X182974090Y-84373559D01*
X182761890Y-84228569D01*
X182510000Y-84177560D01*
X180710000Y-84177560D01*
X180474683Y-84221838D01*
X180258559Y-84360910D01*
X180113569Y-84573110D01*
X180062560Y-84825000D01*
X180062560Y-86197638D01*
X178120198Y-88140000D01*
X174625000Y-88140000D01*
X174334161Y-88197852D01*
X174087599Y-88362599D01*
X173692638Y-88757560D01*
X171320000Y-88757560D01*
X171084683Y-88801838D01*
X170868559Y-88940910D01*
X170723569Y-89153110D01*
X170672560Y-89405000D01*
X170672560Y-91492758D01*
X168812401Y-89632599D01*
X168565839Y-89467852D01*
X168275000Y-89410000D01*
X157480000Y-89410000D01*
X157189161Y-89467852D01*
X156942599Y-89632599D01*
X156530198Y-90045000D01*
X146050000Y-90045000D01*
X145759161Y-90102852D01*
X145512599Y-90267599D01*
X133670198Y-102110000D01*
X130317648Y-102110000D01*
X130419093Y-101600000D01*
X130306054Y-101031715D01*
X129984147Y-100549946D01*
X129654974Y-100330000D01*
X129984147Y-100110054D01*
X130306054Y-99628285D01*
X130419093Y-99060000D01*
X130306054Y-98491715D01*
X129984147Y-98009946D01*
X129654974Y-97790000D01*
X129984147Y-97570054D01*
X130306054Y-97088285D01*
X130419093Y-96520000D01*
X130306054Y-95951715D01*
X129984147Y-95469946D01*
X129654974Y-95250000D01*
X129984147Y-95030054D01*
X130306054Y-94548285D01*
X130419093Y-93980000D01*
X130306054Y-93411715D01*
X129984147Y-92929946D01*
X129654974Y-92710000D01*
X129984147Y-92490054D01*
X130306054Y-92008285D01*
X130419093Y-91440000D01*
X130306054Y-90871715D01*
X129984147Y-90389946D01*
X129654974Y-90170000D01*
X129984147Y-89950054D01*
X130306054Y-89468285D01*
X130419093Y-88900000D01*
X130306054Y-88331715D01*
X129984147Y-87849946D01*
X129942548Y-87822150D01*
X129990317Y-87813162D01*
X130206441Y-87674090D01*
X130351431Y-87461890D01*
X130402440Y-87210000D01*
X130402440Y-85510000D01*
X130358162Y-85274683D01*
X130239322Y-85090000D01*
X136355132Y-85090000D01*
X136510037Y-85868761D01*
X136951170Y-86528962D01*
X137611371Y-86970095D01*
X138390132Y-87125000D01*
X138469868Y-87125000D01*
X139248629Y-86970095D01*
X139908830Y-86528962D01*
X140349963Y-85868761D01*
X140504868Y-85090000D01*
X140368276Y-84403304D01*
X141971579Y-82800000D01*
X157640868Y-82800000D01*
X157313085Y-82935437D01*
X156597948Y-83649327D01*
X156367212Y-84205000D01*
X150637440Y-84205000D01*
X150637440Y-83690000D01*
X150593162Y-83454683D01*
X150454090Y-83238559D01*
X150241890Y-83093569D01*
X149990000Y-83042560D01*
X147190000Y-83042560D01*
X146954683Y-83086838D01*
X146738559Y-83225910D01*
X146593569Y-83438110D01*
X146542560Y-83690000D01*
X146542560Y-86490000D01*
X146586838Y-86725317D01*
X146725910Y-86941441D01*
X146938110Y-87086431D01*
X147190000Y-87137440D01*
X149990000Y-87137440D01*
X150225317Y-87093162D01*
X150441441Y-86954090D01*
X150586431Y-86741890D01*
X150637440Y-86490000D01*
X150637440Y-85975000D01*
X156367390Y-85975000D01*
X156595437Y-86526915D01*
X157309327Y-87242052D01*
X158242546Y-87629559D01*
X159253021Y-87630440D01*
X160186915Y-87244563D01*
X160902052Y-86530673D01*
X161289559Y-85597454D01*
X161290440Y-84586979D01*
X160904563Y-83653085D01*
X160190673Y-82937948D01*
X159858458Y-82800000D01*
X160288420Y-82800000D01*
X161934208Y-84445787D01*
X161934210Y-84445790D01*
X162221325Y-84637633D01*
X162274142Y-84648139D01*
X162560000Y-84705001D01*
X162560005Y-84705000D01*
X163955829Y-84705000D01*
X164286077Y-85035824D01*
X164430564Y-85095820D01*
X164057189Y-85345302D01*
X163746120Y-85810849D01*
X163636887Y-86360000D01*
X163746120Y-86909151D01*
X164057189Y-87374698D01*
X164522736Y-87685767D01*
X165071887Y-87795000D01*
X165128113Y-87795000D01*
X165677264Y-87685767D01*
X166142811Y-87374698D01*
X166453880Y-86909151D01*
X166506584Y-86644187D01*
X171284752Y-86644187D01*
X171502757Y-87171800D01*
X171906077Y-87575824D01*
X172433309Y-87794750D01*
X173004187Y-87795248D01*
X173531800Y-87577243D01*
X173935824Y-87173923D01*
X174154750Y-86646691D01*
X174155000Y-86360000D01*
X175650907Y-86360000D01*
X175763946Y-86928285D01*
X176085853Y-87410054D01*
X176567622Y-87731961D01*
X177135907Y-87845000D01*
X177194093Y-87845000D01*
X177762378Y-87731961D01*
X178244147Y-87410054D01*
X178566054Y-86928285D01*
X178679093Y-86360000D01*
X178566054Y-85791715D01*
X178244147Y-85309946D01*
X177903447Y-85082298D01*
X178046358Y-85015183D01*
X178436645Y-84586924D01*
X178606476Y-84176890D01*
X178485155Y-83947000D01*
X177292000Y-83947000D01*
X177292000Y-83967000D01*
X177038000Y-83967000D01*
X177038000Y-83947000D01*
X175844845Y-83947000D01*
X175723524Y-84176890D01*
X175893355Y-84586924D01*
X176283642Y-85015183D01*
X176426553Y-85082298D01*
X176085853Y-85309946D01*
X175763946Y-85791715D01*
X175650907Y-86360000D01*
X174155000Y-86360000D01*
X174155248Y-86075813D01*
X173937243Y-85548200D01*
X173533923Y-85144176D01*
X173006691Y-84925250D01*
X172435813Y-84924752D01*
X171908200Y-85142757D01*
X171504176Y-85546077D01*
X171285250Y-86073309D01*
X171284752Y-86644187D01*
X166506584Y-86644187D01*
X166563113Y-86360000D01*
X166453880Y-85810849D01*
X166142811Y-85345302D01*
X165769664Y-85095973D01*
X165911800Y-85037243D01*
X166121663Y-84827745D01*
X169271861Y-84827745D01*
X169345995Y-85073864D01*
X169883223Y-85266965D01*
X170453454Y-85239778D01*
X170854005Y-85073864D01*
X170928139Y-84827745D01*
X170100000Y-83999605D01*
X169271861Y-84827745D01*
X166121663Y-84827745D01*
X166315824Y-84633923D01*
X166534750Y-84106691D01*
X166535189Y-83603223D01*
X168653035Y-83603223D01*
X168680222Y-84173454D01*
X168846136Y-84574005D01*
X169092255Y-84648139D01*
X169920395Y-83820000D01*
X170279605Y-83820000D01*
X171107745Y-84648139D01*
X171353864Y-84574005D01*
X171546965Y-84036777D01*
X171519778Y-83466546D01*
X171353864Y-83065995D01*
X171107745Y-82991861D01*
X170279605Y-83820000D01*
X169920395Y-83820000D01*
X169092255Y-82991861D01*
X168846136Y-83065995D01*
X168653035Y-83603223D01*
X166535189Y-83603223D01*
X166535248Y-83535813D01*
X166317243Y-83008200D01*
X166121640Y-82812255D01*
X169271861Y-82812255D01*
X170100000Y-83640395D01*
X170928139Y-82812255D01*
X170854005Y-82566136D01*
X170316777Y-82373035D01*
X169746546Y-82400222D01*
X169345995Y-82566136D01*
X169271861Y-82812255D01*
X166121640Y-82812255D01*
X165913923Y-82604176D01*
X165386691Y-82385250D01*
X164815813Y-82384752D01*
X164288200Y-82602757D01*
X163955377Y-82935000D01*
X162926579Y-82935000D01*
X161628470Y-81636890D01*
X175723524Y-81636890D01*
X175893355Y-82046924D01*
X176283642Y-82475183D01*
X176442954Y-82550000D01*
X176283642Y-82624817D01*
X175893355Y-83053076D01*
X175723524Y-83463110D01*
X175844845Y-83693000D01*
X177038000Y-83693000D01*
X177038000Y-81407000D01*
X177292000Y-81407000D01*
X177292000Y-83693000D01*
X178485155Y-83693000D01*
X178606476Y-83463110D01*
X178436645Y-83053076D01*
X178046358Y-82624817D01*
X177887046Y-82550000D01*
X178046358Y-82475183D01*
X178436645Y-82046924D01*
X178606476Y-81636890D01*
X178485155Y-81407000D01*
X177292000Y-81407000D01*
X177038000Y-81407000D01*
X175844845Y-81407000D01*
X175723524Y-81636890D01*
X161628470Y-81636890D01*
X161280790Y-81289210D01*
X160993675Y-81097367D01*
X160937484Y-81086190D01*
X160655000Y-81029999D01*
X160654995Y-81030000D01*
X141605005Y-81030000D01*
X141605000Y-81029999D01*
X141322516Y-81086190D01*
X141266325Y-81097367D01*
X140979210Y-81289210D01*
X140979208Y-81289213D01*
X139090057Y-83178363D01*
X138469868Y-83055000D01*
X138390132Y-83055000D01*
X137611371Y-83209905D01*
X136951170Y-83651038D01*
X136510037Y-84311239D01*
X136355132Y-85090000D01*
X130239322Y-85090000D01*
X130219090Y-85058559D01*
X130006890Y-84913569D01*
X129755000Y-84862560D01*
X128055000Y-84862560D01*
X127819683Y-84906838D01*
X127603559Y-85045910D01*
X127458569Y-85258110D01*
X127407560Y-85510000D01*
X127407560Y-87210000D01*
X127451838Y-87445317D01*
X127590910Y-87661441D01*
X127803110Y-87806431D01*
X127870541Y-87820086D01*
X127825853Y-87849946D01*
X127503946Y-88331715D01*
X127390907Y-88900000D01*
X127503946Y-89468285D01*
X127825853Y-89950054D01*
X128155026Y-90170000D01*
X127825853Y-90389946D01*
X127503946Y-90871715D01*
X127390907Y-91440000D01*
X127503946Y-92008285D01*
X127825853Y-92490054D01*
X128155026Y-92710000D01*
X127825853Y-92929946D01*
X127503946Y-93411715D01*
X127390907Y-93980000D01*
X127503946Y-94548285D01*
X127825853Y-95030054D01*
X128155026Y-95250000D01*
X127825853Y-95469946D01*
X127503946Y-95951715D01*
X127390907Y-96520000D01*
X127503946Y-97088285D01*
X127825853Y-97570054D01*
X128155026Y-97790000D01*
X127825853Y-98009946D01*
X127503946Y-98491715D01*
X127390907Y-99060000D01*
X127503946Y-99628285D01*
X127825853Y-100110054D01*
X128155026Y-100330000D01*
X127825853Y-100549946D01*
X127503946Y-101031715D01*
X127390907Y-101600000D01*
X127497782Y-102137295D01*
X127344160Y-102167852D01*
X127097599Y-102332599D01*
X123050320Y-106379878D01*
X123004833Y-106379838D01*
X122661057Y-106521883D01*
X122397808Y-106784673D01*
X122255162Y-107128201D01*
X122254838Y-107500167D01*
X122396883Y-107843943D01*
X122659673Y-108107192D01*
X123003201Y-108249838D01*
X123375167Y-108250162D01*
X123718943Y-108108117D01*
X123982192Y-107845327D01*
X124124838Y-107501799D01*
X124124879Y-107454923D01*
X127399019Y-104180783D01*
X127503946Y-104708285D01*
X127825853Y-105190054D01*
X128037242Y-105331299D01*
X127979161Y-105342852D01*
X127732599Y-105507599D01*
X125827599Y-107412599D01*
X125662852Y-107659161D01*
X125605000Y-107950000D01*
X125605000Y-113326799D01*
X125211707Y-113064009D01*
X124739093Y-112970000D01*
X124180907Y-112970000D01*
X123708293Y-113064009D01*
X123307630Y-113331723D01*
X123039916Y-113732386D01*
X122945907Y-114205000D01*
X123039916Y-114677614D01*
X123289130Y-115050590D01*
X123250301Y-115066673D01*
X123071673Y-115245302D01*
X122975000Y-115478691D01*
X122975000Y-115919250D01*
X123133750Y-116078000D01*
X124333000Y-116078000D01*
X124333000Y-116058000D01*
X124587000Y-116058000D01*
X124587000Y-116078000D01*
X124607000Y-116078000D01*
X124607000Y-116332000D01*
X124587000Y-116332000D01*
X124587000Y-117281250D01*
X124717275Y-117411525D01*
X122017599Y-120111201D01*
X121852852Y-120357763D01*
X121795000Y-120648602D01*
X119430000Y-120648602D01*
X119430000Y-116490750D01*
X122975000Y-116490750D01*
X122975000Y-116931309D01*
X123071673Y-117164698D01*
X123250301Y-117343327D01*
X123483690Y-117440000D01*
X124174250Y-117440000D01*
X124333000Y-117281250D01*
X124333000Y-116332000D01*
X123133750Y-116332000D01*
X122975000Y-116490750D01*
X119430000Y-116490750D01*
X119430000Y-69850000D01*
X121040907Y-69850000D01*
X121153946Y-70418285D01*
X121475853Y-70900054D01*
X121805026Y-71120000D01*
X121475853Y-71339946D01*
X121153946Y-71821715D01*
X121040907Y-72390000D01*
X121153946Y-72958285D01*
X121475853Y-73440054D01*
X121805026Y-73660000D01*
X121475853Y-73879946D01*
X121153946Y-74361715D01*
X121040907Y-74930000D01*
X121153946Y-75498285D01*
X121475853Y-75980054D01*
X121805026Y-76200000D01*
X121475853Y-76419946D01*
X121153946Y-76901715D01*
X121040907Y-77470000D01*
X121153946Y-78038285D01*
X121475853Y-78520054D01*
X121805026Y-78740000D01*
X121475853Y-78959946D01*
X121153946Y-79441715D01*
X121040907Y-80010000D01*
X121153946Y-80578285D01*
X121475853Y-81060054D01*
X121805026Y-81280000D01*
X121475853Y-81499946D01*
X121153946Y-81981715D01*
X121040907Y-82550000D01*
X121153946Y-83118285D01*
X121475853Y-83600054D01*
X121957622Y-83921961D01*
X122525907Y-84035000D01*
X122584093Y-84035000D01*
X123152378Y-83921961D01*
X123634147Y-83600054D01*
X123811250Y-83335000D01*
X127648750Y-83335000D01*
X127825853Y-83600054D01*
X128307622Y-83921961D01*
X128875907Y-84035000D01*
X128934093Y-84035000D01*
X129502378Y-83921961D01*
X129984147Y-83600054D01*
X130306054Y-83118285D01*
X130419093Y-82550000D01*
X130306054Y-81981715D01*
X129984147Y-81499946D01*
X129654974Y-81280000D01*
X129984147Y-81060054D01*
X130306054Y-80578285D01*
X130419093Y-80010000D01*
X130306054Y-79441715D01*
X130195622Y-79276440D01*
X157123165Y-79276440D01*
X157332353Y-79637289D01*
X158269650Y-80014824D01*
X159280077Y-80004933D01*
X160167647Y-79637289D01*
X160376835Y-79276440D01*
X158750000Y-77649605D01*
X157123165Y-79276440D01*
X130195622Y-79276440D01*
X129984147Y-78959946D01*
X129654974Y-78740000D01*
X129984147Y-78520054D01*
X130306054Y-78038285D01*
X130419093Y-77470000D01*
X130323546Y-76989650D01*
X156205176Y-76989650D01*
X156215067Y-78000077D01*
X156582711Y-78887647D01*
X156943560Y-79096835D01*
X158570395Y-77470000D01*
X158929605Y-77470000D01*
X160556440Y-79096835D01*
X160917289Y-78887647D01*
X161294824Y-77950350D01*
X161284933Y-76939923D01*
X160917289Y-76052353D01*
X160556440Y-75843165D01*
X158929605Y-77470000D01*
X158570395Y-77470000D01*
X156943560Y-75843165D01*
X156582711Y-76052353D01*
X156205176Y-76989650D01*
X130323546Y-76989650D01*
X130306054Y-76901715D01*
X129984147Y-76419946D01*
X129654974Y-76200000D01*
X129984147Y-75980054D01*
X130195621Y-75663560D01*
X157123165Y-75663560D01*
X158750000Y-77290395D01*
X160376835Y-75663560D01*
X160167647Y-75302711D01*
X159230350Y-74925176D01*
X158219923Y-74935067D01*
X157332353Y-75302711D01*
X157123165Y-75663560D01*
X130195621Y-75663560D01*
X130306054Y-75498285D01*
X130419093Y-74930000D01*
X130306054Y-74361715D01*
X129984147Y-73879946D01*
X129654974Y-73660000D01*
X129984147Y-73440054D01*
X130070544Y-73310750D01*
X163615000Y-73310750D01*
X163615000Y-74001310D01*
X163711673Y-74234699D01*
X163890302Y-74413327D01*
X164123691Y-74510000D01*
X164814250Y-74510000D01*
X164973000Y-74351250D01*
X164973000Y-73152000D01*
X163773750Y-73152000D01*
X163615000Y-73310750D01*
X130070544Y-73310750D01*
X130306054Y-72958285D01*
X130419093Y-72390000D01*
X130306054Y-71821715D01*
X129984147Y-71339946D01*
X129654974Y-71120000D01*
X129984147Y-70900054D01*
X130306054Y-70418285D01*
X130419093Y-69850000D01*
X136355132Y-69850000D01*
X136510037Y-70628761D01*
X136951170Y-71288962D01*
X137611371Y-71730095D01*
X138390132Y-71885000D01*
X138469868Y-71885000D01*
X139248629Y-71730095D01*
X139908830Y-71288962D01*
X140349963Y-70628761D01*
X140504868Y-69850000D01*
X140349963Y-69071239D01*
X139934864Y-68450000D01*
X146542560Y-68450000D01*
X146542560Y-71250000D01*
X146586838Y-71485317D01*
X146725910Y-71701441D01*
X146938110Y-71846431D01*
X147190000Y-71897440D01*
X149990000Y-71897440D01*
X150225317Y-71853162D01*
X150441441Y-71714090D01*
X150586431Y-71501890D01*
X150637440Y-71250000D01*
X150637440Y-70735000D01*
X156367390Y-70735000D01*
X156595437Y-71286915D01*
X157309327Y-72002052D01*
X158242546Y-72389559D01*
X159253021Y-72390440D01*
X160080119Y-72048690D01*
X163615000Y-72048690D01*
X163615000Y-72739250D01*
X163773750Y-72898000D01*
X164973000Y-72898000D01*
X164973000Y-70612000D01*
X163779845Y-70612000D01*
X163658524Y-70841890D01*
X163828355Y-71251924D01*
X164099878Y-71549864D01*
X163890302Y-71636673D01*
X163711673Y-71815301D01*
X163615000Y-72048690D01*
X160080119Y-72048690D01*
X160186915Y-72004563D01*
X160902052Y-71290673D01*
X161289559Y-70357454D01*
X161289758Y-70128110D01*
X163658524Y-70128110D01*
X163779845Y-70358000D01*
X164973000Y-70358000D01*
X164973000Y-69164181D01*
X164743108Y-69043514D01*
X164218642Y-69289817D01*
X163828355Y-69718076D01*
X163658524Y-70128110D01*
X161289758Y-70128110D01*
X161290440Y-69346979D01*
X160904563Y-68413085D01*
X160190673Y-67697948D01*
X159257454Y-67310441D01*
X158246979Y-67309560D01*
X157313085Y-67695437D01*
X156597948Y-68409327D01*
X156367212Y-68965000D01*
X150637440Y-68965000D01*
X150637440Y-68450000D01*
X150593162Y-68214683D01*
X150454090Y-67998559D01*
X150241890Y-67853569D01*
X149990000Y-67802560D01*
X147190000Y-67802560D01*
X146954683Y-67846838D01*
X146738559Y-67985910D01*
X146593569Y-68198110D01*
X146542560Y-68450000D01*
X139934864Y-68450000D01*
X139908830Y-68411038D01*
X139248629Y-67969905D01*
X138469868Y-67815000D01*
X138390132Y-67815000D01*
X137611371Y-67969905D01*
X136951170Y-68411038D01*
X136510037Y-69071239D01*
X136355132Y-69850000D01*
X130419093Y-69850000D01*
X130306054Y-69281715D01*
X129984147Y-68799946D01*
X129643447Y-68572298D01*
X129786358Y-68505183D01*
X130176645Y-68076924D01*
X130346476Y-67666890D01*
X130225155Y-67437000D01*
X129032000Y-67437000D01*
X129032000Y-67457000D01*
X128778000Y-67457000D01*
X128778000Y-67437000D01*
X127584845Y-67437000D01*
X127463524Y-67666890D01*
X127633355Y-68076924D01*
X128023642Y-68505183D01*
X128166553Y-68572298D01*
X127825853Y-68799946D01*
X127648750Y-69065000D01*
X123811250Y-69065000D01*
X123634147Y-68799946D01*
X123293447Y-68572298D01*
X123436358Y-68505183D01*
X123826645Y-68076924D01*
X123996476Y-67666890D01*
X123875155Y-67437000D01*
X122682000Y-67437000D01*
X122682000Y-67457000D01*
X122428000Y-67457000D01*
X122428000Y-67437000D01*
X121234845Y-67437000D01*
X121113524Y-67666890D01*
X121283355Y-68076924D01*
X121673642Y-68505183D01*
X121816553Y-68572298D01*
X121475853Y-68799946D01*
X121153946Y-69281715D01*
X121040907Y-69850000D01*
X119430000Y-69850000D01*
X119430000Y-63920000D01*
X121057560Y-63920000D01*
X121057560Y-65620000D01*
X121101838Y-65855317D01*
X121240910Y-66071441D01*
X121453110Y-66216431D01*
X121561107Y-66238301D01*
X121283355Y-66543076D01*
X121113524Y-66953110D01*
X121234845Y-67183000D01*
X122428000Y-67183000D01*
X122428000Y-67163000D01*
X122682000Y-67163000D01*
X122682000Y-67183000D01*
X123875155Y-67183000D01*
X123996476Y-66953110D01*
X123826645Y-66543076D01*
X123550499Y-66240063D01*
X123640317Y-66223162D01*
X123856441Y-66084090D01*
X124001431Y-65871890D01*
X124052440Y-65620000D01*
X124052440Y-65555000D01*
X127407560Y-65555000D01*
X127407560Y-65620000D01*
X127451838Y-65855317D01*
X127590910Y-66071441D01*
X127803110Y-66216431D01*
X127911107Y-66238301D01*
X127633355Y-66543076D01*
X127463524Y-66953110D01*
X127584845Y-67183000D01*
X128778000Y-67183000D01*
X128778000Y-67163000D01*
X129032000Y-67163000D01*
X129032000Y-67183000D01*
X130225155Y-67183000D01*
X130346476Y-66953110D01*
X130176645Y-66543076D01*
X129900499Y-66240063D01*
X129990317Y-66223162D01*
X130206441Y-66084090D01*
X130351431Y-65871890D01*
X130402440Y-65620000D01*
X130402440Y-63920000D01*
X130358162Y-63684683D01*
X130219090Y-63468559D01*
X130006890Y-63323569D01*
X129755000Y-63272560D01*
X128055000Y-63272560D01*
X127819683Y-63316838D01*
X127603559Y-63455910D01*
X127458569Y-63668110D01*
X127407560Y-63920000D01*
X127407560Y-63985000D01*
X124052440Y-63985000D01*
X124052440Y-63920000D01*
X124008162Y-63684683D01*
X123869090Y-63468559D01*
X123656890Y-63323569D01*
X123405000Y-63272560D01*
X121705000Y-63272560D01*
X121469683Y-63316838D01*
X121253559Y-63455910D01*
X121108569Y-63668110D01*
X121057560Y-63920000D01*
X119430000Y-63920000D01*
X119430000Y-62838846D01*
X151065000Y-62838846D01*
X151065000Y-62891154D01*
X151166621Y-63402036D01*
X151456012Y-63835142D01*
X151889118Y-64124533D01*
X152400000Y-64226154D01*
X152491395Y-64207974D01*
X154314208Y-66030787D01*
X154314210Y-66030790D01*
X154601325Y-66222633D01*
X154940000Y-66290000D01*
X164098420Y-66290000D01*
X166755000Y-68946579D01*
X166755000Y-69305221D01*
X166560853Y-69434946D01*
X166371655Y-69718101D01*
X166371645Y-69718076D01*
X165981358Y-69289817D01*
X165456892Y-69043514D01*
X165227000Y-69164181D01*
X165227000Y-70358000D01*
X165247000Y-70358000D01*
X165247000Y-70612000D01*
X165227000Y-70612000D01*
X165227000Y-72898000D01*
X165247000Y-72898000D01*
X165247000Y-73152000D01*
X165227000Y-73152000D01*
X165227000Y-74351250D01*
X165385750Y-74510000D01*
X166076309Y-74510000D01*
X166100020Y-74500178D01*
X170760804Y-79160962D01*
X170839905Y-79558629D01*
X171281038Y-80218830D01*
X171941239Y-80659963D01*
X172720000Y-80814868D01*
X173498761Y-80659963D01*
X174158962Y-80218830D01*
X174493300Y-79718458D01*
X175339921Y-80565079D01*
X175594593Y-80735245D01*
X175785599Y-80773239D01*
X175723524Y-80923110D01*
X175844845Y-81153000D01*
X177038000Y-81153000D01*
X177038000Y-81133000D01*
X177292000Y-81133000D01*
X177292000Y-81153000D01*
X178485155Y-81153000D01*
X178606476Y-80923110D01*
X178553414Y-80795000D01*
X179070000Y-80795000D01*
X179370407Y-80735245D01*
X179625079Y-80565079D01*
X182165079Y-78025079D01*
X182335244Y-77770407D01*
X182335245Y-77770406D01*
X182395000Y-77470000D01*
X182395000Y-75611208D01*
X182695409Y-75410481D01*
X183028155Y-74912491D01*
X183145000Y-74325072D01*
X183145000Y-74264928D01*
X183028155Y-73677509D01*
X182695409Y-73179519D01*
X182457418Y-73020499D01*
X182847966Y-72662576D01*
X183101046Y-72119742D01*
X182980997Y-71882000D01*
X181737000Y-71882000D01*
X181737000Y-71902000D01*
X181483000Y-71902000D01*
X181483000Y-71882000D01*
X180239003Y-71882000D01*
X180118954Y-72119742D01*
X180372034Y-72662576D01*
X180762582Y-73020499D01*
X180524591Y-73179519D01*
X180191845Y-73677509D01*
X180075000Y-74264928D01*
X180075000Y-74325072D01*
X180191845Y-74912491D01*
X180524591Y-75410481D01*
X180825000Y-75611208D01*
X180825000Y-77144842D01*
X178744842Y-79225000D01*
X178582620Y-79225000D01*
X178679093Y-78740000D01*
X178566054Y-78171715D01*
X178244147Y-77689946D01*
X177914974Y-77470000D01*
X178244147Y-77250054D01*
X178566054Y-76768285D01*
X178679093Y-76200000D01*
X178566054Y-75631715D01*
X178244147Y-75149946D01*
X177914974Y-74930000D01*
X178244147Y-74710054D01*
X178566054Y-74228285D01*
X178679093Y-73660000D01*
X178566054Y-73091715D01*
X178244147Y-72609946D01*
X177914974Y-72390000D01*
X178244147Y-72170054D01*
X178566054Y-71688285D01*
X178679093Y-71120000D01*
X178577648Y-70610000D01*
X180309661Y-70610000D01*
X180458110Y-70711431D01*
X180509146Y-70721766D01*
X180372034Y-70847424D01*
X180118954Y-71390258D01*
X180239003Y-71628000D01*
X181483000Y-71628000D01*
X181483000Y-71608000D01*
X181737000Y-71608000D01*
X181737000Y-71628000D01*
X182980997Y-71628000D01*
X183101046Y-71390258D01*
X182847966Y-70847424D01*
X182713462Y-70724156D01*
X182745317Y-70718162D01*
X182961441Y-70579090D01*
X183106431Y-70366890D01*
X183157440Y-70115000D01*
X183157440Y-68315000D01*
X183113162Y-68079683D01*
X182974090Y-67863559D01*
X182761890Y-67718569D01*
X182510000Y-67667560D01*
X180710000Y-67667560D01*
X180474683Y-67711838D01*
X180258559Y-67850910D01*
X180113569Y-68063110D01*
X180062560Y-68315000D01*
X180062560Y-69090000D01*
X178662440Y-69090000D01*
X178662440Y-67730000D01*
X178618162Y-67494683D01*
X178479090Y-67278559D01*
X178266890Y-67133569D01*
X178015000Y-67082560D01*
X176315000Y-67082560D01*
X176079683Y-67126838D01*
X175863559Y-67265910D01*
X175718569Y-67478110D01*
X175667560Y-67730000D01*
X175667560Y-68547758D01*
X175162401Y-68042599D01*
X174915839Y-67877852D01*
X174767440Y-67848333D01*
X174767440Y-67180000D01*
X174723162Y-66944683D01*
X174584090Y-66728559D01*
X174371890Y-66583569D01*
X174120000Y-66532560D01*
X171320000Y-66532560D01*
X171084683Y-66576838D01*
X170868559Y-66715910D01*
X170723569Y-66928110D01*
X170672560Y-67180000D01*
X170672560Y-69980000D01*
X170716838Y-70215317D01*
X170855910Y-70431441D01*
X171068110Y-70576431D01*
X171320000Y-70627440D01*
X174120000Y-70627440D01*
X174355317Y-70583162D01*
X174571441Y-70444090D01*
X174716431Y-70231890D01*
X174767440Y-69980000D01*
X174767440Y-69797242D01*
X175357599Y-70387401D01*
X175604160Y-70552148D01*
X175757782Y-70582705D01*
X175650907Y-71120000D01*
X175763946Y-71688285D01*
X176085853Y-72170054D01*
X176415026Y-72390000D01*
X176085853Y-72609946D01*
X175763946Y-73091715D01*
X175650907Y-73660000D01*
X175763946Y-74228285D01*
X175956256Y-74516098D01*
X173910079Y-72469921D01*
X173655407Y-72299755D01*
X173355000Y-72240000D01*
X168896250Y-72240000D01*
X168719147Y-71974946D01*
X168389974Y-71755000D01*
X168719147Y-71535054D01*
X169041054Y-71053285D01*
X169154093Y-70485000D01*
X169041054Y-69916715D01*
X168719147Y-69434946D01*
X168525000Y-69305221D01*
X168525000Y-68580005D01*
X168525001Y-68580000D01*
X168457633Y-68241326D01*
X168457633Y-68241325D01*
X168265790Y-67954210D01*
X168265787Y-67954208D01*
X165734262Y-65422682D01*
X166142811Y-65149698D01*
X166453880Y-64684151D01*
X166506584Y-64419187D01*
X171284752Y-64419187D01*
X171502757Y-64946800D01*
X171906077Y-65350824D01*
X172433309Y-65569750D01*
X173004187Y-65570248D01*
X173531800Y-65352243D01*
X173935824Y-64948923D01*
X174154750Y-64421691D01*
X174155248Y-63850813D01*
X173937243Y-63323200D01*
X173533923Y-62919176D01*
X173006691Y-62700250D01*
X172435813Y-62699752D01*
X171908200Y-62917757D01*
X171504176Y-63321077D01*
X171285250Y-63848309D01*
X171284752Y-64419187D01*
X166506584Y-64419187D01*
X166563113Y-64135000D01*
X166453880Y-63585849D01*
X166142811Y-63120302D01*
X165769664Y-62870973D01*
X165911800Y-62812243D01*
X166121663Y-62602745D01*
X169271861Y-62602745D01*
X169345995Y-62848864D01*
X169883223Y-63041965D01*
X170453454Y-63014778D01*
X170854005Y-62848864D01*
X170928139Y-62602745D01*
X170100000Y-61774605D01*
X169271861Y-62602745D01*
X166121663Y-62602745D01*
X166315824Y-62408923D01*
X166534750Y-61881691D01*
X166535189Y-61378223D01*
X168653035Y-61378223D01*
X168680222Y-61948454D01*
X168846136Y-62349005D01*
X169092255Y-62423139D01*
X169920395Y-61595000D01*
X170279605Y-61595000D01*
X171107745Y-62423139D01*
X171353864Y-62349005D01*
X171546965Y-61811777D01*
X171519778Y-61241546D01*
X171353864Y-60840995D01*
X171107745Y-60766861D01*
X170279605Y-61595000D01*
X169920395Y-61595000D01*
X169092255Y-60766861D01*
X168846136Y-60840995D01*
X168653035Y-61378223D01*
X166535189Y-61378223D01*
X166535248Y-61310813D01*
X166317243Y-60783200D01*
X166121640Y-60587255D01*
X169271861Y-60587255D01*
X170100000Y-61415395D01*
X170928139Y-60587255D01*
X170854005Y-60341136D01*
X170316777Y-60148035D01*
X169746546Y-60175222D01*
X169345995Y-60341136D01*
X169271861Y-60587255D01*
X166121640Y-60587255D01*
X165913923Y-60379176D01*
X165386691Y-60160250D01*
X164815813Y-60159752D01*
X164288200Y-60377757D01*
X163884176Y-60781077D01*
X163665250Y-61308309D01*
X163664752Y-61879187D01*
X163882757Y-62406800D01*
X164286077Y-62810824D01*
X164430564Y-62870820D01*
X164057189Y-63120302D01*
X163746120Y-63585849D01*
X163636887Y-64135000D01*
X163713468Y-64520000D01*
X155306579Y-64520000D01*
X153725499Y-62938919D01*
X153735000Y-62891154D01*
X153735000Y-62838846D01*
X153633379Y-62327964D01*
X153343988Y-61894858D01*
X152910882Y-61605467D01*
X152400000Y-61503846D01*
X151889118Y-61605467D01*
X151456012Y-61894858D01*
X151166621Y-62327964D01*
X151065000Y-62838846D01*
X119430000Y-62838846D01*
X119430000Y-60132619D01*
X133019613Y-60132619D01*
X133359155Y-60954372D01*
X133987321Y-61583636D01*
X134808481Y-61924611D01*
X135697619Y-61925387D01*
X136519372Y-61585845D01*
X137148636Y-60957679D01*
X137489611Y-60136519D01*
X137489614Y-60132619D01*
X181914613Y-60132619D01*
X182254155Y-60954372D01*
X182882321Y-61583636D01*
X183703481Y-61924611D01*
X184592619Y-61925387D01*
X185414372Y-61585845D01*
X186043636Y-60957679D01*
X186384611Y-60136519D01*
X186385387Y-59247381D01*
X186045845Y-58425628D01*
X185417679Y-57796364D01*
X184596519Y-57455389D01*
X183707381Y-57454613D01*
X182885628Y-57794155D01*
X182256364Y-58422321D01*
X181915389Y-59243481D01*
X181914613Y-60132619D01*
X137489614Y-60132619D01*
X137490387Y-59247381D01*
X137150845Y-58425628D01*
X136522679Y-57796364D01*
X135701519Y-57455389D01*
X134812381Y-57454613D01*
X133990628Y-57794155D01*
X133361364Y-58422321D01*
X133020389Y-59243481D01*
X133019613Y-60132619D01*
X119430000Y-60132619D01*
X119430000Y-54025000D01*
X127599712Y-54025000D01*
X127011364Y-54612321D01*
X127011364Y-54612321D01*
G37*
X127011364Y-54612321D02*
X126670389Y-55433481D01*
X126669613Y-56322619D01*
X127009155Y-57144372D01*
X127637321Y-57773636D01*
X128458481Y-58114611D01*
X129347619Y-58115387D01*
X130169372Y-57775845D01*
X130798636Y-57147679D01*
X131139611Y-56326519D01*
X131140387Y-55437381D01*
X130800845Y-54615628D01*
X130211248Y-54025000D01*
X151856736Y-54025000D01*
X151644771Y-54112582D01*
X151268902Y-54487796D01*
X151065232Y-54978287D01*
X151064769Y-55509383D01*
X151267582Y-56000229D01*
X151642796Y-56376098D01*
X152133287Y-56579768D01*
X152664383Y-56580231D01*
X153155229Y-56377418D01*
X153403079Y-56130000D01*
X153654532Y-56130000D01*
X154069357Y-56545551D01*
X154633330Y-56779733D01*
X155243991Y-56780265D01*
X155808371Y-56547068D01*
X155985841Y-56369908D01*
X156041673Y-56504699D01*
X156220302Y-56683327D01*
X156453691Y-56780000D01*
X157194250Y-56780000D01*
X157353000Y-56621250D01*
X157353000Y-55372000D01*
X157607000Y-55372000D01*
X157607000Y-56621250D01*
X157765750Y-56780000D01*
X158506309Y-56780000D01*
X158739698Y-56683327D01*
X158918327Y-56504699D01*
X159015000Y-56271310D01*
X159015000Y-55530750D01*
X158856250Y-55372000D01*
X157607000Y-55372000D01*
X157353000Y-55372000D01*
X157333000Y-55372000D01*
X157333000Y-55118000D01*
X157353000Y-55118000D01*
X157353000Y-55098000D01*
X157607000Y-55098000D01*
X157607000Y-55118000D01*
X158856250Y-55118000D01*
X159015000Y-54959250D01*
X159015000Y-54218690D01*
X158934771Y-54025000D01*
X174987891Y-54025000D01*
X174930389Y-54163481D01*
X174929613Y-55052619D01*
X175269155Y-55874372D01*
X175897321Y-56503636D01*
X176718481Y-56844611D01*
X177607619Y-56845387D01*
X178429372Y-56505845D01*
X179058636Y-55877679D01*
X179399611Y-55056519D01*
X179400387Y-54167381D01*
X179341556Y-54025000D01*
X186640000Y-54025000D01*
X186640000Y-152350000D01*
X119430000Y-152350000D01*
X119430000Y-148237817D01*
X119586723Y-148472370D01*
X119987386Y-148740084D01*
X120460000Y-148834093D01*
X120932614Y-148740084D01*
X121333277Y-148472370D01*
X121460000Y-148282715D01*
X121586723Y-148472370D01*
X121987386Y-148740084D01*
X122290150Y-148800308D01*
X123269919Y-149780076D01*
X123269921Y-149780079D01*
X123524594Y-149950245D01*
X123825000Y-150010001D01*
X123825005Y-150010000D01*
X179705000Y-150010000D01*
X180005407Y-149950245D01*
X180260079Y-149780079D01*
X181222718Y-148817440D01*
X182210000Y-148817440D01*
X182445317Y-148773162D01*
X182661441Y-148634090D01*
X182806431Y-148421890D01*
X182857440Y-148170000D01*
X182857440Y-146470000D01*
X182813162Y-146234683D01*
X182674090Y-146018559D01*
X182461890Y-145873569D01*
X182210000Y-145822560D01*
X181010000Y-145822560D01*
X180774683Y-145866838D01*
X180558559Y-146005910D01*
X180454429Y-146158309D01*
X180439125Y-146138067D01*
X180019376Y-145891714D01*
X179927609Y-145876538D01*
X179737000Y-146001269D01*
X179737000Y-147193000D01*
X179757000Y-147193000D01*
X179757000Y-147447000D01*
X179737000Y-147447000D01*
X179737000Y-147467000D01*
X179483000Y-147467000D01*
X179483000Y-147447000D01*
X179463000Y-147447000D01*
X179463000Y-147193000D01*
X179483000Y-147193000D01*
X179483000Y-146001269D01*
X179292391Y-145876538D01*
X179200624Y-145891714D01*
X178780875Y-146138067D01*
X178612410Y-146360891D01*
X178483277Y-146167630D01*
X178082614Y-145899916D01*
X177610000Y-145805907D01*
X177137386Y-145899916D01*
X176736723Y-146167630D01*
X176610000Y-146357285D01*
X176483277Y-146167630D01*
X176082614Y-145899916D01*
X175610000Y-145805907D01*
X175137386Y-145899916D01*
X174775000Y-146142054D01*
X174775000Y-145317506D01*
X174782192Y-145310327D01*
X174924838Y-144966799D01*
X174925162Y-144594833D01*
X174783117Y-144251057D01*
X174520327Y-143987808D01*
X174176799Y-143845162D01*
X173804833Y-143844838D01*
X173461057Y-143986883D01*
X173197808Y-144249673D01*
X173055162Y-144593201D01*
X173054838Y-144965167D01*
X173196883Y-145308943D01*
X173205000Y-145317074D01*
X173205000Y-145477586D01*
X173010839Y-145347852D01*
X172720000Y-145290000D01*
X164305683Y-145290000D01*
X164180000Y-145265000D01*
X158342440Y-145265000D01*
X158342440Y-143930000D01*
X158298162Y-143694683D01*
X158159090Y-143478559D01*
X157946890Y-143333569D01*
X157719933Y-143287609D01*
X180166538Y-143287609D01*
X180181714Y-143379376D01*
X180428067Y-143799125D01*
X180816299Y-144092647D01*
X181287304Y-144215256D01*
X181483000Y-144052547D01*
X181483000Y-143097000D01*
X181737000Y-143097000D01*
X181737000Y-144052547D01*
X181932696Y-144215256D01*
X182403701Y-144092647D01*
X182791933Y-143799125D01*
X183038286Y-143379376D01*
X183053462Y-143287609D01*
X182928731Y-143097000D01*
X181737000Y-143097000D01*
X181483000Y-143097000D01*
X180291269Y-143097000D01*
X180166538Y-143287609D01*
X157719933Y-143287609D01*
X157695000Y-143282560D01*
X156422362Y-143282560D01*
X153970122Y-140830320D01*
X153970162Y-140784833D01*
X153828117Y-140441057D01*
X153757184Y-140370000D01*
X180112560Y-140370000D01*
X180112560Y-141570000D01*
X180156838Y-141805317D01*
X180295910Y-142021441D01*
X180448309Y-142125571D01*
X180428067Y-142140875D01*
X180181714Y-142560624D01*
X180166538Y-142652391D01*
X180291269Y-142843000D01*
X181483000Y-142843000D01*
X181483000Y-142823000D01*
X181737000Y-142823000D01*
X181737000Y-142843000D01*
X182928731Y-142843000D01*
X183053462Y-142652391D01*
X183038286Y-142560624D01*
X182791933Y-142140875D01*
X182770580Y-142124731D01*
X182911441Y-142034090D01*
X183056431Y-141821890D01*
X183107440Y-141570000D01*
X183107440Y-140370000D01*
X183063162Y-140134683D01*
X182924090Y-139918559D01*
X182711890Y-139773569D01*
X182460000Y-139722560D01*
X180760000Y-139722560D01*
X180524683Y-139766838D01*
X180308559Y-139905910D01*
X180163569Y-140118110D01*
X180112560Y-140370000D01*
X153757184Y-140370000D01*
X153565327Y-140177808D01*
X153221799Y-140035162D01*
X152849833Y-140034838D01*
X152506057Y-140176883D01*
X152242808Y-140439673D01*
X152100162Y-140783201D01*
X152099838Y-141155167D01*
X152241883Y-141498943D01*
X152504673Y-141762192D01*
X152848201Y-141904838D01*
X152895077Y-141904879D01*
X154264217Y-143274019D01*
X153968082Y-143332924D01*
X152955079Y-142319921D01*
X152700407Y-142149755D01*
X152400000Y-142090000D01*
X130810000Y-142090000D01*
X130509593Y-142149755D01*
X130254921Y-142319921D01*
X129251561Y-143323281D01*
X128971715Y-143378946D01*
X128489946Y-143700853D01*
X128262298Y-144041553D01*
X128195183Y-143898642D01*
X127766924Y-143508355D01*
X127356890Y-143338524D01*
X127127000Y-143459845D01*
X127127000Y-144653000D01*
X127147000Y-144653000D01*
X127147000Y-144907000D01*
X127127000Y-144907000D01*
X127127000Y-144927000D01*
X126873000Y-144927000D01*
X126873000Y-144907000D01*
X125679181Y-144907000D01*
X125558514Y-145136892D01*
X125630418Y-145290000D01*
X125409802Y-145290000D01*
X124542910Y-144423108D01*
X125558514Y-144423108D01*
X125679181Y-144653000D01*
X126873000Y-144653000D01*
X126873000Y-143459845D01*
X126643110Y-143338524D01*
X126233076Y-143508355D01*
X125804817Y-143898642D01*
X125558514Y-144423108D01*
X124542910Y-144423108D01*
X124242242Y-144122440D01*
X125310000Y-144122440D01*
X125545317Y-144078162D01*
X125761441Y-143939090D01*
X125906431Y-143726890D01*
X125957440Y-143475000D01*
X125957440Y-142275000D01*
X125913162Y-142039683D01*
X125774090Y-141823559D01*
X125621691Y-141719429D01*
X125641933Y-141704125D01*
X125888286Y-141284376D01*
X125903462Y-141192609D01*
X125878961Y-141155167D01*
X130509838Y-141155167D01*
X130651883Y-141498943D01*
X130914673Y-141762192D01*
X131258201Y-141904838D01*
X131630167Y-141905162D01*
X131973943Y-141763117D01*
X132007118Y-141730000D01*
X135890000Y-141730000D01*
X136180839Y-141672148D01*
X136427401Y-141507401D01*
X136664680Y-141270122D01*
X136710167Y-141270162D01*
X137053943Y-141128117D01*
X137317192Y-140865327D01*
X137459838Y-140521799D01*
X137460162Y-140149833D01*
X137318117Y-139806057D01*
X137055327Y-139542808D01*
X136711799Y-139400162D01*
X136339833Y-139399838D01*
X135996057Y-139541883D01*
X135732808Y-139804673D01*
X135590162Y-140148201D01*
X135590121Y-140195077D01*
X135575198Y-140210000D01*
X132007463Y-140210000D01*
X131975327Y-140177808D01*
X131631799Y-140035162D01*
X131259833Y-140034838D01*
X130916057Y-140176883D01*
X130652808Y-140439673D01*
X130510162Y-140783201D01*
X130509838Y-141155167D01*
X125878961Y-141155167D01*
X125778731Y-141002000D01*
X124587000Y-141002000D01*
X124587000Y-141022000D01*
X124333000Y-141022000D01*
X124333000Y-141002000D01*
X123141269Y-141002000D01*
X123016538Y-141192609D01*
X123031714Y-141284376D01*
X123278067Y-141704125D01*
X123299420Y-141720269D01*
X123158559Y-141810910D01*
X123013569Y-142023110D01*
X122962560Y-142275000D01*
X122962560Y-142842758D01*
X121494400Y-141374598D01*
X121584838Y-141156799D01*
X121585162Y-140784833D01*
X121443117Y-140441057D01*
X121180327Y-140177808D01*
X120836799Y-140035162D01*
X120464833Y-140034838D01*
X120121057Y-140176883D01*
X119857808Y-140439673D01*
X119715162Y-140783201D01*
X119714838Y-141155167D01*
X119856883Y-141498943D01*
X119890000Y-141532118D01*
X119890000Y-141605000D01*
X119947852Y-141895839D01*
X120112599Y-142142401D01*
X123805198Y-145835000D01*
X123733691Y-145835000D01*
X123500302Y-145931673D01*
X123321673Y-146110301D01*
X123305590Y-146149130D01*
X122932614Y-145899916D01*
X122460000Y-145805907D01*
X121987386Y-145899916D01*
X121586723Y-146167630D01*
X121460000Y-146357285D01*
X121333277Y-146167630D01*
X120932614Y-145899916D01*
X120460000Y-145805907D01*
X119987386Y-145899916D01*
X119586723Y-146167630D01*
X119430000Y-146402183D01*
X119430000Y-133000750D01*
X122975000Y-133000750D01*
X122975000Y-133441309D01*
X123071673Y-133674698D01*
X123250301Y-133853327D01*
X123483690Y-133950000D01*
X124174250Y-133950000D01*
X124333000Y-133791250D01*
X124333000Y-132842000D01*
X124587000Y-132842000D01*
X124587000Y-133791250D01*
X124745750Y-133950000D01*
X125436310Y-133950000D01*
X125669699Y-133853327D01*
X125848327Y-133674698D01*
X125945000Y-133441309D01*
X125945000Y-133000750D01*
X125786250Y-132842000D01*
X124587000Y-132842000D01*
X124333000Y-132842000D01*
X123133750Y-132842000D01*
X122975000Y-133000750D01*
X119430000Y-133000750D01*
X119430000Y-120648602D01*
X121795000Y-120648602D01*
X121795000Y-127000000D01*
X121852852Y-127290839D01*
X122017599Y-127537401D01*
X122987267Y-128507069D01*
X122945907Y-128715000D01*
X123039916Y-129187614D01*
X123307630Y-129588277D01*
X123497285Y-129715000D01*
X123307630Y-129841723D01*
X123039916Y-130242386D01*
X122945907Y-130715000D01*
X123039916Y-131187614D01*
X123289130Y-131560590D01*
X123250301Y-131576673D01*
X123071673Y-131755302D01*
X122975000Y-131988691D01*
X122975000Y-132429250D01*
X123133750Y-132588000D01*
X124333000Y-132588000D01*
X124333000Y-132568000D01*
X124587000Y-132568000D01*
X124587000Y-132588000D01*
X125786250Y-132588000D01*
X125945000Y-132429250D01*
X125945000Y-131988691D01*
X125848327Y-131755302D01*
X125669699Y-131576673D01*
X125630870Y-131560590D01*
X125880084Y-131187614D01*
X125974093Y-130715000D01*
X125880084Y-130242386D01*
X125612370Y-129841723D01*
X125422715Y-129715000D01*
X125612370Y-129588277D01*
X125880084Y-129187614D01*
X125974093Y-128715000D01*
X125880084Y-128242386D01*
X125612370Y-127841723D01*
X125211707Y-127574009D01*
X124739093Y-127480000D01*
X124180907Y-127480000D01*
X124121599Y-127491797D01*
X123315000Y-126685198D01*
X123315000Y-125625126D01*
X123483690Y-125695000D01*
X124174250Y-125695000D01*
X124333000Y-125536250D01*
X124333000Y-124587000D01*
X124587000Y-124587000D01*
X124587000Y-125536250D01*
X124745750Y-125695000D01*
X125436310Y-125695000D01*
X125669699Y-125598327D01*
X125848327Y-125419698D01*
X125945000Y-125186309D01*
X125945000Y-124745750D01*
X125786250Y-124587000D01*
X124587000Y-124587000D01*
X124333000Y-124587000D01*
X124313000Y-124587000D01*
X124313000Y-124333000D01*
X124333000Y-124333000D01*
X124333000Y-124313000D01*
X124587000Y-124313000D01*
X124587000Y-124333000D01*
X125786250Y-124333000D01*
X125945000Y-124174250D01*
X125945000Y-123835335D01*
X126064594Y-123915245D01*
X126365000Y-123975000D01*
X127487380Y-123975000D01*
X127390907Y-124460000D01*
X127503946Y-125028285D01*
X127825853Y-125510054D01*
X128155026Y-125730000D01*
X127825853Y-125949946D01*
X127503946Y-126431715D01*
X127390907Y-127000000D01*
X127503946Y-127568285D01*
X127825853Y-128050054D01*
X128307622Y-128371961D01*
X128875907Y-128485000D01*
X128934093Y-128485000D01*
X129502378Y-128371961D01*
X129984147Y-128050054D01*
X130177954Y-127760000D01*
X130317345Y-127760000D01*
X130687796Y-128131098D01*
X131178287Y-128334768D01*
X131709383Y-128335231D01*
X132200229Y-128132418D01*
X132573297Y-127760000D01*
X133670198Y-127760000D01*
X135325198Y-129415000D01*
X132715000Y-129415000D01*
X132424161Y-129472852D01*
X132177599Y-129637599D01*
X129225198Y-132590000D01*
X127635000Y-132590000D01*
X127344161Y-132647852D01*
X127097599Y-132812599D01*
X126932852Y-133059161D01*
X126875000Y-133350000D01*
X126875000Y-136210198D01*
X125915467Y-137169731D01*
X125974093Y-136875000D01*
X125880084Y-136402386D01*
X125612370Y-136001723D01*
X125211707Y-135734009D01*
X124739093Y-135640000D01*
X124180907Y-135640000D01*
X123708293Y-135734009D01*
X123307630Y-136001723D01*
X123039916Y-136402386D01*
X122945907Y-136875000D01*
X123039916Y-137347614D01*
X123307630Y-137748277D01*
X123497285Y-137875000D01*
X123307630Y-138001723D01*
X123039916Y-138402386D01*
X122945907Y-138875000D01*
X123039916Y-139347614D01*
X123307630Y-139748277D01*
X123500891Y-139877410D01*
X123278067Y-140045875D01*
X123031714Y-140465624D01*
X123016538Y-140557391D01*
X123141269Y-140748000D01*
X124333000Y-140748000D01*
X124333000Y-140728000D01*
X124587000Y-140728000D01*
X124587000Y-140748000D01*
X125778731Y-140748000D01*
X125903462Y-140557391D01*
X125888286Y-140465624D01*
X125641933Y-140045875D01*
X125419109Y-139877410D01*
X125612370Y-139748277D01*
X125865779Y-139369023D01*
X127407560Y-137827242D01*
X127407560Y-138010000D01*
X127451838Y-138245317D01*
X127590910Y-138461441D01*
X127803110Y-138606431D01*
X128055000Y-138657440D01*
X129755000Y-138657440D01*
X129990317Y-138613162D01*
X130206441Y-138474090D01*
X130351431Y-138261890D01*
X130365086Y-138194459D01*
X130394946Y-138239147D01*
X130876715Y-138561054D01*
X131445000Y-138674093D01*
X132013285Y-138561054D01*
X132495054Y-138239147D01*
X132715000Y-137909974D01*
X132934946Y-138239147D01*
X133416715Y-138561054D01*
X133985000Y-138674093D01*
X134553285Y-138561054D01*
X135035054Y-138239147D01*
X135255000Y-137909974D01*
X135474946Y-138239147D01*
X135956715Y-138561054D01*
X136525000Y-138674093D01*
X137093285Y-138561054D01*
X137575054Y-138239147D01*
X137795000Y-137909974D01*
X138014946Y-138239147D01*
X138496715Y-138561054D01*
X139065000Y-138674093D01*
X139633285Y-138561054D01*
X140115054Y-138239147D01*
X140335000Y-137909974D01*
X140554946Y-138239147D01*
X141036715Y-138561054D01*
X141605000Y-138674093D01*
X142173285Y-138561054D01*
X142655054Y-138239147D01*
X142875000Y-137909974D01*
X143094946Y-138239147D01*
X143576715Y-138561054D01*
X144145000Y-138674093D01*
X144713285Y-138561054D01*
X145195054Y-138239147D01*
X145415000Y-137909974D01*
X145634946Y-138239147D01*
X146116715Y-138561054D01*
X146685000Y-138674093D01*
X147253285Y-138561054D01*
X147735054Y-138239147D01*
X147955000Y-137909974D01*
X148174946Y-138239147D01*
X148656715Y-138561054D01*
X149225000Y-138674093D01*
X149793285Y-138561054D01*
X150275054Y-138239147D01*
X150495000Y-137909974D01*
X150714946Y-138239147D01*
X151196715Y-138561054D01*
X151765000Y-138674093D01*
X152333285Y-138561054D01*
X152815054Y-138239147D01*
X153035000Y-137909974D01*
X153254946Y-138239147D01*
X153736715Y-138561054D01*
X154305000Y-138674093D01*
X154873285Y-138561054D01*
X155355054Y-138239147D01*
X155575000Y-137909974D01*
X155794946Y-138239147D01*
X156276715Y-138561054D01*
X156845000Y-138674093D01*
X157413285Y-138561054D01*
X157895054Y-138239147D01*
X158115000Y-137909974D01*
X158334946Y-138239147D01*
X158816715Y-138561054D01*
X159385000Y-138674093D01*
X159953285Y-138561054D01*
X160435054Y-138239147D01*
X160655000Y-137909974D01*
X160874946Y-138239147D01*
X161356715Y-138561054D01*
X161925000Y-138674093D01*
X162493285Y-138561054D01*
X162975054Y-138239147D01*
X163195000Y-137909974D01*
X163414946Y-138239147D01*
X163896715Y-138561054D01*
X164465000Y-138674093D01*
X165033285Y-138561054D01*
X165515054Y-138239147D01*
X165735000Y-137909974D01*
X165954946Y-138239147D01*
X166436715Y-138561054D01*
X167005000Y-138674093D01*
X167573285Y-138561054D01*
X168055054Y-138239147D01*
X168275000Y-137909974D01*
X168494946Y-138239147D01*
X168976715Y-138561054D01*
X169545000Y-138674093D01*
X170113285Y-138561054D01*
X170595054Y-138239147D01*
X170822702Y-137898447D01*
X170889817Y-138041358D01*
X171318076Y-138431645D01*
X171728110Y-138601476D01*
X171958000Y-138480155D01*
X171958000Y-137287000D01*
X172212000Y-137287000D01*
X172212000Y-138480155D01*
X172441890Y-138601476D01*
X172851924Y-138431645D01*
X173280183Y-138041358D01*
X173486226Y-137602619D01*
X174929613Y-137602619D01*
X175269155Y-138424372D01*
X175897321Y-139053636D01*
X176718481Y-139394611D01*
X177607619Y-139395387D01*
X178429372Y-139055845D01*
X179058636Y-138427679D01*
X179399611Y-137606519D01*
X179400387Y-136717381D01*
X179360150Y-136620000D01*
X180095907Y-136620000D01*
X180189916Y-137092614D01*
X180457630Y-137493277D01*
X180858293Y-137760991D01*
X181330907Y-137855000D01*
X181889093Y-137855000D01*
X182361707Y-137760991D01*
X182762370Y-137493277D01*
X183030084Y-137092614D01*
X183124093Y-136620000D01*
X183030084Y-136147386D01*
X182777926Y-135770004D01*
X182911441Y-135684090D01*
X183056431Y-135471890D01*
X183107440Y-135220000D01*
X183107440Y-134020000D01*
X183063162Y-133784683D01*
X182924090Y-133568559D01*
X182711890Y-133423569D01*
X182460000Y-133372560D01*
X180760000Y-133372560D01*
X180524683Y-133416838D01*
X180308559Y-133555910D01*
X180163569Y-133768110D01*
X180112560Y-134020000D01*
X180112560Y-135220000D01*
X180156838Y-135455317D01*
X180295910Y-135671441D01*
X180441475Y-135770901D01*
X180189916Y-136147386D01*
X180095907Y-136620000D01*
X179360150Y-136620000D01*
X179060845Y-135895628D01*
X178432679Y-135266364D01*
X177611519Y-134925389D01*
X176722381Y-134924613D01*
X175900628Y-135264155D01*
X175271364Y-135892321D01*
X174930389Y-136713481D01*
X174929613Y-137602619D01*
X173486226Y-137602619D01*
X173526486Y-137516892D01*
X173405819Y-137287000D01*
X172212000Y-137287000D01*
X171958000Y-137287000D01*
X171938000Y-137287000D01*
X171938000Y-137033000D01*
X171958000Y-137033000D01*
X171958000Y-134747000D01*
X172212000Y-134747000D01*
X172212000Y-137033000D01*
X173405819Y-137033000D01*
X173526486Y-136803108D01*
X173280183Y-136278642D01*
X172853729Y-135890000D01*
X173280183Y-135501358D01*
X173526486Y-134976892D01*
X173405819Y-134747000D01*
X172212000Y-134747000D01*
X171958000Y-134747000D01*
X171938000Y-134747000D01*
X171938000Y-134493000D01*
X171958000Y-134493000D01*
X171958000Y-133299845D01*
X172212000Y-133299845D01*
X172212000Y-134493000D01*
X173405819Y-134493000D01*
X173526486Y-134263108D01*
X173280183Y-133738642D01*
X172851924Y-133348355D01*
X172441890Y-133178524D01*
X172212000Y-133299845D01*
X171958000Y-133299845D01*
X171728110Y-133178524D01*
X171318076Y-133348355D01*
X170889817Y-133738642D01*
X170822702Y-133881553D01*
X170595054Y-133540853D01*
X170113285Y-133218946D01*
X169545000Y-133105907D01*
X168976715Y-133218946D01*
X168494946Y-133540853D01*
X168275000Y-133870026D01*
X168055054Y-133540853D01*
X167573285Y-133218946D01*
X167005000Y-133105907D01*
X166436715Y-133218946D01*
X165954946Y-133540853D01*
X165735000Y-133870026D01*
X165515054Y-133540853D01*
X165033285Y-133218946D01*
X164465000Y-133105907D01*
X163896715Y-133218946D01*
X163414946Y-133540853D01*
X163195000Y-133870026D01*
X162975054Y-133540853D01*
X162493285Y-133218946D01*
X161925000Y-133105907D01*
X161356715Y-133218946D01*
X160874946Y-133540853D01*
X160655000Y-133870026D01*
X160435054Y-133540853D01*
X159953285Y-133218946D01*
X159385000Y-133105907D01*
X158816715Y-133218946D01*
X158334946Y-133540853D01*
X158115000Y-133870026D01*
X157895054Y-133540853D01*
X157413285Y-133218946D01*
X156845000Y-133105907D01*
X156276715Y-133218946D01*
X155794946Y-133540853D01*
X155575000Y-133870026D01*
X155355054Y-133540853D01*
X154873285Y-133218946D01*
X154305000Y-133105907D01*
X153736715Y-133218946D01*
X153254946Y-133540853D01*
X153035000Y-133870026D01*
X152815054Y-133540853D01*
X152333285Y-133218946D01*
X151765000Y-133105907D01*
X151196715Y-133218946D01*
X150714946Y-133540853D01*
X150495000Y-133870026D01*
X150275054Y-133540853D01*
X149793285Y-133218946D01*
X149225000Y-133105907D01*
X148656715Y-133218946D01*
X148174946Y-133540853D01*
X147955000Y-133870026D01*
X147735054Y-133540853D01*
X147253285Y-133218946D01*
X146685000Y-133105907D01*
X146116715Y-133218946D01*
X145634946Y-133540853D01*
X145415000Y-133870026D01*
X145195054Y-133540853D01*
X144713285Y-133218946D01*
X144145000Y-133105907D01*
X143576715Y-133218946D01*
X143094946Y-133540853D01*
X142875000Y-133870026D01*
X142655054Y-133540853D01*
X142173285Y-133218946D01*
X141605000Y-133105907D01*
X141036715Y-133218946D01*
X140554946Y-133540853D01*
X140335000Y-133870026D01*
X140115054Y-133540853D01*
X139633285Y-133218946D01*
X139065000Y-133105907D01*
X138496715Y-133218946D01*
X138014946Y-133540853D01*
X137795000Y-133870026D01*
X137575054Y-133540853D01*
X137093285Y-133218946D01*
X136525000Y-133105907D01*
X135956715Y-133218946D01*
X135474946Y-133540853D01*
X135255000Y-133870026D01*
X135035054Y-133540853D01*
X134553285Y-133218946D01*
X134025783Y-133114019D01*
X134299802Y-132840000D01*
X162560000Y-132840000D01*
X162850839Y-132782148D01*
X163097401Y-132617401D01*
X164098592Y-131616210D01*
X164465000Y-131689093D01*
X165033285Y-131576054D01*
X165515054Y-131254147D01*
X165735000Y-130924974D01*
X165954946Y-131254147D01*
X166436715Y-131576054D01*
X167005000Y-131689093D01*
X167573285Y-131576054D01*
X168055054Y-131254147D01*
X168275000Y-130924974D01*
X168494946Y-131254147D01*
X168976715Y-131576054D01*
X169545000Y-131689093D01*
X170113285Y-131576054D01*
X170595054Y-131254147D01*
X170622850Y-131212548D01*
X170631838Y-131260317D01*
X170770910Y-131476441D01*
X170983110Y-131621431D01*
X171235000Y-131672440D01*
X172935000Y-131672440D01*
X173170317Y-131628162D01*
X173386441Y-131489090D01*
X173531431Y-131276890D01*
X173582440Y-131025000D01*
X173582440Y-129325000D01*
X173538162Y-129089683D01*
X173399090Y-128873559D01*
X173186890Y-128728569D01*
X172935000Y-128677560D01*
X171235000Y-128677560D01*
X170999683Y-128721838D01*
X170783559Y-128860910D01*
X170638569Y-129073110D01*
X170624914Y-129140541D01*
X170595054Y-129095853D01*
X170113285Y-128773946D01*
X169545000Y-128660907D01*
X168976715Y-128773946D01*
X168494946Y-129095853D01*
X168275000Y-129425026D01*
X168055054Y-129095853D01*
X167573285Y-128773946D01*
X167005000Y-128660907D01*
X166436715Y-128773946D01*
X165954946Y-129095853D01*
X165735000Y-129425026D01*
X165515054Y-129095853D01*
X165033285Y-128773946D01*
X164465000Y-128660907D01*
X163896715Y-128773946D01*
X163414946Y-129095853D01*
X163195000Y-129425026D01*
X162975054Y-129095853D01*
X162493285Y-128773946D01*
X161925000Y-128660907D01*
X161356715Y-128773946D01*
X160874946Y-129095853D01*
X160655000Y-129425026D01*
X160435054Y-129095853D01*
X159953285Y-128773946D01*
X159385000Y-128660907D01*
X158816715Y-128773946D01*
X158334946Y-129095853D01*
X158013039Y-129577622D01*
X157900000Y-130145907D01*
X157900000Y-130204093D01*
X157995658Y-130685000D01*
X137960633Y-130685000D01*
X138094838Y-130361799D01*
X138095162Y-129989833D01*
X137960944Y-129665000D01*
X147392537Y-129665000D01*
X147424673Y-129697192D01*
X147768201Y-129839838D01*
X148140167Y-129840162D01*
X148483943Y-129698117D01*
X148747192Y-129435327D01*
X148889838Y-129091799D01*
X148890162Y-128719833D01*
X148748117Y-128376057D01*
X148485327Y-128112808D01*
X148141799Y-127970162D01*
X147769833Y-127969838D01*
X147426057Y-128111883D01*
X147392882Y-128145000D01*
X146350110Y-128145000D01*
X146350162Y-128084833D01*
X146208117Y-127741057D01*
X145945327Y-127477808D01*
X145601799Y-127335162D01*
X145229833Y-127334838D01*
X144886057Y-127476883D01*
X144852882Y-127510000D01*
X140324708Y-127510000D01*
X140426154Y-127000000D01*
X140324533Y-126489118D01*
X140035142Y-126056012D01*
X139602036Y-125766621D01*
X139417930Y-125730000D01*
X139602036Y-125693379D01*
X140035142Y-125403988D01*
X140324533Y-124970882D01*
X140426154Y-124460000D01*
X140324533Y-123949118D01*
X140035142Y-123516012D01*
X139602036Y-123226621D01*
X139091154Y-123125000D01*
X139038846Y-123125000D01*
X138873123Y-123157965D01*
X138350079Y-122634921D01*
X138095407Y-122464755D01*
X137795000Y-122405000D01*
X130322620Y-122405000D01*
X130419093Y-121920000D01*
X130306054Y-121351715D01*
X129984147Y-120869946D01*
X129654974Y-120650000D01*
X129984147Y-120430054D01*
X130306054Y-119948285D01*
X130419093Y-119380000D01*
X130306054Y-118811715D01*
X130132932Y-118552619D01*
X133019613Y-118552619D01*
X133359155Y-119374372D01*
X133987321Y-120003636D01*
X134808481Y-120344611D01*
X135697619Y-120345387D01*
X136519372Y-120005845D01*
X137148636Y-119377679D01*
X137489611Y-118556519D01*
X137490387Y-117667381D01*
X137150845Y-116845628D01*
X136522679Y-116216364D01*
X135701519Y-115875389D01*
X134812381Y-115874613D01*
X133990628Y-116214155D01*
X133361364Y-116842321D01*
X133020389Y-117663481D01*
X133019613Y-118552619D01*
X130132932Y-118552619D01*
X129984147Y-118329946D01*
X129654974Y-118110000D01*
X129984147Y-117890054D01*
X130306054Y-117408285D01*
X130419093Y-116840000D01*
X130306054Y-116271715D01*
X129984147Y-115789946D01*
X129654974Y-115570000D01*
X129984147Y-115350054D01*
X130306054Y-114868285D01*
X130419093Y-114300000D01*
X130306054Y-113731715D01*
X129984147Y-113249946D01*
X129654974Y-113030000D01*
X129984147Y-112810054D01*
X130306054Y-112328285D01*
X130419093Y-111760000D01*
X130306054Y-111191715D01*
X129984147Y-110709946D01*
X129942548Y-110682150D01*
X129990317Y-110673162D01*
X130206441Y-110534090D01*
X130351431Y-110321890D01*
X130402440Y-110070000D01*
X130402440Y-108370000D01*
X130358162Y-108134683D01*
X130319757Y-108075000D01*
X135890000Y-108075000D01*
X136180839Y-108017148D01*
X136427401Y-107852401D01*
X146999802Y-97280000D01*
X150880831Y-97280000D01*
X150549176Y-97611077D01*
X150330250Y-98138309D01*
X150329752Y-98709187D01*
X150352049Y-98763149D01*
X150180198Y-98935000D01*
X148447655Y-98935000D01*
X148077204Y-98563902D01*
X147586713Y-98360232D01*
X147055617Y-98359769D01*
X146564771Y-98562582D01*
X146188902Y-98937796D01*
X145985232Y-99428287D01*
X145984769Y-99959383D01*
X146187582Y-100450229D01*
X146372358Y-100635327D01*
X146086621Y-101062964D01*
X145985000Y-101573846D01*
X145985000Y-101626154D01*
X146086621Y-102137036D01*
X146376012Y-102570142D01*
X146809118Y-102859533D01*
X147320000Y-102961154D01*
X147830882Y-102859533D01*
X148263988Y-102570142D01*
X148553379Y-102137036D01*
X148655000Y-101626154D01*
X148655000Y-101573846D01*
X148553379Y-101062964D01*
X148267647Y-100635335D01*
X148448297Y-100455000D01*
X153670000Y-100455000D01*
X153960839Y-100397148D01*
X154207401Y-100232401D01*
X155889802Y-98550000D01*
X156937868Y-98550000D01*
X156597948Y-98889327D01*
X156210441Y-99822546D01*
X156209560Y-100833021D01*
X156595437Y-101766915D01*
X157309327Y-102482052D01*
X158242546Y-102869559D01*
X159253021Y-102870440D01*
X160186915Y-102484563D01*
X160902052Y-101770673D01*
X161289559Y-100837454D01*
X161290440Y-99826979D01*
X160904563Y-98893085D01*
X160562076Y-98550000D01*
X175580198Y-98550000D01*
X175723790Y-98693592D01*
X175650907Y-99060000D01*
X175763946Y-99628285D01*
X176085853Y-100110054D01*
X176415026Y-100330000D01*
X176085853Y-100549946D01*
X175763946Y-101031715D01*
X175650907Y-101600000D01*
X175752998Y-102113246D01*
X175594593Y-102144755D01*
X175339921Y-102314921D01*
X172164921Y-105489921D01*
X171994755Y-105744593D01*
X171984142Y-105797948D01*
X171935000Y-106045000D01*
X171935000Y-106086683D01*
X171908200Y-106097757D01*
X171504176Y-106501077D01*
X171285250Y-107028309D01*
X171284752Y-107599187D01*
X171492711Y-108102487D01*
X169047187Y-110548011D01*
X168973864Y-110370995D01*
X168727745Y-110296861D01*
X167899605Y-111125000D01*
X167913748Y-111139142D01*
X167734142Y-111318748D01*
X167720000Y-111304605D01*
X166891861Y-112132745D01*
X166933204Y-112270000D01*
X159699802Y-112270000D01*
X158338025Y-110908223D01*
X166273035Y-110908223D01*
X166300222Y-111478454D01*
X166466136Y-111879005D01*
X166712255Y-111953139D01*
X167540395Y-111125000D01*
X166712255Y-110296861D01*
X166466136Y-110370995D01*
X166273035Y-110908223D01*
X158338025Y-110908223D01*
X157689869Y-110260067D01*
X158242546Y-110489559D01*
X159253021Y-110490440D01*
X160156198Y-110117255D01*
X166891861Y-110117255D01*
X167720000Y-110945395D01*
X168548139Y-110117255D01*
X168474005Y-109871136D01*
X167936777Y-109678035D01*
X167366546Y-109705222D01*
X166965995Y-109871136D01*
X166891861Y-110117255D01*
X160156198Y-110117255D01*
X160186915Y-110104563D01*
X160902052Y-109390673D01*
X161289559Y-108457454D01*
X161289676Y-108322745D01*
X166891861Y-108322745D01*
X166965995Y-108568864D01*
X167503223Y-108761965D01*
X168073454Y-108734778D01*
X168474005Y-108568864D01*
X168548139Y-108322745D01*
X167720000Y-107494605D01*
X166891861Y-108322745D01*
X161289676Y-108322745D01*
X161290440Y-107446979D01*
X161146338Y-107098223D01*
X166273035Y-107098223D01*
X166300222Y-107668454D01*
X166466136Y-108069005D01*
X166712255Y-108143139D01*
X167540395Y-107315000D01*
X167899605Y-107315000D01*
X168727745Y-108143139D01*
X168973864Y-108069005D01*
X169166965Y-107531777D01*
X169139778Y-106961546D01*
X168973864Y-106560995D01*
X168727745Y-106486861D01*
X167899605Y-107315000D01*
X167540395Y-107315000D01*
X166712255Y-106486861D01*
X166466136Y-106560995D01*
X166273035Y-107098223D01*
X161146338Y-107098223D01*
X160904563Y-106513085D01*
X160562076Y-106170000D01*
X166933204Y-106170000D01*
X166891861Y-106307255D01*
X167720000Y-107135395D01*
X168548139Y-106307255D01*
X168493693Y-106126499D01*
X168565839Y-106112148D01*
X168812401Y-105947401D01*
X171901435Y-102858367D01*
X171941239Y-102884963D01*
X172720000Y-103039868D01*
X173498761Y-102884963D01*
X174158962Y-102443830D01*
X174600095Y-101783629D01*
X174755000Y-101004868D01*
X174755000Y-100925132D01*
X174600095Y-100146371D01*
X174158962Y-99486170D01*
X173498761Y-99045037D01*
X172720000Y-98890132D01*
X171941239Y-99045037D01*
X171281038Y-99486170D01*
X170839905Y-100146371D01*
X170685000Y-100925132D01*
X170685000Y-101004868D01*
X170837692Y-101772506D01*
X167960198Y-104650000D01*
X157480000Y-104650000D01*
X157237414Y-104698254D01*
X157189160Y-104707852D01*
X156942599Y-104872599D01*
X154625198Y-107190000D01*
X154232463Y-107190000D01*
X154200327Y-107157808D01*
X153856799Y-107015162D01*
X153484833Y-107014838D01*
X153141057Y-107156883D01*
X152877808Y-107419673D01*
X152735162Y-107763201D01*
X152734838Y-108135167D01*
X152869056Y-108460000D01*
X148447655Y-108460000D01*
X148077204Y-108088902D01*
X147586713Y-107885232D01*
X147055617Y-107884769D01*
X146564771Y-108087582D01*
X146188902Y-108462796D01*
X145985232Y-108953287D01*
X145984769Y-109484383D01*
X146187582Y-109975229D01*
X146562796Y-110351098D01*
X147053287Y-110554768D01*
X147584383Y-110555231D01*
X148075229Y-110352418D01*
X148448297Y-109980000D01*
X155260198Y-109980000D01*
X158820198Y-113540000D01*
X154532440Y-113540000D01*
X154532440Y-113450000D01*
X154488162Y-113214683D01*
X154349090Y-112998559D01*
X154136890Y-112853569D01*
X153885000Y-112802560D01*
X152185000Y-112802560D01*
X151949683Y-112846838D01*
X151733559Y-112985910D01*
X151588569Y-113198110D01*
X151537560Y-113450000D01*
X151537560Y-115150000D01*
X151581838Y-115385317D01*
X151720910Y-115601441D01*
X151933110Y-115746431D01*
X152000541Y-115760086D01*
X151955853Y-115789946D01*
X151633946Y-116271715D01*
X151520907Y-116840000D01*
X151633946Y-117408285D01*
X151955853Y-117890054D01*
X152285026Y-118110000D01*
X151955853Y-118329946D01*
X151633946Y-118811715D01*
X151520907Y-119380000D01*
X151633946Y-119948285D01*
X151955853Y-120430054D01*
X152285026Y-120650000D01*
X151955853Y-120869946D01*
X151633946Y-121351715D01*
X151520907Y-121920000D01*
X151633946Y-122488285D01*
X151955853Y-122970054D01*
X152285026Y-123190000D01*
X151955853Y-123409946D01*
X151633946Y-123891715D01*
X151520907Y-124460000D01*
X151633946Y-125028285D01*
X151955853Y-125510054D01*
X152285026Y-125730000D01*
X151955853Y-125949946D01*
X151633946Y-126431715D01*
X151520907Y-127000000D01*
X151633946Y-127568285D01*
X151955853Y-128050054D01*
X152437622Y-128371961D01*
X153005907Y-128485000D01*
X153064093Y-128485000D01*
X153632378Y-128371961D01*
X154114147Y-128050054D01*
X154307954Y-127760000D01*
X175892046Y-127760000D01*
X176085853Y-128050054D01*
X176415026Y-128270000D01*
X176085853Y-128489946D01*
X175763946Y-128971715D01*
X175650907Y-129540000D01*
X175763946Y-130108285D01*
X176085853Y-130590054D01*
X176415026Y-130810000D01*
X176085853Y-131029946D01*
X175763946Y-131511715D01*
X175650907Y-132080000D01*
X175763946Y-132648285D01*
X176085853Y-133130054D01*
X176567622Y-133451961D01*
X177135907Y-133565000D01*
X177194093Y-133565000D01*
X177762378Y-133451961D01*
X178244147Y-133130054D01*
X178566054Y-132648285D01*
X178679093Y-132080000D01*
X178566054Y-131511715D01*
X178244147Y-131029946D01*
X177914974Y-130810000D01*
X178244147Y-130590054D01*
X178566054Y-130108285D01*
X178679093Y-129540000D01*
X178566054Y-128971715D01*
X178244147Y-128489946D01*
X177914974Y-128270000D01*
X178244147Y-128050054D01*
X178566054Y-127568285D01*
X178679093Y-127000000D01*
X178566054Y-126431715D01*
X178244147Y-125949946D01*
X177914974Y-125730000D01*
X178244147Y-125510054D01*
X178566054Y-125028285D01*
X178679093Y-124460000D01*
X178566054Y-123891715D01*
X178244147Y-123409946D01*
X177914974Y-123190000D01*
X178244147Y-122970054D01*
X178566054Y-122488285D01*
X178679093Y-121920000D01*
X178566054Y-121351715D01*
X178244147Y-120869946D01*
X177914974Y-120650000D01*
X178244147Y-120430054D01*
X178566054Y-119948285D01*
X178679093Y-119380000D01*
X178566054Y-118811715D01*
X178244147Y-118329946D01*
X177914974Y-118110000D01*
X178244147Y-117890054D01*
X178566054Y-117408285D01*
X178679093Y-116840000D01*
X178566054Y-116271715D01*
X178244147Y-115789946D01*
X178202548Y-115762150D01*
X178250317Y-115753162D01*
X178466441Y-115614090D01*
X178611431Y-115401890D01*
X178662440Y-115150000D01*
X178662440Y-114509019D01*
X178820000Y-114666579D01*
X178820000Y-125094995D01*
X178819999Y-125095000D01*
X178849837Y-125245000D01*
X178887367Y-125433675D01*
X179017236Y-125628039D01*
X179079210Y-125720790D01*
X180747560Y-127389139D01*
X180747560Y-128485000D01*
X180791838Y-128720317D01*
X180930910Y-128936441D01*
X181143110Y-129081431D01*
X181395000Y-129132440D01*
X183095000Y-129132440D01*
X183330317Y-129088162D01*
X183546441Y-128949090D01*
X183691431Y-128736890D01*
X183705086Y-128669459D01*
X183734946Y-128714147D01*
X184216715Y-129036054D01*
X184785000Y-129149093D01*
X185353285Y-129036054D01*
X185835054Y-128714147D01*
X186156961Y-128232378D01*
X186270000Y-127664093D01*
X186270000Y-127605907D01*
X186156961Y-127037622D01*
X185835054Y-126555853D01*
X185551899Y-126366655D01*
X185551924Y-126366645D01*
X185980183Y-125976358D01*
X186226486Y-125451892D01*
X186105819Y-125222000D01*
X184912000Y-125222000D01*
X184912000Y-125242000D01*
X184658000Y-125242000D01*
X184658000Y-125222000D01*
X184638000Y-125222000D01*
X184638000Y-124968000D01*
X184658000Y-124968000D01*
X184658000Y-123774845D01*
X184912000Y-123774845D01*
X184912000Y-124968000D01*
X186105819Y-124968000D01*
X186226486Y-124738108D01*
X185980183Y-124213642D01*
X185551924Y-123823355D01*
X185141890Y-123653524D01*
X184912000Y-123774845D01*
X184658000Y-123774845D01*
X184428110Y-123653524D01*
X184018076Y-123823355D01*
X183715063Y-124099501D01*
X183698162Y-124009683D01*
X183559090Y-123793559D01*
X183346890Y-123648569D01*
X183095000Y-123597560D01*
X181395000Y-123597560D01*
X181159683Y-123641838D01*
X180943559Y-123780910D01*
X180798569Y-123993110D01*
X180747560Y-124245000D01*
X180747560Y-124885980D01*
X180590000Y-124728420D01*
X180590000Y-118552619D01*
X181914613Y-118552619D01*
X182254155Y-119374372D01*
X182882321Y-120003636D01*
X183703481Y-120344611D01*
X184592619Y-120345387D01*
X185414372Y-120005845D01*
X186043636Y-119377679D01*
X186384611Y-118556519D01*
X186385387Y-117667381D01*
X186045845Y-116845628D01*
X185417679Y-116216364D01*
X184596519Y-115875389D01*
X183707381Y-115874613D01*
X182885628Y-116214155D01*
X182256364Y-116842321D01*
X181915389Y-117663481D01*
X181914613Y-118552619D01*
X180590000Y-118552619D01*
X180590000Y-114300005D01*
X180590001Y-114300000D01*
X180522633Y-113961326D01*
X180522633Y-113961325D01*
X180330790Y-113674210D01*
X180330787Y-113674208D01*
X178666580Y-112010000D01*
X180668178Y-112010000D01*
X180788201Y-112059838D01*
X181160167Y-112060162D01*
X181503943Y-111918117D01*
X181767192Y-111655327D01*
X181909838Y-111311799D01*
X181910162Y-110939833D01*
X181768117Y-110596057D01*
X181505327Y-110332808D01*
X181161799Y-110190162D01*
X180789833Y-110189838D01*
X180668431Y-110240000D01*
X178264228Y-110240000D01*
X178566054Y-109788285D01*
X178679093Y-109220000D01*
X178577648Y-108710000D01*
X180340000Y-108710000D01*
X180630839Y-108652148D01*
X180877401Y-108487401D01*
X181201071Y-108163731D01*
X181610000Y-108245072D01*
X182197419Y-108128227D01*
X182695409Y-107795481D01*
X183028155Y-107297491D01*
X183145000Y-106710072D01*
X183145000Y-106649928D01*
X183028155Y-106062509D01*
X182695409Y-105564519D01*
X182457418Y-105405499D01*
X182847966Y-105047576D01*
X183101046Y-104504742D01*
X182980997Y-104267000D01*
X181737000Y-104267000D01*
X181737000Y-104287000D01*
X181483000Y-104287000D01*
X181483000Y-104267000D01*
X180239003Y-104267000D01*
X180118954Y-104504742D01*
X180372034Y-105047576D01*
X180762582Y-105405499D01*
X180524591Y-105564519D01*
X180191845Y-106062509D01*
X180075000Y-106649928D01*
X180075000Y-106710072D01*
X180146363Y-107068835D01*
X180025198Y-107190000D01*
X178577648Y-107190000D01*
X178679093Y-106680000D01*
X178566054Y-106111715D01*
X178244147Y-105629946D01*
X177914974Y-105410000D01*
X178244147Y-105190054D01*
X178566054Y-104708285D01*
X178679093Y-104140000D01*
X178582620Y-103655000D01*
X179705000Y-103655000D01*
X180005407Y-103595245D01*
X180260079Y-103425079D01*
X180301548Y-103383610D01*
X180118954Y-103775258D01*
X180239003Y-104013000D01*
X181483000Y-104013000D01*
X181483000Y-103993000D01*
X181737000Y-103993000D01*
X181737000Y-104013000D01*
X182980997Y-104013000D01*
X183101046Y-103775258D01*
X182847966Y-103232424D01*
X182713462Y-103109156D01*
X182745317Y-103103162D01*
X182961441Y-102964090D01*
X183106431Y-102751890D01*
X183157440Y-102500000D01*
X183157440Y-100700000D01*
X183113162Y-100464683D01*
X182974090Y-100248559D01*
X182761890Y-100103569D01*
X182510000Y-100052560D01*
X180710000Y-100052560D01*
X180474683Y-100096838D01*
X180258559Y-100235910D01*
X180113569Y-100448110D01*
X180062560Y-100700000D01*
X180062560Y-101402282D01*
X179379842Y-102085000D01*
X178582620Y-102085000D01*
X178679093Y-101600000D01*
X178566054Y-101031715D01*
X178244147Y-100549946D01*
X177914974Y-100330000D01*
X178244147Y-100110054D01*
X178566054Y-99628285D01*
X178679093Y-99060000D01*
X178566054Y-98491715D01*
X178244147Y-98009946D01*
X177914974Y-97790000D01*
X178244147Y-97570054D01*
X178566054Y-97088285D01*
X178679093Y-96520000D01*
X178566054Y-95951715D01*
X178244147Y-95469946D01*
X177914974Y-95250000D01*
X178244147Y-95030054D01*
X178566054Y-94548285D01*
X178679093Y-93980000D01*
X178577648Y-93470000D01*
X179705000Y-93470000D01*
X179995839Y-93412148D01*
X180242401Y-93247401D01*
X181201071Y-92288731D01*
X181610000Y-92370072D01*
X182197419Y-92253227D01*
X182695409Y-91920481D01*
X183028155Y-91422491D01*
X183145000Y-90835072D01*
X183145000Y-90774928D01*
X183028155Y-90187509D01*
X182695409Y-89689519D01*
X182457418Y-89530499D01*
X182847966Y-89172576D01*
X183101046Y-88629742D01*
X182980997Y-88392000D01*
X181737000Y-88392000D01*
X181737000Y-88412000D01*
X181483000Y-88412000D01*
X181483000Y-88392000D01*
X181463000Y-88392000D01*
X181463000Y-88138000D01*
X181483000Y-88138000D01*
X181483000Y-88118000D01*
X181737000Y-88118000D01*
X181737000Y-88138000D01*
X182980997Y-88138000D01*
X183101046Y-87900258D01*
X182847966Y-87357424D01*
X182713462Y-87234156D01*
X182745317Y-87228162D01*
X182961441Y-87089090D01*
X183106431Y-86876890D01*
X183157440Y-86625000D01*
X183157440Y-84825000D01*
X183113162Y-84589683D01*
X182974090Y-84373559D01*
X182761890Y-84228569D01*
X182510000Y-84177560D01*
X180710000Y-84177560D01*
X180474683Y-84221838D01*
X180258559Y-84360910D01*
X180113569Y-84573110D01*
X180062560Y-84825000D01*
X180062560Y-86197638D01*
X178120198Y-88140000D01*
X174625000Y-88140000D01*
X174334161Y-88197852D01*
X174087599Y-88362599D01*
X173692638Y-88757560D01*
X171320000Y-88757560D01*
X171084683Y-88801838D01*
X170868559Y-88940910D01*
X170723569Y-89153110D01*
X170672560Y-89405000D01*
X170672560Y-91492758D01*
X168812401Y-89632599D01*
X168565839Y-89467852D01*
X168275000Y-89410000D01*
X157480000Y-89410000D01*
X157189161Y-89467852D01*
X156942599Y-89632599D01*
X156530198Y-90045000D01*
X146050000Y-90045000D01*
X145759161Y-90102852D01*
X145512599Y-90267599D01*
X133670198Y-102110000D01*
X130317648Y-102110000D01*
X130419093Y-101600000D01*
X130306054Y-101031715D01*
X129984147Y-100549946D01*
X129654974Y-100330000D01*
X129984147Y-100110054D01*
X130306054Y-99628285D01*
X130419093Y-99060000D01*
X130306054Y-98491715D01*
X129984147Y-98009946D01*
X129654974Y-97790000D01*
X129984147Y-97570054D01*
X130306054Y-97088285D01*
X130419093Y-96520000D01*
X130306054Y-95951715D01*
X129984147Y-95469946D01*
X129654974Y-95250000D01*
X129984147Y-95030054D01*
X130306054Y-94548285D01*
X130419093Y-93980000D01*
X130306054Y-93411715D01*
X129984147Y-92929946D01*
X129654974Y-92710000D01*
X129984147Y-92490054D01*
X130306054Y-92008285D01*
X130419093Y-91440000D01*
X130306054Y-90871715D01*
X129984147Y-90389946D01*
X129654974Y-90170000D01*
X129984147Y-89950054D01*
X130306054Y-89468285D01*
X130419093Y-88900000D01*
X130306054Y-88331715D01*
X129984147Y-87849946D01*
X129942548Y-87822150D01*
X129990317Y-87813162D01*
X130206441Y-87674090D01*
X130351431Y-87461890D01*
X130402440Y-87210000D01*
X130402440Y-85510000D01*
X130358162Y-85274683D01*
X130239322Y-85090000D01*
X136355132Y-85090000D01*
X136510037Y-85868761D01*
X136951170Y-86528962D01*
X137611371Y-86970095D01*
X138390132Y-87125000D01*
X138469868Y-87125000D01*
X139248629Y-86970095D01*
X139908830Y-86528962D01*
X140349963Y-85868761D01*
X140504868Y-85090000D01*
X140368276Y-84403304D01*
X141971579Y-82800000D01*
X157640868Y-82800000D01*
X157313085Y-82935437D01*
X156597948Y-83649327D01*
X156367212Y-84205000D01*
X150637440Y-84205000D01*
X150637440Y-83690000D01*
X150593162Y-83454683D01*
X150454090Y-83238559D01*
X150241890Y-83093569D01*
X149990000Y-83042560D01*
X147190000Y-83042560D01*
X146954683Y-83086838D01*
X146738559Y-83225910D01*
X146593569Y-83438110D01*
X146542560Y-83690000D01*
X146542560Y-86490000D01*
X146586838Y-86725317D01*
X146725910Y-86941441D01*
X146938110Y-87086431D01*
X147190000Y-87137440D01*
X149990000Y-87137440D01*
X150225317Y-87093162D01*
X150441441Y-86954090D01*
X150586431Y-86741890D01*
X150637440Y-86490000D01*
X150637440Y-85975000D01*
X156367390Y-85975000D01*
X156595437Y-86526915D01*
X157309327Y-87242052D01*
X158242546Y-87629559D01*
X159253021Y-87630440D01*
X160186915Y-87244563D01*
X160902052Y-86530673D01*
X161289559Y-85597454D01*
X161290440Y-84586979D01*
X160904563Y-83653085D01*
X160190673Y-82937948D01*
X159858458Y-82800000D01*
X160288420Y-82800000D01*
X161934208Y-84445787D01*
X161934210Y-84445790D01*
X162221325Y-84637633D01*
X162274142Y-84648139D01*
X162560000Y-84705001D01*
X162560005Y-84705000D01*
X163955829Y-84705000D01*
X164286077Y-85035824D01*
X164430564Y-85095820D01*
X164057189Y-85345302D01*
X163746120Y-85810849D01*
X163636887Y-86360000D01*
X163746120Y-86909151D01*
X164057189Y-87374698D01*
X164522736Y-87685767D01*
X165071887Y-87795000D01*
X165128113Y-87795000D01*
X165677264Y-87685767D01*
X166142811Y-87374698D01*
X166453880Y-86909151D01*
X166506584Y-86644187D01*
X171284752Y-86644187D01*
X171502757Y-87171800D01*
X171906077Y-87575824D01*
X172433309Y-87794750D01*
X173004187Y-87795248D01*
X173531800Y-87577243D01*
X173935824Y-87173923D01*
X174154750Y-86646691D01*
X174155000Y-86360000D01*
X175650907Y-86360000D01*
X175763946Y-86928285D01*
X176085853Y-87410054D01*
X176567622Y-87731961D01*
X177135907Y-87845000D01*
X177194093Y-87845000D01*
X177762378Y-87731961D01*
X178244147Y-87410054D01*
X178566054Y-86928285D01*
X178679093Y-86360000D01*
X178566054Y-85791715D01*
X178244147Y-85309946D01*
X177903447Y-85082298D01*
X178046358Y-85015183D01*
X178436645Y-84586924D01*
X178606476Y-84176890D01*
X178485155Y-83947000D01*
X177292000Y-83947000D01*
X177292000Y-83967000D01*
X177038000Y-83967000D01*
X177038000Y-83947000D01*
X175844845Y-83947000D01*
X175723524Y-84176890D01*
X175893355Y-84586924D01*
X176283642Y-85015183D01*
X176426553Y-85082298D01*
X176085853Y-85309946D01*
X175763946Y-85791715D01*
X175650907Y-86360000D01*
X174155000Y-86360000D01*
X174155248Y-86075813D01*
X173937243Y-85548200D01*
X173533923Y-85144176D01*
X173006691Y-84925250D01*
X172435813Y-84924752D01*
X171908200Y-85142757D01*
X171504176Y-85546077D01*
X171285250Y-86073309D01*
X171284752Y-86644187D01*
X166506584Y-86644187D01*
X166563113Y-86360000D01*
X166453880Y-85810849D01*
X166142811Y-85345302D01*
X165769664Y-85095973D01*
X165911800Y-85037243D01*
X166121663Y-84827745D01*
X169271861Y-84827745D01*
X169345995Y-85073864D01*
X169883223Y-85266965D01*
X170453454Y-85239778D01*
X170854005Y-85073864D01*
X170928139Y-84827745D01*
X170100000Y-83999605D01*
X169271861Y-84827745D01*
X166121663Y-84827745D01*
X166315824Y-84633923D01*
X166534750Y-84106691D01*
X166535189Y-83603223D01*
X168653035Y-83603223D01*
X168680222Y-84173454D01*
X168846136Y-84574005D01*
X169092255Y-84648139D01*
X169920395Y-83820000D01*
X170279605Y-83820000D01*
X171107745Y-84648139D01*
X171353864Y-84574005D01*
X171546965Y-84036777D01*
X171519778Y-83466546D01*
X171353864Y-83065995D01*
X171107745Y-82991861D01*
X170279605Y-83820000D01*
X169920395Y-83820000D01*
X169092255Y-82991861D01*
X168846136Y-83065995D01*
X168653035Y-83603223D01*
X166535189Y-83603223D01*
X166535248Y-83535813D01*
X166317243Y-83008200D01*
X166121640Y-82812255D01*
X169271861Y-82812255D01*
X170100000Y-83640395D01*
X170928139Y-82812255D01*
X170854005Y-82566136D01*
X170316777Y-82373035D01*
X169746546Y-82400222D01*
X169345995Y-82566136D01*
X169271861Y-82812255D01*
X166121640Y-82812255D01*
X165913923Y-82604176D01*
X165386691Y-82385250D01*
X164815813Y-82384752D01*
X164288200Y-82602757D01*
X163955377Y-82935000D01*
X162926579Y-82935000D01*
X161628470Y-81636890D01*
X175723524Y-81636890D01*
X175893355Y-82046924D01*
X176283642Y-82475183D01*
X176442954Y-82550000D01*
X176283642Y-82624817D01*
X175893355Y-83053076D01*
X175723524Y-83463110D01*
X175844845Y-83693000D01*
X177038000Y-83693000D01*
X177038000Y-81407000D01*
X177292000Y-81407000D01*
X177292000Y-83693000D01*
X178485155Y-83693000D01*
X178606476Y-83463110D01*
X178436645Y-83053076D01*
X178046358Y-82624817D01*
X177887046Y-82550000D01*
X178046358Y-82475183D01*
X178436645Y-82046924D01*
X178606476Y-81636890D01*
X178485155Y-81407000D01*
X177292000Y-81407000D01*
X177038000Y-81407000D01*
X175844845Y-81407000D01*
X175723524Y-81636890D01*
X161628470Y-81636890D01*
X161280790Y-81289210D01*
X160993675Y-81097367D01*
X160937484Y-81086190D01*
X160655000Y-81029999D01*
X160654995Y-81030000D01*
X141605005Y-81030000D01*
X141605000Y-81029999D01*
X141322516Y-81086190D01*
X141266325Y-81097367D01*
X140979210Y-81289210D01*
X140979208Y-81289213D01*
X139090057Y-83178363D01*
X138469868Y-83055000D01*
X138390132Y-83055000D01*
X137611371Y-83209905D01*
X136951170Y-83651038D01*
X136510037Y-84311239D01*
X136355132Y-85090000D01*
X130239322Y-85090000D01*
X130219090Y-85058559D01*
X130006890Y-84913569D01*
X129755000Y-84862560D01*
X128055000Y-84862560D01*
X127819683Y-84906838D01*
X127603559Y-85045910D01*
X127458569Y-85258110D01*
X127407560Y-85510000D01*
X127407560Y-87210000D01*
X127451838Y-87445317D01*
X127590910Y-87661441D01*
X127803110Y-87806431D01*
X127870541Y-87820086D01*
X127825853Y-87849946D01*
X127503946Y-88331715D01*
X127390907Y-88900000D01*
X127503946Y-89468285D01*
X127825853Y-89950054D01*
X128155026Y-90170000D01*
X127825853Y-90389946D01*
X127503946Y-90871715D01*
X127390907Y-91440000D01*
X127503946Y-92008285D01*
X127825853Y-92490054D01*
X128155026Y-92710000D01*
X127825853Y-92929946D01*
X127503946Y-93411715D01*
X127390907Y-93980000D01*
X127503946Y-94548285D01*
X127825853Y-95030054D01*
X128155026Y-95250000D01*
X127825853Y-95469946D01*
X127503946Y-95951715D01*
X127390907Y-96520000D01*
X127503946Y-97088285D01*
X127825853Y-97570054D01*
X128155026Y-97790000D01*
X127825853Y-98009946D01*
X127503946Y-98491715D01*
X127390907Y-99060000D01*
X127503946Y-99628285D01*
X127825853Y-100110054D01*
X128155026Y-100330000D01*
X127825853Y-100549946D01*
X127503946Y-101031715D01*
X127390907Y-101600000D01*
X127497782Y-102137295D01*
X127344160Y-102167852D01*
X127097599Y-102332599D01*
X123050320Y-106379878D01*
X123004833Y-106379838D01*
X122661057Y-106521883D01*
X122397808Y-106784673D01*
X122255162Y-107128201D01*
X122254838Y-107500167D01*
X122396883Y-107843943D01*
X122659673Y-108107192D01*
X123003201Y-108249838D01*
X123375167Y-108250162D01*
X123718943Y-108108117D01*
X123982192Y-107845327D01*
X124124838Y-107501799D01*
X124124879Y-107454923D01*
X127399019Y-104180783D01*
X127503946Y-104708285D01*
X127825853Y-105190054D01*
X128037242Y-105331299D01*
X127979161Y-105342852D01*
X127732599Y-105507599D01*
X125827599Y-107412599D01*
X125662852Y-107659161D01*
X125605000Y-107950000D01*
X125605000Y-113326799D01*
X125211707Y-113064009D01*
X124739093Y-112970000D01*
X124180907Y-112970000D01*
X123708293Y-113064009D01*
X123307630Y-113331723D01*
X123039916Y-113732386D01*
X122945907Y-114205000D01*
X123039916Y-114677614D01*
X123289130Y-115050590D01*
X123250301Y-115066673D01*
X123071673Y-115245302D01*
X122975000Y-115478691D01*
X122975000Y-115919250D01*
X123133750Y-116078000D01*
X124333000Y-116078000D01*
X124333000Y-116058000D01*
X124587000Y-116058000D01*
X124587000Y-116078000D01*
X124607000Y-116078000D01*
X124607000Y-116332000D01*
X124587000Y-116332000D01*
X124587000Y-117281250D01*
X124717275Y-117411525D01*
X122017599Y-120111201D01*
X121852852Y-120357763D01*
X121795000Y-120648602D01*
X119430000Y-120648602D01*
X119430000Y-116490750D01*
X122975000Y-116490750D01*
X122975000Y-116931309D01*
X123071673Y-117164698D01*
X123250301Y-117343327D01*
X123483690Y-117440000D01*
X124174250Y-117440000D01*
X124333000Y-117281250D01*
X124333000Y-116332000D01*
X123133750Y-116332000D01*
X122975000Y-116490750D01*
X119430000Y-116490750D01*
X119430000Y-69850000D01*
X121040907Y-69850000D01*
X121153946Y-70418285D01*
X121475853Y-70900054D01*
X121805026Y-71120000D01*
X121475853Y-71339946D01*
X121153946Y-71821715D01*
X121040907Y-72390000D01*
X121153946Y-72958285D01*
X121475853Y-73440054D01*
X121805026Y-73660000D01*
X121475853Y-73879946D01*
X121153946Y-74361715D01*
X121040907Y-74930000D01*
X121153946Y-75498285D01*
X121475853Y-75980054D01*
X121805026Y-76200000D01*
X121475853Y-76419946D01*
X121153946Y-76901715D01*
X121040907Y-77470000D01*
X121153946Y-78038285D01*
X121475853Y-78520054D01*
X121805026Y-78740000D01*
X121475853Y-78959946D01*
X121153946Y-79441715D01*
X121040907Y-80010000D01*
X121153946Y-80578285D01*
X121475853Y-81060054D01*
X121805026Y-81280000D01*
X121475853Y-81499946D01*
X121153946Y-81981715D01*
X121040907Y-82550000D01*
X121153946Y-83118285D01*
X121475853Y-83600054D01*
X121957622Y-83921961D01*
X122525907Y-84035000D01*
X122584093Y-84035000D01*
X123152378Y-83921961D01*
X123634147Y-83600054D01*
X123811250Y-83335000D01*
X127648750Y-83335000D01*
X127825853Y-83600054D01*
X128307622Y-83921961D01*
X128875907Y-84035000D01*
X128934093Y-84035000D01*
X129502378Y-83921961D01*
X129984147Y-83600054D01*
X130306054Y-83118285D01*
X130419093Y-82550000D01*
X130306054Y-81981715D01*
X129984147Y-81499946D01*
X129654974Y-81280000D01*
X129984147Y-81060054D01*
X130306054Y-80578285D01*
X130419093Y-80010000D01*
X130306054Y-79441715D01*
X130195622Y-79276440D01*
X157123165Y-79276440D01*
X157332353Y-79637289D01*
X158269650Y-80014824D01*
X159280077Y-80004933D01*
X160167647Y-79637289D01*
X160376835Y-79276440D01*
X158750000Y-77649605D01*
X157123165Y-79276440D01*
X130195622Y-79276440D01*
X129984147Y-78959946D01*
X129654974Y-78740000D01*
X129984147Y-78520054D01*
X130306054Y-78038285D01*
X130419093Y-77470000D01*
X130323546Y-76989650D01*
X156205176Y-76989650D01*
X156215067Y-78000077D01*
X156582711Y-78887647D01*
X156943560Y-79096835D01*
X158570395Y-77470000D01*
X158929605Y-77470000D01*
X160556440Y-79096835D01*
X160917289Y-78887647D01*
X161294824Y-77950350D01*
X161284933Y-76939923D01*
X160917289Y-76052353D01*
X160556440Y-75843165D01*
X158929605Y-77470000D01*
X158570395Y-77470000D01*
X156943560Y-75843165D01*
X156582711Y-76052353D01*
X156205176Y-76989650D01*
X130323546Y-76989650D01*
X130306054Y-76901715D01*
X129984147Y-76419946D01*
X129654974Y-76200000D01*
X129984147Y-75980054D01*
X130195621Y-75663560D01*
X157123165Y-75663560D01*
X158750000Y-77290395D01*
X160376835Y-75663560D01*
X160167647Y-75302711D01*
X159230350Y-74925176D01*
X158219923Y-74935067D01*
X157332353Y-75302711D01*
X157123165Y-75663560D01*
X130195621Y-75663560D01*
X130306054Y-75498285D01*
X130419093Y-74930000D01*
X130306054Y-74361715D01*
X129984147Y-73879946D01*
X129654974Y-73660000D01*
X129984147Y-73440054D01*
X130070544Y-73310750D01*
X163615000Y-73310750D01*
X163615000Y-74001310D01*
X163711673Y-74234699D01*
X163890302Y-74413327D01*
X164123691Y-74510000D01*
X164814250Y-74510000D01*
X164973000Y-74351250D01*
X164973000Y-73152000D01*
X163773750Y-73152000D01*
X163615000Y-73310750D01*
X130070544Y-73310750D01*
X130306054Y-72958285D01*
X130419093Y-72390000D01*
X130306054Y-71821715D01*
X129984147Y-71339946D01*
X129654974Y-71120000D01*
X129984147Y-70900054D01*
X130306054Y-70418285D01*
X130419093Y-69850000D01*
X136355132Y-69850000D01*
X136510037Y-70628761D01*
X136951170Y-71288962D01*
X137611371Y-71730095D01*
X138390132Y-71885000D01*
X138469868Y-71885000D01*
X139248629Y-71730095D01*
X139908830Y-71288962D01*
X140349963Y-70628761D01*
X140504868Y-69850000D01*
X140349963Y-69071239D01*
X139934864Y-68450000D01*
X146542560Y-68450000D01*
X146542560Y-71250000D01*
X146586838Y-71485317D01*
X146725910Y-71701441D01*
X146938110Y-71846431D01*
X147190000Y-71897440D01*
X149990000Y-71897440D01*
X150225317Y-71853162D01*
X150441441Y-71714090D01*
X150586431Y-71501890D01*
X150637440Y-71250000D01*
X150637440Y-70735000D01*
X156367390Y-70735000D01*
X156595437Y-71286915D01*
X157309327Y-72002052D01*
X158242546Y-72389559D01*
X159253021Y-72390440D01*
X160080119Y-72048690D01*
X163615000Y-72048690D01*
X163615000Y-72739250D01*
X163773750Y-72898000D01*
X164973000Y-72898000D01*
X164973000Y-70612000D01*
X163779845Y-70612000D01*
X163658524Y-70841890D01*
X163828355Y-71251924D01*
X164099878Y-71549864D01*
X163890302Y-71636673D01*
X163711673Y-71815301D01*
X163615000Y-72048690D01*
X160080119Y-72048690D01*
X160186915Y-72004563D01*
X160902052Y-71290673D01*
X161289559Y-70357454D01*
X161289758Y-70128110D01*
X163658524Y-70128110D01*
X163779845Y-70358000D01*
X164973000Y-70358000D01*
X164973000Y-69164181D01*
X164743108Y-69043514D01*
X164218642Y-69289817D01*
X163828355Y-69718076D01*
X163658524Y-70128110D01*
X161289758Y-70128110D01*
X161290440Y-69346979D01*
X160904563Y-68413085D01*
X160190673Y-67697948D01*
X159257454Y-67310441D01*
X158246979Y-67309560D01*
X157313085Y-67695437D01*
X156597948Y-68409327D01*
X156367212Y-68965000D01*
X150637440Y-68965000D01*
X150637440Y-68450000D01*
X150593162Y-68214683D01*
X150454090Y-67998559D01*
X150241890Y-67853569D01*
X149990000Y-67802560D01*
X147190000Y-67802560D01*
X146954683Y-67846838D01*
X146738559Y-67985910D01*
X146593569Y-68198110D01*
X146542560Y-68450000D01*
X139934864Y-68450000D01*
X139908830Y-68411038D01*
X139248629Y-67969905D01*
X138469868Y-67815000D01*
X138390132Y-67815000D01*
X137611371Y-67969905D01*
X136951170Y-68411038D01*
X136510037Y-69071239D01*
X136355132Y-69850000D01*
X130419093Y-69850000D01*
X130306054Y-69281715D01*
X129984147Y-68799946D01*
X129643447Y-68572298D01*
X129786358Y-68505183D01*
X130176645Y-68076924D01*
X130346476Y-67666890D01*
X130225155Y-67437000D01*
X129032000Y-67437000D01*
X129032000Y-67457000D01*
X128778000Y-67457000D01*
X128778000Y-67437000D01*
X127584845Y-67437000D01*
X127463524Y-67666890D01*
X127633355Y-68076924D01*
X128023642Y-68505183D01*
X128166553Y-68572298D01*
X127825853Y-68799946D01*
X127648750Y-69065000D01*
X123811250Y-69065000D01*
X123634147Y-68799946D01*
X123293447Y-68572298D01*
X123436358Y-68505183D01*
X123826645Y-68076924D01*
X123996476Y-67666890D01*
X123875155Y-67437000D01*
X122682000Y-67437000D01*
X122682000Y-67457000D01*
X122428000Y-67457000D01*
X122428000Y-67437000D01*
X121234845Y-67437000D01*
X121113524Y-67666890D01*
X121283355Y-68076924D01*
X121673642Y-68505183D01*
X121816553Y-68572298D01*
X121475853Y-68799946D01*
X121153946Y-69281715D01*
X121040907Y-69850000D01*
X119430000Y-69850000D01*
X119430000Y-63920000D01*
X121057560Y-63920000D01*
X121057560Y-65620000D01*
X121101838Y-65855317D01*
X121240910Y-66071441D01*
X121453110Y-66216431D01*
X121561107Y-66238301D01*
X121283355Y-66543076D01*
X121113524Y-66953110D01*
X121234845Y-67183000D01*
X122428000Y-67183000D01*
X122428000Y-67163000D01*
X122682000Y-67163000D01*
X122682000Y-67183000D01*
X123875155Y-67183000D01*
X123996476Y-66953110D01*
X123826645Y-66543076D01*
X123550499Y-66240063D01*
X123640317Y-66223162D01*
X123856441Y-66084090D01*
X124001431Y-65871890D01*
X124052440Y-65620000D01*
X124052440Y-65555000D01*
X127407560Y-65555000D01*
X127407560Y-65620000D01*
X127451838Y-65855317D01*
X127590910Y-66071441D01*
X127803110Y-66216431D01*
X127911107Y-66238301D01*
X127633355Y-66543076D01*
X127463524Y-66953110D01*
X127584845Y-67183000D01*
X128778000Y-67183000D01*
X128778000Y-67163000D01*
X129032000Y-67163000D01*
X129032000Y-67183000D01*
X130225155Y-67183000D01*
X130346476Y-66953110D01*
X130176645Y-66543076D01*
X129900499Y-66240063D01*
X129990317Y-66223162D01*
X130206441Y-66084090D01*
X130351431Y-65871890D01*
X130402440Y-65620000D01*
X130402440Y-63920000D01*
X130358162Y-63684683D01*
X130219090Y-63468559D01*
X130006890Y-63323569D01*
X129755000Y-63272560D01*
X128055000Y-63272560D01*
X127819683Y-63316838D01*
X127603559Y-63455910D01*
X127458569Y-63668110D01*
X127407560Y-63920000D01*
X127407560Y-63985000D01*
X124052440Y-63985000D01*
X124052440Y-63920000D01*
X124008162Y-63684683D01*
X123869090Y-63468559D01*
X123656890Y-63323569D01*
X123405000Y-63272560D01*
X121705000Y-63272560D01*
X121469683Y-63316838D01*
X121253559Y-63455910D01*
X121108569Y-63668110D01*
X121057560Y-63920000D01*
X119430000Y-63920000D01*
X119430000Y-62838846D01*
X151065000Y-62838846D01*
X151065000Y-62891154D01*
X151166621Y-63402036D01*
X151456012Y-63835142D01*
X151889118Y-64124533D01*
X152400000Y-64226154D01*
X152491395Y-64207974D01*
X154314208Y-66030787D01*
X154314210Y-66030790D01*
X154601325Y-66222633D01*
X154940000Y-66290000D01*
X164098420Y-66290000D01*
X166755000Y-68946579D01*
X166755000Y-69305221D01*
X166560853Y-69434946D01*
X166371655Y-69718101D01*
X166371645Y-69718076D01*
X165981358Y-69289817D01*
X165456892Y-69043514D01*
X165227000Y-69164181D01*
X165227000Y-70358000D01*
X165247000Y-70358000D01*
X165247000Y-70612000D01*
X165227000Y-70612000D01*
X165227000Y-72898000D01*
X165247000Y-72898000D01*
X165247000Y-73152000D01*
X165227000Y-73152000D01*
X165227000Y-74351250D01*
X165385750Y-74510000D01*
X166076309Y-74510000D01*
X166100020Y-74500178D01*
X170760804Y-79160962D01*
X170839905Y-79558629D01*
X171281038Y-80218830D01*
X171941239Y-80659963D01*
X172720000Y-80814868D01*
X173498761Y-80659963D01*
X174158962Y-80218830D01*
X174493300Y-79718458D01*
X175339921Y-80565079D01*
X175594593Y-80735245D01*
X175785599Y-80773239D01*
X175723524Y-80923110D01*
X175844845Y-81153000D01*
X177038000Y-81153000D01*
X177038000Y-81133000D01*
X177292000Y-81133000D01*
X177292000Y-81153000D01*
X178485155Y-81153000D01*
X178606476Y-80923110D01*
X178553414Y-80795000D01*
X179070000Y-80795000D01*
X179370407Y-80735245D01*
X179625079Y-80565079D01*
X182165079Y-78025079D01*
X182335244Y-77770407D01*
X182335245Y-77770406D01*
X182395000Y-77470000D01*
X182395000Y-75611208D01*
X182695409Y-75410481D01*
X183028155Y-74912491D01*
X183145000Y-74325072D01*
X183145000Y-74264928D01*
X183028155Y-73677509D01*
X182695409Y-73179519D01*
X182457418Y-73020499D01*
X182847966Y-72662576D01*
X183101046Y-72119742D01*
X182980997Y-71882000D01*
X181737000Y-71882000D01*
X181737000Y-71902000D01*
X181483000Y-71902000D01*
X181483000Y-71882000D01*
X180239003Y-71882000D01*
X180118954Y-72119742D01*
X180372034Y-72662576D01*
X180762582Y-73020499D01*
X180524591Y-73179519D01*
X180191845Y-73677509D01*
X180075000Y-74264928D01*
X180075000Y-74325072D01*
X180191845Y-74912491D01*
X180524591Y-75410481D01*
X180825000Y-75611208D01*
X180825000Y-77144842D01*
X178744842Y-79225000D01*
X178582620Y-79225000D01*
X178679093Y-78740000D01*
X178566054Y-78171715D01*
X178244147Y-77689946D01*
X177914974Y-77470000D01*
X178244147Y-77250054D01*
X178566054Y-76768285D01*
X178679093Y-76200000D01*
X178566054Y-75631715D01*
X178244147Y-75149946D01*
X177914974Y-74930000D01*
X178244147Y-74710054D01*
X178566054Y-74228285D01*
X178679093Y-73660000D01*
X178566054Y-73091715D01*
X178244147Y-72609946D01*
X177914974Y-72390000D01*
X178244147Y-72170054D01*
X178566054Y-71688285D01*
X178679093Y-71120000D01*
X178577648Y-70610000D01*
X180309661Y-70610000D01*
X180458110Y-70711431D01*
X180509146Y-70721766D01*
X180372034Y-70847424D01*
X180118954Y-71390258D01*
X180239003Y-71628000D01*
X181483000Y-71628000D01*
X181483000Y-71608000D01*
X181737000Y-71608000D01*
X181737000Y-71628000D01*
X182980997Y-71628000D01*
X183101046Y-71390258D01*
X182847966Y-70847424D01*
X182713462Y-70724156D01*
X182745317Y-70718162D01*
X182961441Y-70579090D01*
X183106431Y-70366890D01*
X183157440Y-70115000D01*
X183157440Y-68315000D01*
X183113162Y-68079683D01*
X182974090Y-67863559D01*
X182761890Y-67718569D01*
X182510000Y-67667560D01*
X180710000Y-67667560D01*
X180474683Y-67711838D01*
X180258559Y-67850910D01*
X180113569Y-68063110D01*
X180062560Y-68315000D01*
X180062560Y-69090000D01*
X178662440Y-69090000D01*
X178662440Y-67730000D01*
X178618162Y-67494683D01*
X178479090Y-67278559D01*
X178266890Y-67133569D01*
X178015000Y-67082560D01*
X176315000Y-67082560D01*
X176079683Y-67126838D01*
X175863559Y-67265910D01*
X175718569Y-67478110D01*
X175667560Y-67730000D01*
X175667560Y-68547758D01*
X175162401Y-68042599D01*
X174915839Y-67877852D01*
X174767440Y-67848333D01*
X174767440Y-67180000D01*
X174723162Y-66944683D01*
X174584090Y-66728559D01*
X174371890Y-66583569D01*
X174120000Y-66532560D01*
X171320000Y-66532560D01*
X171084683Y-66576838D01*
X170868559Y-66715910D01*
X170723569Y-66928110D01*
X170672560Y-67180000D01*
X170672560Y-69980000D01*
X170716838Y-70215317D01*
X170855910Y-70431441D01*
X171068110Y-70576431D01*
X171320000Y-70627440D01*
X174120000Y-70627440D01*
X174355317Y-70583162D01*
X174571441Y-70444090D01*
X174716431Y-70231890D01*
X174767440Y-69980000D01*
X174767440Y-69797242D01*
X175357599Y-70387401D01*
X175604160Y-70552148D01*
X175757782Y-70582705D01*
X175650907Y-71120000D01*
X175763946Y-71688285D01*
X176085853Y-72170054D01*
X176415026Y-72390000D01*
X176085853Y-72609946D01*
X175763946Y-73091715D01*
X175650907Y-73660000D01*
X175763946Y-74228285D01*
X175956256Y-74516098D01*
X173910079Y-72469921D01*
X173655407Y-72299755D01*
X173355000Y-72240000D01*
X168896250Y-72240000D01*
X168719147Y-71974946D01*
X168389974Y-71755000D01*
X168719147Y-71535054D01*
X169041054Y-71053285D01*
X169154093Y-70485000D01*
X169041054Y-69916715D01*
X168719147Y-69434946D01*
X168525000Y-69305221D01*
X168525000Y-68580005D01*
X168525001Y-68580000D01*
X168457633Y-68241326D01*
X168457633Y-68241325D01*
X168265790Y-67954210D01*
X168265787Y-67954208D01*
X165734262Y-65422682D01*
X166142811Y-65149698D01*
X166453880Y-64684151D01*
X166506584Y-64419187D01*
X171284752Y-64419187D01*
X171502757Y-64946800D01*
X171906077Y-65350824D01*
X172433309Y-65569750D01*
X173004187Y-65570248D01*
X173531800Y-65352243D01*
X173935824Y-64948923D01*
X174154750Y-64421691D01*
X174155248Y-63850813D01*
X173937243Y-63323200D01*
X173533923Y-62919176D01*
X173006691Y-62700250D01*
X172435813Y-62699752D01*
X171908200Y-62917757D01*
X171504176Y-63321077D01*
X171285250Y-63848309D01*
X171284752Y-64419187D01*
X166506584Y-64419187D01*
X166563113Y-64135000D01*
X166453880Y-63585849D01*
X166142811Y-63120302D01*
X165769664Y-62870973D01*
X165911800Y-62812243D01*
X166121663Y-62602745D01*
X169271861Y-62602745D01*
X169345995Y-62848864D01*
X169883223Y-63041965D01*
X170453454Y-63014778D01*
X170854005Y-62848864D01*
X170928139Y-62602745D01*
X170100000Y-61774605D01*
X169271861Y-62602745D01*
X166121663Y-62602745D01*
X166315824Y-62408923D01*
X166534750Y-61881691D01*
X166535189Y-61378223D01*
X168653035Y-61378223D01*
X168680222Y-61948454D01*
X168846136Y-62349005D01*
X169092255Y-62423139D01*
X169920395Y-61595000D01*
X170279605Y-61595000D01*
X171107745Y-62423139D01*
X171353864Y-62349005D01*
X171546965Y-61811777D01*
X171519778Y-61241546D01*
X171353864Y-60840995D01*
X171107745Y-60766861D01*
X170279605Y-61595000D01*
X169920395Y-61595000D01*
X169092255Y-60766861D01*
X168846136Y-60840995D01*
X168653035Y-61378223D01*
X166535189Y-61378223D01*
X166535248Y-61310813D01*
X166317243Y-60783200D01*
X166121640Y-60587255D01*
X169271861Y-60587255D01*
X170100000Y-61415395D01*
X170928139Y-60587255D01*
X170854005Y-60341136D01*
X170316777Y-60148035D01*
X169746546Y-60175222D01*
X169345995Y-60341136D01*
X169271861Y-60587255D01*
X166121640Y-60587255D01*
X165913923Y-60379176D01*
X165386691Y-60160250D01*
X164815813Y-60159752D01*
X164288200Y-60377757D01*
X163884176Y-60781077D01*
X163665250Y-61308309D01*
X163664752Y-61879187D01*
X163882757Y-62406800D01*
X164286077Y-62810824D01*
X164430564Y-62870820D01*
X164057189Y-63120302D01*
X163746120Y-63585849D01*
X163636887Y-64135000D01*
X163713468Y-64520000D01*
X155306579Y-64520000D01*
X153725499Y-62938919D01*
X153735000Y-62891154D01*
X153735000Y-62838846D01*
X153633379Y-62327964D01*
X153343988Y-61894858D01*
X152910882Y-61605467D01*
X152400000Y-61503846D01*
X151889118Y-61605467D01*
X151456012Y-61894858D01*
X151166621Y-62327964D01*
X151065000Y-62838846D01*
X119430000Y-62838846D01*
X119430000Y-60132619D01*
X133019613Y-60132619D01*
X133359155Y-60954372D01*
X133987321Y-61583636D01*
X134808481Y-61924611D01*
X135697619Y-61925387D01*
X136519372Y-61585845D01*
X137148636Y-60957679D01*
X137489611Y-60136519D01*
X137489614Y-60132619D01*
X181914613Y-60132619D01*
X182254155Y-60954372D01*
X182882321Y-61583636D01*
X183703481Y-61924611D01*
X184592619Y-61925387D01*
X185414372Y-61585845D01*
X186043636Y-60957679D01*
X186384611Y-60136519D01*
X186385387Y-59247381D01*
X186045845Y-58425628D01*
X185417679Y-57796364D01*
X184596519Y-57455389D01*
X183707381Y-57454613D01*
X182885628Y-57794155D01*
X182256364Y-58422321D01*
X181915389Y-59243481D01*
X181914613Y-60132619D01*
X137489614Y-60132619D01*
X137490387Y-59247381D01*
X137150845Y-58425628D01*
X136522679Y-57796364D01*
X135701519Y-57455389D01*
X134812381Y-57454613D01*
X133990628Y-57794155D01*
X133361364Y-58422321D01*
X133020389Y-59243481D01*
X133019613Y-60132619D01*
X119430000Y-60132619D01*
X119430000Y-54025000D01*
X127599712Y-54025000D01*
X127011364Y-54612321D01*
G36*
X156205176Y-92229650D02*
X156215067Y-93240077D01*
X156582711Y-94127647D01*
X156943558Y-94336834D01*
X156830718Y-94449674D01*
X156871044Y-94490000D01*
X152575893Y-94490000D01*
X152593139Y-94432745D01*
X151765000Y-93604605D01*
X150936861Y-94432745D01*
X150954107Y-94490000D01*
X146685000Y-94490000D01*
X146442414Y-94538254D01*
X146394160Y-94547852D01*
X146147599Y-94712599D01*
X135575198Y-105285000D01*
X129842050Y-105285000D01*
X129984147Y-105190054D01*
X130306054Y-104708285D01*
X130419093Y-104140000D01*
X130317648Y-103630000D01*
X133985000Y-103630000D01*
X134275839Y-103572148D01*
X134522401Y-103407401D01*
X145521471Y-92408331D01*
X146027273Y-92408331D01*
X146253236Y-92877663D01*
X146641604Y-93224797D01*
X146986671Y-93367716D01*
X147193000Y-93244374D01*
X147193000Y-92202000D01*
X147447000Y-92202000D01*
X147447000Y-93244374D01*
X147653329Y-93367716D01*
X147998396Y-93224797D01*
X148016938Y-93208223D01*
X150318035Y-93208223D01*
X150345222Y-93778454D01*
X150511136Y-94179005D01*
X150757255Y-94253139D01*
X151585395Y-93425000D01*
X151944605Y-93425000D01*
X152772745Y-94253139D01*
X153018864Y-94179005D01*
X153211965Y-93641777D01*
X153184778Y-93071546D01*
X153018864Y-92670995D01*
X152772745Y-92596861D01*
X151944605Y-93425000D01*
X151585395Y-93425000D01*
X150757255Y-92596861D01*
X150511136Y-92670995D01*
X150318035Y-93208223D01*
X148016938Y-93208223D01*
X148386764Y-92877663D01*
X148608430Y-92417255D01*
X150936861Y-92417255D01*
X151765000Y-93245395D01*
X152593139Y-92417255D01*
X152519005Y-92171136D01*
X151981777Y-91978035D01*
X151411546Y-92005222D01*
X151010995Y-92171136D01*
X150936861Y-92417255D01*
X148608430Y-92417255D01*
X148612727Y-92408331D01*
X148490206Y-92202000D01*
X147447000Y-92202000D01*
X147193000Y-92202000D01*
X146149794Y-92202000D01*
X146027273Y-92408331D01*
X145521471Y-92408331D01*
X146087205Y-91842597D01*
X146149794Y-91948000D01*
X147193000Y-91948000D01*
X147193000Y-91928000D01*
X147447000Y-91928000D01*
X147447000Y-91948000D01*
X148490206Y-91948000D01*
X148612727Y-91741669D01*
X148527669Y-91565000D01*
X156472891Y-91565000D01*
X156205176Y-92229650D01*
X156205176Y-92229650D01*
G37*
X156205176Y-92229650D02*
X156215067Y-93240077D01*
X156582711Y-94127647D01*
X156943558Y-94336834D01*
X156830718Y-94449674D01*
X156871044Y-94490000D01*
X152575893Y-94490000D01*
X152593139Y-94432745D01*
X151765000Y-93604605D01*
X150936861Y-94432745D01*
X150954107Y-94490000D01*
X146685000Y-94490000D01*
X146442414Y-94538254D01*
X146394160Y-94547852D01*
X146147599Y-94712599D01*
X135575198Y-105285000D01*
X129842050Y-105285000D01*
X129984147Y-105190054D01*
X130306054Y-104708285D01*
X130419093Y-104140000D01*
X130317648Y-103630000D01*
X133985000Y-103630000D01*
X134275839Y-103572148D01*
X134522401Y-103407401D01*
X145521471Y-92408331D01*
X146027273Y-92408331D01*
X146253236Y-92877663D01*
X146641604Y-93224797D01*
X146986671Y-93367716D01*
X147193000Y-93244374D01*
X147193000Y-92202000D01*
X147447000Y-92202000D01*
X147447000Y-93244374D01*
X147653329Y-93367716D01*
X147998396Y-93224797D01*
X148016938Y-93208223D01*
X150318035Y-93208223D01*
X150345222Y-93778454D01*
X150511136Y-94179005D01*
X150757255Y-94253139D01*
X151585395Y-93425000D01*
X151944605Y-93425000D01*
X152772745Y-94253139D01*
X153018864Y-94179005D01*
X153211965Y-93641777D01*
X153184778Y-93071546D01*
X153018864Y-92670995D01*
X152772745Y-92596861D01*
X151944605Y-93425000D01*
X151585395Y-93425000D01*
X150757255Y-92596861D01*
X150511136Y-92670995D01*
X150318035Y-93208223D01*
X148016938Y-93208223D01*
X148386764Y-92877663D01*
X148608430Y-92417255D01*
X150936861Y-92417255D01*
X151765000Y-93245395D01*
X152593139Y-92417255D01*
X152519005Y-92171136D01*
X151981777Y-91978035D01*
X151411546Y-92005222D01*
X151010995Y-92171136D01*
X150936861Y-92417255D01*
X148608430Y-92417255D01*
X148612727Y-92408331D01*
X148490206Y-92202000D01*
X147447000Y-92202000D01*
X147193000Y-92202000D01*
X146149794Y-92202000D01*
X146027273Y-92408331D01*
X145521471Y-92408331D01*
X146087205Y-91842597D01*
X146149794Y-91948000D01*
X147193000Y-91948000D01*
X147193000Y-91928000D01*
X147447000Y-91928000D01*
X147447000Y-91948000D01*
X148490206Y-91948000D01*
X148612727Y-91741669D01*
X148527669Y-91565000D01*
X156472891Y-91565000D01*
X156205176Y-92229650D01*
G36*
X158943748Y-92695858D02*
X158929605Y-92710000D01*
X158943748Y-92724143D01*
X158764143Y-92903748D01*
X158750000Y-92889605D01*
X158735858Y-92903748D01*
X158556253Y-92724143D01*
X158570395Y-92710000D01*
X158556253Y-92695858D01*
X158735858Y-92516253D01*
X158750000Y-92530395D01*
X158764143Y-92516253D01*
X158943748Y-92695858D01*
X158943748Y-92695858D01*
G37*
X158943748Y-92695858D02*
X158929605Y-92710000D01*
X158943748Y-92724143D01*
X158764143Y-92903748D01*
X158750000Y-92889605D01*
X158735858Y-92903748D01*
X158556253Y-92724143D01*
X158570395Y-92710000D01*
X158556253Y-92695858D01*
X158735858Y-92516253D01*
X158750000Y-92530395D01*
X158764143Y-92516253D01*
X158943748Y-92695858D01*
G36*
X134059817Y-143898642D02*
X133813514Y-144423108D01*
X133934181Y-144653000D01*
X135128000Y-144653000D01*
X135128000Y-144633000D01*
X135382000Y-144633000D01*
X135382000Y-144653000D01*
X135402000Y-144653000D01*
X135402000Y-144907000D01*
X135382000Y-144907000D01*
X135382000Y-144927000D01*
X135128000Y-144927000D01*
X135128000Y-144907000D01*
X133934181Y-144907000D01*
X133813514Y-145136892D01*
X134059817Y-145661358D01*
X134395954Y-145967691D01*
X134096723Y-146167630D01*
X133829009Y-146568293D01*
X133735000Y-147040907D01*
X133735000Y-147599093D01*
X133829009Y-148071707D01*
X134075094Y-148440000D01*
X131985482Y-148440000D01*
X132045000Y-148296310D01*
X132045000Y-147605750D01*
X131886250Y-147447000D01*
X130937000Y-147447000D01*
X130937000Y-147467000D01*
X130683000Y-147467000D01*
X130683000Y-147447000D01*
X130663000Y-147447000D01*
X130663000Y-147193000D01*
X130683000Y-147193000D01*
X130683000Y-147173000D01*
X130937000Y-147173000D01*
X130937000Y-147193000D01*
X131886250Y-147193000D01*
X132045000Y-147034250D01*
X132045000Y-146343690D01*
X132017558Y-146277440D01*
X132930000Y-146277440D01*
X133165317Y-146233162D01*
X133381441Y-146094090D01*
X133526431Y-145881890D01*
X133577440Y-145630000D01*
X133577440Y-143930000D01*
X133533162Y-143694683D01*
X133510844Y-143660000D01*
X134321677Y-143660000D01*
X134059817Y-143898642D01*
X134059817Y-143898642D01*
G37*
X134059817Y-143898642D02*
X133813514Y-144423108D01*
X133934181Y-144653000D01*
X135128000Y-144653000D01*
X135128000Y-144633000D01*
X135382000Y-144633000D01*
X135382000Y-144653000D01*
X135402000Y-144653000D01*
X135402000Y-144907000D01*
X135382000Y-144907000D01*
X135382000Y-144927000D01*
X135128000Y-144927000D01*
X135128000Y-144907000D01*
X133934181Y-144907000D01*
X133813514Y-145136892D01*
X134059817Y-145661358D01*
X134395954Y-145967691D01*
X134096723Y-146167630D01*
X133829009Y-146568293D01*
X133735000Y-147040907D01*
X133735000Y-147599093D01*
X133829009Y-148071707D01*
X134075094Y-148440000D01*
X131985482Y-148440000D01*
X132045000Y-148296310D01*
X132045000Y-147605750D01*
X131886250Y-147447000D01*
X130937000Y-147447000D01*
X130937000Y-147467000D01*
X130683000Y-147467000D01*
X130683000Y-147447000D01*
X130663000Y-147447000D01*
X130663000Y-147193000D01*
X130683000Y-147193000D01*
X130683000Y-147173000D01*
X130937000Y-147173000D01*
X130937000Y-147193000D01*
X131886250Y-147193000D01*
X132045000Y-147034250D01*
X132045000Y-146343690D01*
X132017558Y-146277440D01*
X132930000Y-146277440D01*
X133165317Y-146233162D01*
X133381441Y-146094090D01*
X133526431Y-145881890D01*
X133577440Y-145630000D01*
X133577440Y-143930000D01*
X133533162Y-143694683D01*
X133510844Y-143660000D01*
X134321677Y-143660000D01*
X134059817Y-143898642D01*
G36*
X142314817Y-143898642D02*
X142068514Y-144423108D01*
X142189181Y-144653000D01*
X143383000Y-144653000D01*
X143383000Y-144633000D01*
X143637000Y-144633000D01*
X143637000Y-144653000D01*
X143657000Y-144653000D01*
X143657000Y-144907000D01*
X143637000Y-144907000D01*
X143637000Y-146100155D01*
X143866890Y-146221476D01*
X144276924Y-146051645D01*
X144705183Y-145661358D01*
X144772298Y-145518447D01*
X144983803Y-145834987D01*
X144657386Y-145899916D01*
X144256723Y-146167630D01*
X143989009Y-146568293D01*
X143895000Y-147040907D01*
X143895000Y-147599093D01*
X143989009Y-148071707D01*
X144235094Y-148440000D01*
X142565158Y-148440000D01*
X142217440Y-148092282D01*
X142217440Y-146470000D01*
X142173162Y-146234683D01*
X142034090Y-146018559D01*
X141821890Y-145873569D01*
X141784643Y-145866026D01*
X141832440Y-145630000D01*
X141832440Y-145136892D01*
X142068514Y-145136892D01*
X142314817Y-145661358D01*
X142743076Y-146051645D01*
X143153110Y-146221476D01*
X143383000Y-146100155D01*
X143383000Y-144907000D01*
X142189181Y-144907000D01*
X142068514Y-145136892D01*
X141832440Y-145136892D01*
X141832440Y-143930000D01*
X141788162Y-143694683D01*
X141765844Y-143660000D01*
X142576677Y-143660000D01*
X142314817Y-143898642D01*
X142314817Y-143898642D01*
G37*
X142314817Y-143898642D02*
X142068514Y-144423108D01*
X142189181Y-144653000D01*
X143383000Y-144653000D01*
X143383000Y-144633000D01*
X143637000Y-144633000D01*
X143637000Y-144653000D01*
X143657000Y-144653000D01*
X143657000Y-144907000D01*
X143637000Y-144907000D01*
X143637000Y-146100155D01*
X143866890Y-146221476D01*
X144276924Y-146051645D01*
X144705183Y-145661358D01*
X144772298Y-145518447D01*
X144983803Y-145834987D01*
X144657386Y-145899916D01*
X144256723Y-146167630D01*
X143989009Y-146568293D01*
X143895000Y-147040907D01*
X143895000Y-147599093D01*
X143989009Y-148071707D01*
X144235094Y-148440000D01*
X142565158Y-148440000D01*
X142217440Y-148092282D01*
X142217440Y-146470000D01*
X142173162Y-146234683D01*
X142034090Y-146018559D01*
X141821890Y-145873569D01*
X141784643Y-145866026D01*
X141832440Y-145630000D01*
X141832440Y-145136892D01*
X142068514Y-145136892D01*
X142314817Y-145661358D01*
X142743076Y-146051645D01*
X143153110Y-146221476D01*
X143383000Y-146100155D01*
X143383000Y-144907000D01*
X142189181Y-144907000D01*
X142068514Y-145136892D01*
X141832440Y-145136892D01*
X141832440Y-143930000D01*
X141788162Y-143694683D01*
X141765844Y-143660000D01*
X142576677Y-143660000D01*
X142314817Y-143898642D01*
G36*
X127547363Y-147132165D02*
X127510000Y-147320000D01*
X127567852Y-147610839D01*
X127581357Y-147631050D01*
X127669009Y-148071707D01*
X127915094Y-148440000D01*
X125635482Y-148440000D01*
X125695000Y-148296310D01*
X125695000Y-147605750D01*
X125536250Y-147447000D01*
X124587000Y-147447000D01*
X124587000Y-147467000D01*
X124333000Y-147467000D01*
X124333000Y-147447000D01*
X124313000Y-147447000D01*
X124313000Y-147193000D01*
X124333000Y-147193000D01*
X124333000Y-147173000D01*
X124587000Y-147173000D01*
X124587000Y-147193000D01*
X125536250Y-147193000D01*
X125695000Y-147034250D01*
X125695000Y-146810000D01*
X127225198Y-146810000D01*
X127547363Y-147132165D01*
X127547363Y-147132165D01*
G37*
X127547363Y-147132165D02*
X127510000Y-147320000D01*
X127567852Y-147610839D01*
X127581357Y-147631050D01*
X127669009Y-148071707D01*
X127915094Y-148440000D01*
X125635482Y-148440000D01*
X125695000Y-148296310D01*
X125695000Y-147605750D01*
X125536250Y-147447000D01*
X124587000Y-147447000D01*
X124587000Y-147467000D01*
X124333000Y-147467000D01*
X124333000Y-147447000D01*
X124313000Y-147447000D01*
X124313000Y-147193000D01*
X124333000Y-147193000D01*
X124333000Y-147173000D01*
X124587000Y-147173000D01*
X124587000Y-147193000D01*
X125536250Y-147193000D01*
X125695000Y-147034250D01*
X125695000Y-146810000D01*
X127225198Y-146810000D01*
X127547363Y-147132165D01*
G36*
X139097000Y-147193000D02*
X139117000Y-147193000D01*
X139117000Y-147447000D01*
X139097000Y-147447000D01*
X139097000Y-147467000D01*
X138843000Y-147467000D01*
X138843000Y-147447000D01*
X138823000Y-147447000D01*
X138823000Y-147193000D01*
X138843000Y-147193000D01*
X138843000Y-147173000D01*
X139097000Y-147173000D01*
X139097000Y-147193000D01*
X139097000Y-147193000D01*
G37*
X139097000Y-147193000D02*
X139117000Y-147193000D01*
X139117000Y-147447000D01*
X139097000Y-147447000D01*
X139097000Y-147467000D01*
X138843000Y-147467000D01*
X138843000Y-147447000D01*
X138823000Y-147447000D01*
X138823000Y-147193000D01*
X138843000Y-147193000D01*
X138843000Y-147173000D01*
X139097000Y-147173000D01*
X139097000Y-147193000D01*
G36*
X149257000Y-147193000D02*
X149277000Y-147193000D01*
X149277000Y-147447000D01*
X149257000Y-147447000D01*
X149257000Y-147467000D01*
X149003000Y-147467000D01*
X149003000Y-147447000D01*
X148983000Y-147447000D01*
X148983000Y-147193000D01*
X149003000Y-147193000D01*
X149003000Y-147173000D01*
X149257000Y-147173000D01*
X149257000Y-147193000D01*
X149257000Y-147193000D01*
G37*
X149257000Y-147193000D02*
X149277000Y-147193000D01*
X149277000Y-147447000D01*
X149257000Y-147447000D01*
X149257000Y-147467000D01*
X149003000Y-147467000D01*
X149003000Y-147447000D01*
X148983000Y-147447000D01*
X148983000Y-147193000D01*
X149003000Y-147193000D01*
X149003000Y-147173000D01*
X149257000Y-147173000D01*
X149257000Y-147193000D01*
G36*
X159417000Y-147193000D02*
X159437000Y-147193000D01*
X159437000Y-147447000D01*
X159417000Y-147447000D01*
X159417000Y-147467000D01*
X159163000Y-147467000D01*
X159163000Y-147447000D01*
X159143000Y-147447000D01*
X159143000Y-147193000D01*
X159163000Y-147193000D01*
X159163000Y-147173000D01*
X159417000Y-147173000D01*
X159417000Y-147193000D01*
X159417000Y-147193000D01*
G37*
X159417000Y-147193000D02*
X159437000Y-147193000D01*
X159437000Y-147447000D01*
X159417000Y-147447000D01*
X159417000Y-147467000D01*
X159163000Y-147467000D01*
X159163000Y-147447000D01*
X159143000Y-147447000D01*
X159143000Y-147193000D01*
X159163000Y-147193000D01*
X159163000Y-147173000D01*
X159417000Y-147173000D01*
X159417000Y-147193000D01*
G36*
X169577000Y-147193000D02*
X169597000Y-147193000D01*
X169597000Y-147447000D01*
X169577000Y-147447000D01*
X169577000Y-147467000D01*
X169323000Y-147467000D01*
X169323000Y-147447000D01*
X169303000Y-147447000D01*
X169303000Y-147193000D01*
X169323000Y-147193000D01*
X169323000Y-147173000D01*
X169577000Y-147173000D01*
X169577000Y-147193000D01*
X169577000Y-147193000D01*
G37*
X169577000Y-147193000D02*
X169597000Y-147193000D01*
X169597000Y-147447000D01*
X169577000Y-147447000D01*
X169577000Y-147467000D01*
X169323000Y-147467000D01*
X169323000Y-147447000D01*
X169303000Y-147447000D01*
X169303000Y-147193000D01*
X169323000Y-147193000D01*
X169323000Y-147173000D01*
X169577000Y-147173000D01*
X169577000Y-147193000D01*
G36*
X150569817Y-143898642D02*
X150323514Y-144423108D01*
X150444181Y-144653000D01*
X151638000Y-144653000D01*
X151638000Y-144633000D01*
X151892000Y-144633000D01*
X151892000Y-144653000D01*
X151912000Y-144653000D01*
X151912000Y-144907000D01*
X151892000Y-144907000D01*
X151892000Y-144927000D01*
X151638000Y-144927000D01*
X151638000Y-144907000D01*
X150444181Y-144907000D01*
X150323514Y-145136892D01*
X150383677Y-145265000D01*
X150087440Y-145265000D01*
X150087440Y-143930000D01*
X150043162Y-143694683D01*
X150020844Y-143660000D01*
X150831677Y-143660000D01*
X150569817Y-143898642D01*
X150569817Y-143898642D01*
G37*
X150569817Y-143898642D02*
X150323514Y-144423108D01*
X150444181Y-144653000D01*
X151638000Y-144653000D01*
X151638000Y-144633000D01*
X151892000Y-144633000D01*
X151892000Y-144653000D01*
X151912000Y-144653000D01*
X151912000Y-144907000D01*
X151892000Y-144907000D01*
X151892000Y-144927000D01*
X151638000Y-144927000D01*
X151638000Y-144907000D01*
X150444181Y-144907000D01*
X150323514Y-145136892D01*
X150383677Y-145265000D01*
X150087440Y-145265000D01*
X150087440Y-143930000D01*
X150043162Y-143694683D01*
X150020844Y-143660000D01*
X150831677Y-143660000D01*
X150569817Y-143898642D01*
M02*
