G04 #@! TF.FileFunction,Legend,Top*
%FSLAX46Y46*%
G04 Gerber Fmt 4.6, Leading zero omitted, Abs format (unit mm)*
G04 Created by KiCad (PCBNEW 4.0.7-e2-6376~58~ubuntu16.04.1) date Thu Sep 13 16:12:12 2018*
%MOMM*%
%LPD*%
G01*
G04 APERTURE LIST*
%ADD10C,0.100000*%
%ADD11C,0.300000*%
%ADD12C,0.125000*%
%ADD13C,0.120000*%
%ADD14C,0.150000*%
G04 APERTURE END LIST*
D10*
D11*
X144006429Y-142283571D02*
X143506429Y-141569286D01*
X143149286Y-142283571D02*
X143149286Y-140783571D01*
X143720714Y-140783571D01*
X143863572Y-140855000D01*
X143935000Y-140926429D01*
X144006429Y-141069286D01*
X144006429Y-141283571D01*
X143935000Y-141426429D01*
X143863572Y-141497857D01*
X143720714Y-141569286D01*
X143149286Y-141569286D01*
X145292143Y-141283571D02*
X145292143Y-142283571D01*
X144649286Y-141283571D02*
X144649286Y-142069286D01*
X144720714Y-142212143D01*
X144863572Y-142283571D01*
X145077857Y-142283571D01*
X145220714Y-142212143D01*
X145292143Y-142140714D01*
X146649286Y-142283571D02*
X146649286Y-140783571D01*
X146649286Y-142212143D02*
X146506429Y-142283571D01*
X146220715Y-142283571D01*
X146077857Y-142212143D01*
X146006429Y-142140714D01*
X145935000Y-141997857D01*
X145935000Y-141569286D01*
X146006429Y-141426429D01*
X146077857Y-141355000D01*
X146220715Y-141283571D01*
X146506429Y-141283571D01*
X146649286Y-141355000D01*
X148006429Y-142283571D02*
X148006429Y-140783571D01*
X148006429Y-142212143D02*
X147863572Y-142283571D01*
X147577858Y-142283571D01*
X147435000Y-142212143D01*
X147363572Y-142140714D01*
X147292143Y-141997857D01*
X147292143Y-141569286D01*
X147363572Y-141426429D01*
X147435000Y-141355000D01*
X147577858Y-141283571D01*
X147863572Y-141283571D01*
X148006429Y-141355000D01*
X149292143Y-142212143D02*
X149149286Y-142283571D01*
X148863572Y-142283571D01*
X148720715Y-142212143D01*
X148649286Y-142069286D01*
X148649286Y-141497857D01*
X148720715Y-141355000D01*
X148863572Y-141283571D01*
X149149286Y-141283571D01*
X149292143Y-141355000D01*
X149363572Y-141497857D01*
X149363572Y-141640714D01*
X148649286Y-141783571D01*
X150006429Y-142283571D02*
X150006429Y-141283571D01*
X150006429Y-141569286D02*
X150077857Y-141426429D01*
X150149286Y-141355000D01*
X150292143Y-141283571D01*
X150435000Y-141283571D01*
X119336429Y-113827858D02*
X120836429Y-113827858D01*
X120836429Y-114185001D01*
X120765000Y-114399286D01*
X120622143Y-114542144D01*
X120479286Y-114613572D01*
X120193571Y-114685001D01*
X119979286Y-114685001D01*
X119693571Y-114613572D01*
X119550714Y-114542144D01*
X119407857Y-114399286D01*
X119336429Y-114185001D01*
X119336429Y-113827858D01*
X119336429Y-116113572D02*
X119336429Y-115256429D01*
X119336429Y-115685001D02*
X120836429Y-115685001D01*
X120622143Y-115542144D01*
X120479286Y-115399286D01*
X120407857Y-115256429D01*
X119765000Y-129738572D02*
X119765000Y-130452858D01*
X119336429Y-129595715D02*
X120836429Y-130095715D01*
X119336429Y-130595715D01*
X119336429Y-131881429D02*
X119336429Y-131024286D01*
X119336429Y-131452858D02*
X120836429Y-131452858D01*
X120622143Y-131310001D01*
X120479286Y-131167143D01*
X120407857Y-131024286D01*
X119407857Y-136021429D02*
X119336429Y-136235715D01*
X119336429Y-136592858D01*
X119407857Y-136735715D01*
X119479286Y-136807144D01*
X119622143Y-136878572D01*
X119765000Y-136878572D01*
X119907857Y-136807144D01*
X119979286Y-136735715D01*
X120050714Y-136592858D01*
X120122143Y-136307144D01*
X120193571Y-136164286D01*
X120265000Y-136092858D01*
X120407857Y-136021429D01*
X120550714Y-136021429D01*
X120693571Y-136092858D01*
X120765000Y-136164286D01*
X120836429Y-136307144D01*
X120836429Y-136664286D01*
X120765000Y-136878572D01*
X119407857Y-138092857D02*
X119336429Y-137950000D01*
X119336429Y-137664286D01*
X119407857Y-137521429D01*
X119550714Y-137450000D01*
X120122143Y-137450000D01*
X120265000Y-137521429D01*
X120336429Y-137664286D01*
X120336429Y-137950000D01*
X120265000Y-138092857D01*
X120122143Y-138164286D01*
X119979286Y-138164286D01*
X119836429Y-137450000D01*
X119336429Y-138807143D02*
X120336429Y-138807143D01*
X120050714Y-138807143D02*
X120193571Y-138878571D01*
X120265000Y-138950000D01*
X120336429Y-139092857D01*
X120336429Y-139235714D01*
X119336429Y-139735714D02*
X120336429Y-139735714D01*
X120836429Y-139735714D02*
X120765000Y-139664285D01*
X120693571Y-139735714D01*
X120765000Y-139807142D01*
X120836429Y-139735714D01*
X120693571Y-139735714D01*
X119336429Y-141092857D02*
X120122143Y-141092857D01*
X120265000Y-141021428D01*
X120336429Y-140878571D01*
X120336429Y-140592857D01*
X120265000Y-140450000D01*
X119407857Y-141092857D02*
X119336429Y-140950000D01*
X119336429Y-140592857D01*
X119407857Y-140450000D01*
X119550714Y-140378571D01*
X119693571Y-140378571D01*
X119836429Y-140450000D01*
X119907857Y-140592857D01*
X119907857Y-140950000D01*
X119979286Y-141092857D01*
X119336429Y-142021429D02*
X119407857Y-141878571D01*
X119550714Y-141807143D01*
X120836429Y-141807143D01*
X120693571Y-142521428D02*
X120765000Y-142592857D01*
X120836429Y-142735714D01*
X120836429Y-143092857D01*
X120765000Y-143235714D01*
X120693571Y-143307143D01*
X120550714Y-143378571D01*
X120407857Y-143378571D01*
X120193571Y-143307143D01*
X119336429Y-142450000D01*
X119336429Y-143378571D01*
X119765000Y-121483572D02*
X119765000Y-122197858D01*
X119336429Y-121340715D02*
X120836429Y-121840715D01*
X119336429Y-122340715D01*
X120693571Y-122769286D02*
X120765000Y-122840715D01*
X120836429Y-122983572D01*
X120836429Y-123340715D01*
X120765000Y-123483572D01*
X120693571Y-123555001D01*
X120550714Y-123626429D01*
X120407857Y-123626429D01*
X120193571Y-123555001D01*
X119336429Y-122697858D01*
X119336429Y-123626429D01*
X128432858Y-152443571D02*
X128432858Y-150943571D01*
X128790001Y-150943571D01*
X129004286Y-151015000D01*
X129147144Y-151157857D01*
X129218572Y-151300714D01*
X129290001Y-151586429D01*
X129290001Y-151800714D01*
X129218572Y-152086429D01*
X129147144Y-152229286D01*
X129004286Y-152372143D01*
X128790001Y-152443571D01*
X128432858Y-152443571D01*
X130218572Y-150943571D02*
X130361429Y-150943571D01*
X130504286Y-151015000D01*
X130575715Y-151086429D01*
X130647144Y-151229286D01*
X130718572Y-151515000D01*
X130718572Y-151872143D01*
X130647144Y-152157857D01*
X130575715Y-152300714D01*
X130504286Y-152372143D01*
X130361429Y-152443571D01*
X130218572Y-152443571D01*
X130075715Y-152372143D01*
X130004286Y-152300714D01*
X129932858Y-152157857D01*
X129861429Y-151872143D01*
X129861429Y-151515000D01*
X129932858Y-151229286D01*
X130004286Y-151086429D01*
X130075715Y-151015000D01*
X130218572Y-150943571D01*
X134116429Y-152372143D02*
X134330715Y-152443571D01*
X134687858Y-152443571D01*
X134830715Y-152372143D01*
X134902144Y-152300714D01*
X134973572Y-152157857D01*
X134973572Y-152015000D01*
X134902144Y-151872143D01*
X134830715Y-151800714D01*
X134687858Y-151729286D01*
X134402144Y-151657857D01*
X134259286Y-151586429D01*
X134187858Y-151515000D01*
X134116429Y-151372143D01*
X134116429Y-151229286D01*
X134187858Y-151086429D01*
X134259286Y-151015000D01*
X134402144Y-150943571D01*
X134759286Y-150943571D01*
X134973572Y-151015000D01*
X136187857Y-152372143D02*
X136045000Y-152443571D01*
X135759286Y-152443571D01*
X135616429Y-152372143D01*
X135545000Y-152229286D01*
X135545000Y-151657857D01*
X135616429Y-151515000D01*
X135759286Y-151443571D01*
X136045000Y-151443571D01*
X136187857Y-151515000D01*
X136259286Y-151657857D01*
X136259286Y-151800714D01*
X135545000Y-151943571D01*
X136902143Y-152443571D02*
X136902143Y-151443571D01*
X136902143Y-151729286D02*
X136973571Y-151586429D01*
X137045000Y-151515000D01*
X137187857Y-151443571D01*
X137330714Y-151443571D01*
X137830714Y-152443571D02*
X137830714Y-151443571D01*
X137830714Y-150943571D02*
X137759285Y-151015000D01*
X137830714Y-151086429D01*
X137902142Y-151015000D01*
X137830714Y-150943571D01*
X137830714Y-151086429D01*
X139187857Y-152443571D02*
X139187857Y-151657857D01*
X139116428Y-151515000D01*
X138973571Y-151443571D01*
X138687857Y-151443571D01*
X138545000Y-151515000D01*
X139187857Y-152372143D02*
X139045000Y-152443571D01*
X138687857Y-152443571D01*
X138545000Y-152372143D01*
X138473571Y-152229286D01*
X138473571Y-152086429D01*
X138545000Y-151943571D01*
X138687857Y-151872143D01*
X139045000Y-151872143D01*
X139187857Y-151800714D01*
X140116429Y-152443571D02*
X139973571Y-152372143D01*
X139902143Y-152229286D01*
X139902143Y-150943571D01*
X141473571Y-152443571D02*
X140616428Y-152443571D01*
X141045000Y-152443571D02*
X141045000Y-150943571D01*
X140902143Y-151157857D01*
X140759285Y-151300714D01*
X140616428Y-151372143D01*
X121483572Y-152015000D02*
X122197858Y-152015000D01*
X121340715Y-152443571D02*
X121840715Y-150943571D01*
X122340715Y-152443571D01*
X123126429Y-150943571D02*
X123269286Y-150943571D01*
X123412143Y-151015000D01*
X123483572Y-151086429D01*
X123555001Y-151229286D01*
X123626429Y-151515000D01*
X123626429Y-151872143D01*
X123555001Y-152157857D01*
X123483572Y-152300714D01*
X123412143Y-152372143D01*
X123269286Y-152443571D01*
X123126429Y-152443571D01*
X122983572Y-152372143D01*
X122912143Y-152300714D01*
X122840715Y-152157857D01*
X122769286Y-151872143D01*
X122769286Y-151515000D01*
X122840715Y-151229286D01*
X122912143Y-151086429D01*
X122983572Y-151015000D01*
X123126429Y-150943571D01*
X176970715Y-152443571D02*
X176970715Y-150943571D01*
X177613572Y-151086429D02*
X177685001Y-151015000D01*
X177827858Y-150943571D01*
X178185001Y-150943571D01*
X178327858Y-151015000D01*
X178399287Y-151086429D01*
X178470715Y-151229286D01*
X178470715Y-151372143D01*
X178399287Y-151586429D01*
X177542144Y-152443571D01*
X178470715Y-152443571D01*
X179970715Y-152300714D02*
X179899286Y-152372143D01*
X179685000Y-152443571D01*
X179542143Y-152443571D01*
X179327858Y-152372143D01*
X179185000Y-152229286D01*
X179113572Y-152086429D01*
X179042143Y-151800714D01*
X179042143Y-151586429D01*
X179113572Y-151300714D01*
X179185000Y-151157857D01*
X179327858Y-151015000D01*
X179542143Y-150943571D01*
X179685000Y-150943571D01*
X179899286Y-151015000D01*
X179970715Y-151086429D01*
X146490715Y-152443571D02*
X146490715Y-150943571D01*
X147133572Y-151086429D02*
X147205001Y-151015000D01*
X147347858Y-150943571D01*
X147705001Y-150943571D01*
X147847858Y-151015000D01*
X147919287Y-151086429D01*
X147990715Y-151229286D01*
X147990715Y-151372143D01*
X147919287Y-151586429D01*
X147062144Y-152443571D01*
X147990715Y-152443571D01*
X149490715Y-152300714D02*
X149419286Y-152372143D01*
X149205000Y-152443571D01*
X149062143Y-152443571D01*
X148847858Y-152372143D01*
X148705000Y-152229286D01*
X148633572Y-152086429D01*
X148562143Y-151800714D01*
X148562143Y-151586429D01*
X148633572Y-151300714D01*
X148705000Y-151157857D01*
X148847858Y-151015000D01*
X149062143Y-150943571D01*
X149205000Y-150943571D01*
X149419286Y-151015000D01*
X149490715Y-151086429D01*
X156650715Y-152443571D02*
X156650715Y-150943571D01*
X157293572Y-151086429D02*
X157365001Y-151015000D01*
X157507858Y-150943571D01*
X157865001Y-150943571D01*
X158007858Y-151015000D01*
X158079287Y-151086429D01*
X158150715Y-151229286D01*
X158150715Y-151372143D01*
X158079287Y-151586429D01*
X157222144Y-152443571D01*
X158150715Y-152443571D01*
X159650715Y-152300714D02*
X159579286Y-152372143D01*
X159365000Y-152443571D01*
X159222143Y-152443571D01*
X159007858Y-152372143D01*
X158865000Y-152229286D01*
X158793572Y-152086429D01*
X158722143Y-151800714D01*
X158722143Y-151586429D01*
X158793572Y-151300714D01*
X158865000Y-151157857D01*
X159007858Y-151015000D01*
X159222143Y-150943571D01*
X159365000Y-150943571D01*
X159579286Y-151015000D01*
X159650715Y-151086429D01*
X166810715Y-152443571D02*
X166810715Y-150943571D01*
X167453572Y-151086429D02*
X167525001Y-151015000D01*
X167667858Y-150943571D01*
X168025001Y-150943571D01*
X168167858Y-151015000D01*
X168239287Y-151086429D01*
X168310715Y-151229286D01*
X168310715Y-151372143D01*
X168239287Y-151586429D01*
X167382144Y-152443571D01*
X168310715Y-152443571D01*
X169810715Y-152300714D02*
X169739286Y-152372143D01*
X169525000Y-152443571D01*
X169382143Y-152443571D01*
X169167858Y-152372143D01*
X169025000Y-152229286D01*
X168953572Y-152086429D01*
X168882143Y-151800714D01*
X168882143Y-151586429D01*
X168953572Y-151300714D01*
X169025000Y-151157857D01*
X169167858Y-151015000D01*
X169382143Y-150943571D01*
X169525000Y-150943571D01*
X169739286Y-151015000D01*
X169810715Y-151086429D01*
X152447857Y-142212143D02*
X152662143Y-142283571D01*
X153019286Y-142283571D01*
X153162143Y-142212143D01*
X153233572Y-142140714D01*
X153305000Y-141997857D01*
X153305000Y-141855000D01*
X153233572Y-141712143D01*
X153162143Y-141640714D01*
X153019286Y-141569286D01*
X152733572Y-141497857D01*
X152590714Y-141426429D01*
X152519286Y-141355000D01*
X152447857Y-141212143D01*
X152447857Y-141069286D01*
X152519286Y-140926429D01*
X152590714Y-140855000D01*
X152733572Y-140783571D01*
X153090714Y-140783571D01*
X153305000Y-140855000D01*
X154590714Y-142283571D02*
X154590714Y-141497857D01*
X154519285Y-141355000D01*
X154376428Y-141283571D01*
X154090714Y-141283571D01*
X153947857Y-141355000D01*
X154590714Y-142212143D02*
X154447857Y-142283571D01*
X154090714Y-142283571D01*
X153947857Y-142212143D01*
X153876428Y-142069286D01*
X153876428Y-141926429D01*
X153947857Y-141783571D01*
X154090714Y-141712143D01*
X154447857Y-141712143D01*
X154590714Y-141640714D01*
X155305000Y-142283571D02*
X155305000Y-141283571D01*
X155305000Y-140783571D02*
X155233571Y-140855000D01*
X155305000Y-140926429D01*
X155376428Y-140855000D01*
X155305000Y-140783571D01*
X155305000Y-140926429D01*
X156233572Y-142283571D02*
X156090714Y-142212143D01*
X156019286Y-142069286D01*
X156019286Y-140783571D01*
X134295001Y-142212143D02*
X134509287Y-142283571D01*
X134866430Y-142283571D01*
X135009287Y-142212143D01*
X135080716Y-142140714D01*
X135152144Y-141997857D01*
X135152144Y-141855000D01*
X135080716Y-141712143D01*
X135009287Y-141640714D01*
X134866430Y-141569286D01*
X134580716Y-141497857D01*
X134437858Y-141426429D01*
X134366430Y-141355000D01*
X134295001Y-141212143D01*
X134295001Y-141069286D01*
X134366430Y-140926429D01*
X134437858Y-140855000D01*
X134580716Y-140783571D01*
X134937858Y-140783571D01*
X135152144Y-140855000D01*
X136366429Y-142212143D02*
X136223572Y-142283571D01*
X135937858Y-142283571D01*
X135795001Y-142212143D01*
X135723572Y-142069286D01*
X135723572Y-141497857D01*
X135795001Y-141355000D01*
X135937858Y-141283571D01*
X136223572Y-141283571D01*
X136366429Y-141355000D01*
X136437858Y-141497857D01*
X136437858Y-141640714D01*
X135723572Y-141783571D01*
X137080715Y-142283571D02*
X137080715Y-141283571D01*
X137080715Y-141569286D02*
X137152143Y-141426429D01*
X137223572Y-141355000D01*
X137366429Y-141283571D01*
X137509286Y-141283571D01*
X137866429Y-141283571D02*
X138223572Y-142283571D01*
X138580714Y-141283571D01*
X139366429Y-142283571D02*
X139223571Y-142212143D01*
X139152143Y-142140714D01*
X139080714Y-141997857D01*
X139080714Y-141569286D01*
X139152143Y-141426429D01*
X139223571Y-141355000D01*
X139366429Y-141283571D01*
X139580714Y-141283571D01*
X139723571Y-141355000D01*
X139795000Y-141426429D01*
X139866429Y-141569286D01*
X139866429Y-141997857D01*
X139795000Y-142140714D01*
X139723571Y-142212143D01*
X139580714Y-142283571D01*
X139366429Y-142283571D01*
X141295000Y-142283571D02*
X140437857Y-142283571D01*
X140866429Y-142283571D02*
X140866429Y-140783571D01*
X140723572Y-140997857D01*
X140580714Y-141140714D01*
X140437857Y-141212143D01*
X126040001Y-142212143D02*
X126254287Y-142283571D01*
X126611430Y-142283571D01*
X126754287Y-142212143D01*
X126825716Y-142140714D01*
X126897144Y-141997857D01*
X126897144Y-141855000D01*
X126825716Y-141712143D01*
X126754287Y-141640714D01*
X126611430Y-141569286D01*
X126325716Y-141497857D01*
X126182858Y-141426429D01*
X126111430Y-141355000D01*
X126040001Y-141212143D01*
X126040001Y-141069286D01*
X126111430Y-140926429D01*
X126182858Y-140855000D01*
X126325716Y-140783571D01*
X126682858Y-140783571D01*
X126897144Y-140855000D01*
X128111429Y-142212143D02*
X127968572Y-142283571D01*
X127682858Y-142283571D01*
X127540001Y-142212143D01*
X127468572Y-142069286D01*
X127468572Y-141497857D01*
X127540001Y-141355000D01*
X127682858Y-141283571D01*
X127968572Y-141283571D01*
X128111429Y-141355000D01*
X128182858Y-141497857D01*
X128182858Y-141640714D01*
X127468572Y-141783571D01*
X128825715Y-142283571D02*
X128825715Y-141283571D01*
X128825715Y-141569286D02*
X128897143Y-141426429D01*
X128968572Y-141355000D01*
X129111429Y-141283571D01*
X129254286Y-141283571D01*
X129611429Y-141283571D02*
X129968572Y-142283571D01*
X130325714Y-141283571D01*
X131111429Y-142283571D02*
X130968571Y-142212143D01*
X130897143Y-142140714D01*
X130825714Y-141997857D01*
X130825714Y-141569286D01*
X130897143Y-141426429D01*
X130968571Y-141355000D01*
X131111429Y-141283571D01*
X131325714Y-141283571D01*
X131468571Y-141355000D01*
X131540000Y-141426429D01*
X131611429Y-141569286D01*
X131611429Y-141997857D01*
X131540000Y-142140714D01*
X131468571Y-142212143D01*
X131325714Y-142283571D01*
X131111429Y-142283571D01*
X132182857Y-140926429D02*
X132254286Y-140855000D01*
X132397143Y-140783571D01*
X132754286Y-140783571D01*
X132897143Y-140855000D01*
X132968572Y-140926429D01*
X133040000Y-141069286D01*
X133040000Y-141212143D01*
X132968572Y-141426429D01*
X132111429Y-142283571D01*
X133040000Y-142283571D01*
X186753572Y-124567143D02*
X187896429Y-124567143D01*
X186753572Y-127742143D02*
X187896429Y-127742143D01*
X179133572Y-121392143D02*
X180276429Y-121392143D01*
X179705000Y-121963571D02*
X179705000Y-120820714D01*
X179133572Y-127742143D02*
X180276429Y-127742143D01*
X179705000Y-128313571D02*
X179705000Y-127170714D01*
D12*
X181669763Y-130071071D02*
X181693572Y-130094881D01*
X181669763Y-130118690D01*
X181645953Y-130094881D01*
X181669763Y-130071071D01*
X181669763Y-130118690D01*
X181669763Y-129928214D02*
X181645953Y-129642500D01*
X181669763Y-129618690D01*
X181693572Y-129642500D01*
X181669763Y-129928214D01*
X181669763Y-129618690D01*
X182265000Y-130094881D02*
X182336429Y-130118690D01*
X182455476Y-130118690D01*
X182503095Y-130094881D01*
X182526905Y-130071071D01*
X182550714Y-130023452D01*
X182550714Y-129975833D01*
X182526905Y-129928214D01*
X182503095Y-129904405D01*
X182455476Y-129880595D01*
X182360238Y-129856786D01*
X182312619Y-129832976D01*
X182288810Y-129809167D01*
X182265000Y-129761548D01*
X182265000Y-129713929D01*
X182288810Y-129666310D01*
X182312619Y-129642500D01*
X182360238Y-129618690D01*
X182479286Y-129618690D01*
X182550714Y-129642500D01*
X182717381Y-129618690D02*
X182836428Y-130118690D01*
X182931666Y-129761548D01*
X183026904Y-130118690D01*
X183145952Y-129618690D01*
X183336429Y-130118690D02*
X183336429Y-129618690D01*
X183503095Y-129618690D02*
X183788809Y-129618690D01*
X183645952Y-130118690D02*
X183645952Y-129618690D01*
X184241190Y-130071071D02*
X184217380Y-130094881D01*
X184145952Y-130118690D01*
X184098333Y-130118690D01*
X184026904Y-130094881D01*
X183979285Y-130047262D01*
X183955476Y-129999643D01*
X183931666Y-129904405D01*
X183931666Y-129832976D01*
X183955476Y-129737738D01*
X183979285Y-129690119D01*
X184026904Y-129642500D01*
X184098333Y-129618690D01*
X184145952Y-129618690D01*
X184217380Y-129642500D01*
X184241190Y-129666310D01*
X184455476Y-130118690D02*
X184455476Y-129618690D01*
X184455476Y-129856786D02*
X184741190Y-129856786D01*
X184741190Y-130118690D02*
X184741190Y-129618690D01*
X185360238Y-130071071D02*
X185384047Y-130094881D01*
X185360238Y-130118690D01*
X185336428Y-130094881D01*
X185360238Y-130071071D01*
X185360238Y-130118690D01*
X185360238Y-129928214D02*
X185336428Y-129642500D01*
X185360238Y-129618690D01*
X185384047Y-129642500D01*
X185360238Y-129928214D01*
X185360238Y-129618690D01*
X181455477Y-130946071D02*
X181479286Y-130969881D01*
X181455477Y-130993690D01*
X181431667Y-130969881D01*
X181455477Y-130946071D01*
X181455477Y-130993690D01*
X181455477Y-130803214D02*
X181431667Y-130517500D01*
X181455477Y-130493690D01*
X181479286Y-130517500D01*
X181455477Y-130803214D01*
X181455477Y-130493690D01*
X182360238Y-130946071D02*
X182336428Y-130969881D01*
X182265000Y-130993690D01*
X182217381Y-130993690D01*
X182145952Y-130969881D01*
X182098333Y-130922262D01*
X182074524Y-130874643D01*
X182050714Y-130779405D01*
X182050714Y-130707976D01*
X182074524Y-130612738D01*
X182098333Y-130565119D01*
X182145952Y-130517500D01*
X182217381Y-130493690D01*
X182265000Y-130493690D01*
X182336428Y-130517500D01*
X182360238Y-130541310D01*
X182550714Y-130850833D02*
X182788809Y-130850833D01*
X182503095Y-130993690D02*
X182669762Y-130493690D01*
X182836428Y-130993690D01*
X183003095Y-130493690D02*
X183003095Y-130898452D01*
X183026904Y-130946071D01*
X183050714Y-130969881D01*
X183098333Y-130993690D01*
X183193571Y-130993690D01*
X183241190Y-130969881D01*
X183264999Y-130946071D01*
X183288809Y-130898452D01*
X183288809Y-130493690D01*
X183455476Y-130493690D02*
X183741190Y-130493690D01*
X183598333Y-130993690D02*
X183598333Y-130493690D01*
X183907857Y-130993690D02*
X183907857Y-130493690D01*
X184241190Y-130493690D02*
X184336428Y-130493690D01*
X184384047Y-130517500D01*
X184431666Y-130565119D01*
X184455475Y-130660357D01*
X184455475Y-130827024D01*
X184431666Y-130922262D01*
X184384047Y-130969881D01*
X184336428Y-130993690D01*
X184241190Y-130993690D01*
X184193571Y-130969881D01*
X184145952Y-130922262D01*
X184122142Y-130827024D01*
X184122142Y-130660357D01*
X184145952Y-130565119D01*
X184193571Y-130517500D01*
X184241190Y-130493690D01*
X184669762Y-130993690D02*
X184669762Y-130493690D01*
X184955476Y-130993690D01*
X184955476Y-130493690D01*
X185574524Y-130946071D02*
X185598333Y-130969881D01*
X185574524Y-130993690D01*
X185550714Y-130969881D01*
X185574524Y-130946071D01*
X185574524Y-130993690D01*
X185574524Y-130803214D02*
X185550714Y-130517500D01*
X185574524Y-130493690D01*
X185598333Y-130517500D01*
X185574524Y-130803214D01*
X185574524Y-130493690D01*
X181312620Y-131821071D02*
X181336429Y-131844881D01*
X181312620Y-131868690D01*
X181288810Y-131844881D01*
X181312620Y-131821071D01*
X181312620Y-131868690D01*
X181312620Y-131678214D02*
X181288810Y-131392500D01*
X181312620Y-131368690D01*
X181336429Y-131392500D01*
X181312620Y-131678214D01*
X181312620Y-131368690D01*
X182217381Y-131821071D02*
X182193571Y-131844881D01*
X182122143Y-131868690D01*
X182074524Y-131868690D01*
X182003095Y-131844881D01*
X181955476Y-131797262D01*
X181931667Y-131749643D01*
X181907857Y-131654405D01*
X181907857Y-131582976D01*
X181931667Y-131487738D01*
X181955476Y-131440119D01*
X182003095Y-131392500D01*
X182074524Y-131368690D01*
X182122143Y-131368690D01*
X182193571Y-131392500D01*
X182217381Y-131416310D01*
X182526905Y-131368690D02*
X182622143Y-131368690D01*
X182669762Y-131392500D01*
X182717381Y-131440119D01*
X182741190Y-131535357D01*
X182741190Y-131702024D01*
X182717381Y-131797262D01*
X182669762Y-131844881D01*
X182622143Y-131868690D01*
X182526905Y-131868690D01*
X182479286Y-131844881D01*
X182431667Y-131797262D01*
X182407857Y-131702024D01*
X182407857Y-131535357D01*
X182431667Y-131440119D01*
X182479286Y-131392500D01*
X182526905Y-131368690D01*
X182955477Y-131868690D02*
X182955477Y-131368690D01*
X183241191Y-131868690D01*
X183241191Y-131368690D01*
X183479287Y-131868690D02*
X183479287Y-131368690D01*
X183765001Y-131868690D01*
X183765001Y-131368690D01*
X184003097Y-131606786D02*
X184169763Y-131606786D01*
X184241192Y-131868690D02*
X184003097Y-131868690D01*
X184003097Y-131368690D01*
X184241192Y-131368690D01*
X184741192Y-131821071D02*
X184717382Y-131844881D01*
X184645954Y-131868690D01*
X184598335Y-131868690D01*
X184526906Y-131844881D01*
X184479287Y-131797262D01*
X184455478Y-131749643D01*
X184431668Y-131654405D01*
X184431668Y-131582976D01*
X184455478Y-131487738D01*
X184479287Y-131440119D01*
X184526906Y-131392500D01*
X184598335Y-131368690D01*
X184645954Y-131368690D01*
X184717382Y-131392500D01*
X184741192Y-131416310D01*
X184884049Y-131368690D02*
X185169763Y-131368690D01*
X185026906Y-131868690D02*
X185026906Y-131368690D01*
X185717382Y-131821071D02*
X185741191Y-131844881D01*
X185717382Y-131868690D01*
X185693572Y-131844881D01*
X185717382Y-131821071D01*
X185717382Y-131868690D01*
X185717382Y-131678214D02*
X185693572Y-131392500D01*
X185717382Y-131368690D01*
X185741191Y-131392500D01*
X185717382Y-131678214D01*
X185717382Y-131368690D01*
X180979287Y-132696071D02*
X181003096Y-132719881D01*
X180979287Y-132743690D01*
X180955477Y-132719881D01*
X180979287Y-132696071D01*
X180979287Y-132743690D01*
X180979287Y-132553214D02*
X180955477Y-132267500D01*
X180979287Y-132243690D01*
X181003096Y-132267500D01*
X180979287Y-132553214D01*
X180979287Y-132243690D01*
X181884048Y-132696071D02*
X181860238Y-132719881D01*
X181788810Y-132743690D01*
X181741191Y-132743690D01*
X181669762Y-132719881D01*
X181622143Y-132672262D01*
X181598334Y-132624643D01*
X181574524Y-132529405D01*
X181574524Y-132457976D01*
X181598334Y-132362738D01*
X181622143Y-132315119D01*
X181669762Y-132267500D01*
X181741191Y-132243690D01*
X181788810Y-132243690D01*
X181860238Y-132267500D01*
X181884048Y-132291310D01*
X182074524Y-132600833D02*
X182312619Y-132600833D01*
X182026905Y-132743690D02*
X182193572Y-132243690D01*
X182360238Y-132743690D01*
X182812619Y-132743690D02*
X182645952Y-132505595D01*
X182526905Y-132743690D02*
X182526905Y-132243690D01*
X182717381Y-132243690D01*
X182765000Y-132267500D01*
X182788809Y-132291310D01*
X182812619Y-132338929D01*
X182812619Y-132410357D01*
X182788809Y-132457976D01*
X182765000Y-132481786D01*
X182717381Y-132505595D01*
X182526905Y-132505595D01*
X183026905Y-132481786D02*
X183193571Y-132481786D01*
X183265000Y-132743690D02*
X183026905Y-132743690D01*
X183026905Y-132243690D01*
X183265000Y-132243690D01*
X183645952Y-132481786D02*
X183479286Y-132481786D01*
X183479286Y-132743690D02*
X183479286Y-132243690D01*
X183717381Y-132243690D01*
X183907857Y-132243690D02*
X183907857Y-132648452D01*
X183931666Y-132696071D01*
X183955476Y-132719881D01*
X184003095Y-132743690D01*
X184098333Y-132743690D01*
X184145952Y-132719881D01*
X184169761Y-132696071D01*
X184193571Y-132648452D01*
X184193571Y-132243690D01*
X184669762Y-132743690D02*
X184431667Y-132743690D01*
X184431667Y-132243690D01*
X185074524Y-132743690D02*
X184836429Y-132743690D01*
X184836429Y-132243690D01*
X185336429Y-132505595D02*
X185336429Y-132743690D01*
X185169762Y-132243690D02*
X185336429Y-132505595D01*
X185503095Y-132243690D01*
X186050714Y-132696071D02*
X186074523Y-132719881D01*
X186050714Y-132743690D01*
X186026904Y-132719881D01*
X186050714Y-132696071D01*
X186050714Y-132743690D01*
X186050714Y-132553214D02*
X186026904Y-132267500D01*
X186050714Y-132243690D01*
X186074523Y-132267500D01*
X186050714Y-132553214D01*
X186050714Y-132243690D01*
X181776905Y-133428214D02*
X182157857Y-133428214D01*
X181967381Y-133618690D02*
X181967381Y-133237738D01*
X182729286Y-133118690D02*
X182848333Y-133618690D01*
X182943571Y-133261548D01*
X183038809Y-133618690D01*
X183157857Y-133118690D01*
X183348334Y-133618690D02*
X183348334Y-133118690D01*
X183515000Y-133118690D02*
X183800714Y-133118690D01*
X183657857Y-133618690D02*
X183657857Y-133118690D01*
X183967381Y-133618690D02*
X183967381Y-133118690D01*
X183967381Y-133356786D02*
X184253095Y-133356786D01*
X184253095Y-133618690D02*
X184253095Y-133118690D01*
X184872143Y-133428214D02*
X185253095Y-133428214D01*
X185062619Y-133618690D02*
X185062619Y-133237738D01*
X181776905Y-134303214D02*
X182157857Y-134303214D01*
X182729286Y-133993690D02*
X182848333Y-134493690D01*
X182943571Y-134136548D01*
X183038809Y-134493690D01*
X183157857Y-133993690D01*
X183348334Y-134493690D02*
X183348334Y-133993690D01*
X183515000Y-133993690D02*
X183800714Y-133993690D01*
X183657857Y-134493690D02*
X183657857Y-133993690D01*
X183967381Y-134493690D02*
X183967381Y-133993690D01*
X183967381Y-134231786D02*
X184253095Y-134231786D01*
X184253095Y-134493690D02*
X184253095Y-133993690D01*
X184872143Y-134303214D02*
X185253095Y-134303214D01*
D11*
X126428572Y-68052143D02*
X127571429Y-68052143D01*
X126428572Y-63607143D02*
X127571429Y-63607143D01*
X127000000Y-64178571D02*
X127000000Y-63035714D01*
X183384286Y-133877857D02*
X183598572Y-133949286D01*
X183670000Y-134020714D01*
X183741429Y-134163571D01*
X183741429Y-134377857D01*
X183670000Y-134520714D01*
X183598572Y-134592143D01*
X183455714Y-134663571D01*
X182884286Y-134663571D01*
X182884286Y-133163571D01*
X183384286Y-133163571D01*
X183527143Y-133235000D01*
X183598572Y-133306429D01*
X183670000Y-133449286D01*
X183670000Y-133592143D01*
X183598572Y-133735000D01*
X183527143Y-133806429D01*
X183384286Y-133877857D01*
X182884286Y-133877857D01*
X184312857Y-134235000D02*
X185027143Y-134235000D01*
X184170000Y-134663571D02*
X184670000Y-133163571D01*
X185170000Y-134663571D01*
X185455714Y-133163571D02*
X186312857Y-133163571D01*
X185884286Y-134663571D02*
X185884286Y-133163571D01*
X186812857Y-134092143D02*
X187955714Y-134092143D01*
X183384286Y-137052857D02*
X183598572Y-137124286D01*
X183670000Y-137195714D01*
X183741429Y-137338571D01*
X183741429Y-137552857D01*
X183670000Y-137695714D01*
X183598572Y-137767143D01*
X183455714Y-137838571D01*
X182884286Y-137838571D01*
X182884286Y-136338571D01*
X183384286Y-136338571D01*
X183527143Y-136410000D01*
X183598572Y-136481429D01*
X183670000Y-136624286D01*
X183670000Y-136767143D01*
X183598572Y-136910000D01*
X183527143Y-136981429D01*
X183384286Y-137052857D01*
X182884286Y-137052857D01*
X184312857Y-137410000D02*
X185027143Y-137410000D01*
X184170000Y-137838571D02*
X184670000Y-136338571D01*
X185170000Y-137838571D01*
X185455714Y-136338571D02*
X186312857Y-136338571D01*
X185884286Y-137838571D02*
X185884286Y-136338571D01*
X186812857Y-137267143D02*
X187955714Y-137267143D01*
X187384285Y-137838571D02*
X187384285Y-136695714D01*
D13*
X158175000Y-146220000D02*
X150435000Y-146220000D01*
X150435000Y-146220000D02*
X150435000Y-148880000D01*
X150435000Y-148880000D02*
X158175000Y-148880000D01*
X158175000Y-148880000D02*
X158175000Y-146220000D01*
X157225000Y-148880000D02*
X157225000Y-154880000D01*
X157225000Y-154880000D02*
X156465000Y-154880000D01*
X156465000Y-154880000D02*
X156465000Y-148880000D01*
X157165000Y-148880000D02*
X157165000Y-154880000D01*
X157045000Y-148880000D02*
X157045000Y-154880000D01*
X156925000Y-148880000D02*
X156925000Y-154880000D01*
X156805000Y-148880000D02*
X156805000Y-154880000D01*
X156685000Y-148880000D02*
X156685000Y-154880000D01*
X156565000Y-148880000D02*
X156565000Y-154880000D01*
X157225000Y-145890000D02*
X157225000Y-146220000D01*
X156465000Y-145890000D02*
X156465000Y-146220000D01*
X155575000Y-146220000D02*
X155575000Y-148880000D01*
X154685000Y-148880000D02*
X154685000Y-154880000D01*
X154685000Y-154880000D02*
X153925000Y-154880000D01*
X153925000Y-154880000D02*
X153925000Y-148880000D01*
X154685000Y-145822929D02*
X154685000Y-146220000D01*
X153925000Y-145822929D02*
X153925000Y-146220000D01*
X153035000Y-146220000D02*
X153035000Y-148880000D01*
X152145000Y-148880000D02*
X152145000Y-154880000D01*
X152145000Y-154880000D02*
X151385000Y-154880000D01*
X151385000Y-154880000D02*
X151385000Y-148880000D01*
X152145000Y-145822929D02*
X152145000Y-146220000D01*
X151385000Y-145822929D02*
X151385000Y-146220000D01*
X156845000Y-143510000D02*
X158115000Y-143510000D01*
X158115000Y-143510000D02*
X158115000Y-144780000D01*
X149920000Y-146220000D02*
X142180000Y-146220000D01*
X142180000Y-146220000D02*
X142180000Y-148880000D01*
X142180000Y-148880000D02*
X149920000Y-148880000D01*
X149920000Y-148880000D02*
X149920000Y-146220000D01*
X148970000Y-148880000D02*
X148970000Y-154880000D01*
X148970000Y-154880000D02*
X148210000Y-154880000D01*
X148210000Y-154880000D02*
X148210000Y-148880000D01*
X148910000Y-148880000D02*
X148910000Y-154880000D01*
X148790000Y-148880000D02*
X148790000Y-154880000D01*
X148670000Y-148880000D02*
X148670000Y-154880000D01*
X148550000Y-148880000D02*
X148550000Y-154880000D01*
X148430000Y-148880000D02*
X148430000Y-154880000D01*
X148310000Y-148880000D02*
X148310000Y-154880000D01*
X148970000Y-145890000D02*
X148970000Y-146220000D01*
X148210000Y-145890000D02*
X148210000Y-146220000D01*
X147320000Y-146220000D02*
X147320000Y-148880000D01*
X146430000Y-148880000D02*
X146430000Y-154880000D01*
X146430000Y-154880000D02*
X145670000Y-154880000D01*
X145670000Y-154880000D02*
X145670000Y-148880000D01*
X146430000Y-145822929D02*
X146430000Y-146220000D01*
X145670000Y-145822929D02*
X145670000Y-146220000D01*
X144780000Y-146220000D02*
X144780000Y-148880000D01*
X143890000Y-148880000D02*
X143890000Y-154880000D01*
X143890000Y-154880000D02*
X143130000Y-154880000D01*
X143130000Y-154880000D02*
X143130000Y-148880000D01*
X143890000Y-145822929D02*
X143890000Y-146220000D01*
X143130000Y-145822929D02*
X143130000Y-146220000D01*
X148590000Y-143510000D02*
X149860000Y-143510000D01*
X149860000Y-143510000D02*
X149860000Y-144780000D01*
X141665000Y-146220000D02*
X133925000Y-146220000D01*
X133925000Y-146220000D02*
X133925000Y-148880000D01*
X133925000Y-148880000D02*
X141665000Y-148880000D01*
X141665000Y-148880000D02*
X141665000Y-146220000D01*
X140715000Y-148880000D02*
X140715000Y-154880000D01*
X140715000Y-154880000D02*
X139955000Y-154880000D01*
X139955000Y-154880000D02*
X139955000Y-148880000D01*
X140655000Y-148880000D02*
X140655000Y-154880000D01*
X140535000Y-148880000D02*
X140535000Y-154880000D01*
X140415000Y-148880000D02*
X140415000Y-154880000D01*
X140295000Y-148880000D02*
X140295000Y-154880000D01*
X140175000Y-148880000D02*
X140175000Y-154880000D01*
X140055000Y-148880000D02*
X140055000Y-154880000D01*
X140715000Y-145890000D02*
X140715000Y-146220000D01*
X139955000Y-145890000D02*
X139955000Y-146220000D01*
X139065000Y-146220000D02*
X139065000Y-148880000D01*
X138175000Y-148880000D02*
X138175000Y-154880000D01*
X138175000Y-154880000D02*
X137415000Y-154880000D01*
X137415000Y-154880000D02*
X137415000Y-148880000D01*
X138175000Y-145822929D02*
X138175000Y-146220000D01*
X137415000Y-145822929D02*
X137415000Y-146220000D01*
X136525000Y-146220000D02*
X136525000Y-148880000D01*
X135635000Y-148880000D02*
X135635000Y-154880000D01*
X135635000Y-154880000D02*
X134875000Y-154880000D01*
X134875000Y-154880000D02*
X134875000Y-148880000D01*
X135635000Y-145822929D02*
X135635000Y-146220000D01*
X134875000Y-145822929D02*
X134875000Y-146220000D01*
X140335000Y-143510000D02*
X141605000Y-143510000D01*
X141605000Y-143510000D02*
X141605000Y-144780000D01*
X133410000Y-146220000D02*
X125670000Y-146220000D01*
X125670000Y-146220000D02*
X125670000Y-148880000D01*
X125670000Y-148880000D02*
X133410000Y-148880000D01*
X133410000Y-148880000D02*
X133410000Y-146220000D01*
X132460000Y-148880000D02*
X132460000Y-154880000D01*
X132460000Y-154880000D02*
X131700000Y-154880000D01*
X131700000Y-154880000D02*
X131700000Y-148880000D01*
X132400000Y-148880000D02*
X132400000Y-154880000D01*
X132280000Y-148880000D02*
X132280000Y-154880000D01*
X132160000Y-148880000D02*
X132160000Y-154880000D01*
X132040000Y-148880000D02*
X132040000Y-154880000D01*
X131920000Y-148880000D02*
X131920000Y-154880000D01*
X131800000Y-148880000D02*
X131800000Y-154880000D01*
X132460000Y-145890000D02*
X132460000Y-146220000D01*
X131700000Y-145890000D02*
X131700000Y-146220000D01*
X130810000Y-146220000D02*
X130810000Y-148880000D01*
X129920000Y-148880000D02*
X129920000Y-154880000D01*
X129920000Y-154880000D02*
X129160000Y-154880000D01*
X129160000Y-154880000D02*
X129160000Y-148880000D01*
X129920000Y-145822929D02*
X129920000Y-146220000D01*
X129160000Y-145822929D02*
X129160000Y-146220000D01*
X128270000Y-146220000D02*
X128270000Y-148880000D01*
X127380000Y-148880000D02*
X127380000Y-154880000D01*
X127380000Y-154880000D02*
X126620000Y-154880000D01*
X126620000Y-154880000D02*
X126620000Y-148880000D01*
X127380000Y-145822929D02*
X127380000Y-146220000D01*
X126620000Y-145822929D02*
X126620000Y-146220000D01*
X132080000Y-143510000D02*
X133350000Y-143510000D01*
X133350000Y-143510000D02*
X133350000Y-144780000D01*
X175835000Y-110550000D02*
X178495000Y-110550000D01*
X175835000Y-92710000D02*
X175835000Y-110550000D01*
X178495000Y-92710000D02*
X178495000Y-110550000D01*
X175835000Y-92710000D02*
X178495000Y-92710000D01*
X175835000Y-91440000D02*
X175835000Y-90110000D01*
X175835000Y-90110000D02*
X177165000Y-90110000D01*
X175835000Y-133410000D02*
X178495000Y-133410000D01*
X175835000Y-115570000D02*
X175835000Y-133410000D01*
X178495000Y-115570000D02*
X178495000Y-133410000D01*
X175835000Y-115570000D02*
X178495000Y-115570000D01*
X175835000Y-114300000D02*
X175835000Y-112970000D01*
X175835000Y-112970000D02*
X177165000Y-112970000D01*
X173415000Y-138490000D02*
X173415000Y-133290000D01*
X130175000Y-138490000D02*
X173415000Y-138490000D01*
X127575000Y-133290000D02*
X173415000Y-133290000D01*
X130175000Y-138490000D02*
X130175000Y-135890000D01*
X130175000Y-135890000D02*
X127575000Y-135890000D01*
X127575000Y-135890000D02*
X127575000Y-133290000D01*
X128905000Y-138490000D02*
X127575000Y-138490000D01*
X127575000Y-138490000D02*
X127575000Y-137160000D01*
X127575000Y-83880000D02*
X130235000Y-83880000D01*
X127575000Y-66040000D02*
X127575000Y-83880000D01*
X130235000Y-66040000D02*
X130235000Y-83880000D01*
X127575000Y-66040000D02*
X130235000Y-66040000D01*
X127575000Y-64770000D02*
X127575000Y-63440000D01*
X127575000Y-63440000D02*
X128905000Y-63440000D01*
X127575000Y-105470000D02*
X130235000Y-105470000D01*
X127575000Y-87630000D02*
X127575000Y-105470000D01*
X130235000Y-87630000D02*
X130235000Y-105470000D01*
X127575000Y-87630000D02*
X130235000Y-87630000D01*
X127575000Y-86360000D02*
X127575000Y-85030000D01*
X127575000Y-85030000D02*
X128905000Y-85030000D01*
X127575000Y-128330000D02*
X130235000Y-128330000D01*
X127575000Y-110490000D02*
X127575000Y-128330000D01*
X130235000Y-110490000D02*
X130235000Y-128330000D01*
X127575000Y-110490000D02*
X130235000Y-110490000D01*
X127575000Y-109220000D02*
X127575000Y-107890000D01*
X127575000Y-107890000D02*
X128905000Y-107890000D01*
X175835000Y-87690000D02*
X178495000Y-87690000D01*
X175835000Y-69850000D02*
X175835000Y-87690000D01*
X178495000Y-69850000D02*
X178495000Y-87690000D01*
X175835000Y-69850000D02*
X178495000Y-69850000D01*
X175835000Y-68580000D02*
X175835000Y-67250000D01*
X175835000Y-67250000D02*
X177165000Y-67250000D01*
X150705000Y-99485000D02*
X150705000Y-92365000D01*
X152825000Y-99485000D02*
X152825000Y-92365000D01*
X150705000Y-99485000D02*
X152825000Y-99485000D01*
X150705000Y-92365000D02*
X152825000Y-92365000D01*
X121225000Y-83880000D02*
X123885000Y-83880000D01*
X121225000Y-66040000D02*
X121225000Y-83880000D01*
X123885000Y-66040000D02*
X123885000Y-83880000D01*
X121225000Y-66040000D02*
X123885000Y-66040000D01*
X121225000Y-64770000D02*
X121225000Y-63440000D01*
X121225000Y-63440000D02*
X122555000Y-63440000D01*
D14*
X153757381Y-147494523D02*
X154471667Y-147494523D01*
X154614524Y-147542143D01*
X154709762Y-147637381D01*
X154757381Y-147780238D01*
X154757381Y-147875476D01*
X154757381Y-146494523D02*
X154757381Y-147065952D01*
X154757381Y-146780238D02*
X153757381Y-146780238D01*
X153900238Y-146875476D01*
X153995476Y-146970714D01*
X154043095Y-147065952D01*
X154757381Y-145542142D02*
X154757381Y-146113571D01*
X154757381Y-145827857D02*
X153757381Y-145827857D01*
X153900238Y-145923095D01*
X153995476Y-146018333D01*
X154043095Y-146113571D01*
X145502381Y-147494523D02*
X146216667Y-147494523D01*
X146359524Y-147542143D01*
X146454762Y-147637381D01*
X146502381Y-147780238D01*
X146502381Y-147875476D01*
X146502381Y-146494523D02*
X146502381Y-147065952D01*
X146502381Y-146780238D02*
X145502381Y-146780238D01*
X145645238Y-146875476D01*
X145740476Y-146970714D01*
X145788095Y-147065952D01*
X145597619Y-146113571D02*
X145550000Y-146065952D01*
X145502381Y-145970714D01*
X145502381Y-145732618D01*
X145550000Y-145637380D01*
X145597619Y-145589761D01*
X145692857Y-145542142D01*
X145788095Y-145542142D01*
X145930952Y-145589761D01*
X146502381Y-146161190D01*
X146502381Y-145542142D01*
X137247381Y-147494523D02*
X137961667Y-147494523D01*
X138104524Y-147542143D01*
X138199762Y-147637381D01*
X138247381Y-147780238D01*
X138247381Y-147875476D01*
X138247381Y-146494523D02*
X138247381Y-147065952D01*
X138247381Y-146780238D02*
X137247381Y-146780238D01*
X137390238Y-146875476D01*
X137485476Y-146970714D01*
X137533095Y-147065952D01*
X137247381Y-146161190D02*
X137247381Y-145542142D01*
X137628333Y-145875476D01*
X137628333Y-145732618D01*
X137675952Y-145637380D01*
X137723571Y-145589761D01*
X137818810Y-145542142D01*
X138056905Y-145542142D01*
X138152143Y-145589761D01*
X138199762Y-145637380D01*
X138247381Y-145732618D01*
X138247381Y-146018333D01*
X138199762Y-146113571D01*
X138152143Y-146161190D01*
X129627381Y-148129523D02*
X130341667Y-148129523D01*
X130484524Y-148177143D01*
X130579762Y-148272381D01*
X130627381Y-148415238D01*
X130627381Y-148510476D01*
X130627381Y-147129523D02*
X130627381Y-147700952D01*
X130627381Y-147415238D02*
X129627381Y-147415238D01*
X129770238Y-147510476D01*
X129865476Y-147605714D01*
X129913095Y-147700952D01*
X129960714Y-146272380D02*
X130627381Y-146272380D01*
X129579762Y-146510476D02*
X130294048Y-146748571D01*
X130294048Y-146129523D01*
X176831667Y-88562381D02*
X176831667Y-89276667D01*
X176784047Y-89419524D01*
X176688809Y-89514762D01*
X176545952Y-89562381D01*
X176450714Y-89562381D01*
X177212619Y-88562381D02*
X177831667Y-88562381D01*
X177498333Y-88943333D01*
X177641191Y-88943333D01*
X177736429Y-88990952D01*
X177784048Y-89038571D01*
X177831667Y-89133810D01*
X177831667Y-89371905D01*
X177784048Y-89467143D01*
X177736429Y-89514762D01*
X177641191Y-89562381D01*
X177355476Y-89562381D01*
X177260238Y-89514762D01*
X177212619Y-89467143D01*
X176831667Y-111422381D02*
X176831667Y-112136667D01*
X176784047Y-112279524D01*
X176688809Y-112374762D01*
X176545952Y-112422381D01*
X176450714Y-112422381D01*
X177736429Y-111755714D02*
X177736429Y-112422381D01*
X177498333Y-111374762D02*
X177260238Y-112089048D01*
X177879286Y-112089048D01*
X128357381Y-136223333D02*
X129071667Y-136223333D01*
X129214524Y-136270953D01*
X129309762Y-136366191D01*
X129357381Y-136509048D01*
X129357381Y-136604286D01*
X128357381Y-135270952D02*
X128357381Y-135747143D01*
X128833571Y-135794762D01*
X128785952Y-135747143D01*
X128738333Y-135651905D01*
X128738333Y-135413809D01*
X128785952Y-135318571D01*
X128833571Y-135270952D01*
X128928810Y-135223333D01*
X129166905Y-135223333D01*
X129262143Y-135270952D01*
X129309762Y-135318571D01*
X129357381Y-135413809D01*
X129357381Y-135651905D01*
X129309762Y-135747143D01*
X129262143Y-135794762D01*
X128571667Y-61892381D02*
X128571667Y-62606667D01*
X128524047Y-62749524D01*
X128428809Y-62844762D01*
X128285952Y-62892381D01*
X128190714Y-62892381D01*
X129476429Y-61892381D02*
X129285952Y-61892381D01*
X129190714Y-61940000D01*
X129143095Y-61987619D01*
X129047857Y-62130476D01*
X129000238Y-62320952D01*
X129000238Y-62701905D01*
X129047857Y-62797143D01*
X129095476Y-62844762D01*
X129190714Y-62892381D01*
X129381191Y-62892381D01*
X129476429Y-62844762D01*
X129524048Y-62797143D01*
X129571667Y-62701905D01*
X129571667Y-62463810D01*
X129524048Y-62368571D01*
X129476429Y-62320952D01*
X129381191Y-62273333D01*
X129190714Y-62273333D01*
X129095476Y-62320952D01*
X129047857Y-62368571D01*
X129000238Y-62463810D01*
X128571667Y-83482381D02*
X128571667Y-84196667D01*
X128524047Y-84339524D01*
X128428809Y-84434762D01*
X128285952Y-84482381D01*
X128190714Y-84482381D01*
X128952619Y-83482381D02*
X129619286Y-83482381D01*
X129190714Y-84482381D01*
X128571667Y-106342381D02*
X128571667Y-107056667D01*
X128524047Y-107199524D01*
X128428809Y-107294762D01*
X128285952Y-107342381D01*
X128190714Y-107342381D01*
X129190714Y-106770952D02*
X129095476Y-106723333D01*
X129047857Y-106675714D01*
X129000238Y-106580476D01*
X129000238Y-106532857D01*
X129047857Y-106437619D01*
X129095476Y-106390000D01*
X129190714Y-106342381D01*
X129381191Y-106342381D01*
X129476429Y-106390000D01*
X129524048Y-106437619D01*
X129571667Y-106532857D01*
X129571667Y-106580476D01*
X129524048Y-106675714D01*
X129476429Y-106723333D01*
X129381191Y-106770952D01*
X129190714Y-106770952D01*
X129095476Y-106818571D01*
X129047857Y-106866190D01*
X129000238Y-106961429D01*
X129000238Y-107151905D01*
X129047857Y-107247143D01*
X129095476Y-107294762D01*
X129190714Y-107342381D01*
X129381191Y-107342381D01*
X129476429Y-107294762D01*
X129524048Y-107247143D01*
X129571667Y-107151905D01*
X129571667Y-106961429D01*
X129524048Y-106866190D01*
X129476429Y-106818571D01*
X129381191Y-106770952D01*
X176831667Y-65702381D02*
X176831667Y-66416667D01*
X176784047Y-66559524D01*
X176688809Y-66654762D01*
X176545952Y-66702381D01*
X176450714Y-66702381D01*
X177260238Y-65797619D02*
X177307857Y-65750000D01*
X177403095Y-65702381D01*
X177641191Y-65702381D01*
X177736429Y-65750000D01*
X177784048Y-65797619D01*
X177831667Y-65892857D01*
X177831667Y-65988095D01*
X177784048Y-66130952D01*
X177212619Y-66702381D01*
X177831667Y-66702381D01*
X127571667Y-52132381D02*
X127238333Y-51656190D01*
X127000238Y-52132381D02*
X127000238Y-51132381D01*
X127381191Y-51132381D01*
X127476429Y-51180000D01*
X127524048Y-51227619D01*
X127571667Y-51322857D01*
X127571667Y-51465714D01*
X127524048Y-51560952D01*
X127476429Y-51608571D01*
X127381191Y-51656190D01*
X127000238Y-51656190D01*
X128000238Y-51608571D02*
X128333572Y-51608571D01*
X128476429Y-52132381D02*
X128000238Y-52132381D01*
X128000238Y-51132381D01*
X128476429Y-51132381D01*
X129238334Y-51608571D02*
X128905000Y-51608571D01*
X128905000Y-52132381D02*
X128905000Y-51132381D01*
X129381191Y-51132381D01*
X129905000Y-51132381D02*
X129905000Y-51370476D01*
X129666905Y-51275238D02*
X129905000Y-51370476D01*
X130143096Y-51275238D01*
X129762143Y-51560952D02*
X129905000Y-51370476D01*
X130047858Y-51560952D01*
X130666905Y-51132381D02*
X130666905Y-51370476D01*
X130428810Y-51275238D02*
X130666905Y-51370476D01*
X130905001Y-51275238D01*
X130524048Y-51560952D02*
X130666905Y-51370476D01*
X130809763Y-51560952D01*
X175831667Y-50862381D02*
X175498333Y-50386190D01*
X175260238Y-50862381D02*
X175260238Y-49862381D01*
X175641191Y-49862381D01*
X175736429Y-49910000D01*
X175784048Y-49957619D01*
X175831667Y-50052857D01*
X175831667Y-50195714D01*
X175784048Y-50290952D01*
X175736429Y-50338571D01*
X175641191Y-50386190D01*
X175260238Y-50386190D01*
X176260238Y-50338571D02*
X176593572Y-50338571D01*
X176736429Y-50862381D02*
X176260238Y-50862381D01*
X176260238Y-49862381D01*
X176736429Y-49862381D01*
X177498334Y-50338571D02*
X177165000Y-50338571D01*
X177165000Y-50862381D02*
X177165000Y-49862381D01*
X177641191Y-49862381D01*
X178165000Y-49862381D02*
X178165000Y-50100476D01*
X177926905Y-50005238D02*
X178165000Y-50100476D01*
X178403096Y-50005238D01*
X178022143Y-50290952D02*
X178165000Y-50100476D01*
X178307858Y-50290952D01*
X178926905Y-49862381D02*
X178926905Y-50100476D01*
X178688810Y-50005238D02*
X178926905Y-50100476D01*
X179165001Y-50005238D01*
X178784048Y-50290952D02*
X178926905Y-50100476D01*
X179069763Y-50290952D01*
X175831667Y-133412381D02*
X175498333Y-132936190D01*
X175260238Y-133412381D02*
X175260238Y-132412381D01*
X175641191Y-132412381D01*
X175736429Y-132460000D01*
X175784048Y-132507619D01*
X175831667Y-132602857D01*
X175831667Y-132745714D01*
X175784048Y-132840952D01*
X175736429Y-132888571D01*
X175641191Y-132936190D01*
X175260238Y-132936190D01*
X176260238Y-132888571D02*
X176593572Y-132888571D01*
X176736429Y-133412381D02*
X176260238Y-133412381D01*
X176260238Y-132412381D01*
X176736429Y-132412381D01*
X177498334Y-132888571D02*
X177165000Y-132888571D01*
X177165000Y-133412381D02*
X177165000Y-132412381D01*
X177641191Y-132412381D01*
X178165000Y-132412381D02*
X178165000Y-132650476D01*
X177926905Y-132555238D02*
X178165000Y-132650476D01*
X178403096Y-132555238D01*
X178022143Y-132840952D02*
X178165000Y-132650476D01*
X178307858Y-132840952D01*
X178926905Y-132412381D02*
X178926905Y-132650476D01*
X178688810Y-132555238D02*
X178926905Y-132650476D01*
X179165001Y-132555238D01*
X178784048Y-132840952D02*
X178926905Y-132650476D01*
X179069763Y-132840952D01*
X133921667Y-55942381D02*
X133588333Y-55466190D01*
X133350238Y-55942381D02*
X133350238Y-54942381D01*
X133731191Y-54942381D01*
X133826429Y-54990000D01*
X133874048Y-55037619D01*
X133921667Y-55132857D01*
X133921667Y-55275714D01*
X133874048Y-55370952D01*
X133826429Y-55418571D01*
X133731191Y-55466190D01*
X133350238Y-55466190D01*
X134350238Y-55418571D02*
X134683572Y-55418571D01*
X134826429Y-55942381D02*
X134350238Y-55942381D01*
X134350238Y-54942381D01*
X134826429Y-54942381D01*
X135588334Y-55418571D02*
X135255000Y-55418571D01*
X135255000Y-55942381D02*
X135255000Y-54942381D01*
X135731191Y-54942381D01*
X136255000Y-54942381D02*
X136255000Y-55180476D01*
X136016905Y-55085238D02*
X136255000Y-55180476D01*
X136493096Y-55085238D01*
X136112143Y-55370952D02*
X136255000Y-55180476D01*
X136397858Y-55370952D01*
X137016905Y-54942381D02*
X137016905Y-55180476D01*
X136778810Y-55085238D02*
X137016905Y-55180476D01*
X137255001Y-55085238D01*
X136874048Y-55370952D02*
X137016905Y-55180476D01*
X137159763Y-55370952D01*
X133921667Y-114362381D02*
X133588333Y-113886190D01*
X133350238Y-114362381D02*
X133350238Y-113362381D01*
X133731191Y-113362381D01*
X133826429Y-113410000D01*
X133874048Y-113457619D01*
X133921667Y-113552857D01*
X133921667Y-113695714D01*
X133874048Y-113790952D01*
X133826429Y-113838571D01*
X133731191Y-113886190D01*
X133350238Y-113886190D01*
X134350238Y-113838571D02*
X134683572Y-113838571D01*
X134826429Y-114362381D02*
X134350238Y-114362381D01*
X134350238Y-113362381D01*
X134826429Y-113362381D01*
X135588334Y-113838571D02*
X135255000Y-113838571D01*
X135255000Y-114362381D02*
X135255000Y-113362381D01*
X135731191Y-113362381D01*
X136255000Y-113362381D02*
X136255000Y-113600476D01*
X136016905Y-113505238D02*
X136255000Y-113600476D01*
X136493096Y-113505238D01*
X136112143Y-113790952D02*
X136255000Y-113600476D01*
X136397858Y-113790952D01*
X137016905Y-113362381D02*
X137016905Y-113600476D01*
X136778810Y-113505238D02*
X137016905Y-113600476D01*
X137255001Y-113505238D01*
X136874048Y-113790952D02*
X137016905Y-113600476D01*
X137159763Y-113790952D01*
X182816667Y-114362381D02*
X182483333Y-113886190D01*
X182245238Y-114362381D02*
X182245238Y-113362381D01*
X182626191Y-113362381D01*
X182721429Y-113410000D01*
X182769048Y-113457619D01*
X182816667Y-113552857D01*
X182816667Y-113695714D01*
X182769048Y-113790952D01*
X182721429Y-113838571D01*
X182626191Y-113886190D01*
X182245238Y-113886190D01*
X183245238Y-113838571D02*
X183578572Y-113838571D01*
X183721429Y-114362381D02*
X183245238Y-114362381D01*
X183245238Y-113362381D01*
X183721429Y-113362381D01*
X184483334Y-113838571D02*
X184150000Y-113838571D01*
X184150000Y-114362381D02*
X184150000Y-113362381D01*
X184626191Y-113362381D01*
X185150000Y-113362381D02*
X185150000Y-113600476D01*
X184911905Y-113505238D02*
X185150000Y-113600476D01*
X185388096Y-113505238D01*
X185007143Y-113790952D02*
X185150000Y-113600476D01*
X185292858Y-113790952D01*
X185911905Y-113362381D02*
X185911905Y-113600476D01*
X185673810Y-113505238D02*
X185911905Y-113600476D01*
X186150001Y-113505238D01*
X185769048Y-113790952D02*
X185911905Y-113600476D01*
X186054763Y-113790952D01*
X159051667Y-103592381D02*
X159051667Y-104306667D01*
X159004047Y-104449524D01*
X158908809Y-104544762D01*
X158765952Y-104592381D01*
X158670714Y-104592381D01*
X160051667Y-104592381D02*
X159480238Y-104592381D01*
X159765952Y-104592381D02*
X159765952Y-103592381D01*
X159670714Y-103735238D01*
X159575476Y-103830476D01*
X159480238Y-103878095D01*
X159051667Y-88352381D02*
X159051667Y-89066667D01*
X159004047Y-89209524D01*
X158908809Y-89304762D01*
X158765952Y-89352381D01*
X158670714Y-89352381D01*
X159575476Y-89352381D02*
X159765952Y-89352381D01*
X159861191Y-89304762D01*
X159908810Y-89257143D01*
X160004048Y-89114286D01*
X160051667Y-88923810D01*
X160051667Y-88542857D01*
X160004048Y-88447619D01*
X159956429Y-88400000D01*
X159861191Y-88352381D01*
X159670714Y-88352381D01*
X159575476Y-88400000D01*
X159527857Y-88447619D01*
X159480238Y-88542857D01*
X159480238Y-88780952D01*
X159527857Y-88876190D01*
X159575476Y-88923810D01*
X159670714Y-88971429D01*
X159861191Y-88971429D01*
X159956429Y-88923810D01*
X160004048Y-88876190D01*
X160051667Y-88780952D01*
X158575477Y-73112381D02*
X158575477Y-73826667D01*
X158527857Y-73969524D01*
X158432619Y-74064762D01*
X158289762Y-74112381D01*
X158194524Y-74112381D01*
X159575477Y-74112381D02*
X159004048Y-74112381D01*
X159289762Y-74112381D02*
X159289762Y-73112381D01*
X159194524Y-73255238D01*
X159099286Y-73350476D01*
X159004048Y-73398095D01*
X160194524Y-73112381D02*
X160289763Y-73112381D01*
X160385001Y-73160000D01*
X160432620Y-73207619D01*
X160480239Y-73302857D01*
X160527858Y-73493333D01*
X160527858Y-73731429D01*
X160480239Y-73921905D01*
X160432620Y-74017143D01*
X160385001Y-74064762D01*
X160289763Y-74112381D01*
X160194524Y-74112381D01*
X160099286Y-74064762D01*
X160051667Y-74017143D01*
X160004048Y-73921905D01*
X159956429Y-73731429D01*
X159956429Y-73493333D01*
X160004048Y-73302857D01*
X160051667Y-73207619D01*
X160099286Y-73160000D01*
X160194524Y-73112381D01*
X182816667Y-55942381D02*
X182483333Y-55466190D01*
X182245238Y-55942381D02*
X182245238Y-54942381D01*
X182626191Y-54942381D01*
X182721429Y-54990000D01*
X182769048Y-55037619D01*
X182816667Y-55132857D01*
X182816667Y-55275714D01*
X182769048Y-55370952D01*
X182721429Y-55418571D01*
X182626191Y-55466190D01*
X182245238Y-55466190D01*
X183245238Y-55418571D02*
X183578572Y-55418571D01*
X183721429Y-55942381D02*
X183245238Y-55942381D01*
X183245238Y-54942381D01*
X183721429Y-54942381D01*
X184483334Y-55418571D02*
X184150000Y-55418571D01*
X184150000Y-55942381D02*
X184150000Y-54942381D01*
X184626191Y-54942381D01*
X185150000Y-54942381D02*
X185150000Y-55180476D01*
X184911905Y-55085238D02*
X185150000Y-55180476D01*
X185388096Y-55085238D01*
X185007143Y-55370952D02*
X185150000Y-55180476D01*
X185292858Y-55370952D01*
X185911905Y-54942381D02*
X185911905Y-55180476D01*
X185673810Y-55085238D02*
X185911905Y-55180476D01*
X186150001Y-55085238D01*
X185769048Y-55370952D02*
X185911905Y-55180476D01*
X186054763Y-55370952D01*
X149812143Y-96091666D02*
X149859762Y-96139285D01*
X149907381Y-96282142D01*
X149907381Y-96377380D01*
X149859762Y-96520238D01*
X149764524Y-96615476D01*
X149669286Y-96663095D01*
X149478810Y-96710714D01*
X149335952Y-96710714D01*
X149145476Y-96663095D01*
X149050238Y-96615476D01*
X148955000Y-96520238D01*
X148907381Y-96377380D01*
X148907381Y-96282142D01*
X148955000Y-96139285D01*
X149002619Y-96091666D01*
X148907381Y-95186904D02*
X148907381Y-95663095D01*
X149383571Y-95710714D01*
X149335952Y-95663095D01*
X149288333Y-95567857D01*
X149288333Y-95329761D01*
X149335952Y-95234523D01*
X149383571Y-95186904D01*
X149478810Y-95139285D01*
X149716905Y-95139285D01*
X149812143Y-95186904D01*
X149859762Y-95234523D01*
X149907381Y-95329761D01*
X149907381Y-95567857D01*
X149859762Y-95663095D01*
X149812143Y-95710714D01*
X121745477Y-61892381D02*
X121745477Y-62606667D01*
X121697857Y-62749524D01*
X121602619Y-62844762D01*
X121459762Y-62892381D01*
X121364524Y-62892381D01*
X122174048Y-61987619D02*
X122221667Y-61940000D01*
X122316905Y-61892381D01*
X122555001Y-61892381D01*
X122650239Y-61940000D01*
X122697858Y-61987619D01*
X122745477Y-62082857D01*
X122745477Y-62178095D01*
X122697858Y-62320952D01*
X122126429Y-62892381D01*
X122745477Y-62892381D01*
X123078810Y-61892381D02*
X123745477Y-61892381D01*
X123316905Y-62892381D01*
M02*
