M48
;DRILL file {KiCad 4.0.7} date 03/23/18 18:32:21
;FORMAT={-:-/ absolute / metric / decimal}
FMAT,2
METRIC,TZ
T1C0.400
T2C0.700
T3C0.750
T4C0.800
T5C0.900
T6C1.000
T7C3.048
T8C3.200
%
G90
G05
M71
T1
X123.19Y-114.935
X123.19Y-149.86
X126.365Y-142.875
X127.635Y-145.415
X132.08Y-113.03
X135.255Y-125.73
X136.525Y-145.415
X145.415Y-145.415
X163.195Y-111.76
X163.195Y-123.825
X165.735Y-127.635
X167.005Y-142.875
T2
X131.445Y-124.46
X131.445Y-127.
X139.065Y-124.46
X139.065Y-127.
X154.94Y-60.96
X162.56Y-60.96
T3
X124.46Y-64.77
X124.46Y-66.77
X124.46Y-71.755
X124.46Y-73.755
X124.46Y-93.345
X124.46Y-95.345
X124.46Y-100.33
X124.46Y-102.33
X124.46Y-107.315
X124.46Y-109.315
X124.46Y-111.315
X124.46Y-116.205
X124.46Y-118.205
X124.46Y-120.205
X124.46Y-122.205
X124.46Y-127.
X124.46Y-129.
X124.46Y-131.
X124.46Y-133.
X124.46Y-137.795
X124.46Y-139.795
X124.46Y-141.795
X124.46Y-143.795
X129.35Y-151.765
X131.35Y-151.765
X133.35Y-151.765
X136.875Y-151.765
X138.875Y-151.765
X140.875Y-151.765
X142.875Y-151.765
X153.48Y-151.765
X155.48Y-151.765
X157.48Y-151.765
X162.275Y-151.765
X164.275Y-151.765
X166.275Y-151.765
X168.275Y-151.765
X173.07Y-151.765
X175.07Y-151.765
X177.07Y-151.765
X179.07Y-151.765
T4
X164.465Y-95.885
X167.005Y-61.595
X167.005Y-64.77
X167.005Y-81.915
X167.72Y-107.315
X167.72Y-111.125
X172.005Y-61.595
X172.005Y-81.915
X172.085Y-95.885
X172.72Y-107.315
X172.72Y-111.125
X174.625Y-64.77
T5
X154.94Y-57.15
X157.48Y-57.15
T6
X120.65Y-79.375
X120.65Y-81.915
X123.19Y-79.375
X123.19Y-81.915
X127.635Y-148.59
X128.905Y-64.77
X128.905Y-67.31
X128.905Y-69.85
X128.905Y-72.39
X128.905Y-74.93
X128.905Y-77.47
X128.905Y-80.01
X128.905Y-82.55
X128.905Y-86.36
X128.905Y-88.9
X128.905Y-91.44
X128.905Y-93.98
X128.905Y-96.52
X128.905Y-99.06
X128.905Y-101.6
X128.905Y-104.14
X128.905Y-109.22
X128.905Y-111.76
X128.905Y-114.3
X128.905Y-116.84
X128.905Y-119.38
X128.905Y-121.92
X128.905Y-124.46
X128.905Y-127.
X128.905Y-134.62
X128.905Y-137.16
X130.175Y-148.59
X131.445Y-134.62
X131.445Y-137.16
X132.715Y-148.59
X133.985Y-134.62
X133.985Y-137.16
X136.525Y-134.62
X136.525Y-137.16
X136.525Y-148.59
X139.065Y-134.62
X139.065Y-137.16
X139.065Y-148.59
X141.605Y-134.62
X141.605Y-137.16
X141.605Y-148.59
X144.145Y-134.62
X144.145Y-137.16
X145.415Y-148.59
X146.685Y-134.62
X146.685Y-137.16
X147.955Y-148.59
X148.59Y-55.245
X148.59Y-57.785
X148.59Y-60.325
X148.59Y-62.865
X148.59Y-65.405
X148.59Y-67.945
X149.225Y-134.62
X149.225Y-137.16
X150.495Y-148.59
X151.765Y-134.62
X151.765Y-137.16
X154.305Y-134.62
X154.305Y-137.16
X154.305Y-148.59
X156.845Y-134.62
X156.845Y-137.16
X156.845Y-148.59
X159.385Y-130.175
X159.385Y-134.62
X159.385Y-137.16
X159.385Y-148.59
X161.925Y-130.175
X161.925Y-134.62
X161.925Y-137.16
X164.465Y-130.175
X164.465Y-134.62
X164.465Y-137.16
X167.005Y-130.175
X167.005Y-134.62
X167.005Y-137.16
X167.64Y-70.485
X167.64Y-73.025
X169.545Y-130.175
X169.545Y-134.62
X169.545Y-137.16
X170.18Y-70.485
X170.18Y-73.025
X172.085Y-86.36
X172.085Y-88.9
X172.085Y-91.44
X172.085Y-130.175
X172.085Y-134.62
X172.085Y-137.16
X177.165Y-68.58
X177.165Y-71.12
X177.165Y-73.66
X177.165Y-76.2
X177.165Y-78.74
X177.165Y-81.28
X177.165Y-83.82
X177.165Y-86.36
X177.165Y-91.44
X177.165Y-93.98
X177.165Y-96.52
X177.165Y-99.06
X177.165Y-101.6
X177.165Y-104.14
X177.165Y-106.68
X177.165Y-109.22
X177.165Y-114.3
X177.165Y-116.84
X177.165Y-119.38
X177.165Y-121.92
X177.165Y-124.46
X177.165Y-127.
X177.165Y-129.54
X177.165Y-132.08
X181.61Y-64.77
X181.61Y-67.31
X181.61Y-69.85
X181.61Y-106.045
X181.61Y-108.585
X181.61Y-111.125
T7
X159.067Y-69.532
X159.067Y-77.153
X159.067Y-84.772
X159.067Y-92.392
X159.067Y-100.012
X159.067Y-107.632
T8
X128.905Y-55.88
X135.255Y-59.69
X135.255Y-118.11
X177.165Y-54.61
X177.165Y-137.16
X184.15Y-118.11
T0
M30
