G04 #@! TF.FileFunction,Legend,Bot*
%FSLAX46Y46*%
G04 Gerber Fmt 4.6, Leading zero omitted, Abs format (unit mm)*
G04 Created by KiCad (PCBNEW 4.0.7) date 06/01/18 17:00:47*
%MOMM*%
%LPD*%
G01*
G04 APERTURE LIST*
%ADD10C,0.100000*%
%ADD11C,0.300000*%
%ADD12C,0.120000*%
%ADD13C,0.150000*%
G04 APERTURE END LIST*
D10*
D11*
X186662143Y-98382143D02*
X186733571Y-98596429D01*
X186733571Y-98953572D01*
X186662143Y-99096429D01*
X186590714Y-99167858D01*
X186447857Y-99239286D01*
X186305000Y-99239286D01*
X186162143Y-99167858D01*
X186090714Y-99096429D01*
X186019286Y-98953572D01*
X185947857Y-98667858D01*
X185876429Y-98525000D01*
X185805000Y-98453572D01*
X185662143Y-98382143D01*
X185519286Y-98382143D01*
X185376429Y-98453572D01*
X185305000Y-98525000D01*
X185233571Y-98667858D01*
X185233571Y-99025000D01*
X185305000Y-99239286D01*
X186662143Y-100453571D02*
X186733571Y-100310714D01*
X186733571Y-100025000D01*
X186662143Y-99882143D01*
X186519286Y-99810714D01*
X185947857Y-99810714D01*
X185805000Y-99882143D01*
X185733571Y-100025000D01*
X185733571Y-100310714D01*
X185805000Y-100453571D01*
X185947857Y-100525000D01*
X186090714Y-100525000D01*
X186233571Y-99810714D01*
X185733571Y-101167857D02*
X186733571Y-101167857D01*
X185876429Y-101167857D02*
X185805000Y-101239285D01*
X185733571Y-101382143D01*
X185733571Y-101596428D01*
X185805000Y-101739285D01*
X185947857Y-101810714D01*
X186733571Y-101810714D01*
X186662143Y-102453571D02*
X186733571Y-102596428D01*
X186733571Y-102882143D01*
X186662143Y-103025000D01*
X186519286Y-103096428D01*
X186447857Y-103096428D01*
X186305000Y-103025000D01*
X186233571Y-102882143D01*
X186233571Y-102667857D01*
X186162143Y-102525000D01*
X186019286Y-102453571D01*
X185947857Y-102453571D01*
X185805000Y-102525000D01*
X185733571Y-102667857D01*
X185733571Y-102882143D01*
X185805000Y-103025000D01*
X186733571Y-103953572D02*
X186662143Y-103810714D01*
X186590714Y-103739286D01*
X186447857Y-103667857D01*
X186019286Y-103667857D01*
X185876429Y-103739286D01*
X185805000Y-103810714D01*
X185733571Y-103953572D01*
X185733571Y-104167857D01*
X185805000Y-104310714D01*
X185876429Y-104382143D01*
X186019286Y-104453572D01*
X186447857Y-104453572D01*
X186590714Y-104382143D01*
X186662143Y-104310714D01*
X186733571Y-104167857D01*
X186733571Y-103953572D01*
X186733571Y-105096429D02*
X185733571Y-105096429D01*
X186019286Y-105096429D02*
X185876429Y-105167857D01*
X185805000Y-105239286D01*
X185733571Y-105382143D01*
X185733571Y-105525000D01*
X186662143Y-105953571D02*
X186733571Y-106096428D01*
X186733571Y-106382143D01*
X186662143Y-106525000D01*
X186519286Y-106596428D01*
X186447857Y-106596428D01*
X186305000Y-106525000D01*
X186233571Y-106382143D01*
X186233571Y-106167857D01*
X186162143Y-106025000D01*
X186019286Y-105953571D01*
X185947857Y-105953571D01*
X185805000Y-106025000D01*
X185733571Y-106167857D01*
X185733571Y-106382143D01*
X185805000Y-106525000D01*
X186162143Y-107239286D02*
X186162143Y-108382143D01*
X185233571Y-109810715D02*
X185233571Y-109096429D01*
X185947857Y-109025000D01*
X185876429Y-109096429D01*
X185805000Y-109239286D01*
X185805000Y-109596429D01*
X185876429Y-109739286D01*
X185947857Y-109810715D01*
X186090714Y-109882143D01*
X186447857Y-109882143D01*
X186590714Y-109810715D01*
X186662143Y-109739286D01*
X186733571Y-109596429D01*
X186733571Y-109239286D01*
X186662143Y-109096429D01*
X186590714Y-109025000D01*
X185233571Y-110310714D02*
X186733571Y-110810714D01*
X185233571Y-111310714D01*
X186662143Y-83193572D02*
X186733571Y-83407858D01*
X186733571Y-83765001D01*
X186662143Y-83907858D01*
X186590714Y-83979287D01*
X186447857Y-84050715D01*
X186305000Y-84050715D01*
X186162143Y-83979287D01*
X186090714Y-83907858D01*
X186019286Y-83765001D01*
X185947857Y-83479287D01*
X185876429Y-83336429D01*
X185805000Y-83265001D01*
X185662143Y-83193572D01*
X185519286Y-83193572D01*
X185376429Y-83265001D01*
X185305000Y-83336429D01*
X185233571Y-83479287D01*
X185233571Y-83836429D01*
X185305000Y-84050715D01*
X186662143Y-85265000D02*
X186733571Y-85122143D01*
X186733571Y-84836429D01*
X186662143Y-84693572D01*
X186519286Y-84622143D01*
X185947857Y-84622143D01*
X185805000Y-84693572D01*
X185733571Y-84836429D01*
X185733571Y-85122143D01*
X185805000Y-85265000D01*
X185947857Y-85336429D01*
X186090714Y-85336429D01*
X186233571Y-84622143D01*
X186733571Y-85979286D02*
X185733571Y-85979286D01*
X186019286Y-85979286D02*
X185876429Y-86050714D01*
X185805000Y-86122143D01*
X185733571Y-86265000D01*
X185733571Y-86407857D01*
X185733571Y-86765000D02*
X186733571Y-87122143D01*
X185733571Y-87479285D01*
X186733571Y-88265000D02*
X186662143Y-88122142D01*
X186590714Y-88050714D01*
X186447857Y-87979285D01*
X186019286Y-87979285D01*
X185876429Y-88050714D01*
X185805000Y-88122142D01*
X185733571Y-88265000D01*
X185733571Y-88479285D01*
X185805000Y-88622142D01*
X185876429Y-88693571D01*
X186019286Y-88765000D01*
X186447857Y-88765000D01*
X186590714Y-88693571D01*
X186662143Y-88622142D01*
X186733571Y-88479285D01*
X186733571Y-88265000D01*
X186162143Y-89407857D02*
X186162143Y-90550714D01*
X185233571Y-91979286D02*
X185233571Y-91265000D01*
X185947857Y-91193571D01*
X185876429Y-91265000D01*
X185805000Y-91407857D01*
X185805000Y-91765000D01*
X185876429Y-91907857D01*
X185947857Y-91979286D01*
X186090714Y-92050714D01*
X186447857Y-92050714D01*
X186590714Y-91979286D01*
X186662143Y-91907857D01*
X186733571Y-91765000D01*
X186733571Y-91407857D01*
X186662143Y-91265000D01*
X186590714Y-91193571D01*
X185233571Y-92479285D02*
X186733571Y-92979285D01*
X185233571Y-93479285D01*
X186733571Y-68826429D02*
X186019286Y-68326429D01*
X186733571Y-67969286D02*
X185233571Y-67969286D01*
X185233571Y-68540714D01*
X185305000Y-68683572D01*
X185376429Y-68755000D01*
X185519286Y-68826429D01*
X185733571Y-68826429D01*
X185876429Y-68755000D01*
X185947857Y-68683572D01*
X186019286Y-68540714D01*
X186019286Y-67969286D01*
X186733571Y-69469286D02*
X185233571Y-69469286D01*
X185233571Y-70040714D01*
X185305000Y-70183572D01*
X185376429Y-70255000D01*
X185519286Y-70326429D01*
X185733571Y-70326429D01*
X185876429Y-70255000D01*
X185947857Y-70183572D01*
X186019286Y-70040714D01*
X186019286Y-69469286D01*
X186733571Y-70969286D02*
X185733571Y-70969286D01*
X185233571Y-70969286D02*
X185305000Y-70897857D01*
X185376429Y-70969286D01*
X185305000Y-71040714D01*
X185233571Y-70969286D01*
X185376429Y-70969286D01*
X186162143Y-71683572D02*
X186162143Y-72826429D01*
X185233571Y-74255001D02*
X185233571Y-73540715D01*
X185947857Y-73469286D01*
X185876429Y-73540715D01*
X185805000Y-73683572D01*
X185805000Y-74040715D01*
X185876429Y-74183572D01*
X185947857Y-74255001D01*
X186090714Y-74326429D01*
X186447857Y-74326429D01*
X186590714Y-74255001D01*
X186662143Y-74183572D01*
X186733571Y-74040715D01*
X186733571Y-73683572D01*
X186662143Y-73540715D01*
X186590714Y-73469286D01*
X185233571Y-74755000D02*
X186733571Y-75255000D01*
X185233571Y-75755000D01*
X178565714Y-140862857D02*
X178351428Y-140934286D01*
X178280000Y-141005714D01*
X178208571Y-141148571D01*
X178208571Y-141362857D01*
X178280000Y-141505714D01*
X178351428Y-141577143D01*
X178494286Y-141648571D01*
X179065714Y-141648571D01*
X179065714Y-140148571D01*
X178565714Y-140148571D01*
X178422857Y-140220000D01*
X178351428Y-140291429D01*
X178280000Y-140434286D01*
X178280000Y-140577143D01*
X178351428Y-140720000D01*
X178422857Y-140791429D01*
X178565714Y-140862857D01*
X179065714Y-140862857D01*
X177637143Y-141220000D02*
X176922857Y-141220000D01*
X177780000Y-141648571D02*
X177280000Y-140148571D01*
X176780000Y-141648571D01*
X176494286Y-140148571D02*
X175637143Y-140148571D01*
X176065714Y-141648571D02*
X176065714Y-140148571D01*
X175137143Y-141077143D02*
X173994286Y-141077143D01*
X178565714Y-142767857D02*
X178351428Y-142839286D01*
X178280000Y-142910714D01*
X178208571Y-143053571D01*
X178208571Y-143267857D01*
X178280000Y-143410714D01*
X178351428Y-143482143D01*
X178494286Y-143553571D01*
X179065714Y-143553571D01*
X179065714Y-142053571D01*
X178565714Y-142053571D01*
X178422857Y-142125000D01*
X178351428Y-142196429D01*
X178280000Y-142339286D01*
X178280000Y-142482143D01*
X178351428Y-142625000D01*
X178422857Y-142696429D01*
X178565714Y-142767857D01*
X179065714Y-142767857D01*
X177637143Y-143125000D02*
X176922857Y-143125000D01*
X177780000Y-143553571D02*
X177280000Y-142053571D01*
X176780000Y-143553571D01*
X176494286Y-142053571D02*
X175637143Y-142053571D01*
X176065714Y-143553571D02*
X176065714Y-142053571D01*
X175137143Y-142982143D02*
X173994286Y-142982143D01*
X174565715Y-143553571D02*
X174565715Y-142410714D01*
X123626428Y-145665000D02*
X122912142Y-145665000D01*
X123769285Y-146093571D02*
X123269285Y-144593571D01*
X122769285Y-146093571D01*
X121983571Y-144593571D02*
X121840714Y-144593571D01*
X121697857Y-144665000D01*
X121626428Y-144736429D01*
X121554999Y-144879286D01*
X121483571Y-145165000D01*
X121483571Y-145522143D01*
X121554999Y-145807857D01*
X121626428Y-145950714D01*
X121697857Y-146022143D01*
X121840714Y-146093571D01*
X121983571Y-146093571D01*
X122126428Y-146022143D01*
X122197857Y-145950714D01*
X122269285Y-145807857D01*
X122340714Y-145522143D01*
X122340714Y-145165000D01*
X122269285Y-144879286D01*
X122197857Y-144736429D01*
X122126428Y-144665000D01*
X121983571Y-144593571D01*
X125686429Y-116042142D02*
X127186429Y-116042142D01*
X127186429Y-115684999D01*
X127115000Y-115470714D01*
X126972143Y-115327856D01*
X126829286Y-115256428D01*
X126543571Y-115184999D01*
X126329286Y-115184999D01*
X126043571Y-115256428D01*
X125900714Y-115327856D01*
X125757857Y-115470714D01*
X125686429Y-115684999D01*
X125686429Y-116042142D01*
X125686429Y-113756428D02*
X125686429Y-114613571D01*
X125686429Y-114184999D02*
X127186429Y-114184999D01*
X126972143Y-114327856D01*
X126829286Y-114470714D01*
X126757857Y-114613571D01*
X126115000Y-123626428D02*
X126115000Y-122912142D01*
X125686429Y-123769285D02*
X127186429Y-123269285D01*
X125686429Y-122769285D01*
X127043571Y-122340714D02*
X127115000Y-122269285D01*
X127186429Y-122126428D01*
X127186429Y-121769285D01*
X127115000Y-121626428D01*
X127043571Y-121554999D01*
X126900714Y-121483571D01*
X126757857Y-121483571D01*
X126543571Y-121554999D01*
X125686429Y-122412142D01*
X125686429Y-121483571D01*
X126115000Y-131881428D02*
X126115000Y-131167142D01*
X125686429Y-132024285D02*
X127186429Y-131524285D01*
X125686429Y-131024285D01*
X125686429Y-129738571D02*
X125686429Y-130595714D01*
X125686429Y-130167142D02*
X127186429Y-130167142D01*
X126972143Y-130309999D01*
X126829286Y-130452857D01*
X126757857Y-130595714D01*
X179899285Y-146093571D02*
X179899285Y-144593571D01*
X179256428Y-144736429D02*
X179184999Y-144665000D01*
X179042142Y-144593571D01*
X178684999Y-144593571D01*
X178542142Y-144665000D01*
X178470713Y-144736429D01*
X178399285Y-144879286D01*
X178399285Y-145022143D01*
X178470713Y-145236429D01*
X179327856Y-146093571D01*
X178399285Y-146093571D01*
X176899285Y-145950714D02*
X176970714Y-146022143D01*
X177185000Y-146093571D01*
X177327857Y-146093571D01*
X177542142Y-146022143D01*
X177685000Y-145879286D01*
X177756428Y-145736429D01*
X177827857Y-145450714D01*
X177827857Y-145236429D01*
X177756428Y-144950714D01*
X177685000Y-144807857D01*
X177542142Y-144665000D01*
X177327857Y-144593571D01*
X177185000Y-144593571D01*
X176970714Y-144665000D01*
X176899285Y-144736429D01*
X125757857Y-144013571D02*
X125686429Y-143799285D01*
X125686429Y-143442142D01*
X125757857Y-143299285D01*
X125829286Y-143227856D01*
X125972143Y-143156428D01*
X126115000Y-143156428D01*
X126257857Y-143227856D01*
X126329286Y-143299285D01*
X126400714Y-143442142D01*
X126472143Y-143727856D01*
X126543571Y-143870714D01*
X126615000Y-143942142D01*
X126757857Y-144013571D01*
X126900714Y-144013571D01*
X127043571Y-143942142D01*
X127115000Y-143870714D01*
X127186429Y-143727856D01*
X127186429Y-143370714D01*
X127115000Y-143156428D01*
X125757857Y-141942143D02*
X125686429Y-142085000D01*
X125686429Y-142370714D01*
X125757857Y-142513571D01*
X125900714Y-142585000D01*
X126472143Y-142585000D01*
X126615000Y-142513571D01*
X126686429Y-142370714D01*
X126686429Y-142085000D01*
X126615000Y-141942143D01*
X126472143Y-141870714D01*
X126329286Y-141870714D01*
X126186429Y-142585000D01*
X125686429Y-141227857D02*
X126686429Y-141227857D01*
X126400714Y-141227857D02*
X126543571Y-141156429D01*
X126615000Y-141085000D01*
X126686429Y-140942143D01*
X126686429Y-140799286D01*
X125686429Y-140299286D02*
X126686429Y-140299286D01*
X127186429Y-140299286D02*
X127115000Y-140370715D01*
X127043571Y-140299286D01*
X127115000Y-140227858D01*
X127186429Y-140299286D01*
X127043571Y-140299286D01*
X125686429Y-138942143D02*
X126472143Y-138942143D01*
X126615000Y-139013572D01*
X126686429Y-139156429D01*
X126686429Y-139442143D01*
X126615000Y-139585000D01*
X125757857Y-138942143D02*
X125686429Y-139085000D01*
X125686429Y-139442143D01*
X125757857Y-139585000D01*
X125900714Y-139656429D01*
X126043571Y-139656429D01*
X126186429Y-139585000D01*
X126257857Y-139442143D01*
X126257857Y-139085000D01*
X126329286Y-138942143D01*
X125686429Y-138013571D02*
X125757857Y-138156429D01*
X125900714Y-138227857D01*
X127186429Y-138227857D01*
X127043571Y-137513572D02*
X127115000Y-137442143D01*
X127186429Y-137299286D01*
X127186429Y-136942143D01*
X127115000Y-136799286D01*
X127043571Y-136727857D01*
X126900714Y-136656429D01*
X126757857Y-136656429D01*
X126543571Y-136727857D01*
X125686429Y-137585000D01*
X125686429Y-136656429D01*
X169739285Y-146093571D02*
X169739285Y-144593571D01*
X169096428Y-144736429D02*
X169024999Y-144665000D01*
X168882142Y-144593571D01*
X168524999Y-144593571D01*
X168382142Y-144665000D01*
X168310713Y-144736429D01*
X168239285Y-144879286D01*
X168239285Y-145022143D01*
X168310713Y-145236429D01*
X169167856Y-146093571D01*
X168239285Y-146093571D01*
X166739285Y-145950714D02*
X166810714Y-146022143D01*
X167025000Y-146093571D01*
X167167857Y-146093571D01*
X167382142Y-146022143D01*
X167525000Y-145879286D01*
X167596428Y-145736429D01*
X167667857Y-145450714D01*
X167667857Y-145236429D01*
X167596428Y-144950714D01*
X167525000Y-144807857D01*
X167382142Y-144665000D01*
X167167857Y-144593571D01*
X167025000Y-144593571D01*
X166810714Y-144665000D01*
X166739285Y-144736429D01*
X159579285Y-142918571D02*
X159579285Y-141418571D01*
X158936428Y-141561429D02*
X158864999Y-141490000D01*
X158722142Y-141418571D01*
X158364999Y-141418571D01*
X158222142Y-141490000D01*
X158150713Y-141561429D01*
X158079285Y-141704286D01*
X158079285Y-141847143D01*
X158150713Y-142061429D01*
X159007856Y-142918571D01*
X158079285Y-142918571D01*
X156579285Y-142775714D02*
X156650714Y-142847143D01*
X156865000Y-142918571D01*
X157007857Y-142918571D01*
X157222142Y-142847143D01*
X157365000Y-142704286D01*
X157436428Y-142561429D01*
X157507857Y-142275714D01*
X157507857Y-142061429D01*
X157436428Y-141775714D01*
X157365000Y-141632857D01*
X157222142Y-141490000D01*
X157007857Y-141418571D01*
X156865000Y-141418571D01*
X156650714Y-141490000D01*
X156579285Y-141561429D01*
X149419285Y-142918571D02*
X149419285Y-141418571D01*
X148776428Y-141561429D02*
X148704999Y-141490000D01*
X148562142Y-141418571D01*
X148204999Y-141418571D01*
X148062142Y-141490000D01*
X147990713Y-141561429D01*
X147919285Y-141704286D01*
X147919285Y-141847143D01*
X147990713Y-142061429D01*
X148847856Y-142918571D01*
X147919285Y-142918571D01*
X146419285Y-142775714D02*
X146490714Y-142847143D01*
X146705000Y-142918571D01*
X146847857Y-142918571D01*
X147062142Y-142847143D01*
X147205000Y-142704286D01*
X147276428Y-142561429D01*
X147347857Y-142275714D01*
X147347857Y-142061429D01*
X147276428Y-141775714D01*
X147205000Y-141632857D01*
X147062142Y-141490000D01*
X146847857Y-141418571D01*
X146705000Y-141418571D01*
X146490714Y-141490000D01*
X146419285Y-141561429D01*
X130647142Y-142918571D02*
X130647142Y-141418571D01*
X130289999Y-141418571D01*
X130075714Y-141490000D01*
X129932856Y-141632857D01*
X129861428Y-141775714D01*
X129789999Y-142061429D01*
X129789999Y-142275714D01*
X129861428Y-142561429D01*
X129932856Y-142704286D01*
X130075714Y-142847143D01*
X130289999Y-142918571D01*
X130647142Y-142918571D01*
X128861428Y-141418571D02*
X128718571Y-141418571D01*
X128575714Y-141490000D01*
X128504285Y-141561429D01*
X128432856Y-141704286D01*
X128361428Y-141990000D01*
X128361428Y-142347143D01*
X128432856Y-142632857D01*
X128504285Y-142775714D01*
X128575714Y-142847143D01*
X128718571Y-142918571D01*
X128861428Y-142918571D01*
X129004285Y-142847143D01*
X129075714Y-142775714D01*
X129147142Y-142632857D01*
X129218571Y-142347143D01*
X129218571Y-141990000D01*
X129147142Y-141704286D01*
X129075714Y-141561429D01*
X129004285Y-141490000D01*
X128861428Y-141418571D01*
X142108571Y-142847143D02*
X141894285Y-142918571D01*
X141537142Y-142918571D01*
X141394285Y-142847143D01*
X141322856Y-142775714D01*
X141251428Y-142632857D01*
X141251428Y-142490000D01*
X141322856Y-142347143D01*
X141394285Y-142275714D01*
X141537142Y-142204286D01*
X141822856Y-142132857D01*
X141965714Y-142061429D01*
X142037142Y-141990000D01*
X142108571Y-141847143D01*
X142108571Y-141704286D01*
X142037142Y-141561429D01*
X141965714Y-141490000D01*
X141822856Y-141418571D01*
X141465714Y-141418571D01*
X141251428Y-141490000D01*
X140037143Y-142847143D02*
X140180000Y-142918571D01*
X140465714Y-142918571D01*
X140608571Y-142847143D01*
X140680000Y-142704286D01*
X140680000Y-142132857D01*
X140608571Y-141990000D01*
X140465714Y-141918571D01*
X140180000Y-141918571D01*
X140037143Y-141990000D01*
X139965714Y-142132857D01*
X139965714Y-142275714D01*
X140680000Y-142418571D01*
X139322857Y-142918571D02*
X139322857Y-141918571D01*
X139322857Y-142204286D02*
X139251429Y-142061429D01*
X139180000Y-141990000D01*
X139037143Y-141918571D01*
X138894286Y-141918571D01*
X138394286Y-142918571D02*
X138394286Y-141918571D01*
X138394286Y-141418571D02*
X138465715Y-141490000D01*
X138394286Y-141561429D01*
X138322858Y-141490000D01*
X138394286Y-141418571D01*
X138394286Y-141561429D01*
X137037143Y-142918571D02*
X137037143Y-142132857D01*
X137108572Y-141990000D01*
X137251429Y-141918571D01*
X137537143Y-141918571D01*
X137680000Y-141990000D01*
X137037143Y-142847143D02*
X137180000Y-142918571D01*
X137537143Y-142918571D01*
X137680000Y-142847143D01*
X137751429Y-142704286D01*
X137751429Y-142561429D01*
X137680000Y-142418571D01*
X137537143Y-142347143D01*
X137180000Y-142347143D01*
X137037143Y-142275714D01*
X136108571Y-142918571D02*
X136251429Y-142847143D01*
X136322857Y-142704286D01*
X136322857Y-141418571D01*
X134751429Y-142918571D02*
X135608572Y-142918571D01*
X135180000Y-142918571D02*
X135180000Y-141418571D01*
X135322857Y-141632857D01*
X135465715Y-141775714D01*
X135608572Y-141847143D01*
X152824643Y-68961072D02*
X152824643Y-70103929D01*
X153396071Y-69532500D02*
X152253214Y-69532500D01*
X152824643Y-76581072D02*
X152824643Y-77723929D01*
X152824643Y-84201072D02*
X152824643Y-85343929D01*
X153396071Y-84772500D02*
X152253214Y-84772500D01*
X152824643Y-91821072D02*
X152824643Y-92963929D01*
X152610357Y-97341786D02*
X152681786Y-97556072D01*
X152753214Y-97627500D01*
X152896071Y-97698929D01*
X153110357Y-97698929D01*
X153253214Y-97627500D01*
X153324643Y-97556072D01*
X153396071Y-97413214D01*
X153396071Y-96841786D01*
X151896071Y-96841786D01*
X151896071Y-97341786D01*
X151967500Y-97484643D01*
X152038929Y-97556072D01*
X152181786Y-97627500D01*
X152324643Y-97627500D01*
X152467500Y-97556072D01*
X152538929Y-97484643D01*
X152610357Y-97341786D01*
X152610357Y-96841786D01*
X152967500Y-98270357D02*
X152967500Y-98984643D01*
X153396071Y-98127500D02*
X151896071Y-98627500D01*
X153396071Y-99127500D01*
X151896071Y-99413214D02*
X151896071Y-100270357D01*
X153396071Y-99841786D02*
X151896071Y-99841786D01*
X152824643Y-100770357D02*
X152824643Y-101913214D01*
X152610357Y-104961786D02*
X152681786Y-105176072D01*
X152753214Y-105247500D01*
X152896071Y-105318929D01*
X153110357Y-105318929D01*
X153253214Y-105247500D01*
X153324643Y-105176072D01*
X153396071Y-105033214D01*
X153396071Y-104461786D01*
X151896071Y-104461786D01*
X151896071Y-104961786D01*
X151967500Y-105104643D01*
X152038929Y-105176072D01*
X152181786Y-105247500D01*
X152324643Y-105247500D01*
X152467500Y-105176072D01*
X152538929Y-105104643D01*
X152610357Y-104961786D01*
X152610357Y-104461786D01*
X152967500Y-105890357D02*
X152967500Y-106604643D01*
X153396071Y-105747500D02*
X151896071Y-106247500D01*
X153396071Y-106747500D01*
X151896071Y-107033214D02*
X151896071Y-107890357D01*
X153396071Y-107461786D02*
X151896071Y-107461786D01*
X152824643Y-108390357D02*
X152824643Y-109533214D01*
X153396071Y-108961785D02*
X152253214Y-108961785D01*
D12*
X154537665Y-54166392D02*
G75*
G02X157770000Y-54009484I1672335J-1078608D01*
G01*
X154537665Y-56323608D02*
G75*
G03X157770000Y-56480516I1672335J1078608D01*
G01*
X155168870Y-54165163D02*
G75*
G02X157250961Y-54165000I1041130J-1079837D01*
G01*
X155168870Y-56324837D02*
G75*
G03X157250961Y-56325000I1041130J1079837D01*
G01*
X157770000Y-54009000D02*
X157770000Y-54165000D01*
X157770000Y-56325000D02*
X157770000Y-56481000D01*
X160790000Y-153670000D02*
X160790000Y-149320000D01*
X160790000Y-149320000D02*
X155790000Y-149320000D01*
X155790000Y-149320000D02*
X155790000Y-153670000D01*
X162090000Y-147470000D02*
X162440000Y-147470000D01*
X162440000Y-147470000D02*
X162440000Y-145870000D01*
X162440000Y-145870000D02*
X163340000Y-145870000D01*
X163340000Y-145870000D02*
X163340000Y-153670000D01*
X163340000Y-153670000D02*
X153240000Y-153670000D01*
X153240000Y-153670000D02*
X153240000Y-145870000D01*
X153240000Y-145870000D02*
X154140000Y-145870000D01*
X154140000Y-145870000D02*
X154140000Y-147470000D01*
X154140000Y-147470000D02*
X154490000Y-147470000D01*
X163340000Y-147470000D02*
X162440000Y-147470000D01*
X153240000Y-147470000D02*
X154140000Y-147470000D01*
X162590000Y-149820000D02*
X162590000Y-151420000D01*
X162590000Y-151420000D02*
X161590000Y-151420000D01*
X161590000Y-151420000D02*
X161590000Y-149820000D01*
X161590000Y-149820000D02*
X162590000Y-149820000D01*
X153990000Y-149820000D02*
X153990000Y-151420000D01*
X153990000Y-151420000D02*
X154990000Y-151420000D01*
X154990000Y-151420000D02*
X154990000Y-149820000D01*
X154990000Y-149820000D02*
X153990000Y-149820000D01*
X161590000Y-151420000D02*
X161590000Y-153670000D01*
X162090000Y-151420000D02*
X162090000Y-153670000D01*
X162090000Y-147470000D02*
X162090000Y-146270000D01*
X170950000Y-153670000D02*
X170950000Y-149320000D01*
X170950000Y-149320000D02*
X165950000Y-149320000D01*
X165950000Y-149320000D02*
X165950000Y-153670000D01*
X172250000Y-147470000D02*
X172600000Y-147470000D01*
X172600000Y-147470000D02*
X172600000Y-145870000D01*
X172600000Y-145870000D02*
X173500000Y-145870000D01*
X173500000Y-145870000D02*
X173500000Y-153670000D01*
X173500000Y-153670000D02*
X163400000Y-153670000D01*
X163400000Y-153670000D02*
X163400000Y-145870000D01*
X163400000Y-145870000D02*
X164300000Y-145870000D01*
X164300000Y-145870000D02*
X164300000Y-147470000D01*
X164300000Y-147470000D02*
X164650000Y-147470000D01*
X173500000Y-147470000D02*
X172600000Y-147470000D01*
X163400000Y-147470000D02*
X164300000Y-147470000D01*
X172750000Y-149820000D02*
X172750000Y-151420000D01*
X172750000Y-151420000D02*
X171750000Y-151420000D01*
X171750000Y-151420000D02*
X171750000Y-149820000D01*
X171750000Y-149820000D02*
X172750000Y-149820000D01*
X164150000Y-149820000D02*
X164150000Y-151420000D01*
X164150000Y-151420000D02*
X165150000Y-151420000D01*
X165150000Y-151420000D02*
X165150000Y-149820000D01*
X165150000Y-149820000D02*
X164150000Y-149820000D01*
X171750000Y-151420000D02*
X171750000Y-153670000D01*
X172250000Y-151420000D02*
X172250000Y-153670000D01*
X172250000Y-147470000D02*
X172250000Y-146270000D01*
X181110000Y-153670000D02*
X181110000Y-149320000D01*
X181110000Y-149320000D02*
X176110000Y-149320000D01*
X176110000Y-149320000D02*
X176110000Y-153670000D01*
X182410000Y-147470000D02*
X182760000Y-147470000D01*
X182760000Y-147470000D02*
X182760000Y-145870000D01*
X182760000Y-145870000D02*
X183660000Y-145870000D01*
X183660000Y-145870000D02*
X183660000Y-153670000D01*
X183660000Y-153670000D02*
X173560000Y-153670000D01*
X173560000Y-153670000D02*
X173560000Y-145870000D01*
X173560000Y-145870000D02*
X174460000Y-145870000D01*
X174460000Y-145870000D02*
X174460000Y-147470000D01*
X174460000Y-147470000D02*
X174810000Y-147470000D01*
X183660000Y-147470000D02*
X182760000Y-147470000D01*
X173560000Y-147470000D02*
X174460000Y-147470000D01*
X182910000Y-149820000D02*
X182910000Y-151420000D01*
X182910000Y-151420000D02*
X181910000Y-151420000D01*
X181910000Y-151420000D02*
X181910000Y-149820000D01*
X181910000Y-149820000D02*
X182910000Y-149820000D01*
X174310000Y-149820000D02*
X174310000Y-151420000D01*
X174310000Y-151420000D02*
X175310000Y-151420000D01*
X175310000Y-151420000D02*
X175310000Y-149820000D01*
X175310000Y-149820000D02*
X174310000Y-149820000D01*
X181910000Y-151420000D02*
X181910000Y-153670000D01*
X182410000Y-151420000D02*
X182410000Y-153670000D01*
X182410000Y-147470000D02*
X182410000Y-146270000D01*
X150630000Y-153670000D02*
X150630000Y-149320000D01*
X150630000Y-149320000D02*
X145630000Y-149320000D01*
X145630000Y-149320000D02*
X145630000Y-153670000D01*
X151930000Y-147470000D02*
X152280000Y-147470000D01*
X152280000Y-147470000D02*
X152280000Y-145870000D01*
X152280000Y-145870000D02*
X153180000Y-145870000D01*
X153180000Y-145870000D02*
X153180000Y-153670000D01*
X153180000Y-153670000D02*
X143080000Y-153670000D01*
X143080000Y-153670000D02*
X143080000Y-145870000D01*
X143080000Y-145870000D02*
X143980000Y-145870000D01*
X143980000Y-145870000D02*
X143980000Y-147470000D01*
X143980000Y-147470000D02*
X144330000Y-147470000D01*
X153180000Y-147470000D02*
X152280000Y-147470000D01*
X143080000Y-147470000D02*
X143980000Y-147470000D01*
X152430000Y-149820000D02*
X152430000Y-151420000D01*
X152430000Y-151420000D02*
X151430000Y-151420000D01*
X151430000Y-151420000D02*
X151430000Y-149820000D01*
X151430000Y-149820000D02*
X152430000Y-149820000D01*
X143830000Y-149820000D02*
X143830000Y-151420000D01*
X143830000Y-151420000D02*
X144830000Y-151420000D01*
X144830000Y-151420000D02*
X144830000Y-149820000D01*
X144830000Y-149820000D02*
X143830000Y-149820000D01*
X151430000Y-151420000D02*
X151430000Y-153670000D01*
X151930000Y-151420000D02*
X151930000Y-153670000D01*
X151930000Y-147470000D02*
X151930000Y-146270000D01*
X123960000Y-153670000D02*
X123960000Y-149320000D01*
X123960000Y-149320000D02*
X120960000Y-149320000D01*
X120960000Y-149320000D02*
X120960000Y-153670000D01*
X125260000Y-147470000D02*
X125610000Y-147470000D01*
X125610000Y-147470000D02*
X125610000Y-145870000D01*
X125610000Y-145870000D02*
X126510000Y-145870000D01*
X126510000Y-145870000D02*
X126510000Y-153670000D01*
X126510000Y-153670000D02*
X118410000Y-153670000D01*
X118410000Y-153670000D02*
X118410000Y-145870000D01*
X118410000Y-145870000D02*
X119310000Y-145870000D01*
X119310000Y-145870000D02*
X119310000Y-147470000D01*
X119310000Y-147470000D02*
X119660000Y-147470000D01*
X126510000Y-147470000D02*
X125610000Y-147470000D01*
X118410000Y-147470000D02*
X119310000Y-147470000D01*
X125760000Y-149820000D02*
X125760000Y-151420000D01*
X125760000Y-151420000D02*
X124760000Y-151420000D01*
X124760000Y-151420000D02*
X124760000Y-149820000D01*
X124760000Y-149820000D02*
X125760000Y-149820000D01*
X119160000Y-149820000D02*
X119160000Y-151420000D01*
X119160000Y-151420000D02*
X120160000Y-151420000D01*
X120160000Y-151420000D02*
X120160000Y-149820000D01*
X120160000Y-149820000D02*
X119160000Y-149820000D01*
X124760000Y-151420000D02*
X124760000Y-153670000D01*
X125260000Y-151420000D02*
X125260000Y-153670000D01*
X125260000Y-147470000D02*
X125260000Y-146270000D01*
X118110000Y-132215000D02*
X122460000Y-132215000D01*
X122460000Y-132215000D02*
X122460000Y-129215000D01*
X122460000Y-129215000D02*
X118110000Y-129215000D01*
X124310000Y-133515000D02*
X124310000Y-133865000D01*
X124310000Y-133865000D02*
X125910000Y-133865000D01*
X125910000Y-133865000D02*
X125910000Y-134765000D01*
X125910000Y-134765000D02*
X118110000Y-134765000D01*
X118110000Y-134765000D02*
X118110000Y-126665000D01*
X118110000Y-126665000D02*
X125910000Y-126665000D01*
X125910000Y-126665000D02*
X125910000Y-127565000D01*
X125910000Y-127565000D02*
X124310000Y-127565000D01*
X124310000Y-127565000D02*
X124310000Y-127915000D01*
X124310000Y-134765000D02*
X124310000Y-133865000D01*
X124310000Y-126665000D02*
X124310000Y-127565000D01*
X121960000Y-134015000D02*
X120360000Y-134015000D01*
X120360000Y-134015000D02*
X120360000Y-133015000D01*
X120360000Y-133015000D02*
X121960000Y-133015000D01*
X121960000Y-133015000D02*
X121960000Y-134015000D01*
X121960000Y-127415000D02*
X120360000Y-127415000D01*
X120360000Y-127415000D02*
X120360000Y-128415000D01*
X120360000Y-128415000D02*
X121960000Y-128415000D01*
X121960000Y-128415000D02*
X121960000Y-127415000D01*
X120360000Y-133015000D02*
X118110000Y-133015000D01*
X120360000Y-133515000D02*
X118110000Y-133515000D01*
X124310000Y-133515000D02*
X125510000Y-133515000D01*
X130310000Y-153670000D02*
X130310000Y-149320000D01*
X130310000Y-149320000D02*
X129310000Y-149320000D01*
X129310000Y-149320000D02*
X129310000Y-153670000D01*
X131610000Y-147470000D02*
X131960000Y-147470000D01*
X131960000Y-147470000D02*
X131960000Y-145870000D01*
X131960000Y-145870000D02*
X132860000Y-145870000D01*
X132860000Y-145870000D02*
X132860000Y-153670000D01*
X132860000Y-153670000D02*
X126760000Y-153670000D01*
X126760000Y-153670000D02*
X126760000Y-145870000D01*
X126760000Y-145870000D02*
X127660000Y-145870000D01*
X127660000Y-145870000D02*
X127660000Y-147470000D01*
X127660000Y-147470000D02*
X128010000Y-147470000D01*
X132860000Y-147470000D02*
X131960000Y-147470000D01*
X126760000Y-147470000D02*
X127660000Y-147470000D01*
X132110000Y-149820000D02*
X132110000Y-151420000D01*
X132110000Y-151420000D02*
X131110000Y-151420000D01*
X131110000Y-151420000D02*
X131110000Y-149820000D01*
X131110000Y-149820000D02*
X132110000Y-149820000D01*
X127510000Y-149820000D02*
X127510000Y-151420000D01*
X127510000Y-151420000D02*
X128510000Y-151420000D01*
X128510000Y-151420000D02*
X128510000Y-149820000D01*
X128510000Y-149820000D02*
X127510000Y-149820000D01*
X131110000Y-151420000D02*
X131110000Y-153670000D01*
X131610000Y-151420000D02*
X131610000Y-153670000D01*
X131610000Y-147470000D02*
X131610000Y-146270000D01*
X118110000Y-115705000D02*
X122460000Y-115705000D01*
X122460000Y-115705000D02*
X122460000Y-114705000D01*
X122460000Y-114705000D02*
X118110000Y-114705000D01*
X124310000Y-117005000D02*
X124310000Y-117355000D01*
X124310000Y-117355000D02*
X125910000Y-117355000D01*
X125910000Y-117355000D02*
X125910000Y-118255000D01*
X125910000Y-118255000D02*
X118110000Y-118255000D01*
X118110000Y-118255000D02*
X118110000Y-112155000D01*
X118110000Y-112155000D02*
X125910000Y-112155000D01*
X125910000Y-112155000D02*
X125910000Y-113055000D01*
X125910000Y-113055000D02*
X124310000Y-113055000D01*
X124310000Y-113055000D02*
X124310000Y-113405000D01*
X124310000Y-118255000D02*
X124310000Y-117355000D01*
X124310000Y-112155000D02*
X124310000Y-113055000D01*
X121960000Y-117505000D02*
X120360000Y-117505000D01*
X120360000Y-117505000D02*
X120360000Y-116505000D01*
X120360000Y-116505000D02*
X121960000Y-116505000D01*
X121960000Y-116505000D02*
X121960000Y-117505000D01*
X121960000Y-112905000D02*
X120360000Y-112905000D01*
X120360000Y-112905000D02*
X120360000Y-113905000D01*
X120360000Y-113905000D02*
X121960000Y-113905000D01*
X121960000Y-113905000D02*
X121960000Y-112905000D01*
X120360000Y-116505000D02*
X118110000Y-116505000D01*
X120360000Y-117005000D02*
X118110000Y-117005000D01*
X124310000Y-117005000D02*
X125510000Y-117005000D01*
X118110000Y-123960000D02*
X122460000Y-123960000D01*
X122460000Y-123960000D02*
X122460000Y-120960000D01*
X122460000Y-120960000D02*
X118110000Y-120960000D01*
X124310000Y-125260000D02*
X124310000Y-125610000D01*
X124310000Y-125610000D02*
X125910000Y-125610000D01*
X125910000Y-125610000D02*
X125910000Y-126510000D01*
X125910000Y-126510000D02*
X118110000Y-126510000D01*
X118110000Y-126510000D02*
X118110000Y-118410000D01*
X118110000Y-118410000D02*
X125910000Y-118410000D01*
X125910000Y-118410000D02*
X125910000Y-119310000D01*
X125910000Y-119310000D02*
X124310000Y-119310000D01*
X124310000Y-119310000D02*
X124310000Y-119660000D01*
X124310000Y-126510000D02*
X124310000Y-125610000D01*
X124310000Y-118410000D02*
X124310000Y-119310000D01*
X121960000Y-125760000D02*
X120360000Y-125760000D01*
X120360000Y-125760000D02*
X120360000Y-124760000D01*
X120360000Y-124760000D02*
X121960000Y-124760000D01*
X121960000Y-124760000D02*
X121960000Y-125760000D01*
X121960000Y-119160000D02*
X120360000Y-119160000D01*
X120360000Y-119160000D02*
X120360000Y-120160000D01*
X120360000Y-120160000D02*
X121960000Y-120160000D01*
X121960000Y-120160000D02*
X121960000Y-119160000D01*
X120360000Y-124760000D02*
X118110000Y-124760000D01*
X120360000Y-125260000D02*
X118110000Y-125260000D01*
X124310000Y-125260000D02*
X125510000Y-125260000D01*
X140470000Y-153670000D02*
X140470000Y-149320000D01*
X140470000Y-149320000D02*
X135470000Y-149320000D01*
X135470000Y-149320000D02*
X135470000Y-153670000D01*
X141770000Y-147470000D02*
X142120000Y-147470000D01*
X142120000Y-147470000D02*
X142120000Y-145870000D01*
X142120000Y-145870000D02*
X143020000Y-145870000D01*
X143020000Y-145870000D02*
X143020000Y-153670000D01*
X143020000Y-153670000D02*
X132920000Y-153670000D01*
X132920000Y-153670000D02*
X132920000Y-145870000D01*
X132920000Y-145870000D02*
X133820000Y-145870000D01*
X133820000Y-145870000D02*
X133820000Y-147470000D01*
X133820000Y-147470000D02*
X134170000Y-147470000D01*
X143020000Y-147470000D02*
X142120000Y-147470000D01*
X132920000Y-147470000D02*
X133820000Y-147470000D01*
X142270000Y-149820000D02*
X142270000Y-151420000D01*
X142270000Y-151420000D02*
X141270000Y-151420000D01*
X141270000Y-151420000D02*
X141270000Y-149820000D01*
X141270000Y-149820000D02*
X142270000Y-149820000D01*
X133670000Y-149820000D02*
X133670000Y-151420000D01*
X133670000Y-151420000D02*
X134670000Y-151420000D01*
X134670000Y-151420000D02*
X134670000Y-149820000D01*
X134670000Y-149820000D02*
X133670000Y-149820000D01*
X141270000Y-151420000D02*
X141270000Y-153670000D01*
X141770000Y-151420000D02*
X141770000Y-153670000D01*
X141770000Y-147470000D02*
X141770000Y-146270000D01*
X118110000Y-142375000D02*
X122460000Y-142375000D01*
X122460000Y-142375000D02*
X122460000Y-137375000D01*
X122460000Y-137375000D02*
X118110000Y-137375000D01*
X124310000Y-143675000D02*
X124310000Y-144025000D01*
X124310000Y-144025000D02*
X125910000Y-144025000D01*
X125910000Y-144025000D02*
X125910000Y-144925000D01*
X125910000Y-144925000D02*
X118110000Y-144925000D01*
X118110000Y-144925000D02*
X118110000Y-134825000D01*
X118110000Y-134825000D02*
X125910000Y-134825000D01*
X125910000Y-134825000D02*
X125910000Y-135725000D01*
X125910000Y-135725000D02*
X124310000Y-135725000D01*
X124310000Y-135725000D02*
X124310000Y-136075000D01*
X124310000Y-144925000D02*
X124310000Y-144025000D01*
X124310000Y-134825000D02*
X124310000Y-135725000D01*
X121960000Y-144175000D02*
X120360000Y-144175000D01*
X120360000Y-144175000D02*
X120360000Y-143175000D01*
X120360000Y-143175000D02*
X121960000Y-143175000D01*
X121960000Y-143175000D02*
X121960000Y-144175000D01*
X121960000Y-135575000D02*
X120360000Y-135575000D01*
X120360000Y-135575000D02*
X120360000Y-136575000D01*
X120360000Y-136575000D02*
X121960000Y-136575000D01*
X121960000Y-136575000D02*
X121960000Y-135575000D01*
X120360000Y-143175000D02*
X118110000Y-143175000D01*
X120360000Y-143675000D02*
X118110000Y-143675000D01*
X124310000Y-143675000D02*
X125510000Y-143675000D01*
X151540000Y-57195000D02*
X153260000Y-57195000D01*
X153260000Y-57195000D02*
X153260000Y-60915000D01*
X153260000Y-60915000D02*
X151540000Y-60915000D01*
X151540000Y-60915000D02*
X151540000Y-57195000D01*
X152400000Y-56125000D02*
X152400000Y-57195000D01*
X152400000Y-61985000D02*
X152400000Y-60915000D01*
X178990000Y-66635000D02*
X178990000Y-76875000D01*
X183631000Y-66635000D02*
X183631000Y-76875000D01*
X178990000Y-66635000D02*
X183631000Y-66635000D01*
X178990000Y-76875000D02*
X183631000Y-76875000D01*
X180500000Y-66635000D02*
X180500000Y-76875000D01*
X178990000Y-69905000D02*
X180500000Y-69905000D01*
X178990000Y-73606000D02*
X180500000Y-73606000D01*
X178990000Y-83145000D02*
X178990000Y-93385000D01*
X183631000Y-83145000D02*
X183631000Y-93385000D01*
X178990000Y-83145000D02*
X183631000Y-83145000D01*
X178990000Y-93385000D02*
X183631000Y-93385000D01*
X180500000Y-83145000D02*
X180500000Y-93385000D01*
X178990000Y-86415000D02*
X180500000Y-86415000D01*
X178990000Y-90116000D02*
X180500000Y-90116000D01*
X178990000Y-99020000D02*
X178990000Y-109260000D01*
X183631000Y-99020000D02*
X183631000Y-109260000D01*
X178990000Y-99020000D02*
X183631000Y-99020000D01*
X178990000Y-109260000D02*
X183631000Y-109260000D01*
X180500000Y-99020000D02*
X180500000Y-109260000D01*
X178990000Y-102290000D02*
X180500000Y-102290000D01*
X178990000Y-105991000D02*
X180500000Y-105991000D01*
X187960000Y-135120000D02*
X183610000Y-135120000D01*
X183610000Y-135120000D02*
X183610000Y-136120000D01*
X183610000Y-136120000D02*
X187960000Y-136120000D01*
X181760000Y-133820000D02*
X181760000Y-133470000D01*
X181760000Y-133470000D02*
X180160000Y-133470000D01*
X180160000Y-133470000D02*
X180160000Y-132570000D01*
X180160000Y-132570000D02*
X187960000Y-132570000D01*
X187960000Y-132570000D02*
X187960000Y-138670000D01*
X187960000Y-138670000D02*
X180160000Y-138670000D01*
X180160000Y-138670000D02*
X180160000Y-137770000D01*
X180160000Y-137770000D02*
X181760000Y-137770000D01*
X181760000Y-137770000D02*
X181760000Y-137420000D01*
X181760000Y-132570000D02*
X181760000Y-133470000D01*
X181760000Y-138670000D02*
X181760000Y-137770000D01*
X184110000Y-133320000D02*
X185710000Y-133320000D01*
X185710000Y-133320000D02*
X185710000Y-134320000D01*
X185710000Y-134320000D02*
X184110000Y-134320000D01*
X184110000Y-134320000D02*
X184110000Y-133320000D01*
X184110000Y-137920000D02*
X185710000Y-137920000D01*
X185710000Y-137920000D02*
X185710000Y-136920000D01*
X185710000Y-136920000D02*
X184110000Y-136920000D01*
X184110000Y-136920000D02*
X184110000Y-137920000D01*
X185710000Y-134320000D02*
X187960000Y-134320000D01*
X185710000Y-133820000D02*
X187960000Y-133820000D01*
X181760000Y-133820000D02*
X180560000Y-133820000D01*
X187960000Y-141470000D02*
X183610000Y-141470000D01*
X183610000Y-141470000D02*
X183610000Y-142470000D01*
X183610000Y-142470000D02*
X187960000Y-142470000D01*
X181760000Y-140170000D02*
X181760000Y-139820000D01*
X181760000Y-139820000D02*
X180160000Y-139820000D01*
X180160000Y-139820000D02*
X180160000Y-138920000D01*
X180160000Y-138920000D02*
X187960000Y-138920000D01*
X187960000Y-138920000D02*
X187960000Y-145020000D01*
X187960000Y-145020000D02*
X180160000Y-145020000D01*
X180160000Y-145020000D02*
X180160000Y-144120000D01*
X180160000Y-144120000D02*
X181760000Y-144120000D01*
X181760000Y-144120000D02*
X181760000Y-143770000D01*
X181760000Y-138920000D02*
X181760000Y-139820000D01*
X181760000Y-145020000D02*
X181760000Y-144120000D01*
X184110000Y-139670000D02*
X185710000Y-139670000D01*
X185710000Y-139670000D02*
X185710000Y-140670000D01*
X185710000Y-140670000D02*
X184110000Y-140670000D01*
X184110000Y-140670000D02*
X184110000Y-139670000D01*
X184110000Y-144270000D02*
X185710000Y-144270000D01*
X185710000Y-144270000D02*
X185710000Y-143270000D01*
X185710000Y-143270000D02*
X184110000Y-143270000D01*
X184110000Y-143270000D02*
X184110000Y-144270000D01*
X185710000Y-140670000D02*
X187960000Y-140670000D01*
X185710000Y-140170000D02*
X187960000Y-140170000D01*
X181760000Y-140170000D02*
X180560000Y-140170000D01*
X186115000Y-126305000D02*
X186115000Y-128965000D01*
X183515000Y-126305000D02*
X186115000Y-126305000D01*
X183515000Y-128965000D02*
X186115000Y-128965000D01*
X183515000Y-126305000D02*
X183515000Y-128965000D01*
X182245000Y-126305000D02*
X180915000Y-126305000D01*
X180915000Y-126305000D02*
X180915000Y-127635000D01*
X186115000Y-123130000D02*
X186115000Y-125790000D01*
X183515000Y-123130000D02*
X186115000Y-123130000D01*
X183515000Y-125790000D02*
X186115000Y-125790000D01*
X183515000Y-123130000D02*
X183515000Y-125790000D01*
X182245000Y-123130000D02*
X180915000Y-123130000D01*
X180915000Y-123130000D02*
X180915000Y-124460000D01*
X173780000Y-105505000D02*
X166660000Y-105505000D01*
X173780000Y-109125000D02*
X166660000Y-109125000D01*
X173780000Y-105505000D02*
X173780000Y-109125000D01*
X166660000Y-105505000D02*
X166660000Y-109125000D01*
X173780000Y-109315000D02*
X166660000Y-109315000D01*
X173780000Y-112935000D02*
X166660000Y-112935000D01*
X173780000Y-109315000D02*
X173780000Y-112935000D01*
X166660000Y-109315000D02*
X166660000Y-112935000D01*
X164040000Y-62655000D02*
X171160000Y-62655000D01*
X164040000Y-60535000D02*
X171160000Y-60535000D01*
X164040000Y-62655000D02*
X164040000Y-60535000D01*
X171160000Y-62655000D02*
X171160000Y-60535000D01*
X164040000Y-84880000D02*
X171160000Y-84880000D01*
X164040000Y-82760000D02*
X171160000Y-82760000D01*
X164040000Y-84880000D02*
X164040000Y-82760000D01*
X171160000Y-84880000D02*
X171160000Y-82760000D01*
X154365000Y-128330000D02*
X151705000Y-128330000D01*
X154365000Y-115570000D02*
X154365000Y-128330000D01*
X151705000Y-115570000D02*
X151705000Y-128330000D01*
X154365000Y-115570000D02*
X151705000Y-115570000D01*
X154365000Y-114300000D02*
X154365000Y-112970000D01*
X154365000Y-112970000D02*
X153035000Y-112970000D01*
X158055000Y-131505000D02*
X158055000Y-128845000D01*
X170815000Y-131505000D02*
X158055000Y-131505000D01*
X170815000Y-128845000D02*
X158055000Y-128845000D01*
X170815000Y-131505000D02*
X170815000Y-128845000D01*
X172085000Y-131505000D02*
X173415000Y-131505000D01*
X173415000Y-131505000D02*
X173415000Y-130175000D01*
X163770000Y-69155000D02*
X168970000Y-69155000D01*
X163770000Y-71755000D02*
X163770000Y-69155000D01*
X168970000Y-74355000D02*
X168970000Y-69155000D01*
X163770000Y-71755000D02*
X166370000Y-71755000D01*
X166370000Y-71755000D02*
X166370000Y-74355000D01*
X166370000Y-74355000D02*
X168970000Y-74355000D01*
X163770000Y-73025000D02*
X163770000Y-74355000D01*
X163770000Y-74355000D02*
X165100000Y-74355000D01*
X133395000Y-125320000D02*
X133395000Y-123600000D01*
X133395000Y-123600000D02*
X137115000Y-123600000D01*
X137115000Y-123600000D02*
X137115000Y-125320000D01*
X137115000Y-125320000D02*
X133395000Y-125320000D01*
X132325000Y-124460000D02*
X133395000Y-124460000D01*
X138185000Y-124460000D02*
X137115000Y-124460000D01*
X133395000Y-127860000D02*
X133395000Y-126140000D01*
X133395000Y-126140000D02*
X137115000Y-126140000D01*
X137115000Y-126140000D02*
X137115000Y-127860000D01*
X137115000Y-127860000D02*
X133395000Y-127860000D01*
X132325000Y-127000000D02*
X133395000Y-127000000D01*
X138185000Y-127000000D02*
X137115000Y-127000000D01*
X171140000Y-91375000D02*
X170810000Y-91375000D01*
X170810000Y-91375000D02*
X170810000Y-100395000D01*
X170810000Y-100395000D02*
X171140000Y-100395000D01*
X174300000Y-91375000D02*
X174630000Y-91375000D01*
X174630000Y-91375000D02*
X174630000Y-100395000D01*
X174630000Y-100395000D02*
X174300000Y-100395000D01*
X170810000Y-92770000D02*
X174630000Y-92770000D01*
X171140000Y-69150000D02*
X170810000Y-69150000D01*
X170810000Y-69150000D02*
X170810000Y-78170000D01*
X170810000Y-78170000D02*
X171140000Y-78170000D01*
X174300000Y-69150000D02*
X174630000Y-69150000D01*
X174630000Y-69150000D02*
X174630000Y-78170000D01*
X174630000Y-78170000D02*
X174300000Y-78170000D01*
X170810000Y-70545000D02*
X174630000Y-70545000D01*
X148020000Y-83510000D02*
X148020000Y-83180000D01*
X148020000Y-83180000D02*
X139000000Y-83180000D01*
X139000000Y-83180000D02*
X139000000Y-83510000D01*
X148020000Y-86670000D02*
X148020000Y-87000000D01*
X148020000Y-87000000D02*
X139000000Y-87000000D01*
X139000000Y-87000000D02*
X139000000Y-86670000D01*
X146625000Y-83180000D02*
X146625000Y-87000000D01*
X148020000Y-68270000D02*
X148020000Y-67940000D01*
X148020000Y-67940000D02*
X139000000Y-67940000D01*
X139000000Y-67940000D02*
X139000000Y-68270000D01*
X148020000Y-71430000D02*
X148020000Y-71760000D01*
X148020000Y-71760000D02*
X139000000Y-71760000D01*
X139000000Y-71760000D02*
X139000000Y-71430000D01*
X146625000Y-67940000D02*
X146625000Y-71760000D01*
X148180000Y-107270000D02*
X146460000Y-107270000D01*
X146460000Y-107270000D02*
X146460000Y-103550000D01*
X146460000Y-103550000D02*
X148180000Y-103550000D01*
X148180000Y-103550000D02*
X148180000Y-107270000D01*
X147320000Y-108340000D02*
X147320000Y-107270000D01*
X147320000Y-102480000D02*
X147320000Y-103550000D01*
X148180000Y-97745000D02*
X146460000Y-97745000D01*
X146460000Y-97745000D02*
X146460000Y-94025000D01*
X146460000Y-94025000D02*
X148180000Y-94025000D01*
X148180000Y-94025000D02*
X148180000Y-97745000D01*
X147320000Y-98815000D02*
X147320000Y-97745000D01*
X147320000Y-92955000D02*
X147320000Y-94025000D01*
X171620000Y-62975000D02*
X171620000Y-65295000D01*
X171620000Y-65295000D02*
X166200000Y-65295000D01*
X166200000Y-65295000D02*
X166200000Y-62975000D01*
X166200000Y-62975000D02*
X171620000Y-62975000D01*
X171740000Y-64135000D02*
X171620000Y-64135000D01*
X166080000Y-64135000D02*
X166200000Y-64135000D01*
X171620000Y-85200000D02*
X171620000Y-87520000D01*
X171620000Y-87520000D02*
X166200000Y-87520000D01*
X166200000Y-87520000D02*
X166200000Y-85200000D01*
X166200000Y-85200000D02*
X171620000Y-85200000D01*
X171740000Y-86360000D02*
X171620000Y-86360000D01*
X166080000Y-86360000D02*
X166200000Y-86360000D01*
D13*
X160758095Y-55697381D02*
X160758095Y-54697381D01*
X160520000Y-54697381D01*
X160377142Y-54745000D01*
X160281904Y-54840238D01*
X160234285Y-54935476D01*
X160186666Y-55125952D01*
X160186666Y-55268810D01*
X160234285Y-55459286D01*
X160281904Y-55554524D01*
X160377142Y-55649762D01*
X160520000Y-55697381D01*
X160758095Y-55697381D01*
X159234285Y-55697381D02*
X159805714Y-55697381D01*
X159520000Y-55697381D02*
X159520000Y-54697381D01*
X159615238Y-54840238D01*
X159710476Y-54935476D01*
X159805714Y-54983095D01*
X158924523Y-149312381D02*
X158924523Y-150026667D01*
X158972143Y-150169524D01*
X159067381Y-150264762D01*
X159210238Y-150312381D01*
X159305476Y-150312381D01*
X157924523Y-150312381D02*
X158495952Y-150312381D01*
X158210238Y-150312381D02*
X158210238Y-149312381D01*
X158305476Y-149455238D01*
X158400714Y-149550476D01*
X158495952Y-149598095D01*
X157019761Y-149312381D02*
X157495952Y-149312381D01*
X157543571Y-149788571D01*
X157495952Y-149740952D01*
X157400714Y-149693333D01*
X157162618Y-149693333D01*
X157067380Y-149740952D01*
X157019761Y-149788571D01*
X156972142Y-149883810D01*
X156972142Y-150121905D01*
X157019761Y-150217143D01*
X157067380Y-150264762D01*
X157162618Y-150312381D01*
X157400714Y-150312381D01*
X157495952Y-150264762D01*
X157543571Y-150217143D01*
X169084523Y-149312381D02*
X169084523Y-150026667D01*
X169132143Y-150169524D01*
X169227381Y-150264762D01*
X169370238Y-150312381D01*
X169465476Y-150312381D01*
X168084523Y-150312381D02*
X168655952Y-150312381D01*
X168370238Y-150312381D02*
X168370238Y-149312381D01*
X168465476Y-149455238D01*
X168560714Y-149550476D01*
X168655952Y-149598095D01*
X167227380Y-149312381D02*
X167417857Y-149312381D01*
X167513095Y-149360000D01*
X167560714Y-149407619D01*
X167655952Y-149550476D01*
X167703571Y-149740952D01*
X167703571Y-150121905D01*
X167655952Y-150217143D01*
X167608333Y-150264762D01*
X167513095Y-150312381D01*
X167322618Y-150312381D01*
X167227380Y-150264762D01*
X167179761Y-150217143D01*
X167132142Y-150121905D01*
X167132142Y-149883810D01*
X167179761Y-149788571D01*
X167227380Y-149740952D01*
X167322618Y-149693333D01*
X167513095Y-149693333D01*
X167608333Y-149740952D01*
X167655952Y-149788571D01*
X167703571Y-149883810D01*
X179244523Y-149312381D02*
X179244523Y-150026667D01*
X179292143Y-150169524D01*
X179387381Y-150264762D01*
X179530238Y-150312381D01*
X179625476Y-150312381D01*
X178244523Y-150312381D02*
X178815952Y-150312381D01*
X178530238Y-150312381D02*
X178530238Y-149312381D01*
X178625476Y-149455238D01*
X178720714Y-149550476D01*
X178815952Y-149598095D01*
X177911190Y-149312381D02*
X177244523Y-149312381D01*
X177673095Y-150312381D01*
X148764523Y-149312381D02*
X148764523Y-150026667D01*
X148812143Y-150169524D01*
X148907381Y-150264762D01*
X149050238Y-150312381D01*
X149145476Y-150312381D01*
X147764523Y-150312381D02*
X148335952Y-150312381D01*
X148050238Y-150312381D02*
X148050238Y-149312381D01*
X148145476Y-149455238D01*
X148240714Y-149550476D01*
X148335952Y-149598095D01*
X147193095Y-149740952D02*
X147288333Y-149693333D01*
X147335952Y-149645714D01*
X147383571Y-149550476D01*
X147383571Y-149502857D01*
X147335952Y-149407619D01*
X147288333Y-149360000D01*
X147193095Y-149312381D01*
X147002618Y-149312381D01*
X146907380Y-149360000D01*
X146859761Y-149407619D01*
X146812142Y-149502857D01*
X146812142Y-149550476D01*
X146859761Y-149645714D01*
X146907380Y-149693333D01*
X147002618Y-149740952D01*
X147193095Y-149740952D01*
X147288333Y-149788571D01*
X147335952Y-149836190D01*
X147383571Y-149931429D01*
X147383571Y-150121905D01*
X147335952Y-150217143D01*
X147288333Y-150264762D01*
X147193095Y-150312381D01*
X147002618Y-150312381D01*
X146907380Y-150264762D01*
X146859761Y-150217143D01*
X146812142Y-150121905D01*
X146812142Y-149931429D01*
X146859761Y-149836190D01*
X146907380Y-149788571D01*
X147002618Y-149740952D01*
X123364523Y-149312381D02*
X123364523Y-150026667D01*
X123412143Y-150169524D01*
X123507381Y-150264762D01*
X123650238Y-150312381D01*
X123745476Y-150312381D01*
X122364523Y-150312381D02*
X122935952Y-150312381D01*
X122650238Y-150312381D02*
X122650238Y-149312381D01*
X122745476Y-149455238D01*
X122840714Y-149550476D01*
X122935952Y-149598095D01*
X121888333Y-150312381D02*
X121697857Y-150312381D01*
X121602618Y-150264762D01*
X121554999Y-150217143D01*
X121459761Y-150074286D01*
X121412142Y-149883810D01*
X121412142Y-149502857D01*
X121459761Y-149407619D01*
X121507380Y-149360000D01*
X121602618Y-149312381D01*
X121793095Y-149312381D01*
X121888333Y-149360000D01*
X121935952Y-149407619D01*
X121983571Y-149502857D01*
X121983571Y-149740952D01*
X121935952Y-149836190D01*
X121888333Y-149883810D01*
X121793095Y-149931429D01*
X121602618Y-149931429D01*
X121507380Y-149883810D01*
X121459761Y-149836190D01*
X121412142Y-149740952D01*
X121372381Y-130000477D02*
X122086667Y-130000477D01*
X122229524Y-129952857D01*
X122324762Y-129857619D01*
X122372381Y-129714762D01*
X122372381Y-129619524D01*
X121467619Y-130429048D02*
X121420000Y-130476667D01*
X121372381Y-130571905D01*
X121372381Y-130810001D01*
X121420000Y-130905239D01*
X121467619Y-130952858D01*
X121562857Y-131000477D01*
X121658095Y-131000477D01*
X121800952Y-130952858D01*
X122372381Y-130381429D01*
X122372381Y-131000477D01*
X121372381Y-131619524D02*
X121372381Y-131714763D01*
X121420000Y-131810001D01*
X121467619Y-131857620D01*
X121562857Y-131905239D01*
X121753333Y-131952858D01*
X121991429Y-131952858D01*
X122181905Y-131905239D01*
X122277143Y-131857620D01*
X122324762Y-131810001D01*
X122372381Y-131714763D01*
X122372381Y-131619524D01*
X122324762Y-131524286D01*
X122277143Y-131476667D01*
X122181905Y-131429048D01*
X121991429Y-131381429D01*
X121753333Y-131381429D01*
X121562857Y-131429048D01*
X121467619Y-131476667D01*
X121420000Y-131524286D01*
X121372381Y-131619524D01*
X130349523Y-149312381D02*
X130349523Y-150026667D01*
X130397143Y-150169524D01*
X130492381Y-150264762D01*
X130635238Y-150312381D01*
X130730476Y-150312381D01*
X129920952Y-149407619D02*
X129873333Y-149360000D01*
X129778095Y-149312381D01*
X129539999Y-149312381D01*
X129444761Y-149360000D01*
X129397142Y-149407619D01*
X129349523Y-149502857D01*
X129349523Y-149598095D01*
X129397142Y-149740952D01*
X129968571Y-150312381D01*
X129349523Y-150312381D01*
X128397142Y-150312381D02*
X128968571Y-150312381D01*
X128682857Y-150312381D02*
X128682857Y-149312381D01*
X128778095Y-149455238D01*
X128873333Y-149550476D01*
X128968571Y-149598095D01*
X121372381Y-114125477D02*
X122086667Y-114125477D01*
X122229524Y-114077857D01*
X122324762Y-113982619D01*
X122372381Y-113839762D01*
X122372381Y-113744524D01*
X121467619Y-114554048D02*
X121420000Y-114601667D01*
X121372381Y-114696905D01*
X121372381Y-114935001D01*
X121420000Y-115030239D01*
X121467619Y-115077858D01*
X121562857Y-115125477D01*
X121658095Y-115125477D01*
X121800952Y-115077858D01*
X122372381Y-114506429D01*
X122372381Y-115125477D01*
X121467619Y-115506429D02*
X121420000Y-115554048D01*
X121372381Y-115649286D01*
X121372381Y-115887382D01*
X121420000Y-115982620D01*
X121467619Y-116030239D01*
X121562857Y-116077858D01*
X121658095Y-116077858D01*
X121800952Y-116030239D01*
X122372381Y-115458810D01*
X122372381Y-116077858D01*
X121372381Y-121745477D02*
X122086667Y-121745477D01*
X122229524Y-121697857D01*
X122324762Y-121602619D01*
X122372381Y-121459762D01*
X122372381Y-121364524D01*
X121467619Y-122174048D02*
X121420000Y-122221667D01*
X121372381Y-122316905D01*
X121372381Y-122555001D01*
X121420000Y-122650239D01*
X121467619Y-122697858D01*
X121562857Y-122745477D01*
X121658095Y-122745477D01*
X121800952Y-122697858D01*
X122372381Y-122126429D01*
X122372381Y-122745477D01*
X121705714Y-123602620D02*
X122372381Y-123602620D01*
X121324762Y-123364524D02*
X122039048Y-123126429D01*
X122039048Y-123745477D01*
X138604523Y-149312381D02*
X138604523Y-150026667D01*
X138652143Y-150169524D01*
X138747381Y-150264762D01*
X138890238Y-150312381D01*
X138985476Y-150312381D01*
X138223571Y-149312381D02*
X137604523Y-149312381D01*
X137937857Y-149693333D01*
X137794999Y-149693333D01*
X137699761Y-149740952D01*
X137652142Y-149788571D01*
X137604523Y-149883810D01*
X137604523Y-150121905D01*
X137652142Y-150217143D01*
X137699761Y-150264762D01*
X137794999Y-150312381D01*
X138080714Y-150312381D01*
X138175952Y-150264762D01*
X138223571Y-150217143D01*
X136652142Y-150312381D02*
X137223571Y-150312381D01*
X136937857Y-150312381D02*
X136937857Y-149312381D01*
X137033095Y-149455238D01*
X137128333Y-149550476D01*
X137223571Y-149598095D01*
X121372381Y-138890477D02*
X122086667Y-138890477D01*
X122229524Y-138842857D01*
X122324762Y-138747619D01*
X122372381Y-138604762D01*
X122372381Y-138509524D01*
X121372381Y-139271429D02*
X121372381Y-139890477D01*
X121753333Y-139557143D01*
X121753333Y-139700001D01*
X121800952Y-139795239D01*
X121848571Y-139842858D01*
X121943810Y-139890477D01*
X122181905Y-139890477D01*
X122277143Y-139842858D01*
X122324762Y-139795239D01*
X122372381Y-139700001D01*
X122372381Y-139414286D01*
X122324762Y-139319048D01*
X122277143Y-139271429D01*
X121467619Y-140271429D02*
X121420000Y-140319048D01*
X121372381Y-140414286D01*
X121372381Y-140652382D01*
X121420000Y-140747620D01*
X121467619Y-140795239D01*
X121562857Y-140842858D01*
X121658095Y-140842858D01*
X121800952Y-140795239D01*
X122372381Y-140223810D01*
X122372381Y-140842858D01*
X152852381Y-58888334D02*
X152376190Y-58555000D01*
X152852381Y-58316905D02*
X151852381Y-58316905D01*
X151852381Y-58697858D01*
X151900000Y-58793096D01*
X151947619Y-58840715D01*
X152042857Y-58888334D01*
X152185714Y-58888334D01*
X152280952Y-58840715D01*
X152328571Y-58793096D01*
X152376190Y-58697858D01*
X152376190Y-58316905D01*
X152852381Y-59840715D02*
X152852381Y-59269286D01*
X152852381Y-59555000D02*
X151852381Y-59555000D01*
X151995238Y-59459762D01*
X152090476Y-59364524D01*
X152138095Y-59269286D01*
X184237381Y-70993095D02*
X185046905Y-70993095D01*
X185142143Y-71040714D01*
X185189762Y-71088333D01*
X185237381Y-71183571D01*
X185237381Y-71374048D01*
X185189762Y-71469286D01*
X185142143Y-71516905D01*
X185046905Y-71564524D01*
X184237381Y-71564524D01*
X185237381Y-72564524D02*
X185237381Y-71993095D01*
X185237381Y-72278809D02*
X184237381Y-72278809D01*
X184380238Y-72183571D01*
X184475476Y-72088333D01*
X184523095Y-71993095D01*
X177442381Y-87503095D02*
X178251905Y-87503095D01*
X178347143Y-87550714D01*
X178394762Y-87598333D01*
X178442381Y-87693571D01*
X178442381Y-87884048D01*
X178394762Y-87979286D01*
X178347143Y-88026905D01*
X178251905Y-88074524D01*
X177442381Y-88074524D01*
X177537619Y-88503095D02*
X177490000Y-88550714D01*
X177442381Y-88645952D01*
X177442381Y-88884048D01*
X177490000Y-88979286D01*
X177537619Y-89026905D01*
X177632857Y-89074524D01*
X177728095Y-89074524D01*
X177870952Y-89026905D01*
X178442381Y-88455476D01*
X178442381Y-89074524D01*
X177442381Y-103378095D02*
X178251905Y-103378095D01*
X178347143Y-103425714D01*
X178394762Y-103473333D01*
X178442381Y-103568571D01*
X178442381Y-103759048D01*
X178394762Y-103854286D01*
X178347143Y-103901905D01*
X178251905Y-103949524D01*
X177442381Y-103949524D01*
X177442381Y-104330476D02*
X177442381Y-104949524D01*
X177823333Y-104616190D01*
X177823333Y-104759048D01*
X177870952Y-104854286D01*
X177918571Y-104901905D01*
X178013810Y-104949524D01*
X178251905Y-104949524D01*
X178347143Y-104901905D01*
X178394762Y-104854286D01*
X178442381Y-104759048D01*
X178442381Y-104473333D01*
X178394762Y-104378095D01*
X178347143Y-104330476D01*
X183602381Y-135080477D02*
X184316667Y-135080477D01*
X184459524Y-135032857D01*
X184554762Y-134937619D01*
X184602381Y-134794762D01*
X184602381Y-134699524D01*
X183602381Y-135461429D02*
X183602381Y-136080477D01*
X183983333Y-135747143D01*
X183983333Y-135890001D01*
X184030952Y-135985239D01*
X184078571Y-136032858D01*
X184173810Y-136080477D01*
X184411905Y-136080477D01*
X184507143Y-136032858D01*
X184554762Y-135985239D01*
X184602381Y-135890001D01*
X184602381Y-135604286D01*
X184554762Y-135509048D01*
X184507143Y-135461429D01*
X183935714Y-136937620D02*
X184602381Y-136937620D01*
X183554762Y-136699524D02*
X184269048Y-136461429D01*
X184269048Y-137080477D01*
X183602381Y-141430477D02*
X184316667Y-141430477D01*
X184459524Y-141382857D01*
X184554762Y-141287619D01*
X184602381Y-141144762D01*
X184602381Y-141049524D01*
X183602381Y-141811429D02*
X183602381Y-142430477D01*
X183983333Y-142097143D01*
X183983333Y-142240001D01*
X184030952Y-142335239D01*
X184078571Y-142382858D01*
X184173810Y-142430477D01*
X184411905Y-142430477D01*
X184507143Y-142382858D01*
X184554762Y-142335239D01*
X184602381Y-142240001D01*
X184602381Y-141954286D01*
X184554762Y-141859048D01*
X184507143Y-141811429D01*
X183602381Y-143335239D02*
X183602381Y-142859048D01*
X184078571Y-142811429D01*
X184030952Y-142859048D01*
X183983333Y-142954286D01*
X183983333Y-143192382D01*
X184030952Y-143287620D01*
X184078571Y-143335239D01*
X184173810Y-143382858D01*
X184411905Y-143382858D01*
X184507143Y-143335239D01*
X184554762Y-143287620D01*
X184602381Y-143192382D01*
X184602381Y-142954286D01*
X184554762Y-142859048D01*
X184507143Y-142811429D01*
X182967381Y-126825477D02*
X183681667Y-126825477D01*
X183824524Y-126777857D01*
X183919762Y-126682619D01*
X183967381Y-126539762D01*
X183967381Y-126444524D01*
X182967381Y-127206429D02*
X182967381Y-127825477D01*
X183348333Y-127492143D01*
X183348333Y-127635001D01*
X183395952Y-127730239D01*
X183443571Y-127777858D01*
X183538810Y-127825477D01*
X183776905Y-127825477D01*
X183872143Y-127777858D01*
X183919762Y-127730239D01*
X183967381Y-127635001D01*
X183967381Y-127349286D01*
X183919762Y-127254048D01*
X183872143Y-127206429D01*
X182967381Y-128682620D02*
X182967381Y-128492143D01*
X183015000Y-128396905D01*
X183062619Y-128349286D01*
X183205476Y-128254048D01*
X183395952Y-128206429D01*
X183776905Y-128206429D01*
X183872143Y-128254048D01*
X183919762Y-128301667D01*
X183967381Y-128396905D01*
X183967381Y-128587382D01*
X183919762Y-128682620D01*
X183872143Y-128730239D01*
X183776905Y-128777858D01*
X183538810Y-128777858D01*
X183443571Y-128730239D01*
X183395952Y-128682620D01*
X183348333Y-128587382D01*
X183348333Y-128396905D01*
X183395952Y-128301667D01*
X183443571Y-128254048D01*
X183538810Y-128206429D01*
X182967381Y-123650477D02*
X183681667Y-123650477D01*
X183824524Y-123602857D01*
X183919762Y-123507619D01*
X183967381Y-123364762D01*
X183967381Y-123269524D01*
X182967381Y-124031429D02*
X182967381Y-124650477D01*
X183348333Y-124317143D01*
X183348333Y-124460001D01*
X183395952Y-124555239D01*
X183443571Y-124602858D01*
X183538810Y-124650477D01*
X183776905Y-124650477D01*
X183872143Y-124602858D01*
X183919762Y-124555239D01*
X183967381Y-124460001D01*
X183967381Y-124174286D01*
X183919762Y-124079048D01*
X183872143Y-124031429D01*
X182967381Y-124983810D02*
X182967381Y-125650477D01*
X183967381Y-125221905D01*
X170346666Y-107672143D02*
X170394285Y-107719762D01*
X170537142Y-107767381D01*
X170632380Y-107767381D01*
X170775238Y-107719762D01*
X170870476Y-107624524D01*
X170918095Y-107529286D01*
X170965714Y-107338810D01*
X170965714Y-107195952D01*
X170918095Y-107005476D01*
X170870476Y-106910238D01*
X170775238Y-106815000D01*
X170632380Y-106767381D01*
X170537142Y-106767381D01*
X170394285Y-106815000D01*
X170346666Y-106862619D01*
X170013333Y-106767381D02*
X169394285Y-106767381D01*
X169727619Y-107148333D01*
X169584761Y-107148333D01*
X169489523Y-107195952D01*
X169441904Y-107243571D01*
X169394285Y-107338810D01*
X169394285Y-107576905D01*
X169441904Y-107672143D01*
X169489523Y-107719762D01*
X169584761Y-107767381D01*
X169870476Y-107767381D01*
X169965714Y-107719762D01*
X170013333Y-107672143D01*
X170346666Y-111482143D02*
X170394285Y-111529762D01*
X170537142Y-111577381D01*
X170632380Y-111577381D01*
X170775238Y-111529762D01*
X170870476Y-111434524D01*
X170918095Y-111339286D01*
X170965714Y-111148810D01*
X170965714Y-111005952D01*
X170918095Y-110815476D01*
X170870476Y-110720238D01*
X170775238Y-110625000D01*
X170632380Y-110577381D01*
X170537142Y-110577381D01*
X170394285Y-110625000D01*
X170346666Y-110672619D01*
X169489523Y-110910714D02*
X169489523Y-111577381D01*
X169727619Y-110529762D02*
X169965714Y-111244048D01*
X169346666Y-111244048D01*
X167806666Y-61952143D02*
X167854285Y-61999762D01*
X167997142Y-62047381D01*
X168092380Y-62047381D01*
X168235238Y-61999762D01*
X168330476Y-61904524D01*
X168378095Y-61809286D01*
X168425714Y-61618810D01*
X168425714Y-61475952D01*
X168378095Y-61285476D01*
X168330476Y-61190238D01*
X168235238Y-61095000D01*
X168092380Y-61047381D01*
X167997142Y-61047381D01*
X167854285Y-61095000D01*
X167806666Y-61142619D01*
X166854285Y-62047381D02*
X167425714Y-62047381D01*
X167140000Y-62047381D02*
X167140000Y-61047381D01*
X167235238Y-61190238D01*
X167330476Y-61285476D01*
X167425714Y-61333095D01*
X167806666Y-84177143D02*
X167854285Y-84224762D01*
X167997142Y-84272381D01*
X168092380Y-84272381D01*
X168235238Y-84224762D01*
X168330476Y-84129524D01*
X168378095Y-84034286D01*
X168425714Y-83843810D01*
X168425714Y-83700952D01*
X168378095Y-83510476D01*
X168330476Y-83415238D01*
X168235238Y-83320000D01*
X168092380Y-83272381D01*
X167997142Y-83272381D01*
X167854285Y-83320000D01*
X167806666Y-83367619D01*
X167425714Y-83367619D02*
X167378095Y-83320000D01*
X167282857Y-83272381D01*
X167044761Y-83272381D01*
X166949523Y-83320000D01*
X166901904Y-83367619D01*
X166854285Y-83462857D01*
X166854285Y-83558095D01*
X166901904Y-83700952D01*
X167473333Y-84272381D01*
X166854285Y-84272381D01*
X153844523Y-111422381D02*
X153844523Y-112136667D01*
X153892143Y-112279524D01*
X153987381Y-112374762D01*
X154130238Y-112422381D01*
X154225476Y-112422381D01*
X153415952Y-111517619D02*
X153368333Y-111470000D01*
X153273095Y-111422381D01*
X153034999Y-111422381D01*
X152939761Y-111470000D01*
X152892142Y-111517619D01*
X152844523Y-111612857D01*
X152844523Y-111708095D01*
X152892142Y-111850952D01*
X153463571Y-112422381D01*
X152844523Y-112422381D01*
X152511190Y-111422381D02*
X151892142Y-111422381D01*
X152225476Y-111803333D01*
X152082618Y-111803333D01*
X151987380Y-111850952D01*
X151939761Y-111898571D01*
X151892142Y-111993810D01*
X151892142Y-112231905D01*
X151939761Y-112327143D01*
X151987380Y-112374762D01*
X152082618Y-112422381D01*
X152368333Y-112422381D01*
X152463571Y-112374762D01*
X152511190Y-112327143D01*
X173867381Y-129365477D02*
X174581667Y-129365477D01*
X174724524Y-129317857D01*
X174819762Y-129222619D01*
X174867381Y-129079762D01*
X174867381Y-128984524D01*
X173962619Y-129794048D02*
X173915000Y-129841667D01*
X173867381Y-129936905D01*
X173867381Y-130175001D01*
X173915000Y-130270239D01*
X173962619Y-130317858D01*
X174057857Y-130365477D01*
X174153095Y-130365477D01*
X174295952Y-130317858D01*
X174867381Y-129746429D01*
X174867381Y-130365477D01*
X173867381Y-131270239D02*
X173867381Y-130794048D01*
X174343571Y-130746429D01*
X174295952Y-130794048D01*
X174248333Y-130889286D01*
X174248333Y-131127382D01*
X174295952Y-131222620D01*
X174343571Y-131270239D01*
X174438810Y-131317858D01*
X174676905Y-131317858D01*
X174772143Y-131270239D01*
X174819762Y-131222620D01*
X174867381Y-131127382D01*
X174867381Y-130889286D01*
X174819762Y-130794048D01*
X174772143Y-130746429D01*
X167179523Y-74807381D02*
X167179523Y-75521667D01*
X167227143Y-75664524D01*
X167322381Y-75759762D01*
X167465238Y-75807381D01*
X167560476Y-75807381D01*
X166750952Y-74902619D02*
X166703333Y-74855000D01*
X166608095Y-74807381D01*
X166369999Y-74807381D01*
X166274761Y-74855000D01*
X166227142Y-74902619D01*
X166179523Y-74997857D01*
X166179523Y-75093095D01*
X166227142Y-75235952D01*
X166798571Y-75807381D01*
X166179523Y-75807381D01*
X165322380Y-74807381D02*
X165512857Y-74807381D01*
X165608095Y-74855000D01*
X165655714Y-74902619D01*
X165750952Y-75045476D01*
X165798571Y-75235952D01*
X165798571Y-75616905D01*
X165750952Y-75712143D01*
X165703333Y-75759762D01*
X165608095Y-75807381D01*
X165417618Y-75807381D01*
X165322380Y-75759762D01*
X165274761Y-75712143D01*
X165227142Y-75616905D01*
X165227142Y-75378810D01*
X165274761Y-75283571D01*
X165322380Y-75235952D01*
X165417618Y-75188333D01*
X165608095Y-75188333D01*
X165703333Y-75235952D01*
X165750952Y-75283571D01*
X165798571Y-75378810D01*
X135421666Y-124912381D02*
X135755000Y-124436190D01*
X135993095Y-124912381D02*
X135993095Y-123912381D01*
X135612142Y-123912381D01*
X135516904Y-123960000D01*
X135469285Y-124007619D01*
X135421666Y-124102857D01*
X135421666Y-124245714D01*
X135469285Y-124340952D01*
X135516904Y-124388571D01*
X135612142Y-124436190D01*
X135993095Y-124436190D01*
X135040714Y-124007619D02*
X134993095Y-123960000D01*
X134897857Y-123912381D01*
X134659761Y-123912381D01*
X134564523Y-123960000D01*
X134516904Y-124007619D01*
X134469285Y-124102857D01*
X134469285Y-124198095D01*
X134516904Y-124340952D01*
X135088333Y-124912381D01*
X134469285Y-124912381D01*
X135421666Y-127452381D02*
X135755000Y-126976190D01*
X135993095Y-127452381D02*
X135993095Y-126452381D01*
X135612142Y-126452381D01*
X135516904Y-126500000D01*
X135469285Y-126547619D01*
X135421666Y-126642857D01*
X135421666Y-126785714D01*
X135469285Y-126880952D01*
X135516904Y-126928571D01*
X135612142Y-126976190D01*
X135993095Y-126976190D01*
X135088333Y-126452381D02*
X134469285Y-126452381D01*
X134802619Y-126833333D01*
X134659761Y-126833333D01*
X134564523Y-126880952D01*
X134516904Y-126928571D01*
X134469285Y-127023810D01*
X134469285Y-127261905D01*
X134516904Y-127357143D01*
X134564523Y-127404762D01*
X134659761Y-127452381D01*
X134945476Y-127452381D01*
X135040714Y-127404762D01*
X135088333Y-127357143D01*
X170262381Y-95146905D02*
X169262381Y-95146905D01*
X169262381Y-95385000D01*
X169310000Y-95527858D01*
X169405238Y-95623096D01*
X169500476Y-95670715D01*
X169690952Y-95718334D01*
X169833810Y-95718334D01*
X170024286Y-95670715D01*
X170119524Y-95623096D01*
X170214762Y-95527858D01*
X170262381Y-95385000D01*
X170262381Y-95146905D01*
X169357619Y-96099286D02*
X169310000Y-96146905D01*
X169262381Y-96242143D01*
X169262381Y-96480239D01*
X169310000Y-96575477D01*
X169357619Y-96623096D01*
X169452857Y-96670715D01*
X169548095Y-96670715D01*
X169690952Y-96623096D01*
X170262381Y-96051667D01*
X170262381Y-96670715D01*
X173172381Y-72921905D02*
X172172381Y-72921905D01*
X172172381Y-73160000D01*
X172220000Y-73302858D01*
X172315238Y-73398096D01*
X172410476Y-73445715D01*
X172600952Y-73493334D01*
X172743810Y-73493334D01*
X172934286Y-73445715D01*
X173029524Y-73398096D01*
X173124762Y-73302858D01*
X173172381Y-73160000D01*
X173172381Y-72921905D01*
X172172381Y-73826667D02*
X172172381Y-74445715D01*
X172553333Y-74112381D01*
X172553333Y-74255239D01*
X172600952Y-74350477D01*
X172648571Y-74398096D01*
X172743810Y-74445715D01*
X172981905Y-74445715D01*
X173077143Y-74398096D01*
X173124762Y-74350477D01*
X173172381Y-74255239D01*
X173172381Y-73969524D01*
X173124762Y-73874286D01*
X173077143Y-73826667D01*
X144248095Y-85542381D02*
X144248095Y-84542381D01*
X144010000Y-84542381D01*
X143867142Y-84590000D01*
X143771904Y-84685238D01*
X143724285Y-84780476D01*
X143676666Y-84970952D01*
X143676666Y-85113810D01*
X143724285Y-85304286D01*
X143771904Y-85399524D01*
X143867142Y-85494762D01*
X144010000Y-85542381D01*
X144248095Y-85542381D01*
X142819523Y-84875714D02*
X142819523Y-85542381D01*
X143057619Y-84494762D02*
X143295714Y-85209048D01*
X142676666Y-85209048D01*
X144248095Y-70302381D02*
X144248095Y-69302381D01*
X144010000Y-69302381D01*
X143867142Y-69350000D01*
X143771904Y-69445238D01*
X143724285Y-69540476D01*
X143676666Y-69730952D01*
X143676666Y-69873810D01*
X143724285Y-70064286D01*
X143771904Y-70159524D01*
X143867142Y-70254762D01*
X144010000Y-70302381D01*
X144248095Y-70302381D01*
X142771904Y-69302381D02*
X143248095Y-69302381D01*
X143295714Y-69778571D01*
X143248095Y-69730952D01*
X143152857Y-69683333D01*
X142914761Y-69683333D01*
X142819523Y-69730952D01*
X142771904Y-69778571D01*
X142724285Y-69873810D01*
X142724285Y-70111905D01*
X142771904Y-70207143D01*
X142819523Y-70254762D01*
X142914761Y-70302381D01*
X143152857Y-70302381D01*
X143248095Y-70254762D01*
X143295714Y-70207143D01*
X147772381Y-105243334D02*
X147296190Y-104910000D01*
X147772381Y-104671905D02*
X146772381Y-104671905D01*
X146772381Y-105052858D01*
X146820000Y-105148096D01*
X146867619Y-105195715D01*
X146962857Y-105243334D01*
X147105714Y-105243334D01*
X147200952Y-105195715D01*
X147248571Y-105148096D01*
X147296190Y-105052858D01*
X147296190Y-104671905D01*
X147105714Y-106100477D02*
X147772381Y-106100477D01*
X146724762Y-105862381D02*
X147439048Y-105624286D01*
X147439048Y-106243334D01*
X147772381Y-95718334D02*
X147296190Y-95385000D01*
X147772381Y-95146905D02*
X146772381Y-95146905D01*
X146772381Y-95527858D01*
X146820000Y-95623096D01*
X146867619Y-95670715D01*
X146962857Y-95718334D01*
X147105714Y-95718334D01*
X147200952Y-95670715D01*
X147248571Y-95623096D01*
X147296190Y-95527858D01*
X147296190Y-95146905D01*
X146772381Y-96623096D02*
X146772381Y-96146905D01*
X147248571Y-96099286D01*
X147200952Y-96146905D01*
X147153333Y-96242143D01*
X147153333Y-96480239D01*
X147200952Y-96575477D01*
X147248571Y-96623096D01*
X147343810Y-96670715D01*
X147581905Y-96670715D01*
X147677143Y-96623096D01*
X147724762Y-96575477D01*
X147772381Y-96480239D01*
X147772381Y-96242143D01*
X147724762Y-96146905D01*
X147677143Y-96099286D01*
X169076666Y-64587381D02*
X169552857Y-64587381D01*
X169552857Y-63587381D01*
X168219523Y-64587381D02*
X168790952Y-64587381D01*
X168505238Y-64587381D02*
X168505238Y-63587381D01*
X168600476Y-63730238D01*
X168695714Y-63825476D01*
X168790952Y-63873095D01*
X169076666Y-86812381D02*
X169552857Y-86812381D01*
X169552857Y-85812381D01*
X168790952Y-85907619D02*
X168743333Y-85860000D01*
X168648095Y-85812381D01*
X168409999Y-85812381D01*
X168314761Y-85860000D01*
X168267142Y-85907619D01*
X168219523Y-86002857D01*
X168219523Y-86098095D01*
X168267142Y-86240952D01*
X168838571Y-86812381D01*
X168219523Y-86812381D01*
M02*
