M48
;DRILL file {KiCad 4.0.7} date 07/23/18 10:38:02
;FORMAT={-:-/ absolute / inch / decimal}
FMAT,2
INCH,TZ
T1C0.016
T2C0.028
T3C0.030
T4C0.031
T5C0.035
T6C0.039
T7C0.055
T8C0.102
T9C0.126
%
G90
G05
M72
T1
X4.75Y-5.55
X4.85Y-4.225
X5.175Y-5.55
X5.375Y-5.525
X5.4Y-5.125
X5.725Y-5.05
X5.825Y-5.075
X6.025Y-5.55
X6.05Y-4.25
X6.825Y-3.7
X6.825Y-4.475
X6.85Y-4.425
X6.85Y-5.7
X6.85Y-5.775
X7.125Y-4.375
T2
X5.175Y-4.9
X5.175Y-5.
X5.475Y-4.9
X5.475Y-5.
X5.8Y-3.625
X5.8Y-3.925
X5.8Y-4.
X5.8Y-4.3
X6.Y-2.175
X6.Y-2.475
T3
X4.7425Y-5.8
X4.8213Y-5.8
X4.9Y-4.4963
X4.9Y-4.575
X4.9Y-4.7425
X4.9Y-4.8213
X4.9Y-4.9
X4.9Y-5.0675
X4.9Y-5.1463
X4.9Y-5.225
X4.9Y-5.3888
X4.9Y-5.4675
X4.9Y-5.5463
X4.9Y-5.625
X4.9Y-5.8
X5.0713Y-5.8
X5.15Y-5.8
X5.3138Y-5.8
X5.3925Y-5.8
X5.4713Y-5.8
X5.55Y-5.8
X5.7138Y-5.8
X5.7925Y-5.8
X5.8713Y-5.8
X5.95Y-5.8
X6.1138Y-5.8
X6.1925Y-5.8
X6.2713Y-5.8
X6.35Y-5.8
X6.5138Y-5.8
X6.5925Y-5.8
X6.6713Y-5.8
X6.75Y-5.8
X6.9138Y-5.8
X6.9925Y-5.8
X7.0713Y-5.8
X7.15Y-5.3
X7.15Y-5.3787
X7.15Y-5.55
X7.15Y-5.6287
X7.15Y-5.8
T4
X6.5Y-2.425
X6.5Y-2.525
X6.5Y-3.3
X6.5Y-3.4
X6.6031Y-4.225
X6.6031Y-4.375
X6.6969Y-2.425
X6.6969Y-3.3
X6.8Y-2.525
X6.8Y-3.4
X6.8Y-4.225
X6.8Y-4.375
T5
X6.1Y-2.175
X6.2Y-2.175
T6
X5.Y-5.7
X5.075Y-2.55
X5.075Y-2.65
X5.075Y-2.75
X5.075Y-2.85
X5.075Y-2.95
X5.075Y-3.05
X5.075Y-3.15
X5.075Y-3.25
X5.075Y-3.4
X5.075Y-3.5
X5.075Y-3.6
X5.075Y-3.7
X5.075Y-3.8
X5.075Y-3.9
X5.075Y-4.
X5.075Y-4.1
X5.075Y-4.3
X5.075Y-4.4
X5.075Y-4.5
X5.075Y-4.6
X5.075Y-4.7
X5.075Y-4.8
X5.075Y-4.9
X5.075Y-5.
X5.075Y-5.3
X5.075Y-5.4
X5.1Y-5.7
X5.175Y-5.3
X5.175Y-5.4
X5.2Y-5.7
X5.275Y-5.3
X5.275Y-5.4
X5.325Y-5.7
X5.375Y-5.3
X5.375Y-5.4
X5.425Y-5.7
X5.475Y-5.3
X5.475Y-5.4
X5.525Y-5.7
X5.575Y-5.3
X5.575Y-5.4
X5.65Y-5.7
X5.675Y-5.3
X5.675Y-5.4
X5.75Y-5.7
X5.775Y-5.3
X5.775Y-5.4
X5.85Y-5.7
X5.875Y-5.3
X5.875Y-5.4
X5.975Y-5.3
X5.975Y-5.4
X5.975Y-5.7
X6.025Y-4.5
X6.025Y-4.6
X6.025Y-4.7
X6.025Y-4.8
X6.025Y-4.9
X6.025Y-5.
X6.075Y-5.3
X6.075Y-5.4
X6.075Y-5.7
X6.175Y-5.3
X6.175Y-5.4
X6.175Y-5.7
X6.275Y-5.125
X6.275Y-5.3
X6.275Y-5.4
X6.375Y-5.125
X6.375Y-5.3
X6.375Y-5.4
X6.475Y-5.125
X6.475Y-5.3
X6.475Y-5.4
X6.5Y-2.775
X6.5Y-2.875
X6.575Y-5.125
X6.575Y-5.3
X6.575Y-5.4
X6.6Y-2.775
X6.6Y-2.875
X6.675Y-5.125
X6.675Y-5.3
X6.675Y-5.4
X6.775Y-5.125
X6.775Y-5.3
X6.775Y-5.4
X6.975Y-2.7
X6.975Y-2.8
X6.975Y-2.9
X6.975Y-3.
X6.975Y-3.1
X6.975Y-3.2
X6.975Y-3.3
X6.975Y-3.4
X6.975Y-3.6
X6.975Y-3.7
X6.975Y-3.8
X6.975Y-3.9
X6.975Y-4.
X6.975Y-4.1
X6.975Y-4.2
X6.975Y-4.3
X6.975Y-4.5
X6.975Y-4.6
X6.975Y-4.7
X6.975Y-4.8
X6.975Y-4.9
X6.975Y-5.
X6.975Y-5.1
X6.975Y-5.2
X7.15Y-2.725
X7.15Y-2.825
X7.15Y-2.925
X7.15Y-3.375
X7.15Y-3.475
X7.15Y-3.575
X7.15Y-4.
X7.15Y-4.1
X7.15Y-4.2
X7.175Y-4.925
X7.175Y-5.025
X7.275Y-4.925
X7.275Y-5.025
T7
X5.45Y-2.75
X5.45Y-3.35
X5.85Y-2.75
X5.85Y-3.35
X6.8Y-2.7
X6.8Y-3.1
X6.8Y-3.575
X6.8Y-3.975
T8
X6.25Y-2.75
X6.25Y-3.05
X6.25Y-3.35
X6.25Y-3.65
X6.25Y-3.95
X6.25Y-4.25
T9
X5.075Y-2.2
X5.325Y-2.35
X5.325Y-4.65
X6.975Y-2.15
X6.975Y-5.4
X7.25Y-2.35
X7.25Y-4.65
T0
M30
