G04 #@! TF.FileFunction,Legend,Top*
%FSLAX46Y46*%
G04 Gerber Fmt 4.6, Leading zero omitted, Abs format (unit mm)*
G04 Created by KiCad (PCBNEW 4.0.7) date 03/23/18 18:32:17*
%MOMM*%
%LPD*%
G01*
G04 APERTURE LIST*
%ADD10C,0.100000*%
%ADD11C,0.300000*%
%ADD12C,0.125000*%
%ADD13C,0.120000*%
%ADD14C,0.150000*%
G04 APERTURE END LIST*
D10*
D11*
X125408571Y-82224286D02*
X125837143Y-83367143D01*
X126265714Y-82224286D01*
X125837143Y-81510000D02*
X125837143Y-80367143D01*
X125837143Y-79652857D02*
X125837143Y-78510000D01*
X125408571Y-77795714D02*
X125837143Y-76652857D01*
X126265714Y-77795714D01*
X122618572Y-76942143D02*
X123761429Y-76942143D01*
X122618572Y-83927143D02*
X123761429Y-83927143D01*
X120078572Y-76942143D02*
X121221429Y-76942143D01*
X120650000Y-77513571D02*
X120650000Y-76370714D01*
X120078572Y-83927143D02*
X121221429Y-83927143D01*
X120650000Y-84498571D02*
X120650000Y-83355714D01*
D12*
X120074763Y-85621071D02*
X120098572Y-85644881D01*
X120074763Y-85668690D01*
X120050953Y-85644881D01*
X120074763Y-85621071D01*
X120074763Y-85668690D01*
X120074763Y-85478214D02*
X120050953Y-85192500D01*
X120074763Y-85168690D01*
X120098572Y-85192500D01*
X120074763Y-85478214D01*
X120074763Y-85168690D01*
X120670000Y-85644881D02*
X120741429Y-85668690D01*
X120860476Y-85668690D01*
X120908095Y-85644881D01*
X120931905Y-85621071D01*
X120955714Y-85573452D01*
X120955714Y-85525833D01*
X120931905Y-85478214D01*
X120908095Y-85454405D01*
X120860476Y-85430595D01*
X120765238Y-85406786D01*
X120717619Y-85382976D01*
X120693810Y-85359167D01*
X120670000Y-85311548D01*
X120670000Y-85263929D01*
X120693810Y-85216310D01*
X120717619Y-85192500D01*
X120765238Y-85168690D01*
X120884286Y-85168690D01*
X120955714Y-85192500D01*
X121122381Y-85168690D02*
X121241428Y-85668690D01*
X121336666Y-85311548D01*
X121431904Y-85668690D01*
X121550952Y-85168690D01*
X121741429Y-85668690D02*
X121741429Y-85168690D01*
X121908095Y-85168690D02*
X122193809Y-85168690D01*
X122050952Y-85668690D02*
X122050952Y-85168690D01*
X122646190Y-85621071D02*
X122622380Y-85644881D01*
X122550952Y-85668690D01*
X122503333Y-85668690D01*
X122431904Y-85644881D01*
X122384285Y-85597262D01*
X122360476Y-85549643D01*
X122336666Y-85454405D01*
X122336666Y-85382976D01*
X122360476Y-85287738D01*
X122384285Y-85240119D01*
X122431904Y-85192500D01*
X122503333Y-85168690D01*
X122550952Y-85168690D01*
X122622380Y-85192500D01*
X122646190Y-85216310D01*
X122860476Y-85668690D02*
X122860476Y-85168690D01*
X122860476Y-85406786D02*
X123146190Y-85406786D01*
X123146190Y-85668690D02*
X123146190Y-85168690D01*
X123765238Y-85621071D02*
X123789047Y-85644881D01*
X123765238Y-85668690D01*
X123741428Y-85644881D01*
X123765238Y-85621071D01*
X123765238Y-85668690D01*
X123765238Y-85478214D02*
X123741428Y-85192500D01*
X123765238Y-85168690D01*
X123789047Y-85192500D01*
X123765238Y-85478214D01*
X123765238Y-85168690D01*
X119860477Y-86496071D02*
X119884286Y-86519881D01*
X119860477Y-86543690D01*
X119836667Y-86519881D01*
X119860477Y-86496071D01*
X119860477Y-86543690D01*
X119860477Y-86353214D02*
X119836667Y-86067500D01*
X119860477Y-86043690D01*
X119884286Y-86067500D01*
X119860477Y-86353214D01*
X119860477Y-86043690D01*
X120765238Y-86496071D02*
X120741428Y-86519881D01*
X120670000Y-86543690D01*
X120622381Y-86543690D01*
X120550952Y-86519881D01*
X120503333Y-86472262D01*
X120479524Y-86424643D01*
X120455714Y-86329405D01*
X120455714Y-86257976D01*
X120479524Y-86162738D01*
X120503333Y-86115119D01*
X120550952Y-86067500D01*
X120622381Y-86043690D01*
X120670000Y-86043690D01*
X120741428Y-86067500D01*
X120765238Y-86091310D01*
X120955714Y-86400833D02*
X121193809Y-86400833D01*
X120908095Y-86543690D02*
X121074762Y-86043690D01*
X121241428Y-86543690D01*
X121408095Y-86043690D02*
X121408095Y-86448452D01*
X121431904Y-86496071D01*
X121455714Y-86519881D01*
X121503333Y-86543690D01*
X121598571Y-86543690D01*
X121646190Y-86519881D01*
X121669999Y-86496071D01*
X121693809Y-86448452D01*
X121693809Y-86043690D01*
X121860476Y-86043690D02*
X122146190Y-86043690D01*
X122003333Y-86543690D02*
X122003333Y-86043690D01*
X122312857Y-86543690D02*
X122312857Y-86043690D01*
X122646190Y-86043690D02*
X122741428Y-86043690D01*
X122789047Y-86067500D01*
X122836666Y-86115119D01*
X122860475Y-86210357D01*
X122860475Y-86377024D01*
X122836666Y-86472262D01*
X122789047Y-86519881D01*
X122741428Y-86543690D01*
X122646190Y-86543690D01*
X122598571Y-86519881D01*
X122550952Y-86472262D01*
X122527142Y-86377024D01*
X122527142Y-86210357D01*
X122550952Y-86115119D01*
X122598571Y-86067500D01*
X122646190Y-86043690D01*
X123074762Y-86543690D02*
X123074762Y-86043690D01*
X123360476Y-86543690D01*
X123360476Y-86043690D01*
X123979524Y-86496071D02*
X124003333Y-86519881D01*
X123979524Y-86543690D01*
X123955714Y-86519881D01*
X123979524Y-86496071D01*
X123979524Y-86543690D01*
X123979524Y-86353214D02*
X123955714Y-86067500D01*
X123979524Y-86043690D01*
X124003333Y-86067500D01*
X123979524Y-86353214D01*
X123979524Y-86043690D01*
X119717620Y-87371071D02*
X119741429Y-87394881D01*
X119717620Y-87418690D01*
X119693810Y-87394881D01*
X119717620Y-87371071D01*
X119717620Y-87418690D01*
X119717620Y-87228214D02*
X119693810Y-86942500D01*
X119717620Y-86918690D01*
X119741429Y-86942500D01*
X119717620Y-87228214D01*
X119717620Y-86918690D01*
X120622381Y-87371071D02*
X120598571Y-87394881D01*
X120527143Y-87418690D01*
X120479524Y-87418690D01*
X120408095Y-87394881D01*
X120360476Y-87347262D01*
X120336667Y-87299643D01*
X120312857Y-87204405D01*
X120312857Y-87132976D01*
X120336667Y-87037738D01*
X120360476Y-86990119D01*
X120408095Y-86942500D01*
X120479524Y-86918690D01*
X120527143Y-86918690D01*
X120598571Y-86942500D01*
X120622381Y-86966310D01*
X120931905Y-86918690D02*
X121027143Y-86918690D01*
X121074762Y-86942500D01*
X121122381Y-86990119D01*
X121146190Y-87085357D01*
X121146190Y-87252024D01*
X121122381Y-87347262D01*
X121074762Y-87394881D01*
X121027143Y-87418690D01*
X120931905Y-87418690D01*
X120884286Y-87394881D01*
X120836667Y-87347262D01*
X120812857Y-87252024D01*
X120812857Y-87085357D01*
X120836667Y-86990119D01*
X120884286Y-86942500D01*
X120931905Y-86918690D01*
X121360477Y-87418690D02*
X121360477Y-86918690D01*
X121646191Y-87418690D01*
X121646191Y-86918690D01*
X121884287Y-87418690D02*
X121884287Y-86918690D01*
X122170001Y-87418690D01*
X122170001Y-86918690D01*
X122408097Y-87156786D02*
X122574763Y-87156786D01*
X122646192Y-87418690D02*
X122408097Y-87418690D01*
X122408097Y-86918690D01*
X122646192Y-86918690D01*
X123146192Y-87371071D02*
X123122382Y-87394881D01*
X123050954Y-87418690D01*
X123003335Y-87418690D01*
X122931906Y-87394881D01*
X122884287Y-87347262D01*
X122860478Y-87299643D01*
X122836668Y-87204405D01*
X122836668Y-87132976D01*
X122860478Y-87037738D01*
X122884287Y-86990119D01*
X122931906Y-86942500D01*
X123003335Y-86918690D01*
X123050954Y-86918690D01*
X123122382Y-86942500D01*
X123146192Y-86966310D01*
X123289049Y-86918690D02*
X123574763Y-86918690D01*
X123431906Y-87418690D02*
X123431906Y-86918690D01*
X124122382Y-87371071D02*
X124146191Y-87394881D01*
X124122382Y-87418690D01*
X124098572Y-87394881D01*
X124122382Y-87371071D01*
X124122382Y-87418690D01*
X124122382Y-87228214D02*
X124098572Y-86942500D01*
X124122382Y-86918690D01*
X124146191Y-86942500D01*
X124122382Y-87228214D01*
X124122382Y-86918690D01*
X119384287Y-88246071D02*
X119408096Y-88269881D01*
X119384287Y-88293690D01*
X119360477Y-88269881D01*
X119384287Y-88246071D01*
X119384287Y-88293690D01*
X119384287Y-88103214D02*
X119360477Y-87817500D01*
X119384287Y-87793690D01*
X119408096Y-87817500D01*
X119384287Y-88103214D01*
X119384287Y-87793690D01*
X120289048Y-88246071D02*
X120265238Y-88269881D01*
X120193810Y-88293690D01*
X120146191Y-88293690D01*
X120074762Y-88269881D01*
X120027143Y-88222262D01*
X120003334Y-88174643D01*
X119979524Y-88079405D01*
X119979524Y-88007976D01*
X120003334Y-87912738D01*
X120027143Y-87865119D01*
X120074762Y-87817500D01*
X120146191Y-87793690D01*
X120193810Y-87793690D01*
X120265238Y-87817500D01*
X120289048Y-87841310D01*
X120479524Y-88150833D02*
X120717619Y-88150833D01*
X120431905Y-88293690D02*
X120598572Y-87793690D01*
X120765238Y-88293690D01*
X121217619Y-88293690D02*
X121050952Y-88055595D01*
X120931905Y-88293690D02*
X120931905Y-87793690D01*
X121122381Y-87793690D01*
X121170000Y-87817500D01*
X121193809Y-87841310D01*
X121217619Y-87888929D01*
X121217619Y-87960357D01*
X121193809Y-88007976D01*
X121170000Y-88031786D01*
X121122381Y-88055595D01*
X120931905Y-88055595D01*
X121431905Y-88031786D02*
X121598571Y-88031786D01*
X121670000Y-88293690D02*
X121431905Y-88293690D01*
X121431905Y-87793690D01*
X121670000Y-87793690D01*
X122050952Y-88031786D02*
X121884286Y-88031786D01*
X121884286Y-88293690D02*
X121884286Y-87793690D01*
X122122381Y-87793690D01*
X122312857Y-87793690D02*
X122312857Y-88198452D01*
X122336666Y-88246071D01*
X122360476Y-88269881D01*
X122408095Y-88293690D01*
X122503333Y-88293690D01*
X122550952Y-88269881D01*
X122574761Y-88246071D01*
X122598571Y-88198452D01*
X122598571Y-87793690D01*
X123074762Y-88293690D02*
X122836667Y-88293690D01*
X122836667Y-87793690D01*
X123479524Y-88293690D02*
X123241429Y-88293690D01*
X123241429Y-87793690D01*
X123741429Y-88055595D02*
X123741429Y-88293690D01*
X123574762Y-87793690D02*
X123741429Y-88055595D01*
X123908095Y-87793690D01*
X124455714Y-88246071D02*
X124479523Y-88269881D01*
X124455714Y-88293690D01*
X124431904Y-88269881D01*
X124455714Y-88246071D01*
X124455714Y-88293690D01*
X124455714Y-88103214D02*
X124431904Y-87817500D01*
X124455714Y-87793690D01*
X124479523Y-87817500D01*
X124455714Y-88103214D01*
X124455714Y-87793690D01*
X120181905Y-88978214D02*
X120562857Y-88978214D01*
X120372381Y-89168690D02*
X120372381Y-88787738D01*
X121134286Y-88668690D02*
X121253333Y-89168690D01*
X121348571Y-88811548D01*
X121443809Y-89168690D01*
X121562857Y-88668690D01*
X121753334Y-89168690D02*
X121753334Y-88668690D01*
X121920000Y-88668690D02*
X122205714Y-88668690D01*
X122062857Y-89168690D02*
X122062857Y-88668690D01*
X122372381Y-89168690D02*
X122372381Y-88668690D01*
X122372381Y-88906786D02*
X122658095Y-88906786D01*
X122658095Y-89168690D02*
X122658095Y-88668690D01*
X123277143Y-88978214D02*
X123658095Y-88978214D01*
X123467619Y-89168690D02*
X123467619Y-88787738D01*
X120181905Y-89853214D02*
X120562857Y-89853214D01*
X121134286Y-89543690D02*
X121253333Y-90043690D01*
X121348571Y-89686548D01*
X121443809Y-90043690D01*
X121562857Y-89543690D01*
X121753334Y-90043690D02*
X121753334Y-89543690D01*
X121920000Y-89543690D02*
X122205714Y-89543690D01*
X122062857Y-90043690D02*
X122062857Y-89543690D01*
X122372381Y-90043690D02*
X122372381Y-89543690D01*
X122372381Y-89781786D02*
X122658095Y-89781786D01*
X122658095Y-90043690D02*
X122658095Y-89543690D01*
X123277143Y-89853214D02*
X123658095Y-89853214D01*
D11*
X152824643Y-70103928D02*
X152824643Y-68961071D01*
X153396071Y-69532500D02*
X152253214Y-69532500D01*
X152824643Y-77723928D02*
X152824643Y-76581071D01*
X152824643Y-85343928D02*
X152824643Y-84201071D01*
X153396071Y-84772500D02*
X152253214Y-84772500D01*
X152824643Y-92963928D02*
X152824643Y-91821071D01*
X126428572Y-68052143D02*
X127571429Y-68052143D01*
X126428572Y-63607143D02*
X127571429Y-63607143D01*
X127000000Y-64178571D02*
X127000000Y-63035714D01*
X152610357Y-101413214D02*
X152681786Y-101198928D01*
X152753214Y-101127500D01*
X152896071Y-101056071D01*
X153110357Y-101056071D01*
X153253214Y-101127500D01*
X153324643Y-101198928D01*
X153396071Y-101341786D01*
X153396071Y-101913214D01*
X151896071Y-101913214D01*
X151896071Y-101413214D01*
X151967500Y-101270357D01*
X152038929Y-101198928D01*
X152181786Y-101127500D01*
X152324643Y-101127500D01*
X152467500Y-101198928D01*
X152538929Y-101270357D01*
X152610357Y-101413214D01*
X152610357Y-101913214D01*
X152967500Y-100484643D02*
X152967500Y-99770357D01*
X153396071Y-100627500D02*
X151896071Y-100127500D01*
X153396071Y-99627500D01*
X151896071Y-99341786D02*
X151896071Y-98484643D01*
X153396071Y-98913214D02*
X151896071Y-98913214D01*
X152824643Y-97984643D02*
X152824643Y-96841786D01*
X152610357Y-109033214D02*
X152681786Y-108818928D01*
X152753214Y-108747500D01*
X152896071Y-108676071D01*
X153110357Y-108676071D01*
X153253214Y-108747500D01*
X153324643Y-108818928D01*
X153396071Y-108961786D01*
X153396071Y-109533214D01*
X151896071Y-109533214D01*
X151896071Y-109033214D01*
X151967500Y-108890357D01*
X152038929Y-108818928D01*
X152181786Y-108747500D01*
X152324643Y-108747500D01*
X152467500Y-108818928D01*
X152538929Y-108890357D01*
X152610357Y-109033214D01*
X152610357Y-109533214D01*
X152967500Y-108104643D02*
X152967500Y-107390357D01*
X153396071Y-108247500D02*
X151896071Y-107747500D01*
X153396071Y-107247500D01*
X151896071Y-106961786D02*
X151896071Y-106104643D01*
X153396071Y-106533214D02*
X151896071Y-106533214D01*
X152824643Y-105604643D02*
X152824643Y-104461786D01*
X153396071Y-105033215D02*
X152253214Y-105033215D01*
D13*
X154537665Y-58228608D02*
G75*
G03X157770000Y-58385516I1672335J1078608D01*
G01*
X154537665Y-56071392D02*
G75*
G02X157770000Y-55914484I1672335J-1078608D01*
G01*
X155168870Y-58229837D02*
G75*
G03X157250961Y-58230000I1041130J1079837D01*
G01*
X155168870Y-56070163D02*
G75*
G02X157250961Y-56070000I1041130J-1079837D01*
G01*
X157770000Y-58386000D02*
X157770000Y-58230000D01*
X157770000Y-56070000D02*
X157770000Y-55914000D01*
X160715000Y-150030000D02*
X152975000Y-150030000D01*
X152975000Y-150030000D02*
X152975000Y-152690000D01*
X152975000Y-152690000D02*
X160715000Y-152690000D01*
X160715000Y-152690000D02*
X160715000Y-150030000D01*
X159765000Y-152690000D02*
X159765000Y-158690000D01*
X159765000Y-158690000D02*
X159005000Y-158690000D01*
X159005000Y-158690000D02*
X159005000Y-152690000D01*
X159705000Y-152690000D02*
X159705000Y-158690000D01*
X159585000Y-152690000D02*
X159585000Y-158690000D01*
X159465000Y-152690000D02*
X159465000Y-158690000D01*
X159345000Y-152690000D02*
X159345000Y-158690000D01*
X159225000Y-152690000D02*
X159225000Y-158690000D01*
X159105000Y-152690000D02*
X159105000Y-158690000D01*
X159765000Y-149700000D02*
X159765000Y-150030000D01*
X159005000Y-149700000D02*
X159005000Y-150030000D01*
X158115000Y-150030000D02*
X158115000Y-152690000D01*
X157225000Y-152690000D02*
X157225000Y-158690000D01*
X157225000Y-158690000D02*
X156465000Y-158690000D01*
X156465000Y-158690000D02*
X156465000Y-152690000D01*
X157225000Y-149632929D02*
X157225000Y-150030000D01*
X156465000Y-149632929D02*
X156465000Y-150030000D01*
X155575000Y-150030000D02*
X155575000Y-152690000D01*
X154685000Y-152690000D02*
X154685000Y-158690000D01*
X154685000Y-158690000D02*
X153925000Y-158690000D01*
X153925000Y-158690000D02*
X153925000Y-152690000D01*
X154685000Y-149632929D02*
X154685000Y-150030000D01*
X153925000Y-149632929D02*
X153925000Y-150030000D01*
X159385000Y-147320000D02*
X160655000Y-147320000D01*
X160655000Y-147320000D02*
X160655000Y-148590000D01*
X151825000Y-150030000D02*
X144085000Y-150030000D01*
X144085000Y-150030000D02*
X144085000Y-152690000D01*
X144085000Y-152690000D02*
X151825000Y-152690000D01*
X151825000Y-152690000D02*
X151825000Y-150030000D01*
X150875000Y-152690000D02*
X150875000Y-158690000D01*
X150875000Y-158690000D02*
X150115000Y-158690000D01*
X150115000Y-158690000D02*
X150115000Y-152690000D01*
X150815000Y-152690000D02*
X150815000Y-158690000D01*
X150695000Y-152690000D02*
X150695000Y-158690000D01*
X150575000Y-152690000D02*
X150575000Y-158690000D01*
X150455000Y-152690000D02*
X150455000Y-158690000D01*
X150335000Y-152690000D02*
X150335000Y-158690000D01*
X150215000Y-152690000D02*
X150215000Y-158690000D01*
X150875000Y-149700000D02*
X150875000Y-150030000D01*
X150115000Y-149700000D02*
X150115000Y-150030000D01*
X149225000Y-150030000D02*
X149225000Y-152690000D01*
X148335000Y-152690000D02*
X148335000Y-158690000D01*
X148335000Y-158690000D02*
X147575000Y-158690000D01*
X147575000Y-158690000D02*
X147575000Y-152690000D01*
X148335000Y-149632929D02*
X148335000Y-150030000D01*
X147575000Y-149632929D02*
X147575000Y-150030000D01*
X146685000Y-150030000D02*
X146685000Y-152690000D01*
X145795000Y-152690000D02*
X145795000Y-158690000D01*
X145795000Y-158690000D02*
X145035000Y-158690000D01*
X145035000Y-158690000D02*
X145035000Y-152690000D01*
X145795000Y-149632929D02*
X145795000Y-150030000D01*
X145035000Y-149632929D02*
X145035000Y-150030000D01*
X150495000Y-147320000D02*
X151765000Y-147320000D01*
X151765000Y-147320000D02*
X151765000Y-148590000D01*
X142935000Y-150030000D02*
X135195000Y-150030000D01*
X135195000Y-150030000D02*
X135195000Y-152690000D01*
X135195000Y-152690000D02*
X142935000Y-152690000D01*
X142935000Y-152690000D02*
X142935000Y-150030000D01*
X141985000Y-152690000D02*
X141985000Y-158690000D01*
X141985000Y-158690000D02*
X141225000Y-158690000D01*
X141225000Y-158690000D02*
X141225000Y-152690000D01*
X141925000Y-152690000D02*
X141925000Y-158690000D01*
X141805000Y-152690000D02*
X141805000Y-158690000D01*
X141685000Y-152690000D02*
X141685000Y-158690000D01*
X141565000Y-152690000D02*
X141565000Y-158690000D01*
X141445000Y-152690000D02*
X141445000Y-158690000D01*
X141325000Y-152690000D02*
X141325000Y-158690000D01*
X141985000Y-149700000D02*
X141985000Y-150030000D01*
X141225000Y-149700000D02*
X141225000Y-150030000D01*
X140335000Y-150030000D02*
X140335000Y-152690000D01*
X139445000Y-152690000D02*
X139445000Y-158690000D01*
X139445000Y-158690000D02*
X138685000Y-158690000D01*
X138685000Y-158690000D02*
X138685000Y-152690000D01*
X139445000Y-149632929D02*
X139445000Y-150030000D01*
X138685000Y-149632929D02*
X138685000Y-150030000D01*
X137795000Y-150030000D02*
X137795000Y-152690000D01*
X136905000Y-152690000D02*
X136905000Y-158690000D01*
X136905000Y-158690000D02*
X136145000Y-158690000D01*
X136145000Y-158690000D02*
X136145000Y-152690000D01*
X136905000Y-149632929D02*
X136905000Y-150030000D01*
X136145000Y-149632929D02*
X136145000Y-150030000D01*
X141605000Y-147320000D02*
X142875000Y-147320000D01*
X142875000Y-147320000D02*
X142875000Y-148590000D01*
X134045000Y-150030000D02*
X126305000Y-150030000D01*
X126305000Y-150030000D02*
X126305000Y-152690000D01*
X126305000Y-152690000D02*
X134045000Y-152690000D01*
X134045000Y-152690000D02*
X134045000Y-150030000D01*
X133095000Y-152690000D02*
X133095000Y-158690000D01*
X133095000Y-158690000D02*
X132335000Y-158690000D01*
X132335000Y-158690000D02*
X132335000Y-152690000D01*
X133035000Y-152690000D02*
X133035000Y-158690000D01*
X132915000Y-152690000D02*
X132915000Y-158690000D01*
X132795000Y-152690000D02*
X132795000Y-158690000D01*
X132675000Y-152690000D02*
X132675000Y-158690000D01*
X132555000Y-152690000D02*
X132555000Y-158690000D01*
X132435000Y-152690000D02*
X132435000Y-158690000D01*
X133095000Y-149700000D02*
X133095000Y-150030000D01*
X132335000Y-149700000D02*
X132335000Y-150030000D01*
X131445000Y-150030000D02*
X131445000Y-152690000D01*
X130555000Y-152690000D02*
X130555000Y-158690000D01*
X130555000Y-158690000D02*
X129795000Y-158690000D01*
X129795000Y-158690000D02*
X129795000Y-152690000D01*
X130555000Y-149632929D02*
X130555000Y-150030000D01*
X129795000Y-149632929D02*
X129795000Y-150030000D01*
X128905000Y-150030000D02*
X128905000Y-152690000D01*
X128015000Y-152690000D02*
X128015000Y-158690000D01*
X128015000Y-158690000D02*
X127255000Y-158690000D01*
X127255000Y-158690000D02*
X127255000Y-152690000D01*
X128015000Y-149632929D02*
X128015000Y-150030000D01*
X127255000Y-149632929D02*
X127255000Y-150030000D01*
X132715000Y-147320000D02*
X133985000Y-147320000D01*
X133985000Y-147320000D02*
X133985000Y-148590000D01*
X118110000Y-116705000D02*
X122460000Y-116705000D01*
X122460000Y-116705000D02*
X122460000Y-121705000D01*
X122460000Y-121705000D02*
X118110000Y-121705000D01*
X124310000Y-115405000D02*
X124310000Y-115055000D01*
X124310000Y-115055000D02*
X125910000Y-115055000D01*
X125910000Y-115055000D02*
X125910000Y-114155000D01*
X125910000Y-114155000D02*
X118110000Y-114155000D01*
X118110000Y-114155000D02*
X118110000Y-124255000D01*
X118110000Y-124255000D02*
X125910000Y-124255000D01*
X125910000Y-124255000D02*
X125910000Y-123355000D01*
X125910000Y-123355000D02*
X124310000Y-123355000D01*
X124310000Y-123355000D02*
X124310000Y-123005000D01*
X124310000Y-114155000D02*
X124310000Y-115055000D01*
X124310000Y-124255000D02*
X124310000Y-123355000D01*
X121960000Y-114905000D02*
X120360000Y-114905000D01*
X120360000Y-114905000D02*
X120360000Y-115905000D01*
X120360000Y-115905000D02*
X121960000Y-115905000D01*
X121960000Y-115905000D02*
X121960000Y-114905000D01*
X121960000Y-123505000D02*
X120360000Y-123505000D01*
X120360000Y-123505000D02*
X120360000Y-122505000D01*
X120360000Y-122505000D02*
X121960000Y-122505000D01*
X121960000Y-122505000D02*
X121960000Y-123505000D01*
X120360000Y-115905000D02*
X118110000Y-115905000D01*
X120360000Y-115405000D02*
X118110000Y-115405000D01*
X124310000Y-115405000D02*
X125510000Y-115405000D01*
X118110000Y-127500000D02*
X122460000Y-127500000D01*
X122460000Y-127500000D02*
X122460000Y-132500000D01*
X122460000Y-132500000D02*
X118110000Y-132500000D01*
X124310000Y-126200000D02*
X124310000Y-125850000D01*
X124310000Y-125850000D02*
X125910000Y-125850000D01*
X125910000Y-125850000D02*
X125910000Y-124950000D01*
X125910000Y-124950000D02*
X118110000Y-124950000D01*
X118110000Y-124950000D02*
X118110000Y-135050000D01*
X118110000Y-135050000D02*
X125910000Y-135050000D01*
X125910000Y-135050000D02*
X125910000Y-134150000D01*
X125910000Y-134150000D02*
X124310000Y-134150000D01*
X124310000Y-134150000D02*
X124310000Y-133800000D01*
X124310000Y-124950000D02*
X124310000Y-125850000D01*
X124310000Y-135050000D02*
X124310000Y-134150000D01*
X121960000Y-125700000D02*
X120360000Y-125700000D01*
X120360000Y-125700000D02*
X120360000Y-126700000D01*
X120360000Y-126700000D02*
X121960000Y-126700000D01*
X121960000Y-126700000D02*
X121960000Y-125700000D01*
X121960000Y-134300000D02*
X120360000Y-134300000D01*
X120360000Y-134300000D02*
X120360000Y-133300000D01*
X120360000Y-133300000D02*
X121960000Y-133300000D01*
X121960000Y-133300000D02*
X121960000Y-134300000D01*
X120360000Y-126700000D02*
X118110000Y-126700000D01*
X120360000Y-126200000D02*
X118110000Y-126200000D01*
X124310000Y-126200000D02*
X125510000Y-126200000D01*
X118110000Y-107815000D02*
X122460000Y-107815000D01*
X122460000Y-107815000D02*
X122460000Y-110815000D01*
X122460000Y-110815000D02*
X118110000Y-110815000D01*
X124310000Y-106515000D02*
X124310000Y-106165000D01*
X124310000Y-106165000D02*
X125910000Y-106165000D01*
X125910000Y-106165000D02*
X125910000Y-105265000D01*
X125910000Y-105265000D02*
X118110000Y-105265000D01*
X118110000Y-105265000D02*
X118110000Y-113365000D01*
X118110000Y-113365000D02*
X125910000Y-113365000D01*
X125910000Y-113365000D02*
X125910000Y-112465000D01*
X125910000Y-112465000D02*
X124310000Y-112465000D01*
X124310000Y-112465000D02*
X124310000Y-112115000D01*
X124310000Y-105265000D02*
X124310000Y-106165000D01*
X124310000Y-113365000D02*
X124310000Y-112465000D01*
X121960000Y-106015000D02*
X120360000Y-106015000D01*
X120360000Y-106015000D02*
X120360000Y-107015000D01*
X120360000Y-107015000D02*
X121960000Y-107015000D01*
X121960000Y-107015000D02*
X121960000Y-106015000D01*
X121960000Y-112615000D02*
X120360000Y-112615000D01*
X120360000Y-112615000D02*
X120360000Y-111615000D01*
X120360000Y-111615000D02*
X121960000Y-111615000D01*
X121960000Y-111615000D02*
X121960000Y-112615000D01*
X120360000Y-107015000D02*
X118110000Y-107015000D01*
X120360000Y-106515000D02*
X118110000Y-106515000D01*
X124310000Y-106515000D02*
X125510000Y-106515000D01*
X118110000Y-93845000D02*
X122460000Y-93845000D01*
X122460000Y-93845000D02*
X122460000Y-94845000D01*
X122460000Y-94845000D02*
X118110000Y-94845000D01*
X124310000Y-92545000D02*
X124310000Y-92195000D01*
X124310000Y-92195000D02*
X125910000Y-92195000D01*
X125910000Y-92195000D02*
X125910000Y-91295000D01*
X125910000Y-91295000D02*
X118110000Y-91295000D01*
X118110000Y-91295000D02*
X118110000Y-97395000D01*
X118110000Y-97395000D02*
X125910000Y-97395000D01*
X125910000Y-97395000D02*
X125910000Y-96495000D01*
X125910000Y-96495000D02*
X124310000Y-96495000D01*
X124310000Y-96495000D02*
X124310000Y-96145000D01*
X124310000Y-91295000D02*
X124310000Y-92195000D01*
X124310000Y-97395000D02*
X124310000Y-96495000D01*
X121960000Y-92045000D02*
X120360000Y-92045000D01*
X120360000Y-92045000D02*
X120360000Y-93045000D01*
X120360000Y-93045000D02*
X121960000Y-93045000D01*
X121960000Y-93045000D02*
X121960000Y-92045000D01*
X121960000Y-96645000D02*
X120360000Y-96645000D01*
X120360000Y-96645000D02*
X120360000Y-95645000D01*
X120360000Y-95645000D02*
X121960000Y-95645000D01*
X121960000Y-95645000D02*
X121960000Y-96645000D01*
X120360000Y-93045000D02*
X118110000Y-93045000D01*
X120360000Y-92545000D02*
X118110000Y-92545000D01*
X124310000Y-92545000D02*
X125510000Y-92545000D01*
X118110000Y-100830000D02*
X122460000Y-100830000D01*
X122460000Y-100830000D02*
X122460000Y-101830000D01*
X122460000Y-101830000D02*
X118110000Y-101830000D01*
X124310000Y-99530000D02*
X124310000Y-99180000D01*
X124310000Y-99180000D02*
X125910000Y-99180000D01*
X125910000Y-99180000D02*
X125910000Y-98280000D01*
X125910000Y-98280000D02*
X118110000Y-98280000D01*
X118110000Y-98280000D02*
X118110000Y-104380000D01*
X118110000Y-104380000D02*
X125910000Y-104380000D01*
X125910000Y-104380000D02*
X125910000Y-103480000D01*
X125910000Y-103480000D02*
X124310000Y-103480000D01*
X124310000Y-103480000D02*
X124310000Y-103130000D01*
X124310000Y-98280000D02*
X124310000Y-99180000D01*
X124310000Y-104380000D02*
X124310000Y-103480000D01*
X121960000Y-99030000D02*
X120360000Y-99030000D01*
X120360000Y-99030000D02*
X120360000Y-100030000D01*
X120360000Y-100030000D02*
X121960000Y-100030000D01*
X121960000Y-100030000D02*
X121960000Y-99030000D01*
X121960000Y-103630000D02*
X120360000Y-103630000D01*
X120360000Y-103630000D02*
X120360000Y-102630000D01*
X120360000Y-102630000D02*
X121960000Y-102630000D01*
X121960000Y-102630000D02*
X121960000Y-103630000D01*
X120360000Y-100030000D02*
X118110000Y-100030000D01*
X120360000Y-99530000D02*
X118110000Y-99530000D01*
X124310000Y-99530000D02*
X125510000Y-99530000D01*
X118110000Y-138295000D02*
X122460000Y-138295000D01*
X122460000Y-138295000D02*
X122460000Y-143295000D01*
X122460000Y-143295000D02*
X118110000Y-143295000D01*
X124310000Y-136995000D02*
X124310000Y-136645000D01*
X124310000Y-136645000D02*
X125910000Y-136645000D01*
X125910000Y-136645000D02*
X125910000Y-135745000D01*
X125910000Y-135745000D02*
X118110000Y-135745000D01*
X118110000Y-135745000D02*
X118110000Y-145845000D01*
X118110000Y-145845000D02*
X125910000Y-145845000D01*
X125910000Y-145845000D02*
X125910000Y-144945000D01*
X125910000Y-144945000D02*
X124310000Y-144945000D01*
X124310000Y-144945000D02*
X124310000Y-144595000D01*
X124310000Y-135745000D02*
X124310000Y-136645000D01*
X124310000Y-145845000D02*
X124310000Y-144945000D01*
X121960000Y-136495000D02*
X120360000Y-136495000D01*
X120360000Y-136495000D02*
X120360000Y-137495000D01*
X120360000Y-137495000D02*
X121960000Y-137495000D01*
X121960000Y-137495000D02*
X121960000Y-136495000D01*
X121960000Y-145095000D02*
X120360000Y-145095000D01*
X120360000Y-145095000D02*
X120360000Y-144095000D01*
X120360000Y-144095000D02*
X121960000Y-144095000D01*
X121960000Y-144095000D02*
X121960000Y-145095000D01*
X120360000Y-137495000D02*
X118110000Y-137495000D01*
X120360000Y-136995000D02*
X118110000Y-136995000D01*
X124310000Y-136995000D02*
X125510000Y-136995000D01*
X156890000Y-60100000D02*
X156890000Y-61820000D01*
X156890000Y-61820000D02*
X160610000Y-61820000D01*
X160610000Y-61820000D02*
X160610000Y-60100000D01*
X160610000Y-60100000D02*
X156890000Y-60100000D01*
X155820000Y-60960000D02*
X156890000Y-60960000D01*
X161680000Y-60960000D02*
X160610000Y-60960000D01*
X175835000Y-110550000D02*
X178495000Y-110550000D01*
X175835000Y-92710000D02*
X175835000Y-110550000D01*
X178495000Y-92710000D02*
X178495000Y-110550000D01*
X175835000Y-92710000D02*
X178495000Y-92710000D01*
X175835000Y-91440000D02*
X175835000Y-90110000D01*
X175835000Y-90110000D02*
X177165000Y-90110000D01*
X175835000Y-133410000D02*
X178495000Y-133410000D01*
X175835000Y-115570000D02*
X175835000Y-133410000D01*
X178495000Y-115570000D02*
X178495000Y-133410000D01*
X175835000Y-115570000D02*
X178495000Y-115570000D01*
X175835000Y-114300000D02*
X175835000Y-112970000D01*
X175835000Y-112970000D02*
X177165000Y-112970000D01*
X173415000Y-138490000D02*
X173415000Y-133290000D01*
X130175000Y-138490000D02*
X173415000Y-138490000D01*
X127575000Y-133290000D02*
X173415000Y-133290000D01*
X130175000Y-138490000D02*
X130175000Y-135890000D01*
X130175000Y-135890000D02*
X127575000Y-135890000D01*
X127575000Y-135890000D02*
X127575000Y-133290000D01*
X128905000Y-138490000D02*
X127575000Y-138490000D01*
X127575000Y-138490000D02*
X127575000Y-137160000D01*
X127575000Y-83880000D02*
X130235000Y-83880000D01*
X127575000Y-66040000D02*
X127575000Y-83880000D01*
X130235000Y-66040000D02*
X130235000Y-83880000D01*
X127575000Y-66040000D02*
X130235000Y-66040000D01*
X127575000Y-64770000D02*
X127575000Y-63440000D01*
X127575000Y-63440000D02*
X128905000Y-63440000D01*
X127575000Y-105470000D02*
X130235000Y-105470000D01*
X127575000Y-87630000D02*
X127575000Y-105470000D01*
X130235000Y-87630000D02*
X130235000Y-105470000D01*
X127575000Y-87630000D02*
X130235000Y-87630000D01*
X127575000Y-86360000D02*
X127575000Y-85030000D01*
X127575000Y-85030000D02*
X128905000Y-85030000D01*
X127575000Y-128330000D02*
X130235000Y-128330000D01*
X127575000Y-110490000D02*
X127575000Y-128330000D01*
X130235000Y-110490000D02*
X130235000Y-128330000D01*
X127575000Y-110490000D02*
X130235000Y-110490000D01*
X127575000Y-109220000D02*
X127575000Y-107890000D01*
X127575000Y-107890000D02*
X128905000Y-107890000D01*
X173525000Y-65930000D02*
X173525000Y-63610000D01*
X173525000Y-63610000D02*
X168105000Y-63610000D01*
X168105000Y-63610000D02*
X168105000Y-65930000D01*
X168105000Y-65930000D02*
X173525000Y-65930000D01*
X173645000Y-64770000D02*
X173525000Y-64770000D01*
X167985000Y-64770000D02*
X168105000Y-64770000D01*
X170985000Y-97045000D02*
X170985000Y-94725000D01*
X170985000Y-94725000D02*
X165565000Y-94725000D01*
X165565000Y-94725000D02*
X165565000Y-97045000D01*
X165565000Y-97045000D02*
X170985000Y-97045000D01*
X171105000Y-95885000D02*
X170985000Y-95885000D01*
X165445000Y-95885000D02*
X165565000Y-95885000D01*
X118110000Y-72255000D02*
X122460000Y-72255000D01*
X122460000Y-72255000D02*
X122460000Y-73255000D01*
X122460000Y-73255000D02*
X118110000Y-73255000D01*
X124310000Y-70955000D02*
X124310000Y-70605000D01*
X124310000Y-70605000D02*
X125910000Y-70605000D01*
X125910000Y-70605000D02*
X125910000Y-69705000D01*
X125910000Y-69705000D02*
X118110000Y-69705000D01*
X118110000Y-69705000D02*
X118110000Y-75805000D01*
X118110000Y-75805000D02*
X125910000Y-75805000D01*
X125910000Y-75805000D02*
X125910000Y-74905000D01*
X125910000Y-74905000D02*
X124310000Y-74905000D01*
X124310000Y-74905000D02*
X124310000Y-74555000D01*
X124310000Y-69705000D02*
X124310000Y-70605000D01*
X124310000Y-75805000D02*
X124310000Y-74905000D01*
X121960000Y-70455000D02*
X120360000Y-70455000D01*
X120360000Y-70455000D02*
X120360000Y-71455000D01*
X120360000Y-71455000D02*
X121960000Y-71455000D01*
X121960000Y-71455000D02*
X121960000Y-70455000D01*
X121960000Y-75055000D02*
X120360000Y-75055000D01*
X120360000Y-75055000D02*
X120360000Y-74055000D01*
X120360000Y-74055000D02*
X121960000Y-74055000D01*
X121960000Y-74055000D02*
X121960000Y-75055000D01*
X120360000Y-71455000D02*
X118110000Y-71455000D01*
X120360000Y-70955000D02*
X118110000Y-70955000D01*
X124310000Y-70955000D02*
X125510000Y-70955000D01*
X118110000Y-65270000D02*
X122460000Y-65270000D01*
X122460000Y-65270000D02*
X122460000Y-66270000D01*
X122460000Y-66270000D02*
X118110000Y-66270000D01*
X124310000Y-63970000D02*
X124310000Y-63620000D01*
X124310000Y-63620000D02*
X125910000Y-63620000D01*
X125910000Y-63620000D02*
X125910000Y-62720000D01*
X125910000Y-62720000D02*
X118110000Y-62720000D01*
X118110000Y-62720000D02*
X118110000Y-68820000D01*
X118110000Y-68820000D02*
X125910000Y-68820000D01*
X125910000Y-68820000D02*
X125910000Y-67920000D01*
X125910000Y-67920000D02*
X124310000Y-67920000D01*
X124310000Y-67920000D02*
X124310000Y-67570000D01*
X124310000Y-62720000D02*
X124310000Y-63620000D01*
X124310000Y-68820000D02*
X124310000Y-67920000D01*
X121960000Y-63470000D02*
X120360000Y-63470000D01*
X120360000Y-63470000D02*
X120360000Y-64470000D01*
X120360000Y-64470000D02*
X121960000Y-64470000D01*
X121960000Y-64470000D02*
X121960000Y-63470000D01*
X121960000Y-68070000D02*
X120360000Y-68070000D01*
X120360000Y-68070000D02*
X120360000Y-67070000D01*
X120360000Y-67070000D02*
X121960000Y-67070000D01*
X121960000Y-67070000D02*
X121960000Y-68070000D01*
X120360000Y-64470000D02*
X118110000Y-64470000D01*
X120360000Y-63970000D02*
X118110000Y-63970000D01*
X124310000Y-63970000D02*
X125510000Y-63970000D01*
X124520000Y-83245000D02*
X124520000Y-80585000D01*
X121920000Y-83245000D02*
X124520000Y-83245000D01*
X121920000Y-80585000D02*
X124520000Y-80585000D01*
X121920000Y-83245000D02*
X121920000Y-80585000D01*
X120650000Y-83245000D02*
X119320000Y-83245000D01*
X119320000Y-83245000D02*
X119320000Y-81915000D01*
X124520000Y-80705000D02*
X124520000Y-78045000D01*
X121920000Y-80705000D02*
X124520000Y-80705000D01*
X121920000Y-78045000D02*
X124520000Y-78045000D01*
X121920000Y-80705000D02*
X121920000Y-78045000D01*
X120650000Y-80705000D02*
X119320000Y-80705000D01*
X119320000Y-80705000D02*
X119320000Y-79375000D01*
X175835000Y-87690000D02*
X178495000Y-87690000D01*
X175835000Y-69850000D02*
X175835000Y-87690000D01*
X178495000Y-69850000D02*
X178495000Y-87690000D01*
X175835000Y-69850000D02*
X178495000Y-69850000D01*
X175835000Y-68580000D02*
X175835000Y-67250000D01*
X175835000Y-67250000D02*
X177165000Y-67250000D01*
X173780000Y-109125000D02*
X166660000Y-109125000D01*
X173780000Y-105505000D02*
X166660000Y-105505000D01*
X173780000Y-109125000D02*
X173780000Y-105505000D01*
X166660000Y-109125000D02*
X166660000Y-105505000D01*
X173780000Y-112935000D02*
X166660000Y-112935000D01*
X173780000Y-109315000D02*
X166660000Y-109315000D01*
X173780000Y-112935000D02*
X173780000Y-109315000D01*
X166660000Y-112935000D02*
X166660000Y-109315000D01*
X165945000Y-60535000D02*
X173065000Y-60535000D01*
X165945000Y-62655000D02*
X173065000Y-62655000D01*
X165945000Y-60535000D02*
X165945000Y-62655000D01*
X173065000Y-60535000D02*
X173065000Y-62655000D01*
X165945000Y-80855000D02*
X173065000Y-80855000D01*
X165945000Y-82975000D02*
X173065000Y-82975000D01*
X165945000Y-80855000D02*
X165945000Y-82975000D01*
X173065000Y-80855000D02*
X173065000Y-82975000D01*
X133395000Y-123600000D02*
X133395000Y-125320000D01*
X133395000Y-125320000D02*
X137115000Y-125320000D01*
X137115000Y-125320000D02*
X137115000Y-123600000D01*
X137115000Y-123600000D02*
X133395000Y-123600000D01*
X132325000Y-124460000D02*
X133395000Y-124460000D01*
X138185000Y-124460000D02*
X137115000Y-124460000D01*
X133395000Y-126140000D02*
X133395000Y-127860000D01*
X133395000Y-127860000D02*
X137115000Y-127860000D01*
X137115000Y-127860000D02*
X137115000Y-126140000D01*
X137115000Y-126140000D02*
X133395000Y-126140000D01*
X132325000Y-127000000D02*
X133395000Y-127000000D01*
X138185000Y-127000000D02*
X137115000Y-127000000D01*
D14*
X159281905Y-57602381D02*
X159281905Y-56602381D01*
X159520000Y-56602381D01*
X159662858Y-56650000D01*
X159758096Y-56745238D01*
X159805715Y-56840476D01*
X159853334Y-57030952D01*
X159853334Y-57173810D01*
X159805715Y-57364286D01*
X159758096Y-57459524D01*
X159662858Y-57554762D01*
X159520000Y-57602381D01*
X159281905Y-57602381D01*
X160805715Y-57602381D02*
X160234286Y-57602381D01*
X160520000Y-57602381D02*
X160520000Y-56602381D01*
X160424762Y-56745238D01*
X160329524Y-56840476D01*
X160234286Y-56888095D01*
X156297381Y-146224523D02*
X157011667Y-146224523D01*
X157154524Y-146272143D01*
X157249762Y-146367381D01*
X157297381Y-146510238D01*
X157297381Y-146605476D01*
X157297381Y-145224523D02*
X157297381Y-145795952D01*
X157297381Y-145510238D02*
X156297381Y-145510238D01*
X156440238Y-145605476D01*
X156535476Y-145700714D01*
X156583095Y-145795952D01*
X157297381Y-144272142D02*
X157297381Y-144843571D01*
X157297381Y-144557857D02*
X156297381Y-144557857D01*
X156440238Y-144653095D01*
X156535476Y-144748333D01*
X156583095Y-144843571D01*
X147407381Y-146224523D02*
X148121667Y-146224523D01*
X148264524Y-146272143D01*
X148359762Y-146367381D01*
X148407381Y-146510238D01*
X148407381Y-146605476D01*
X148407381Y-145224523D02*
X148407381Y-145795952D01*
X148407381Y-145510238D02*
X147407381Y-145510238D01*
X147550238Y-145605476D01*
X147645476Y-145700714D01*
X147693095Y-145795952D01*
X147502619Y-144843571D02*
X147455000Y-144795952D01*
X147407381Y-144700714D01*
X147407381Y-144462618D01*
X147455000Y-144367380D01*
X147502619Y-144319761D01*
X147597857Y-144272142D01*
X147693095Y-144272142D01*
X147835952Y-144319761D01*
X148407381Y-144891190D01*
X148407381Y-144272142D01*
X138517381Y-146224523D02*
X139231667Y-146224523D01*
X139374524Y-146272143D01*
X139469762Y-146367381D01*
X139517381Y-146510238D01*
X139517381Y-146605476D01*
X139517381Y-145224523D02*
X139517381Y-145795952D01*
X139517381Y-145510238D02*
X138517381Y-145510238D01*
X138660238Y-145605476D01*
X138755476Y-145700714D01*
X138803095Y-145795952D01*
X138517381Y-144891190D02*
X138517381Y-144272142D01*
X138898333Y-144605476D01*
X138898333Y-144462618D01*
X138945952Y-144367380D01*
X138993571Y-144319761D01*
X139088810Y-144272142D01*
X139326905Y-144272142D01*
X139422143Y-144319761D01*
X139469762Y-144367380D01*
X139517381Y-144462618D01*
X139517381Y-144748333D01*
X139469762Y-144843571D01*
X139422143Y-144891190D01*
X130262381Y-146224523D02*
X130976667Y-146224523D01*
X131119524Y-146272143D01*
X131214762Y-146367381D01*
X131262381Y-146510238D01*
X131262381Y-146605476D01*
X131262381Y-145224523D02*
X131262381Y-145795952D01*
X131262381Y-145510238D02*
X130262381Y-145510238D01*
X130405238Y-145605476D01*
X130500476Y-145700714D01*
X130548095Y-145795952D01*
X130595714Y-144367380D02*
X131262381Y-144367380D01*
X130214762Y-144605476D02*
X130929048Y-144843571D01*
X130929048Y-144224523D01*
X126362381Y-118514523D02*
X127076667Y-118514523D01*
X127219524Y-118562143D01*
X127314762Y-118657381D01*
X127362381Y-118800238D01*
X127362381Y-118895476D01*
X127362381Y-117514523D02*
X127362381Y-118085952D01*
X127362381Y-117800238D02*
X126362381Y-117800238D01*
X126505238Y-117895476D01*
X126600476Y-117990714D01*
X126648095Y-118085952D01*
X126362381Y-117181190D02*
X126362381Y-116514523D01*
X127362381Y-116943095D01*
X126362381Y-129309523D02*
X127076667Y-129309523D01*
X127219524Y-129357143D01*
X127314762Y-129452381D01*
X127362381Y-129595238D01*
X127362381Y-129690476D01*
X127362381Y-128309523D02*
X127362381Y-128880952D01*
X127362381Y-128595238D02*
X126362381Y-128595238D01*
X126505238Y-128690476D01*
X126600476Y-128785714D01*
X126648095Y-128880952D01*
X126790952Y-127738095D02*
X126743333Y-127833333D01*
X126695714Y-127880952D01*
X126600476Y-127928571D01*
X126552857Y-127928571D01*
X126457619Y-127880952D01*
X126410000Y-127833333D01*
X126362381Y-127738095D01*
X126362381Y-127547618D01*
X126410000Y-127452380D01*
X126457619Y-127404761D01*
X126552857Y-127357142D01*
X126600476Y-127357142D01*
X126695714Y-127404761D01*
X126743333Y-127452380D01*
X126790952Y-127547618D01*
X126790952Y-127738095D01*
X126838571Y-127833333D01*
X126886190Y-127880952D01*
X126981429Y-127928571D01*
X127171905Y-127928571D01*
X127267143Y-127880952D01*
X127314762Y-127833333D01*
X127362381Y-127738095D01*
X127362381Y-127547618D01*
X127314762Y-127452380D01*
X127267143Y-127404761D01*
X127171905Y-127357142D01*
X126981429Y-127357142D01*
X126886190Y-127404761D01*
X126838571Y-127452380D01*
X126790952Y-127547618D01*
X126362381Y-109624523D02*
X127076667Y-109624523D01*
X127219524Y-109672143D01*
X127314762Y-109767381D01*
X127362381Y-109910238D01*
X127362381Y-110005476D01*
X126457619Y-109195952D02*
X126410000Y-109148333D01*
X126362381Y-109053095D01*
X126362381Y-108814999D01*
X126410000Y-108719761D01*
X126457619Y-108672142D01*
X126552857Y-108624523D01*
X126648095Y-108624523D01*
X126790952Y-108672142D01*
X127362381Y-109243571D01*
X127362381Y-108624523D01*
X126362381Y-108005476D02*
X126362381Y-107910237D01*
X126410000Y-107814999D01*
X126457619Y-107767380D01*
X126552857Y-107719761D01*
X126743333Y-107672142D01*
X126981429Y-107672142D01*
X127171905Y-107719761D01*
X127267143Y-107767380D01*
X127314762Y-107814999D01*
X127362381Y-107910237D01*
X127362381Y-108005476D01*
X127314762Y-108100714D01*
X127267143Y-108148333D01*
X127171905Y-108195952D01*
X126981429Y-108243571D01*
X126743333Y-108243571D01*
X126552857Y-108195952D01*
X126457619Y-108148333D01*
X126410000Y-108100714D01*
X126362381Y-108005476D01*
X126362381Y-95654523D02*
X127076667Y-95654523D01*
X127219524Y-95702143D01*
X127314762Y-95797381D01*
X127362381Y-95940238D01*
X127362381Y-96035476D01*
X126457619Y-95225952D02*
X126410000Y-95178333D01*
X126362381Y-95083095D01*
X126362381Y-94844999D01*
X126410000Y-94749761D01*
X126457619Y-94702142D01*
X126552857Y-94654523D01*
X126648095Y-94654523D01*
X126790952Y-94702142D01*
X127362381Y-95273571D01*
X127362381Y-94654523D01*
X127362381Y-93702142D02*
X127362381Y-94273571D01*
X127362381Y-93987857D02*
X126362381Y-93987857D01*
X126505238Y-94083095D01*
X126600476Y-94178333D01*
X126648095Y-94273571D01*
X126362381Y-102639523D02*
X127076667Y-102639523D01*
X127219524Y-102687143D01*
X127314762Y-102782381D01*
X127362381Y-102925238D01*
X127362381Y-103020476D01*
X126457619Y-102210952D02*
X126410000Y-102163333D01*
X126362381Y-102068095D01*
X126362381Y-101829999D01*
X126410000Y-101734761D01*
X126457619Y-101687142D01*
X126552857Y-101639523D01*
X126648095Y-101639523D01*
X126790952Y-101687142D01*
X127362381Y-102258571D01*
X127362381Y-101639523D01*
X126457619Y-101258571D02*
X126410000Y-101210952D01*
X126362381Y-101115714D01*
X126362381Y-100877618D01*
X126410000Y-100782380D01*
X126457619Y-100734761D01*
X126552857Y-100687142D01*
X126648095Y-100687142D01*
X126790952Y-100734761D01*
X127362381Y-101306190D01*
X127362381Y-100687142D01*
X126362381Y-140104523D02*
X127076667Y-140104523D01*
X127219524Y-140152143D01*
X127314762Y-140247381D01*
X127362381Y-140390238D01*
X127362381Y-140485476D01*
X126362381Y-139723571D02*
X126362381Y-139104523D01*
X126743333Y-139437857D01*
X126743333Y-139294999D01*
X126790952Y-139199761D01*
X126838571Y-139152142D01*
X126933810Y-139104523D01*
X127171905Y-139104523D01*
X127267143Y-139152142D01*
X127314762Y-139199761D01*
X127362381Y-139294999D01*
X127362381Y-139580714D01*
X127314762Y-139675952D01*
X127267143Y-139723571D01*
X126457619Y-138723571D02*
X126410000Y-138675952D01*
X126362381Y-138580714D01*
X126362381Y-138342618D01*
X126410000Y-138247380D01*
X126457619Y-138199761D01*
X126552857Y-138152142D01*
X126648095Y-138152142D01*
X126790952Y-138199761D01*
X127362381Y-138771190D01*
X127362381Y-138152142D01*
X158583334Y-61412381D02*
X158250000Y-60936190D01*
X158011905Y-61412381D02*
X158011905Y-60412381D01*
X158392858Y-60412381D01*
X158488096Y-60460000D01*
X158535715Y-60507619D01*
X158583334Y-60602857D01*
X158583334Y-60745714D01*
X158535715Y-60840952D01*
X158488096Y-60888571D01*
X158392858Y-60936190D01*
X158011905Y-60936190D01*
X159535715Y-61412381D02*
X158964286Y-61412381D01*
X159250000Y-61412381D02*
X159250000Y-60412381D01*
X159154762Y-60555238D01*
X159059524Y-60650476D01*
X158964286Y-60698095D01*
X176831667Y-88562381D02*
X176831667Y-89276667D01*
X176784047Y-89419524D01*
X176688809Y-89514762D01*
X176545952Y-89562381D01*
X176450714Y-89562381D01*
X177212619Y-88562381D02*
X177831667Y-88562381D01*
X177498333Y-88943333D01*
X177641191Y-88943333D01*
X177736429Y-88990952D01*
X177784048Y-89038571D01*
X177831667Y-89133810D01*
X177831667Y-89371905D01*
X177784048Y-89467143D01*
X177736429Y-89514762D01*
X177641191Y-89562381D01*
X177355476Y-89562381D01*
X177260238Y-89514762D01*
X177212619Y-89467143D01*
X176831667Y-111422381D02*
X176831667Y-112136667D01*
X176784047Y-112279524D01*
X176688809Y-112374762D01*
X176545952Y-112422381D01*
X176450714Y-112422381D01*
X177736429Y-111755714D02*
X177736429Y-112422381D01*
X177498333Y-111374762D02*
X177260238Y-112089048D01*
X177879286Y-112089048D01*
X126027381Y-136223333D02*
X126741667Y-136223333D01*
X126884524Y-136270953D01*
X126979762Y-136366191D01*
X127027381Y-136509048D01*
X127027381Y-136604286D01*
X126027381Y-135270952D02*
X126027381Y-135747143D01*
X126503571Y-135794762D01*
X126455952Y-135747143D01*
X126408333Y-135651905D01*
X126408333Y-135413809D01*
X126455952Y-135318571D01*
X126503571Y-135270952D01*
X126598810Y-135223333D01*
X126836905Y-135223333D01*
X126932143Y-135270952D01*
X126979762Y-135318571D01*
X127027381Y-135413809D01*
X127027381Y-135651905D01*
X126979762Y-135747143D01*
X126932143Y-135794762D01*
X128571667Y-61892381D02*
X128571667Y-62606667D01*
X128524047Y-62749524D01*
X128428809Y-62844762D01*
X128285952Y-62892381D01*
X128190714Y-62892381D01*
X129476429Y-61892381D02*
X129285952Y-61892381D01*
X129190714Y-61940000D01*
X129143095Y-61987619D01*
X129047857Y-62130476D01*
X129000238Y-62320952D01*
X129000238Y-62701905D01*
X129047857Y-62797143D01*
X129095476Y-62844762D01*
X129190714Y-62892381D01*
X129381191Y-62892381D01*
X129476429Y-62844762D01*
X129524048Y-62797143D01*
X129571667Y-62701905D01*
X129571667Y-62463810D01*
X129524048Y-62368571D01*
X129476429Y-62320952D01*
X129381191Y-62273333D01*
X129190714Y-62273333D01*
X129095476Y-62320952D01*
X129047857Y-62368571D01*
X129000238Y-62463810D01*
X128571667Y-83482381D02*
X128571667Y-84196667D01*
X128524047Y-84339524D01*
X128428809Y-84434762D01*
X128285952Y-84482381D01*
X128190714Y-84482381D01*
X128952619Y-83482381D02*
X129619286Y-83482381D01*
X129190714Y-84482381D01*
X128571667Y-106342381D02*
X128571667Y-107056667D01*
X128524047Y-107199524D01*
X128428809Y-107294762D01*
X128285952Y-107342381D01*
X128190714Y-107342381D01*
X129190714Y-106770952D02*
X129095476Y-106723333D01*
X129047857Y-106675714D01*
X129000238Y-106580476D01*
X129000238Y-106532857D01*
X129047857Y-106437619D01*
X129095476Y-106390000D01*
X129190714Y-106342381D01*
X129381191Y-106342381D01*
X129476429Y-106390000D01*
X129524048Y-106437619D01*
X129571667Y-106532857D01*
X129571667Y-106580476D01*
X129524048Y-106675714D01*
X129476429Y-106723333D01*
X129381191Y-106770952D01*
X129190714Y-106770952D01*
X129095476Y-106818571D01*
X129047857Y-106866190D01*
X129000238Y-106961429D01*
X129000238Y-107151905D01*
X129047857Y-107247143D01*
X129095476Y-107294762D01*
X129190714Y-107342381D01*
X129381191Y-107342381D01*
X129476429Y-107294762D01*
X129524048Y-107247143D01*
X129571667Y-107151905D01*
X129571667Y-106961429D01*
X129524048Y-106866190D01*
X129476429Y-106818571D01*
X129381191Y-106770952D01*
X170648334Y-65222381D02*
X170172143Y-65222381D01*
X170172143Y-64222381D01*
X171505477Y-65222381D02*
X170934048Y-65222381D01*
X171219762Y-65222381D02*
X171219762Y-64222381D01*
X171124524Y-64365238D01*
X171029286Y-64460476D01*
X170934048Y-64508095D01*
X168108334Y-96337381D02*
X167632143Y-96337381D01*
X167632143Y-95337381D01*
X168394048Y-95432619D02*
X168441667Y-95385000D01*
X168536905Y-95337381D01*
X168775001Y-95337381D01*
X168870239Y-95385000D01*
X168917858Y-95432619D01*
X168965477Y-95527857D01*
X168965477Y-95623095D01*
X168917858Y-95765952D01*
X168346429Y-96337381D01*
X168965477Y-96337381D01*
X126452381Y-73834523D02*
X127166667Y-73834523D01*
X127309524Y-73882143D01*
X127404762Y-73977381D01*
X127452381Y-74120238D01*
X127452381Y-74215476D01*
X126452381Y-73453571D02*
X126452381Y-72834523D01*
X126833333Y-73167857D01*
X126833333Y-73024999D01*
X126880952Y-72929761D01*
X126928571Y-72882142D01*
X127023810Y-72834523D01*
X127261905Y-72834523D01*
X127357143Y-72882142D01*
X127404762Y-72929761D01*
X127452381Y-73024999D01*
X127452381Y-73310714D01*
X127404762Y-73405952D01*
X127357143Y-73453571D01*
X126785714Y-71977380D02*
X127452381Y-71977380D01*
X126404762Y-72215476D02*
X127119048Y-72453571D01*
X127119048Y-71834523D01*
X126452381Y-66849523D02*
X127166667Y-66849523D01*
X127309524Y-66897143D01*
X127404762Y-66992381D01*
X127452381Y-67135238D01*
X127452381Y-67230476D01*
X126452381Y-66468571D02*
X126452381Y-65849523D01*
X126833333Y-66182857D01*
X126833333Y-66039999D01*
X126880952Y-65944761D01*
X126928571Y-65897142D01*
X127023810Y-65849523D01*
X127261905Y-65849523D01*
X127357143Y-65897142D01*
X127404762Y-65944761D01*
X127452381Y-66039999D01*
X127452381Y-66325714D01*
X127404762Y-66420952D01*
X127357143Y-66468571D01*
X126452381Y-64944761D02*
X126452381Y-65420952D01*
X126928571Y-65468571D01*
X126880952Y-65420952D01*
X126833333Y-65325714D01*
X126833333Y-65087618D01*
X126880952Y-64992380D01*
X126928571Y-64944761D01*
X127023810Y-64897142D01*
X127261905Y-64897142D01*
X127357143Y-64944761D01*
X127404762Y-64992380D01*
X127452381Y-65087618D01*
X127452381Y-65325714D01*
X127404762Y-65420952D01*
X127357143Y-65468571D01*
X159369167Y-103274881D02*
X159369167Y-103989167D01*
X159321547Y-104132024D01*
X159226309Y-104227262D01*
X159083452Y-104274881D01*
X158988214Y-104274881D01*
X160369167Y-104274881D02*
X159797738Y-104274881D01*
X160083452Y-104274881D02*
X160083452Y-103274881D01*
X159988214Y-103417738D01*
X159892976Y-103512976D01*
X159797738Y-103560595D01*
X158734167Y-72794881D02*
X158734167Y-73509167D01*
X158686547Y-73652024D01*
X158591309Y-73747262D01*
X158448452Y-73794881D01*
X158353214Y-73794881D01*
X159257976Y-73794881D02*
X159448452Y-73794881D01*
X159543691Y-73747262D01*
X159591310Y-73699643D01*
X159686548Y-73556786D01*
X159734167Y-73366310D01*
X159734167Y-72985357D01*
X159686548Y-72890119D01*
X159638929Y-72842500D01*
X159543691Y-72794881D01*
X159353214Y-72794881D01*
X159257976Y-72842500D01*
X159210357Y-72890119D01*
X159162738Y-72985357D01*
X159162738Y-73223452D01*
X159210357Y-73318690D01*
X159257976Y-73366310D01*
X159353214Y-73413929D01*
X159543691Y-73413929D01*
X159638929Y-73366310D01*
X159686548Y-73318690D01*
X159734167Y-73223452D01*
X158257977Y-88034881D02*
X158257977Y-88749167D01*
X158210357Y-88892024D01*
X158115119Y-88987262D01*
X157972262Y-89034881D01*
X157877024Y-89034881D01*
X159257977Y-89034881D02*
X158686548Y-89034881D01*
X158972262Y-89034881D02*
X158972262Y-88034881D01*
X158877024Y-88177738D01*
X158781786Y-88272976D01*
X158686548Y-88320595D01*
X159877024Y-88034881D02*
X159972263Y-88034881D01*
X160067501Y-88082500D01*
X160115120Y-88130119D01*
X160162739Y-88225357D01*
X160210358Y-88415833D01*
X160210358Y-88653929D01*
X160162739Y-88844405D01*
X160115120Y-88939643D01*
X160067501Y-88987262D01*
X159972263Y-89034881D01*
X159877024Y-89034881D01*
X159781786Y-88987262D01*
X159734167Y-88939643D01*
X159686548Y-88844405D01*
X159638929Y-88653929D01*
X159638929Y-88415833D01*
X159686548Y-88225357D01*
X159734167Y-88130119D01*
X159781786Y-88082500D01*
X159877024Y-88034881D01*
X126452381Y-82724523D02*
X127166667Y-82724523D01*
X127309524Y-82772143D01*
X127404762Y-82867381D01*
X127452381Y-83010238D01*
X127452381Y-83105476D01*
X126452381Y-82343571D02*
X126452381Y-81724523D01*
X126833333Y-82057857D01*
X126833333Y-81914999D01*
X126880952Y-81819761D01*
X126928571Y-81772142D01*
X127023810Y-81724523D01*
X127261905Y-81724523D01*
X127357143Y-81772142D01*
X127404762Y-81819761D01*
X127452381Y-81914999D01*
X127452381Y-82200714D01*
X127404762Y-82295952D01*
X127357143Y-82343571D01*
X126452381Y-80867380D02*
X126452381Y-81057857D01*
X126500000Y-81153095D01*
X126547619Y-81200714D01*
X126690476Y-81295952D01*
X126880952Y-81343571D01*
X127261905Y-81343571D01*
X127357143Y-81295952D01*
X127404762Y-81248333D01*
X127452381Y-81153095D01*
X127452381Y-80962618D01*
X127404762Y-80867380D01*
X127357143Y-80819761D01*
X127261905Y-80772142D01*
X127023810Y-80772142D01*
X126928571Y-80819761D01*
X126880952Y-80867380D01*
X126833333Y-80962618D01*
X126833333Y-81153095D01*
X126880952Y-81248333D01*
X126928571Y-81295952D01*
X127023810Y-81343571D01*
X126452381Y-80184523D02*
X127166667Y-80184523D01*
X127309524Y-80232143D01*
X127404762Y-80327381D01*
X127452381Y-80470238D01*
X127452381Y-80565476D01*
X126452381Y-79803571D02*
X126452381Y-79184523D01*
X126833333Y-79517857D01*
X126833333Y-79374999D01*
X126880952Y-79279761D01*
X126928571Y-79232142D01*
X127023810Y-79184523D01*
X127261905Y-79184523D01*
X127357143Y-79232142D01*
X127404762Y-79279761D01*
X127452381Y-79374999D01*
X127452381Y-79660714D01*
X127404762Y-79755952D01*
X127357143Y-79803571D01*
X126452381Y-78851190D02*
X126452381Y-78184523D01*
X127452381Y-78613095D01*
X176831667Y-65702381D02*
X176831667Y-66416667D01*
X176784047Y-66559524D01*
X176688809Y-66654762D01*
X176545952Y-66702381D01*
X176450714Y-66702381D01*
X177260238Y-65797619D02*
X177307857Y-65750000D01*
X177403095Y-65702381D01*
X177641191Y-65702381D01*
X177736429Y-65750000D01*
X177784048Y-65797619D01*
X177831667Y-65892857D01*
X177831667Y-65988095D01*
X177784048Y-66130952D01*
X177212619Y-66702381D01*
X177831667Y-66702381D01*
X170013334Y-107672143D02*
X169965715Y-107719762D01*
X169822858Y-107767381D01*
X169727620Y-107767381D01*
X169584762Y-107719762D01*
X169489524Y-107624524D01*
X169441905Y-107529286D01*
X169394286Y-107338810D01*
X169394286Y-107195952D01*
X169441905Y-107005476D01*
X169489524Y-106910238D01*
X169584762Y-106815000D01*
X169727620Y-106767381D01*
X169822858Y-106767381D01*
X169965715Y-106815000D01*
X170013334Y-106862619D01*
X170346667Y-106767381D02*
X170965715Y-106767381D01*
X170632381Y-107148333D01*
X170775239Y-107148333D01*
X170870477Y-107195952D01*
X170918096Y-107243571D01*
X170965715Y-107338810D01*
X170965715Y-107576905D01*
X170918096Y-107672143D01*
X170870477Y-107719762D01*
X170775239Y-107767381D01*
X170489524Y-107767381D01*
X170394286Y-107719762D01*
X170346667Y-107672143D01*
X170013334Y-111482143D02*
X169965715Y-111529762D01*
X169822858Y-111577381D01*
X169727620Y-111577381D01*
X169584762Y-111529762D01*
X169489524Y-111434524D01*
X169441905Y-111339286D01*
X169394286Y-111148810D01*
X169394286Y-111005952D01*
X169441905Y-110815476D01*
X169489524Y-110720238D01*
X169584762Y-110625000D01*
X169727620Y-110577381D01*
X169822858Y-110577381D01*
X169965715Y-110625000D01*
X170013334Y-110672619D01*
X170870477Y-110910714D02*
X170870477Y-111577381D01*
X170632381Y-110529762D02*
X170394286Y-111244048D01*
X171013334Y-111244048D01*
X169378334Y-61952143D02*
X169330715Y-61999762D01*
X169187858Y-62047381D01*
X169092620Y-62047381D01*
X168949762Y-61999762D01*
X168854524Y-61904524D01*
X168806905Y-61809286D01*
X168759286Y-61618810D01*
X168759286Y-61475952D01*
X168806905Y-61285476D01*
X168854524Y-61190238D01*
X168949762Y-61095000D01*
X169092620Y-61047381D01*
X169187858Y-61047381D01*
X169330715Y-61095000D01*
X169378334Y-61142619D01*
X170330715Y-62047381D02*
X169759286Y-62047381D01*
X170045000Y-62047381D02*
X170045000Y-61047381D01*
X169949762Y-61190238D01*
X169854524Y-61285476D01*
X169759286Y-61333095D01*
X169338334Y-79962143D02*
X169290715Y-80009762D01*
X169147858Y-80057381D01*
X169052620Y-80057381D01*
X168909762Y-80009762D01*
X168814524Y-79914524D01*
X168766905Y-79819286D01*
X168719286Y-79628810D01*
X168719286Y-79485952D01*
X168766905Y-79295476D01*
X168814524Y-79200238D01*
X168909762Y-79105000D01*
X169052620Y-79057381D01*
X169147858Y-79057381D01*
X169290715Y-79105000D01*
X169338334Y-79152619D01*
X169719286Y-79152619D02*
X169766905Y-79105000D01*
X169862143Y-79057381D01*
X170100239Y-79057381D01*
X170195477Y-79105000D01*
X170243096Y-79152619D01*
X170290715Y-79247857D01*
X170290715Y-79343095D01*
X170243096Y-79485952D01*
X169671667Y-80057381D01*
X170290715Y-80057381D01*
X127571667Y-52132381D02*
X127238333Y-51656190D01*
X127000238Y-52132381D02*
X127000238Y-51132381D01*
X127381191Y-51132381D01*
X127476429Y-51180000D01*
X127524048Y-51227619D01*
X127571667Y-51322857D01*
X127571667Y-51465714D01*
X127524048Y-51560952D01*
X127476429Y-51608571D01*
X127381191Y-51656190D01*
X127000238Y-51656190D01*
X128000238Y-51608571D02*
X128333572Y-51608571D01*
X128476429Y-52132381D02*
X128000238Y-52132381D01*
X128000238Y-51132381D01*
X128476429Y-51132381D01*
X129238334Y-51608571D02*
X128905000Y-51608571D01*
X128905000Y-52132381D02*
X128905000Y-51132381D01*
X129381191Y-51132381D01*
X129905000Y-51132381D02*
X129905000Y-51370476D01*
X129666905Y-51275238D02*
X129905000Y-51370476D01*
X130143096Y-51275238D01*
X129762143Y-51560952D02*
X129905000Y-51370476D01*
X130047858Y-51560952D01*
X130666905Y-51132381D02*
X130666905Y-51370476D01*
X130428810Y-51275238D02*
X130666905Y-51370476D01*
X130905001Y-51275238D01*
X130524048Y-51560952D02*
X130666905Y-51370476D01*
X130809763Y-51560952D01*
X175831667Y-50862381D02*
X175498333Y-50386190D01*
X175260238Y-50862381D02*
X175260238Y-49862381D01*
X175641191Y-49862381D01*
X175736429Y-49910000D01*
X175784048Y-49957619D01*
X175831667Y-50052857D01*
X175831667Y-50195714D01*
X175784048Y-50290952D01*
X175736429Y-50338571D01*
X175641191Y-50386190D01*
X175260238Y-50386190D01*
X176260238Y-50338571D02*
X176593572Y-50338571D01*
X176736429Y-50862381D02*
X176260238Y-50862381D01*
X176260238Y-49862381D01*
X176736429Y-49862381D01*
X177498334Y-50338571D02*
X177165000Y-50338571D01*
X177165000Y-50862381D02*
X177165000Y-49862381D01*
X177641191Y-49862381D01*
X178165000Y-49862381D02*
X178165000Y-50100476D01*
X177926905Y-50005238D02*
X178165000Y-50100476D01*
X178403096Y-50005238D01*
X178022143Y-50290952D02*
X178165000Y-50100476D01*
X178307858Y-50290952D01*
X178926905Y-49862381D02*
X178926905Y-50100476D01*
X178688810Y-50005238D02*
X178926905Y-50100476D01*
X179165001Y-50005238D01*
X178784048Y-50290952D02*
X178926905Y-50100476D01*
X179069763Y-50290952D01*
X175831667Y-133412381D02*
X175498333Y-132936190D01*
X175260238Y-133412381D02*
X175260238Y-132412381D01*
X175641191Y-132412381D01*
X175736429Y-132460000D01*
X175784048Y-132507619D01*
X175831667Y-132602857D01*
X175831667Y-132745714D01*
X175784048Y-132840952D01*
X175736429Y-132888571D01*
X175641191Y-132936190D01*
X175260238Y-132936190D01*
X176260238Y-132888571D02*
X176593572Y-132888571D01*
X176736429Y-133412381D02*
X176260238Y-133412381D01*
X176260238Y-132412381D01*
X176736429Y-132412381D01*
X177498334Y-132888571D02*
X177165000Y-132888571D01*
X177165000Y-133412381D02*
X177165000Y-132412381D01*
X177641191Y-132412381D01*
X178165000Y-132412381D02*
X178165000Y-132650476D01*
X177926905Y-132555238D02*
X178165000Y-132650476D01*
X178403096Y-132555238D01*
X178022143Y-132840952D02*
X178165000Y-132650476D01*
X178307858Y-132840952D01*
X178926905Y-132412381D02*
X178926905Y-132650476D01*
X178688810Y-132555238D02*
X178926905Y-132650476D01*
X179165001Y-132555238D01*
X178784048Y-132840952D02*
X178926905Y-132650476D01*
X179069763Y-132840952D01*
X133921667Y-55942381D02*
X133588333Y-55466190D01*
X133350238Y-55942381D02*
X133350238Y-54942381D01*
X133731191Y-54942381D01*
X133826429Y-54990000D01*
X133874048Y-55037619D01*
X133921667Y-55132857D01*
X133921667Y-55275714D01*
X133874048Y-55370952D01*
X133826429Y-55418571D01*
X133731191Y-55466190D01*
X133350238Y-55466190D01*
X134350238Y-55418571D02*
X134683572Y-55418571D01*
X134826429Y-55942381D02*
X134350238Y-55942381D01*
X134350238Y-54942381D01*
X134826429Y-54942381D01*
X135588334Y-55418571D02*
X135255000Y-55418571D01*
X135255000Y-55942381D02*
X135255000Y-54942381D01*
X135731191Y-54942381D01*
X136255000Y-54942381D02*
X136255000Y-55180476D01*
X136016905Y-55085238D02*
X136255000Y-55180476D01*
X136493096Y-55085238D01*
X136112143Y-55370952D02*
X136255000Y-55180476D01*
X136397858Y-55370952D01*
X137016905Y-54942381D02*
X137016905Y-55180476D01*
X136778810Y-55085238D02*
X137016905Y-55180476D01*
X137255001Y-55085238D01*
X136874048Y-55370952D02*
X137016905Y-55180476D01*
X137159763Y-55370952D01*
X133921667Y-114362381D02*
X133588333Y-113886190D01*
X133350238Y-114362381D02*
X133350238Y-113362381D01*
X133731191Y-113362381D01*
X133826429Y-113410000D01*
X133874048Y-113457619D01*
X133921667Y-113552857D01*
X133921667Y-113695714D01*
X133874048Y-113790952D01*
X133826429Y-113838571D01*
X133731191Y-113886190D01*
X133350238Y-113886190D01*
X134350238Y-113838571D02*
X134683572Y-113838571D01*
X134826429Y-114362381D02*
X134350238Y-114362381D01*
X134350238Y-113362381D01*
X134826429Y-113362381D01*
X135588334Y-113838571D02*
X135255000Y-113838571D01*
X135255000Y-114362381D02*
X135255000Y-113362381D01*
X135731191Y-113362381D01*
X136255000Y-113362381D02*
X136255000Y-113600476D01*
X136016905Y-113505238D02*
X136255000Y-113600476D01*
X136493096Y-113505238D01*
X136112143Y-113790952D02*
X136255000Y-113600476D01*
X136397858Y-113790952D01*
X137016905Y-113362381D02*
X137016905Y-113600476D01*
X136778810Y-113505238D02*
X137016905Y-113600476D01*
X137255001Y-113505238D01*
X136874048Y-113790952D02*
X137016905Y-113600476D01*
X137159763Y-113790952D01*
X182816667Y-114362381D02*
X182483333Y-113886190D01*
X182245238Y-114362381D02*
X182245238Y-113362381D01*
X182626191Y-113362381D01*
X182721429Y-113410000D01*
X182769048Y-113457619D01*
X182816667Y-113552857D01*
X182816667Y-113695714D01*
X182769048Y-113790952D01*
X182721429Y-113838571D01*
X182626191Y-113886190D01*
X182245238Y-113886190D01*
X183245238Y-113838571D02*
X183578572Y-113838571D01*
X183721429Y-114362381D02*
X183245238Y-114362381D01*
X183245238Y-113362381D01*
X183721429Y-113362381D01*
X184483334Y-113838571D02*
X184150000Y-113838571D01*
X184150000Y-114362381D02*
X184150000Y-113362381D01*
X184626191Y-113362381D01*
X185150000Y-113362381D02*
X185150000Y-113600476D01*
X184911905Y-113505238D02*
X185150000Y-113600476D01*
X185388096Y-113505238D01*
X185007143Y-113790952D02*
X185150000Y-113600476D01*
X185292858Y-113790952D01*
X185911905Y-113362381D02*
X185911905Y-113600476D01*
X185673810Y-113505238D02*
X185911905Y-113600476D01*
X186150001Y-113505238D01*
X185769048Y-113790952D02*
X185911905Y-113600476D01*
X186054763Y-113790952D01*
X135088334Y-123052381D02*
X134755000Y-122576190D01*
X134516905Y-123052381D02*
X134516905Y-122052381D01*
X134897858Y-122052381D01*
X134993096Y-122100000D01*
X135040715Y-122147619D01*
X135088334Y-122242857D01*
X135088334Y-122385714D01*
X135040715Y-122480952D01*
X134993096Y-122528571D01*
X134897858Y-122576190D01*
X134516905Y-122576190D01*
X135469286Y-122147619D02*
X135516905Y-122100000D01*
X135612143Y-122052381D01*
X135850239Y-122052381D01*
X135945477Y-122100000D01*
X135993096Y-122147619D01*
X136040715Y-122242857D01*
X136040715Y-122338095D01*
X135993096Y-122480952D01*
X135421667Y-123052381D01*
X136040715Y-123052381D01*
X135088334Y-125592381D02*
X134755000Y-125116190D01*
X134516905Y-125592381D02*
X134516905Y-124592381D01*
X134897858Y-124592381D01*
X134993096Y-124640000D01*
X135040715Y-124687619D01*
X135088334Y-124782857D01*
X135088334Y-124925714D01*
X135040715Y-125020952D01*
X134993096Y-125068571D01*
X134897858Y-125116190D01*
X134516905Y-125116190D01*
X135421667Y-124592381D02*
X136040715Y-124592381D01*
X135707381Y-124973333D01*
X135850239Y-124973333D01*
X135945477Y-125020952D01*
X135993096Y-125068571D01*
X136040715Y-125163810D01*
X136040715Y-125401905D01*
X135993096Y-125497143D01*
X135945477Y-125544762D01*
X135850239Y-125592381D01*
X135564524Y-125592381D01*
X135469286Y-125544762D01*
X135421667Y-125497143D01*
M02*
