M48
;DRILL file {KiCad 4.0.7} date 06/01/18 17:01:05
;FORMAT={-:-/ absolute / metric / decimal}
FMAT,2
METRIC,TZ
T1C0.400
T2C0.700
T3C0.750
T4C0.800
T5C0.900
T6C1.000
T7C1.400
T8C2.580
T9C3.200
%
G90
G05
M71
T1
X120.65Y-140.97
X123.19Y-107.315
X131.445Y-140.97
X136.525Y-140.335
X137.16Y-130.175
X145.415Y-128.27
X147.955Y-128.905
X153.035Y-140.97
X153.67Y-107.95
X173.355Y-93.98
X173.355Y-113.665
X173.99Y-112.395
X173.99Y-144.78
X173.99Y-146.685
X180.975Y-111.125
T2
X131.445Y-124.46
X131.445Y-127.
X139.065Y-124.46
X139.065Y-127.
X147.32Y-92.075
X147.32Y-99.695
X147.32Y-101.6
X147.32Y-109.22
X152.4Y-55.245
X152.4Y-62.865
T3
X120.46Y-147.32
X122.46Y-147.32
X124.46Y-114.205
X124.46Y-116.205
X124.46Y-120.46
X124.46Y-122.46
X124.46Y-124.46
X124.46Y-128.715
X124.46Y-130.715
X124.46Y-132.715
X124.46Y-136.875
X124.46Y-138.875
X124.46Y-140.875
X124.46Y-142.875
X124.46Y-147.32
X128.81Y-147.32
X130.81Y-147.32
X134.97Y-147.32
X136.97Y-147.32
X138.97Y-147.32
X140.97Y-147.32
X145.13Y-147.32
X147.13Y-147.32
X149.13Y-147.32
X151.13Y-147.32
X155.29Y-147.32
X157.29Y-147.32
X159.29Y-147.32
X161.29Y-147.32
X165.45Y-147.32
X167.45Y-147.32
X169.45Y-147.32
X171.45Y-147.32
X175.61Y-147.32
X177.61Y-147.32
X179.61Y-147.32
X181.61Y-134.62
X181.61Y-136.62
X181.61Y-140.97
X181.61Y-142.97
X181.61Y-147.32
T4
X165.1Y-61.595
X165.1Y-64.135
X165.1Y-83.82
X165.1Y-86.36
X167.72Y-107.315
X167.72Y-111.125
X170.1Y-61.595
X170.1Y-83.82
X172.72Y-64.135
X172.72Y-86.36
X172.72Y-107.315
X172.72Y-111.125
T5
X154.94Y-55.245
X157.48Y-55.245
T6
X127.Y-144.78
X128.905Y-64.77
X128.905Y-67.31
X128.905Y-69.85
X128.905Y-72.39
X128.905Y-74.93
X128.905Y-77.47
X128.905Y-80.01
X128.905Y-82.55
X128.905Y-86.36
X128.905Y-88.9
X128.905Y-91.44
X128.905Y-93.98
X128.905Y-96.52
X128.905Y-99.06
X128.905Y-101.6
X128.905Y-104.14
X128.905Y-109.22
X128.905Y-111.76
X128.905Y-114.3
X128.905Y-116.84
X128.905Y-119.38
X128.905Y-121.92
X128.905Y-124.46
X128.905Y-127.
X128.905Y-134.62
X128.905Y-137.16
X129.54Y-144.78
X131.445Y-134.62
X131.445Y-137.16
X132.08Y-144.78
X133.985Y-134.62
X133.985Y-137.16
X135.255Y-144.78
X136.525Y-134.62
X136.525Y-137.16
X137.795Y-144.78
X139.065Y-134.62
X139.065Y-137.16
X140.335Y-144.78
X141.605Y-134.62
X141.605Y-137.16
X143.51Y-144.78
X144.145Y-134.62
X144.145Y-137.16
X146.05Y-144.78
X146.685Y-134.62
X146.685Y-137.16
X148.59Y-144.78
X149.225Y-134.62
X149.225Y-137.16
X151.765Y-134.62
X151.765Y-137.16
X151.765Y-144.78
X153.035Y-114.3
X153.035Y-116.84
X153.035Y-119.38
X153.035Y-121.92
X153.035Y-124.46
X153.035Y-127.
X154.305Y-134.62
X154.305Y-137.16
X154.305Y-144.78
X156.845Y-134.62
X156.845Y-137.16
X156.845Y-144.78
X159.385Y-130.175
X159.385Y-134.62
X159.385Y-137.16
X161.925Y-130.175
X161.925Y-134.62
X161.925Y-137.16
X164.465Y-130.175
X164.465Y-134.62
X164.465Y-137.16
X165.1Y-70.485
X165.1Y-73.025
X167.005Y-130.175
X167.005Y-134.62
X167.005Y-137.16
X167.64Y-70.485
X167.64Y-73.025
X169.545Y-130.175
X169.545Y-134.62
X169.545Y-137.16
X172.085Y-130.175
X172.085Y-134.62
X172.085Y-137.16
X177.165Y-68.58
X177.165Y-71.12
X177.165Y-73.66
X177.165Y-76.2
X177.165Y-78.74
X177.165Y-81.28
X177.165Y-83.82
X177.165Y-86.36
X177.165Y-91.44
X177.165Y-93.98
X177.165Y-96.52
X177.165Y-99.06
X177.165Y-101.6
X177.165Y-104.14
X177.165Y-106.68
X177.165Y-109.22
X177.165Y-114.3
X177.165Y-116.84
X177.165Y-119.38
X177.165Y-121.92
X177.165Y-124.46
X177.165Y-127.
X177.165Y-129.54
X177.165Y-132.08
X181.61Y-69.215
X181.61Y-71.755
X181.61Y-74.295
X181.61Y-85.725
X181.61Y-88.265
X181.61Y-90.805
X181.61Y-101.6
X181.61Y-104.14
X181.61Y-106.68
X182.245Y-124.46
X182.245Y-127.635
X184.785Y-124.46
X184.785Y-127.635
T7
X138.43Y-69.85
X138.43Y-85.09
X148.59Y-69.85
X148.59Y-85.09
X172.72Y-68.58
X172.72Y-78.74
X172.72Y-90.805
X172.72Y-100.965
T8
X158.75Y-69.85
X158.75Y-77.47
X158.75Y-85.09
X158.75Y-92.71
X158.75Y-100.33
X158.75Y-107.95
T9
X128.905Y-55.88
X135.255Y-59.69
X135.255Y-118.11
X177.165Y-54.61
X177.165Y-137.16
X184.15Y-59.69
X184.15Y-118.11
T0
M30
