G04 #@! TF.FileFunction,Copper,L1,Top,Signal*
%FSLAX46Y46*%
G04 Gerber Fmt 4.6, Leading zero omitted, Abs format (unit mm)*
G04 Created by KiCad (PCBNEW 4.0.7) date 03/26/18 11:27:05*
%MOMM*%
%LPD*%
G01*
G04 APERTURE LIST*
%ADD10C,0.100000*%
%ADD11R,1.800000X1.800000*%
%ADD12C,1.800000*%
%ADD13R,1.700000X1.700000*%
%ADD14O,1.700000X1.700000*%
%ADD15R,1.200000X1.700000*%
%ADD16O,1.200000X1.700000*%
%ADD17R,1.700000X1.200000*%
%ADD18O,1.700000X1.200000*%
%ADD19C,1.400000*%
%ADD20O,1.400000X1.400000*%
%ADD21C,1.600000*%
%ADD22O,1.600000X1.600000*%
%ADD23O,1.800000X1.800000*%
%ADD24C,5.080000*%
%ADD25C,0.600000*%
%ADD26C,0.500000*%
%ADD27C,0.250000*%
G04 APERTURE END LIST*
D10*
D11*
X157480000Y-57150000D03*
D12*
X154940000Y-57150000D03*
D13*
X159385000Y-148590000D03*
D14*
X156845000Y-148590000D03*
X154305000Y-148590000D03*
D13*
X150495000Y-148590000D03*
D14*
X147955000Y-148590000D03*
X145415000Y-148590000D03*
D13*
X141605000Y-148590000D03*
D14*
X139065000Y-148590000D03*
X136525000Y-148590000D03*
D13*
X132715000Y-148590000D03*
D14*
X130175000Y-148590000D03*
X127635000Y-148590000D03*
D15*
X168275000Y-151765000D03*
D16*
X166275000Y-151765000D03*
X164275000Y-151765000D03*
X162275000Y-151765000D03*
D15*
X179070000Y-151765000D03*
D16*
X177070000Y-151765000D03*
X175070000Y-151765000D03*
X173070000Y-151765000D03*
D17*
X124460000Y-116205000D03*
D18*
X124460000Y-118205000D03*
X124460000Y-120205000D03*
X124460000Y-122205000D03*
D17*
X124460000Y-127000000D03*
D18*
X124460000Y-129000000D03*
X124460000Y-131000000D03*
X124460000Y-133000000D03*
D15*
X157480000Y-151765000D03*
D16*
X155480000Y-151765000D03*
X153480000Y-151765000D03*
D17*
X124460000Y-107315000D03*
D18*
X124460000Y-109315000D03*
X124460000Y-111315000D03*
D17*
X124460000Y-93345000D03*
D18*
X124460000Y-95345000D03*
D17*
X124460000Y-100330000D03*
D18*
X124460000Y-102330000D03*
D15*
X133350000Y-151765000D03*
D16*
X131350000Y-151765000D03*
X129350000Y-151765000D03*
D15*
X142875000Y-151765000D03*
D16*
X140875000Y-151765000D03*
X138875000Y-151765000D03*
X136875000Y-151765000D03*
D17*
X124460000Y-137795000D03*
D18*
X124460000Y-139795000D03*
X124460000Y-141795000D03*
X124460000Y-143795000D03*
D19*
X154940000Y-60960000D03*
D20*
X162560000Y-60960000D03*
D13*
X177165000Y-91440000D03*
D14*
X177165000Y-93980000D03*
X177165000Y-96520000D03*
X177165000Y-99060000D03*
X177165000Y-101600000D03*
X177165000Y-104140000D03*
X177165000Y-106680000D03*
X177165000Y-109220000D03*
D13*
X177165000Y-114300000D03*
D14*
X177165000Y-116840000D03*
X177165000Y-119380000D03*
X177165000Y-121920000D03*
X177165000Y-124460000D03*
X177165000Y-127000000D03*
X177165000Y-129540000D03*
X177165000Y-132080000D03*
D13*
X128905000Y-137160000D03*
D14*
X128905000Y-134620000D03*
X131445000Y-137160000D03*
X131445000Y-134620000D03*
X133985000Y-137160000D03*
X133985000Y-134620000D03*
X136525000Y-137160000D03*
X136525000Y-134620000D03*
X139065000Y-137160000D03*
X139065000Y-134620000D03*
X141605000Y-137160000D03*
X141605000Y-134620000D03*
X144145000Y-137160000D03*
X144145000Y-134620000D03*
X146685000Y-137160000D03*
X146685000Y-134620000D03*
X149225000Y-137160000D03*
X149225000Y-134620000D03*
X151765000Y-137160000D03*
X151765000Y-134620000D03*
X154305000Y-137160000D03*
X154305000Y-134620000D03*
X156845000Y-137160000D03*
X156845000Y-134620000D03*
X159385000Y-137160000D03*
X159385000Y-134620000D03*
X161925000Y-137160000D03*
X161925000Y-134620000D03*
X164465000Y-137160000D03*
X164465000Y-134620000D03*
X167005000Y-137160000D03*
X167005000Y-134620000D03*
X169545000Y-137160000D03*
X169545000Y-134620000D03*
X172085000Y-137160000D03*
X172085000Y-134620000D03*
D13*
X128905000Y-64770000D03*
D14*
X128905000Y-67310000D03*
X128905000Y-69850000D03*
X128905000Y-72390000D03*
X128905000Y-74930000D03*
X128905000Y-77470000D03*
X128905000Y-80010000D03*
X128905000Y-82550000D03*
D13*
X128905000Y-86360000D03*
D14*
X128905000Y-88900000D03*
X128905000Y-91440000D03*
X128905000Y-93980000D03*
X128905000Y-96520000D03*
X128905000Y-99060000D03*
X128905000Y-101600000D03*
X128905000Y-104140000D03*
D13*
X128905000Y-109220000D03*
D14*
X128905000Y-111760000D03*
X128905000Y-114300000D03*
X128905000Y-116840000D03*
X128905000Y-119380000D03*
X128905000Y-121920000D03*
X128905000Y-124460000D03*
X128905000Y-127000000D03*
D21*
X174625000Y-64770000D03*
D22*
X167005000Y-64770000D03*
D21*
X172085000Y-95885000D03*
D22*
X164465000Y-95885000D03*
D11*
X181610000Y-64770000D03*
D23*
X181610000Y-67310000D03*
X181610000Y-69850000D03*
D11*
X172085000Y-91440000D03*
D23*
X172085000Y-88900000D03*
X172085000Y-86360000D03*
D11*
X181610000Y-106045000D03*
D23*
X181610000Y-108585000D03*
X181610000Y-111125000D03*
D17*
X124460000Y-71755000D03*
D18*
X124460000Y-73755000D03*
D17*
X124460000Y-64770000D03*
D18*
X124460000Y-66770000D03*
D24*
X159067500Y-107632500D03*
X159067500Y-100012500D03*
X159067500Y-77152500D03*
X159067500Y-69532500D03*
X159067500Y-92392500D03*
X159067500Y-84772500D03*
D13*
X120650000Y-81915000D03*
D14*
X123190000Y-81915000D03*
D13*
X120650000Y-79375000D03*
D14*
X123190000Y-79375000D03*
D13*
X177165000Y-68580000D03*
D14*
X177165000Y-71120000D03*
X177165000Y-73660000D03*
X177165000Y-76200000D03*
X177165000Y-78740000D03*
X177165000Y-81280000D03*
X177165000Y-83820000D03*
X177165000Y-86360000D03*
D21*
X172720000Y-107315000D03*
X167720000Y-107315000D03*
X172720000Y-111125000D03*
X167720000Y-111125000D03*
X167005000Y-61595000D03*
X172005000Y-61595000D03*
X167005000Y-81915000D03*
X172005000Y-81915000D03*
D13*
X148590000Y-67945000D03*
D14*
X148590000Y-65405000D03*
X148590000Y-62865000D03*
X148590000Y-60325000D03*
X148590000Y-57785000D03*
X148590000Y-55245000D03*
D13*
X172085000Y-130175000D03*
D14*
X169545000Y-130175000D03*
X167005000Y-130175000D03*
X164465000Y-130175000D03*
X161925000Y-130175000D03*
X159385000Y-130175000D03*
D13*
X167640000Y-73025000D03*
D14*
X170180000Y-73025000D03*
X167640000Y-70485000D03*
X170180000Y-70485000D03*
D19*
X131445000Y-124460000D03*
D20*
X139065000Y-124460000D03*
D19*
X131445000Y-127000000D03*
D20*
X139065000Y-127000000D03*
D25*
X127635000Y-145415000D03*
X145415000Y-145415000D03*
X136525000Y-145415000D03*
X132080000Y-113030000D03*
X163195000Y-111760000D03*
X167005000Y-142875000D03*
X126365000Y-142875000D03*
X123190000Y-149860000D03*
X123190000Y-114935000D03*
X163195000Y-123825000D03*
X135255000Y-125730000D03*
X165735000Y-127635000D03*
D26*
X181610000Y-106045000D02*
X179705000Y-107950000D01*
X176530000Y-111125000D02*
X172720000Y-107315000D01*
X177800000Y-111125000D02*
X176530000Y-111125000D01*
X179705000Y-109220000D02*
X177800000Y-111125000D01*
X179705000Y-107950000D02*
X179705000Y-109220000D01*
X167005000Y-64770000D02*
X167005000Y-61595000D01*
X159067500Y-69532500D02*
X162242500Y-69532500D01*
X162242500Y-69532500D02*
X167005000Y-64770000D01*
D27*
X124460000Y-139795000D02*
X125190000Y-139795000D01*
X125190000Y-139795000D02*
X127635000Y-142240000D01*
X127635000Y-142240000D02*
X127635000Y-145415000D01*
X168275000Y-151765000D02*
X170815000Y-151765000D01*
X170815000Y-151765000D02*
X172085000Y-153035000D01*
X172085000Y-153035000D02*
X178435000Y-153035000D01*
X178435000Y-153035000D02*
X179070000Y-152400000D01*
X179070000Y-152400000D02*
X179070000Y-151765000D01*
X124460000Y-127000000D02*
X125730000Y-125730000D01*
X125730000Y-125730000D02*
X125730000Y-116840000D01*
X125730000Y-116840000D02*
X125095000Y-116840000D01*
X125095000Y-116840000D02*
X124460000Y-116205000D01*
X127635000Y-148590000D02*
X127635000Y-145415000D01*
X136525000Y-148590000D02*
X136525000Y-145415000D01*
X145415000Y-145415000D02*
X145415000Y-148590000D01*
X133350000Y-151765000D02*
X136525000Y-148590000D01*
X140875000Y-151765000D02*
X140875000Y-150590000D01*
X140875000Y-150590000D02*
X141605000Y-149860000D01*
X141605000Y-149860000D02*
X144145000Y-149860000D01*
X144145000Y-149860000D02*
X145415000Y-148590000D01*
X154305000Y-148590000D02*
X157480000Y-151765000D01*
X154305000Y-148590000D02*
X153670000Y-148590000D01*
X153670000Y-148590000D02*
X151765000Y-150495000D01*
X151765000Y-150495000D02*
X147320000Y-150495000D01*
X147320000Y-150495000D02*
X145415000Y-148590000D01*
X140970000Y-151765000D02*
X140875000Y-151765000D01*
D26*
X180340000Y-112395000D02*
X180340000Y-145415000D01*
X177070000Y-148685000D02*
X177070000Y-151765000D01*
X180340000Y-145415000D02*
X177070000Y-148685000D01*
D27*
X139065000Y-124460000D02*
X139065000Y-127000000D01*
X131350000Y-151765000D02*
X131350000Y-151670000D01*
X131350000Y-151670000D02*
X128905000Y-149225000D01*
X128905000Y-149225000D02*
X128905000Y-142240000D01*
X128905000Y-142240000D02*
X124460000Y-137795000D01*
D26*
X172720000Y-111125000D02*
X172720000Y-111760000D01*
X172720000Y-111760000D02*
X173355000Y-112395000D01*
X173355000Y-112395000D02*
X180340000Y-112395000D01*
X180340000Y-112395000D02*
X181610000Y-111125000D01*
X159067500Y-100012500D02*
X157797500Y-100012500D01*
X157797500Y-100012500D02*
X142240000Y-84455000D01*
X142240000Y-84455000D02*
X125730000Y-84455000D01*
X125730000Y-84455000D02*
X123190000Y-81915000D01*
D27*
X177165000Y-91440000D02*
X174625000Y-91440000D01*
X174625000Y-91440000D02*
X162560000Y-103505000D01*
X162560000Y-103505000D02*
X162560000Y-126365000D01*
X162560000Y-126365000D02*
X160655000Y-128270000D01*
X160655000Y-128270000D02*
X160655000Y-151130000D01*
X160655000Y-151130000D02*
X158750000Y-153035000D01*
X158750000Y-153035000D02*
X154750000Y-153035000D01*
X154750000Y-153035000D02*
X153480000Y-151765000D01*
X177165000Y-93980000D02*
X175895000Y-93980000D01*
X125730000Y-113030000D02*
X124460000Y-111760000D01*
X132080000Y-113030000D02*
X125730000Y-113030000D01*
X163195000Y-106680000D02*
X163195000Y-111760000D01*
X175895000Y-93980000D02*
X163195000Y-106680000D01*
X124460000Y-111760000D02*
X124460000Y-111315000D01*
X129350000Y-151765000D02*
X127635000Y-151765000D01*
X170180000Y-103505000D02*
X177165000Y-96520000D01*
X170180000Y-111125000D02*
X170180000Y-103505000D01*
X168275000Y-113030000D02*
X170180000Y-111125000D01*
X168275000Y-141605000D02*
X168275000Y-113030000D01*
X167005000Y-142875000D02*
X168275000Y-141605000D01*
X126365000Y-150495000D02*
X126365000Y-142875000D01*
X127635000Y-151765000D02*
X126365000Y-150495000D01*
X129350000Y-151765000D02*
X128905000Y-151765000D01*
X128905000Y-69850000D02*
X133985000Y-69850000D01*
X133985000Y-69850000D02*
X148590000Y-55245000D01*
X128905000Y-72390000D02*
X133985000Y-72390000D01*
X133985000Y-72390000D02*
X148590000Y-57785000D01*
X128905000Y-74930000D02*
X133985000Y-74930000D01*
X133985000Y-74930000D02*
X148590000Y-60325000D01*
X128905000Y-77470000D02*
X133985000Y-77470000D01*
X133985000Y-77470000D02*
X148590000Y-62865000D01*
X128905000Y-80010000D02*
X133985000Y-80010000D01*
X133985000Y-80010000D02*
X148590000Y-65405000D01*
X128905000Y-82550000D02*
X133985000Y-82550000D01*
X133985000Y-82550000D02*
X148590000Y-67945000D01*
X159385000Y-148590000D02*
X159385000Y-144145000D01*
X155575000Y-113030000D02*
X128905000Y-86360000D01*
X155575000Y-140335000D02*
X155575000Y-113030000D01*
X159385000Y-144145000D02*
X155575000Y-140335000D01*
X150495000Y-148590000D02*
X150495000Y-110490000D01*
X150495000Y-110490000D02*
X128905000Y-88900000D01*
X141605000Y-148590000D02*
X141605000Y-146685000D01*
X147955000Y-110490000D02*
X128905000Y-91440000D01*
X147955000Y-140335000D02*
X147955000Y-110490000D01*
X141605000Y-146685000D02*
X147955000Y-140335000D01*
X128905000Y-93980000D02*
X127635000Y-93980000D01*
X120015000Y-146685000D02*
X123190000Y-149860000D01*
X120015000Y-101600000D02*
X120015000Y-146685000D01*
X127635000Y-93980000D02*
X120015000Y-101600000D01*
X128905000Y-114300000D02*
X122555000Y-114300000D01*
X121285000Y-138620000D02*
X124460000Y-141795000D01*
X121285000Y-115570000D02*
X121285000Y-138620000D01*
X122555000Y-114300000D02*
X121285000Y-115570000D01*
X126365000Y-114935000D02*
X128270000Y-116840000D01*
X123190000Y-114935000D02*
X126365000Y-114935000D01*
X128270000Y-116840000D02*
X128905000Y-116840000D01*
X124460000Y-143510000D02*
X124460000Y-143795000D01*
X128905000Y-119380000D02*
X130810000Y-119380000D01*
X140335000Y-150305000D02*
X138875000Y-151765000D01*
X140335000Y-145415000D02*
X140335000Y-150305000D01*
X142875000Y-142875000D02*
X140335000Y-145415000D01*
X142875000Y-123825000D02*
X142875000Y-142875000D01*
X140335000Y-121285000D02*
X142875000Y-123825000D01*
X132715000Y-121285000D02*
X140335000Y-121285000D01*
X130810000Y-119380000D02*
X132715000Y-121285000D01*
X136875000Y-151765000D02*
X136875000Y-150780000D01*
X139700000Y-121920000D02*
X140335000Y-122555000D01*
X139700000Y-121920000D02*
X128905000Y-121920000D01*
X140335000Y-138430000D02*
X140335000Y-122555000D01*
X137795000Y-140970000D02*
X140335000Y-138430000D01*
X137795000Y-149860000D02*
X137795000Y-140970000D01*
X136875000Y-150780000D02*
X137795000Y-149860000D01*
X162275000Y-151765000D02*
X162275000Y-139350000D01*
X163195000Y-138430000D02*
X163195000Y-123825000D01*
X162275000Y-139350000D02*
X163195000Y-138430000D01*
X164275000Y-150685000D02*
X164275000Y-139890000D01*
X133985000Y-127000000D02*
X131445000Y-127000000D01*
X135255000Y-125730000D02*
X133985000Y-127000000D01*
X165735000Y-138430000D02*
X165735000Y-127635000D01*
X164275000Y-139890000D02*
X165735000Y-138430000D01*
X164275000Y-151765000D02*
X164275000Y-150685000D01*
X172530000Y-149225000D02*
X175070000Y-151765000D01*
X165735000Y-149225000D02*
X172530000Y-149225000D01*
X164275000Y-150685000D02*
X165735000Y-149225000D01*
D26*
X174625000Y-64770000D02*
X181610000Y-64770000D01*
M02*
